<?xml version="1.0" encoding="UTF-8"?> <svg xmlns="http://www.w3.org/2000/svg" width="238" height="40" viewBox="0 0 238 40" fill="none"> <rect width="238" height="40" rx="20" fill="#F8F8F8"></rect> <g clip-path="url(#clip0_3161_243)"> <path d="M76.5507 18.2419V24.0905H74.9501V16.3357C75.002 16.3313 75.0554 16.324 75.108 16.324C75.7074 16.324 76.3062 16.3203 76.9049 16.3284C76.9448 16.3292 76.984 16.3384 77.02 16.3553C77.056 16.3723 77.088 16.3966 77.1138 16.4266C78.1093 18.0138 79.101 19.6054 80.089 21.2014C80.1986 21.3774 80.2927 21.5637 80.4054 21.7676V16.3401H82.0022V24.0912C81.9518 24.0949 81.8992 24.1029 81.8459 24.1029C81.296 24.1029 80.747 24.1029 80.1971 24.1029C80.1462 24.1087 80.0948 24.0988 80.0498 24.0745C80.0048 24.0502 79.9685 24.0128 79.9459 23.9672C78.83 22.0745 77.7118 20.1834 76.5914 18.294C76.579 18.2758 76.5654 18.2584 76.5507 18.2419Z" fill="#222222"></path> <path d="M69.5497 16.0783C71.8535 16.0849 73.7312 17.9405 73.726 20.2047C73.7302 20.7545 73.624 21.2997 73.4137 21.8087C73.2034 22.3176 72.8931 22.7801 72.5008 23.1695C72.1085 23.5588 71.642 23.8672 71.1284 24.0767C70.6148 24.2862 70.0642 24.3928 69.5087 24.3901C68.9532 24.3874 68.4037 24.2756 67.8922 24.0612C67.3807 23.8467 66.9172 23.5339 66.5288 23.1408C66.1403 22.7477 65.8346 22.2822 65.6293 21.7712C65.4239 21.2603 65.3231 20.7141 65.3327 20.1643C65.3431 17.9097 67.2393 16.0717 69.5497 16.0783ZM69.5312 22.7109C70.0295 22.7088 70.516 22.5606 70.9291 22.2849C71.3423 22.0092 71.6636 21.6184 71.8524 21.162C72.0412 20.7055 72.089 20.2039 71.9898 19.7206C71.8905 19.2372 71.6487 18.7939 71.2949 18.4466C70.9412 18.0993 70.4913 17.8636 70.0022 17.7694C69.513 17.6751 69.0067 17.7266 68.5471 17.9172C68.0876 18.1078 67.6954 18.429 67.4203 18.8402C67.1452 19.2515 66.9994 19.7342 67.0014 20.2274C67.0028 20.5549 67.0693 20.8789 67.1972 21.1809C67.3251 21.483 67.5118 21.7571 67.7467 21.9877C67.9816 22.2183 68.2601 22.4009 68.5663 22.525C68.8725 22.6491 69.2004 22.7122 69.5312 22.7109Z" fill="#222222"></path> <path d="M18 24.0853V16.3173H21.7947C22.3785 16.312 22.9562 16.4352 23.486 16.678C24.0158 16.9208 24.4845 17.2771 24.8582 17.7211C25.2319 18.1651 25.5013 18.6857 25.6468 19.2454C25.7923 19.805 25.8104 20.3897 25.6997 20.9571C25.3752 22.7027 23.7805 24.0545 21.9599 24.089C20.6706 24.1139 19.3797 24.0948 18.0904 24.0941C18.0674 24.0941 18.04 24.0897 18 24.0853ZM19.5642 22.545C20.429 22.545 21.2774 22.589 22.1185 22.534C23.2848 22.4607 24.211 21.461 24.2525 20.3271C24.2675 20.0087 24.217 19.6907 24.104 19.3923C23.9911 19.0938 23.8181 18.8212 23.5956 18.5909C23.373 18.3606 23.1056 18.1774 22.8094 18.0525C22.5132 17.9276 22.1944 17.8635 21.8725 17.8641C21.1567 17.8583 20.4408 17.8641 19.7236 17.8641C19.671 17.8641 19.6183 17.873 19.5635 17.8774L19.5642 22.545Z" fill="#222222"></path> <path d="M33.5743 24.0934H27.4448V16.3386H33.5387V17.8349H29.2283V19.3113H33.3172V20.8229H29.2261V22.5832H33.5743V24.0934Z" fill="#222222"></path> <path d="M53.6791 21.7771C54.2615 21.7771 54.8291 21.7771 55.396 21.7771C55.4178 21.7805 55.4386 21.789 55.4566 21.8017C55.4746 21.8144 55.4893 21.8311 55.4997 21.8504C55.7598 22.5619 56.343 22.8039 57.0328 22.8633C57.4567 22.9015 57.8842 22.8993 58.2977 22.7658C58.6312 22.6587 58.8542 22.4577 58.8905 22.0939C58.9231 21.7485 58.7838 21.4529 58.4244 21.3202C57.9442 21.1514 57.4533 21.0137 56.955 20.908C56.3111 20.7613 55.6761 20.6058 55.0751 20.3212C53.5301 19.5877 53.7132 17.482 54.9655 16.7317C55.6212 16.3378 56.3363 16.1911 57.0869 16.186C57.8205 16.1809 58.5415 16.2718 59.1995 16.6312C59.5124 16.7937 59.7838 17.0248 59.9928 17.3069C60.2019 17.5889 60.3431 17.9145 60.4059 18.2587C60.4124 18.2948 60.4164 18.3314 60.4177 18.368C60.4178 18.394 60.4164 18.42 60.4133 18.4458C60.3762 18.4514 60.3388 18.455 60.3014 18.4568C59.7945 18.4568 59.2884 18.4568 58.7823 18.4568C58.7275 18.4568 58.6378 18.4216 58.6245 18.3834C58.4504 17.8649 58.0428 17.6676 57.5412 17.6001C57.1505 17.5342 56.75 17.5545 56.3682 17.6595C56.1562 17.7248 55.9717 17.8341 55.8672 18.038C55.6924 18.3797 55.805 18.7714 56.1762 18.9086C56.6153 19.0669 57.065 19.1951 57.5219 19.2922C58.2318 19.455 58.9402 19.6112 59.5922 19.9523C60.3384 20.341 60.7208 20.9366 60.72 21.7822C60.72 22.6499 60.3725 23.3181 59.6145 23.7625C59.032 24.1036 58.3844 24.2232 57.7197 24.2635C56.8609 24.3163 56.0154 24.2591 55.2226 23.8872C54.3341 23.4589 53.8451 22.7475 53.6791 21.7771Z" fill="#222222"></path> <path d="M49.7717 16.324C49.6021 16.7589 49.4479 17.1564 49.2923 17.5532C48.4565 19.6798 47.6216 21.8068 46.7877 23.9343C46.7374 24.0634 46.6781 24.111 46.5373 24.1088C45.9386 24.1008 45.3398 24.1022 44.7411 24.1088C44.6906 24.1163 44.6392 24.1046 44.5971 24.076C44.555 24.0475 44.5254 24.0041 44.5144 23.9548C43.5595 21.4694 42.6011 18.9849 41.6393 16.5015C41.62 16.4523 41.6082 16.4003 41.5859 16.3269H41.8038C42.3343 16.3269 42.8656 16.3269 43.3962 16.3269C43.5007 16.3269 43.5614 16.3467 43.5985 16.4575C44.2832 18.4943 45.0805 20.4914 45.6444 22.57C45.6558 22.6035 45.6691 22.6364 45.6844 22.6683C45.8393 22.1901 45.9808 21.7258 46.1401 21.2667C46.6922 19.6744 47.2516 18.0843 47.8022 16.4919C47.8444 16.3694 47.8992 16.3232 48.0348 16.3254C48.601 16.3284 49.1678 16.324 49.7717 16.324Z" fill="#222222"></path> <path d="M37.5312 19.9824V8.24717C37.5312 8 37.5312 8 37.7832 8C37.9869 8 38.1907 8.00367 38.3945 8C38.5027 8 38.559 8.0308 38.5479 8.14669C38.5479 8.18923 38.5479 8.2325 38.5479 8.27504C38.5479 16.0922 38.5479 23.9088 38.5479 31.725C38.5479 32.0411 38.5642 31.9963 38.2678 31.9985C38.0759 31.9985 37.8847 31.9934 37.6935 31.9985C37.5757 32.0029 37.5194 31.9677 37.5305 31.8438C37.5379 31.7653 37.5305 31.6853 37.5305 31.6061L37.5312 19.9824Z" fill="#D3413F"></path> <path d="M50.6521 16.3335H52.4179V24.0941H50.6521V16.3335Z" fill="#222222"></path> <path d="M63.9515 24.0934H62.1813V16.3357H63.9515V24.0934Z" fill="#222222"></path> </g> <path d="M97.4717 17.0078V24.5H96.3301V17.9854H92.3379V24.5H91.1963V17.0078H97.4717ZM102.681 16.8848C103.574 16.8848 104.237 17.0853 104.67 17.4863C105.103 17.8874 105.319 18.5277 105.319 19.4072V24.5H104.492L104.273 23.3926H104.219C104.009 23.666 103.79 23.8962 103.562 24.083C103.335 24.2653 103.07 24.4043 102.77 24.5C102.473 24.5911 102.109 24.6367 101.676 24.6367C101.22 24.6367 100.814 24.557 100.459 24.3975C100.108 24.238 99.8301 23.9964 99.625 23.6729C99.4245 23.3493 99.3242 22.9391 99.3242 22.4424C99.3242 21.695 99.6204 21.1208 100.213 20.7197C100.805 20.3187 101.708 20.0999 102.92 20.0635L104.212 20.0088V19.5508C104.212 18.9036 104.073 18.4502 103.795 18.1904C103.517 17.9307 103.125 17.8008 102.619 17.8008C102.227 17.8008 101.854 17.8577 101.498 17.9717C101.143 18.0856 100.805 18.2201 100.486 18.375L100.138 17.5137C100.475 17.3405 100.862 17.1924 101.3 17.0693C101.737 16.9463 102.198 16.8848 102.681 16.8848ZM104.198 20.8086L103.057 20.8564C102.122 20.8929 101.464 21.0456 101.081 21.3145C100.698 21.5833 100.507 21.9639 100.507 22.4561C100.507 22.8844 100.637 23.2012 100.896 23.4062C101.156 23.6113 101.5 23.7139 101.929 23.7139C102.594 23.7139 103.139 23.5293 103.562 23.1602C103.986 22.791 104.198 22.2373 104.198 21.499V20.8086ZM111.178 16.8711C112.112 16.8711 112.857 17.1924 113.413 17.835C113.969 18.4775 114.247 19.4437 114.247 20.7334C114.247 21.5856 114.119 22.3011 113.864 22.8799C113.609 23.4587 113.249 23.8962 112.784 24.1924C112.324 24.4886 111.779 24.6367 111.15 24.6367C110.754 24.6367 110.405 24.5843 110.104 24.4795C109.804 24.3747 109.546 24.2334 109.332 24.0557C109.118 23.8779 108.94 23.6842 108.799 23.4746H108.717C108.73 23.6523 108.746 23.8665 108.765 24.1172C108.787 24.3678 108.799 24.5866 108.799 24.7734V27.8496H107.657V17.0078H108.594L108.744 18.1152H108.799C108.945 17.8874 109.122 17.68 109.332 17.4932C109.542 17.3018 109.797 17.1514 110.098 17.042C110.403 16.9281 110.763 16.8711 111.178 16.8711ZM110.979 17.8281C110.46 17.8281 110.041 17.9284 109.722 18.1289C109.407 18.3294 109.177 18.6302 109.031 19.0312C108.885 19.4277 108.808 19.9268 108.799 20.5283V20.7471C108.799 21.3805 108.867 21.916 109.004 22.3535C109.145 22.791 109.375 23.1237 109.694 23.3516C110.018 23.5794 110.451 23.6934 110.993 23.6934C111.458 23.6934 111.845 23.568 112.155 23.3174C112.465 23.0667 112.695 22.7181 112.846 22.2715C113.001 21.8203 113.078 21.3031 113.078 20.7197C113.078 19.8356 112.905 19.1338 112.559 18.6143C112.217 18.0902 111.69 17.8281 110.979 17.8281ZM121.336 17.9717H118.868V24.5H117.747V17.9717H115.313V17.0078H121.336V17.9717ZM123.961 17.0078V20.1523H128.138V17.0078H129.272V24.5H128.138V21.1162H123.961V24.5H122.819V17.0078H123.961ZM134.563 16.8711C135.201 16.8711 135.748 17.0124 136.204 17.2949C136.66 17.5775 137.008 17.974 137.25 18.4844C137.492 18.9902 137.612 19.5827 137.612 20.2617V20.9658H132.438C132.451 21.8454 132.67 22.5153 133.094 22.9756C133.518 23.4359 134.115 23.666 134.885 23.666C135.359 23.666 135.778 23.6227 136.143 23.5361C136.507 23.4495 136.885 23.3219 137.277 23.1533V24.1514C136.899 24.32 136.523 24.443 136.149 24.5205C135.78 24.598 135.343 24.6367 134.837 24.6367C134.117 24.6367 133.488 24.4909 132.95 24.1992C132.417 23.903 132.002 23.4701 131.706 22.9004C131.41 22.3307 131.262 21.6335 131.262 20.8086C131.262 20.002 131.396 19.3047 131.665 18.7168C131.938 18.1243 132.321 17.6686 132.813 17.3496C133.31 17.0306 133.894 16.8711 134.563 16.8711ZM134.55 17.8008C133.944 17.8008 133.461 17.999 133.101 18.3955C132.741 18.792 132.526 19.3457 132.458 20.0566H136.423C136.418 19.61 136.348 19.2181 136.211 18.8809C136.079 18.5391 135.876 18.2747 135.603 18.0879C135.329 17.8965 134.978 17.8008 134.55 17.8008ZM132.533 14.9707C132.533 14.7428 132.592 14.5765 132.711 14.4717C132.829 14.3669 132.975 14.3145 133.148 14.3145C133.326 14.3145 133.474 14.3669 133.593 14.4717C133.716 14.5765 133.777 14.7428 133.777 14.9707C133.777 15.194 133.716 15.3626 133.593 15.4766C133.474 15.5859 133.326 15.6406 133.148 15.6406C132.975 15.6406 132.829 15.5859 132.711 15.4766C132.592 15.3626 132.533 15.194 132.533 14.9707ZM135.158 14.9707C135.158 14.7428 135.217 14.5765 135.336 14.4717C135.454 14.3669 135.598 14.3145 135.767 14.3145C135.94 14.3145 136.088 14.3669 136.211 14.4717C136.334 14.5765 136.396 14.7428 136.396 14.9707C136.396 15.194 136.334 15.3626 136.211 15.4766C136.088 15.5859 135.94 15.6406 135.767 15.6406C135.598 15.6406 135.454 15.5859 135.336 15.4766C135.217 15.3626 135.158 15.194 135.158 14.9707ZM143.061 16.8711C143.995 16.8711 144.74 17.1924 145.296 17.835C145.852 18.4775 146.13 19.4437 146.13 20.7334C146.13 21.5856 146.002 22.3011 145.747 22.8799C145.492 23.4587 145.132 23.8962 144.667 24.1924C144.207 24.4886 143.662 24.6367 143.033 24.6367C142.637 24.6367 142.288 24.5843 141.987 24.4795C141.687 24.3747 141.429 24.2334 141.215 24.0557C141.001 23.8779 140.823 23.6842 140.682 23.4746H140.6C140.613 23.6523 140.629 23.8665 140.647 24.1172C140.67 24.3678 140.682 24.5866 140.682 24.7734V27.8496H139.54V17.0078H140.477L140.627 18.1152H140.682C140.827 17.8874 141.005 17.68 141.215 17.4932C141.424 17.3018 141.68 17.1514 141.98 17.042C142.286 16.9281 142.646 16.8711 143.061 16.8711ZM142.862 17.8281C142.343 17.8281 141.924 17.9284 141.604 18.1289C141.29 18.3294 141.06 18.6302 140.914 19.0312C140.768 19.4277 140.691 19.9268 140.682 20.5283V20.7471C140.682 21.3805 140.75 21.916 140.887 22.3535C141.028 22.791 141.258 23.1237 141.577 23.3516C141.901 23.5794 142.334 23.6934 142.876 23.6934C143.341 23.6934 143.728 23.568 144.038 23.3174C144.348 23.0667 144.578 22.7181 144.729 22.2715C144.883 21.8203 144.961 21.3031 144.961 20.7197C144.961 19.8356 144.788 19.1338 144.441 18.6143C144.1 18.0902 143.573 17.8281 142.862 17.8281ZM156.117 17.0078H157.368L154.135 20.624L157.628 24.5H156.295L152.891 20.6992V24.5H151.749V17.0078H152.891V20.6445L156.117 17.0078ZM165.441 20.7402C165.441 21.3555 165.362 21.9046 165.202 22.3877C165.043 22.8708 164.812 23.2786 164.512 23.6113C164.211 23.944 163.846 24.1992 163.418 24.377C162.994 24.5501 162.513 24.6367 161.976 24.6367C161.474 24.6367 161.014 24.5501 160.595 24.377C160.18 24.1992 159.82 23.944 159.515 23.6113C159.214 23.2786 158.979 22.8708 158.811 22.3877C158.646 21.9046 158.564 21.3555 158.564 20.7402C158.564 19.9199 158.703 19.2227 158.981 18.6484C159.259 18.0697 159.656 17.6299 160.171 17.3291C160.69 17.0238 161.308 16.8711 162.023 16.8711C162.707 16.8711 163.304 17.0238 163.814 17.3291C164.329 17.6344 164.728 18.0765 165.011 18.6553C165.298 19.2295 165.441 19.9245 165.441 20.7402ZM159.74 20.7402C159.74 21.3418 159.82 21.8636 159.979 22.3057C160.139 22.7477 160.385 23.0895 160.718 23.3311C161.05 23.5726 161.479 23.6934 162.003 23.6934C162.522 23.6934 162.949 23.5726 163.281 23.3311C163.618 23.0895 163.867 22.7477 164.026 22.3057C164.186 21.8636 164.266 21.3418 164.266 20.7402C164.266 20.1432 164.186 19.6283 164.026 19.1953C163.867 18.7578 163.621 18.4206 163.288 18.1836C162.955 17.9466 162.525 17.8281 161.996 17.8281C161.217 17.8281 160.645 18.0856 160.28 18.6006C159.92 19.1156 159.74 19.8288 159.74 20.7402ZM175.312 17.0078V24.5H174.287V19.6191C174.287 19.4186 174.292 19.2158 174.301 19.0107C174.314 18.8011 174.33 18.5915 174.349 18.3818H174.308L171.819 24.5H170.855L168.429 18.3818H168.388C168.401 18.5915 168.41 18.8011 168.415 19.0107C168.424 19.2158 168.429 19.4323 168.429 19.6602V24.5H167.396V17.0078H168.921L171.341 23.1328L173.795 17.0078H175.312ZM183.946 17.0078V24.5H182.805V17.9854H178.812V24.5H177.671V17.0078H183.946ZM189.155 16.8848C190.049 16.8848 190.712 17.0853 191.145 17.4863C191.577 17.8874 191.794 18.5277 191.794 19.4072V24.5H190.967L190.748 23.3926H190.693C190.484 23.666 190.265 23.8962 190.037 24.083C189.809 24.2653 189.545 24.4043 189.244 24.5C188.948 24.5911 188.583 24.6367 188.15 24.6367C187.695 24.6367 187.289 24.557 186.934 24.3975C186.583 24.238 186.305 23.9964 186.1 23.6729C185.899 23.3493 185.799 22.9391 185.799 22.4424C185.799 21.695 186.095 21.1208 186.688 20.7197C187.28 20.3187 188.182 20.0999 189.395 20.0635L190.687 20.0088V19.5508C190.687 18.9036 190.548 18.4502 190.27 18.1904C189.992 17.9307 189.6 17.8008 189.094 17.8008C188.702 17.8008 188.328 17.8577 187.973 17.9717C187.617 18.0856 187.28 18.2201 186.961 18.375L186.612 17.5137C186.95 17.3405 187.337 17.1924 187.774 17.0693C188.212 16.9463 188.672 16.8848 189.155 16.8848ZM190.673 20.8086L189.531 20.8564C188.597 20.8929 187.938 21.0456 187.556 21.3145C187.173 21.5833 186.981 21.9639 186.981 22.4561C186.981 22.8844 187.111 23.2012 187.371 23.4062C187.631 23.6113 187.975 23.7139 188.403 23.7139C189.069 23.7139 189.613 23.5293 190.037 23.1602C190.461 22.791 190.673 22.2373 190.673 21.499V20.8086ZM195.273 17.0078V20.1523H199.45V17.0078H200.585V24.5H199.45V21.1162H195.273V24.5H194.132V17.0078H195.273ZM204.071 17.0078V21.7178C204.071 21.8089 204.069 21.9274 204.064 22.0732C204.06 22.2145 204.053 22.3672 204.044 22.5312C204.035 22.6908 204.026 22.8457 204.017 22.9961C204.012 23.1419 204.005 23.2627 203.996 23.3584L208.084 17.0078H209.479V24.5H208.419V19.9062C208.419 19.7604 208.421 19.5736 208.426 19.3457C208.43 19.1178 208.437 18.8945 208.446 18.6758C208.455 18.4525 208.462 18.2793 208.467 18.1562L204.393 24.5H202.991V17.0078H204.071ZM212.972 17.0078V21.7178C212.972 21.8089 212.969 21.9274 212.965 22.0732C212.96 22.2145 212.953 22.3672 212.944 22.5312C212.935 22.6908 212.926 22.8457 212.917 22.9961C212.912 23.1419 212.906 23.2627 212.896 23.3584L216.984 17.0078H218.379V24.5H217.319V19.9062C217.319 19.7604 217.322 19.5736 217.326 19.3457C217.331 19.1178 217.338 18.8945 217.347 18.6758C217.356 18.4525 217.363 18.2793 217.367 18.1562L213.293 24.5H211.892V17.0078H212.972Z" fill="#555555"></path> <defs> <clipPath id="clip0_3161_243"> <rect width="64" height="24" fill="white" transform="translate(18 8)"></rect> </clipPath> </defs> </svg> 