<?xml version="1.0" encoding="UTF-8"?> <svg xmlns="http://www.w3.org/2000/svg" width="500" height="265" viewBox="0 0 500 265" fill="none"> <rect width="500" height="265" rx="16" fill="#F8F8F8"></rect> <path d="M39.9014 158.966V160.548C41.2607 160.571 42.3418 160.794 43.1445 161.216C43.9473 161.638 44.5244 162.203 44.876 162.912C45.2275 163.621 45.4033 164.424 45.4033 165.32C45.4033 165.93 45.3096 166.521 45.1221 167.096C44.9346 167.67 44.6299 168.188 44.208 168.651C43.7861 169.108 43.2207 169.478 42.5117 169.759C41.8086 170.034 40.9385 170.181 39.9014 170.198V172.176H38.4248V170.198C37.3643 170.181 36.4795 170.028 35.7705 169.741C35.0615 169.454 34.499 169.079 34.083 168.616C33.667 168.153 33.3682 167.638 33.1865 167.069C33.0107 166.501 32.9229 165.924 32.9229 165.338C32.9229 164.688 33.0195 164.078 33.2129 163.51C33.4062 162.936 33.7168 162.432 34.1445 161.998C34.5781 161.559 35.1465 161.213 35.8496 160.961C36.5527 160.703 37.4111 160.565 38.4248 160.548V158.966H39.9014ZM38.4248 161.813C37.4521 161.837 36.6729 161.995 36.0869 162.288C35.5068 162.575 35.0879 162.977 34.8301 163.492C34.5723 164.008 34.4434 164.617 34.4434 165.32C34.4434 166.059 34.584 166.697 34.8652 167.236C35.1523 167.77 35.5889 168.186 36.1748 168.484C36.7666 168.777 37.5166 168.938 38.4248 168.968V161.813ZM39.9014 161.813V168.968C40.8389 168.938 41.6006 168.771 42.1865 168.467C42.7725 168.162 43.2031 167.74 43.4785 167.201C43.7539 166.662 43.8916 166.029 43.8916 165.303C43.8916 164.594 43.7627 163.984 43.5049 163.475C43.2471 162.959 42.8252 162.561 42.2393 162.279C41.6592 161.992 40.8799 161.837 39.9014 161.813ZM56.1875 167.166C56.1875 167.957 56.085 168.663 55.8799 169.284C55.6748 169.905 55.3789 170.43 54.9922 170.857C54.6055 171.285 54.1367 171.613 53.5859 171.842C53.041 172.064 52.4229 172.176 51.7314 172.176C51.0869 172.176 50.4951 172.064 49.9561 171.842C49.4229 171.613 48.96 171.285 48.5674 170.857C48.1807 170.43 47.8789 169.905 47.6621 169.284C47.4512 168.663 47.3457 167.957 47.3457 167.166C47.3457 166.111 47.5244 165.215 47.8818 164.477C48.2393 163.732 48.749 163.167 49.4111 162.78C50.0791 162.388 50.873 162.191 51.793 162.191C52.6719 162.191 53.4395 162.388 54.0957 162.78C54.7578 163.173 55.2705 163.741 55.6338 164.485C56.0029 165.224 56.1875 166.117 56.1875 167.166ZM48.8574 167.166C48.8574 167.939 48.96 168.61 49.165 169.179C49.3701 169.747 49.6865 170.187 50.1143 170.497C50.542 170.808 51.0928 170.963 51.7666 170.963C52.4346 170.963 52.9824 170.808 53.4102 170.497C53.8438 170.187 54.1631 169.747 54.3682 169.179C54.5732 168.61 54.6758 167.939 54.6758 167.166C54.6758 166.398 54.5732 165.736 54.3682 165.18C54.1631 164.617 53.8467 164.184 53.4189 163.879C52.9912 163.574 52.4375 163.422 51.7578 163.422C50.7559 163.422 50.0205 163.753 49.5518 164.415C49.0889 165.077 48.8574 165.994 48.8574 167.166ZM63.2363 162.191C64.4375 162.191 65.3955 162.604 66.1104 163.431C66.8252 164.257 67.1826 165.499 67.1826 167.157C67.1826 168.253 67.0186 169.173 66.6904 169.917C66.3623 170.661 65.8994 171.224 65.3018 171.604C64.71 171.985 64.0098 172.176 63.2012 172.176C62.6914 172.176 62.2432 172.108 61.8564 171.974C61.4697 171.839 61.1387 171.657 60.8633 171.429C60.5879 171.2 60.3594 170.951 60.1777 170.682H60.0723C60.0898 170.91 60.1104 171.186 60.1338 171.508C60.1631 171.83 60.1777 172.111 60.1777 172.352V176.307H58.71V162.367H59.9141L60.1074 163.791H60.1777C60.3652 163.498 60.5938 163.231 60.8633 162.991C61.1328 162.745 61.4609 162.552 61.8477 162.411C62.2402 162.265 62.7031 162.191 63.2363 162.191ZM62.9814 163.422C62.3135 163.422 61.7744 163.551 61.3643 163.809C60.96 164.066 60.6641 164.453 60.4766 164.969C60.2891 165.479 60.1895 166.12 60.1777 166.894V167.175C60.1777 167.989 60.2656 168.678 60.4414 169.24C60.623 169.803 60.9189 170.23 61.3291 170.523C61.7451 170.816 62.3018 170.963 62.999 170.963C63.5967 170.963 64.0947 170.802 64.4932 170.479C64.8916 170.157 65.1875 169.709 65.3809 169.135C65.5801 168.555 65.6797 167.89 65.6797 167.14C65.6797 166.003 65.457 165.101 65.0117 164.433C64.5723 163.759 63.8955 163.422 62.9814 163.422ZM79.9004 162.367V172H78.582V165.725C78.582 165.467 78.5879 165.206 78.5996 164.942C78.6172 164.673 78.6377 164.403 78.6611 164.134H78.6084L75.4092 172H74.1699L71.0498 164.134H70.9971C71.0146 164.403 71.0264 164.673 71.0322 164.942C71.0439 165.206 71.0498 165.484 71.0498 165.777V172H69.7227V162.367H71.6826L74.7939 170.242L77.9492 162.367H79.9004ZM84.3213 162.367V168.423C84.3213 168.54 84.3184 168.692 84.3125 168.88C84.3066 169.062 84.2979 169.258 84.2861 169.469C84.2744 169.674 84.2627 169.873 84.251 170.066C84.2451 170.254 84.2363 170.409 84.2246 170.532L89.4805 162.367H91.2734V172H89.9111V166.094C89.9111 165.906 89.9141 165.666 89.9199 165.373C89.9258 165.08 89.9346 164.793 89.9463 164.512C89.958 164.225 89.9668 164.002 89.9727 163.844L84.7344 172H82.9326V162.367H84.3213ZM98.9023 162.191C100.104 162.191 101.062 162.604 101.776 163.431C102.491 164.257 102.849 165.499 102.849 167.157C102.849 168.253 102.685 169.173 102.356 169.917C102.028 170.661 101.565 171.224 100.968 171.604C100.376 171.985 99.6758 172.176 98.8672 172.176C98.3574 172.176 97.9092 172.108 97.5225 171.974C97.1357 171.839 96.8047 171.657 96.5293 171.429C96.2539 171.2 96.0254 170.951 95.8438 170.682H95.7383C95.7559 170.91 95.7764 171.186 95.7998 171.508C95.8291 171.83 95.8438 172.111 95.8438 172.352V176.307H94.376V162.367H95.5801L95.7734 163.791H95.8438C96.0312 163.498 96.2598 163.231 96.5293 162.991C96.7988 162.745 97.127 162.552 97.5137 162.411C97.9062 162.265 98.3691 162.191 98.9023 162.191ZM98.6475 163.422C97.9795 163.422 97.4404 163.551 97.0303 163.809C96.626 164.066 96.3301 164.453 96.1426 164.969C95.9551 165.479 95.8555 166.12 95.8438 166.894V167.175C95.8438 167.989 95.9316 168.678 96.1074 169.24C96.2891 169.803 96.585 170.23 96.9951 170.523C97.4111 170.816 97.9678 170.963 98.665 170.963C99.2627 170.963 99.7607 170.802 100.159 170.479C100.558 170.157 100.854 169.709 101.047 169.135C101.246 168.555 101.346 167.89 101.346 167.14C101.346 166.003 101.123 165.101 100.678 164.433C100.238 163.759 99.5615 163.422 98.6475 163.422ZM103.877 162.367H105.441L107.568 167.957C107.691 168.285 107.806 168.602 107.911 168.906C108.017 169.205 108.11 169.492 108.192 169.768C108.274 170.043 108.339 170.31 108.386 170.567H108.447C108.529 170.274 108.646 169.891 108.799 169.416C108.951 168.936 109.115 168.446 109.291 167.948L111.304 162.367H112.877L108.685 173.415C108.462 174.007 108.201 174.522 107.902 174.962C107.609 175.401 107.252 175.738 106.83 175.973C106.408 176.213 105.898 176.333 105.301 176.333C105.025 176.333 104.782 176.315 104.571 176.28C104.36 176.251 104.179 176.216 104.026 176.175V175.006C104.155 175.035 104.311 175.062 104.492 175.085C104.68 175.108 104.873 175.12 105.072 175.12C105.436 175.12 105.749 175.05 106.013 174.909C106.282 174.774 106.514 174.575 106.707 174.312C106.9 174.048 107.067 173.734 107.208 173.371L107.735 172.018L103.877 162.367ZM118.124 162.191C118.944 162.191 119.647 162.373 120.233 162.736C120.819 163.1 121.268 163.609 121.578 164.266C121.889 164.916 122.044 165.678 122.044 166.551V167.456H115.391C115.408 168.587 115.689 169.448 116.234 170.04C116.779 170.632 117.547 170.928 118.537 170.928C119.146 170.928 119.686 170.872 120.154 170.761C120.623 170.649 121.109 170.485 121.613 170.269V171.552C121.127 171.769 120.644 171.927 120.163 172.026C119.688 172.126 119.126 172.176 118.476 172.176C117.55 172.176 116.741 171.988 116.05 171.613C115.364 171.232 114.831 170.676 114.45 169.943C114.069 169.211 113.879 168.314 113.879 167.254C113.879 166.217 114.052 165.32 114.397 164.564C114.749 163.803 115.241 163.217 115.874 162.807C116.513 162.396 117.263 162.191 118.124 162.191ZM118.106 163.387C117.327 163.387 116.706 163.642 116.243 164.151C115.78 164.661 115.505 165.373 115.417 166.287H120.515C120.509 165.713 120.418 165.209 120.242 164.775C120.072 164.336 119.812 163.996 119.46 163.756C119.108 163.51 118.657 163.387 118.106 163.387ZM134.691 162.367V172H133.373V165.725C133.373 165.467 133.379 165.206 133.391 164.942C133.408 164.673 133.429 164.403 133.452 164.134H133.399L130.2 172H128.961L125.841 164.134H125.788C125.806 164.403 125.817 164.673 125.823 164.942C125.835 165.206 125.841 165.484 125.841 165.777V172H124.514V162.367H126.474L129.585 170.242L132.74 162.367H134.691ZM146.926 162.191C148.127 162.191 149.085 162.604 149.8 163.431C150.515 164.257 150.872 165.499 150.872 167.157C150.872 168.253 150.708 169.173 150.38 169.917C150.052 170.661 149.589 171.224 148.991 171.604C148.399 171.985 147.699 172.176 146.891 172.176C146.381 172.176 145.933 172.108 145.546 171.974C145.159 171.839 144.828 171.657 144.553 171.429C144.277 171.2 144.049 170.951 143.867 170.682H143.762C143.779 170.91 143.8 171.186 143.823 171.508C143.853 171.83 143.867 172.111 143.867 172.352V176.307H142.399V162.367H143.604L143.797 163.791H143.867C144.055 163.498 144.283 163.231 144.553 162.991C144.822 162.745 145.15 162.552 145.537 162.411C145.93 162.265 146.393 162.191 146.926 162.191ZM146.671 163.422C146.003 163.422 145.464 163.551 145.054 163.809C144.649 164.066 144.354 164.453 144.166 164.969C143.979 165.479 143.879 166.12 143.867 166.894V167.175C143.867 167.989 143.955 168.678 144.131 169.24C144.312 169.803 144.608 170.23 145.019 170.523C145.435 170.816 145.991 170.963 146.688 170.963C147.286 170.963 147.784 170.802 148.183 170.479C148.581 170.157 148.877 169.709 149.07 169.135C149.27 168.555 149.369 167.89 149.369 167.14C149.369 166.003 149.146 165.101 148.701 164.433C148.262 163.759 147.585 163.422 146.671 163.422ZM157.024 162.209C158.173 162.209 159.025 162.467 159.582 162.982C160.139 163.498 160.417 164.321 160.417 165.452V172H159.354L159.072 170.576H159.002C158.732 170.928 158.451 171.224 158.158 171.464C157.865 171.698 157.525 171.877 157.139 172C156.758 172.117 156.289 172.176 155.732 172.176C155.146 172.176 154.625 172.073 154.168 171.868C153.717 171.663 153.359 171.353 153.096 170.937C152.838 170.521 152.709 169.993 152.709 169.354C152.709 168.394 153.09 167.655 153.852 167.14C154.613 166.624 155.773 166.343 157.332 166.296L158.993 166.226V165.637C158.993 164.805 158.814 164.222 158.457 163.888C158.1 163.554 157.596 163.387 156.945 163.387C156.441 163.387 155.961 163.46 155.504 163.606C155.047 163.753 154.613 163.926 154.203 164.125L153.755 163.018C154.188 162.795 154.687 162.604 155.249 162.446C155.812 162.288 156.403 162.209 157.024 162.209ZM158.976 167.254L157.508 167.315C156.307 167.362 155.46 167.559 154.968 167.904C154.476 168.25 154.229 168.739 154.229 169.372C154.229 169.923 154.396 170.33 154.73 170.594C155.064 170.857 155.507 170.989 156.058 170.989C156.913 170.989 157.613 170.752 158.158 170.277C158.703 169.803 158.976 169.091 158.976 168.142V167.254ZM162.922 166.217C162.922 164.846 163.054 163.677 163.317 162.71C163.581 161.737 163.988 160.958 164.539 160.372C165.096 159.78 165.811 159.376 166.684 159.159C167.434 158.954 168.195 158.778 168.969 158.632C169.742 158.479 170.495 158.348 171.228 158.236L171.482 159.52C171.113 159.572 170.727 159.634 170.322 159.704C169.918 159.769 169.514 159.839 169.109 159.915C168.705 159.985 168.324 160.062 167.967 160.144C167.609 160.22 167.293 160.299 167.018 160.381C166.52 160.516 166.089 160.75 165.726 161.084C165.368 161.418 165.084 161.878 164.873 162.464C164.668 163.05 164.545 163.788 164.504 164.679H164.609C164.785 164.421 165.025 164.166 165.33 163.914C165.635 163.662 165.998 163.454 166.42 163.29C166.842 163.12 167.316 163.035 167.844 163.035C168.676 163.035 169.37 163.217 169.927 163.58C170.483 163.938 170.902 164.441 171.184 165.092C171.465 165.742 171.605 166.504 171.605 167.377C171.605 168.426 171.424 169.308 171.061 170.022C170.703 170.737 170.199 171.276 169.549 171.64C168.898 171.997 168.134 172.176 167.255 172.176C166.575 172.176 165.966 172.044 165.427 171.78C164.894 171.517 164.439 171.13 164.064 170.62C163.695 170.11 163.411 169.486 163.212 168.748C163.019 168.01 162.922 167.166 162.922 166.217ZM167.369 170.963C167.926 170.963 168.403 170.846 168.802 170.611C169.206 170.377 169.517 170.008 169.733 169.504C169.956 168.994 170.067 168.332 170.067 167.518C170.067 166.498 169.871 165.701 169.479 165.127C169.092 164.547 168.471 164.257 167.615 164.257C167.082 164.257 166.599 164.371 166.165 164.6C165.731 164.822 165.365 165.089 165.066 165.399C164.768 165.71 164.551 165.988 164.416 166.234C164.416 166.832 164.46 167.412 164.548 167.975C164.636 168.537 164.788 169.044 165.005 169.495C165.222 169.946 165.521 170.304 165.901 170.567C166.288 170.831 166.777 170.963 167.369 170.963ZM182.434 167.166C182.434 167.957 182.331 168.663 182.126 169.284C181.921 169.905 181.625 170.43 181.238 170.857C180.852 171.285 180.383 171.613 179.832 171.842C179.287 172.064 178.669 172.176 177.978 172.176C177.333 172.176 176.741 172.064 176.202 171.842C175.669 171.613 175.206 171.285 174.813 170.857C174.427 170.43 174.125 169.905 173.908 169.284C173.697 168.663 173.592 167.957 173.592 167.166C173.592 166.111 173.771 165.215 174.128 164.477C174.485 163.732 174.995 163.167 175.657 162.78C176.325 162.388 177.119 162.191 178.039 162.191C178.918 162.191 179.686 162.388 180.342 162.78C181.004 163.173 181.517 163.741 181.88 164.485C182.249 165.224 182.434 166.117 182.434 167.166ZM175.104 167.166C175.104 167.939 175.206 168.61 175.411 169.179C175.616 169.747 175.933 170.187 176.36 170.497C176.788 170.808 177.339 170.963 178.013 170.963C178.681 170.963 179.229 170.808 179.656 170.497C180.09 170.187 180.409 169.747 180.614 169.179C180.819 168.61 180.922 167.939 180.922 167.166C180.922 166.398 180.819 165.736 180.614 165.18C180.409 164.617 180.093 164.184 179.665 163.879C179.237 163.574 178.684 163.422 178.004 163.422C177.002 163.422 176.267 163.753 175.798 164.415C175.335 165.077 175.104 165.994 175.104 167.166ZM191.521 163.606H188.349V172H186.907V163.606H183.778V162.367H191.521V163.606ZM191.908 162.367H193.473L195.6 167.957C195.723 168.285 195.837 168.602 195.942 168.906C196.048 169.205 196.142 169.492 196.224 169.768C196.306 170.043 196.37 170.31 196.417 170.567H196.479C196.561 170.274 196.678 169.891 196.83 169.416C196.982 168.936 197.146 168.446 197.322 167.948L199.335 162.367H200.908L196.716 173.415C196.493 174.007 196.232 174.522 195.934 174.962C195.641 175.401 195.283 175.738 194.861 175.973C194.439 176.213 193.93 176.333 193.332 176.333C193.057 176.333 192.813 176.315 192.603 176.28C192.392 176.251 192.21 176.216 192.058 176.175V175.006C192.187 175.035 192.342 175.062 192.523 175.085C192.711 175.108 192.904 175.12 193.104 175.12C193.467 175.12 193.78 175.05 194.044 174.909C194.313 174.774 194.545 174.575 194.738 174.312C194.932 174.048 195.099 173.734 195.239 173.371L195.767 172.018L191.908 162.367ZM213.688 163.606H210.515V172H209.073V163.606H205.944V162.367H213.688V163.606ZM219.198 162.209C220.347 162.209 221.199 162.467 221.756 162.982C222.312 163.498 222.591 164.321 222.591 165.452V172H221.527L221.246 170.576H221.176C220.906 170.928 220.625 171.224 220.332 171.464C220.039 171.698 219.699 171.877 219.312 172C218.932 172.117 218.463 172.176 217.906 172.176C217.32 172.176 216.799 172.073 216.342 171.868C215.891 171.663 215.533 171.353 215.27 170.937C215.012 170.521 214.883 169.993 214.883 169.354C214.883 168.394 215.264 167.655 216.025 167.14C216.787 166.624 217.947 166.343 219.506 166.296L221.167 166.226V165.637C221.167 164.805 220.988 164.222 220.631 163.888C220.273 163.554 219.77 163.387 219.119 163.387C218.615 163.387 218.135 163.46 217.678 163.606C217.221 163.753 216.787 163.926 216.377 164.125L215.929 163.018C216.362 162.795 216.86 162.604 217.423 162.446C217.985 162.288 218.577 162.209 219.198 162.209ZM221.149 167.254L219.682 167.315C218.48 167.362 217.634 167.559 217.142 167.904C216.649 168.25 216.403 168.739 216.403 169.372C216.403 169.923 216.57 170.33 216.904 170.594C217.238 170.857 217.681 170.989 218.231 170.989C219.087 170.989 219.787 170.752 220.332 170.277C220.877 169.803 221.149 169.091 221.149 168.142V167.254ZM231.213 162.367H232.821L228.664 167.017L233.155 172H231.441L227.064 167.113V172H225.597V162.367H227.064V167.043L231.213 162.367ZM236.565 169.908L236.68 170.11C236.574 170.538 236.439 170.995 236.275 171.481C236.117 171.968 235.941 172.454 235.748 172.94C235.561 173.433 235.37 173.893 235.177 174.32H234.087C234.21 173.852 234.33 173.356 234.447 172.835C234.564 172.319 234.67 171.81 234.764 171.306C234.863 170.796 234.942 170.33 235.001 169.908H236.565ZM245.504 162.367V165.83C245.504 166.434 245.668 166.879 245.996 167.166C246.33 167.453 246.813 167.597 247.446 167.597C248.056 167.597 248.609 167.503 249.107 167.315C249.605 167.128 250.109 166.873 250.619 166.551V162.367H252.078V172H250.619V167.685C250.08 168.03 249.55 168.303 249.028 168.502C248.507 168.701 247.883 168.801 247.156 168.801C246.166 168.801 245.398 168.543 244.854 168.027C244.314 167.512 244.045 166.814 244.045 165.936V162.367H245.504ZM261.729 163.606H258.556V172H257.114V163.606H253.985V162.367H261.729V163.606ZM271.941 167.166C271.941 167.957 271.839 168.663 271.634 169.284C271.429 169.905 271.133 170.43 270.746 170.857C270.359 171.285 269.891 171.613 269.34 171.842C268.795 172.064 268.177 172.176 267.485 172.176C266.841 172.176 266.249 172.064 265.71 171.842C265.177 171.613 264.714 171.285 264.321 170.857C263.935 170.43 263.633 169.905 263.416 169.284C263.205 168.663 263.1 167.957 263.1 167.166C263.1 166.111 263.278 165.215 263.636 164.477C263.993 163.732 264.503 163.167 265.165 162.78C265.833 162.388 266.627 162.191 267.547 162.191C268.426 162.191 269.193 162.388 269.85 162.78C270.512 163.173 271.024 163.741 271.388 164.485C271.757 165.224 271.941 166.117 271.941 167.166ZM264.611 167.166C264.611 167.939 264.714 168.61 264.919 169.179C265.124 169.747 265.44 170.187 265.868 170.497C266.296 170.808 266.847 170.963 267.521 170.963C268.188 170.963 268.736 170.808 269.164 170.497C269.598 170.187 269.917 169.747 270.122 169.179C270.327 168.61 270.43 167.939 270.43 167.166C270.43 166.398 270.327 165.736 270.122 165.18C269.917 164.617 269.601 164.184 269.173 163.879C268.745 163.574 268.191 163.422 267.512 163.422C266.51 163.422 265.774 163.753 265.306 164.415C264.843 165.077 264.611 165.994 264.611 167.166ZM273.963 166.217C273.963 164.846 274.095 163.677 274.358 162.71C274.622 161.737 275.029 160.958 275.58 160.372C276.137 159.78 276.852 159.376 277.725 159.159C278.475 158.954 279.236 158.778 280.01 158.632C280.783 158.479 281.536 158.348 282.269 158.236L282.523 159.52C282.154 159.572 281.768 159.634 281.363 159.704C280.959 159.769 280.555 159.839 280.15 159.915C279.746 159.985 279.365 160.062 279.008 160.144C278.65 160.22 278.334 160.299 278.059 160.381C277.561 160.516 277.13 160.75 276.767 161.084C276.409 161.418 276.125 161.878 275.914 162.464C275.709 163.05 275.586 163.788 275.545 164.679H275.65C275.826 164.421 276.066 164.166 276.371 163.914C276.676 163.662 277.039 163.454 277.461 163.29C277.883 163.12 278.357 163.035 278.885 163.035C279.717 163.035 280.411 163.217 280.968 163.58C281.524 163.938 281.943 164.441 282.225 165.092C282.506 165.742 282.646 166.504 282.646 167.377C282.646 168.426 282.465 169.308 282.102 170.022C281.744 170.737 281.24 171.276 280.59 171.64C279.939 171.997 279.175 172.176 278.296 172.176C277.616 172.176 277.007 172.044 276.468 171.78C275.935 171.517 275.48 171.13 275.105 170.62C274.736 170.11 274.452 169.486 274.253 168.748C274.06 168.01 273.963 167.166 273.963 166.217ZM278.41 170.963C278.967 170.963 279.444 170.846 279.843 170.611C280.247 170.377 280.558 170.008 280.774 169.504C280.997 168.994 281.108 168.332 281.108 167.518C281.108 166.498 280.912 165.701 280.52 165.127C280.133 164.547 279.512 164.257 278.656 164.257C278.123 164.257 277.64 164.371 277.206 164.6C276.772 164.822 276.406 165.089 276.107 165.399C275.809 165.71 275.592 165.988 275.457 166.234C275.457 166.832 275.501 167.412 275.589 167.975C275.677 168.537 275.829 169.044 276.046 169.495C276.263 169.946 276.562 170.304 276.942 170.567C277.329 170.831 277.818 170.963 278.41 170.963ZM285.169 172V162.367H286.637V166.34H289.273C290.094 166.34 290.768 166.442 291.295 166.647C291.828 166.853 292.224 167.157 292.481 167.562C292.739 167.966 292.868 168.467 292.868 169.064C292.868 169.662 292.739 170.181 292.481 170.62C292.229 171.06 291.831 171.399 291.286 171.64C290.747 171.88 290.044 172 289.177 172H285.169ZM286.637 170.813H289.036C289.763 170.813 290.343 170.685 290.776 170.427C291.21 170.169 291.427 169.738 291.427 169.135C291.427 168.543 291.225 168.133 290.82 167.904C290.416 167.67 289.836 167.553 289.08 167.553H286.637V170.813ZM294.459 172V162.367H295.918V172H294.459ZM313.848 162.367V172H312.529V165.725C312.529 165.467 312.535 165.206 312.547 164.942C312.564 164.673 312.585 164.403 312.608 164.134H312.556L309.356 172H308.117L304.997 164.134H304.944C304.962 164.403 304.974 164.673 304.979 164.942C304.991 165.206 304.997 165.484 304.997 165.777V172H303.67V162.367H305.63L308.741 170.242L311.896 162.367H313.848ZM320.483 162.209C321.632 162.209 322.484 162.467 323.041 162.982C323.598 163.498 323.876 164.321 323.876 165.452V172H322.812L322.531 170.576H322.461C322.191 170.928 321.91 171.224 321.617 171.464C321.324 171.698 320.984 171.877 320.598 172C320.217 172.117 319.748 172.176 319.191 172.176C318.605 172.176 318.084 172.073 317.627 171.868C317.176 171.663 316.818 171.353 316.555 170.937C316.297 170.521 316.168 169.993 316.168 169.354C316.168 168.394 316.549 167.655 317.311 167.14C318.072 166.624 319.232 166.343 320.791 166.296L322.452 166.226V165.637C322.452 164.805 322.273 164.222 321.916 163.888C321.559 163.554 321.055 163.387 320.404 163.387C319.9 163.387 319.42 163.46 318.963 163.606C318.506 163.753 318.072 163.926 317.662 164.125L317.214 163.018C317.647 162.795 318.146 162.604 318.708 162.446C319.271 162.288 319.862 162.209 320.483 162.209ZM322.435 167.254L320.967 167.315C319.766 167.362 318.919 167.559 318.427 167.904C317.935 168.25 317.688 168.739 317.688 169.372C317.688 169.923 317.855 170.33 318.189 170.594C318.523 170.857 318.966 170.989 319.517 170.989C320.372 170.989 321.072 170.752 321.617 170.277C322.162 169.803 322.435 169.091 322.435 168.142V167.254ZM332.498 162.367H334.106L329.949 167.017L334.44 172H332.727L328.35 167.113V172H326.882V162.367H328.35V167.043L332.498 162.367ZM340.039 172.176C339.172 172.176 338.407 171.997 337.745 171.64C337.083 171.282 336.567 170.737 336.198 170.005C335.829 169.272 335.645 168.35 335.645 167.236C335.645 166.07 335.838 165.118 336.225 164.38C336.617 163.636 337.156 163.085 337.842 162.728C338.527 162.37 339.307 162.191 340.18 162.191C340.66 162.191 341.123 162.241 341.568 162.341C342.02 162.435 342.389 162.555 342.676 162.701L342.236 163.923C341.943 163.806 341.604 163.7 341.217 163.606C340.836 163.513 340.479 163.466 340.145 163.466C339.477 163.466 338.92 163.609 338.475 163.896C338.035 164.184 337.704 164.605 337.481 165.162C337.265 165.719 337.156 166.404 337.156 167.219C337.156 167.998 337.262 168.663 337.473 169.214C337.689 169.765 338.009 170.187 338.431 170.479C338.858 170.767 339.392 170.91 340.03 170.91C340.54 170.91 341 170.857 341.41 170.752C341.82 170.641 342.192 170.512 342.526 170.365V171.666C342.204 171.83 341.844 171.956 341.445 172.044C341.053 172.132 340.584 172.176 340.039 172.176ZM346.2 162.367V168.423C346.2 168.54 346.197 168.692 346.191 168.88C346.186 169.062 346.177 169.258 346.165 169.469C346.153 169.674 346.142 169.873 346.13 170.066C346.124 170.254 346.115 170.409 346.104 170.532L351.359 162.367H353.152V172H351.79V166.094C351.79 165.906 351.793 165.666 351.799 165.373C351.805 165.08 351.813 164.793 351.825 164.512C351.837 164.225 351.846 164.002 351.852 163.844L346.613 172H344.812V162.367H346.2ZM366.424 162.367V172H365.105V165.725C365.105 165.467 365.111 165.206 365.123 164.942C365.141 164.673 365.161 164.403 365.185 164.134H365.132L361.933 172H360.693L357.573 164.134H357.521C357.538 164.403 357.55 164.673 357.556 164.942C357.567 165.206 357.573 165.484 357.573 165.777V172H356.246V162.367H358.206L361.317 170.242L364.473 162.367H366.424ZM370.845 162.367V168.423C370.845 168.54 370.842 168.692 370.836 168.88C370.83 169.062 370.821 169.258 370.81 169.469C370.798 169.674 370.786 169.873 370.774 170.066C370.769 170.254 370.76 170.409 370.748 170.532L376.004 162.367H377.797V172H376.435V166.094C376.435 165.906 376.438 165.666 376.443 165.373C376.449 165.08 376.458 164.793 376.47 164.512C376.481 164.225 376.49 164.002 376.496 163.844L371.258 172H369.456V162.367H370.845ZM383.378 162.191C384.099 162.191 384.723 162.291 385.25 162.49C385.777 162.684 386.185 162.968 386.472 163.343C386.759 163.718 386.902 164.175 386.902 164.714C386.902 165.294 386.744 165.757 386.428 166.103C386.111 166.448 385.675 166.697 385.118 166.85V166.92C385.511 167.025 385.865 167.178 386.182 167.377C386.504 167.57 386.759 167.828 386.946 168.15C387.14 168.467 387.236 168.862 387.236 169.337C387.236 169.876 387.09 170.362 386.797 170.796C386.504 171.224 386.059 171.561 385.461 171.807C384.863 172.053 384.107 172.176 383.193 172.176C382.742 172.176 382.314 172.149 381.91 172.097C381.506 172.05 381.14 171.979 380.812 171.886C380.483 171.792 380.196 171.681 379.95 171.552V170.225C380.36 170.424 380.841 170.6 381.392 170.752C381.942 170.904 382.537 170.98 383.176 170.98C383.668 170.98 384.11 170.925 384.503 170.813C384.896 170.696 385.206 170.512 385.435 170.26C385.669 170.002 385.786 169.665 385.786 169.249C385.786 168.868 385.684 168.555 385.479 168.309C385.273 168.057 384.966 167.872 384.556 167.755C384.151 167.632 383.639 167.57 383.018 167.57H381.726V166.375H382.789C383.615 166.375 384.274 166.258 384.767 166.023C385.259 165.789 385.505 165.394 385.505 164.837C385.505 164.356 385.314 163.999 384.934 163.765C384.553 163.524 384.008 163.404 383.299 163.404C382.771 163.404 382.306 163.46 381.901 163.571C381.497 163.677 381.061 163.829 380.592 164.028L380.073 162.859C380.577 162.637 381.104 162.47 381.655 162.358C382.206 162.247 382.78 162.191 383.378 162.191ZM390.989 162.367V168.423C390.989 168.54 390.986 168.692 390.98 168.88C390.975 169.062 390.966 169.258 390.954 169.469C390.942 169.674 390.931 169.873 390.919 170.066C390.913 170.254 390.904 170.409 390.893 170.532L396.148 162.367H397.941V172H396.579V166.094C396.579 165.906 396.582 165.666 396.588 165.373C396.594 165.08 396.603 164.793 396.614 164.512C396.626 164.225 396.635 164.002 396.641 163.844L391.402 172H389.601V162.367H390.989ZM405.57 162.191C406.771 162.191 407.729 162.604 408.444 163.431C409.159 164.257 409.517 165.499 409.517 167.157C409.517 168.253 409.353 169.173 409.024 169.917C408.696 170.661 408.233 171.224 407.636 171.604C407.044 171.985 406.344 172.176 405.535 172.176C405.025 172.176 404.577 172.108 404.19 171.974C403.804 171.839 403.473 171.657 403.197 171.429C402.922 171.2 402.693 170.951 402.512 170.682H402.406C402.424 170.91 402.444 171.186 402.468 171.508C402.497 171.83 402.512 172.111 402.512 172.352V176.307H401.044V162.367H402.248L402.441 163.791H402.512C402.699 163.498 402.928 163.231 403.197 162.991C403.467 162.745 403.795 162.552 404.182 162.411C404.574 162.265 405.037 162.191 405.57 162.191ZM405.315 163.422C404.647 163.422 404.108 163.551 403.698 163.809C403.294 164.066 402.998 164.453 402.811 164.969C402.623 165.479 402.523 166.12 402.512 166.894V167.175C402.512 167.989 402.6 168.678 402.775 169.24C402.957 169.803 403.253 170.23 403.663 170.523C404.079 170.816 404.636 170.963 405.333 170.963C405.931 170.963 406.429 170.802 406.827 170.479C407.226 170.157 407.521 169.709 407.715 169.135C407.914 168.555 408.014 167.89 408.014 167.14C408.014 166.003 407.791 165.101 407.346 164.433C406.906 163.759 406.229 163.422 405.315 163.422ZM420.371 167.166C420.371 167.957 420.269 168.663 420.063 169.284C419.858 169.905 419.562 170.43 419.176 170.857C418.789 171.285 418.32 171.613 417.77 171.842C417.225 172.064 416.606 172.176 415.915 172.176C415.271 172.176 414.679 172.064 414.14 171.842C413.606 171.613 413.144 171.285 412.751 170.857C412.364 170.43 412.062 169.905 411.846 169.284C411.635 168.663 411.529 167.957 411.529 167.166C411.529 166.111 411.708 165.215 412.065 164.477C412.423 163.732 412.933 163.167 413.595 162.78C414.263 162.388 415.057 162.191 415.977 162.191C416.855 162.191 417.623 162.388 418.279 162.78C418.941 163.173 419.454 163.741 419.817 164.485C420.187 165.224 420.371 166.117 420.371 167.166ZM413.041 167.166C413.041 167.939 413.144 168.61 413.349 169.179C413.554 169.747 413.87 170.187 414.298 170.497C414.726 170.808 415.276 170.963 415.95 170.963C416.618 170.963 417.166 170.808 417.594 170.497C418.027 170.187 418.347 169.747 418.552 169.179C418.757 168.61 418.859 167.939 418.859 167.166C418.859 166.398 418.757 165.736 418.552 165.18C418.347 164.617 418.03 164.184 417.603 163.879C417.175 163.574 416.621 163.422 415.941 163.422C414.939 163.422 414.204 163.753 413.735 164.415C413.272 165.077 413.041 165.994 413.041 167.166ZM430.549 164.784C430.549 165.388 430.373 165.859 430.021 166.199C429.67 166.533 429.216 166.759 428.659 166.876V166.946C429.263 167.028 429.781 167.245 430.215 167.597C430.654 167.942 430.874 168.473 430.874 169.188C430.874 169.738 430.742 170.225 430.479 170.646C430.215 171.068 429.802 171.399 429.239 171.64C428.677 171.88 427.944 172 427.042 172H422.894V162.367H427.007C427.698 162.367 428.308 162.446 428.835 162.604C429.368 162.757 429.787 163.009 430.092 163.36C430.396 163.712 430.549 164.187 430.549 164.784ZM429.354 169.188C429.354 168.619 429.137 168.209 428.703 167.957C428.275 167.705 427.651 167.579 426.831 167.579H424.361V170.813H426.866C427.675 170.813 428.29 170.69 428.712 170.444C429.14 170.192 429.354 169.773 429.354 169.188ZM429.063 164.951C429.063 164.494 428.896 164.154 428.562 163.932C428.229 163.703 427.681 163.589 426.919 163.589H424.361V166.357H426.664C427.455 166.357 428.053 166.243 428.457 166.015C428.861 165.786 429.063 165.432 429.063 164.951ZM436.833 162.209C437.981 162.209 438.834 162.467 439.391 162.982C439.947 163.498 440.226 164.321 440.226 165.452V172H439.162L438.881 170.576H438.811C438.541 170.928 438.26 171.224 437.967 171.464C437.674 171.698 437.334 171.877 436.947 172C436.566 172.117 436.098 172.176 435.541 172.176C434.955 172.176 434.434 172.073 433.977 171.868C433.525 171.663 433.168 171.353 432.904 170.937C432.646 170.521 432.518 169.993 432.518 169.354C432.518 168.394 432.898 167.655 433.66 167.14C434.422 166.624 435.582 166.343 437.141 166.296L438.802 166.226V165.637C438.802 164.805 438.623 164.222 438.266 163.888C437.908 163.554 437.404 163.387 436.754 163.387C436.25 163.387 435.77 163.46 435.312 163.606C434.855 163.753 434.422 163.926 434.012 164.125L433.563 163.018C433.997 162.795 434.495 162.604 435.058 162.446C435.62 162.288 436.212 162.209 436.833 162.209ZM438.784 167.254L437.316 167.315C436.115 167.362 435.269 167.559 434.776 167.904C434.284 168.25 434.038 168.739 434.038 169.372C434.038 169.923 434.205 170.33 434.539 170.594C434.873 170.857 435.315 170.989 435.866 170.989C436.722 170.989 437.422 170.752 437.967 170.277C438.512 169.803 438.784 169.091 438.784 168.142V167.254ZM449.797 163.606H446.624V172H445.183V163.606H442.054V162.367H449.797V163.606ZM453.172 166.34H456.125C456.945 166.34 457.628 166.442 458.173 166.647C458.718 166.853 459.125 167.157 459.395 167.562C459.67 167.966 459.808 168.467 459.808 169.064C459.808 169.662 459.673 170.181 459.403 170.62C459.14 171.06 458.729 171.399 458.173 171.64C457.622 171.88 456.91 172 456.037 172H451.704V162.367H453.172V166.34ZM458.34 169.135C458.34 168.543 458.129 168.133 457.707 167.904C457.291 167.67 456.708 167.553 455.958 167.553H453.172V170.813H455.967C456.67 170.813 457.241 170.685 457.681 170.427C458.12 170.163 458.34 169.732 458.34 169.135ZM37.3965 199.176C36.5293 199.176 35.7646 198.997 35.1025 198.64C34.4404 198.282 33.9248 197.737 33.5557 197.005C33.1865 196.272 33.002 195.35 33.002 194.236C33.002 193.07 33.1953 192.118 33.582 191.38C33.9746 190.636 34.5137 190.085 35.1992 189.728C35.8848 189.37 36.6641 189.191 37.5371 189.191C38.0176 189.191 38.4805 189.241 38.9258 189.341C39.377 189.435 39.7461 189.555 40.0332 189.701L39.5938 190.923C39.3008 190.806 38.9609 190.7 38.5742 190.606C38.1934 190.513 37.8359 190.466 37.502 190.466C36.834 190.466 36.2773 190.609 35.832 190.896C35.3926 191.184 35.0615 191.605 34.8389 192.162C34.6221 192.719 34.5137 193.404 34.5137 194.219C34.5137 194.998 34.6191 195.663 34.8301 196.214C35.0469 196.765 35.3662 197.187 35.7881 197.479C36.2158 197.767 36.749 197.91 37.3877 197.91C37.8975 197.91 38.3574 197.857 38.7676 197.752C39.1777 197.641 39.5498 197.512 39.8838 197.365V198.666C39.5615 198.83 39.2012 198.956 38.8027 199.044C38.4102 199.132 37.9414 199.176 37.3965 199.176ZM48.7344 190.606H45.5615V199H44.1201V190.606H40.9912V189.367H48.7344V190.606ZM58.9473 194.166C58.9473 194.957 58.8447 195.663 58.6396 196.284C58.4346 196.905 58.1387 197.43 57.752 197.857C57.3652 198.285 56.8965 198.613 56.3457 198.842C55.8008 199.064 55.1826 199.176 54.4912 199.176C53.8467 199.176 53.2549 199.064 52.7158 198.842C52.1826 198.613 51.7197 198.285 51.3271 197.857C50.9404 197.43 50.6387 196.905 50.4219 196.284C50.2109 195.663 50.1055 194.957 50.1055 194.166C50.1055 193.111 50.2842 192.215 50.6416 191.477C50.999 190.732 51.5088 190.167 52.1709 189.78C52.8389 189.388 53.6328 189.191 54.5527 189.191C55.4316 189.191 56.1992 189.388 56.8555 189.78C57.5176 190.173 58.0303 190.741 58.3936 191.485C58.7627 192.224 58.9473 193.117 58.9473 194.166ZM51.6172 194.166C51.6172 194.939 51.7197 195.61 51.9248 196.179C52.1299 196.747 52.4463 197.187 52.874 197.497C53.3018 197.808 53.8525 197.963 54.5264 197.963C55.1943 197.963 55.7422 197.808 56.1699 197.497C56.6035 197.187 56.9229 196.747 57.1279 196.179C57.333 195.61 57.4355 194.939 57.4355 194.166C57.4355 193.398 57.333 192.736 57.1279 192.18C56.9229 191.617 56.6064 191.184 56.1787 190.879C55.751 190.574 55.1973 190.422 54.5176 190.422C53.5156 190.422 52.7803 190.753 52.3115 191.415C51.8486 192.077 51.6172 192.994 51.6172 194.166ZM62.8584 189.367V195.423C62.8584 195.54 62.8555 195.692 62.8496 195.88C62.8438 196.062 62.835 196.258 62.8232 196.469C62.8115 196.674 62.7998 196.873 62.7881 197.066C62.7822 197.254 62.7734 197.409 62.7617 197.532L68.0176 189.367H69.8105V199H68.4482V193.094C68.4482 192.906 68.4512 192.666 68.457 192.373C68.4629 192.08 68.4717 191.793 68.4834 191.512C68.4951 191.225 68.5039 191.002 68.5098 190.844L63.2715 199H61.4697V189.367H62.8584ZM83.082 189.367V199H81.7637V192.725C81.7637 192.467 81.7695 192.206 81.7812 191.942C81.7988 191.673 81.8193 191.403 81.8428 191.134H81.79L78.5908 199H77.3516L74.2314 191.134H74.1787C74.1963 191.403 74.208 191.673 74.2139 191.942C74.2256 192.206 74.2314 192.484 74.2314 192.777V199H72.9043V189.367H74.8643L77.9756 197.242L81.1309 189.367H83.082ZM94.4199 194.166C94.4199 194.957 94.3174 195.663 94.1123 196.284C93.9072 196.905 93.6113 197.43 93.2246 197.857C92.8379 198.285 92.3691 198.613 91.8184 198.842C91.2734 199.064 90.6553 199.176 89.9639 199.176C89.3193 199.176 88.7275 199.064 88.1885 198.842C87.6553 198.613 87.1924 198.285 86.7998 197.857C86.4131 197.43 86.1113 196.905 85.8945 196.284C85.6836 195.663 85.5781 194.957 85.5781 194.166C85.5781 193.111 85.7568 192.215 86.1143 191.477C86.4717 190.732 86.9814 190.167 87.6436 189.78C88.3115 189.388 89.1055 189.191 90.0254 189.191C90.9043 189.191 91.6719 189.388 92.3281 189.78C92.9902 190.173 93.5029 190.741 93.8662 191.485C94.2354 192.224 94.4199 193.117 94.4199 194.166ZM87.0898 194.166C87.0898 194.939 87.1924 195.61 87.3975 196.179C87.6025 196.747 87.9189 197.187 88.3467 197.497C88.7744 197.808 89.3252 197.963 89.999 197.963C90.667 197.963 91.2148 197.808 91.6426 197.497C92.0762 197.187 92.3955 196.747 92.6006 196.179C92.8057 195.61 92.9082 194.939 92.9082 194.166C92.9082 193.398 92.8057 192.736 92.6006 192.18C92.3955 191.617 92.0791 191.184 91.6514 190.879C91.2236 190.574 90.6699 190.422 89.9902 190.422C88.9883 190.422 88.2529 190.753 87.7842 191.415C87.3213 192.077 87.0898 192.994 87.0898 194.166ZM100.801 199.176C99.9336 199.176 99.1689 198.997 98.5068 198.64C97.8447 198.282 97.3291 197.737 96.96 197.005C96.5908 196.272 96.4062 195.35 96.4062 194.236C96.4062 193.07 96.5996 192.118 96.9863 191.38C97.3789 190.636 97.918 190.085 98.6035 189.728C99.2891 189.37 100.068 189.191 100.941 189.191C101.422 189.191 101.885 189.241 102.33 189.341C102.781 189.435 103.15 189.555 103.438 189.701L102.998 190.923C102.705 190.806 102.365 190.7 101.979 190.606C101.598 190.513 101.24 190.466 100.906 190.466C100.238 190.466 99.6816 190.609 99.2363 190.896C98.7969 191.184 98.4658 191.605 98.2432 192.162C98.0264 192.719 97.918 193.404 97.918 194.219C97.918 194.998 98.0234 195.663 98.2344 196.214C98.4512 196.765 98.7705 197.187 99.1924 197.479C99.6201 197.767 100.153 197.91 100.792 197.91C101.302 197.91 101.762 197.857 102.172 197.752C102.582 197.641 102.954 197.512 103.288 197.365V198.666C102.966 198.83 102.605 198.956 102.207 199.044C101.814 199.132 101.346 199.176 100.801 199.176ZM112.139 190.606H108.966V199H107.524V190.606H104.396V189.367H112.139V190.606ZM115.514 193.34H118.467C119.287 193.34 119.97 193.442 120.515 193.647C121.06 193.853 121.467 194.157 121.736 194.562C122.012 194.966 122.149 195.467 122.149 196.064C122.149 196.662 122.015 197.181 121.745 197.62C121.481 198.06 121.071 198.399 120.515 198.64C119.964 198.88 119.252 199 118.379 199H114.046V189.367H115.514V193.34ZM120.682 196.135C120.682 195.543 120.471 195.133 120.049 194.904C119.633 194.67 119.05 194.553 118.3 194.553H115.514V197.813H118.309C119.012 197.813 119.583 197.685 120.022 197.427C120.462 197.163 120.682 196.732 120.682 196.135ZM139.508 189.367V199H138.189V192.725C138.189 192.467 138.195 192.206 138.207 191.942C138.225 191.673 138.245 191.403 138.269 191.134H138.216L135.017 199H133.777L130.657 191.134H130.604C130.622 191.403 130.634 191.673 130.64 191.942C130.651 192.206 130.657 192.484 130.657 192.777V199H129.33V189.367H131.29L134.401 197.242L137.557 189.367H139.508ZM146.513 191.512H141.441V190.598L143.524 188.559C144.005 188.09 144.374 187.706 144.632 187.407C144.89 187.108 145.065 186.839 145.159 186.599C145.259 186.358 145.309 186.101 145.309 185.825C145.309 185.438 145.194 185.143 144.966 184.938C144.737 184.727 144.43 184.621 144.043 184.621C143.686 184.621 143.354 184.691 143.05 184.832C142.751 184.967 142.446 185.154 142.136 185.395L141.547 184.612C141.898 184.319 142.279 184.085 142.689 183.909C143.1 183.733 143.557 183.646 144.061 183.646C144.822 183.646 145.42 183.836 145.854 184.217C146.287 184.592 146.504 185.107 146.504 185.764C146.504 186.162 146.422 186.528 146.258 186.862C146.1 187.196 145.862 187.533 145.546 187.873C145.235 188.213 144.854 188.597 144.403 189.024L142.909 190.466H146.513V191.512ZM161.542 189.367V199H160.074V190.624H154.941V199H153.474V189.367H161.542ZM169.162 189.191C170.363 189.191 171.321 189.604 172.036 190.431C172.751 191.257 173.108 192.499 173.108 194.157C173.108 195.253 172.944 196.173 172.616 196.917C172.288 197.661 171.825 198.224 171.228 198.604C170.636 198.985 169.936 199.176 169.127 199.176C168.617 199.176 168.169 199.108 167.782 198.974C167.396 198.839 167.064 198.657 166.789 198.429C166.514 198.2 166.285 197.951 166.104 197.682H165.998C166.016 197.91 166.036 198.186 166.06 198.508C166.089 198.83 166.104 199.111 166.104 199.352V203.307H164.636V189.367H165.84L166.033 190.791H166.104C166.291 190.498 166.52 190.231 166.789 189.991C167.059 189.745 167.387 189.552 167.773 189.411C168.166 189.265 168.629 189.191 169.162 189.191ZM168.907 190.422C168.239 190.422 167.7 190.551 167.29 190.809C166.886 191.066 166.59 191.453 166.402 191.969C166.215 192.479 166.115 193.12 166.104 193.894V194.175C166.104 194.989 166.191 195.678 166.367 196.24C166.549 196.803 166.845 197.23 167.255 197.523C167.671 197.816 168.228 197.963 168.925 197.963C169.522 197.963 170.021 197.802 170.419 197.479C170.817 197.157 171.113 196.709 171.307 196.135C171.506 195.555 171.605 194.89 171.605 194.14C171.605 193.003 171.383 192.101 170.938 191.433C170.498 190.759 169.821 190.422 168.907 190.422ZM177.046 189.367V195.423C177.046 195.54 177.043 195.692 177.037 195.88C177.031 196.062 177.022 196.258 177.011 196.469C176.999 196.674 176.987 196.873 176.976 197.066C176.97 197.254 176.961 197.409 176.949 197.532L182.205 189.367H183.998V199H182.636V193.094C182.636 192.906 182.639 192.666 182.645 192.373C182.65 192.08 182.659 191.793 182.671 191.512C182.683 191.225 182.691 191.002 182.697 190.844L177.459 199H175.657V189.367H177.046ZM195.635 199.176C194.768 199.176 194.003 198.997 193.341 198.64C192.679 198.282 192.163 197.737 191.794 197.005C191.425 196.272 191.24 195.35 191.24 194.236C191.24 193.07 191.434 192.118 191.82 191.38C192.213 190.636 192.752 190.085 193.438 189.728C194.123 189.37 194.902 189.191 195.775 189.191C196.256 189.191 196.719 189.241 197.164 189.341C197.615 189.435 197.984 189.555 198.271 189.701L197.832 190.923C197.539 190.806 197.199 190.7 196.812 190.606C196.432 190.513 196.074 190.466 195.74 190.466C195.072 190.466 194.516 190.609 194.07 190.896C193.631 191.184 193.3 191.605 193.077 192.162C192.86 192.719 192.752 193.404 192.752 194.219C192.752 194.998 192.857 195.663 193.068 196.214C193.285 196.765 193.604 197.187 194.026 197.479C194.454 197.767 194.987 197.91 195.626 197.91C196.136 197.91 196.596 197.857 197.006 197.752C197.416 197.641 197.788 197.512 198.122 197.365V198.666C197.8 198.83 197.439 198.956 197.041 199.044C196.648 199.132 196.18 199.176 195.635 199.176ZM208.713 194.166C208.713 194.957 208.61 195.663 208.405 196.284C208.2 196.905 207.904 197.43 207.518 197.857C207.131 198.285 206.662 198.613 206.111 198.842C205.566 199.064 204.948 199.176 204.257 199.176C203.612 199.176 203.021 199.064 202.481 198.842C201.948 198.613 201.485 198.285 201.093 197.857C200.706 197.43 200.404 196.905 200.188 196.284C199.977 195.663 199.871 194.957 199.871 194.166C199.871 193.111 200.05 192.215 200.407 191.477C200.765 190.732 201.274 190.167 201.937 189.78C202.604 189.388 203.398 189.191 204.318 189.191C205.197 189.191 205.965 189.388 206.621 189.78C207.283 190.173 207.796 190.741 208.159 191.485C208.528 192.224 208.713 193.117 208.713 194.166ZM201.383 194.166C201.383 194.939 201.485 195.61 201.69 196.179C201.896 196.747 202.212 197.187 202.64 197.497C203.067 197.808 203.618 197.963 204.292 197.963C204.96 197.963 205.508 197.808 205.936 197.497C206.369 197.187 206.688 196.747 206.894 196.179C207.099 195.61 207.201 194.939 207.201 194.166C207.201 193.398 207.099 192.736 206.894 192.18C206.688 191.617 206.372 191.184 205.944 190.879C205.517 190.574 204.963 190.422 204.283 190.422C203.281 190.422 202.546 190.753 202.077 191.415C201.614 192.077 201.383 192.994 201.383 194.166ZM210.734 193.217C210.734 191.846 210.866 190.677 211.13 189.71C211.394 188.737 211.801 187.958 212.352 187.372C212.908 186.78 213.623 186.376 214.496 186.159C215.246 185.954 216.008 185.778 216.781 185.632C217.555 185.479 218.308 185.348 219.04 185.236L219.295 186.52C218.926 186.572 218.539 186.634 218.135 186.704C217.73 186.769 217.326 186.839 216.922 186.915C216.518 186.985 216.137 187.062 215.779 187.144C215.422 187.22 215.105 187.299 214.83 187.381C214.332 187.516 213.901 187.75 213.538 188.084C213.181 188.418 212.896 188.878 212.686 189.464C212.48 190.05 212.357 190.788 212.316 191.679H212.422C212.598 191.421 212.838 191.166 213.143 190.914C213.447 190.662 213.811 190.454 214.232 190.29C214.654 190.12 215.129 190.035 215.656 190.035C216.488 190.035 217.183 190.217 217.739 190.58C218.296 190.938 218.715 191.441 218.996 192.092C219.277 192.742 219.418 193.504 219.418 194.377C219.418 195.426 219.236 196.308 218.873 197.022C218.516 197.737 218.012 198.276 217.361 198.64C216.711 198.997 215.946 199.176 215.067 199.176C214.388 199.176 213.778 199.044 213.239 198.78C212.706 198.517 212.252 198.13 211.877 197.62C211.508 197.11 211.224 196.486 211.024 195.748C210.831 195.01 210.734 194.166 210.734 193.217ZM215.182 197.963C215.738 197.963 216.216 197.846 216.614 197.611C217.019 197.377 217.329 197.008 217.546 196.504C217.769 195.994 217.88 195.332 217.88 194.518C217.88 193.498 217.684 192.701 217.291 192.127C216.904 191.547 216.283 191.257 215.428 191.257C214.895 191.257 214.411 191.371 213.978 191.6C213.544 191.822 213.178 192.089 212.879 192.399C212.58 192.71 212.363 192.988 212.229 193.234C212.229 193.832 212.272 194.412 212.36 194.975C212.448 195.537 212.601 196.044 212.817 196.495C213.034 196.946 213.333 197.304 213.714 197.567C214.101 197.831 214.59 197.963 215.182 197.963ZM229.165 199H227.68V190.589H224.753C224.636 192.106 224.486 193.407 224.305 194.491C224.129 195.569 223.906 196.451 223.637 197.137C223.373 197.816 223.051 198.317 222.67 198.64C222.295 198.956 221.847 199.114 221.325 199.114C221.167 199.114 221.018 199.105 220.877 199.088C220.736 199.07 220.616 199.041 220.517 199V197.893C220.593 197.916 220.672 197.934 220.754 197.945C220.842 197.957 220.933 197.963 221.026 197.963C221.29 197.963 221.53 197.854 221.747 197.638C221.97 197.415 222.169 197.081 222.345 196.636C222.526 196.19 222.688 195.628 222.828 194.948C222.969 194.263 223.092 193.457 223.197 192.531C223.309 191.6 223.405 190.545 223.487 189.367H229.165V199ZM244.625 194.166C244.625 195.215 244.455 196.114 244.115 196.864C243.781 197.614 243.301 198.188 242.674 198.587C242.047 198.979 241.297 199.176 240.424 199.176C239.609 199.176 238.897 199 238.288 198.648C237.685 198.297 237.207 197.784 236.855 197.11C236.51 196.437 236.311 195.616 236.258 194.649H233.7V199H232.241V189.367H233.7V193.41H236.275C236.357 192.52 236.574 191.761 236.926 191.134C237.277 190.507 237.752 190.026 238.35 189.692C238.947 189.358 239.65 189.191 240.459 189.191C241.303 189.191 242.035 189.391 242.656 189.789C243.283 190.182 243.767 190.75 244.106 191.494C244.452 192.232 244.625 193.123 244.625 194.166ZM237.752 194.166C237.752 194.975 237.843 195.663 238.024 196.231C238.212 196.794 238.502 197.225 238.895 197.523C239.293 197.816 239.809 197.963 240.441 197.963C241.068 197.963 241.578 197.816 241.971 197.523C242.369 197.23 242.659 196.803 242.841 196.24C243.028 195.672 243.122 194.98 243.122 194.166C243.122 193.363 243.028 192.684 242.841 192.127C242.653 191.57 242.363 191.148 241.971 190.861C241.578 190.568 241.068 190.422 240.441 190.422C239.814 190.422 239.302 190.568 238.903 190.861C238.511 191.148 238.221 191.57 238.033 192.127C237.846 192.684 237.752 193.363 237.752 194.166ZM254.223 189.367V197.761H255.603V202.331H254.188V199H247.367V202.331H245.97V197.761H246.726C247.276 196.999 247.733 196.164 248.097 195.256C248.46 194.348 248.735 193.396 248.923 192.399C249.11 191.397 249.21 190.387 249.222 189.367H254.223ZM252.808 190.527H250.522C250.47 191.383 250.344 192.253 250.145 193.138C249.951 194.022 249.693 194.866 249.371 195.669C249.049 196.466 248.674 197.163 248.246 197.761H252.808V190.527ZM261.228 189.191C262.048 189.191 262.751 189.373 263.337 189.736C263.923 190.1 264.371 190.609 264.682 191.266C264.992 191.916 265.147 192.678 265.147 193.551V194.456H258.494C258.512 195.587 258.793 196.448 259.338 197.04C259.883 197.632 260.65 197.928 261.641 197.928C262.25 197.928 262.789 197.872 263.258 197.761C263.727 197.649 264.213 197.485 264.717 197.269V198.552C264.23 198.769 263.747 198.927 263.267 199.026C262.792 199.126 262.229 199.176 261.579 199.176C260.653 199.176 259.845 198.988 259.153 198.613C258.468 198.232 257.935 197.676 257.554 196.943C257.173 196.211 256.982 195.314 256.982 194.254C256.982 193.217 257.155 192.32 257.501 191.564C257.853 190.803 258.345 190.217 258.978 189.807C259.616 189.396 260.366 189.191 261.228 189.191ZM261.21 190.387C260.431 190.387 259.81 190.642 259.347 191.151C258.884 191.661 258.608 192.373 258.521 193.287H263.618C263.612 192.713 263.521 192.209 263.346 191.775C263.176 191.336 262.915 190.996 262.563 190.756C262.212 190.51 261.761 190.387 261.21 190.387ZM269.094 189.367V193.41H274.464V189.367H275.923V199H274.464V194.649H269.094V199H267.626V189.367H269.094ZM280.405 189.367V195.423C280.405 195.54 280.402 195.692 280.396 195.88C280.391 196.062 280.382 196.258 280.37 196.469C280.358 196.674 280.347 196.873 280.335 197.066C280.329 197.254 280.32 197.409 280.309 197.532L285.564 189.367H287.357V199H285.995V193.094C285.995 192.906 285.998 192.666 286.004 192.373C286.01 192.08 286.019 191.793 286.03 191.512C286.042 191.225 286.051 191.002 286.057 190.844L280.818 199H279.017V189.367H280.405ZM291.849 189.367V195.423C291.849 195.54 291.846 195.692 291.84 195.88C291.834 196.062 291.825 196.258 291.813 196.469C291.802 196.674 291.79 196.873 291.778 197.066C291.772 197.254 291.764 197.409 291.752 197.532L297.008 189.367H298.801V199H297.438V193.094C297.438 192.906 297.441 192.666 297.447 192.373C297.453 192.08 297.462 191.793 297.474 191.512C297.485 191.225 297.494 191.002 297.5 190.844L292.262 199H290.46V189.367H291.849ZM313.145 190.606H309.972V199H308.53V190.606H305.401V189.367H313.145V190.606ZM318.761 189.191C319.581 189.191 320.284 189.373 320.87 189.736C321.456 190.1 321.904 190.609 322.215 191.266C322.525 191.916 322.681 192.678 322.681 193.551V194.456H316.027C316.045 195.587 316.326 196.448 316.871 197.04C317.416 197.632 318.184 197.928 319.174 197.928C319.783 197.928 320.322 197.872 320.791 197.761C321.26 197.649 321.746 197.485 322.25 197.269V198.552C321.764 198.769 321.28 198.927 320.8 199.026C320.325 199.126 319.763 199.176 319.112 199.176C318.187 199.176 317.378 198.988 316.687 198.613C316.001 198.232 315.468 197.676 315.087 196.943C314.706 196.211 314.516 195.314 314.516 194.254C314.516 193.217 314.688 192.32 315.034 191.564C315.386 190.803 315.878 190.217 316.511 189.807C317.149 189.396 317.899 189.191 318.761 189.191ZM318.743 190.387C317.964 190.387 317.343 190.642 316.88 191.151C316.417 191.661 316.142 192.373 316.054 193.287H321.151C321.146 192.713 321.055 192.209 320.879 191.775C320.709 191.336 320.448 190.996 320.097 190.756C319.745 190.51 319.294 190.387 318.743 190.387ZM335.328 189.367V199H334.01V192.725C334.01 192.467 334.016 192.206 334.027 191.942C334.045 191.673 334.065 191.403 334.089 191.134H334.036L330.837 199H329.598L326.478 191.134H326.425C326.442 191.403 326.454 191.673 326.46 191.942C326.472 192.206 326.478 192.484 326.478 192.777V199H325.15V189.367H327.11L330.222 197.242L333.377 189.367H335.328ZM346.429 189.367V199H344.961V190.624H339.828V199H338.36V189.367H346.429ZM357.828 194.166C357.828 194.957 357.726 195.663 357.521 196.284C357.315 196.905 357.02 197.43 356.633 197.857C356.246 198.285 355.777 198.613 355.227 198.842C354.682 199.064 354.063 199.176 353.372 199.176C352.728 199.176 352.136 199.064 351.597 198.842C351.063 198.613 350.601 198.285 350.208 197.857C349.821 197.43 349.52 196.905 349.303 196.284C349.092 195.663 348.986 194.957 348.986 194.166C348.986 193.111 349.165 192.215 349.522 191.477C349.88 190.732 350.39 190.167 351.052 189.78C351.72 189.388 352.514 189.191 353.434 189.191C354.312 189.191 355.08 189.388 355.736 189.78C356.398 190.173 356.911 190.741 357.274 191.485C357.644 192.224 357.828 193.117 357.828 194.166ZM350.498 194.166C350.498 194.939 350.601 195.61 350.806 196.179C351.011 196.747 351.327 197.187 351.755 197.497C352.183 197.808 352.733 197.963 353.407 197.963C354.075 197.963 354.623 197.808 355.051 197.497C355.484 197.187 355.804 196.747 356.009 196.179C356.214 195.61 356.316 194.939 356.316 194.166C356.316 193.398 356.214 192.736 356.009 192.18C355.804 191.617 355.487 191.184 355.06 190.879C354.632 190.574 354.078 190.422 353.398 190.422C352.396 190.422 351.661 190.753 351.192 191.415C350.729 192.077 350.498 192.994 350.498 194.166ZM368.006 191.784C368.006 192.388 367.83 192.859 367.479 193.199C367.127 193.533 366.673 193.759 366.116 193.876V193.946C366.72 194.028 367.238 194.245 367.672 194.597C368.111 194.942 368.331 195.473 368.331 196.188C368.331 196.738 368.199 197.225 367.936 197.646C367.672 198.068 367.259 198.399 366.696 198.64C366.134 198.88 365.401 199 364.499 199H360.351V189.367H364.464C365.155 189.367 365.765 189.446 366.292 189.604C366.825 189.757 367.244 190.009 367.549 190.36C367.854 190.712 368.006 191.187 368.006 191.784ZM366.811 196.188C366.811 195.619 366.594 195.209 366.16 194.957C365.732 194.705 365.108 194.579 364.288 194.579H361.818V197.813H364.323C365.132 197.813 365.747 197.69 366.169 197.444C366.597 197.192 366.811 196.773 366.811 196.188ZM366.521 191.951C366.521 191.494 366.354 191.154 366.02 190.932C365.686 190.703 365.138 190.589 364.376 190.589H361.818V193.357H364.121C364.912 193.357 365.51 193.243 365.914 193.015C366.318 192.786 366.521 192.432 366.521 191.951ZM383.431 189.367V199H381.963V190.624H376.83V199H375.362V189.367H383.431ZM391.051 189.191C392.252 189.191 393.21 189.604 393.925 190.431C394.64 191.257 394.997 192.499 394.997 194.157C394.997 195.253 394.833 196.173 394.505 196.917C394.177 197.661 393.714 198.224 393.116 198.604C392.524 198.985 391.824 199.176 391.016 199.176C390.506 199.176 390.058 199.108 389.671 198.974C389.284 198.839 388.953 198.657 388.678 198.429C388.402 198.2 388.174 197.951 387.992 197.682H387.887C387.904 197.91 387.925 198.186 387.948 198.508C387.978 198.83 387.992 199.111 387.992 199.352V203.307H386.524V189.367H387.729L387.922 190.791H387.992C388.18 190.498 388.408 190.231 388.678 189.991C388.947 189.745 389.275 189.552 389.662 189.411C390.055 189.265 390.518 189.191 391.051 189.191ZM390.796 190.422C390.128 190.422 389.589 190.551 389.179 190.809C388.774 191.066 388.479 191.453 388.291 191.969C388.104 192.479 388.004 193.12 387.992 193.894V194.175C387.992 194.989 388.08 195.678 388.256 196.24C388.438 196.803 388.733 197.23 389.144 197.523C389.56 197.816 390.116 197.963 390.813 197.963C391.411 197.963 391.909 197.802 392.308 197.479C392.706 197.157 393.002 196.709 393.195 196.135C393.395 195.555 393.494 194.89 393.494 194.14C393.494 193.003 393.271 192.101 392.826 191.433C392.387 190.759 391.71 190.422 390.796 190.422ZM405.852 194.166C405.852 194.957 405.749 195.663 405.544 196.284C405.339 196.905 405.043 197.43 404.656 197.857C404.27 198.285 403.801 198.613 403.25 198.842C402.705 199.064 402.087 199.176 401.396 199.176C400.751 199.176 400.159 199.064 399.62 198.842C399.087 198.613 398.624 198.285 398.231 197.857C397.845 197.43 397.543 196.905 397.326 196.284C397.115 195.663 397.01 194.957 397.01 194.166C397.01 193.111 397.188 192.215 397.546 191.477C397.903 190.732 398.413 190.167 399.075 189.78C399.743 189.388 400.537 189.191 401.457 189.191C402.336 189.191 403.104 189.388 403.76 189.78C404.422 190.173 404.935 190.741 405.298 191.485C405.667 192.224 405.852 193.117 405.852 194.166ZM398.521 194.166C398.521 194.939 398.624 195.61 398.829 196.179C399.034 196.747 399.351 197.187 399.778 197.497C400.206 197.808 400.757 197.963 401.431 197.963C402.099 197.963 402.646 197.808 403.074 197.497C403.508 197.187 403.827 196.747 404.032 196.179C404.237 195.61 404.34 194.939 404.34 194.166C404.34 193.398 404.237 192.736 404.032 192.18C403.827 191.617 403.511 191.184 403.083 190.879C402.655 190.574 402.102 190.422 401.422 190.422C400.42 190.422 399.685 190.753 399.216 191.415C398.753 192.077 398.521 192.994 398.521 194.166ZM415.432 189.367V197.761H416.812V202.331H415.396V199H408.576V202.331H407.179V197.761H407.935C408.485 196.999 408.942 196.164 409.306 195.256C409.669 194.348 409.944 193.396 410.132 192.399C410.319 191.397 410.419 190.387 410.431 189.367H415.432ZM414.017 190.527H411.731C411.679 191.383 411.553 192.253 411.354 193.138C411.16 194.022 410.902 194.866 410.58 195.669C410.258 196.466 409.883 197.163 409.455 197.761H414.017V190.527ZM422.331 189.209C423.479 189.209 424.332 189.467 424.889 189.982C425.445 190.498 425.724 191.321 425.724 192.452V199H424.66L424.379 197.576H424.309C424.039 197.928 423.758 198.224 423.465 198.464C423.172 198.698 422.832 198.877 422.445 199C422.064 199.117 421.596 199.176 421.039 199.176C420.453 199.176 419.932 199.073 419.475 198.868C419.023 198.663 418.666 198.353 418.402 197.937C418.145 197.521 418.016 196.993 418.016 196.354C418.016 195.394 418.396 194.655 419.158 194.14C419.92 193.624 421.08 193.343 422.639 193.296L424.3 193.226V192.637C424.3 191.805 424.121 191.222 423.764 190.888C423.406 190.554 422.902 190.387 422.252 190.387C421.748 190.387 421.268 190.46 420.811 190.606C420.354 190.753 419.92 190.926 419.51 191.125L419.062 190.018C419.495 189.795 419.993 189.604 420.556 189.446C421.118 189.288 421.71 189.209 422.331 189.209ZM424.282 194.254L422.814 194.315C421.613 194.362 420.767 194.559 420.274 194.904C419.782 195.25 419.536 195.739 419.536 196.372C419.536 196.923 419.703 197.33 420.037 197.594C420.371 197.857 420.813 197.989 421.364 197.989C422.22 197.989 422.92 197.752 423.465 197.277C424.01 196.803 424.282 196.091 424.282 195.142V194.254ZM440.015 189.367L436.007 194.052L440.357 199H438.688L434.469 194.113V199H433.106V194.113L428.896 199H427.227L431.577 194.052L427.561 189.367H429.169L433.106 194.043V189.367H434.469V194.043L438.424 189.367H440.015ZM441.746 198.086C441.746 197.676 441.846 197.386 442.045 197.216C442.244 197.04 442.487 196.952 442.774 196.952C443.073 196.952 443.325 197.04 443.53 197.216C443.735 197.386 443.838 197.676 443.838 198.086C443.838 198.49 443.735 198.786 443.53 198.974C443.325 199.155 443.073 199.246 442.774 199.246C442.487 199.246 442.244 199.155 442.045 198.974C441.846 198.786 441.746 198.49 441.746 198.086Z" fill="#555555"></path> <path d="M39.959 121.51C39.2754 121.51 38.6634 121.633 38.123 121.881C37.5892 122.128 37.1367 122.486 36.7656 122.955C36.3945 123.417 36.1113 123.98 35.916 124.645C35.7207 125.302 35.623 126.044 35.623 126.871C35.623 127.978 35.7793 128.932 36.0918 129.732C36.4043 130.527 36.8796 131.139 37.5176 131.568C38.1556 131.992 38.9629 132.203 39.9395 132.203C40.5449 132.203 41.1341 132.145 41.707 132.027C42.2799 131.91 42.8724 131.751 43.4844 131.549V133.541C42.9049 133.769 42.319 133.935 41.7266 134.039C41.1341 134.143 40.4505 134.195 39.6758 134.195C38.2174 134.195 37.0065 133.893 36.043 133.287C35.0859 132.682 34.3698 131.829 33.8945 130.729C33.4258 129.628 33.1914 128.339 33.1914 126.861C33.1914 125.781 33.3411 124.791 33.6406 123.893C33.9401 122.994 34.3763 122.219 34.9492 121.568C35.5221 120.911 36.2285 120.406 37.0684 120.055C37.9147 119.697 38.8815 119.518 39.9688 119.518C40.6849 119.518 41.388 119.599 42.0781 119.762C42.7747 119.918 43.4193 120.143 44.0117 120.436L43.1914 122.369C42.6966 122.135 42.179 121.933 41.6387 121.764C41.0983 121.594 40.5384 121.51 39.959 121.51ZM48.5234 123.189V128.707C48.5234 128.883 48.5169 129.107 48.5039 129.381C48.4974 129.648 48.4844 129.928 48.4648 130.221C48.4453 130.507 48.4258 130.771 48.4062 131.012C48.3867 131.253 48.3704 131.432 48.3574 131.549L53.7969 123.189H56.5898V134H54.3926V128.541C54.3926 128.255 54.3991 127.923 54.4121 127.545C54.4316 127.167 54.4512 126.803 54.4707 126.451C54.4967 126.1 54.513 125.833 54.5195 125.65L49.0996 134H46.3164V123.189H48.5234ZM64.2461 134.195C63.224 134.195 62.3385 133.997 61.5898 133.6C60.8411 133.202 60.265 132.594 59.8613 131.773C59.4577 130.953 59.2559 129.911 59.2559 128.648C59.2559 127.333 59.4772 126.259 59.9199 125.426C60.3626 124.592 60.9746 123.977 61.7559 123.58C62.5436 123.183 63.4453 122.984 64.4609 122.984C65.1055 122.984 65.6882 123.049 66.209 123.18C66.7363 123.303 67.1823 123.456 67.5469 123.639L66.8633 125.475C66.4661 125.312 66.0592 125.175 65.6426 125.064C65.2259 124.954 64.8255 124.898 64.4414 124.898C63.8099 124.898 63.2826 125.038 62.8594 125.318C62.4427 125.598 62.1302 126.015 61.9219 126.568C61.7201 127.122 61.6191 127.809 61.6191 128.629C61.6191 129.423 61.7233 130.094 61.9316 130.641C62.14 131.181 62.4492 131.591 62.8594 131.871C63.2695 132.145 63.7741 132.281 64.373 132.281C64.9655 132.281 65.4961 132.21 65.9648 132.066C66.4336 131.923 66.8763 131.738 67.293 131.51V133.502C66.8828 133.736 66.4434 133.909 65.9746 134.02C65.5059 134.137 64.9297 134.195 64.2461 134.195ZM77.9961 124.996H74.4414V134H72.1562V124.996H68.6211V123.189H77.9961V124.996ZM84.3926 122.984C85.3561 122.984 86.1829 123.183 86.873 123.58C87.5632 123.977 88.0938 124.54 88.4648 125.27C88.8359 125.999 89.0215 126.871 89.0215 127.887V129.117H81.8047C81.8307 130.165 82.1107 130.973 82.6445 131.539C83.1849 132.105 83.9401 132.389 84.9102 132.389C85.6003 132.389 86.2188 132.324 86.7656 132.193C87.319 132.057 87.8887 131.858 88.4746 131.598V133.463C87.9342 133.717 87.3841 133.902 86.8242 134.02C86.2643 134.137 85.5938 134.195 84.8125 134.195C83.7513 134.195 82.8171 133.99 82.0098 133.58C81.209 133.163 80.5807 132.545 80.125 131.725C79.6758 130.904 79.4512 129.885 79.4512 128.668C79.4512 127.457 79.6562 126.428 80.0664 125.582C80.4766 124.736 81.0527 124.091 81.7949 123.648C82.5371 123.206 83.403 122.984 84.3926 122.984ZM84.3926 124.713C83.6699 124.713 83.084 124.947 82.6348 125.416C82.1921 125.885 81.9316 126.572 81.8535 127.477H86.7754C86.7689 126.936 86.6777 126.458 86.502 126.041C86.3327 125.624 86.0723 125.299 85.7207 125.064C85.3757 124.83 84.9329 124.713 84.3926 124.713ZM104.139 123.189V134H102.01V127.828C102.01 127.424 102.02 127.021 102.039 126.617C102.059 126.214 102.085 125.829 102.117 125.465H102.059L98.7676 134H96.9609L93.6992 125.455H93.6309C93.6634 125.826 93.6862 126.21 93.6992 126.607C93.7188 127.005 93.7285 127.434 93.7285 127.896V134H91.5996V123.189H94.8027L97.8887 131.266L101.023 123.189H104.139ZM111.629 122.984C112.996 122.984 114.028 123.287 114.725 123.893C115.428 124.498 115.779 125.442 115.779 126.725V134H114.148L113.709 132.467H113.631C113.325 132.857 113.009 133.18 112.684 133.434C112.358 133.688 111.98 133.876 111.551 134C111.128 134.13 110.61 134.195 109.998 134.195C109.354 134.195 108.777 134.078 108.27 133.844C107.762 133.603 107.361 133.238 107.068 132.75C106.775 132.262 106.629 131.643 106.629 130.895C106.629 129.781 107.042 128.945 107.869 128.385C108.702 127.825 109.959 127.516 111.639 127.457L113.514 127.389V126.822C113.514 126.074 113.338 125.54 112.986 125.221C112.641 124.902 112.153 124.742 111.521 124.742C110.981 124.742 110.457 124.82 109.949 124.977C109.441 125.133 108.947 125.325 108.465 125.553L107.723 123.932C108.25 123.652 108.849 123.424 109.52 123.248C110.197 123.072 110.9 122.984 111.629 122.984ZM113.504 128.834L112.107 128.883C110.962 128.922 110.158 129.117 109.695 129.469C109.233 129.82 109.002 130.302 109.002 130.914C109.002 131.448 109.161 131.839 109.48 132.086C109.799 132.327 110.219 132.447 110.74 132.447C111.535 132.447 112.192 132.223 112.713 131.773C113.24 131.318 113.504 130.65 113.504 129.771V128.834ZM128.543 134.195C127.521 134.195 126.635 133.997 125.887 133.6C125.138 133.202 124.562 132.594 124.158 131.773C123.755 130.953 123.553 129.911 123.553 128.648C123.553 127.333 123.774 126.259 124.217 125.426C124.66 124.592 125.271 123.977 126.053 123.58C126.84 123.183 127.742 122.984 128.758 122.984C129.402 122.984 129.985 123.049 130.506 123.18C131.033 123.303 131.479 123.456 131.844 123.639L131.16 125.475C130.763 125.312 130.356 125.175 129.939 125.064C129.523 124.954 129.122 124.898 128.738 124.898C128.107 124.898 127.579 125.038 127.156 125.318C126.74 125.598 126.427 126.015 126.219 126.568C126.017 127.122 125.916 127.809 125.916 128.629C125.916 129.423 126.02 130.094 126.229 130.641C126.437 131.181 126.746 131.591 127.156 131.871C127.566 132.145 128.071 132.281 128.67 132.281C129.262 132.281 129.793 132.21 130.262 132.066C130.73 131.923 131.173 131.738 131.59 131.51V133.502C131.18 133.736 130.74 133.909 130.271 134.02C129.803 134.137 129.227 134.195 128.543 134.195ZM148.768 123.189V134H146.453V125.006H141.629V134H139.324V123.189H148.768ZM157.605 122.984C158.888 122.984 159.917 123.453 160.691 124.391C161.473 125.328 161.863 126.721 161.863 128.57C161.863 129.794 161.681 130.826 161.316 131.666C160.958 132.499 160.454 133.131 159.803 133.561C159.158 133.984 158.406 134.195 157.547 134.195C157 134.195 156.525 134.124 156.121 133.98C155.717 133.837 155.372 133.652 155.086 133.424C154.799 133.189 154.559 132.936 154.363 132.662H154.227C154.259 132.923 154.288 133.212 154.314 133.531C154.347 133.844 154.363 134.13 154.363 134.391V138.795H152.059V123.189H153.934L154.256 124.684H154.363C154.565 124.378 154.809 124.094 155.096 123.834C155.389 123.574 155.74 123.368 156.15 123.219C156.567 123.062 157.052 122.984 157.605 122.984ZM156.99 124.859C156.359 124.859 155.851 124.986 155.467 125.24C155.089 125.488 154.812 125.862 154.637 126.363C154.467 126.865 154.376 127.493 154.363 128.248V128.57C154.363 129.371 154.445 130.051 154.607 130.611C154.777 131.165 155.053 131.588 155.438 131.881C155.828 132.167 156.355 132.311 157.02 132.311C157.579 132.311 158.042 132.158 158.406 131.852C158.777 131.546 159.054 131.109 159.236 130.543C159.419 129.977 159.51 129.309 159.51 128.541C159.51 127.376 159.301 126.471 158.885 125.826C158.475 125.182 157.843 124.859 156.99 124.859ZM166.727 123.189V128.707C166.727 128.883 166.72 129.107 166.707 129.381C166.701 129.648 166.688 129.928 166.668 130.221C166.648 130.507 166.629 130.771 166.609 131.012C166.59 131.253 166.574 131.432 166.561 131.549L172 123.189H174.793V134H172.596V128.541C172.596 128.255 172.602 127.923 172.615 127.545C172.635 127.167 172.654 126.803 172.674 126.451C172.7 126.1 172.716 125.833 172.723 125.65L167.303 134H164.52V123.189H166.727ZM189.256 137.809H187.127V134H178.094V123.189H180.398V132.193H185.408V123.189H187.713V132.232H189.256V137.809ZM195.545 122.984C196.508 122.984 197.335 123.183 198.025 123.58C198.715 123.977 199.246 124.54 199.617 125.27C199.988 125.999 200.174 126.871 200.174 127.887V129.117H192.957C192.983 130.165 193.263 130.973 193.797 131.539C194.337 132.105 195.092 132.389 196.062 132.389C196.753 132.389 197.371 132.324 197.918 132.193C198.471 132.057 199.041 131.858 199.627 131.598V133.463C199.087 133.717 198.536 133.902 197.977 134.02C197.417 134.137 196.746 134.195 195.965 134.195C194.904 134.195 193.969 133.99 193.162 133.58C192.361 133.163 191.733 132.545 191.277 131.725C190.828 130.904 190.604 129.885 190.604 128.668C190.604 127.457 190.809 126.428 191.219 125.582C191.629 124.736 192.205 124.091 192.947 123.648C193.689 123.206 194.555 122.984 195.545 122.984ZM195.545 124.713C194.822 124.713 194.236 124.947 193.787 125.416C193.344 125.885 193.084 126.572 193.006 127.477H197.928C197.921 126.936 197.83 126.458 197.654 126.041C197.485 125.624 197.225 125.299 196.873 125.064C196.528 124.83 196.085 124.713 195.545 124.713ZM211.658 134H209.344V124.986H206.346C206.215 126.627 206.053 128.03 205.857 129.195C205.662 130.361 205.418 131.311 205.125 132.047C204.832 132.776 204.471 133.31 204.041 133.648C203.611 133.987 203.094 134.156 202.488 134.156C202.221 134.156 201.98 134.137 201.766 134.098C201.551 134.065 201.359 134.013 201.189 133.941V132.135C201.3 132.174 201.421 132.206 201.551 132.232C201.681 132.258 201.814 132.271 201.951 132.271C202.192 132.271 202.413 132.174 202.615 131.979C202.824 131.777 203.016 131.461 203.191 131.031C203.367 130.602 203.527 130.035 203.67 129.332C203.813 128.622 203.943 127.763 204.061 126.754C204.178 125.738 204.282 124.55 204.373 123.189H211.658V134ZM224.52 128.57C224.52 129.469 224.402 130.266 224.168 130.963C223.934 131.66 223.592 132.249 223.143 132.73C222.693 133.206 222.153 133.57 221.521 133.824C220.89 134.072 220.177 134.195 219.383 134.195C218.641 134.195 217.96 134.072 217.342 133.824C216.723 133.57 216.186 133.206 215.73 132.73C215.281 132.249 214.933 131.66 214.686 130.963C214.438 130.266 214.314 129.469 214.314 128.57C214.314 127.379 214.52 126.37 214.93 125.543C215.346 124.71 215.939 124.075 216.707 123.639C217.475 123.202 218.39 122.984 219.451 122.984C220.447 122.984 221.326 123.202 222.088 123.639C222.85 124.075 223.445 124.71 223.875 125.543C224.305 126.376 224.52 127.385 224.52 128.57ZM216.678 128.57C216.678 129.358 216.772 130.032 216.961 130.592C217.156 131.152 217.456 131.581 217.859 131.881C218.263 132.174 218.784 132.32 219.422 132.32C220.06 132.32 220.581 132.174 220.984 131.881C221.388 131.581 221.684 131.152 221.873 130.592C222.062 130.032 222.156 129.358 222.156 128.57C222.156 127.783 222.062 127.115 221.873 126.568C221.684 126.015 221.388 125.595 220.984 125.309C220.581 125.016 220.057 124.869 219.412 124.869C218.462 124.869 217.768 125.188 217.332 125.826C216.896 126.464 216.678 127.379 216.678 128.57ZM239.686 123.189V134H237.557V127.828C237.557 127.424 237.566 127.021 237.586 126.617C237.605 126.214 237.632 125.829 237.664 125.465H237.605L234.314 134H232.508L229.246 125.455H229.178C229.21 125.826 229.233 126.21 229.246 126.607C229.266 127.005 229.275 127.434 229.275 127.896V134H227.146V123.189H230.35L233.436 131.266L236.57 123.189H239.686ZM250.438 123.189V127.535H255.496V123.189H257.801V134H255.496V129.332H250.438V134H248.133V123.189H250.438ZM265.32 122.984C266.688 122.984 267.719 123.287 268.416 123.893C269.119 124.498 269.471 125.442 269.471 126.725V134H267.84L267.4 132.467H267.322C267.016 132.857 266.701 133.18 266.375 133.434C266.049 133.688 265.672 133.876 265.242 134C264.819 134.13 264.301 134.195 263.689 134.195C263.045 134.195 262.469 134.078 261.961 133.844C261.453 133.603 261.053 133.238 260.76 132.75C260.467 132.262 260.32 131.643 260.32 130.895C260.32 129.781 260.734 128.945 261.561 128.385C262.394 127.825 263.65 127.516 265.33 127.457L267.205 127.389V126.822C267.205 126.074 267.029 125.54 266.678 125.221C266.333 124.902 265.844 124.742 265.213 124.742C264.673 124.742 264.148 124.82 263.641 124.977C263.133 125.133 262.638 125.325 262.156 125.553L261.414 123.932C261.941 123.652 262.54 123.424 263.211 123.248C263.888 123.072 264.591 122.984 265.32 122.984ZM267.195 128.834L265.799 128.883C264.653 128.922 263.849 129.117 263.387 129.469C262.924 129.82 262.693 130.302 262.693 130.914C262.693 131.448 262.853 131.839 263.172 132.086C263.491 132.327 263.911 132.447 264.432 132.447C265.226 132.447 265.883 132.223 266.404 131.773C266.932 131.318 267.195 130.65 267.195 129.771V128.834ZM283.426 122.984C284.708 122.984 285.737 123.453 286.512 124.391C287.293 125.328 287.684 126.721 287.684 128.57C287.684 129.794 287.501 130.826 287.137 131.666C286.779 132.499 286.274 133.131 285.623 133.561C284.979 133.984 284.227 134.195 283.367 134.195C282.82 134.195 282.345 134.124 281.941 133.98C281.538 133.837 281.193 133.652 280.906 133.424C280.62 133.189 280.379 132.936 280.184 132.662H280.047C280.079 132.923 280.109 133.212 280.135 133.531C280.167 133.844 280.184 134.13 280.184 134.391V138.795H277.879V123.189H279.754L280.076 124.684H280.184C280.385 124.378 280.63 124.094 280.916 123.834C281.209 123.574 281.561 123.368 281.971 123.219C282.387 123.062 282.872 122.984 283.426 122.984ZM282.811 124.859C282.179 124.859 281.671 124.986 281.287 125.24C280.91 125.488 280.633 125.862 280.457 126.363C280.288 126.865 280.197 127.493 280.184 128.248V128.57C280.184 129.371 280.265 130.051 280.428 130.611C280.597 131.165 280.874 131.588 281.258 131.881C281.648 132.167 282.176 132.311 282.84 132.311C283.4 132.311 283.862 132.158 284.227 131.852C284.598 131.546 284.874 131.109 285.057 130.543C285.239 129.977 285.33 129.309 285.33 128.541C285.33 127.376 285.122 126.471 284.705 125.826C284.295 125.182 283.663 124.859 282.811 124.859ZM299.91 128.57C299.91 129.469 299.793 130.266 299.559 130.963C299.324 131.66 298.982 132.249 298.533 132.73C298.084 133.206 297.544 133.57 296.912 133.824C296.281 134.072 295.568 134.195 294.773 134.195C294.031 134.195 293.351 134.072 292.732 133.824C292.114 133.57 291.577 133.206 291.121 132.73C290.672 132.249 290.324 131.66 290.076 130.963C289.829 130.266 289.705 129.469 289.705 128.57C289.705 127.379 289.91 126.37 290.32 125.543C290.737 124.71 291.329 124.075 292.098 123.639C292.866 123.202 293.781 122.984 294.842 122.984C295.838 122.984 296.717 123.202 297.479 123.639C298.24 124.075 298.836 124.71 299.266 125.543C299.695 126.376 299.91 127.385 299.91 128.57ZM292.068 128.57C292.068 129.358 292.163 130.032 292.352 130.592C292.547 131.152 292.846 131.581 293.25 131.881C293.654 132.174 294.174 132.32 294.812 132.32C295.451 132.32 295.971 132.174 296.375 131.881C296.779 131.581 297.075 131.152 297.264 130.592C297.452 130.032 297.547 129.358 297.547 128.57C297.547 127.783 297.452 127.115 297.264 126.568C297.075 126.015 296.779 125.595 296.375 125.309C295.971 125.016 295.447 124.869 294.803 124.869C293.852 124.869 293.159 125.188 292.723 125.826C292.286 126.464 292.068 127.379 292.068 128.57ZM306.902 134.195C305.88 134.195 304.995 133.997 304.246 133.6C303.497 133.202 302.921 132.594 302.518 131.773C302.114 130.953 301.912 129.911 301.912 128.648C301.912 127.333 302.133 126.259 302.576 125.426C303.019 124.592 303.631 123.977 304.412 123.58C305.2 123.183 306.102 122.984 307.117 122.984C307.762 122.984 308.344 123.049 308.865 123.18C309.393 123.303 309.839 123.456 310.203 123.639L309.52 125.475C309.122 125.312 308.715 125.175 308.299 125.064C307.882 124.954 307.482 124.898 307.098 124.898C306.466 124.898 305.939 125.038 305.516 125.318C305.099 125.598 304.786 126.015 304.578 126.568C304.376 127.122 304.275 127.809 304.275 128.629C304.275 129.423 304.38 130.094 304.588 130.641C304.796 131.181 305.105 131.591 305.516 131.871C305.926 132.145 306.43 132.281 307.029 132.281C307.622 132.281 308.152 132.21 308.621 132.066C309.09 131.923 309.533 131.738 309.949 131.51V133.502C309.539 133.736 309.1 133.909 308.631 134.02C308.162 134.137 307.586 134.195 306.902 134.195ZM320.652 124.996H317.098V134H314.812V124.996H311.277V123.189H320.652V124.996ZM337.381 123.189V134H335.066V125.006H330.242V134H327.938V123.189H337.381ZM346.219 122.984C347.501 122.984 348.53 123.453 349.305 124.391C350.086 125.328 350.477 126.721 350.477 128.57C350.477 129.794 350.294 130.826 349.93 131.666C349.572 132.499 349.067 133.131 348.416 133.561C347.771 133.984 347.02 134.195 346.16 134.195C345.613 134.195 345.138 134.124 344.734 133.98C344.331 133.837 343.986 133.652 343.699 133.424C343.413 133.189 343.172 132.936 342.977 132.662H342.84C342.872 132.923 342.902 133.212 342.928 133.531C342.96 133.844 342.977 134.13 342.977 134.391V138.795H340.672V123.189H342.547L342.869 124.684H342.977C343.178 124.378 343.423 124.094 343.709 123.834C344.002 123.574 344.354 123.368 344.764 123.219C345.18 123.062 345.665 122.984 346.219 122.984ZM345.604 124.859C344.972 124.859 344.464 124.986 344.08 125.24C343.702 125.488 343.426 125.862 343.25 126.363C343.081 126.865 342.99 127.493 342.977 128.248V128.57C342.977 129.371 343.058 130.051 343.221 130.611C343.39 131.165 343.667 131.588 344.051 131.881C344.441 132.167 344.969 132.311 345.633 132.311C346.193 132.311 346.655 132.158 347.02 131.852C347.391 131.546 347.667 131.109 347.85 130.543C348.032 129.977 348.123 129.309 348.123 128.541C348.123 127.376 347.915 126.471 347.498 125.826C347.088 125.182 346.456 124.859 345.604 124.859ZM355.34 123.189V128.707C355.34 128.883 355.333 129.107 355.32 129.381C355.314 129.648 355.301 129.928 355.281 130.221C355.262 130.507 355.242 130.771 355.223 131.012C355.203 131.253 355.187 131.432 355.174 131.549L360.613 123.189H363.406V134H361.209V128.541C361.209 128.255 361.215 127.923 361.229 127.545C361.248 127.167 361.268 126.803 361.287 126.451C361.313 126.1 361.329 125.833 361.336 125.65L355.916 134H353.133V123.189H355.34ZM366.092 127.516C366.092 125.947 366.264 124.612 366.609 123.512C366.954 122.411 367.498 121.529 368.24 120.865C368.982 120.201 369.946 119.749 371.131 119.508C371.899 119.332 372.68 119.182 373.475 119.059C374.269 118.935 375.063 118.814 375.857 118.697L376.17 120.719C375.799 120.764 375.402 120.82 374.979 120.885C374.555 120.943 374.129 121.005 373.699 121.07C373.276 121.135 372.869 121.204 372.479 121.275C372.094 121.34 371.749 121.406 371.443 121.471C370.831 121.601 370.314 121.816 369.891 122.115C369.474 122.408 369.148 122.838 368.914 123.404C368.68 123.971 368.54 124.726 368.494 125.67H368.621C368.797 125.403 369.041 125.136 369.354 124.869C369.666 124.602 370.044 124.381 370.486 124.205C370.936 124.023 371.447 123.932 372.02 123.932C372.918 123.932 373.68 124.12 374.305 124.498C374.936 124.876 375.415 125.423 375.74 126.139C376.072 126.855 376.238 127.717 376.238 128.727C376.238 129.931 376.023 130.94 375.594 131.754C375.171 132.561 374.578 133.17 373.816 133.58C373.055 133.99 372.166 134.195 371.15 134.195C370.369 134.195 369.666 134.049 369.041 133.756C368.423 133.463 367.892 133.033 367.449 132.467C367.013 131.894 366.678 131.194 366.443 130.367C366.209 129.534 366.092 128.583 366.092 127.516ZM371.307 132.311C371.827 132.311 372.277 132.2 372.654 131.979C373.038 131.757 373.335 131.399 373.543 130.904C373.758 130.41 373.865 129.755 373.865 128.941C373.865 127.939 373.683 127.151 373.318 126.578C372.96 125.999 372.368 125.709 371.541 125.709C371.033 125.709 370.568 125.823 370.145 126.051C369.721 126.279 369.363 126.546 369.07 126.852C368.777 127.151 368.569 127.415 368.445 127.643C368.445 128.235 368.488 128.808 368.572 129.361C368.663 129.915 368.813 130.416 369.021 130.865C369.236 131.308 369.529 131.66 369.9 131.92C370.271 132.18 370.74 132.311 371.307 132.311ZM378.875 134V123.189H381.18V127.506H383.357C384.373 127.506 385.21 127.623 385.867 127.857C386.525 128.085 387.013 128.43 387.332 128.893C387.651 129.355 387.811 129.934 387.811 130.631C387.811 131.314 387.658 131.91 387.352 132.418C387.046 132.919 386.567 133.31 385.916 133.59C385.265 133.863 384.412 134 383.357 134H378.875ZM381.18 132.311H383.201C383.891 132.311 384.448 132.187 384.871 131.939C385.301 131.686 385.516 131.269 385.516 130.689C385.516 130.149 385.317 129.768 384.92 129.547C384.529 129.319 383.956 129.205 383.201 129.205H381.18V132.311ZM389.48 134V123.189H391.785V134H389.48ZM403.963 134H401.648V124.986H398.65C398.52 126.627 398.357 128.03 398.162 129.195C397.967 130.361 397.723 131.311 397.43 132.047C397.137 132.776 396.775 133.31 396.346 133.648C395.916 133.987 395.398 134.156 394.793 134.156C394.526 134.156 394.285 134.137 394.07 134.098C393.855 134.065 393.663 134.013 393.494 133.941V132.135C393.605 132.174 393.725 132.206 393.855 132.232C393.986 132.258 394.119 132.271 394.256 132.271C394.497 132.271 394.718 132.174 394.92 131.979C395.128 131.777 395.32 131.461 395.496 131.031C395.672 130.602 395.831 130.035 395.975 129.332C396.118 128.622 396.248 127.763 396.365 126.754C396.482 125.738 396.587 124.55 396.678 123.189H403.963V134ZM409.461 123.189V128.707C409.461 128.883 409.454 129.107 409.441 129.381C409.435 129.648 409.422 129.928 409.402 130.221C409.383 130.507 409.363 130.771 409.344 131.012C409.324 131.253 409.308 131.432 409.295 131.549L414.734 123.189H417.527V134H415.33V128.541C415.33 128.255 415.337 127.923 415.35 127.545C415.369 127.167 415.389 126.803 415.408 126.451C415.434 126.1 415.451 125.833 415.457 125.65L410.037 134H407.254V123.189H409.461Z" fill="#222222"></path> <circle cx="62" cy="62" r="30" fill="#D3413F"></circle> <g clip-path="url(#clip0_3210_73)"> <path d="M61.0328 78.0002C60.4383 77.9221 59.8383 77.8643 59.2485 77.7533C54.45 76.851 50.7797 74.2924 48.275 70.1174C46.35 66.908 45.6242 63.3916 46.2828 59.7158C47.4602 53.1486 51.311 48.7986 57.6891 46.8401C61.2977 45.7322 64.8992 46.051 68.3805 47.5432C68.4586 47.5752 68.5281 47.6119 68.6336 47.6619L66.1563 50.1377C65.5891 49.9932 64.9531 49.8104 64.307 49.669C62.1641 49.2065 60.0539 49.3565 57.9789 50.0526C55.7339 50.7919 53.7431 52.1496 52.2352 53.9697C50.6477 55.8705 49.6735 58.0549 49.361 60.5236C49.0117 63.1299 49.5044 65.7796 50.7672 68.0861C51.9949 70.3999 53.9137 72.2731 56.2563 73.4447C58.1681 74.4313 60.3045 74.9015 62.4539 74.8088C64.9695 74.708 67.2539 73.9111 69.3055 72.4541C71.2036 71.1173 72.6955 69.2821 73.6164 67.151C74.3888 65.4182 74.7459 63.529 74.6594 61.6338C74.6047 60.433 74.3938 59.2619 74.1125 58.101C74.0649 57.9049 74.086 57.7799 74.2399 57.6393C74.9695 56.9744 75.686 56.2963 76.4274 55.608C76.8837 56.4795 77.2208 57.4084 77.4297 58.3697C78.6016 63.8627 77.3735 68.7432 73.586 72.9096C71.1422 75.5869 68.0774 77.1807 64.5063 77.7947C63.9766 77.8854 63.4391 77.933 62.9047 78.0002H61.0328Z" fill="white"></path> <path d="M66 53.4305C65.8977 53.5524 65.8266 53.6493 65.743 53.7329C65.0985 54.3813 64.4399 55.0172 63.8102 55.6797C63.6094 55.8907 63.4149 55.9321 63.15 55.8829C62.208 55.7056 61.2384 55.7392 60.311 55.9813C57.2336 56.7696 55.1492 59.9962 55.7078 63.1297C56.2977 66.4415 59.1524 68.6766 62.4914 68.4462C65.7532 68.2188 68.3508 65.3704 68.3242 62.0344C68.3242 61.5907 68.2461 61.1477 68.218 60.7063C68.2107 60.5887 68.2463 60.4724 68.318 60.379C68.961 59.6712 69.618 58.9766 70.2672 58.2751C70.4407 58.0876 70.5375 58.1188 70.6469 58.3469C72.2555 61.6977 71.5133 65.7688 69.0649 68.4469C66.9039 70.8087 64.2063 71.9102 61.0219 71.5774C57.6008 71.2196 55.0492 69.4454 53.486 66.3868C52.0016 63.4782 52.0492 60.4985 53.5899 57.6305C55.0992 54.818 57.5032 53.1688 60.6703 52.6844C62.4485 52.4133 64.1641 52.7172 65.8336 53.3422C65.8672 53.3524 65.9008 53.3766 66 53.4305Z" fill="white"></path> <path d="M72.1375 46.0869V47.0479C72.1375 48.0635 72.1313 49.0846 72.1446 50.1033C72.152 50.2516 72.2093 50.3931 72.3071 50.5049C72.6602 50.8861 73.0266 51.2557 73.4094 51.6064C73.5297 51.7106 73.6817 51.7709 73.8407 51.7775C75.036 51.7908 76.2313 51.7846 77.4266 51.7846H77.8211C77.7243 51.8963 77.6711 51.9658 77.6094 52.0275C76.2211 53.4174 74.8352 54.8096 73.4375 56.1893C73.3041 56.3106 73.1356 56.3867 72.9563 56.4064C71.9125 56.5111 70.8657 56.5861 69.8211 56.6885C69.6707 56.7107 69.5311 56.7802 69.4227 56.8869C68.0055 58.2932 66.5985 59.7057 65.1829 61.1127C65.0508 61.2447 65.0266 61.3471 65.0719 61.5424C65.2821 62.4369 65.0657 63.2658 64.5149 63.9783C63.3125 65.5338 61.3524 65.7228 59.8532 64.458C58.4547 63.2783 58.4516 60.9674 59.8352 59.7705C60.5032 59.1916 61.2704 58.8869 62.1477 58.9385C62.6055 58.9658 62.9125 58.8088 63.2266 58.4869C64.5243 57.1549 65.8532 55.8525 67.1586 54.5244C67.2863 54.3833 67.3666 54.2057 67.3883 54.0166C67.4938 52.983 67.5688 51.9471 67.668 50.9127C67.6819 50.7712 67.7393 50.6375 67.8321 50.5299C69.2112 49.0887 70.5959 47.6523 71.986 46.2205C72.0157 46.1932 72.0485 46.165 72.1375 46.0869Z" fill="white"></path> </g> <defs> <clipPath id="clip0_3210_73"> <rect width="32" height="32" fill="white" transform="translate(46 46)"></rect> </clipPath> </defs> </svg> 