<?xml version="1.0" encoding="UTF-8"?> <svg xmlns="http://www.w3.org/2000/svg" width="44" height="44" viewBox="0 0 44 44" fill="none"> <circle cx="22" cy="22" r="22" fill="#D3413F"></circle> <path fill-rule="evenodd" clip-rule="evenodd" d="M27.5 15.6842C27.5 18.8235 25.0375 21.3684 22 21.3684C18.9624 21.3684 16.5 18.8235 16.5 15.6842C16.5 12.5449 18.9624 10 22 10C25.0375 10 27.5 12.5449 27.5 15.6842ZM22 23.8949C17.7635 23.8949 15.116 25.6095 12.1638 28.4377C10.8523 29.6941 10.6493 31.7383 11.5547 33.2386C11.8808 33.7791 12.5062 34.0002 13.1224 34.0002H30.8776C31.4938 34.0002 32.1192 33.7791 32.4453 33.2386C33.3507 31.7383 33.1477 29.6941 31.8362 28.4377C28.884 25.6095 26.2365 23.8949 22 23.8949Z" fill="white"></path> </svg> 