<?xml version="1.0" encoding="UTF-8"?> <svg xmlns="http://www.w3.org/2000/svg" width="54" height="54" viewBox="0 0 54 54" fill="none"> <path fill-rule="evenodd" clip-rule="evenodd" d="M0 27C0 41.9117 12.0883 54 27 54C41.9117 54 54 41.9117 54 27C54 12.0883 41.9117 0 27 0C12.0883 0 0 12.0883 0 27ZM43.9454 25.9666C43.9418 34.8167 36.7424 42.0179 27.8904 42.0215H27.8838C25.1967 42.0206 22.5565 41.3464 20.2115 40.0673L11.7004 42.2999L13.9781 33.9804C12.5731 31.5455 11.8338 28.7836 11.835 25.9539C11.8386 17.1018 19.0409 9.8999 27.8902 9.8999C32.1852 9.90176 36.2162 11.5738 39.2474 14.6085C42.2786 17.6431 43.9471 21.6768 43.9454 25.9666Z" fill="#222222"></path> <path fill-rule="evenodd" clip-rule="evenodd" d="M15.5546 38.4856L20.6052 37.1607L21.0925 37.4499C23.1413 38.6657 25.4899 39.309 27.8844 39.31H27.8898C35.2448 39.31 41.231 33.3236 41.2339 25.9656C41.2353 22.3999 39.8486 19.0473 37.3292 16.5249C34.8098 14.0026 31.4593 12.6128 27.8951 12.6116C20.5344 12.6116 14.5481 18.5973 14.5452 25.9548C14.5441 28.4762 15.2496 30.9318 16.5854 33.0564L16.9027 33.5613L15.5546 38.4856ZM35.429 29.4236C35.7088 29.5589 35.8977 29.6502 35.9784 29.7848C36.0786 29.9521 36.0786 30.7553 35.7445 31.6925C35.4101 32.6296 33.8074 33.4848 33.0366 33.5999C32.3455 33.7033 31.4709 33.7464 30.5099 33.441C29.9273 33.2561 29.1801 33.0093 28.223 32.5959C24.4622 30.972 21.9207 27.327 21.4403 26.6381C21.4067 26.5898 21.3831 26.5561 21.37 26.5386L21.3668 26.5342C21.1545 26.251 19.732 24.353 19.732 22.3887C19.732 20.5408 20.6396 19.5723 21.0575 19.1265C21.0861 19.0959 21.1124 19.0678 21.136 19.0421C21.5037 18.6404 21.9383 18.54 22.2057 18.54C22.4731 18.54 22.7409 18.5425 22.9746 18.5543C23.0034 18.5557 23.0334 18.5555 23.0645 18.5553C23.2982 18.554 23.5897 18.5523 23.8772 19.2429C23.9878 19.5087 24.1496 19.9027 24.3203 20.3182C24.6655 21.1586 25.0469 22.0872 25.114 22.2215C25.2144 22.4224 25.2812 22.6565 25.1475 22.9244C25.1274 22.9646 25.1089 23.0025 25.0911 23.0387C24.9907 23.2437 24.9168 23.3945 24.7463 23.5936C24.6793 23.6718 24.61 23.7562 24.5408 23.8406C24.4028 24.0086 24.2648 24.1767 24.1446 24.2964C23.9438 24.4964 23.7347 24.7135 23.9687 25.1151C24.2027 25.5167 25.0078 26.8303 26.2004 27.8941C27.4824 29.0376 28.5966 29.5209 29.1613 29.7658C29.2716 29.8137 29.3609 29.8524 29.4265 29.8852C29.8275 30.0861 30.0615 30.0525 30.2955 29.7848C30.5296 29.5171 31.2984 28.6134 31.5657 28.2119C31.8331 27.8104 32.1007 27.8773 32.4683 28.0111C32.8361 28.1451 34.8084 29.1155 35.2096 29.3162C35.2879 29.3554 35.3611 29.3908 35.429 29.4236Z" fill="#222222"></path> </svg> 