<?xml version="1.0" encoding="UTF-8"?> <svg xmlns="http://www.w3.org/2000/svg" width="18" height="20" viewBox="0 0 18 20" fill="none"> <path d="M8.16699 0.964994L8.16699 19.1957C8.16699 19.6399 8.54031 20 9.00033 20C9.46034 20 9.83367 19.64 9.83367 19.1957L9.83367 0.964994C9.83367 0.520773 9.46063 0.160692 9.00033 0.160692C8.54003 0.160692 8.16699 0.520733 8.16699 0.964994Z" fill="#D3413F"></path> <path d="M8.41061 0.23547L0.24396 8.11729C-0.0813201 8.43151 -0.0813201 8.94035 0.24396 9.25457C0.569524 9.56879 1.09729 9.56879 1.42257 9.25457L9.00001 1.94138L16.5775 9.25457C16.9028 9.56879 17.4305 9.56879 17.7558 9.25457C17.9186 9.09746 18 8.89183 18 8.68593C18 8.48003 17.9186 8.2744 17.7558 8.11729L9.58922 0.23547C9.26366 -0.078751 8.73585 -0.078751 8.41061 0.23547Z" fill="#D3413F"></path> </svg> 