<?xml version="1.0" encoding="UTF-8"?> <svg xmlns="http://www.w3.org/2000/svg" width="100" height="100" viewBox="0 0 100 100" fill="none"> <circle cx="50" cy="50" r="50" fill="#D3413F"></circle> <g clip-path="url(#clip0_3161_491)"> <path d="M64.3746 78.0004C63.8224 78.0002 63.375 77.5525 63.375 77.0004V58.8624C63.375 58.1612 64.0789 57.6756 64.733 57.9283C64.789 57.9499 64.8449 57.9716 64.9008 57.9933C68.5416 59.408 72.1866 60.8156 75.8189 62.2514C76.1888 62.3937 76.5076 62.6435 76.7344 62.9686C77.1014 63.5536 76.785 64.2469 76.0763 64.5309C74.3888 65.2073 72.6858 65.8626 70.9884 66.525C69.6173 67.0594 68.242 67.5825 66.8794 68.1365C66.7134 68.204 66.5025 68.4319 66.5011 68.588C66.4814 71.6817 66.4884 74.7628 66.4927 77.8509C66.5033 77.9244 66.4524 78.0014 66.3781 78.0013L64.3746 78.0004Z" fill="white"></path> <path d="M31.0524 42.2967V39.7078C31.0524 39.4143 31.2903 39.1763 31.5839 39.1763C42.1664 39.1763 52.7489 39.1763 63.3314 39.1763C67.4475 39.1763 70.748 42.1027 71.347 46.2314C71.9011 50.0213 69.4331 53.866 65.6813 54.9502C64.8386 55.1822 63.9678 55.2963 63.0938 55.2891C54.6872 55.3144 46.2806 55.3177 37.8741 55.2989C36.2456 55.2989 34.8211 55.7517 33.7439 57.0131C32.4445 58.5361 32.1408 60.2827 32.8917 62.1249C33.6427 63.9671 35.0602 64.9613 37.0275 65.1778C37.3079 65.2051 37.5896 65.2169 37.8713 65.213H56.8556L55.2597 63.5027C54.884 63.1 54.9045 62.4695 55.3056 62.0921L56.4476 61.0176C56.6456 60.8313 56.9672 60.8865 57.1341 61.1011C58.4728 62.5392 59.8149 63.975 61.1602 65.4085C62.0236 66.3267 62.0306 67.0383 61.1742 67.9721C59.9406 69.3082 58.712 70.6443 57.4568 72.0061C57.0817 72.4131 56.4474 72.4377 56.0418 72.0612L55.2892 71.3627C54.8878 70.9901 54.8608 70.3639 55.2286 69.9581L56.8149 68.2083H56.1483C49.9524 68.2083 43.7574 68.2083 37.5633 68.2083C33.6258 68.2083 30.4153 65.5505 29.6377 61.6819C28.6758 56.8922 32.4164 52.2347 37.3228 52.215C45.9572 52.1799 54.5916 52.2052 63.2274 52.201C65.4338 52.201 67.2338 51.0422 68.017 49.1381C68.3312 48.3858 68.454 47.5673 68.3742 46.7559C68.2945 45.9445 68.0147 45.1655 67.5601 44.4887C67.1054 43.812 66.49 43.2585 65.7689 42.8779C65.0479 42.4973 64.2437 42.3015 63.4284 42.308C56.6531 42.2855 49.8792 42.301 43.1053 42.301H31.0524V42.2967Z" fill="white"></path> <path d="M25.0687 25.568C25.0687 24.8644 25.776 24.3809 26.4316 24.6361L29.3086 25.7564C32.0508 26.8214 34.7953 27.8845 37.5422 28.9458C38.0048 29.1244 38.3986 29.3592 38.5139 29.8852C38.6461 30.4912 38.3437 30.9891 37.6561 31.2591C35.4998 32.1028 33.3436 32.9442 31.1873 33.7833C30.3225 34.1208 29.4647 34.4864 28.5886 34.7873C28.2314 34.9125 28.1161 35.0869 28.1175 35.4638C28.1329 38.3241 28.1259 41.1844 28.1259 44.0419C28.1259 44.3984 27.8369 44.6873 27.4804 44.6873H26.0687C25.5164 44.6873 25.0687 44.2396 25.0687 43.6873V25.568Z" fill="white"></path> </g> <defs> <clipPath id="clip0_3161_491"> <rect width="54" height="54" fill="white" transform="translate(24 24)"></rect> </clipPath> </defs> </svg> 