<?xml version="1.0" encoding="UTF-8"?> <svg xmlns="http://www.w3.org/2000/svg" width="211" height="40" viewBox="0 0 211 40" fill="none"> <g clip-path="url(#clip0_3161_361)"> <rect width="211" height="40" rx="20" fill="#F8F8F8"></rect> <path d="M22.0196 24L18 32H46.5714L45.1592 12.7568L36.1423 8L22.0196 12.7568V24Z" fill="#C7C7C7"></path> <path d="M55.2814 12.5801V13.3465C56.0071 13.3581 56.5795 13.4684 56.9987 13.6774C57.4179 13.8864 57.715 14.1651 57.8902 14.5135C58.0654 14.856 58.153 15.2392 58.153 15.6631C58.153 15.9417 58.1061 16.2204 58.0122 16.4991C57.9246 16.772 57.7713 17.0216 57.5524 17.2481C57.3334 17.4687 57.0394 17.6487 56.6703 17.788C56.3011 17.9274 55.8382 18.0028 55.2814 18.0145V18.9724H54.4462V18.0145C53.8769 18.0028 53.4045 17.9274 53.0291 17.788C52.66 17.6429 52.3691 17.4571 52.1564 17.2307C51.9437 16.9984 51.7935 16.7459 51.7059 16.473C51.6184 16.2001 51.5746 15.9301 51.5746 15.6631C51.5746 15.3553 51.6215 15.065 51.7153 14.7922C51.8154 14.5135 51.975 14.2696 52.1939 14.0606C52.4192 13.8458 52.7163 13.6745 53.0854 13.5468C53.4546 13.4191 53.9081 13.3523 54.4462 13.3465V12.5801H55.2814ZM54.4462 14.0084C53.9457 14.02 53.5453 14.0955 53.245 14.2348C52.9509 14.3741 52.7413 14.5657 52.6162 14.8096C52.4911 15.0476 52.4285 15.3292 52.4285 15.6543C52.4285 15.9969 52.4974 16.2959 52.635 16.5514C52.7789 16.801 52.9979 16.9955 53.2919 17.1349C53.5922 17.2742 53.977 17.3526 54.4462 17.37V14.0084ZM55.2814 17.37C55.7631 17.3526 56.151 17.2713 56.445 17.1261C56.7453 16.981 56.9612 16.7836 57.0926 16.5339C57.2302 16.2785 57.299 15.9853 57.299 15.6543C57.299 15.3234 57.2364 15.0389 57.1113 14.8009C56.9862 14.557 56.7766 14.3683 56.4826 14.2348C56.1885 14.0955 55.7881 14.02 55.2814 14.0084V17.37Z" fill="#222222"></path> <path d="M65.395 15.7676C65.395 16.2495 65.3293 16.6878 65.1979 17.0826C65.0665 17.4716 64.8694 17.8083 64.6067 18.0928C64.3502 18.3773 64.028 18.595 63.6401 18.746C63.2585 18.897 62.8143 18.9724 62.3075 18.9724C61.782 18.9724 61.3253 18.897 60.9374 18.746C60.5495 18.5892 60.2273 18.3715 59.9708 18.0928C59.7143 17.8083 59.5235 17.4687 59.3984 17.0739C59.2733 16.6791 59.2107 16.2407 59.2107 15.7589C59.2107 15.1202 59.3233 14.5628 59.5485 14.0868C59.7738 13.6107 60.1147 13.2391 60.5714 12.972C61.0344 12.7049 61.6162 12.5714 62.3169 12.5714C62.9863 12.5714 63.5494 12.7049 64.0061 12.972C64.4628 13.2333 64.8069 13.6049 65.0384 14.0868C65.2761 14.5628 65.395 15.1231 65.395 15.7676ZM60.1022 15.7676C60.1022 16.2901 60.1804 16.7401 60.3368 17.1174C60.4932 17.4948 60.7341 17.7851 61.0594 17.9883C61.391 18.1915 61.807 18.2931 62.3075 18.2931C62.8143 18.2931 63.2272 18.1915 63.5463 17.9883C63.8716 17.7851 64.1124 17.4948 64.2689 17.1174C64.4253 16.7401 64.5035 16.2901 64.5035 15.7676C64.5035 14.9838 64.3283 14.3712 63.9779 13.93C63.6276 13.4829 63.0739 13.2594 62.3169 13.2594C61.8102 13.2594 61.391 13.361 61.0594 13.5642C60.7341 13.7616 60.4932 14.049 60.3368 14.4264C60.1804 14.798 60.1022 15.245 60.1022 15.7676Z" fill="#222222"></path> <path d="M68.6537 12.6672C69.5296 12.6672 70.1677 12.8269 70.5681 13.1462C70.9685 13.4655 71.1687 13.9155 71.1687 14.4961C71.1687 14.7515 71.1218 14.9983 71.0279 15.2363C70.9403 15.4686 70.7933 15.6776 70.5869 15.8634C70.3804 16.0492 70.1051 16.1972 69.761 16.3075C69.4169 16.412 68.9946 16.4643 68.4941 16.4643H67.7246V18.8853H66.88V12.6672H68.6537ZM68.5786 13.3378H67.7246V15.7937H68.4003C68.8257 15.7937 69.1792 15.7531 69.4607 15.6718C69.7423 15.5847 69.9518 15.4482 70.0895 15.2625C70.2271 15.0767 70.2959 14.8328 70.2959 14.5309C70.2959 14.1303 70.1583 13.8313 69.883 13.6339C69.6078 13.4365 69.1729 13.3378 68.5786 13.3378Z" fill="#222222"></path> <path d="M75.3679 17.1174C75.1677 17.5297 74.9643 17.8751 74.7579 18.1538C74.5577 18.4267 74.32 18.6328 74.0447 18.7721C73.7694 18.9057 73.4191 18.9724 72.9936 18.9724C72.8185 18.9724 72.6527 18.9608 72.4963 18.9376C72.3461 18.9144 72.2085 18.8824 72.0834 18.8418V18.0667C72.2085 18.119 72.343 18.1625 72.4869 18.1973C72.6308 18.2264 72.7809 18.2409 72.9373 18.2409C73.1688 18.2409 73.3659 18.2119 73.5285 18.1538C73.6975 18.0899 73.8445 17.9883 73.9696 17.849C74.101 17.7096 74.223 17.5239 74.3356 17.2916L71.7549 12.6672H72.684L74.5514 16.0898C74.5765 16.1304 74.6015 16.1798 74.6265 16.2378C74.6515 16.2901 74.6766 16.3453 74.7016 16.4033C74.7329 16.4614 74.7579 16.5165 74.7767 16.5688H74.8142C74.833 16.5281 74.8517 16.4817 74.8705 16.4294C74.8955 16.3714 74.9174 16.3162 74.9362 16.264C74.9612 16.2059 74.9831 16.1566 75.0019 16.1159L76.616 12.6672H77.5075L75.3679 17.1174Z" fill="#222222"></path> <path d="M81.3741 18.8853L79.1688 13.4336H79.1312C79.1437 13.5497 79.1531 13.6978 79.1594 13.8777C79.1719 14.0577 79.1813 14.2551 79.1875 14.4699C79.1938 14.679 79.1969 14.8938 79.1969 15.1144V18.8853H78.418V12.6672H79.6661L81.7307 17.7619H81.7682L83.8703 12.6672H85.109V18.8853H84.2738V15.0621C84.2738 14.8589 84.277 14.6586 84.2832 14.4612C84.2895 14.258 84.2989 14.0693 84.3114 13.8952C84.3239 13.7152 84.3333 13.5642 84.3395 13.4423H84.302L82.0685 18.8853H81.3741Z" fill="#222222"></path> <path d="M57.1864 22.8276V27.9484H58.0779V30.8571H56.7078V29.0457H52.513V30.8571H51.1429V27.9484H51.659C51.8342 27.6232 52.0031 27.2807 52.1658 26.9207C52.3284 26.5608 52.4786 26.1747 52.6162 25.7624C52.7601 25.3502 52.8884 24.9032 53.001 24.4213C53.1136 23.9336 53.2074 23.4023 53.2825 22.8276H57.1864ZM54.4086 23.9249C54.3648 24.2268 54.3023 24.549 54.2209 24.8916C54.1396 25.2283 54.0426 25.5737 53.93 25.9279C53.8237 26.2821 53.7048 26.6304 53.5734 26.973C53.442 27.3155 53.3013 27.6407 53.1511 27.9484H55.7694V23.9249H54.4086Z" fill="#222222"></path> <path d="M61.1904 22.8276C61.7848 22.8276 62.2821 22.8798 62.6825 22.9843C63.0892 23.083 63.3926 23.2485 63.5928 23.4807C63.7993 23.7071 63.9025 24.0149 63.9025 24.4039C63.9025 24.6361 63.8618 24.848 63.7805 25.0396C63.6992 25.2312 63.5803 25.388 63.4239 25.5099C63.2737 25.6318 63.0892 25.7102 62.8702 25.745V25.7886C63.0954 25.8292 63.2988 25.9018 63.4802 26.0063C63.6616 26.1108 63.8055 26.2617 63.9119 26.4591C64.0182 26.6565 64.0714 26.9178 64.0714 27.2429C64.0714 27.6203 63.9713 27.9455 63.7711 28.2183C63.5772 28.4854 63.2956 28.6915 62.9265 28.8367C62.5574 28.976 62.1195 29.0457 61.6127 29.0457H59.1071V22.8276H61.1904ZM61.35 25.2922C61.7629 25.2922 62.0475 25.2312 62.2039 25.1093C62.3666 24.9874 62.4479 24.8103 62.4479 24.578C62.4479 24.34 62.3541 24.1687 62.1664 24.0642C61.9787 23.9597 61.6815 23.9075 61.2749 23.9075H60.5241V25.2922H61.35ZM60.5241 26.3372V27.9571H61.4532C61.8786 27.9571 62.1758 27.8816 62.3447 27.7306C62.5136 27.5739 62.5981 27.3678 62.5981 27.1123C62.5981 26.9556 62.5605 26.8191 62.4855 26.703C62.4166 26.5869 62.2946 26.4969 62.1195 26.433C61.9443 26.3692 61.7066 26.3372 61.4063 26.3372H60.5241Z" fill="#222222"></path> <path d="M65.4122 22.8276H66.6885V25.8321C66.6885 25.9773 66.6853 26.1398 66.6791 26.3198C66.6728 26.4998 66.6666 26.6769 66.6603 26.851C66.6541 27.0194 66.6478 27.1675 66.6415 27.2952C66.6353 27.4171 66.629 27.5013 66.6228 27.5478H66.6509L69.7478 22.8276H71.4463V29.0457H70.1794V26.0585C70.1794 25.9018 70.1826 25.7305 70.1888 25.5447C70.1951 25.3531 70.2013 25.1702 70.2076 24.9961C70.2201 24.8219 70.2295 24.6709 70.2357 24.5432C70.2483 24.4097 70.2576 24.3226 70.2639 24.2819H70.2264L67.1201 29.0457H65.4122V22.8276Z" fill="#222222"></path> <path d="M74.6768 25.8147L72.4246 22.8276H73.8885L76.0563 25.8408V22.8276H77.3795V25.8408L79.5473 22.8276H81.0112L78.759 25.8147L81.1426 29.0457H79.6224L77.3795 25.8931V29.0457H76.0563V25.8931L73.8134 29.0457H72.2932L74.6768 25.8147Z" fill="#222222"></path> <path d="M85.8475 29.0457H81.9906V22.8276H85.8475V23.9075H83.4076V25.2747H85.6786V26.3546H83.4076V27.9571H85.8475V29.0457Z" fill="#222222"></path> <path d="M92.7316 29.0457H91.3146V26.3633H88.6588V29.0457H87.2418V22.8276H88.6588V25.266H91.3146V22.8276H92.7316V29.0457Z" fill="#222222"></path> <path d="M94.4175 22.8276H95.6938V25.8321C95.6938 25.9773 95.6906 26.1398 95.6844 26.3198C95.6781 26.4998 95.6719 26.6769 95.6656 26.851C95.6593 27.0194 95.6531 27.1675 95.6468 27.2952C95.6406 27.4171 95.6343 27.5013 95.6281 27.5478H95.6562L98.753 22.8276H100.452V29.0457H99.1847V26.0585C99.1847 25.9018 99.1879 25.7305 99.1941 25.5447C99.2004 25.3531 99.2066 25.1702 99.2129 24.9961C99.2254 24.8219 99.2348 24.6709 99.241 24.5432C99.2535 24.4097 99.2629 24.3226 99.2692 24.2819H99.2316L96.1254 29.0457H94.4175V22.8276Z" fill="#222222"></path> <path d="M106 29.0457H102.143V22.8276H106V23.9075H103.56V25.2747H105.831V26.3546H103.56V27.9571H106V29.0457Z" fill="#222222"></path> <path d="M121.656 20.7402C121.656 21.3555 121.576 21.9046 121.417 22.3877C121.257 22.8708 121.027 23.2786 120.727 23.6113C120.426 23.944 120.061 24.1992 119.633 24.377C119.209 24.5501 118.728 24.6367 118.19 24.6367C117.689 24.6367 117.229 24.5501 116.81 24.377C116.395 24.1992 116.035 23.944 115.729 23.6113C115.429 23.2786 115.194 22.8708 115.025 22.3877C114.861 21.9046 114.779 21.3555 114.779 20.7402C114.779 19.9199 114.918 19.2227 115.196 18.6484C115.474 18.0697 115.871 17.6299 116.386 17.3291C116.905 17.0238 117.523 16.8711 118.238 16.8711C118.922 16.8711 119.519 17.0238 120.029 17.3291C120.544 17.6344 120.943 18.0765 121.226 18.6553C121.513 19.2295 121.656 19.9245 121.656 20.7402ZM115.955 20.7402C115.955 21.3418 116.035 21.8636 116.194 22.3057C116.354 22.7477 116.6 23.0895 116.933 23.3311C117.265 23.5726 117.694 23.6934 118.218 23.6934C118.737 23.6934 119.163 23.5726 119.496 23.3311C119.833 23.0895 120.082 22.7477 120.241 22.3057C120.401 21.8636 120.48 21.3418 120.48 20.7402C120.48 20.1432 120.401 19.6283 120.241 19.1953C120.082 18.7578 119.836 18.4206 119.503 18.1836C119.17 17.9466 118.74 17.8281 118.211 17.8281C117.432 17.8281 116.86 18.0856 116.495 18.6006C116.135 19.1156 115.955 19.8288 115.955 20.7402ZM126.619 24.6367C125.945 24.6367 125.35 24.4977 124.835 24.2197C124.32 23.9417 123.919 23.5179 123.632 22.9482C123.345 22.3786 123.201 21.6608 123.201 20.7949C123.201 19.888 123.352 19.1475 123.652 18.5732C123.958 17.9945 124.377 17.5661 124.91 17.2881C125.443 17.0101 126.049 16.8711 126.729 16.8711C127.102 16.8711 127.462 16.9098 127.809 16.9873C128.16 17.0602 128.447 17.1536 128.67 17.2676L128.328 18.2178C128.1 18.1266 127.836 18.0446 127.535 17.9717C127.239 17.8988 126.961 17.8623 126.701 17.8623C126.182 17.8623 125.749 17.974 125.402 18.1973C125.061 18.4206 124.803 18.7487 124.63 19.1816C124.461 19.6146 124.377 20.1478 124.377 20.7812C124.377 21.3874 124.459 21.9046 124.623 22.333C124.792 22.7614 125.04 23.0895 125.368 23.3174C125.701 23.5407 126.116 23.6523 126.612 23.6523C127.009 23.6523 127.367 23.6113 127.686 23.5293C128.005 23.4427 128.294 23.3424 128.554 23.2285V24.2402C128.303 24.3678 128.023 24.4658 127.713 24.5342C127.408 24.6025 127.043 24.6367 126.619 24.6367ZM131.473 17.0078V20.1523H135.649V17.0078H136.784V24.5H135.649V21.1162H131.473V24.5H130.331V17.0078H131.473ZM145.65 20.7402C145.65 21.3555 145.571 21.9046 145.411 22.3877C145.252 22.8708 145.021 23.2786 144.721 23.6113C144.42 23.944 144.055 24.1992 143.627 24.377C143.203 24.5501 142.722 24.6367 142.185 24.6367C141.683 24.6367 141.223 24.5501 140.804 24.377C140.389 24.1992 140.029 23.944 139.724 23.6113C139.423 23.2786 139.188 22.8708 139.02 22.3877C138.855 21.9046 138.773 21.3555 138.773 20.7402C138.773 19.9199 138.912 19.2227 139.19 18.6484C139.468 18.0697 139.865 17.6299 140.38 17.3291C140.899 17.0238 141.517 16.8711 142.232 16.8711C142.916 16.8711 143.513 17.0238 144.023 17.3291C144.538 17.6344 144.937 18.0765 145.22 18.6553C145.507 19.2295 145.65 19.9245 145.65 20.7402ZM139.949 20.7402C139.949 21.3418 140.029 21.8636 140.188 22.3057C140.348 22.7477 140.594 23.0895 140.927 23.3311C141.259 23.5726 141.688 23.6934 142.212 23.6934C142.731 23.6934 143.158 23.5726 143.49 23.3311C143.827 23.0895 144.076 22.7477 144.235 22.3057C144.395 21.8636 144.475 21.3418 144.475 20.7402C144.475 20.1432 144.395 19.6283 144.235 19.1953C144.076 18.7578 143.83 18.4206 143.497 18.1836C143.164 17.9466 142.734 17.8281 142.205 17.8281C141.426 17.8281 140.854 18.0856 140.489 18.6006C140.129 19.1156 139.949 19.8288 139.949 20.7402ZM153.566 18.8877C153.566 19.3571 153.43 19.724 153.156 19.9883C152.883 20.248 152.53 20.4235 152.097 20.5146V20.5693C152.566 20.6331 152.969 20.8018 153.307 21.0752C153.648 21.3441 153.819 21.7565 153.819 22.3125C153.819 22.7409 153.717 23.1191 153.512 23.4473C153.307 23.7754 152.985 24.0329 152.548 24.2197C152.11 24.4066 151.541 24.5 150.839 24.5H147.612V17.0078H150.812C151.349 17.0078 151.823 17.0693 152.233 17.1924C152.648 17.3109 152.974 17.5068 153.211 17.7803C153.448 18.0537 153.566 18.4229 153.566 18.8877ZM152.637 22.3125C152.637 21.8704 152.468 21.5514 152.131 21.3555C151.798 21.1595 151.313 21.0615 150.675 21.0615H148.754V23.5771H150.702C151.331 23.5771 151.81 23.4814 152.138 23.29C152.47 23.0941 152.637 22.7682 152.637 22.3125ZM152.411 19.0176C152.411 18.6621 152.281 18.3978 152.021 18.2246C151.762 18.0469 151.336 17.958 150.743 17.958H148.754V20.1113H150.545C151.16 20.1113 151.625 20.0225 151.939 19.8447C152.254 19.667 152.411 19.3913 152.411 19.0176ZM158.454 16.8848C159.347 16.8848 160.01 17.0853 160.443 17.4863C160.876 17.8874 161.093 18.5277 161.093 19.4072V24.5H160.266L160.047 23.3926H159.992C159.783 23.666 159.564 23.8962 159.336 24.083C159.108 24.2653 158.844 24.4043 158.543 24.5C158.247 24.5911 157.882 24.6367 157.449 24.6367C156.993 24.6367 156.588 24.557 156.232 24.3975C155.882 24.238 155.604 23.9964 155.398 23.6729C155.198 23.3493 155.098 22.9391 155.098 22.4424C155.098 21.695 155.394 21.1208 155.986 20.7197C156.579 20.3187 157.481 20.0999 158.693 20.0635L159.985 20.0088V19.5508C159.985 18.9036 159.846 18.4502 159.568 18.1904C159.29 17.9307 158.898 17.8008 158.393 17.8008C158.001 17.8008 157.627 17.8577 157.271 17.9717C156.916 18.0856 156.579 18.2201 156.26 18.375L155.911 17.5137C156.248 17.3405 156.636 17.1924 157.073 17.0693C157.511 16.9463 157.971 16.8848 158.454 16.8848ZM159.972 20.8086L158.83 20.8564C157.896 20.8929 157.237 21.0456 156.854 21.3145C156.472 21.5833 156.28 21.9639 156.28 22.4561C156.28 22.8844 156.41 23.2012 156.67 23.4062C156.93 23.6113 157.274 23.7139 157.702 23.7139C158.368 23.7139 158.912 23.5293 159.336 23.1602C159.76 22.791 159.972 22.2373 159.972 21.499V20.8086ZM168.537 17.9717H166.069V24.5H164.948V17.9717H162.515V17.0078H168.537V17.9717ZM172.905 16.8711C173.543 16.8711 174.09 17.0124 174.546 17.2949C175.002 17.5775 175.35 17.974 175.592 18.4844C175.833 18.9902 175.954 19.5827 175.954 20.2617V20.9658H170.779C170.793 21.8454 171.012 22.5153 171.436 22.9756C171.859 23.4359 172.456 23.666 173.227 23.666C173.701 23.666 174.12 23.6227 174.484 23.5361C174.849 23.4495 175.227 23.3219 175.619 23.1533V24.1514C175.241 24.32 174.865 24.443 174.491 24.5205C174.122 24.598 173.685 24.6367 173.179 24.6367C172.459 24.6367 171.83 24.4909 171.292 24.1992C170.759 23.903 170.344 23.4701 170.048 22.9004C169.752 22.3307 169.604 21.6335 169.604 20.8086C169.604 20.002 169.738 19.3047 170.007 18.7168C170.28 18.1243 170.663 17.6686 171.155 17.3496C171.652 17.0306 172.235 16.8711 172.905 16.8711ZM172.892 17.8008C172.285 17.8008 171.802 17.999 171.442 18.3955C171.082 18.792 170.868 19.3457 170.8 20.0566H174.765C174.76 19.61 174.689 19.2181 174.553 18.8809C174.421 18.5391 174.218 18.2747 173.944 18.0879C173.671 17.8965 173.32 17.8008 172.892 17.8008ZM183.501 24.5H182.346V17.958H180.069C179.978 19.1383 179.862 20.1501 179.721 20.9932C179.584 21.8317 179.411 22.5176 179.201 23.0508C178.996 23.5794 178.745 23.9691 178.449 24.2197C178.158 24.4658 177.809 24.5889 177.403 24.5889C177.28 24.5889 177.164 24.582 177.055 24.5684C176.945 24.5547 176.852 24.5319 176.774 24.5V23.6387C176.834 23.6569 176.895 23.6706 176.959 23.6797C177.027 23.6888 177.098 23.6934 177.171 23.6934C177.376 23.6934 177.563 23.609 177.731 23.4404C177.905 23.2673 178.06 23.0075 178.196 22.6611C178.338 22.3148 178.463 21.8773 178.572 21.3486C178.682 20.8154 178.777 20.1888 178.859 19.4688C178.946 18.7441 179.021 17.9238 179.085 17.0078H183.501V24.5ZM187.035 20.0977H189.332C189.97 20.0977 190.501 20.1774 190.925 20.3369C191.349 20.4964 191.665 20.7334 191.875 21.0479C192.089 21.3623 192.196 21.752 192.196 22.2168C192.196 22.6816 192.091 23.085 191.882 23.4268C191.677 23.7686 191.358 24.0329 190.925 24.2197C190.496 24.4066 189.943 24.5 189.264 24.5H185.894V17.0078H187.035V20.0977ZM191.055 22.2715C191.055 21.8112 190.891 21.4922 190.562 21.3145C190.239 21.1322 189.785 21.041 189.202 21.041H187.035V23.5771H189.209C189.756 23.5771 190.2 23.4769 190.542 23.2764C190.884 23.0713 191.055 22.7363 191.055 22.2715Z" fill="#555555"></path> </g> <defs> <clipPath id="clip0_3161_361"> <rect width="211" height="40" rx="20" fill="white"></rect> </clipPath> </defs> </svg> 