<?xml version="1.0" encoding="UTF-8"?> <svg xmlns="http://www.w3.org/2000/svg" width="52" height="52" viewBox="0 0 52 52" fill="none"> <path d="M0 33.755C0.102357 32.6034 0.175287 31.4366 0.31091 30.2825C1.02869 24.1654 2.63698 18.3387 6.02372 13.1108C7.68713 10.5148 9.83165 8.26083 12.3417 6.47037C13.5649 5.60162 14.8085 4.75845 16.0522 3.91784C16.2765 3.79339 16.5116 3.68934 16.7546 3.60693L16.8825 3.72592C16.7882 4.03459 16.6728 4.3364 16.5371 4.62923C15.3574 6.80432 14.1163 8.95765 12.9827 11.1622C10.9074 15.1989 9.34009 19.4237 8.47006 23.8941C8.44191 24.0413 8.42272 24.1884 8.39585 24.3611C9.19679 24.1986 9.95551 24.0093 10.7258 23.8916C16.2275 23.0497 21.9326 26.4121 23.8646 31.6298C25.9015 37.1315 24.1614 42.8353 19.4005 46.2617C14.1905 50.0118 6.47793 48.8206 2.61395 43.69C1.17711 41.781 0.31091 39.6635 0.0780474 37.285C0.0588078 37.1558 0.0327557 37.0276 0 36.9012V33.755Z" fill="#E7E5E5"></path> <path d="M35.5486 24.4326C37.0722 23.9232 38.6789 23.7091 40.2827 23.8019C43.4212 23.9951 46.1349 25.185 48.3011 27.433C51.5394 30.7941 52.6615 34.8334 51.4294 39.3397C50.1589 43.9841 47.0382 46.9192 42.3746 48.1245C36.5249 49.6381 30.1314 46.227 28.0203 40.5539C27.3217 38.6808 27.1387 36.75 27.1873 34.7784C27.2884 30.6432 27.8437 26.5706 28.9901 22.5915C30.3502 17.8664 32.3845 13.4843 35.7598 9.83267C36.6246 8.88512 37.5661 8.01042 38.5746 7.21744C40.0677 6.06593 41.6453 5.01805 43.1999 3.93818C43.4265 3.80528 43.6641 3.69185 43.91 3.59912L44.0532 3.70148C43.9509 4.00087 43.8882 4.32202 43.7385 4.5971C42.7341 6.44849 41.6734 8.27684 40.687 10.1397C38.5349 14.1944 36.8396 18.4268 35.8493 22.9229C35.7418 23.3963 35.6587 23.8735 35.5486 24.4326Z" fill="#E7E5E5"></path> </svg> 