<?xml version="1.0" encoding="UTF-8"?> <svg xmlns="http://www.w3.org/2000/svg" width="54" height="54" viewBox="0 0 54 54" fill="none"> <path fill-rule="evenodd" clip-rule="evenodd" d="M0 27C0 41.9117 12.0883 54 27 54C41.9117 54 54 41.9117 54 27C54 12.0883 41.9117 0 27 0C12.0883 0 0 12.0883 0 27ZM43.9454 25.9666C43.9418 34.8167 36.7424 42.0179 27.8904 42.0215H27.8838C25.1967 42.0206 22.5565 41.3464 20.2115 40.0673L11.7004 42.2999L13.9781 33.9804C12.5731 31.5455 11.8338 28.7836 11.835 25.9539C11.8386 17.1018 19.0409 9.8999 27.8902 9.8999C32.1852 9.90176 36.2162 11.5738 39.2474 14.6085C42.2786 17.6431 43.9471 21.6768 43.9454 25.9666Z" fill="white"></path> <path fill-rule="evenodd" clip-rule="evenodd" d="M15.5546 38.4856L20.6052 37.1607L21.0925 37.4499C23.1413 38.6657 25.4899 39.309 27.8844 39.31H27.8898C35.2448 39.31 41.231 33.3236 41.2339 25.9656C41.2353 22.3999 39.8486 19.0473 37.3292 16.5249C34.8098 14.0026 31.4593 12.6128 27.8951 12.6116C20.5344 12.6116 14.5481 18.5973 14.5452 25.9548C14.5441 28.4762 15.2496 30.9318 16.5854 33.0564L16.9027 33.5613L15.5546 38.4856ZM35.4291 29.4235C35.7089 29.5587 35.8978 29.65 35.9785 29.7847C36.0787 29.952 36.0787 30.7552 35.7446 31.6924C35.4102 32.6294 33.8076 33.4847 33.0367 33.5998C32.3456 33.7032 31.471 33.7463 30.5101 33.4408C29.9274 33.256 29.1802 33.0092 28.2231 32.5958C24.4623 30.9719 21.9208 27.3269 21.4404 26.638C21.4068 26.5897 21.3832 26.556 21.3701 26.5384L21.3669 26.5341C21.1546 26.2509 19.7321 24.3529 19.7321 22.3886C19.7321 20.5407 20.6398 19.5722 21.0576 19.1263C21.0862 19.0958 21.1125 19.0677 21.1361 19.0419C21.5038 18.6403 21.9384 18.5399 22.2059 18.5399C22.4733 18.5399 22.741 18.5424 22.9747 18.5541C23.0036 18.5556 23.0336 18.5554 23.0646 18.5552C23.2984 18.5538 23.5898 18.5521 23.8773 19.2428C23.9879 19.5085 24.1498 19.9025 24.3205 20.3181C24.6657 21.1585 25.0471 22.0871 25.1142 22.2214C25.2145 22.4222 25.2813 22.6564 25.1476 22.9243C25.1275 22.9644 25.109 23.0023 25.0912 23.0385C24.9908 23.2436 24.9169 23.3944 24.7465 23.5934C24.6794 23.6717 24.6102 23.7561 24.5409 23.8404C24.4029 24.0085 24.2649 24.1766 24.1447 24.2963C23.9439 24.4963 23.7348 24.7134 23.9688 25.115C24.2028 25.5166 25.0079 26.8302 26.2005 27.894C27.4825 29.0375 28.5967 29.5207 29.1614 29.7657C29.2717 29.8136 29.3611 29.8523 29.4266 29.8851C29.8276 30.086 30.0616 30.0524 30.2957 29.7847C30.5297 29.517 31.2985 28.6133 31.5659 28.2117C31.8333 27.8103 32.1008 27.8771 32.4684 28.011C32.8362 28.145 34.8085 29.1153 35.2097 29.3161C35.288 29.3553 35.3612 29.3907 35.4291 29.4235Z" fill="white"></path> </svg> 