<?xml version="1.0" encoding="UTF-8"?> <svg xmlns="http://www.w3.org/2000/svg" width="44" height="44" viewBox="0 0 44 44" fill="none"> <circle cx="22" cy="22" r="22" fill="#D3413F"></circle> <path d="M10 14.2077V13.5029C10.018 13.4285 10.0391 13.3556 10.0547 13.2812C10.1642 12.7276 10.4552 12.2265 10.8814 11.8576C11.3077 11.4887 11.8446 11.2731 12.407 11.2451C13.1102 11.2107 13.8133 11.2303 14.5164 11.2248H14.8148V10H29.2141V11.2146C29.3141 11.2193 29.3977 11.2263 29.4812 11.2263H31.3094C32.2875 11.2263 33.0828 11.5968 33.5953 12.4417C33.7883 12.7605 33.8688 13.1465 34 13.5044V14.2092C33.9703 14.4395 33.9359 14.6697 33.9117 14.9007C33.7328 16.6126 33.343 18.2681 32.593 19.8257C31.1297 22.8626 28.7695 24.7515 25.4367 25.3803C25.1859 25.4273 24.9344 25.4657 24.6688 25.5111C25.0148 26.71 25.357 27.8839 25.6844 29.0617C25.7313 29.2277 25.8406 29.2042 25.9531 29.2128C26.9984 29.2912 27.9391 30.1941 27.9844 31.2364C28.0273 32.1558 27.9938 33.0791 27.9938 34H16C16 33.1488 15.9914 32.2967 16.0055 31.4455C16.0122 30.8764 16.2327 30.3307 16.6229 29.9172C17.0131 29.5037 17.5444 29.2528 18.1109 29.2144C18.2594 29.2042 18.3078 29.1424 18.3453 29.0155C18.663 27.8972 18.9828 26.78 19.3047 25.6638C19.3155 25.6121 19.3228 25.5598 19.3266 25.5072C19.057 25.4617 18.8031 25.4218 18.5508 25.3756C16.1781 24.9371 14.207 23.8133 12.7016 21.915C11.2547 20.0896 10.5359 17.965 10.1898 15.6932C10.1133 15.1967 10.0625 14.7018 10 14.2077ZM17.3055 22.5259C15.6437 19.7701 15.2133 16.7308 14.9203 13.6375C14.1391 13.6375 13.3633 13.6375 12.5914 13.6375C12.4 13.6375 12.3914 13.7785 12.4094 13.9218C12.4977 14.6102 12.5539 15.3056 12.682 15.9869C12.9945 17.6737 13.5922 19.2478 14.7023 20.5884C15.4006 21.4362 16.2939 22.1011 17.3055 22.5259ZM26.7055 22.5212C26.8148 22.4726 26.8719 22.4475 26.9281 22.4209C28.6469 21.612 29.7828 20.2635 30.5375 18.5563C31.1922 17.0731 31.475 15.5021 31.5977 13.9007C31.6125 13.7088 31.5375 13.6297 31.3445 13.6313C30.65 13.636 29.9547 13.6313 29.2594 13.6313C29.2025 13.6344 29.1459 13.6409 29.0898 13.6509C28.7953 16.741 28.3648 19.7693 26.7055 22.5212Z" fill="white"></path> </svg> 