<?xml version="1.0" encoding="UTF-8"?> <svg xmlns="http://www.w3.org/2000/svg" width="162" height="167" viewBox="0 0 162 167" fill="none"> <g clip-path="url(#clip0_3393_16)"> <path d="M80.6406 39.645L101.675 63.7486L118.652 44.3011L80.6406 0.75L42.6738 44.2561L59.6511 63.7036L80.6406 39.645ZM80.6406 10.7657L109.64 43.9867L101.465 53.3586L80.6406 29.5096L59.8457 53.3287L51.6715 43.9567L80.6406 10.7657Z" fill="#3172B7"></path> <path d="M92.6616 76.7884L80.6697 63.0299L68.6479 76.8183L64.0068 71.5036L80.6697 52.4004L97.3176 71.4587L92.6616 76.7884Z" fill="#3172B7"></path> <path d="M0.0205078 115.394C2.62549 115.05 3.53873 111.696 3.53873 105.438V103.732H2.1015V101.86H11.159C12.1471 101.86 12.5513 102.28 12.5513 103.253V114.915C12.5513 115.215 12.731 115.394 13.0304 115.394H13.9736V117.266H11.7729C10.7848 117.266 10.3805 116.846 10.3805 115.873V104.211C10.3805 103.881 10.2009 103.732 9.90147 103.732H5.61972V105.453C5.61972 112.834 4.28727 117.146 0.0354707 117.385V115.394H0.0205078Z" fill="#3172B7"></path> <path d="M16.848 103.732H15.4258V101.86H24.5133C25.5013 101.86 25.9056 102.28 25.9056 103.253V105.199H23.8994V104.211C23.8994 103.881 23.7198 103.732 23.4204 103.732H19.0338V108.552H24.4534V110.424H19.0338V114.9C19.0338 115.2 19.2135 115.379 19.5129 115.379H24.0342C24.3336 115.379 24.5133 115.2 24.5133 114.9V113.912H26.5044V115.858C26.5044 116.846 26.0852 117.251 25.1121 117.251H18.2703C17.2822 117.251 16.848 116.831 16.848 115.858V103.732Z" fill="#3172B7"></path> <path d="M29.3344 103.732H27.9121V101.86H36.7301C37.7182 101.86 38.1224 102.28 38.1224 103.253V105.199H36.1312V104.211C36.1312 103.881 35.9516 103.732 35.6522 103.732H31.5052V117.281H29.3194V103.732H29.3344Z" fill="#3172B7"></path> <path d="M40.5463 103.732H39.124V101.86H48.2115C49.1996 101.86 49.6038 102.28 49.6038 103.253V105.199H47.5977V104.211C47.5977 103.881 47.4181 103.732 47.1186 103.732H42.7321V108.552H48.1516V110.424H42.7321V114.9C42.7321 115.2 42.9117 115.379 43.2112 115.379H47.7324C48.0318 115.379 48.2115 115.2 48.2115 114.9V113.912H50.2027V115.858C50.2027 116.846 49.7835 117.251 48.8104 117.251H41.9686C40.9805 117.251 40.5463 116.831 40.5463 115.858V103.732Z" fill="#3172B7"></path> <path d="M53.0492 104.211C53.0492 103.881 52.8696 103.732 52.5701 103.732H51.627V101.86H53.8277C54.8158 101.86 55.22 102.28 55.22 103.253V108.642H63.0649V103.253C63.0649 102.265 63.4841 101.86 64.4872 101.86H66.673V103.732H65.7298C65.4303 103.732 65.2507 103.881 65.2507 104.211V117.266H63.0649V110.499H55.22V117.266H53.0342V104.211H53.0492Z" fill="#3172B7"></path> <path d="M68.8132 115.394H69.1576C71.2984 112.385 71.538 108.388 71.538 105.019V103.732H70.1456V101.86H79.2032C80.1913 101.86 80.5955 102.28 80.5955 103.253V115.394H81.0746C82.0627 115.394 82.4519 115.769 82.4519 116.772V120.335H80.4458V117.76C80.4458 117.46 80.2961 117.281 79.9817 117.281H69.8911C69.5917 117.281 69.427 117.43 69.427 117.76V120.335H67.4209V116.772C67.4359 115.769 67.8401 115.394 68.8132 115.394ZM78.4546 115.394V104.211C78.4546 103.881 78.275 103.732 77.9756 103.732H73.6489V105.154C73.6489 108.523 73.2746 112.625 71.4481 115.394H78.4546Z" fill="#3172B7"></path> <path d="M83.2611 115.394H83.5605C83.9497 115.394 84.1444 115.304 84.2791 114.915L89.0998 101.86H91.3904L96.2111 114.915C96.3458 115.304 96.5405 115.394 96.9297 115.394H97.2292V117.266H96.0315C94.9386 117.266 94.5942 116.996 94.2199 115.993L93.0672 112.819H87.4081L86.2553 115.993C85.881 116.996 85.5367 117.266 84.4438 117.266H83.2461V115.394H83.2611ZM92.5581 111.008L90.8814 106.307C90.6119 105.498 90.2676 104.151 90.2676 104.151H90.2227C90.2227 104.151 89.8933 105.498 89.6388 106.307L87.962 111.008H92.5581Z" fill="#3172B7"></path> <path d="M99.519 103.732H98.0967V101.86H104.894C107.738 101.86 109.744 103.762 109.744 106.681C109.744 109.615 107.738 111.577 104.894 111.577H101.705V117.281H99.519V103.732ZM104.549 109.69C106.391 109.69 107.499 108.537 107.499 106.681C107.499 104.825 106.391 103.732 104.564 103.732H101.705V109.69H104.549Z" fill="#3172B7"></path> <path d="M112.32 104.211C112.32 103.881 112.14 103.732 111.841 103.732H110.897V101.86H113.098C114.086 101.86 114.491 102.28 114.491 103.253V108.642H122.335V103.253C122.335 102.265 122.755 101.86 123.758 101.86H125.943V103.732H125C124.701 103.732 124.521 103.881 124.521 104.211V117.266H122.335V110.499H114.491V117.266H112.305V104.211H112.32Z" fill="#3172B7"></path> <path d="M128.832 104.212C128.832 103.883 128.653 103.733 128.353 103.733H127.41V101.862H129.611C130.599 101.862 131.003 102.281 131.003 103.254V107.671H133.953C136.662 107.671 138.863 109.183 138.863 112.372C138.863 115.695 136.573 117.282 133.593 117.282H130.225C129.237 117.282 128.802 116.863 128.802 115.89V104.212H128.832ZM131.497 115.396H133.743C135.51 115.396 136.632 114.303 136.632 112.431C136.632 110.575 135.524 109.542 133.743 109.542H131.018V114.917C131.018 115.216 131.198 115.396 131.497 115.396ZM141.019 101.847H143.205V114.902C143.205 115.201 143.384 115.381 143.684 115.381H144.627V117.252H142.426C141.438 117.252 141.034 116.833 141.034 115.86V101.847H141.019Z" fill="#3172B7"></path> <path d="M147.532 104.212C147.532 103.882 147.352 103.733 147.053 103.733H146.109V101.861H148.31C149.298 101.861 149.702 102.28 149.702 103.253V111.712C149.702 112.58 149.568 113.913 149.568 113.913H149.613C149.613 113.913 150.436 112.521 150.99 111.682L157.712 101.846H159.853V114.901C159.853 115.2 160.033 115.38 160.332 115.38H161.275V117.251H159.089C158.086 117.251 157.667 116.832 157.667 115.859V107.385C157.667 106.532 157.802 105.14 157.802 105.14H157.757C157.757 105.14 156.993 106.562 156.439 107.385L149.673 117.251H147.517V104.212H147.532ZM150.391 98.3281V98.0137H152.098V98.3132C152.098 99.2713 152.861 99.7504 153.625 99.7504C154.388 99.7504 155.182 99.2713 155.182 98.2832V98.0137H156.859V98.3431C156.859 100.139 155.332 101.143 153.625 101.143C151.948 101.128 150.391 100.124 150.391 98.3281Z" fill="#3172B7"></path> <path d="M35.4418 127.297C35.4418 126.968 35.2621 126.818 34.9627 126.818H34.0195V124.947H36.2203C37.2084 124.947 37.6126 125.366 37.6126 126.339V131.429H39.0798C39.6487 131.429 40.0828 131.339 40.3523 130.905L43.7807 124.947H46.221L42.4932 131.339C42.059 132.103 41.6249 132.342 41.6249 132.342V132.387C41.6249 132.387 42.059 132.492 42.4932 133.345L44.8137 137.971C45.0383 138.436 45.3826 138.48 45.9066 138.48H46.3258V140.352H45.1281C43.9304 140.352 43.4663 140.202 42.9872 139.199L40.3224 133.854C40.0679 133.345 39.5738 133.285 38.945 133.285H37.6276V140.367H35.4418V127.297Z" fill="#3172B7"></path> <path d="M48.7817 126.818H47.3594V124.947H54.1114C56.7164 124.947 58.5877 126.384 58.5877 128.884C58.5877 130.561 57.6895 131.699 56.6714 132.208V132.252C58.2883 132.732 59.2016 134.259 59.2016 135.98C59.2016 138.885 56.9559 140.367 54.2461 140.367H50.2039C49.2158 140.367 48.7817 139.948 48.7817 138.974V126.818ZM54.1413 131.429C55.5187 131.429 56.387 130.441 56.387 129.094C56.387 127.746 55.5636 126.818 54.1114 126.818H50.9375V131.429H54.1413ZM51.4315 138.48H54.3808C55.9977 138.48 56.9858 137.432 56.9858 135.86C56.9858 134.289 55.9528 133.211 54.3808 133.211H50.9525V138.001C50.9525 138.316 51.1321 138.48 51.4315 138.48Z" fill="#3172B7"></path> <path d="M60.0404 138.48H60.3398C60.729 138.48 60.9237 138.391 61.0584 138.001L65.8791 124.947H68.1697L72.9904 138.001C73.1251 138.391 73.3198 138.48 73.709 138.48H74.0084V140.352H72.8107C71.7178 140.352 71.3735 140.082 70.9992 139.079L69.8465 135.905H64.1874L63.0346 139.079C62.6603 140.082 62.316 140.352 61.2231 140.352H60.0254V138.48H60.0404ZM69.3374 134.094L67.6607 129.393C67.3912 128.585 67.0469 127.237 67.0469 127.237H67.0019C67.0019 127.237 66.6726 128.585 66.4181 129.393L64.7413 134.094H69.3374Z" fill="#3172B7"></path> <path d="M76.3149 126.818H74.8926V124.947H81.6895C84.534 124.947 86.5401 126.848 86.5401 129.767C86.5401 132.687 84.534 134.663 81.6895 134.663H78.5006V140.367H76.3149V126.818ZM81.3302 132.791C83.1716 132.791 84.2795 131.639 84.2795 129.782C84.2795 127.926 83.1716 126.833 81.3452 126.833H78.4857V132.791H81.3302Z" fill="#3172B7"></path> <path d="M92.7509 126.818H89.6669C89.3375 126.818 89.1878 126.967 89.1878 127.297V128.285H87.2266V126.249C87.2266 125.261 87.5559 124.931 88.544 124.931H99.1586C100.147 124.931 100.476 125.261 100.476 126.249V128.285H98.5298V127.297C98.5298 126.967 98.3501 126.818 98.0507 126.818H94.9517V140.366H92.7659V126.818H92.7509Z" fill="#3172B7"></path> <path d="M99.3695 138.48H99.6689C100.058 138.48 100.253 138.391 100.388 138.001L105.208 124.947H107.499L112.319 138.001C112.454 138.391 112.649 138.48 113.038 138.48H113.338V140.352H112.14C111.047 140.352 110.703 140.082 110.328 139.079L109.176 135.905H103.516L102.364 139.079C101.989 140.082 101.645 140.352 100.552 140.352H99.3545V138.48H99.3695ZM108.682 134.094L107.005 129.393C106.735 128.585 106.391 127.237 106.391 127.237H106.346C106.346 127.237 106.017 128.585 105.762 129.393L104.085 134.094H108.682Z" fill="#3172B7"></path> <path d="M113.847 138.48C116.452 138.136 117.365 134.783 117.365 128.525V126.818H115.928V124.947H124.985C125.973 124.947 126.378 125.366 126.378 126.339V138.001C126.378 138.301 126.557 138.48 126.857 138.48H127.8V140.352H125.599C124.611 140.352 124.207 139.933 124.207 138.96V127.297C124.207 126.968 124.027 126.818 123.728 126.818H119.446V128.54C119.446 135.92 118.113 140.232 113.862 140.472V138.48H113.847Z" fill="#3172B7"></path> <path d="M24.0632 157.208V164.439H23.1499V160.981H19.7814V164.439H18.8682V157.208H19.7814V160.247H23.1499V157.208H24.0632Z" fill="#3172B7"></path> <path d="M28.6309 157.209L30.9814 164.44H29.9933L29.3345 162.344H26.7146L26.0558 164.44H25.2324L27.5829 157.209H28.6309ZM29.11 161.61L28.032 158.182L26.9691 161.61H29.11Z" fill="#3172B7"></path> <path d="M39.214 157.209V157.987H35.591V160.218H37.3875C37.8516 160.218 38.2409 160.263 38.5553 160.338C38.8547 160.412 39.1092 160.547 39.3188 160.727C39.5134 160.892 39.6631 161.116 39.7829 161.401C39.9026 161.685 39.9625 161.984 39.9625 162.299C39.9625 162.583 39.9176 162.868 39.8128 163.152C39.723 163.437 39.5733 163.676 39.3787 163.871C39.184 164.08 38.9744 164.23 38.7349 164.32C38.4954 164.41 38.2259 164.455 37.8965 164.455H34.6777V157.224H39.214V157.209ZM35.6059 160.996V163.676H37.7169C37.9564 163.676 38.151 163.646 38.2858 163.601C38.4355 163.541 38.5552 163.467 38.66 163.347C38.7648 163.227 38.8547 163.077 38.9145 162.898C38.9744 162.703 39.0044 162.523 39.0044 162.314C39.0044 162.104 38.9744 161.91 38.8996 161.745C38.8247 161.58 38.7349 161.445 38.6151 161.341C38.4804 161.236 38.3307 161.146 38.151 161.101C37.9714 161.041 37.7169 161.026 37.4025 161.026H35.6059V160.996Z" fill="#3172B7"></path> <path d="M44.0658 157.105C44.4401 157.105 44.7994 157.165 45.1288 157.299C45.4582 157.419 45.7426 157.614 46.0121 157.868C46.3265 158.183 46.581 158.587 46.7756 159.096C46.9553 159.605 47.0601 160.174 47.0601 160.832C47.0601 161.491 46.9702 162.06 46.7756 162.569C46.596 163.078 46.3415 163.482 46.0121 163.797C45.7576 164.051 45.4582 164.246 45.1288 164.366C44.7994 164.485 44.4551 164.545 44.0658 164.545C43.6916 164.545 43.3323 164.485 43.0029 164.366C42.6735 164.246 42.3741 164.051 42.1196 163.797C41.8052 163.482 41.5507 163.063 41.371 162.569C41.1914 162.06 41.1016 161.491 41.1016 160.832C41.1016 160.174 41.1914 159.605 41.371 159.096C41.5507 158.587 41.8052 158.183 42.1196 157.868C42.3741 157.614 42.6735 157.419 43.0029 157.299C43.3472 157.165 43.6916 157.105 44.0658 157.105ZM44.0808 157.883C43.7964 157.883 43.5419 157.943 43.3023 158.063C43.0628 158.183 42.8532 158.362 42.6735 158.602C42.4789 158.841 42.3292 159.156 42.2244 159.545C42.1196 159.919 42.0597 160.353 42.0597 160.832C42.0597 161.312 42.1196 161.746 42.2244 162.12C42.3292 162.494 42.4789 162.809 42.6735 163.063C42.8532 163.303 43.0628 163.482 43.3023 163.602C43.5419 163.722 43.7964 163.782 44.0808 163.782C44.3653 163.782 44.6198 163.722 44.8593 163.602C45.0988 163.482 45.3084 163.303 45.4881 163.063C45.6827 162.824 45.8175 162.509 45.9223 162.12C46.0271 161.746 46.072 161.312 46.072 160.832C46.072 160.353 46.0121 159.919 45.9223 159.545C45.8175 159.171 45.6677 158.856 45.4881 158.602C45.3084 158.362 45.0988 158.183 44.8593 158.063C44.6048 157.943 44.3503 157.883 44.0808 157.883Z" fill="#3172B7"></path> <path d="M47.763 157.209H52.7634V157.987H50.7123V164.44H49.7991V157.987H47.748V157.209H47.763Z" fill="#3172B7"></path> <path d="M56.3565 157.209L58.7069 164.44H57.7188L57.0601 162.344H54.4402L53.7814 164.44H52.958L55.3085 157.209H56.3565ZM56.8206 161.61L55.7426 158.182L54.6797 161.61H56.8206Z" fill="#3172B7"></path> <path d="M65.0104 157.209V164.44H64.0972V160.981H60.7287V164.44H59.8154V157.209H60.7287V160.248H64.0972V157.209H65.0104Z" fill="#3172B7"></path> <path d="M67.0023 157.209H67.9155V162.074C67.9155 162.134 67.9155 162.224 67.9005 162.374C67.9005 162.508 67.8856 162.643 67.8856 162.748C68.0054 162.508 68.0802 162.389 68.0952 162.359C68.1101 162.329 68.1251 162.299 68.1551 162.284L71.4038 157.718V157.224H72.317V164.455H71.4038V159.574C71.4038 159.484 71.4038 159.379 71.4038 159.23C71.4038 159.095 71.4188 158.945 71.4337 158.811C71.3738 158.915 71.3289 159.005 71.2691 159.095C71.2241 159.185 71.1792 159.245 71.1493 159.275L67.9005 163.811V164.44H66.9873V157.209H67.0023Z" fill="#3172B7"></path> <path d="M73.9922 157.209H74.9054V159.364C74.9054 159.724 74.9503 159.978 75.0551 160.143C75.1599 160.308 75.3096 160.412 75.5043 160.487C75.5941 160.517 75.6989 160.547 75.8187 160.547C75.9384 160.562 76.1181 160.562 76.3576 160.562C76.6271 160.562 76.9116 160.547 77.181 160.532C77.4505 160.502 77.7499 160.472 78.0494 160.427V157.209H78.9626V164.44H78.0494V161.206C77.7499 161.251 77.4505 161.281 77.1661 161.311C76.8816 161.341 76.6421 161.341 76.4475 161.341C76.0432 161.341 75.7139 161.311 75.4294 161.266C75.145 161.221 74.9054 161.131 74.7108 161.011C74.4713 160.862 74.2916 160.667 74.1718 160.427C74.0521 160.188 73.9922 159.888 73.9922 159.559V157.209Z" fill="#3172B7"></path> <path d="M80.9551 157.209H85.5362V157.987H81.8683V160.293H84.7727V161.026H81.8683V163.661H85.6411V164.44H80.9551V157.209Z" fill="#3172B7"></path> <path d="M92.2281 159.426L91.3748 159.575C91.3448 159.411 91.2849 159.246 91.225 159.081C91.1651 158.917 91.0903 158.767 91.0005 158.632C90.8208 158.378 90.6262 158.183 90.4016 158.063C90.177 157.943 89.9076 157.884 89.6081 157.884C89.2339 157.884 88.9195 157.958 88.665 158.123C88.3955 158.288 88.1859 158.527 88.0062 158.842C87.8865 159.066 87.7817 159.336 87.7068 159.65C87.632 159.965 87.602 160.339 87.602 160.758C87.602 161.147 87.632 161.492 87.6918 161.806C87.7517 162.12 87.8416 162.39 87.9464 162.614C88.126 162.989 88.3506 163.273 88.635 163.468C88.9195 163.662 89.2489 163.767 89.6231 163.767C89.8776 163.767 90.1022 163.722 90.2968 163.633C90.4915 163.543 90.6711 163.408 90.8358 163.228C90.9855 163.064 91.1053 162.884 91.2101 162.674C91.3149 162.465 91.3897 162.24 91.4346 162.001L92.258 162.18C92.1982 162.495 92.0934 162.779 91.9586 163.064C91.8239 163.348 91.6442 163.588 91.4496 163.812C91.225 164.052 90.9705 164.246 90.6861 164.366C90.4166 164.486 90.0723 164.561 89.668 164.561C89.1291 164.561 88.665 164.456 88.2907 164.246C87.9164 164.037 87.587 163.722 87.3176 163.318C87.093 162.974 86.9283 162.585 86.8086 162.135C86.6888 161.686 86.6289 161.207 86.6289 160.728C86.6289 160.159 86.7038 159.65 86.8535 159.201C87.0032 158.752 87.1978 158.378 87.4523 158.078C87.7218 157.764 88.0362 157.524 88.4105 157.36C88.7698 157.195 89.189 157.12 89.6381 157.12C90.0124 157.12 90.3417 157.165 90.6412 157.27C90.9256 157.375 91.1951 157.539 91.4197 157.764C91.6293 157.958 91.8089 158.213 91.9586 158.497C92.0784 158.782 92.1832 159.096 92.2281 159.426Z" fill="#3172B7"></path> <path d="M94.4891 160.308H95.4922C95.7766 160.308 96.0012 160.264 96.1808 160.174C96.3605 160.084 96.5102 159.949 96.63 159.755C96.7348 159.575 96.8545 159.246 96.9593 158.766C97.0641 158.287 97.154 157.973 97.2288 157.823C97.3336 157.599 97.4833 157.419 97.663 157.299C97.8426 157.18 98.0672 157.105 98.3367 157.105C98.3816 157.105 98.4415 157.105 98.5014 157.12C98.5612 157.12 98.6211 157.135 98.681 157.15V157.868C98.6361 157.853 98.5912 157.853 98.5463 157.853C98.5163 157.853 98.4714 157.853 98.4415 157.853C98.3666 157.853 98.2918 157.883 98.2319 157.928C98.157 157.973 98.0971 158.033 98.0522 158.093C97.9624 158.213 97.8726 158.482 97.7827 158.901C97.6929 159.32 97.633 159.59 97.5731 159.74C97.4833 159.979 97.3635 160.174 97.2138 160.308C97.0641 160.443 96.8845 160.548 96.6749 160.578V160.608C96.9144 160.638 97.139 160.728 97.3186 160.877C97.4983 161.027 97.648 161.222 97.7678 161.461C97.8426 161.626 97.9325 161.91 98.0223 162.3C98.1121 162.689 98.2169 163.033 98.3217 163.348C98.3816 163.527 98.4564 163.647 98.5313 163.707C98.6062 163.767 98.696 163.797 98.8008 163.797C98.8457 163.797 98.8906 163.797 98.9205 163.797C98.9505 163.797 98.9804 163.782 98.9954 163.782V164.47C98.9355 164.5 98.8607 164.53 98.8008 164.545C98.7259 164.56 98.6511 164.575 98.5463 164.575C98.3217 164.575 98.1421 164.53 97.9774 164.441C97.8277 164.351 97.6929 164.201 97.5731 164.006C97.5133 163.887 97.4534 163.752 97.3935 163.602C97.3336 163.452 97.2588 163.138 97.154 162.674C97.0641 162.315 97.0042 162.075 96.9743 161.955C96.9294 161.836 96.8995 161.731 96.8545 161.656C96.7348 161.446 96.585 161.297 96.3904 161.222C96.1958 161.132 95.8964 161.087 95.4922 161.087H94.5041V164.5H93.5908V157.269H94.5041V160.308H94.4891Z" fill="#3172B7"></path> <path d="M102.796 157.105C103.171 157.105 103.53 157.165 103.859 157.299C104.189 157.419 104.473 157.614 104.743 157.868C105.057 158.183 105.311 158.587 105.506 159.096C105.686 159.605 105.791 160.174 105.791 160.832C105.791 161.491 105.701 162.06 105.506 162.569C105.326 163.078 105.072 163.482 104.743 163.797C104.488 164.051 104.189 164.246 103.859 164.366C103.53 164.485 103.186 164.545 102.796 164.545C102.422 164.545 102.063 164.485 101.733 164.366C101.404 164.246 101.105 164.051 100.85 163.797C100.536 163.482 100.281 163.063 100.102 162.569C99.9219 162.06 99.832 161.491 99.832 160.832C99.832 160.174 99.9219 159.605 100.102 159.096C100.281 158.587 100.536 158.183 100.85 157.868C101.105 157.614 101.404 157.419 101.733 157.299C102.063 157.165 102.407 157.105 102.796 157.105ZM102.796 157.883C102.512 157.883 102.257 157.943 102.018 158.063C101.778 158.183 101.569 158.362 101.389 158.602C101.194 158.841 101.045 159.156 100.94 159.545C100.835 159.919 100.775 160.353 100.775 160.832C100.775 161.312 100.835 161.746 100.94 162.12C101.045 162.494 101.194 162.809 101.389 163.063C101.569 163.303 101.778 163.482 102.018 163.602C102.257 163.722 102.512 163.782 102.796 163.782C103.081 163.782 103.335 163.722 103.575 163.602C103.814 163.482 104.024 163.303 104.204 163.063C104.398 162.824 104.533 162.509 104.638 162.12C104.743 161.746 104.787 161.312 104.787 160.832C104.787 160.353 104.728 159.919 104.638 159.545C104.533 159.171 104.383 158.856 104.204 158.602C104.024 158.362 103.814 158.183 103.575 158.063C103.335 157.943 103.066 157.883 102.796 157.883Z" fill="#3172B7"></path> <path d="M108.635 157.209L110.806 163.017H110.821L112.977 157.209H114.31V164.44H113.396V158.122H113.381L111.061 164.44H110.447L108.067 158.122H108.052V164.44H107.288V157.209H108.635Z" fill="#3172B7"></path> <path d="M124.041 159.426L123.187 159.575C123.157 159.411 123.097 159.246 123.038 159.081C122.978 158.917 122.903 158.767 122.813 158.632C122.633 158.378 122.439 158.183 122.214 158.063C121.99 157.943 121.72 157.884 121.421 157.884C121.046 157.884 120.732 157.958 120.478 158.123C120.208 158.288 119.998 158.527 119.819 158.842C119.699 159.066 119.594 159.336 119.519 159.65C119.444 159.965 119.415 160.339 119.415 160.758C119.415 161.147 119.445 161.492 119.504 161.806C119.564 162.12 119.654 162.39 119.759 162.614C119.939 162.989 120.163 163.273 120.448 163.468C120.732 163.662 121.061 163.767 121.436 163.767C121.69 163.767 121.915 163.722 122.109 163.633C122.304 163.543 122.484 163.408 122.648 163.228C122.798 163.064 122.918 162.884 123.023 162.674C123.127 162.465 123.202 162.24 123.247 162.001L124.071 162.18C124.011 162.495 123.906 162.779 123.771 163.064C123.636 163.348 123.457 163.588 123.262 163.812C123.038 164.052 122.783 164.246 122.499 164.366C122.229 164.486 121.885 164.561 121.481 164.561C120.942 164.561 120.478 164.456 120.103 164.246C119.729 164.037 119.4 163.722 119.13 163.318C118.906 162.974 118.741 162.585 118.621 162.135C118.501 161.686 118.441 161.207 118.441 160.728C118.441 160.159 118.516 159.65 118.666 159.201C118.816 158.752 119.01 158.378 119.265 158.078C119.534 157.764 119.849 157.524 120.223 157.36C120.582 157.195 121.001 157.12 121.451 157.12C121.825 157.12 122.154 157.165 122.454 157.27C122.738 157.375 123.008 157.539 123.232 157.764C123.442 157.958 123.621 158.213 123.771 158.497C123.906 158.782 124.011 159.096 124.041 159.426Z" fill="#3172B7"></path> <path d="M127.979 157.209L130.329 164.44H129.341L128.682 162.344H126.062L125.404 164.44H124.58L126.931 157.209H127.979ZM128.458 161.61L127.38 158.182L126.317 161.61H128.458Z" fill="#3172B7"></path> <path d="M132.513 157.209H136.391V163.661H137.229V166.057H136.391V164.44H131.435V166.057H130.597V163.661H131.046C131.465 162.883 131.764 162.149 131.959 161.475C132.154 160.802 132.303 159.978 132.408 159.005C132.438 158.781 132.438 158.676 132.438 158.676C132.438 158.676 132.453 158.257 132.498 157.433L132.513 157.209ZM133.276 157.987L133.247 158.436C133.157 159.634 133.022 160.622 132.827 161.401C132.633 162.179 132.348 162.943 131.959 163.676H135.492V158.002H133.276V157.987Z" fill="#3172B7"></path> <path d="M137.694 157.209H138.638L140.704 161.565H140.718L142.41 157.209H143.219L141.063 162.553C140.853 163.077 140.689 163.422 140.584 163.616C140.464 163.796 140.344 163.961 140.194 164.095C140.03 164.245 139.85 164.35 139.641 164.425C139.431 164.5 139.221 164.53 139.027 164.53C138.937 164.53 138.862 164.53 138.772 164.515C138.697 164.5 138.608 164.485 138.533 164.455V163.691C138.593 163.721 138.667 163.736 138.727 163.751C138.787 163.766 138.862 163.766 138.937 163.766C139.087 163.766 139.236 163.736 139.386 163.691C139.536 163.646 139.656 163.571 139.76 163.467C139.865 163.377 139.955 163.242 140.045 163.077C140.135 162.913 140.209 162.733 140.254 162.568L137.694 157.209Z" fill="#3172B7"></path> </g> <defs> <clipPath id="clip0_3393_16"> <rect width="162" height="167" fill="white"></rect> </clipPath> </defs> </svg> 