<?xml version="1.0" encoding="UTF-8"?> <svg xmlns="http://www.w3.org/2000/svg" width="72" height="72" viewBox="0 0 72 72" fill="none"> <path d="M0.499997 36C0.499995 16.3939 16.3939 0.500012 36 0.500011C55.6061 0.500009 71.5 16.3939 71.5 36C71.5 55.6061 55.6061 71.5 36 71.5C16.3939 71.5 0.499999 55.6061 0.499997 36Z" stroke="#D3413F"></path> <g clip-path="url(#clip0_3161_608)"> <path d="M26.6303 36.8272L45.4135 36.8271C45.8712 36.8271 46.2422 36.4565 46.2422 35.9999C46.2422 35.5432 45.8712 35.1726 45.4135 35.1726L26.6303 35.1726C26.1726 35.1726 25.8016 35.5429 25.8016 35.9999C25.8016 36.4568 26.1725 36.8272 26.6303 36.8272Z" fill="#D3413F"></path> <path d="M25.8788 36.585L33.9995 44.6924C34.3233 45.0153 34.8475 45.0153 35.1713 44.6924C35.495 44.3692 35.495 43.8452 35.1713 43.5223L27.6364 35.9999L35.1713 28.4774C35.495 28.1545 35.495 27.6305 35.1713 27.3076C35.0094 27.146 34.7975 27.0652 34.5854 27.0652C34.3732 27.0652 34.1614 27.146 33.9995 27.3076L25.8788 35.4149C25.5551 35.7381 25.5551 36.2621 25.8788 36.585Z" fill="#D3413F"></path> </g> <defs> <clipPath id="clip0_3161_608"> <rect width="20.6061" height="20.5714" fill="white" transform="translate(46.2422 46.2852) rotate(180)"></rect> </clipPath> </defs> </svg> 