<?xml version="1.0" encoding="UTF-8"?> <svg xmlns="http://www.w3.org/2000/svg" width="100" height="100" viewBox="0 0 100 100" fill="none"> <circle cx="50" cy="50" r="50" fill="#D3413F"></circle> <path d="M33.3618 27.5C33.3618 27.2239 33.5857 27 33.8618 27H69.7286C70.0048 27 70.2286 27.2239 70.2286 27.5V77.8503H74.5C74.7761 77.8503 75 78.0742 75 78.3503V79.5C75 79.7761 74.7761 80 74.5 80H27.5C27.2239 80 27 79.7761 27 79.5V78.4833C27 78.2071 27.2239 77.9833 27.5 77.9833H33.3618V27.5ZM45.5423 72.0618C45.2664 72.0621 45.0429 72.2858 45.0429 72.5617V77.306C45.0429 77.5821 45.2668 77.806 45.5429 77.806H56.5143C56.7904 77.806 57.0143 77.5821 57.0143 77.306V72.5482C57.0143 72.2718 56.7901 72.0479 56.5137 72.0482L45.5423 72.0618ZM37.3412 31.4361C37.0651 31.4361 36.8412 31.6599 36.8412 31.9361V35.1394C36.8412 35.4156 37.0651 35.6394 37.3412 35.6394H41.0063C41.2824 35.6394 41.5063 35.4156 41.5063 35.1394V31.9361C41.5063 31.6599 41.2824 31.4361 41.0063 31.4361H37.3412ZM45.5192 31.3852C45.2427 31.3847 45.0184 31.6087 45.0184 31.8852V35.1542C45.0184 35.4303 45.2423 35.6542 45.5184 35.6542H49.1426C49.4187 35.6542 49.6426 35.4303 49.6426 35.1542V31.8909C49.6426 31.6151 49.4192 31.3914 49.1434 31.3909L45.5192 31.3852ZM58.6968 31.9602C58.6979 31.6833 58.4737 31.4582 58.1968 31.4582H54.5092C54.233 31.4582 54.0092 31.6821 54.0092 31.9582V35.1468C54.0092 35.4229 54.233 35.6468 54.5092 35.6468H58.1844C58.4598 35.6468 58.6833 35.4241 58.6844 35.1488L58.6968 31.9602ZM62.1681 35.1672C62.1692 35.4426 62.3927 35.6653 62.6681 35.6653H66.3228C66.599 35.6653 66.8228 35.4414 66.8228 35.1653V31.9398C66.8228 31.6636 66.599 31.4398 66.3228 31.4398H62.6556C62.3787 31.4398 62.1545 31.6648 62.1556 31.9417L62.1681 35.1672ZM36.8169 43.2952C36.8191 43.5698 37.0423 43.7913 37.3169 43.7913H40.9736C41.2497 43.7913 41.4736 43.5674 41.4736 43.2913V40.0768C41.4736 39.8007 41.2497 39.5768 40.9736 39.5768H37.292C37.0143 39.5768 36.7898 39.8031 36.792 40.0807L36.8169 43.2952ZM44.9946 43.3316C44.9965 43.6064 45.2198 43.8282 45.4946 43.8282H49.163C49.4392 43.8282 49.663 43.6044 49.663 43.3282V40.1064C49.663 39.8302 49.4392 39.6064 49.163 39.6064H45.4727C45.1953 39.6064 44.9709 39.8323 44.9727 40.1098L44.9946 43.3316ZM53.9404 43.2762C53.9423 43.551 54.1656 43.7728 54.4404 43.7728H58.1702C58.4463 43.7728 58.6702 43.5489 58.6702 43.2728V40.1175C58.6702 39.8413 58.4463 39.6175 58.1702 39.6175H54.4186C54.1411 39.6175 53.9167 39.8434 53.9186 40.1209L53.9404 43.2762ZM62.7257 39.5679C62.4501 39.5687 62.2272 39.7923 62.2272 40.0679V43.2728C62.2272 43.5489 62.4511 43.7728 62.7272 43.7728H66.376C66.6521 43.7728 66.876 43.5489 66.876 43.2728V40.0563C66.876 39.7795 66.6511 39.5554 66.3744 39.5563L62.7257 39.5679ZM37.3445 47.6947C37.0687 47.6951 36.8453 47.9188 36.8453 48.1947V51.4247C36.8453 51.7008 37.0692 51.9247 37.3453 51.9247H40.9859C41.262 51.9247 41.4859 51.7008 41.4859 51.4247V48.1889C41.4859 47.9124 41.2615 47.6884 40.9851 47.6889L37.3445 47.6947ZM44.9823 51.4059C44.9842 51.6807 45.2075 51.9025 45.4823 51.9025H49.2121C49.4882 51.9025 49.7121 51.6786 49.7121 51.4025V48.2102C49.7121 47.9341 49.4882 47.7102 49.2121 47.7102H45.4605C45.183 47.7102 44.9586 47.9362 44.9605 48.2136L44.9823 51.4059ZM53.9786 51.4488C53.9797 51.7241 54.2033 51.9468 54.4786 51.9468H58.1579C58.4341 51.9468 58.6579 51.723 58.6579 51.4468V48.2324C58.6579 47.9562 58.4341 47.7324 58.1579 47.7324H54.4662C54.1893 47.7324 53.9651 47.9574 53.9662 48.2343L53.9786 51.4488ZM66.36 51.9472C66.636 51.947 66.8596 51.7232 66.8596 51.4472V48.2213C66.8596 47.9452 66.6358 47.7213 66.3596 47.7213H62.7027C62.4266 47.7213 62.2027 47.9452 62.2027 48.2213V51.4501C62.2027 51.7264 62.4268 51.9503 62.7031 51.9501L66.36 51.9472ZM36.7534 58.8102C36.7545 59.0856 36.978 59.3082 37.2534 59.3082H40.9818C41.2579 59.3082 41.4818 59.0844 41.4818 58.8082V55.6344C41.4818 55.3583 41.2579 55.1344 40.9818 55.1344H37.241C36.9641 55.1344 36.7399 55.3595 36.741 55.6364L36.7534 58.8102ZM44.9837 58.8102C44.9848 59.0856 45.2084 59.3082 45.4837 59.3082H49.163C49.4392 59.3082 49.663 59.0844 49.663 58.8082V55.6197C49.663 55.3435 49.4392 55.1197 49.163 55.1197H45.4713C45.1944 55.1197 44.9702 55.3447 44.9713 55.6216L44.9837 58.8102ZM58.7009 55.5773C58.702 55.3004 58.4778 55.0753 58.2009 55.0753H54.5051C54.229 55.0753 54.0051 55.2992 54.0051 55.5753V58.7676C54.0051 59.0438 54.229 59.2676 54.5051 59.2676H58.1885C58.4639 59.2676 58.6874 59.0449 58.6885 58.7696L58.7009 55.5773ZM66.382 59.3213C66.6574 59.3202 66.8801 59.0967 66.8801 58.8213V55.6086C66.8801 55.3324 66.6562 55.1086 66.3801 55.1086H62.7027C62.4266 55.1086 62.2027 55.3324 62.2027 55.6086V58.8358C62.2027 59.1127 62.4278 59.3369 62.7047 59.3358L66.382 59.3213ZM37.3555 63.1849C37.0786 63.1838 36.8535 63.4079 36.8535 63.6849V66.9121C36.8535 67.1882 37.0773 67.4121 37.3535 67.4121H40.994C41.2702 67.4121 41.494 67.1882 41.494 66.9121V63.6994C41.494 63.424 41.2714 63.2005 40.996 63.1994L37.3555 63.1849ZM44.9977 66.9017C45.0001 67.1761 45.2232 67.3973 45.4977 67.3973H49.1548C49.431 67.3973 49.6548 67.1735 49.6548 66.8973V63.7161C49.6548 63.44 49.431 63.2161 49.1548 63.2161H45.4697C45.1918 63.2161 44.9672 63.4427 44.9697 63.7205L44.9977 66.9017ZM58.1517 67.4953C58.4271 67.4942 58.6497 67.2707 58.6497 66.9953V63.742C58.6497 63.4658 58.4259 63.242 58.1497 63.242H54.5296C54.2535 63.242 54.0296 63.4658 54.0296 63.742V67.0098C54.0296 67.2867 54.2547 67.5109 54.5316 67.5098L58.1517 67.4953ZM66.382 67.4473C66.6574 67.4462 66.8801 67.2227 66.8801 66.9473V63.7346C66.8801 63.4584 66.6562 63.2346 66.3801 63.2346H62.7027C62.4266 63.2346 62.2027 63.4584 62.2027 63.7346V66.9618C62.2027 67.2387 62.4278 67.4629 62.7047 67.4618L66.382 67.4473Z" fill="white"></path> <path d="M67 25.5C67 25.7761 66.7761 26 66.5 26H36.5C36.2239 26 36 25.7761 36 25.5V23.5C36 23.2239 36.2239 23 36.5 23H66.5C66.7761 23 67 23.2239 67 23.5V25.5Z" fill="white"></path> <path d="M42.5 22C42.2239 22 42 21.7761 42 21.5V20.5C42 20.2239 42.2239 20 42.5 20H59.5C59.7761 20 60 20.2239 60 20.5V21.5C60 21.7761 59.7761 22 59.5 22H42.5Z" fill="white"></path> </svg> 