<?xml version="1.0" encoding="UTF-8"?> <svg xmlns="http://www.w3.org/2000/svg" width="44" height="44" viewBox="0 0 44 44" fill="none"> <circle cx="22" cy="22" r="22" fill="#D3413F"></circle> <path d="M25.9 25.9569C25.5502 26.3779 25.1142 26.7189 24.6213 26.9569C24.5882 26.715 24.565 26.5013 24.5275 26.2894C24.4113 25.6344 24.1319 25.0469 23.7775 24.49C23.5813 24.1813 23.3838 23.8713 23.215 23.5469C22.9088 22.955 22.9519 22.3425 23.1632 21.7312C23.2032 21.6163 23.245 21.5031 23.3119 21.3181C23.0544 21.4463 22.8507 21.5344 22.6607 21.645C20.9107 22.6631 19.9194 24.2075 19.5488 26.1731C19.4638 26.6231 19.4407 27.085 19.4038 27.5431C19.3794 27.8444 19.1607 28.0225 18.8994 27.8706C18.6382 27.7188 18.4225 27.4838 18.1932 27.2781C18.1177 27.1959 18.0488 27.1079 17.9869 27.015C17.9457 27.2094 17.9088 27.3606 17.8813 27.515C17.6775 28.64 17.6238 29.765 17.9438 30.8744C18.3913 32.42 19.395 33.4175 20.9394 33.87C21.0027 33.8849 21.0615 33.915 21.1107 33.9575C20.9569 33.94 20.8025 33.9263 20.6494 33.9031C20.4963 33.88 20.3269 33.8494 20.1669 33.815C17.9219 33.3369 15.9613 32.3487 14.4919 30.5412C13.005 28.7131 12.575 26.6112 13.0144 24.3194C13.4075 22.2688 14.3925 20.4938 15.6119 18.8319C15.6291 18.8163 15.648 18.8027 15.6682 18.7912C16.3157 19.6037 17.14 20.1988 18.0394 20.6594C18.1582 20.0113 18.2469 19.3706 18.3969 18.745C18.6257 17.7887 19.0769 16.925 19.6019 16.0988C19.89 15.645 20.1782 15.1913 20.4607 14.7338C21.2257 13.4925 21.3088 12.1869 20.8232 10.8287C20.7788 10.7037 20.7363 10.5787 20.6888 10.4537C20.6413 10.3287 20.5963 10.2263 20.5257 10.055C20.6888 10.1175 20.8038 10.1488 20.9107 10.1988C23.5044 11.4038 25.3844 13.3275 26.605 15.9C27.4882 17.7606 27.8607 19.7406 27.9144 21.7881C27.9275 22.2881 28.28 22.5794 28.7657 22.4369C28.9985 22.3736 29.2135 22.2572 29.3938 22.0969C29.7575 21.7481 30.0813 21.3569 30.4194 20.9812C30.4707 20.925 30.5125 20.8606 30.5988 20.7481C30.6919 21.2337 30.7863 21.6638 30.8544 22.0975C31.0532 23.3475 31.1513 24.605 31.0494 25.8725C30.9088 27.6225 30.4507 29.2631 29.4057 30.6981C28.1507 32.4212 26.4263 33.3994 24.3594 33.8137C24.2662 33.8368 24.1696 33.8426 24.0744 33.8306C24.1288 33.8081 24.1832 33.7844 24.2382 33.7644C25.1569 33.4275 25.9588 32.92 26.5613 32.1394C27.2657 31.2237 27.4988 30.1869 27.3169 29.0525C27.1375 27.895 26.5925 26.9088 25.9 25.9569Z" fill="white"></path> </svg> 