<?xml version="1.0" encoding="UTF-8"?> <svg xmlns="http://www.w3.org/2000/svg" width="320" height="96" viewBox="0 0 320 96" fill="none"> <path d="M0 8C0 3.58172 3.58172 0 8 0H312C316.418 0 320 3.58172 320 8V88C320 92.4183 316.418 96 312 96H7.99999C3.58171 96 0 92.4183 0 88V8Z" fill="white"></path> <path d="M26.8262 42H24.4727V29.7148H20.293V27.7227H30.9961V29.7148H26.8262V42ZM45.8594 34.8418C45.8594 35.9421 45.7194 36.9447 45.4395 37.8496C45.166 38.748 44.7526 39.5228 44.1992 40.1738C43.6458 40.8184 42.9525 41.3164 42.1191 41.668C41.2858 42.0195 40.3092 42.1953 39.1895 42.1953C38.0501 42.1953 37.0605 42.0195 36.2207 41.668C35.3874 41.3164 34.694 40.8151 34.1406 40.1641C33.5938 39.513 33.1836 38.735 32.9102 37.8301C32.6367 36.9251 32.5 35.9225 32.5 34.8223C32.5 33.3509 32.7409 32.0684 33.2227 30.9746C33.7109 29.8743 34.4499 29.0215 35.4395 28.416C36.4355 27.804 37.6921 27.498 39.209 27.498C40.6934 27.498 41.9271 27.8008 42.9102 28.4062C43.8932 29.0117 44.6289 29.8646 45.1172 30.9648C45.612 32.0586 45.8594 33.3509 45.8594 34.8418ZM34.9609 34.8418C34.9609 35.9421 35.1107 36.8958 35.4102 37.7031C35.7096 38.5039 36.1686 39.1224 36.7871 39.5586C37.4121 39.9883 38.2129 40.2031 39.1895 40.2031C40.1725 40.2031 40.9733 39.9883 41.5918 39.5586C42.2103 39.1224 42.666 38.5039 42.959 37.7031C43.252 36.8958 43.3984 35.9421 43.3984 34.8418C43.3984 33.1686 43.0632 31.86 42.3926 30.916C41.7285 29.9655 40.6673 29.4902 39.209 29.4902C38.2324 29.4902 37.4284 29.7051 36.7969 30.1348C36.1719 30.5645 35.7096 31.1797 35.4102 31.9805C35.1107 32.7747 34.9609 33.7285 34.9609 34.8418ZM48.9258 42V27.7227H59.8926V42H57.5684V29.7148H51.2695V42H48.9258ZM62.5 37.6055V35.6621H67.5391V37.6055H62.5ZM73.9941 33.0742C74.9121 33.0742 75.7194 33.2402 76.416 33.5723C77.1191 33.8978 77.666 34.3796 78.0566 35.0176C78.4473 35.6491 78.6426 36.4238 78.6426 37.3418C78.6426 38.3444 78.431 39.2103 78.0078 39.9395C77.5846 40.6621 76.9629 41.2188 76.1426 41.6094C75.3223 42 74.3229 42.1953 73.1445 42.1953C72.3958 42.1953 71.696 42.1302 71.0449 42C70.4004 41.8698 69.8438 41.6745 69.375 41.4141V39.3438C69.8633 39.6172 70.4492 39.8418 71.1328 40.0176C71.8164 40.1868 72.4707 40.2715 73.0957 40.2715C73.7598 40.2715 74.3294 40.1738 74.8047 39.9785C75.2799 39.7832 75.6445 39.4837 75.8984 39.0801C76.1589 38.6764 76.2891 38.1654 76.2891 37.5469C76.2891 36.7266 76.0254 36.0951 75.498 35.6523C74.9772 35.2031 74.1602 34.9785 73.0469 34.9785C72.6562 34.9785 72.2396 35.0143 71.7969 35.0859C71.3607 35.151 70.9961 35.2227 70.7031 35.3008L69.6973 34.7051L70.2344 27.7227H77.6562V29.7441H72.2559L71.9434 33.2988C72.1777 33.2467 72.4577 33.1979 72.7832 33.1523C73.1087 33.1003 73.5124 33.0742 73.9941 33.0742ZM95.9668 31.1895V42H93.6523V33.0059H88.8281V42H86.5234V31.1895H95.9668ZM104.805 30.9844C106.087 30.9844 107.116 31.4531 107.891 32.3906C108.672 33.3281 109.062 34.7214 109.062 36.5703C109.062 37.7943 108.88 38.8262 108.516 39.666C108.158 40.4993 107.653 41.1309 107.002 41.5605C106.357 41.9837 105.605 42.1953 104.746 42.1953C104.199 42.1953 103.724 42.1237 103.32 41.9805C102.917 41.8372 102.572 41.6517 102.285 41.4238C101.999 41.1895 101.758 40.9355 101.562 40.6621H101.426C101.458 40.9225 101.488 41.2122 101.514 41.5312C101.546 41.8438 101.562 42.1302 101.562 42.3906V46.7949H99.2578V31.1895H101.133L101.455 32.6836H101.562C101.764 32.3776 102.008 32.0944 102.295 31.834C102.588 31.5736 102.939 31.3685 103.35 31.2188C103.766 31.0625 104.251 30.9844 104.805 30.9844ZM104.189 32.8594C103.558 32.8594 103.05 32.9863 102.666 33.2402C102.288 33.4876 102.012 33.862 101.836 34.3633C101.667 34.8646 101.576 35.4928 101.562 36.248V36.5703C101.562 37.3711 101.644 38.0514 101.807 38.6113C101.976 39.1647 102.253 39.5879 102.637 39.8809C103.027 40.1673 103.555 40.3105 104.219 40.3105C104.779 40.3105 105.241 40.1576 105.605 39.8516C105.977 39.5456 106.253 39.1094 106.436 38.543C106.618 37.9766 106.709 37.3092 106.709 36.541C106.709 35.3757 106.501 34.4707 106.084 33.8262C105.674 33.1816 105.042 32.8594 104.189 32.8594ZM121.289 36.5703C121.289 37.4688 121.172 38.2663 120.938 38.9629C120.703 39.6595 120.361 40.2487 119.912 40.7305C119.463 41.2057 118.923 41.5703 118.291 41.8242C117.66 42.0716 116.947 42.1953 116.152 42.1953C115.41 42.1953 114.73 42.0716 114.111 41.8242C113.493 41.5703 112.956 41.2057 112.5 40.7305C112.051 40.2487 111.702 39.6595 111.455 38.9629C111.208 38.2663 111.084 37.4688 111.084 36.5703C111.084 35.3789 111.289 34.3698 111.699 33.543C112.116 32.7096 112.708 32.0749 113.477 31.6387C114.245 31.2025 115.16 30.9844 116.221 30.9844C117.217 30.9844 118.096 31.2025 118.857 31.6387C119.619 32.0749 120.215 32.7096 120.645 33.543C121.074 34.3763 121.289 35.3854 121.289 36.5703ZM113.447 36.5703C113.447 37.3581 113.542 38.0319 113.73 38.5918C113.926 39.1517 114.225 39.5814 114.629 39.8809C115.033 40.1738 115.553 40.3203 116.191 40.3203C116.829 40.3203 117.35 40.1738 117.754 39.8809C118.158 39.5814 118.454 39.1517 118.643 38.5918C118.831 38.0319 118.926 37.3581 118.926 36.5703C118.926 35.7826 118.831 35.1152 118.643 34.5684C118.454 34.015 118.158 33.5951 117.754 33.3086C117.35 33.0156 116.826 32.8691 116.182 32.8691C115.231 32.8691 114.538 33.1882 114.102 33.8262C113.665 34.4642 113.447 35.3789 113.447 36.5703ZM123.311 35.5156C123.311 33.9466 123.483 32.612 123.828 31.5117C124.173 30.4115 124.717 29.5293 125.459 28.8652C126.201 28.2012 127.165 27.7487 128.35 27.5078C129.118 27.332 129.899 27.1823 130.693 27.0586C131.488 26.9349 132.282 26.8145 133.076 26.6973L133.389 28.7188C133.018 28.7643 132.62 28.8197 132.197 28.8848C131.774 28.9434 131.348 29.0052 130.918 29.0703C130.495 29.1354 130.088 29.2038 129.697 29.2754C129.313 29.3405 128.968 29.4056 128.662 29.4707C128.05 29.6009 127.533 29.8158 127.109 30.1152C126.693 30.4082 126.367 30.8379 126.133 31.4043C125.898 31.9707 125.758 32.7259 125.713 33.6699H125.84C126.016 33.403 126.26 33.1361 126.572 32.8691C126.885 32.6022 127.262 32.3809 127.705 32.2051C128.154 32.0228 128.665 31.9316 129.238 31.9316C130.137 31.9316 130.898 32.1204 131.523 32.498C132.155 32.8757 132.633 33.4225 132.959 34.1387C133.291 34.8548 133.457 35.7174 133.457 36.7266C133.457 37.931 133.242 38.9401 132.812 39.7539C132.389 40.5612 131.797 41.1699 131.035 41.5801C130.273 41.9902 129.385 42.1953 128.369 42.1953C127.588 42.1953 126.885 42.0488 126.26 41.7559C125.641 41.4629 125.111 41.0332 124.668 40.4668C124.232 39.8939 123.896 39.194 123.662 38.3672C123.428 37.5339 123.311 36.5833 123.311 35.5156ZM128.525 40.3105C129.046 40.3105 129.495 40.1999 129.873 39.9785C130.257 39.7572 130.553 39.3991 130.762 38.9043C130.977 38.4095 131.084 37.7552 131.084 36.9414C131.084 35.9388 130.902 35.151 130.537 34.5781C130.179 33.9987 129.587 33.709 128.76 33.709C128.252 33.709 127.786 33.8229 127.363 34.0508C126.94 34.2786 126.582 34.5456 126.289 34.8516C125.996 35.151 125.788 35.4147 125.664 35.6426C125.664 36.235 125.706 36.8079 125.791 37.3613C125.882 37.9147 126.032 38.416 126.24 38.8652C126.455 39.3079 126.748 39.6595 127.119 39.9199C127.49 40.1803 127.959 40.3105 128.525 40.3105ZM144.99 42H142.676V32.9863H139.678C139.548 34.627 139.385 36.0299 139.189 37.1953C138.994 38.3607 138.75 39.3112 138.457 40.0469C138.164 40.776 137.803 41.3099 137.373 41.6484C136.943 41.987 136.426 42.1562 135.82 42.1562C135.553 42.1562 135.312 42.1367 135.098 42.0977C134.883 42.0651 134.691 42.013 134.521 41.9414V40.1348C134.632 40.1738 134.753 40.2064 134.883 40.2324C135.013 40.2585 135.146 40.2715 135.283 40.2715C135.524 40.2715 135.745 40.1738 135.947 39.9785C136.156 39.7767 136.348 39.4609 136.523 39.0312C136.699 38.6016 136.859 38.0352 137.002 37.332C137.145 36.6224 137.275 35.763 137.393 34.7539C137.51 33.7383 137.614 32.5501 137.705 31.1895H144.99V42ZM152.588 30.9844C153.551 30.9844 154.378 31.1829 155.068 31.5801C155.758 31.9772 156.289 32.5404 156.66 33.2695C157.031 33.9987 157.217 34.8711 157.217 35.8867V37.1172H150C150.026 38.1654 150.306 38.9727 150.84 39.5391C151.38 40.1055 152.135 40.3887 153.105 40.3887C153.796 40.3887 154.414 40.3236 154.961 40.1934C155.514 40.0566 156.084 39.8581 156.67 39.5977V41.4629C156.13 41.7168 155.579 41.9023 155.02 42.0195C154.46 42.1367 153.789 42.1953 153.008 42.1953C151.947 42.1953 151.012 41.9902 150.205 41.5801C149.404 41.1634 148.776 40.5449 148.32 39.7246C147.871 38.9043 147.646 37.8854 147.646 36.668C147.646 35.457 147.852 34.4284 148.262 33.582C148.672 32.7357 149.248 32.0911 149.99 31.6484C150.732 31.2057 151.598 30.9844 152.588 30.9844ZM152.588 32.7129C151.865 32.7129 151.279 32.9473 150.83 33.416C150.387 33.8848 150.127 34.5716 150.049 35.4766H154.971C154.964 34.9362 154.873 34.4577 154.697 34.041C154.528 33.6243 154.268 33.2988 153.916 33.0645C153.571 32.8301 153.128 32.7129 152.588 32.7129ZM172.334 31.1895V42H170.205V35.8281C170.205 35.4245 170.215 35.0208 170.234 34.6172C170.254 34.2135 170.28 33.8294 170.312 33.4648H170.254L166.963 42H165.156L161.895 33.4551H161.826C161.859 33.8262 161.882 34.2103 161.895 34.6074C161.914 35.0046 161.924 35.4342 161.924 35.8965V42H159.795V31.1895H162.998L166.084 39.2656L169.219 31.1895H172.334ZM189.873 33.9629C189.873 34.5879 189.681 35.099 189.297 35.4961C188.919 35.8867 188.398 36.1439 187.734 36.2676V36.3457C188.444 36.4368 189.036 36.6875 189.512 37.0977C189.987 37.5078 190.225 38.0775 190.225 38.8066C190.225 39.4251 190.068 39.9753 189.756 40.457C189.45 40.9323 188.962 41.3099 188.291 41.5898C187.627 41.8633 186.758 42 185.684 42H180.781V31.1895H185.664C186.471 31.1895 187.191 31.2773 187.822 31.4531C188.46 31.6289 188.962 31.9186 189.326 32.3223C189.691 32.7259 189.873 33.2728 189.873 33.9629ZM187.832 38.7285C187.832 38.1947 187.627 37.8105 187.217 37.5762C186.813 37.3418 186.221 37.2246 185.439 37.2246H183.086V40.3105H185.488C186.217 40.3105 186.79 40.1901 187.207 39.9492C187.624 39.7018 187.832 39.2949 187.832 38.7285ZM187.539 34.168C187.539 33.7448 187.38 33.4323 187.061 33.2305C186.742 33.0221 186.24 32.918 185.557 32.918H183.086V35.5352H185.244C185.999 35.5352 186.569 35.4277 186.953 35.2129C187.344 34.9915 187.539 34.6432 187.539 34.168ZM207.451 31.1895V42H205.137V33.0059H200.312V42H198.008V31.1895H207.451ZM216.289 30.9844C217.572 30.9844 218.6 31.4531 219.375 32.3906C220.156 33.3281 220.547 34.7214 220.547 36.5703C220.547 37.7943 220.365 38.8262 220 39.666C219.642 40.4993 219.137 41.1309 218.486 41.5605C217.842 41.9837 217.09 42.1953 216.23 42.1953C215.684 42.1953 215.208 42.1237 214.805 41.9805C214.401 41.8372 214.056 41.6517 213.77 41.4238C213.483 41.1895 213.242 40.9355 213.047 40.6621H212.91C212.943 40.9225 212.972 41.2122 212.998 41.5312C213.031 41.8438 213.047 42.1302 213.047 42.3906V46.7949H210.742V31.1895H212.617L212.939 32.6836H213.047C213.249 32.3776 213.493 32.0944 213.779 31.834C214.072 31.5736 214.424 31.3685 214.834 31.2188C215.251 31.0625 215.736 30.9844 216.289 30.9844ZM215.674 32.8594C215.042 32.8594 214.535 32.9863 214.15 33.2402C213.773 33.4876 213.496 33.862 213.32 34.3633C213.151 34.8646 213.06 35.4928 213.047 36.248V36.5703C213.047 37.3711 213.128 38.0514 213.291 38.6113C213.46 39.1647 213.737 39.5879 214.121 39.8809C214.512 40.1673 215.039 40.3105 215.703 40.3105C216.263 40.3105 216.725 40.1576 217.09 39.8516C217.461 39.5456 217.738 39.1094 217.92 38.543C218.102 37.9766 218.193 37.3092 218.193 36.541C218.193 35.3757 217.985 34.4707 217.568 33.8262C217.158 33.1816 216.527 32.8594 215.674 32.8594ZM232.773 36.5703C232.773 37.4688 232.656 38.2663 232.422 38.9629C232.188 39.6595 231.846 40.2487 231.396 40.7305C230.947 41.2057 230.407 41.5703 229.775 41.8242C229.144 42.0716 228.431 42.1953 227.637 42.1953C226.895 42.1953 226.214 42.0716 225.596 41.8242C224.977 41.5703 224.44 41.2057 223.984 40.7305C223.535 40.2487 223.187 39.6595 222.939 38.9629C222.692 38.2663 222.568 37.4688 222.568 36.5703C222.568 35.3789 222.773 34.3698 223.184 33.543C223.6 32.7096 224.193 32.0749 224.961 31.6387C225.729 31.2025 226.644 30.9844 227.705 30.9844C228.701 30.9844 229.58 31.2025 230.342 31.6387C231.104 32.0749 231.699 32.7096 232.129 33.543C232.559 34.3763 232.773 35.3854 232.773 36.5703ZM224.932 36.5703C224.932 37.3581 225.026 38.0319 225.215 38.5918C225.41 39.1517 225.71 39.5814 226.113 39.8809C226.517 40.1738 227.038 40.3203 227.676 40.3203C228.314 40.3203 228.835 40.1738 229.238 39.8809C229.642 39.5814 229.938 39.1517 230.127 38.5918C230.316 38.0319 230.41 37.3581 230.41 36.5703C230.41 35.7826 230.316 35.1152 230.127 34.5684C229.938 34.015 229.642 33.5951 229.238 33.3086C228.835 33.0156 228.311 32.8691 227.666 32.8691C226.715 32.8691 226.022 33.1882 225.586 33.8262C225.15 34.4642 224.932 35.3789 224.932 36.5703ZM244.238 31.1895V40.2227H245.801V45.8086H243.682V42H236.221V45.8086H234.102V40.2227H234.98C235.527 39.4284 235.983 38.543 236.348 37.5664C236.719 36.5898 237.005 35.5612 237.207 34.4805C237.415 33.3932 237.546 32.2962 237.598 31.1895H244.238ZM241.963 32.9473H239.57C239.492 33.8262 239.359 34.7018 239.17 35.5742C238.981 36.4401 238.737 37.2702 238.438 38.0645C238.145 38.8522 237.793 39.5716 237.383 40.2227H241.963V32.9473ZM252.051 30.9844C253.418 30.9844 254.45 31.2871 255.146 31.8926C255.85 32.498 256.201 33.4421 256.201 34.7246V42H254.57L254.131 40.4668H254.053C253.747 40.8574 253.431 41.1797 253.105 41.4336C252.78 41.6875 252.402 41.8763 251.973 42C251.549 42.1302 251.032 42.1953 250.42 42.1953C249.775 42.1953 249.199 42.0781 248.691 41.8438C248.184 41.6029 247.783 41.2383 247.49 40.75C247.197 40.2617 247.051 39.6432 247.051 38.8945C247.051 37.7812 247.464 36.9447 248.291 36.3848C249.124 35.8249 250.381 35.5156 252.061 35.457L253.936 35.3887V34.8223C253.936 34.0736 253.76 33.5397 253.408 33.2207C253.063 32.9017 252.575 32.7422 251.943 32.7422C251.403 32.7422 250.879 32.8203 250.371 32.9766C249.863 33.1328 249.368 33.3249 248.887 33.5527L248.145 31.9316C248.672 31.6517 249.271 31.4238 249.941 31.248C250.618 31.0723 251.322 30.9844 252.051 30.9844ZM253.926 36.834L252.529 36.8828C251.383 36.9219 250.579 37.1172 250.117 37.4688C249.655 37.8203 249.424 38.3021 249.424 38.9141C249.424 39.4479 249.583 39.8385 249.902 40.0859C250.221 40.3268 250.641 40.4473 251.162 40.4473C251.956 40.4473 252.614 40.2227 253.135 39.7734C253.662 39.3177 253.926 38.6504 253.926 37.7715V36.834ZM273.438 31.1895L269.199 36.4043L273.818 42H271.299L266.875 36.5117V42H264.736V36.5117L260.312 42H257.793L262.412 36.4043L258.174 31.1895H260.605L264.736 36.4336V31.1895H266.875V36.4336L271.016 31.1895H273.438ZM279.746 30.9844C281.113 30.9844 282.145 31.2871 282.842 31.8926C283.545 32.498 283.896 33.4421 283.896 34.7246V42H282.266L281.826 40.4668H281.748C281.442 40.8574 281.126 41.1797 280.801 41.4336C280.475 41.6875 280.098 41.8763 279.668 42C279.245 42.1302 278.727 42.1953 278.115 42.1953C277.471 42.1953 276.895 42.0781 276.387 41.8438C275.879 41.6029 275.479 41.2383 275.186 40.75C274.893 40.2617 274.746 39.6432 274.746 38.8945C274.746 37.7812 275.16 36.9447 275.986 36.3848C276.82 35.8249 278.076 35.5156 279.756 35.457L281.631 35.3887V34.8223C281.631 34.0736 281.455 33.5397 281.104 33.2207C280.758 32.9017 280.27 32.7422 279.639 32.7422C279.098 32.7422 278.574 32.8203 278.066 32.9766C277.559 33.1328 277.064 33.3249 276.582 33.5527L275.84 31.9316C276.367 31.6517 276.966 31.4238 277.637 31.248C278.314 31.0723 279.017 30.9844 279.746 30.9844ZM281.621 36.834L280.225 36.8828C279.079 36.9219 278.275 37.1172 277.812 37.4688C277.35 37.8203 277.119 38.3021 277.119 38.9141C277.119 39.4479 277.279 39.8385 277.598 40.0859C277.917 40.3268 278.337 40.4473 278.857 40.4473C279.652 40.4473 280.309 40.2227 280.83 39.7734C281.357 39.3177 281.621 38.6504 281.621 37.7715V36.834ZM289.502 36.4727L285.889 31.1895H288.506L290.977 34.9883L293.457 31.1895H296.064L292.432 36.4727L296.25 42H293.623L290.977 37.9473L288.32 42H285.713L289.502 36.4727ZM20.0098 59.1895H22.5098L24.7266 65.3613C24.8242 65.6413 24.9121 65.918 24.9902 66.1914C25.0749 66.4583 25.1465 66.722 25.2051 66.9824C25.2702 67.2428 25.3223 67.5033 25.3613 67.7637H25.4199C25.485 67.4251 25.5762 67.0475 25.6934 66.6309C25.8171 66.2077 25.9538 65.7845 26.1035 65.3613L28.2324 59.1895H30.7031L26.0645 71.4844C25.7975 72.1875 25.4688 72.7865 25.0781 73.2812C24.694 73.7826 24.2383 74.1602 23.7109 74.4141C23.1836 74.6745 22.5814 74.8047 21.9043 74.8047C21.5788 74.8047 21.2956 74.7852 21.0547 74.7461C20.8138 74.7135 20.6087 74.6777 20.4395 74.6387V72.8027C20.5762 72.8353 20.7487 72.8646 20.957 72.8906C21.1654 72.9167 21.3802 72.9297 21.6016 72.9297C22.0117 72.9297 22.3665 72.8483 22.666 72.6855C22.9655 72.5228 23.2194 72.2917 23.4277 71.9922C23.6361 71.6992 23.8086 71.3639 23.9453 70.9863L24.3262 69.9707L20.0098 59.1895ZM40.8984 58.9844C41.6927 58.9844 42.4056 59.0918 43.0371 59.3066C43.6751 59.515 44.1797 59.8307 44.5508 60.2539C44.9219 60.6771 45.1074 61.2044 45.1074 61.8359C45.1074 62.487 44.9186 63.0078 44.541 63.3984C44.1699 63.7826 43.6654 64.0592 43.0273 64.2285V64.3164C43.4766 64.4271 43.8835 64.5866 44.248 64.7949C44.6126 64.9967 44.9023 65.2702 45.1172 65.6152C45.3385 65.9538 45.4492 66.39 45.4492 66.9238C45.4492 67.5293 45.2702 68.0794 44.9121 68.5742C44.5605 69.069 44.0202 69.4629 43.291 69.7559C42.5618 70.0488 41.6341 70.1953 40.5078 70.1953C39.9674 70.1953 39.4531 70.166 38.9648 70.1074C38.4831 70.0553 38.0436 69.9805 37.6465 69.8828C37.2493 69.7786 36.9043 69.6549 36.6113 69.5117V67.5391C37.0605 67.7539 37.6042 67.9492 38.2422 68.125C38.8802 68.2943 39.5638 68.3789 40.293 68.3789C40.8333 68.3789 41.3216 68.3301 41.7578 68.2324C42.2005 68.1283 42.5488 67.959 42.8027 67.7246C43.0632 67.4902 43.1934 67.1777 43.1934 66.7871C43.1934 66.429 43.0794 66.1328 42.8516 65.8984C42.6237 65.6641 42.2819 65.4915 41.8262 65.3809C41.3704 65.2637 40.7943 65.2051 40.0977 65.2051H38.8086V63.5156H39.9414C40.8984 63.5156 41.6471 63.4115 42.1875 63.2031C42.7344 62.9883 43.0078 62.6172 43.0078 62.0898C43.0078 61.6471 42.8158 61.3151 42.4316 61.0938C42.0475 60.8724 41.4583 60.7617 40.6641 60.7617C40.1172 60.7617 39.5768 60.8236 39.043 60.9473C38.5091 61.0645 37.9753 61.2337 37.4414 61.4551L36.7188 59.7656C37.3112 59.5247 37.946 59.3359 38.623 59.1992C39.3001 59.056 40.0586 58.9844 40.8984 58.9844ZM52.168 58.9844C53.5352 58.9844 54.5671 59.2871 55.2637 59.8926C55.9668 60.498 56.3184 61.4421 56.3184 62.7246V70H54.6875L54.248 68.4668H54.1699C53.8639 68.8574 53.5482 69.1797 53.2227 69.4336C52.8971 69.6875 52.5195 69.8763 52.0898 70C51.6667 70.1302 51.1491 70.1953 50.5371 70.1953C49.8926 70.1953 49.3164 70.0781 48.8086 69.8438C48.3008 69.6029 47.9004 69.2383 47.6074 68.75C47.3145 68.2617 47.168 67.6432 47.168 66.8945C47.168 65.7812 47.5814 64.9447 48.4082 64.3848C49.2415 63.8249 50.498 63.5156 52.1777 63.457L54.0527 63.3887V62.8223C54.0527 62.0736 53.877 61.5397 53.5254 61.2207C53.1803 60.9017 52.6921 60.7422 52.0605 60.7422C51.5202 60.7422 50.9961 60.8203 50.4883 60.9766C49.9805 61.1328 49.4857 61.3249 49.0039 61.5527L48.2617 59.9316C48.7891 59.6517 49.388 59.4238 50.0586 59.248C50.7357 59.0723 51.4388 58.9844 52.168 58.9844ZM54.043 64.834L52.6465 64.8828C51.5007 64.9219 50.6966 65.1172 50.2344 65.4688C49.7721 65.8203 49.541 66.3021 49.541 66.9141C49.541 67.4479 49.7005 67.8385 50.0195 68.0859C50.3385 68.3268 50.7585 68.4473 51.2793 68.4473C52.0736 68.4473 52.7311 68.2227 53.252 67.7734C53.7793 67.3177 54.043 66.6504 54.043 65.7715V64.834ZM63.8867 70.1953C62.8646 70.1953 61.9792 69.9967 61.2305 69.5996C60.4818 69.2025 59.9056 68.5938 59.502 67.7734C59.0983 66.9531 58.8965 65.9115 58.8965 64.6484C58.8965 63.3333 59.1178 62.2591 59.5605 61.4258C60.0033 60.5924 60.6152 59.9772 61.3965 59.5801C62.1842 59.1829 63.0859 58.9844 64.1016 58.9844C64.7461 58.9844 65.3288 59.0495 65.8496 59.1797C66.377 59.3034 66.8229 59.4564 67.1875 59.6387L66.5039 61.4746C66.1068 61.3118 65.6999 61.1751 65.2832 61.0645C64.8665 60.9538 64.4661 60.8984 64.082 60.8984C63.4505 60.8984 62.9232 61.0384 62.5 61.3184C62.0833 61.5983 61.7708 62.015 61.5625 62.5684C61.3607 63.1217 61.2598 63.8086 61.2598 64.6289C61.2598 65.4232 61.3639 66.0938 61.5723 66.6406C61.7806 67.181 62.0898 67.5911 62.5 67.8711C62.9102 68.1445 63.4147 68.2812 64.0137 68.2812C64.6061 68.2812 65.1367 68.2096 65.6055 68.0664C66.0742 67.9232 66.5169 67.7376 66.9336 67.5098V69.502C66.5234 69.7363 66.084 69.9089 65.6152 70.0195C65.1465 70.1367 64.5703 70.1953 63.8867 70.1953ZM77.6367 60.9961H74.082V70H71.7969V60.9961H68.2617V59.1895H77.6367V60.9961ZM85.2734 58.9844C86.556 58.9844 87.5846 59.4531 88.3594 60.3906C89.1406 61.3281 89.5312 62.7214 89.5312 64.5703C89.5312 65.7943 89.349 66.8262 88.9844 67.666C88.6263 68.4993 88.1217 69.1309 87.4707 69.5605C86.8262 69.9837 86.0742 70.1953 85.2148 70.1953C84.668 70.1953 84.1927 70.1237 83.7891 69.9805C83.3854 69.8372 83.0404 69.6517 82.7539 69.4238C82.4674 69.1895 82.2266 68.9355 82.0312 68.6621H81.8945C81.9271 68.9225 81.9564 69.2122 81.9824 69.5312C82.015 69.8438 82.0312 70.1302 82.0312 70.3906V74.7949H79.7266V59.1895H81.6016L81.9238 60.6836H82.0312C82.2331 60.3776 82.4772 60.0944 82.7637 59.834C83.0566 59.5736 83.4082 59.3685 83.8184 59.2188C84.235 59.0625 84.7201 58.9844 85.2734 58.9844ZM84.6582 60.8594C84.0267 60.8594 83.5189 60.9863 83.1348 61.2402C82.7572 61.4876 82.4805 61.862 82.3047 62.3633C82.1354 62.8646 82.0443 63.4928 82.0312 64.248V64.5703C82.0312 65.3711 82.1126 66.0514 82.2754 66.6113C82.4447 67.1647 82.7214 67.5879 83.1055 67.8809C83.4961 68.1673 84.0234 68.3105 84.6875 68.3105C85.2474 68.3105 85.7096 68.1576 86.0742 67.8516C86.4453 67.5456 86.722 67.1094 86.9043 66.543C87.0866 65.9766 87.1777 65.3092 87.1777 64.541C87.1777 63.3757 86.9694 62.4707 86.5527 61.8262C86.1426 61.1816 85.5111 60.8594 84.6582 60.8594ZM101.758 64.5703C101.758 65.4688 101.641 66.2663 101.406 66.9629C101.172 67.6595 100.83 68.2487 100.381 68.7305C99.9316 69.2057 99.3913 69.5703 98.7598 69.8242C98.1283 70.0716 97.4154 70.1953 96.6211 70.1953C95.8789 70.1953 95.1986 70.0716 94.5801 69.8242C93.9616 69.5703 93.4245 69.2057 92.9688 68.7305C92.5195 68.2487 92.1712 67.6595 91.9238 66.9629C91.6764 66.2663 91.5527 65.4688 91.5527 64.5703C91.5527 63.3789 91.7578 62.3698 92.168 61.543C92.5846 60.7096 93.1771 60.0749 93.9453 59.6387C94.7135 59.2025 95.6283 58.9844 96.6895 58.9844C97.6855 58.9844 98.5645 59.2025 99.3262 59.6387C100.088 60.0749 100.684 60.7096 101.113 61.543C101.543 62.3763 101.758 63.3854 101.758 64.5703ZM93.916 64.5703C93.916 65.3581 94.0104 66.0319 94.1992 66.5918C94.3945 67.1517 94.694 67.5814 95.0977 67.8809C95.5013 68.1738 96.0221 68.3203 96.6602 68.3203C97.2982 68.3203 97.819 68.1738 98.2227 67.8809C98.6263 67.5814 98.9225 67.1517 99.1113 66.5918C99.3001 66.0319 99.3945 65.3581 99.3945 64.5703C99.3945 63.7826 99.3001 63.1152 99.1113 62.5684C98.9225 62.015 98.6263 61.5951 98.2227 61.3086C97.819 61.0156 97.2949 60.8691 96.6504 60.8691C95.6999 60.8691 95.0065 61.1882 94.5703 61.8262C94.1341 62.4642 93.916 63.3789 93.916 64.5703ZM106.602 59.1895V64.707C106.602 64.8828 106.595 65.1074 106.582 65.3809C106.576 65.6478 106.562 65.9277 106.543 66.2207C106.523 66.5072 106.504 66.7708 106.484 67.0117C106.465 67.2526 106.449 67.4316 106.436 67.5488L111.875 59.1895H114.668V70H112.471V64.541C112.471 64.2546 112.477 63.9225 112.49 63.5449C112.51 63.1673 112.529 62.8027 112.549 62.4512C112.575 62.0996 112.591 61.8327 112.598 61.6504L107.178 70H104.395V59.1895H106.602ZM113.857 54.6387C113.792 55.3092 113.61 55.8887 113.311 56.377C113.018 56.8587 112.572 57.2298 111.973 57.4902C111.374 57.7507 110.586 57.8809 109.609 57.8809C108.6 57.8809 107.803 57.7572 107.217 57.5098C106.631 57.2559 106.208 56.888 105.947 56.4062C105.687 55.918 105.531 55.3288 105.479 54.6387H107.568C107.633 55.3613 107.822 55.8496 108.135 56.1035C108.447 56.3509 108.952 56.4746 109.648 56.4746C110.247 56.4746 110.726 56.3411 111.084 56.0742C111.449 55.8073 111.667 55.3288 111.738 54.6387H113.857ZM133.271 59.1895V68.2324H134.834V73.7988H132.676V70H117.969V59.1895H120.264V68.1934H124.463V59.1895H126.768V68.1934H130.977V59.1895H133.271ZM139.004 59.1895V64.707C139.004 64.8828 138.997 65.1074 138.984 65.3809C138.978 65.6478 138.965 65.9277 138.945 66.2207C138.926 66.5072 138.906 66.7708 138.887 67.0117C138.867 67.2526 138.851 67.4316 138.838 67.5488L144.277 59.1895H147.07V70H144.873V64.541C144.873 64.2546 144.88 63.9225 144.893 63.5449C144.912 63.1673 144.932 62.8027 144.951 62.4512C144.977 62.0996 144.993 61.8327 145 61.6504L139.58 70H136.797V59.1895H139.004ZM157.07 59.1895H159.6L155.127 64.3848L159.98 70H157.334L152.676 64.5117V70H150.371V59.1895H152.676V64.4336L157.07 59.1895ZM171.309 64.5703C171.309 65.4688 171.191 66.2663 170.957 66.9629C170.723 67.6595 170.381 68.2487 169.932 68.7305C169.482 69.2057 168.942 69.5703 168.311 69.8242C167.679 70.0716 166.966 70.1953 166.172 70.1953C165.43 70.1953 164.749 70.0716 164.131 69.8242C163.512 69.5703 162.975 69.2057 162.52 68.7305C162.07 68.2487 161.722 67.6595 161.475 66.9629C161.227 66.2663 161.104 65.4688 161.104 64.5703C161.104 63.3789 161.309 62.3698 161.719 61.543C162.135 60.7096 162.728 60.0749 163.496 59.6387C164.264 59.2025 165.179 58.9844 166.24 58.9844C167.236 58.9844 168.115 59.2025 168.877 59.6387C169.639 60.0749 170.234 60.7096 170.664 61.543C171.094 62.3763 171.309 63.3854 171.309 64.5703ZM163.467 64.5703C163.467 65.3581 163.561 66.0319 163.75 66.5918C163.945 67.1517 164.245 67.5814 164.648 67.8809C165.052 68.1738 165.573 68.3203 166.211 68.3203C166.849 68.3203 167.37 68.1738 167.773 67.8809C168.177 67.5814 168.473 67.1517 168.662 66.5918C168.851 66.0319 168.945 65.3581 168.945 64.5703C168.945 63.7826 168.851 63.1152 168.662 62.5684C168.473 62.015 168.177 61.5951 167.773 61.3086C167.37 61.0156 166.846 60.8691 166.201 60.8691C165.251 60.8691 164.557 61.1882 164.121 61.8262C163.685 62.4642 163.467 63.3789 163.467 64.5703ZM183.037 61.9629C183.037 62.5879 182.845 63.099 182.461 63.4961C182.083 63.8867 181.562 64.1439 180.898 64.2676V64.3457C181.608 64.4368 182.201 64.6875 182.676 65.0977C183.151 65.5078 183.389 66.0775 183.389 66.8066C183.389 67.4251 183.232 67.9753 182.92 68.457C182.614 68.9323 182.126 69.3099 181.455 69.5898C180.791 69.8633 179.922 70 178.848 70H173.945V59.1895H178.828C179.635 59.1895 180.355 59.2773 180.986 59.4531C181.624 59.6289 182.126 59.9186 182.49 60.3223C182.855 60.7259 183.037 61.2728 183.037 61.9629ZM180.996 66.7285C180.996 66.1947 180.791 65.8105 180.381 65.5762C179.977 65.3418 179.385 65.2246 178.604 65.2246H176.25V68.3105H178.652C179.382 68.3105 179.954 68.1901 180.371 67.9492C180.788 67.7018 180.996 67.2949 180.996 66.7285ZM180.703 62.168C180.703 61.7448 180.544 61.4323 180.225 61.2305C179.906 61.0221 179.404 60.918 178.721 60.918H176.25V63.5352H178.408C179.163 63.5352 179.733 63.4277 180.117 63.2129C180.508 62.9915 180.703 62.6432 180.703 62.168Z" fill="#222222"></path> </svg> 