<?xml version="1.0" encoding="UTF-8"?> <svg xmlns="http://www.w3.org/2000/svg" width="174" height="488" viewBox="0 0 174 488" fill="none"> <path d="M0 16C0 7.16345 7.16344 0 16 0H158C166.837 0 174 7.16344 174 16V472C174 480.837 166.837 488 158 488H16C7.16345 488 0 480.837 0 472V16Z" fill="#D3413F"></path> <path d="M45.8682 58H43.29V44.4863H38.8213C38.7282 45.224 38.6279 46.0117 38.5205 46.8496C38.4131 47.6803 38.3021 48.5146 38.1875 49.3525C38.0729 50.1904 37.9548 50.9854 37.833 51.7373C37.7184 52.4893 37.6003 53.1517 37.4785 53.7246C37.2923 54.6842 37.0488 55.5007 36.748 56.1738C36.4544 56.8398 36.057 57.3483 35.5557 57.6992C35.0544 58.0501 34.3991 58.2256 33.5898 58.2256C33.3177 58.2256 33.0527 58.2005 32.7949 58.1504C32.5371 58.1074 32.3044 58.0501 32.0967 57.9785V55.8516C32.2686 55.916 32.4512 55.9733 32.6445 56.0234C32.8451 56.0664 33.0563 56.0879 33.2783 56.0879C33.6507 56.0879 33.9479 55.9518 34.1699 55.6797C34.3991 55.4004 34.5889 55.0065 34.7393 54.498C34.8896 53.9824 35.0329 53.3737 35.1689 52.6719C35.2477 52.2493 35.3444 51.6908 35.459 50.9961C35.5736 50.2943 35.6989 49.485 35.835 48.5684C35.971 47.6517 36.1107 46.6634 36.2539 45.6035C36.4043 44.5365 36.5475 43.4336 36.6836 42.2949H45.8682V58ZM47.9521 46.1084H50.7021L53.1406 52.8975C53.248 53.2054 53.3447 53.5098 53.4307 53.8105C53.5238 54.1042 53.6025 54.3942 53.667 54.6807C53.7386 54.9671 53.7959 55.2536 53.8389 55.54H53.9033C53.9749 55.1676 54.0752 54.7523 54.2041 54.2939C54.3402 53.8285 54.4906 53.363 54.6553 52.8975L56.9971 46.1084H59.7148L54.6123 59.6328C54.3187 60.4062 53.957 61.0651 53.5273 61.6094C53.1048 62.1608 52.6035 62.5762 52.0234 62.8555C51.4434 63.1419 50.7809 63.2852 50.0361 63.2852C49.6781 63.2852 49.3665 63.2637 49.1016 63.2207C48.8366 63.1849 48.611 63.1455 48.4248 63.1025V61.083C48.5752 61.1188 48.765 61.151 48.9941 61.1797C49.2233 61.2083 49.4596 61.2227 49.7031 61.2227C50.1543 61.2227 50.5446 61.1331 50.874 60.9541C51.2035 60.7751 51.4827 60.5208 51.7119 60.1914C51.9411 59.8691 52.1309 59.5003 52.2812 59.085L52.7002 57.9678L47.9521 46.1084ZM63.7324 46.1084V50.416C63.7324 51.0462 63.8971 51.5153 64.2266 51.8232C64.556 52.1312 65.0286 52.2852 65.6445 52.2852C66.332 52.2852 66.9622 52.1921 67.5352 52.0059C68.1152 51.8197 68.6989 51.569 69.2861 51.2539V46.1084H71.8105V58H69.2861V52.9727C68.6917 53.3236 68.0723 53.6172 67.4277 53.8535C66.7832 54.0898 66.0277 54.208 65.1611 54.208C63.9294 54.208 62.9626 53.8893 62.2607 53.252C61.5589 52.6146 61.208 51.7051 61.208 50.5234V46.1084H63.7324ZM92.2529 46.1084V58H75.4199V46.1084H77.9443V56.0127H82.5635V46.1084H85.0986V56.0127H89.7285V46.1084H92.2529ZM98.3008 46.1084V52.1777C98.3008 52.3711 98.2936 52.6182 98.2793 52.9189C98.2721 53.2126 98.2578 53.5205 98.2363 53.8428C98.2148 54.1579 98.1934 54.4479 98.1719 54.7129C98.1504 54.9779 98.1325 55.1748 98.1182 55.3037L104.102 46.1084H107.174V58H104.757V51.9951C104.757 51.68 104.764 51.3148 104.778 50.8994C104.8 50.484 104.821 50.083 104.843 49.6963C104.871 49.3096 104.889 49.016 104.896 48.8154L98.9346 58H95.873V46.1084H98.3008ZM115.542 45.8828C116.602 45.8828 117.511 46.1012 118.271 46.5381C119.03 46.9749 119.613 47.5944 120.021 48.3965C120.43 49.1986 120.634 50.1582 120.634 51.2754V52.6289H112.695C112.724 53.7819 113.032 54.6699 113.619 55.293C114.214 55.916 115.044 56.2275 116.111 56.2275C116.87 56.2275 117.551 56.1559 118.152 56.0127C118.761 55.8623 119.388 55.6439 120.032 55.3574V57.4092C119.438 57.6885 118.833 57.8926 118.217 58.0215C117.601 58.1504 116.863 58.2148 116.004 58.2148C114.837 58.2148 113.809 57.9893 112.921 57.5381C112.04 57.0798 111.349 56.3994 110.848 55.4971C110.354 54.5947 110.106 53.474 110.106 52.1348C110.106 50.8027 110.332 49.6712 110.783 48.7402C111.234 47.8092 111.868 47.1003 112.685 46.6133C113.501 46.1263 114.453 45.8828 115.542 45.8828ZM115.542 47.7842C114.747 47.7842 114.103 48.042 113.608 48.5576C113.121 49.0732 112.835 49.8288 112.749 50.8242H118.163C118.156 50.2298 118.056 49.7035 117.862 49.2451C117.676 48.7868 117.39 48.4287 117.003 48.1709C116.623 47.9131 116.136 47.7842 115.542 47.7842ZM123.115 56.668C123.115 56.0807 123.266 55.6689 123.566 55.4326C123.874 55.1891 124.247 55.0674 124.684 55.0674C125.12 55.0674 125.493 55.1891 125.801 55.4326C126.116 55.6689 126.273 56.0807 126.273 56.668C126.273 57.2409 126.116 57.6562 125.801 57.9141C125.493 58.1647 125.12 58.29 124.684 58.29C124.247 58.29 123.874 58.1647 123.566 57.9141C123.266 57.6562 123.115 57.2409 123.115 56.668Z" fill="white"></path> <path d="M33.9531 138V123.723H44.5879V138H42.9473V125.188H35.6133V138H33.9531ZM53.3086 127.102C54.6432 127.102 55.7077 127.561 56.502 128.479C57.2962 129.396 57.6934 130.777 57.6934 132.619C57.6934 133.837 57.5111 134.859 57.1465 135.686C56.7819 136.512 56.2676 137.137 55.6035 137.561C54.946 137.984 54.168 138.195 53.2695 138.195C52.7031 138.195 52.2051 138.12 51.7754 137.971C51.3457 137.821 50.9779 137.619 50.6719 137.365C50.3659 137.111 50.112 136.835 49.9102 136.535H49.793C49.8125 136.789 49.8353 137.095 49.8613 137.453C49.8939 137.811 49.9102 138.124 49.9102 138.391V142.785H48.2793V127.297H49.6172L49.832 128.879H49.9102C50.1185 128.553 50.3724 128.257 50.6719 127.99C50.9714 127.717 51.3359 127.502 51.7656 127.346C52.2018 127.183 52.7161 127.102 53.3086 127.102ZM53.0254 128.469C52.2832 128.469 51.6842 128.612 51.2285 128.898C50.7793 129.185 50.4505 129.615 50.2422 130.188C50.0339 130.754 49.9232 131.467 49.9102 132.326V132.639C49.9102 133.544 50.0078 134.309 50.2031 134.934C50.4049 135.559 50.7337 136.034 51.1895 136.359C51.6517 136.685 52.2702 136.848 53.0449 136.848C53.709 136.848 54.2624 136.669 54.7051 136.311C55.1478 135.952 55.4766 135.454 55.6914 134.816C55.9128 134.172 56.0234 133.433 56.0234 132.6C56.0234 131.337 55.776 130.334 55.2812 129.592C54.793 128.843 54.041 128.469 53.0254 128.469ZM69.7539 132.629C69.7539 133.508 69.64 134.292 69.4121 134.982C69.1842 135.673 68.8555 136.255 68.4258 136.73C67.9961 137.206 67.4753 137.57 66.8633 137.824C66.2578 138.072 65.571 138.195 64.8027 138.195C64.0866 138.195 63.429 138.072 62.8301 137.824C62.2376 137.57 61.7233 137.206 61.2871 136.73C60.8574 136.255 60.5221 135.673 60.2812 134.982C60.0469 134.292 59.9297 133.508 59.9297 132.629C59.9297 131.457 60.1283 130.461 60.5254 129.641C60.9225 128.814 61.4889 128.186 62.2246 127.756C62.9668 127.32 63.849 127.102 64.8711 127.102C65.8477 127.102 66.7005 127.32 67.4297 127.756C68.1654 128.192 68.735 128.824 69.1387 129.65C69.5488 130.471 69.7539 131.464 69.7539 132.629ZM61.6094 132.629C61.6094 133.488 61.7233 134.234 61.9512 134.865C62.179 135.497 62.5306 135.985 63.0059 136.33C63.4811 136.675 64.0931 136.848 64.8418 136.848C65.584 136.848 66.1927 136.675 66.668 136.33C67.1497 135.985 67.5046 135.497 67.7324 134.865C67.9603 134.234 68.0742 133.488 68.0742 132.629C68.0742 131.776 67.9603 131.04 67.7324 130.422C67.5046 129.797 67.153 129.315 66.6777 128.977C66.2025 128.638 65.5872 128.469 64.832 128.469C63.7188 128.469 62.9017 128.837 62.3809 129.572C61.8665 130.308 61.6094 131.327 61.6094 132.629ZM76.6777 127.102C77.5892 127.102 78.3704 127.303 79.0215 127.707C79.6725 128.111 80.1706 128.677 80.5156 129.406C80.8607 130.129 81.0332 130.975 81.0332 131.945V132.951H73.6406C73.6602 134.208 73.9727 135.165 74.5781 135.822C75.1836 136.48 76.0365 136.809 77.1367 136.809C77.8138 136.809 78.4128 136.747 78.9336 136.623C79.4544 136.499 79.9948 136.317 80.5547 136.076V137.502C80.0143 137.743 79.4772 137.919 78.9434 138.029C78.416 138.14 77.791 138.195 77.0684 138.195C76.0397 138.195 75.1413 137.987 74.373 137.57C73.6113 137.147 73.0189 136.529 72.5957 135.715C72.1725 134.901 71.9609 133.905 71.9609 132.727C71.9609 131.574 72.153 130.578 72.5371 129.738C72.9277 128.892 73.4746 128.241 74.1777 127.785C74.8874 127.329 75.7207 127.102 76.6777 127.102ZM76.6582 128.43C75.7923 128.43 75.1022 128.713 74.5879 129.279C74.0736 129.846 73.7676 130.637 73.6699 131.652H79.334C79.3275 131.014 79.2266 130.454 79.0312 129.973C78.8424 129.484 78.5527 129.107 78.1621 128.84C77.7715 128.566 77.2702 128.43 76.6582 128.43ZM90.0273 127.297H91.8145L87.1953 132.463L92.1855 138H90.2812L85.418 132.57V138H83.7871V127.297H85.418V132.492L90.0273 127.297ZM101.414 128.674H97.8887V138H96.2871V128.674H92.8105V127.297H101.414V128.674ZM103.533 138V127.297H105.164V131.711H108.094C109.005 131.711 109.754 131.825 110.34 132.053C110.932 132.281 111.372 132.619 111.658 133.068C111.945 133.518 112.088 134.074 112.088 134.738C112.088 135.402 111.945 135.979 111.658 136.467C111.378 136.955 110.936 137.333 110.33 137.6C109.731 137.867 108.95 138 107.986 138H103.533ZM105.164 136.682H107.83C108.637 136.682 109.282 136.538 109.764 136.252C110.245 135.965 110.486 135.487 110.486 134.816C110.486 134.159 110.262 133.703 109.812 133.449C109.363 133.189 108.719 133.059 107.879 133.059H105.164V136.682ZM113.855 138V127.297H115.477V138H113.855Z" fill="white"></path> <path d="M36.6289 310.982C35.9714 310.982 35.3626 311.057 34.8027 311.207C34.2493 311.357 33.748 311.536 33.2988 311.744L32.6152 310.348C33.1686 310.081 33.7936 309.876 34.4902 309.732C35.1868 309.589 35.9062 309.518 36.6484 309.518C37.7878 309.518 38.7773 309.693 39.6172 310.045C40.4635 310.39 41.1634 310.882 41.7168 311.52C42.2702 312.158 42.6836 312.91 42.957 313.775C43.2305 314.641 43.3672 315.592 43.3672 316.627C43.3672 318.17 43.1133 319.508 42.6055 320.641C42.0977 321.773 41.3327 322.649 40.3105 323.268C39.2949 323.886 38.0221 324.195 36.4922 324.195C35.6654 324.195 34.9622 324.146 34.3828 324.049C33.8099 323.958 33.25 323.814 32.7031 323.619V322.174C33.2565 322.324 33.8197 322.457 34.3926 322.574C34.972 322.685 35.5872 322.74 36.2383 322.74C37.1107 322.74 37.8757 322.62 38.5332 322.379C39.1973 322.138 39.7539 321.783 40.2031 321.314C40.6523 320.846 40.9941 320.273 41.2285 319.596C41.4694 318.919 41.5996 318.144 41.6191 317.271H34.5586V315.807H41.5996C41.541 315.051 41.3848 314.378 41.1309 313.785C40.877 313.186 40.5352 312.678 40.1055 312.262C39.6758 311.845 39.168 311.529 38.582 311.314C38.0026 311.093 37.3516 310.982 36.6289 310.982ZM52.5664 313.297H54.3535L49.7344 318.463L54.7246 324H52.8203L47.957 318.57V324H46.3262V313.297H47.957V318.492L52.5664 313.297ZM60.9453 324.195C59.9818 324.195 59.1322 323.997 58.3965 323.6C57.6608 323.202 57.0879 322.597 56.6777 321.783C56.2676 320.969 56.0625 319.944 56.0625 318.707C56.0625 317.411 56.2773 316.354 56.707 315.533C57.1432 314.706 57.7422 314.094 58.5039 313.697C59.2656 313.3 60.1315 313.102 61.1016 313.102C61.6354 313.102 62.1497 313.157 62.6445 313.268C63.1458 313.372 63.556 313.505 63.875 313.668L63.3867 315.025C63.0612 314.895 62.6836 314.778 62.2539 314.674C61.8307 314.57 61.4336 314.518 61.0625 314.518C60.3203 314.518 59.7018 314.677 59.207 314.996C58.7188 315.315 58.3509 315.784 58.1035 316.402C57.8626 317.021 57.7422 317.783 57.7422 318.688C57.7422 319.553 57.8594 320.292 58.0938 320.904C58.3346 321.516 58.6895 321.985 59.1582 322.311C59.6335 322.63 60.2259 322.789 60.9355 322.789C61.502 322.789 62.013 322.73 62.4688 322.613C62.9245 322.49 63.3379 322.346 63.709 322.184V323.629C63.3509 323.811 62.9505 323.951 62.5078 324.049C62.0716 324.146 61.5508 324.195 60.9453 324.195ZM75.2129 313.297V324H73.582V314.693H67.8789V324H66.248V313.297H75.2129ZM82.7715 313.102C83.6829 313.102 84.4642 313.303 85.1152 313.707C85.7663 314.111 86.2643 314.677 86.6094 315.406C86.9544 316.129 87.127 316.975 87.127 317.945V318.951H79.7344C79.7539 320.208 80.0664 321.165 80.6719 321.822C81.2773 322.48 82.1302 322.809 83.2305 322.809C83.9076 322.809 84.5065 322.747 85.0273 322.623C85.5482 322.499 86.0885 322.317 86.6484 322.076V323.502C86.1081 323.743 85.571 323.919 85.0371 324.029C84.5098 324.14 83.8848 324.195 83.1621 324.195C82.1335 324.195 81.235 323.987 80.4668 323.57C79.7051 323.147 79.1126 322.529 78.6895 321.715C78.2663 320.901 78.0547 319.905 78.0547 318.727C78.0547 317.574 78.2467 316.578 78.6309 315.738C79.0215 314.892 79.5684 314.241 80.2715 313.785C80.9811 313.329 81.8145 313.102 82.7715 313.102ZM82.752 314.43C81.8861 314.43 81.196 314.713 80.6816 315.279C80.1673 315.846 79.8613 316.637 79.7637 317.652H85.4277C85.4212 317.014 85.3203 316.454 85.125 315.973C84.9362 315.484 84.6465 315.107 84.2559 314.84C83.8652 314.566 83.3639 314.43 82.752 314.43ZM94.9102 313.102C96.2448 313.102 97.3092 313.561 98.1035 314.479C98.8978 315.396 99.2949 316.777 99.2949 318.619C99.2949 319.837 99.1126 320.859 98.748 321.686C98.3835 322.512 97.8691 323.137 97.2051 323.561C96.5475 323.984 95.7695 324.195 94.8711 324.195C94.3047 324.195 93.8066 324.12 93.377 323.971C92.9473 323.821 92.5794 323.619 92.2734 323.365C91.9674 323.111 91.7135 322.835 91.5117 322.535H91.3945C91.4141 322.789 91.4368 323.095 91.4629 323.453C91.4954 323.811 91.5117 324.124 91.5117 324.391V328.785H89.8809V313.297H91.2188L91.4336 314.879H91.5117C91.7201 314.553 91.974 314.257 92.2734 313.99C92.5729 313.717 92.9375 313.502 93.3672 313.346C93.8034 313.183 94.3177 313.102 94.9102 313.102ZM94.627 314.469C93.8848 314.469 93.2858 314.612 92.8301 314.898C92.3809 315.185 92.0521 315.615 91.8438 316.188C91.6354 316.754 91.5247 317.467 91.5117 318.326V318.639C91.5117 319.544 91.6094 320.309 91.8047 320.934C92.0065 321.559 92.3353 322.034 92.791 322.359C93.2533 322.685 93.8717 322.848 94.6465 322.848C95.3105 322.848 95.8639 322.669 96.3066 322.311C96.7493 321.952 97.0781 321.454 97.293 320.816C97.5143 320.172 97.625 319.433 97.625 318.6C97.625 317.337 97.3776 316.334 96.8828 315.592C96.3945 314.843 95.6426 314.469 94.627 314.469ZM109.422 314.674H105.896V324H104.295V314.674H100.818V313.297H109.422V314.674ZM111.541 324V313.297H113.172V317.711H116.102C117.013 317.711 117.762 317.825 118.348 318.053C118.94 318.281 119.38 318.619 119.666 319.068C119.952 319.518 120.096 320.074 120.096 320.738C120.096 321.402 119.952 321.979 119.666 322.467C119.386 322.955 118.943 323.333 118.338 323.6C117.739 323.867 116.958 324 115.994 324H111.541ZM113.172 322.682H115.838C116.645 322.682 117.29 322.538 117.771 322.252C118.253 321.965 118.494 321.487 118.494 320.816C118.494 320.159 118.27 319.703 117.82 319.449C117.371 319.189 116.727 319.059 115.887 319.059H113.172V322.682ZM121.863 324V313.297H123.484V324H121.863Z" fill="white"></path> <path d="M44.1875 262H42.1758L35.6133 254.754V262H33.9531V247.723H35.6133V254.637L42.0098 247.723H43.9141L37.5957 254.656L44.1875 262ZM55.1445 256.629C55.1445 257.508 55.0306 258.292 54.8027 258.982C54.5749 259.673 54.2461 260.255 53.8164 260.73C53.3867 261.206 52.8659 261.57 52.2539 261.824C51.6484 262.072 50.9616 262.195 50.1934 262.195C49.4772 262.195 48.8197 262.072 48.2207 261.824C47.6283 261.57 47.1139 261.206 46.6777 260.73C46.248 260.255 45.9128 259.673 45.6719 258.982C45.4375 258.292 45.3203 257.508 45.3203 256.629C45.3203 255.457 45.5189 254.461 45.916 253.641C46.3132 252.814 46.8796 252.186 47.6152 251.756C48.3574 251.32 49.2396 251.102 50.2617 251.102C51.2383 251.102 52.0911 251.32 52.8203 251.756C53.556 252.192 54.1257 252.824 54.5293 253.65C54.9395 254.471 55.1445 255.464 55.1445 256.629ZM47 256.629C47 257.488 47.1139 258.234 47.3418 258.865C47.5697 259.497 47.9212 259.985 48.3965 260.33C48.8717 260.675 49.4837 260.848 50.2324 260.848C50.9746 260.848 51.5833 260.675 52.0586 260.33C52.5404 259.985 52.8952 259.497 53.123 258.865C53.3509 258.234 53.4648 257.488 53.4648 256.629C53.4648 255.776 53.3509 255.04 53.123 254.422C52.8952 253.797 52.5436 253.315 52.0684 252.977C51.5931 252.638 50.9779 252.469 50.2227 252.469C49.1094 252.469 48.2923 252.837 47.7715 253.572C47.2572 254.308 47 255.327 47 256.629ZM69.2461 251.297V262H67.7812V255.027C67.7812 254.741 67.7878 254.451 67.8008 254.158C67.8203 253.859 67.8431 253.559 67.8691 253.26H67.8105L64.2559 262H62.8789L59.4121 253.26H59.3535C59.373 253.559 59.3861 253.859 59.3926 254.158C59.4056 254.451 59.4121 254.76 59.4121 255.086V262H57.9375V251.297H60.1152L63.5723 260.047L67.0781 251.297H69.2461ZM76.6191 251.121C77.8952 251.121 78.8424 251.408 79.4609 251.98C80.0794 252.553 80.3887 253.468 80.3887 254.725V262H79.207L78.8945 260.418H78.8164C78.5169 260.809 78.2044 261.137 77.8789 261.404C77.5534 261.665 77.1758 261.863 76.7461 262C76.3229 262.13 75.8021 262.195 75.1836 262.195C74.5326 262.195 73.9531 262.081 73.4453 261.854C72.944 261.626 72.5469 261.281 72.2539 260.818C71.9674 260.356 71.8242 259.77 71.8242 259.061C71.8242 257.993 72.2474 257.173 73.0938 256.6C73.9401 256.027 75.2292 255.714 76.9609 255.662L78.8066 255.584V254.93C78.8066 254.005 78.6081 253.357 78.2109 252.986C77.8138 252.615 77.2539 252.43 76.5312 252.43C75.9714 252.43 75.4375 252.511 74.9297 252.674C74.4219 252.837 73.9401 253.029 73.4844 253.25L72.9863 252.02C73.4681 251.772 74.0215 251.561 74.6465 251.385C75.2715 251.209 75.929 251.121 76.6191 251.121ZM78.7871 256.727L77.1562 256.795C75.8216 256.847 74.8809 257.065 74.334 257.449C73.7871 257.833 73.5137 258.377 73.5137 259.08C73.5137 259.692 73.6992 260.145 74.0703 260.438C74.4414 260.73 74.9329 260.877 75.5449 260.877C76.4954 260.877 77.2734 260.613 77.8789 260.086C78.4844 259.559 78.7871 258.768 78.7871 257.713V256.727ZM85.3594 251.297V255.789H91.3262V251.297H92.9473V262H91.3262V257.166H85.3594V262H83.7285V251.297H85.3594ZM104.227 251.297V260.623H105.76V265.701H104.188V262H96.6094V265.701H95.0566V260.623H95.8965C96.5085 259.777 97.0163 258.849 97.4199 257.84C97.8236 256.831 98.1296 255.773 98.3379 254.666C98.5462 253.553 98.6569 252.43 98.6699 251.297H104.227ZM102.654 252.586H100.115C100.057 253.536 99.9167 254.503 99.6953 255.486C99.4805 256.469 99.194 257.407 98.8359 258.299C98.4779 259.184 98.0612 259.959 97.5859 260.623H102.654V252.586ZM107.889 262V251.297H109.52V255.711H112.449C113.361 255.711 114.109 255.825 114.695 256.053C115.288 256.281 115.727 256.619 116.014 257.068C116.3 257.518 116.443 258.074 116.443 258.738C116.443 259.402 116.3 259.979 116.014 260.467C115.734 260.955 115.291 261.333 114.686 261.6C114.087 261.867 113.305 262 112.342 262H107.889ZM109.52 260.682H112.186C112.993 260.682 113.637 260.538 114.119 260.252C114.601 259.965 114.842 259.487 114.842 258.816C114.842 258.159 114.617 257.703 114.168 257.449C113.719 257.189 113.074 257.059 112.234 257.059H109.52V260.682ZM118.211 262V251.297H119.832V262H118.211Z" fill="white"></path> <path d="M33.9531 200V185.723H44.5879V200H42.9473V187.188H35.6133V200H33.9531ZM53.3086 189.102C54.6432 189.102 55.7077 189.561 56.502 190.479C57.2962 191.396 57.6934 192.777 57.6934 194.619C57.6934 195.837 57.5111 196.859 57.1465 197.686C56.7819 198.512 56.2676 199.137 55.6035 199.561C54.946 199.984 54.168 200.195 53.2695 200.195C52.7031 200.195 52.2051 200.12 51.7754 199.971C51.3457 199.821 50.9779 199.619 50.6719 199.365C50.3659 199.111 50.112 198.835 49.9102 198.535H49.793C49.8125 198.789 49.8353 199.095 49.8613 199.453C49.8939 199.811 49.9102 200.124 49.9102 200.391V204.785H48.2793V189.297H49.6172L49.832 190.879H49.9102C50.1185 190.553 50.3724 190.257 50.6719 189.99C50.9714 189.717 51.3359 189.502 51.7656 189.346C52.2018 189.183 52.7161 189.102 53.3086 189.102ZM53.0254 190.469C52.2832 190.469 51.6842 190.612 51.2285 190.898C50.7793 191.185 50.4505 191.615 50.2422 192.188C50.0339 192.754 49.9232 193.467 49.9102 194.326V194.639C49.9102 195.544 50.0078 196.309 50.2031 196.934C50.4049 197.559 50.7337 198.034 51.1895 198.359C51.6517 198.685 52.2702 198.848 53.0449 198.848C53.709 198.848 54.2624 198.669 54.7051 198.311C55.1478 197.952 55.4766 197.454 55.6914 196.816C55.9128 196.172 56.0234 195.433 56.0234 194.6C56.0234 193.337 55.776 192.334 55.2812 191.592C54.793 190.843 54.041 190.469 53.0254 190.469ZM69.7539 194.629C69.7539 195.508 69.64 196.292 69.4121 196.982C69.1842 197.673 68.8555 198.255 68.4258 198.73C67.9961 199.206 67.4753 199.57 66.8633 199.824C66.2578 200.072 65.571 200.195 64.8027 200.195C64.0866 200.195 63.429 200.072 62.8301 199.824C62.2376 199.57 61.7233 199.206 61.2871 198.73C60.8574 198.255 60.5221 197.673 60.2812 196.982C60.0469 196.292 59.9297 195.508 59.9297 194.629C59.9297 193.457 60.1283 192.461 60.5254 191.641C60.9225 190.814 61.4889 190.186 62.2246 189.756C62.9668 189.32 63.849 189.102 64.8711 189.102C65.8477 189.102 66.7005 189.32 67.4297 189.756C68.1654 190.192 68.735 190.824 69.1387 191.65C69.5488 192.471 69.7539 193.464 69.7539 194.629ZM61.6094 194.629C61.6094 195.488 61.7233 196.234 61.9512 196.865C62.179 197.497 62.5306 197.985 63.0059 198.33C63.4811 198.675 64.0931 198.848 64.8418 198.848C65.584 198.848 66.1927 198.675 66.668 198.33C67.1497 197.985 67.5046 197.497 67.7324 196.865C67.9603 196.234 68.0742 195.488 68.0742 194.629C68.0742 193.776 67.9603 193.04 67.7324 192.422C67.5046 191.797 67.153 191.315 66.6777 190.977C66.2025 190.638 65.5872 190.469 64.832 190.469C63.7188 190.469 62.9017 190.837 62.3809 191.572C61.8665 192.308 61.6094 193.327 61.6094 194.629ZM80.3984 189.297V198.623H81.9316V203.701H80.3594V200H72.7812V203.701H71.2285V198.623H72.0684C72.6803 197.777 73.1882 196.849 73.5918 195.84C73.9954 194.831 74.3014 193.773 74.5098 192.666C74.7181 191.553 74.8288 190.43 74.8418 189.297H80.3984ZM78.8262 190.586H76.2871C76.2285 191.536 76.0885 192.503 75.8672 193.486C75.6523 194.469 75.3659 195.407 75.0078 196.299C74.6497 197.184 74.2331 197.959 73.7578 198.623H78.8262V190.586ZM88.0645 189.121C89.3405 189.121 90.2878 189.408 90.9062 189.98C91.5247 190.553 91.834 191.468 91.834 192.725V200H90.6523L90.3398 198.418H90.2617C89.9622 198.809 89.6497 199.137 89.3242 199.404C88.9987 199.665 88.6211 199.863 88.1914 200C87.7682 200.13 87.2474 200.195 86.6289 200.195C85.9779 200.195 85.3984 200.081 84.8906 199.854C84.3893 199.626 83.9922 199.281 83.6992 198.818C83.4128 198.356 83.2695 197.77 83.2695 197.061C83.2695 195.993 83.6927 195.173 84.5391 194.6C85.3854 194.027 86.6745 193.714 88.4062 193.662L90.252 193.584V192.93C90.252 192.005 90.0534 191.357 89.6562 190.986C89.2591 190.615 88.6992 190.43 87.9766 190.43C87.4167 190.43 86.8828 190.511 86.375 190.674C85.8672 190.837 85.3854 191.029 84.9297 191.25L84.4316 190.02C84.9134 189.772 85.4668 189.561 86.0918 189.385C86.7168 189.209 87.3743 189.121 88.0645 189.121ZM90.2324 194.727L88.6016 194.795C87.2669 194.847 86.3262 195.065 85.7793 195.449C85.2324 195.833 84.959 196.377 84.959 197.08C84.959 197.692 85.1445 198.145 85.5156 198.438C85.8867 198.73 86.3783 198.877 86.9902 198.877C87.9408 198.877 88.7188 198.613 89.3242 198.086C89.9297 197.559 90.2324 196.768 90.2324 195.713V194.727ZM107.713 189.297L103.26 194.502L108.094 200H106.238L101.551 194.57V200H100.037V194.57L95.3594 200H93.5039L98.3379 194.502L93.875 189.297H95.6621L100.037 194.492V189.297H101.551V194.492L105.945 189.297H107.713ZM111.424 189.297V196.025C111.424 196.156 111.421 196.325 111.414 196.533C111.408 196.735 111.398 196.953 111.385 197.188C111.372 197.415 111.359 197.637 111.346 197.852C111.339 198.06 111.329 198.232 111.316 198.369L117.156 189.297H119.148V200H117.635V193.438C117.635 193.229 117.638 192.962 117.645 192.637C117.651 192.311 117.661 191.992 117.674 191.68C117.687 191.361 117.697 191.113 117.703 190.938L111.883 200H109.881V189.297H111.424Z" fill="white"></path> <path d="M42.9082 386L41.1504 381.469H35.4277L33.6797 386H32L37.5859 371.664H39.0801L44.627 386H42.9082ZM40.6523 379.994L38.9824 375.492C38.9434 375.375 38.8783 375.183 38.7871 374.916C38.7025 374.649 38.6146 374.372 38.5234 374.086C38.4323 373.799 38.3574 373.568 38.2988 373.393C38.2337 373.66 38.1621 373.926 38.084 374.193C38.0124 374.454 37.9408 374.698 37.8691 374.926C37.7975 375.147 37.7357 375.336 37.6836 375.492L35.9844 379.994H40.6523ZM52.8594 375.297V376.674H47.9961V386H46.3652V375.297H52.8594ZM59.1191 375.102C60.0306 375.102 60.8118 375.303 61.4629 375.707C62.1139 376.111 62.612 376.677 62.957 377.406C63.3021 378.129 63.4746 378.975 63.4746 379.945V380.951H56.082C56.1016 382.208 56.4141 383.165 57.0195 383.822C57.625 384.48 58.4779 384.809 59.5781 384.809C60.2552 384.809 60.8542 384.747 61.375 384.623C61.8958 384.499 62.4362 384.317 62.9961 384.076V385.502C62.4557 385.743 61.9186 385.919 61.3848 386.029C60.8574 386.14 60.2324 386.195 59.5098 386.195C58.4811 386.195 57.5827 385.987 56.8145 385.57C56.0527 385.147 55.4603 384.529 55.0371 383.715C54.6139 382.901 54.4023 381.905 54.4023 380.727C54.4023 379.574 54.5944 378.578 54.9785 377.738C55.3691 376.892 55.916 376.241 56.6191 375.785C57.3288 375.329 58.1621 375.102 59.1191 375.102ZM59.0996 376.43C58.2337 376.43 57.5436 376.713 57.0293 377.279C56.515 377.846 56.209 378.637 56.1113 379.652H61.7754C61.7689 379.014 61.668 378.454 61.4727 377.973C61.2839 377.484 60.9941 377.107 60.6035 376.84C60.2129 376.566 59.7116 376.43 59.0996 376.43ZM67.8594 375.297V379.789H73.8262V375.297H75.4473V386H73.8262V381.166H67.8594V386H66.2285V375.297H67.8594ZM86.1797 376.674H82.6543V386H81.0527V376.674H77.5762V375.297H86.1797V376.674ZM92.5859 386.195C91.6224 386.195 90.7728 385.997 90.0371 385.6C89.3014 385.202 88.7285 384.597 88.3184 383.783C87.9082 382.969 87.7031 381.944 87.7031 380.707C87.7031 379.411 87.918 378.354 88.3477 377.533C88.7839 376.706 89.3828 376.094 90.1445 375.697C90.9062 375.3 91.7721 375.102 92.7422 375.102C93.276 375.102 93.7904 375.157 94.2852 375.268C94.7865 375.372 95.1966 375.505 95.5156 375.668L95.0273 377.025C94.7018 376.895 94.3242 376.778 93.8945 376.674C93.4714 376.57 93.0742 376.518 92.7031 376.518C91.9609 376.518 91.3424 376.677 90.8477 376.996C90.3594 377.315 89.9915 377.784 89.7441 378.402C89.5033 379.021 89.3828 379.783 89.3828 380.688C89.3828 381.553 89.5 382.292 89.7344 382.904C89.9753 383.516 90.3301 383.985 90.7988 384.311C91.2741 384.63 91.8665 384.789 92.5762 384.789C93.1426 384.789 93.6536 384.73 94.1094 384.613C94.5651 384.49 94.9785 384.346 95.3496 384.184V385.629C94.9915 385.811 94.5911 385.951 94.1484 386.049C93.7122 386.146 93.1914 386.195 92.5859 386.195ZM105.184 376.674H101.658V386H100.057V376.674H96.5801V375.297H105.184V376.674ZM115.809 377.982C115.809 378.653 115.613 379.177 115.223 379.555C114.832 379.926 114.327 380.176 113.709 380.307V380.385C114.38 380.476 114.956 380.717 115.438 381.107C115.926 381.492 116.17 382.081 116.17 382.875C116.17 383.487 116.023 384.027 115.73 384.496C115.438 384.965 114.979 385.333 114.354 385.6C113.729 385.867 112.915 386 111.912 386H107.303V375.297H111.873C112.641 375.297 113.318 375.385 113.904 375.561C114.497 375.73 114.962 376.01 115.301 376.4C115.639 376.791 115.809 377.318 115.809 377.982ZM114.48 382.875C114.48 382.243 114.24 381.788 113.758 381.508C113.283 381.228 112.589 381.088 111.678 381.088H108.934V384.682H111.717C112.615 384.682 113.299 384.545 113.768 384.271C114.243 383.992 114.48 383.526 114.48 382.875ZM114.158 378.168C114.158 377.66 113.973 377.283 113.602 377.035C113.23 376.781 112.622 376.654 111.775 376.654H108.934V379.73H111.492C112.371 379.73 113.035 379.604 113.484 379.35C113.934 379.096 114.158 378.702 114.158 378.168ZM128.016 380.629C128.016 381.508 127.902 382.292 127.674 382.982C127.446 383.673 127.117 384.255 126.688 384.73C126.258 385.206 125.737 385.57 125.125 385.824C124.52 386.072 123.833 386.195 123.064 386.195C122.348 386.195 121.691 386.072 121.092 385.824C120.499 385.57 119.985 385.206 119.549 384.73C119.119 384.255 118.784 383.673 118.543 382.982C118.309 382.292 118.191 381.508 118.191 380.629C118.191 379.457 118.39 378.461 118.787 377.641C119.184 376.814 119.751 376.186 120.486 375.756C121.229 375.32 122.111 375.102 123.133 375.102C124.109 375.102 124.962 375.32 125.691 375.756C126.427 376.192 126.997 376.824 127.4 377.65C127.811 378.471 128.016 379.464 128.016 380.629ZM119.871 380.629C119.871 381.488 119.985 382.234 120.213 382.865C120.441 383.497 120.792 383.985 121.268 384.33C121.743 384.675 122.355 384.848 123.104 384.848C123.846 384.848 124.454 384.675 124.93 384.33C125.411 383.985 125.766 383.497 125.994 382.865C126.222 382.234 126.336 381.488 126.336 380.629C126.336 379.776 126.222 379.04 125.994 378.422C125.766 377.797 125.415 377.315 124.939 376.977C124.464 376.638 123.849 376.469 123.094 376.469C121.98 376.469 121.163 376.837 120.643 377.572C120.128 378.308 119.871 379.327 119.871 380.629Z" fill="white"></path> <path d="M43.4648 433.723V446.516H45.2227V451.73H43.6309V448H33.709V451.73H32.1172V446.516H33.2109C33.6992 445.682 34.1549 444.748 34.5781 443.713C35.0078 442.671 35.3887 441.584 35.7207 440.451C36.0592 439.312 36.3327 438.169 36.541 437.023C36.7559 435.878 36.8926 434.777 36.9512 433.723H43.4648ZM41.8145 435.217H38.416C38.3574 436.024 38.2272 436.926 38.0254 437.922C37.8236 438.911 37.5632 439.927 37.2441 440.969C36.9316 442.01 36.5801 443.01 36.1895 443.967C35.8053 444.924 35.3984 445.773 34.9688 446.516H41.8145V435.217ZM51.5215 437.102C52.4329 437.102 53.2142 437.303 53.8652 437.707C54.5163 438.111 55.0143 438.677 55.3594 439.406C55.7044 440.129 55.877 440.975 55.877 441.945V442.951H48.4844C48.5039 444.208 48.8164 445.165 49.4219 445.822C50.0273 446.48 50.8802 446.809 51.9805 446.809C52.6576 446.809 53.2565 446.747 53.7773 446.623C54.2982 446.499 54.8385 446.317 55.3984 446.076V447.502C54.8581 447.743 54.321 447.919 53.7871 448.029C53.2598 448.14 52.6348 448.195 51.9121 448.195C50.8835 448.195 49.985 447.987 49.2168 447.57C48.4551 447.147 47.8626 446.529 47.4395 445.715C47.0163 444.901 46.8047 443.905 46.8047 442.727C46.8047 441.574 46.9967 440.578 47.3809 439.738C47.7715 438.892 48.3184 438.241 49.0215 437.785C49.7311 437.329 50.5645 437.102 51.5215 437.102ZM51.502 438.43C50.6361 438.43 49.946 438.713 49.4316 439.279C48.9173 439.846 48.6113 440.637 48.5137 441.652H54.1777C54.1712 441.014 54.0703 440.454 53.875 439.973C53.6862 439.484 53.3965 439.107 53.0059 438.84C52.6152 438.566 52.1139 438.43 51.502 438.43ZM67.1367 439.982C67.1367 440.653 66.9414 441.177 66.5508 441.555C66.1602 441.926 65.6556 442.176 65.0371 442.307V442.385C65.7077 442.476 66.2839 442.717 66.7656 443.107C67.2539 443.492 67.498 444.081 67.498 444.875C67.498 445.487 67.3516 446.027 67.0586 446.496C66.7656 446.965 66.3066 447.333 65.6816 447.6C65.0566 447.867 64.2428 448 63.2402 448H58.6309V437.297H63.2012C63.9694 437.297 64.6465 437.385 65.2324 437.561C65.8249 437.73 66.2904 438.01 66.6289 438.4C66.9674 438.791 67.1367 439.318 67.1367 439.982ZM65.8086 444.875C65.8086 444.243 65.5677 443.788 65.0859 443.508C64.6107 443.228 63.9173 443.088 63.0059 443.088H60.2617V446.682H63.0449C63.9434 446.682 64.627 446.545 65.0957 446.271C65.571 445.992 65.8086 445.526 65.8086 444.875ZM65.4863 440.168C65.4863 439.66 65.3008 439.283 64.9297 439.035C64.5586 438.781 63.9499 438.654 63.1035 438.654H60.2617V441.73H62.8203C63.6992 441.73 64.3633 441.604 64.8125 441.35C65.2617 441.096 65.4863 440.702 65.4863 440.168ZM74.2363 437.102C75.1478 437.102 75.929 437.303 76.5801 437.707C77.2311 438.111 77.7292 438.677 78.0742 439.406C78.4193 440.129 78.5918 440.975 78.5918 441.945V442.951H71.1992C71.2188 444.208 71.5312 445.165 72.1367 445.822C72.7422 446.48 73.5951 446.809 74.6953 446.809C75.3724 446.809 75.9714 446.747 76.4922 446.623C77.013 446.499 77.5534 446.317 78.1133 446.076V447.502C77.5729 447.743 77.0358 447.919 76.502 448.029C75.9746 448.14 75.3496 448.195 74.627 448.195C73.5983 448.195 72.6999 447.987 71.9316 447.57C71.1699 447.147 70.5775 446.529 70.1543 445.715C69.7311 444.901 69.5195 443.905 69.5195 442.727C69.5195 441.574 69.7116 440.578 70.0957 439.738C70.4863 438.892 71.0332 438.241 71.7363 437.785C72.446 437.329 73.2793 437.102 74.2363 437.102ZM74.2168 438.43C73.3509 438.43 72.6608 438.713 72.1465 439.279C71.6322 439.846 71.3262 440.637 71.2285 441.652H76.8926C76.8861 441.014 76.7852 440.454 76.5898 439.973C76.401 439.484 76.1113 439.107 75.7207 438.84C75.3301 438.566 74.8288 438.43 74.2168 438.43ZM89.373 448H87.7227V438.654H84.4707C84.3405 440.34 84.1745 441.786 83.9727 442.99C83.7773 444.188 83.5299 445.168 83.2305 445.93C82.9375 446.685 82.5794 447.242 82.1562 447.6C81.7396 447.951 81.2415 448.127 80.6621 448.127C80.4863 448.127 80.3203 448.117 80.1641 448.098C80.0078 448.078 79.8743 448.046 79.7637 448V446.77C79.8483 446.796 79.9362 446.815 80.0273 446.828C80.125 446.841 80.2259 446.848 80.3301 446.848C80.623 446.848 80.89 446.727 81.1309 446.486C81.3783 446.239 81.5996 445.868 81.7949 445.373C81.9967 444.878 82.1758 444.253 82.332 443.498C82.4883 442.736 82.625 441.841 82.7422 440.812C82.8659 439.777 82.9733 438.605 83.0645 437.297H89.373V448ZM102.02 442.629C102.02 443.508 101.906 444.292 101.678 444.982C101.45 445.673 101.121 446.255 100.691 446.73C100.262 447.206 99.7409 447.57 99.1289 447.824C98.5234 448.072 97.8366 448.195 97.0684 448.195C96.3522 448.195 95.6947 448.072 95.0957 447.824C94.5033 447.57 93.9889 447.206 93.5527 446.73C93.123 446.255 92.7878 445.673 92.5469 444.982C92.3125 444.292 92.1953 443.508 92.1953 442.629C92.1953 441.457 92.3939 440.461 92.791 439.641C93.1882 438.814 93.7546 438.186 94.4902 437.756C95.2324 437.32 96.1146 437.102 97.1367 437.102C98.1133 437.102 98.9661 437.32 99.6953 437.756C100.431 438.192 101.001 438.824 101.404 439.65C101.814 440.471 102.02 441.464 102.02 442.629ZM93.875 442.629C93.875 443.488 93.9889 444.234 94.2168 444.865C94.4447 445.497 94.7962 445.985 95.2715 446.33C95.7467 446.675 96.3587 446.848 97.1074 446.848C97.8496 446.848 98.4583 446.675 98.9336 446.33C99.4154 445.985 99.7702 445.497 99.998 444.865C100.226 444.234 100.34 443.488 100.34 442.629C100.34 441.776 100.226 441.04 99.998 440.422C99.7702 439.797 99.4186 439.315 98.9434 438.977C98.4681 438.638 97.8529 438.469 97.0977 438.469C95.9844 438.469 95.1673 438.837 94.6465 439.572C94.1322 440.308 93.875 441.327 93.875 442.629ZM113.787 437.297V448H112.156V438.693H106.453V448H104.822V437.297H113.787ZM121.346 437.102C122.257 437.102 123.038 437.303 123.689 437.707C124.34 438.111 124.839 438.677 125.184 439.406C125.529 440.129 125.701 440.975 125.701 441.945V442.951H118.309C118.328 444.208 118.641 445.165 119.246 445.822C119.852 446.48 120.704 446.809 121.805 446.809C122.482 446.809 123.081 446.747 123.602 446.623C124.122 446.499 124.663 446.317 125.223 446.076V447.502C124.682 447.743 124.145 447.919 123.611 448.029C123.084 448.14 122.459 448.195 121.736 448.195C120.708 448.195 119.809 447.987 119.041 447.57C118.279 447.147 117.687 446.529 117.264 445.715C116.84 444.901 116.629 443.905 116.629 442.727C116.629 441.574 116.821 440.578 117.205 439.738C117.596 438.892 118.143 438.241 118.846 437.785C119.555 437.329 120.389 437.102 121.346 437.102ZM121.326 438.43C120.46 438.43 119.77 438.713 119.256 439.279C118.742 439.846 118.436 440.637 118.338 441.652H124.002C123.995 441.014 123.895 440.454 123.699 439.973C123.51 439.484 123.221 439.107 122.83 438.84C122.439 438.566 121.938 438.43 121.326 438.43ZM133.484 437.102C134.819 437.102 135.883 437.561 136.678 438.479C137.472 439.396 137.869 440.777 137.869 442.619C137.869 443.837 137.687 444.859 137.322 445.686C136.958 446.512 136.443 447.137 135.779 447.561C135.122 447.984 134.344 448.195 133.445 448.195C132.879 448.195 132.381 448.12 131.951 447.971C131.521 447.821 131.154 447.619 130.848 447.365C130.542 447.111 130.288 446.835 130.086 446.535H129.969C129.988 446.789 130.011 447.095 130.037 447.453C130.07 447.811 130.086 448.124 130.086 448.391V452.785H128.455V437.297H129.793L130.008 438.879H130.086C130.294 438.553 130.548 438.257 130.848 437.99C131.147 437.717 131.512 437.502 131.941 437.346C132.378 437.183 132.892 437.102 133.484 437.102ZM133.201 438.469C132.459 438.469 131.86 438.612 131.404 438.898C130.955 439.185 130.626 439.615 130.418 440.188C130.21 440.754 130.099 441.467 130.086 442.326V442.639C130.086 443.544 130.184 444.309 130.379 444.934C130.581 445.559 130.91 446.034 131.365 446.359C131.827 446.685 132.446 446.848 133.221 446.848C133.885 446.848 134.438 446.669 134.881 446.311C135.324 445.952 135.652 445.454 135.867 444.816C136.089 444.172 136.199 443.433 136.199 442.6C136.199 441.337 135.952 440.334 135.457 439.592C134.969 438.843 134.217 438.469 133.201 438.469Z" fill="white"></path> <line x1="142.002" y1="161.5" x2="31.9977" y2="161.5" stroke="#F49695"></line> <line x1="142.002" y1="223.5" x2="31.9977" y2="223.5" stroke="#F49695"></line> <line x1="142.005" y1="285.5" x2="32.0001" y2="285.5" stroke="#F49695"></line> <line x1="142.005" y1="347.5" x2="32.0001" y2="347.5" stroke="#F49695"></line> <line x1="142.005" y1="409.5" x2="32.0001" y2="409.5" stroke="#F49695"></line> </svg> 