<?xml version="1.0" encoding="UTF-8"?> <svg xmlns="http://www.w3.org/2000/svg" width="495" height="66" viewBox="0 0 495 66" fill="none"> <path d="M49.769 66H0L6.1875 23.04L48.1549 0L84.7418 38.88L85.0109 40.56L48.1549 4.08V8.4L85.0109 42.24L85.2799 43.92L48.4239 12.48V17.28L85.5489 45.6L85.8179 47.28L48.6929 21.36V25.68L86.356 48.96L86.625 50.64L48.962 30V34.08L86.894 52.32L87.163 54L49.231 38.4V42.72L87.7011 55.92L87.9701 57.6L49.5 47.04V51.84L88.2391 59.52L88.5082 61.2L49.5 55.92V60.24L88.7772 62.64L89.0462 65.04L49.769 66ZM282.473 35.76V45.6C277.092 48 273.864 50.4 270.098 50.4C266.062 50.4 262.296 48.96 262.296 45.12C262.296 38.88 269.022 35.52 282.473 35.76ZM252.88 20.16C258.261 16.8 266.601 14.16 272.519 14.16C280.859 14.16 282.742 16.56 282.742 23.52C259.337 24 242.389 29.52 242.389 46.56C242.389 55.68 248.576 64.32 265.524 64.32C274.94 64.32 281.666 61.92 288.122 57.36C292.427 63.84 298.076 64.32 301.573 64.32C304.264 64.32 306.954 63.84 306.954 63.12V49.68C301.573 50.16 301.573 46.08 301.573 40.32V21.84C301.573 14.88 300.497 0 274.402 0C269.829 0 257.723 0.48 244.81 8.64L252.88 20.16ZM107.071 52.8C115.679 60.72 123.481 64.32 135.318 64.32C152.535 64.32 172.174 56.16 172.174 31.2C172.174 5.28 150.114 0 135.856 0C129.938 0 119.177 1.92 109.223 9.36L119.715 19.68C124.019 15.36 129.399 13.44 135.318 13.44C147.693 13.44 148.769 22.32 149.038 26.64L126.44 25.44V39.36L149.038 38.16C148.769 41.76 147.155 50.88 135.049 50.88C126.709 50.88 121.06 46.8 117.563 42.96L107.071 52.8ZM193.696 15.6V66H212.527V15.6H231.359V1.2H177.554V15.6H193.696ZM358.875 66H376.63V36.48C384.701 36 386.315 39.36 390.889 48.24C394.924 55.92 398.959 64.32 410.796 64.32C412.679 64.32 414.293 64.08 416.984 63.12V49.68C411.603 49.2 412.141 47.28 408.106 41.28C402.457 32.4 399.228 30.24 395.462 29.76C401.38 28.32 404.071 24.96 405.954 22.56C408.913 18.72 411.065 15.12 415.639 15.12C416.177 15.12 414.293 15.12 416.984 15.36V1.2C414.293 0.24 413.755 0 410.527 0C400.035 0 394.117 6.24 387.929 14.88C384.701 19.44 381.742 23.28 376.361 22.8V1.2H357.53V23.04C352.149 23.52 350.266 19.44 347.038 15.12C340.851 6.24 335.201 0.24 324.709 0.24C321.481 0.24 319.867 0.72 317.177 1.44V15.36C317.177 15.12 319.06 15.12 319.598 15.12C324.171 15.12 327.13 18.72 330.09 22.56C331.973 24.96 334.394 28.32 340.312 29.76C336.546 30.24 331.435 32.64 325.785 41.28C321.75 47.28 322.557 49.44 314.486 49.68V63.12C317.177 64.08 320.943 64.32 322.826 64.32C334.663 64.32 339.774 55.92 344.079 48.24C348.921 39.36 346.769 36 357.53 36.48V66H358.875ZM451.957 33.36V1.2H433.125V66H451.957V54.24L476.168 31.68V66H495V1.2H476.168V11.04L451.957 33.36Z" fill="#D3413F"></path> </svg> 