<?xml version="1.0" encoding="UTF-8"?> <svg xmlns="http://www.w3.org/2000/svg" width="60" height="60" viewBox="0 0 60 60" fill="none"> <circle cx="30" cy="30" r="30" fill="#D3413F"></circle> <g clip-path="url(#clip0_3161_1034)"> <path d="M27.7281 14H32.3361C32.5509 14.1024 32.7324 14.2633 32.8598 14.4643C32.9871 14.6652 33.0552 14.8981 33.0562 15.136C33.0562 15.888 33.2322 16.64 33.3122 17.392C33.3107 17.4669 33.3355 17.5399 33.3822 17.5983C33.429 17.6568 33.4948 17.697 33.5682 17.712L36.1761 18.8C36.3521 18.8 36.4481 18.88 36.5921 18.8L38.5602 17.2C38.6552 17.1105 38.7674 17.0413 38.89 16.9967C39.0127 16.9521 39.1431 16.933 39.2733 16.9405C39.4036 16.948 39.531 16.9819 39.6478 17.0403C39.7645 17.0987 39.868 17.1802 39.9522 17.28L42.7042 20.032C42.8007 20.1204 42.8777 20.2279 42.9305 20.3478C42.9832 20.4676 43.0104 20.5971 43.0104 20.728C43.0104 20.8589 42.9832 20.9883 42.9305 21.1082C42.8777 21.228 42.8007 21.3355 42.7042 21.424C42.2028 22.0746 41.6695 22.7307 41.1042 23.392C41.0626 23.4474 41.0401 23.5147 41.0401 23.584C41.0401 23.6532 41.0626 23.7206 41.1042 23.776C41.4882 24.64 41.8562 25.52 42.2082 26.416C42.2231 26.4893 42.2633 26.5551 42.3218 26.6019C42.3803 26.6487 42.4533 26.6735 42.5281 26.672C43.2801 26.752 44.0321 26.88 44.7841 26.928C45.0225 26.927 45.2561 26.9943 45.4574 27.1219C45.6587 27.2495 45.8193 27.432 45.9202 27.648V32.256C45.8178 32.4707 45.6568 32.6522 45.4559 32.7796C45.2549 32.907 45.0221 32.975 44.7841 32.976C44.0161 32.976 43.2801 33.152 42.5281 33.232C42.4518 33.2342 42.3786 33.2624 42.3204 33.3118C42.2622 33.3613 42.2227 33.429 42.2082 33.504C41.8562 34.368 41.4882 35.248 41.1202 36.112C41.0735 36.1712 41.0481 36.2445 41.0481 36.32C41.0481 36.3954 41.0735 36.4687 41.1202 36.528C41.6482 37.168 42.1602 37.824 42.7202 38.48C42.8109 38.5749 42.8808 38.6877 42.9254 38.8112C42.9701 38.9347 42.9885 39.0662 42.9795 39.1972C42.9705 39.3282 42.9342 39.4559 42.873 39.5721C42.8118 39.6883 42.7271 39.7904 42.6242 39.872L39.9042 42.608C39.8196 42.7118 39.7147 42.797 39.5958 42.8585C39.4769 42.92 39.3465 42.9564 39.213 42.9654C39.0794 42.9744 38.9455 42.9559 38.8194 42.9109C38.6933 42.8659 38.5778 42.7955 38.4801 42.704L36.5441 41.104C36.4874 41.0585 36.4168 41.0338 36.3441 41.0338C36.2714 41.0338 36.2009 41.0585 36.1441 41.104L33.5042 42.192C33.3442 42.192 33.2641 42.32 33.2481 42.496C33.1681 43.312 33.0562 44.096 32.9602 44.928C32.9606 45.0632 32.933 45.1969 32.879 45.3209C32.825 45.4448 32.7459 45.5562 32.6466 45.648C32.5473 45.7398 32.4301 45.8099 32.3022 45.854C32.1744 45.898 32.0389 45.915 31.9042 45.904H28.0321C27.8969 45.9176 27.7603 45.9024 27.6314 45.8592C27.5024 45.8161 27.3842 45.7461 27.2843 45.6538C27.1845 45.5615 27.1054 45.4491 27.0523 45.324C26.9992 45.1988 26.9732 45.0639 26.9761 44.928C26.8801 44.112 26.7681 43.328 26.6881 42.48C26.6881 42.304 26.5921 42.256 26.4321 42.192L23.7921 41.104C23.7379 41.0598 23.6701 41.0357 23.6001 41.0357C23.5302 41.0357 23.4624 41.0598 23.4082 41.104L21.4722 42.704C21.3765 42.8013 21.2612 42.8772 21.1339 42.9265C21.0067 42.9757 20.8703 42.9973 20.734 42.9897C20.5978 42.9822 20.4647 42.9456 20.3437 42.8826C20.2226 42.8195 20.1164 42.7313 20.0321 42.624L17.2961 39.888C17.1983 39.8026 17.1186 39.6985 17.0615 39.5819C17.0044 39.4653 16.9711 39.3384 16.9637 39.2088C16.9562 39.0792 16.9747 38.9493 17.0181 38.827C17.0614 38.7046 17.1288 38.592 17.2162 38.496L18.8162 36.528C18.8554 36.4716 18.8764 36.4046 18.8764 36.336C18.8764 36.2673 18.8554 36.2003 18.8162 36.144C18.4322 35.28 18.0642 34.384 17.7122 33.504C17.7122 33.36 17.6002 33.28 17.4242 33.264L14.9441 32.96C14.8109 32.9584 14.6795 32.9291 14.5582 32.874C14.4369 32.8189 14.3284 32.7392 14.2396 32.6398C14.1508 32.5405 14.0837 32.4238 14.0424 32.2971C14.0012 32.1704 13.9868 32.0365 14.0001 31.904V28.08C13.9841 27.9393 13.9984 27.7967 14.042 27.662C14.0857 27.5273 14.1577 27.4034 14.2532 27.2988C14.3487 27.1942 14.4655 27.1113 14.5957 27.0556C14.7259 26.9999 14.8666 26.9728 15.0082 26.976L17.3761 26.688C17.4564 26.6873 17.5343 26.6603 17.5979 26.6112C17.6615 26.5621 17.7072 26.4935 17.7281 26.416C18.0588 25.552 18.4108 24.688 18.7841 23.824C18.8641 23.648 18.8801 23.536 18.7841 23.392L17.1841 21.424C17.0986 21.3296 17.033 21.2189 16.9914 21.0985C16.9498 20.9781 16.9329 20.8506 16.9419 20.7235C16.9509 20.5964 16.9855 20.4725 17.0436 20.3591C17.1017 20.2458 17.1822 20.1454 17.2801 20.064L20.0321 17.312C20.1137 17.2091 20.2159 17.1243 20.3321 17.0631C20.4483 17.002 20.5759 16.9657 20.7069 16.9566C20.8379 16.9476 20.9694 16.966 21.0929 17.0106C21.2164 17.0553 21.3292 17.1252 21.4242 17.216L23.3761 18.816C23.4315 18.8575 23.4989 18.88 23.5682 18.88C23.6374 18.88 23.7048 18.8575 23.7602 18.816L26.4321 17.696C26.5171 17.6821 26.5966 17.6447 26.6616 17.5882C26.7266 17.5317 26.7746 17.4582 26.8001 17.376C26.8961 16.624 27.0242 15.856 27.0722 15.088C27.0741 14.8645 27.1359 14.6456 27.2513 14.4542C27.3667 14.2629 27.5314 14.106 27.7281 14ZM29.9361 38C31.5149 38.0124 33.062 37.5573 34.3826 36.6922C35.7033 35.8271 36.7384 34.5905 37.3577 33.1383C37.977 31.686 38.1527 30.083 37.8628 28.5311C37.5729 26.9792 36.8303 25.5477 35.7284 24.417C34.6266 23.2863 33.2148 22.5069 31.6709 22.1769C30.127 21.8469 28.52 21.9812 27.0522 22.5627C25.5844 23.1442 24.3215 24.147 23.4225 25.4448C22.5235 26.7426 22.0286 28.2774 22.0001 29.856C21.9874 30.9146 22.185 31.9652 22.5814 32.9469C22.9777 33.9286 23.5649 34.8219 24.3091 35.575C25.0532 36.3281 25.9394 36.926 26.9164 37.334C27.8933 37.742 28.9414 37.952 30.0001 37.952L29.9361 38Z" fill="white"></path> </g> <defs> <clipPath id="clip0_3161_1034"> <rect width="32" height="32" fill="white" transform="translate(14 14)"></rect> </clipPath> </defs> </svg> 