<?xml version="1.0" encoding="UTF-8"?> <svg xmlns="http://www.w3.org/2000/svg" width="100" height="100" viewBox="0 0 100 100" fill="none"> <circle cx="50" cy="50" r="50" fill="#D3413F"></circle> <rect x="32.9219" y="45.1904" width="2.76923" height="2.76923" fill="white"></rect> <rect x="32.9219" y="68.8827" width="2.76923" height="2.76923" fill="white"></rect> <rect x="27.6927" y="68.8827" width="2.76923" height="2.76923" fill="white"></rect> <path d="M21.5385 68.8827H25.2308V71.6519H20L21.5385 68.8827Z" fill="white"></path> <path d="M78.4615 68.8827H74.7692V71.6519H80L78.4615 68.8827Z" fill="white"></path> <path d="M30.7698 50.4211H33.5391L32.3083 53.1904H29.5391L30.7698 50.4211Z" fill="white"></path> <path d="M69.2302 50.4211H66.4609L67.6917 53.1904H70.4609L69.2302 50.4211Z" fill="white"></path> <path d="M27.999 55.652H30.7682L29.5374 58.4212H26.7682L27.999 55.652Z" fill="white"></path> <path d="M72.001 55.652H69.2318L70.4626 58.4212H73.2318L72.001 55.652Z" fill="white"></path> <path d="M25.2308 60.8827H28L26.7692 63.6519H24L25.2308 60.8827Z" fill="white"></path> <path d="M74.7692 60.8827H72L73.2308 63.6519H76L74.7692 60.8827Z" fill="white"></path> <path d="M22.7698 66.1134H25.5391L24.3083 68.8826H21.5391L22.7698 66.1134Z" fill="white"></path> <path d="M77.2302 66.1134H74.4609L75.6917 68.8826H78.4609L77.2302 66.1134Z" fill="white"></path> <rect x="38.1537" y="45.1904" width="2.76923" height="2.76923" fill="white"></rect> <rect x="38.1537" y="68.8827" width="2.76923" height="2.76923" fill="white"></rect> <rect x="43.3854" y="45.1904" width="2.76923" height="2.76923" fill="white"></rect> <rect x="43.3854" y="68.8827" width="2.76923" height="2.76923" fill="white"></rect> <rect x="48.6146" y="45.1904" width="2.76923" height="2.76923" fill="white"></rect> <rect x="48.6146" y="50.4211" width="2.76923" height="2.76923" fill="white"></rect> <rect x="48.6146" y="55.652" width="2.76923" height="2.76923" fill="white"></rect> <rect x="53.8463" y="55.652" width="2.76923" height="2.76923" fill="white"></rect> <rect x="59.0781" y="55.652" width="2.76923" height="2.76923" fill="white"></rect> <rect x="64.3073" y="55.652" width="2.76923" height="2.76923" fill="white"></rect> <rect x="48.6146" y="68.8827" width="2.76923" height="2.76923" fill="white"></rect> <rect x="59.0781" y="45.1904" width="2.76923" height="2.76923" fill="white"></rect> <rect x="59.0781" y="68.8827" width="2.76923" height="2.76923" fill="white"></rect> <rect x="53.8463" y="68.8827" width="2.76923" height="2.76923" fill="white"></rect> <rect x="64.3073" y="45.1904" width="2.76923" height="2.76923" fill="white"></rect> <rect x="64.3073" y="68.8827" width="2.76923" height="2.76923" fill="white"></rect> <rect x="69.5391" y="68.8827" width="2.76923" height="2.76923" fill="white"></rect> <path fill-rule="evenodd" clip-rule="evenodd" d="M53.847 27.6519C54.3599 26.8314 56.247 25.4058 59.6932 26.2673C61.5949 26.7427 62.777 27.3981 63.7822 27.9553C65.0539 28.6604 66.0425 29.2084 67.847 29.0366C70.4317 28.7904 71.4881 28.0109 71.6932 27.6519V37.6519C70.924 38.5237 68.524 39.9289 65.0778 38.575C64.2818 38.2623 63.5331 37.9549 62.8327 37.6672C59.8775 36.4537 57.781 35.5928 56.6163 36.1779V50.4212H53.847V27.652H53.8471C53.8471 27.652 53.847 27.652 53.847 27.6519Z" fill="white"></path> </svg> 