<?xml version="1.0" encoding="UTF-8"?> <svg xmlns="http://www.w3.org/2000/svg" width="403" height="288" viewBox="0 0 403 288" fill="none"> <path fill-rule="evenodd" clip-rule="evenodd" d="M16 0C7.16344 0 0 7.16344 0 16V91V272C0 280.837 7.16345 288 16 288H387C395.837 288 403 280.837 403 272V107C403 98.1634 395.837 91 387 91H190C181.163 91 174 83.8366 174 75V16C174 7.16344 166.837 0 158 0H16Z" fill="#D3413F"></path> <path d="M45.8682 58H43.29V44.4863H38.8213C38.7282 45.224 38.6279 46.0117 38.5205 46.8496C38.4131 47.6803 38.3021 48.5146 38.1875 49.3525C38.0729 50.1904 37.9548 50.9854 37.833 51.7373C37.7184 52.4893 37.6003 53.1517 37.4785 53.7246C37.2923 54.6842 37.0488 55.5007 36.748 56.1738C36.4544 56.8398 36.057 57.3483 35.5557 57.6992C35.0544 58.0501 34.3991 58.2256 33.5898 58.2256C33.3177 58.2256 33.0527 58.2005 32.7949 58.1504C32.5371 58.1074 32.3044 58.0501 32.0967 57.9785V55.8516C32.2686 55.916 32.4512 55.9733 32.6445 56.0234C32.8451 56.0664 33.0563 56.0879 33.2783 56.0879C33.6507 56.0879 33.9479 55.9518 34.1699 55.6797C34.3991 55.4004 34.5889 55.0065 34.7393 54.498C34.8896 53.9824 35.0329 53.3737 35.1689 52.6719C35.2477 52.2493 35.3444 51.6908 35.459 50.9961C35.5736 50.2943 35.6989 49.485 35.835 48.5684C35.971 47.6517 36.1107 46.6634 36.2539 45.6035C36.4043 44.5365 36.5475 43.4336 36.6836 42.2949H45.8682V58ZM47.9521 46.1084H50.7021L53.1406 52.8975C53.248 53.2054 53.3447 53.5098 53.4307 53.8105C53.5238 54.1042 53.6025 54.3942 53.667 54.6807C53.7386 54.9671 53.7959 55.2536 53.8389 55.54H53.9033C53.9749 55.1676 54.0752 54.7523 54.2041 54.2939C54.3402 53.8285 54.4906 53.363 54.6553 52.8975L56.9971 46.1084H59.7148L54.6123 59.6328C54.3187 60.4062 53.957 61.0651 53.5273 61.6094C53.1048 62.1608 52.6035 62.5762 52.0234 62.8555C51.4434 63.1419 50.7809 63.2852 50.0361 63.2852C49.6781 63.2852 49.3665 63.2637 49.1016 63.2207C48.8366 63.1849 48.611 63.1455 48.4248 63.1025V61.083C48.5752 61.1188 48.765 61.151 48.9941 61.1797C49.2233 61.2083 49.4596 61.2227 49.7031 61.2227C50.1543 61.2227 50.5446 61.1331 50.874 60.9541C51.2035 60.7751 51.4827 60.5208 51.7119 60.1914C51.9411 59.8691 52.1309 59.5003 52.2812 59.085L52.7002 57.9678L47.9521 46.1084ZM63.7324 46.1084V50.416C63.7324 51.0462 63.8971 51.5153 64.2266 51.8232C64.556 52.1312 65.0286 52.2852 65.6445 52.2852C66.332 52.2852 66.9622 52.1921 67.5352 52.0059C68.1152 51.8197 68.6989 51.569 69.2861 51.2539V46.1084H71.8105V58H69.2861V52.9727C68.6917 53.3236 68.0723 53.6172 67.4277 53.8535C66.7832 54.0898 66.0277 54.208 65.1611 54.208C63.9294 54.208 62.9626 53.8893 62.2607 53.252C61.5589 52.6146 61.208 51.7051 61.208 50.5234V46.1084H63.7324ZM92.2529 46.1084V58H75.4199V46.1084H77.9443V56.0127H82.5635V46.1084H85.0986V56.0127H89.7285V46.1084H92.2529ZM98.3008 46.1084V52.1777C98.3008 52.3711 98.2936 52.6182 98.2793 52.9189C98.2721 53.2126 98.2578 53.5205 98.2363 53.8428C98.2148 54.1579 98.1934 54.4479 98.1719 54.7129C98.1504 54.9779 98.1325 55.1748 98.1182 55.3037L104.102 46.1084H107.174V58H104.757V51.9951C104.757 51.68 104.764 51.3148 104.778 50.8994C104.8 50.484 104.821 50.083 104.843 49.6963C104.871 49.3096 104.889 49.016 104.896 48.8154L98.9346 58H95.873V46.1084H98.3008ZM115.542 45.8828C116.602 45.8828 117.511 46.1012 118.271 46.5381C119.03 46.9749 119.613 47.5944 120.021 48.3965C120.43 49.1986 120.634 50.1582 120.634 51.2754V52.6289H112.695C112.724 53.7819 113.032 54.6699 113.619 55.293C114.214 55.916 115.044 56.2275 116.111 56.2275C116.87 56.2275 117.551 56.1559 118.152 56.0127C118.761 55.8623 119.388 55.6439 120.032 55.3574V57.4092C119.438 57.6885 118.833 57.8926 118.217 58.0215C117.601 58.1504 116.863 58.2148 116.004 58.2148C114.837 58.2148 113.809 57.9893 112.921 57.5381C112.04 57.0798 111.349 56.3994 110.848 55.4971C110.354 54.5947 110.106 53.474 110.106 52.1348C110.106 50.8027 110.332 49.6712 110.783 48.7402C111.234 47.8092 111.868 47.1003 112.685 46.6133C113.501 46.1263 114.453 45.8828 115.542 45.8828ZM115.542 47.7842C114.747 47.7842 114.103 48.042 113.608 48.5576C113.121 49.0732 112.835 49.8288 112.749 50.8242H118.163C118.156 50.2298 118.056 49.7035 117.862 49.2451C117.676 48.7868 117.39 48.4287 117.003 48.1709C116.623 47.9131 116.136 47.7842 115.542 47.7842ZM123.115 56.668C123.115 56.0807 123.266 55.6689 123.566 55.4326C123.874 55.1891 124.247 55.0674 124.684 55.0674C125.12 55.0674 125.493 55.1891 125.801 55.4326C126.116 55.6689 126.273 56.0807 126.273 56.668C126.273 57.2409 126.116 57.6562 125.801 57.9141C125.493 58.1647 125.12 58.29 124.684 58.29C124.247 58.29 123.874 58.1647 123.566 57.9141C123.266 57.6562 123.115 57.2409 123.115 56.668Z" fill="white"></path> <path d="M33.9531 138V123.723H44.5879V138H42.9473V125.188H35.6133V138H33.9531ZM53.3086 127.102C54.6432 127.102 55.7077 127.561 56.502 128.479C57.2962 129.396 57.6934 130.777 57.6934 132.619C57.6934 133.837 57.5111 134.859 57.1465 135.686C56.7819 136.512 56.2676 137.137 55.6035 137.561C54.946 137.984 54.168 138.195 53.2695 138.195C52.7031 138.195 52.2051 138.12 51.7754 137.971C51.3457 137.821 50.9779 137.619 50.6719 137.365C50.3659 137.111 50.112 136.835 49.9102 136.535H49.793C49.8125 136.789 49.8353 137.095 49.8613 137.453C49.8939 137.811 49.9102 138.124 49.9102 138.391V142.785H48.2793V127.297H49.6172L49.832 128.879H49.9102C50.1185 128.553 50.3724 128.257 50.6719 127.99C50.9714 127.717 51.3359 127.502 51.7656 127.346C52.2018 127.183 52.7161 127.102 53.3086 127.102ZM53.0254 128.469C52.2832 128.469 51.6842 128.612 51.2285 128.898C50.7793 129.185 50.4505 129.615 50.2422 130.188C50.0339 130.754 49.9232 131.467 49.9102 132.326V132.639C49.9102 133.544 50.0078 134.309 50.2031 134.934C50.4049 135.559 50.7337 136.034 51.1895 136.359C51.6517 136.685 52.2702 136.848 53.0449 136.848C53.709 136.848 54.2624 136.669 54.7051 136.311C55.1478 135.952 55.4766 135.454 55.6914 134.816C55.9128 134.172 56.0234 133.433 56.0234 132.6C56.0234 131.337 55.776 130.334 55.2812 129.592C54.793 128.843 54.041 128.469 53.0254 128.469ZM69.7539 132.629C69.7539 133.508 69.64 134.292 69.4121 134.982C69.1842 135.673 68.8555 136.255 68.4258 136.73C67.9961 137.206 67.4753 137.57 66.8633 137.824C66.2578 138.072 65.571 138.195 64.8027 138.195C64.0866 138.195 63.429 138.072 62.8301 137.824C62.2376 137.57 61.7233 137.206 61.2871 136.73C60.8574 136.255 60.5221 135.673 60.2812 134.982C60.0469 134.292 59.9297 133.508 59.9297 132.629C59.9297 131.457 60.1283 130.461 60.5254 129.641C60.9225 128.814 61.4889 128.186 62.2246 127.756C62.9668 127.32 63.849 127.102 64.8711 127.102C65.8477 127.102 66.7005 127.32 67.4297 127.756C68.1654 128.192 68.735 128.824 69.1387 129.65C69.5488 130.471 69.7539 131.464 69.7539 132.629ZM61.6094 132.629C61.6094 133.488 61.7233 134.234 61.9512 134.865C62.179 135.497 62.5306 135.985 63.0059 136.33C63.4811 136.675 64.0931 136.848 64.8418 136.848C65.584 136.848 66.1927 136.675 66.668 136.33C67.1497 135.985 67.5046 135.497 67.7324 134.865C67.9603 134.234 68.0742 133.488 68.0742 132.629C68.0742 131.776 67.9603 131.04 67.7324 130.422C67.5046 129.797 67.153 129.315 66.6777 128.977C66.2025 128.638 65.5872 128.469 64.832 128.469C63.7188 128.469 62.9017 128.837 62.3809 129.572C61.8665 130.308 61.6094 131.327 61.6094 132.629ZM76.6777 127.102C77.5892 127.102 78.3704 127.303 79.0215 127.707C79.6725 128.111 80.1706 128.677 80.5156 129.406C80.8607 130.129 81.0332 130.975 81.0332 131.945V132.951H73.6406C73.6602 134.208 73.9727 135.165 74.5781 135.822C75.1836 136.48 76.0365 136.809 77.1367 136.809C77.8138 136.809 78.4128 136.747 78.9336 136.623C79.4544 136.499 79.9948 136.317 80.5547 136.076V137.502C80.0143 137.743 79.4772 137.919 78.9434 138.029C78.416 138.14 77.791 138.195 77.0684 138.195C76.0397 138.195 75.1413 137.987 74.373 137.57C73.6113 137.147 73.0189 136.529 72.5957 135.715C72.1725 134.901 71.9609 133.905 71.9609 132.727C71.9609 131.574 72.153 130.578 72.5371 129.738C72.9277 128.892 73.4746 128.241 74.1777 127.785C74.8874 127.329 75.7207 127.102 76.6777 127.102ZM76.6582 128.43C75.7923 128.43 75.1022 128.713 74.5879 129.279C74.0736 129.846 73.7676 130.637 73.6699 131.652H79.334C79.3275 131.014 79.2266 130.454 79.0312 129.973C78.8424 129.484 78.5527 129.107 78.1621 128.84C77.7715 128.566 77.2702 128.43 76.6582 128.43ZM90.0273 127.297H91.8145L87.1953 132.463L92.1855 138H90.2812L85.418 132.57V138H83.7871V127.297H85.418V132.492L90.0273 127.297ZM101.414 128.674H97.8887V138H96.2871V128.674H92.8105V127.297H101.414V128.674ZM103.533 138V127.297H105.164V131.711H108.094C109.005 131.711 109.754 131.825 110.34 132.053C110.932 132.281 111.372 132.619 111.658 133.068C111.945 133.518 112.088 134.074 112.088 134.738C112.088 135.402 111.945 135.979 111.658 136.467C111.378 136.955 110.936 137.333 110.33 137.6C109.731 137.867 108.95 138 107.986 138H103.533ZM105.164 136.682H107.83C108.637 136.682 109.282 136.538 109.764 136.252C110.245 135.965 110.486 135.487 110.486 134.816C110.486 134.159 110.262 133.703 109.812 133.449C109.363 133.189 108.719 133.059 107.879 133.059H105.164V136.682ZM113.855 138V127.297H115.477V138H113.855Z" fill="white"></path> <path d="M209.629 124.982C208.971 124.982 208.363 125.057 207.803 125.207C207.249 125.357 206.748 125.536 206.299 125.744L205.615 124.348C206.169 124.081 206.794 123.876 207.49 123.732C208.187 123.589 208.906 123.518 209.648 123.518C210.788 123.518 211.777 123.693 212.617 124.045C213.464 124.39 214.163 124.882 214.717 125.52C215.27 126.158 215.684 126.91 215.957 127.775C216.23 128.641 216.367 129.592 216.367 130.627C216.367 132.17 216.113 133.508 215.605 134.641C215.098 135.773 214.333 136.649 213.311 137.268C212.295 137.886 211.022 138.195 209.492 138.195C208.665 138.195 207.962 138.146 207.383 138.049C206.81 137.958 206.25 137.814 205.703 137.619V136.174C206.257 136.324 206.82 136.457 207.393 136.574C207.972 136.685 208.587 136.74 209.238 136.74C210.111 136.74 210.876 136.62 211.533 136.379C212.197 136.138 212.754 135.783 213.203 135.314C213.652 134.846 213.994 134.273 214.229 133.596C214.469 132.919 214.6 132.144 214.619 131.271H207.559V129.807H214.6C214.541 129.051 214.385 128.378 214.131 127.785C213.877 127.186 213.535 126.678 213.105 126.262C212.676 125.845 212.168 125.529 211.582 125.314C211.003 125.093 210.352 124.982 209.629 124.982ZM225.566 127.297H227.354L222.734 132.463L227.725 138H225.82L220.957 132.57V138H219.326V127.297H220.957V132.492L225.566 127.297ZM233.945 138.195C232.982 138.195 232.132 137.997 231.396 137.6C230.661 137.202 230.088 136.597 229.678 135.783C229.268 134.969 229.062 133.944 229.062 132.707C229.062 131.411 229.277 130.354 229.707 129.533C230.143 128.706 230.742 128.094 231.504 127.697C232.266 127.3 233.132 127.102 234.102 127.102C234.635 127.102 235.15 127.157 235.645 127.268C236.146 127.372 236.556 127.505 236.875 127.668L236.387 129.025C236.061 128.895 235.684 128.778 235.254 128.674C234.831 128.57 234.434 128.518 234.062 128.518C233.32 128.518 232.702 128.677 232.207 128.996C231.719 129.315 231.351 129.784 231.104 130.402C230.863 131.021 230.742 131.783 230.742 132.688C230.742 133.553 230.859 134.292 231.094 134.904C231.335 135.516 231.689 135.985 232.158 136.311C232.633 136.63 233.226 136.789 233.936 136.789C234.502 136.789 235.013 136.73 235.469 136.613C235.924 136.49 236.338 136.346 236.709 136.184V137.629C236.351 137.811 235.951 137.951 235.508 138.049C235.072 138.146 234.551 138.195 233.945 138.195ZM248.213 127.297V138H246.582V128.693H240.879V138H239.248V127.297H248.213ZM255.771 127.102C256.683 127.102 257.464 127.303 258.115 127.707C258.766 128.111 259.264 128.677 259.609 129.406C259.954 130.129 260.127 130.975 260.127 131.945V132.951H252.734C252.754 134.208 253.066 135.165 253.672 135.822C254.277 136.48 255.13 136.809 256.23 136.809C256.908 136.809 257.507 136.747 258.027 136.623C258.548 136.499 259.089 136.317 259.648 136.076V137.502C259.108 137.743 258.571 137.919 258.037 138.029C257.51 138.14 256.885 138.195 256.162 138.195C255.133 138.195 254.235 137.987 253.467 137.57C252.705 137.147 252.113 136.529 251.689 135.715C251.266 134.901 251.055 133.905 251.055 132.727C251.055 131.574 251.247 130.578 251.631 129.738C252.021 128.892 252.568 128.241 253.271 127.785C253.981 127.329 254.814 127.102 255.771 127.102ZM255.752 128.43C254.886 128.43 254.196 128.713 253.682 129.279C253.167 129.846 252.861 130.637 252.764 131.652H258.428C258.421 131.014 258.32 130.454 258.125 129.973C257.936 129.484 257.646 129.107 257.256 128.84C256.865 128.566 256.364 128.43 255.752 128.43ZM267.91 127.102C269.245 127.102 270.309 127.561 271.104 128.479C271.898 129.396 272.295 130.777 272.295 132.619C272.295 133.837 272.113 134.859 271.748 135.686C271.383 136.512 270.869 137.137 270.205 137.561C269.548 137.984 268.77 138.195 267.871 138.195C267.305 138.195 266.807 138.12 266.377 137.971C265.947 137.821 265.579 137.619 265.273 137.365C264.967 137.111 264.714 136.835 264.512 136.535H264.395C264.414 136.789 264.437 137.095 264.463 137.453C264.495 137.811 264.512 138.124 264.512 138.391V142.785H262.881V127.297H264.219L264.434 128.879H264.512C264.72 128.553 264.974 128.257 265.273 127.99C265.573 127.717 265.938 127.502 266.367 127.346C266.803 127.183 267.318 127.102 267.91 127.102ZM267.627 128.469C266.885 128.469 266.286 128.612 265.83 128.898C265.381 129.185 265.052 129.615 264.844 130.188C264.635 130.754 264.525 131.467 264.512 132.326V132.639C264.512 133.544 264.609 134.309 264.805 134.934C265.007 135.559 265.335 136.034 265.791 136.359C266.253 136.685 266.872 136.848 267.646 136.848C268.311 136.848 268.864 136.669 269.307 136.311C269.749 135.952 270.078 135.454 270.293 134.816C270.514 134.172 270.625 133.433 270.625 132.6C270.625 131.337 270.378 130.334 269.883 129.592C269.395 128.843 268.643 128.469 267.627 128.469ZM282.422 128.674H278.896V138H277.295V128.674H273.818V127.297H282.422V128.674ZM284.541 138V127.297H286.172V131.711H289.102C290.013 131.711 290.762 131.825 291.348 132.053C291.94 132.281 292.38 132.619 292.666 133.068C292.952 133.518 293.096 134.074 293.096 134.738C293.096 135.402 292.952 135.979 292.666 136.467C292.386 136.955 291.943 137.333 291.338 137.6C290.739 137.867 289.958 138 288.994 138H284.541ZM286.172 136.682H288.838C289.645 136.682 290.29 136.538 290.771 136.252C291.253 135.965 291.494 135.487 291.494 134.816C291.494 134.159 291.27 133.703 290.82 133.449C290.371 133.189 289.727 133.059 288.887 133.059H286.172V136.682ZM294.863 138V127.297H296.484V138H294.863Z" fill="white"></path> <path d="M44.1875 246H42.1758L35.6133 238.754V246H33.9531V231.723H35.6133V238.637L42.0098 231.723H43.9141L37.5957 238.656L44.1875 246ZM55.1445 240.629C55.1445 241.508 55.0306 242.292 54.8027 242.982C54.5749 243.673 54.2461 244.255 53.8164 244.73C53.3867 245.206 52.8659 245.57 52.2539 245.824C51.6484 246.072 50.9616 246.195 50.1934 246.195C49.4772 246.195 48.8197 246.072 48.2207 245.824C47.6283 245.57 47.1139 245.206 46.6777 244.73C46.248 244.255 45.9128 243.673 45.6719 242.982C45.4375 242.292 45.3203 241.508 45.3203 240.629C45.3203 239.457 45.5189 238.461 45.916 237.641C46.3132 236.814 46.8796 236.186 47.6152 235.756C48.3574 235.32 49.2396 235.102 50.2617 235.102C51.2383 235.102 52.0911 235.32 52.8203 235.756C53.556 236.192 54.1257 236.824 54.5293 237.65C54.9395 238.471 55.1445 239.464 55.1445 240.629ZM47 240.629C47 241.488 47.1139 242.234 47.3418 242.865C47.5697 243.497 47.9212 243.985 48.3965 244.33C48.8717 244.675 49.4837 244.848 50.2324 244.848C50.9746 244.848 51.5833 244.675 52.0586 244.33C52.5404 243.985 52.8952 243.497 53.123 242.865C53.3509 242.234 53.4648 241.488 53.4648 240.629C53.4648 239.776 53.3509 239.04 53.123 238.422C52.8952 237.797 52.5436 237.315 52.0684 236.977C51.5931 236.638 50.9779 236.469 50.2227 236.469C49.1094 236.469 48.2923 236.837 47.7715 237.572C47.2572 238.308 47 239.327 47 240.629ZM69.2461 235.297V246H67.7812V239.027C67.7812 238.741 67.7878 238.451 67.8008 238.158C67.8203 237.859 67.8431 237.559 67.8691 237.26H67.8105L64.2559 246H62.8789L59.4121 237.26H59.3535C59.373 237.559 59.3861 237.859 59.3926 238.158C59.4056 238.451 59.4121 238.76 59.4121 239.086V246H57.9375V235.297H60.1152L63.5723 244.047L67.0781 235.297H69.2461ZM76.6191 235.121C77.8952 235.121 78.8424 235.408 79.4609 235.98C80.0794 236.553 80.3887 237.468 80.3887 238.725V246H79.207L78.8945 244.418H78.8164C78.5169 244.809 78.2044 245.137 77.8789 245.404C77.5534 245.665 77.1758 245.863 76.7461 246C76.3229 246.13 75.8021 246.195 75.1836 246.195C74.5326 246.195 73.9531 246.081 73.4453 245.854C72.944 245.626 72.5469 245.281 72.2539 244.818C71.9674 244.356 71.8242 243.77 71.8242 243.061C71.8242 241.993 72.2474 241.173 73.0938 240.6C73.9401 240.027 75.2292 239.714 76.9609 239.662L78.8066 239.584V238.93C78.8066 238.005 78.6081 237.357 78.2109 236.986C77.8138 236.615 77.2539 236.43 76.5312 236.43C75.9714 236.43 75.4375 236.511 74.9297 236.674C74.4219 236.837 73.9401 237.029 73.4844 237.25L72.9863 236.02C73.4681 235.772 74.0215 235.561 74.6465 235.385C75.2715 235.209 75.929 235.121 76.6191 235.121ZM78.7871 240.727L77.1562 240.795C75.8216 240.847 74.8809 241.065 74.334 241.449C73.7871 241.833 73.5137 242.377 73.5137 243.08C73.5137 243.692 73.6992 244.145 74.0703 244.438C74.4414 244.73 74.9329 244.877 75.5449 244.877C76.4954 244.877 77.2734 244.613 77.8789 244.086C78.4844 243.559 78.7871 242.768 78.7871 241.713V240.727ZM85.3594 235.297V239.789H91.3262V235.297H92.9473V246H91.3262V241.166H85.3594V246H83.7285V235.297H85.3594ZM104.227 235.297V244.623H105.76V249.701H104.188V246H96.6094V249.701H95.0566V244.623H95.8965C96.5085 243.777 97.0163 242.849 97.4199 241.84C97.8236 240.831 98.1296 239.773 98.3379 238.666C98.5462 237.553 98.6569 236.43 98.6699 235.297H104.227ZM102.654 236.586H100.115C100.057 237.536 99.9167 238.503 99.6953 239.486C99.4805 240.469 99.194 241.407 98.8359 242.299C98.4779 243.184 98.0612 243.959 97.5859 244.623H102.654V236.586ZM107.889 246V235.297H109.52V239.711H112.449C113.361 239.711 114.109 239.825 114.695 240.053C115.288 240.281 115.727 240.619 116.014 241.068C116.3 241.518 116.443 242.074 116.443 242.738C116.443 243.402 116.3 243.979 116.014 244.467C115.734 244.955 115.291 245.333 114.686 245.6C114.087 245.867 113.305 246 112.342 246H107.889ZM109.52 244.682H112.186C112.993 244.682 113.637 244.538 114.119 244.252C114.601 243.965 114.842 243.487 114.842 242.816C114.842 242.159 114.617 241.703 114.168 241.449C113.719 241.189 113.074 241.059 112.234 241.059H109.52V244.682ZM118.211 246V235.297H119.832V246H118.211Z" fill="white"></path> <path d="M33.9531 192V177.723H44.5879V192H42.9473V179.188H35.6133V192H33.9531ZM53.3086 181.102C54.6432 181.102 55.7077 181.561 56.502 182.479C57.2962 183.396 57.6934 184.777 57.6934 186.619C57.6934 187.837 57.5111 188.859 57.1465 189.686C56.7819 190.512 56.2676 191.137 55.6035 191.561C54.946 191.984 54.168 192.195 53.2695 192.195C52.7031 192.195 52.2051 192.12 51.7754 191.971C51.3457 191.821 50.9779 191.619 50.6719 191.365C50.3659 191.111 50.112 190.835 49.9102 190.535H49.793C49.8125 190.789 49.8353 191.095 49.8613 191.453C49.8939 191.811 49.9102 192.124 49.9102 192.391V196.785H48.2793V181.297H49.6172L49.832 182.879H49.9102C50.1185 182.553 50.3724 182.257 50.6719 181.99C50.9714 181.717 51.3359 181.502 51.7656 181.346C52.2018 181.183 52.7161 181.102 53.3086 181.102ZM53.0254 182.469C52.2832 182.469 51.6842 182.612 51.2285 182.898C50.7793 183.185 50.4505 183.615 50.2422 184.188C50.0339 184.754 49.9232 185.467 49.9102 186.326V186.639C49.9102 187.544 50.0078 188.309 50.2031 188.934C50.4049 189.559 50.7337 190.034 51.1895 190.359C51.6517 190.685 52.2702 190.848 53.0449 190.848C53.709 190.848 54.2624 190.669 54.7051 190.311C55.1478 189.952 55.4766 189.454 55.6914 188.816C55.9128 188.172 56.0234 187.433 56.0234 186.6C56.0234 185.337 55.776 184.334 55.2812 183.592C54.793 182.843 54.041 182.469 53.0254 182.469ZM69.7539 186.629C69.7539 187.508 69.64 188.292 69.4121 188.982C69.1842 189.673 68.8555 190.255 68.4258 190.73C67.9961 191.206 67.4753 191.57 66.8633 191.824C66.2578 192.072 65.571 192.195 64.8027 192.195C64.0866 192.195 63.429 192.072 62.8301 191.824C62.2376 191.57 61.7233 191.206 61.2871 190.73C60.8574 190.255 60.5221 189.673 60.2812 188.982C60.0469 188.292 59.9297 187.508 59.9297 186.629C59.9297 185.457 60.1283 184.461 60.5254 183.641C60.9225 182.814 61.4889 182.186 62.2246 181.756C62.9668 181.32 63.849 181.102 64.8711 181.102C65.8477 181.102 66.7005 181.32 67.4297 181.756C68.1654 182.192 68.735 182.824 69.1387 183.65C69.5488 184.471 69.7539 185.464 69.7539 186.629ZM61.6094 186.629C61.6094 187.488 61.7233 188.234 61.9512 188.865C62.179 189.497 62.5306 189.985 63.0059 190.33C63.4811 190.675 64.0931 190.848 64.8418 190.848C65.584 190.848 66.1927 190.675 66.668 190.33C67.1497 189.985 67.5046 189.497 67.7324 188.865C67.9603 188.234 68.0742 187.488 68.0742 186.629C68.0742 185.776 67.9603 185.04 67.7324 184.422C67.5046 183.797 67.153 183.315 66.6777 182.977C66.2025 182.638 65.5872 182.469 64.832 182.469C63.7188 182.469 62.9017 182.837 62.3809 183.572C61.8665 184.308 61.6094 185.327 61.6094 186.629ZM80.3984 181.297V190.623H81.9316V195.701H80.3594V192H72.7812V195.701H71.2285V190.623H72.0684C72.6803 189.777 73.1882 188.849 73.5918 187.84C73.9954 186.831 74.3014 185.773 74.5098 184.666C74.7181 183.553 74.8288 182.43 74.8418 181.297H80.3984ZM78.8262 182.586H76.2871C76.2285 183.536 76.0885 184.503 75.8672 185.486C75.6523 186.469 75.3659 187.407 75.0078 188.299C74.6497 189.184 74.2331 189.959 73.7578 190.623H78.8262V182.586ZM88.0645 181.121C89.3405 181.121 90.2878 181.408 90.9062 181.98C91.5247 182.553 91.834 183.468 91.834 184.725V192H90.6523L90.3398 190.418H90.2617C89.9622 190.809 89.6497 191.137 89.3242 191.404C88.9987 191.665 88.6211 191.863 88.1914 192C87.7682 192.13 87.2474 192.195 86.6289 192.195C85.9779 192.195 85.3984 192.081 84.8906 191.854C84.3893 191.626 83.9922 191.281 83.6992 190.818C83.4128 190.356 83.2695 189.77 83.2695 189.061C83.2695 187.993 83.6927 187.173 84.5391 186.6C85.3854 186.027 86.6745 185.714 88.4062 185.662L90.252 185.584V184.93C90.252 184.005 90.0534 183.357 89.6562 182.986C89.2591 182.615 88.6992 182.43 87.9766 182.43C87.4167 182.43 86.8828 182.511 86.375 182.674C85.8672 182.837 85.3854 183.029 84.9297 183.25L84.4316 182.02C84.9134 181.772 85.4668 181.561 86.0918 181.385C86.7168 181.209 87.3743 181.121 88.0645 181.121ZM90.2324 186.727L88.6016 186.795C87.2669 186.847 86.3262 187.065 85.7793 187.449C85.2324 187.833 84.959 188.377 84.959 189.08C84.959 189.692 85.1445 190.145 85.5156 190.438C85.8867 190.73 86.3783 190.877 86.9902 190.877C87.9408 190.877 88.7188 190.613 89.3242 190.086C89.9297 189.559 90.2324 188.768 90.2324 187.713V186.727ZM107.713 181.297L103.26 186.502L108.094 192H106.238L101.551 186.57V192H100.037V186.57L95.3594 192H93.5039L98.3379 186.502L93.875 181.297H95.6621L100.037 186.492V181.297H101.551V186.492L105.945 181.297H107.713ZM111.424 181.297V188.025C111.424 188.156 111.421 188.325 111.414 188.533C111.408 188.735 111.398 188.953 111.385 189.188C111.372 189.415 111.359 189.637 111.346 189.852C111.339 190.06 111.329 190.232 111.316 190.369L117.156 181.297H119.148V192H117.635V185.438C117.635 185.229 117.638 184.962 117.645 184.637C117.651 184.311 117.661 183.992 117.674 183.68C117.687 183.361 117.697 183.113 117.703 182.938L111.883 192H109.881V181.297H111.424Z" fill="white"></path> <path d="M215.908 192L214.15 187.469H208.428L206.68 192H205L210.586 177.664H212.08L217.627 192H215.908ZM213.652 185.994L211.982 181.492C211.943 181.375 211.878 181.183 211.787 180.916C211.702 180.649 211.615 180.372 211.523 180.086C211.432 179.799 211.357 179.568 211.299 179.393C211.234 179.66 211.162 179.926 211.084 180.193C211.012 180.454 210.941 180.698 210.869 180.926C210.798 181.147 210.736 181.336 210.684 181.492L208.984 185.994H213.652ZM225.859 181.297V182.674H220.996V192H219.365V181.297H225.859ZM232.119 181.102C233.031 181.102 233.812 181.303 234.463 181.707C235.114 182.111 235.612 182.677 235.957 183.406C236.302 184.129 236.475 184.975 236.475 185.945V186.951H229.082C229.102 188.208 229.414 189.165 230.02 189.822C230.625 190.48 231.478 190.809 232.578 190.809C233.255 190.809 233.854 190.747 234.375 190.623C234.896 190.499 235.436 190.317 235.996 190.076V191.502C235.456 191.743 234.919 191.919 234.385 192.029C233.857 192.14 233.232 192.195 232.51 192.195C231.481 192.195 230.583 191.987 229.814 191.57C229.053 191.147 228.46 190.529 228.037 189.715C227.614 188.901 227.402 187.905 227.402 186.727C227.402 185.574 227.594 184.578 227.979 183.738C228.369 182.892 228.916 182.241 229.619 181.785C230.329 181.329 231.162 181.102 232.119 181.102ZM232.1 182.43C231.234 182.43 230.544 182.713 230.029 183.279C229.515 183.846 229.209 184.637 229.111 185.652H234.775C234.769 185.014 234.668 184.454 234.473 183.973C234.284 183.484 233.994 183.107 233.604 182.84C233.213 182.566 232.712 182.43 232.1 182.43ZM240.859 181.297V185.789H246.826V181.297H248.447V192H246.826V187.166H240.859V192H239.229V181.297H240.859ZM259.18 182.674H255.654V192H254.053V182.674H250.576V181.297H259.18V182.674ZM265.586 192.195C264.622 192.195 263.773 191.997 263.037 191.6C262.301 191.202 261.729 190.597 261.318 189.783C260.908 188.969 260.703 187.944 260.703 186.707C260.703 185.411 260.918 184.354 261.348 183.533C261.784 182.706 262.383 182.094 263.145 181.697C263.906 181.3 264.772 181.102 265.742 181.102C266.276 181.102 266.79 181.157 267.285 181.268C267.786 181.372 268.197 181.505 268.516 181.668L268.027 183.025C267.702 182.895 267.324 182.778 266.895 182.674C266.471 182.57 266.074 182.518 265.703 182.518C264.961 182.518 264.342 182.677 263.848 182.996C263.359 183.315 262.992 183.784 262.744 184.402C262.503 185.021 262.383 185.783 262.383 186.688C262.383 187.553 262.5 188.292 262.734 188.904C262.975 189.516 263.33 189.985 263.799 190.311C264.274 190.63 264.867 190.789 265.576 190.789C266.143 190.789 266.654 190.73 267.109 190.613C267.565 190.49 267.979 190.346 268.35 190.184V191.629C267.992 191.811 267.591 191.951 267.148 192.049C266.712 192.146 266.191 192.195 265.586 192.195ZM278.184 182.674H274.658V192H273.057V182.674H269.58V181.297H278.184V182.674ZM288.809 183.982C288.809 184.653 288.613 185.177 288.223 185.555C287.832 185.926 287.327 186.176 286.709 186.307V186.385C287.38 186.476 287.956 186.717 288.438 187.107C288.926 187.492 289.17 188.081 289.17 188.875C289.17 189.487 289.023 190.027 288.73 190.496C288.438 190.965 287.979 191.333 287.354 191.6C286.729 191.867 285.915 192 284.912 192H280.303V181.297H284.873C285.641 181.297 286.318 181.385 286.904 181.561C287.497 181.73 287.962 182.01 288.301 182.4C288.639 182.791 288.809 183.318 288.809 183.982ZM287.48 188.875C287.48 188.243 287.24 187.788 286.758 187.508C286.283 187.228 285.589 187.088 284.678 187.088H281.934V190.682H284.717C285.615 190.682 286.299 190.545 286.768 190.271C287.243 189.992 287.48 189.526 287.48 188.875ZM287.158 184.168C287.158 183.66 286.973 183.283 286.602 183.035C286.23 182.781 285.622 182.654 284.775 182.654H281.934V185.73H284.492C285.371 185.73 286.035 185.604 286.484 185.35C286.934 185.096 287.158 184.702 287.158 184.168ZM301.016 186.629C301.016 187.508 300.902 188.292 300.674 188.982C300.446 189.673 300.117 190.255 299.688 190.73C299.258 191.206 298.737 191.57 298.125 191.824C297.52 192.072 296.833 192.195 296.064 192.195C295.348 192.195 294.691 192.072 294.092 191.824C293.499 191.57 292.985 191.206 292.549 190.73C292.119 190.255 291.784 189.673 291.543 188.982C291.309 188.292 291.191 187.508 291.191 186.629C291.191 185.457 291.39 184.461 291.787 183.641C292.184 182.814 292.751 182.186 293.486 181.756C294.229 181.32 295.111 181.102 296.133 181.102C297.109 181.102 297.962 181.32 298.691 181.756C299.427 182.192 299.997 182.824 300.4 183.65C300.811 184.471 301.016 185.464 301.016 186.629ZM292.871 186.629C292.871 187.488 292.985 188.234 293.213 188.865C293.441 189.497 293.792 189.985 294.268 190.33C294.743 190.675 295.355 190.848 296.104 190.848C296.846 190.848 297.454 190.675 297.93 190.33C298.411 189.985 298.766 189.497 298.994 188.865C299.222 188.234 299.336 187.488 299.336 186.629C299.336 185.776 299.222 185.04 298.994 184.422C298.766 183.797 298.415 183.315 297.939 182.977C297.464 182.638 296.849 182.469 296.094 182.469C294.98 182.469 294.163 182.837 293.643 183.572C293.128 184.308 292.871 185.327 292.871 186.629Z" fill="white"></path> <path d="M216.465 231.723V244.516H218.223V249.73H216.631V246H206.709V249.73H205.117V244.516H206.211C206.699 243.682 207.155 242.748 207.578 241.713C208.008 240.671 208.389 239.584 208.721 238.451C209.059 237.312 209.333 236.169 209.541 235.023C209.756 233.878 209.893 232.777 209.951 231.723H216.465ZM214.814 233.217H211.416C211.357 234.024 211.227 234.926 211.025 235.922C210.824 236.911 210.563 237.927 210.244 238.969C209.932 240.01 209.58 241.01 209.189 241.967C208.805 242.924 208.398 243.773 207.969 244.516H214.814V233.217ZM224.521 235.102C225.433 235.102 226.214 235.303 226.865 235.707C227.516 236.111 228.014 236.677 228.359 237.406C228.704 238.129 228.877 238.975 228.877 239.945V240.951H221.484C221.504 242.208 221.816 243.165 222.422 243.822C223.027 244.48 223.88 244.809 224.98 244.809C225.658 244.809 226.257 244.747 226.777 244.623C227.298 244.499 227.839 244.317 228.398 244.076V245.502C227.858 245.743 227.321 245.919 226.787 246.029C226.26 246.14 225.635 246.195 224.912 246.195C223.883 246.195 222.985 245.987 222.217 245.57C221.455 245.147 220.863 244.529 220.439 243.715C220.016 242.901 219.805 241.905 219.805 240.727C219.805 239.574 219.997 238.578 220.381 237.738C220.771 236.892 221.318 236.241 222.021 235.785C222.731 235.329 223.564 235.102 224.521 235.102ZM224.502 236.43C223.636 236.43 222.946 236.713 222.432 237.279C221.917 237.846 221.611 238.637 221.514 239.652H227.178C227.171 239.014 227.07 238.454 226.875 237.973C226.686 237.484 226.396 237.107 226.006 236.84C225.615 236.566 225.114 236.43 224.502 236.43ZM240.137 237.982C240.137 238.653 239.941 239.177 239.551 239.555C239.16 239.926 238.656 240.176 238.037 240.307V240.385C238.708 240.476 239.284 240.717 239.766 241.107C240.254 241.492 240.498 242.081 240.498 242.875C240.498 243.487 240.352 244.027 240.059 244.496C239.766 244.965 239.307 245.333 238.682 245.6C238.057 245.867 237.243 246 236.24 246H231.631V235.297H236.201C236.969 235.297 237.646 235.385 238.232 235.561C238.825 235.73 239.29 236.01 239.629 236.4C239.967 236.791 240.137 237.318 240.137 237.982ZM238.809 242.875C238.809 242.243 238.568 241.788 238.086 241.508C237.611 241.228 236.917 241.088 236.006 241.088H233.262V244.682H236.045C236.943 244.682 237.627 244.545 238.096 244.271C238.571 243.992 238.809 243.526 238.809 242.875ZM238.486 238.168C238.486 237.66 238.301 237.283 237.93 237.035C237.559 236.781 236.95 236.654 236.104 236.654H233.262V239.73H235.82C236.699 239.73 237.363 239.604 237.812 239.35C238.262 239.096 238.486 238.702 238.486 238.168ZM247.236 235.102C248.148 235.102 248.929 235.303 249.58 235.707C250.231 236.111 250.729 236.677 251.074 237.406C251.419 238.129 251.592 238.975 251.592 239.945V240.951H244.199C244.219 242.208 244.531 243.165 245.137 243.822C245.742 244.48 246.595 244.809 247.695 244.809C248.372 244.809 248.971 244.747 249.492 244.623C250.013 244.499 250.553 244.317 251.113 244.076V245.502C250.573 245.743 250.036 245.919 249.502 246.029C248.975 246.14 248.35 246.195 247.627 246.195C246.598 246.195 245.7 245.987 244.932 245.57C244.17 245.147 243.577 244.529 243.154 243.715C242.731 242.901 242.52 241.905 242.52 240.727C242.52 239.574 242.712 238.578 243.096 237.738C243.486 236.892 244.033 236.241 244.736 235.785C245.446 235.329 246.279 235.102 247.236 235.102ZM247.217 236.43C246.351 236.43 245.661 236.713 245.146 237.279C244.632 237.846 244.326 238.637 244.229 239.652H249.893C249.886 239.014 249.785 238.454 249.59 237.973C249.401 237.484 249.111 237.107 248.721 236.84C248.33 236.566 247.829 236.43 247.217 236.43ZM262.373 246H260.723V236.654H257.471C257.34 238.34 257.174 239.786 256.973 240.99C256.777 242.188 256.53 243.168 256.23 243.93C255.938 244.685 255.579 245.242 255.156 245.6C254.74 245.951 254.242 246.127 253.662 246.127C253.486 246.127 253.32 246.117 253.164 246.098C253.008 246.078 252.874 246.046 252.764 246V244.77C252.848 244.796 252.936 244.815 253.027 244.828C253.125 244.841 253.226 244.848 253.33 244.848C253.623 244.848 253.89 244.727 254.131 244.486C254.378 244.239 254.6 243.868 254.795 243.373C254.997 242.878 255.176 242.253 255.332 241.498C255.488 240.736 255.625 239.841 255.742 238.812C255.866 237.777 255.973 236.605 256.064 235.297H262.373V246ZM275.02 240.629C275.02 241.508 274.906 242.292 274.678 242.982C274.45 243.673 274.121 244.255 273.691 244.73C273.262 245.206 272.741 245.57 272.129 245.824C271.523 246.072 270.837 246.195 270.068 246.195C269.352 246.195 268.695 246.072 268.096 245.824C267.503 245.57 266.989 245.206 266.553 244.73C266.123 244.255 265.788 243.673 265.547 242.982C265.312 242.292 265.195 241.508 265.195 240.629C265.195 239.457 265.394 238.461 265.791 237.641C266.188 236.814 266.755 236.186 267.49 235.756C268.232 235.32 269.115 235.102 270.137 235.102C271.113 235.102 271.966 235.32 272.695 235.756C273.431 236.192 274.001 236.824 274.404 237.65C274.814 238.471 275.02 239.464 275.02 240.629ZM266.875 240.629C266.875 241.488 266.989 242.234 267.217 242.865C267.445 243.497 267.796 243.985 268.271 244.33C268.747 244.675 269.359 244.848 270.107 244.848C270.85 244.848 271.458 244.675 271.934 244.33C272.415 243.985 272.77 243.497 272.998 242.865C273.226 242.234 273.34 241.488 273.34 240.629C273.34 239.776 273.226 239.04 272.998 238.422C272.77 237.797 272.419 237.315 271.943 236.977C271.468 236.638 270.853 236.469 270.098 236.469C268.984 236.469 268.167 236.837 267.646 237.572C267.132 238.308 266.875 239.327 266.875 240.629ZM286.787 235.297V246H285.156V236.693H279.453V246H277.822V235.297H286.787ZM294.346 235.102C295.257 235.102 296.038 235.303 296.689 235.707C297.34 236.111 297.839 236.677 298.184 237.406C298.529 238.129 298.701 238.975 298.701 239.945V240.951H291.309C291.328 242.208 291.641 243.165 292.246 243.822C292.852 244.48 293.704 244.809 294.805 244.809C295.482 244.809 296.081 244.747 296.602 244.623C297.122 244.499 297.663 244.317 298.223 244.076V245.502C297.682 245.743 297.145 245.919 296.611 246.029C296.084 246.14 295.459 246.195 294.736 246.195C293.708 246.195 292.809 245.987 292.041 245.57C291.279 245.147 290.687 244.529 290.264 243.715C289.84 242.901 289.629 241.905 289.629 240.727C289.629 239.574 289.821 238.578 290.205 237.738C290.596 236.892 291.143 236.241 291.846 235.785C292.555 235.329 293.389 235.102 294.346 235.102ZM294.326 236.43C293.46 236.43 292.77 236.713 292.256 237.279C291.742 237.846 291.436 238.637 291.338 239.652H297.002C296.995 239.014 296.895 238.454 296.699 237.973C296.51 237.484 296.221 237.107 295.83 236.84C295.439 236.566 294.938 236.43 294.326 236.43ZM306.484 235.102C307.819 235.102 308.883 235.561 309.678 236.479C310.472 237.396 310.869 238.777 310.869 240.619C310.869 241.837 310.687 242.859 310.322 243.686C309.958 244.512 309.443 245.137 308.779 245.561C308.122 245.984 307.344 246.195 306.445 246.195C305.879 246.195 305.381 246.12 304.951 245.971C304.521 245.821 304.154 245.619 303.848 245.365C303.542 245.111 303.288 244.835 303.086 244.535H302.969C302.988 244.789 303.011 245.095 303.037 245.453C303.07 245.811 303.086 246.124 303.086 246.391V250.785H301.455V235.297H302.793L303.008 236.879H303.086C303.294 236.553 303.548 236.257 303.848 235.99C304.147 235.717 304.512 235.502 304.941 235.346C305.378 235.183 305.892 235.102 306.484 235.102ZM306.201 236.469C305.459 236.469 304.86 236.612 304.404 236.898C303.955 237.185 303.626 237.615 303.418 238.188C303.21 238.754 303.099 239.467 303.086 240.326V240.639C303.086 241.544 303.184 242.309 303.379 242.934C303.581 243.559 303.91 244.034 304.365 244.359C304.827 244.685 305.446 244.848 306.221 244.848C306.885 244.848 307.438 244.669 307.881 244.311C308.324 243.952 308.652 243.454 308.867 242.816C309.089 242.172 309.199 241.433 309.199 240.6C309.199 239.337 308.952 238.334 308.457 237.592C307.969 236.843 307.217 236.469 306.201 236.469Z" fill="white"></path> <line x1="174.993" y1="114.998" x2="174.993" y2="264.002" stroke="#F49695"></line> <line x1="381" y1="157.5" x2="32" y2="157.5" stroke="#F49695"></line> <line x1="381" y1="211.5" x2="32" y2="211.5" stroke="#F49695"></line> </svg> 