<?xml version="1.0" encoding="UTF-8"?> <svg xmlns="http://www.w3.org/2000/svg" width="54" height="54" viewBox="0 0 54 54" fill="none"> <path fill-rule="evenodd" clip-rule="evenodd" d="M0 27C0 41.9117 12.0883 54 27 54C41.9117 54 54 41.9117 54 27C54 12.0883 41.9117 0 27 0C12.0883 0 0 12.0883 0 27ZM22.0501 39.3749L22.5095 32.4925L22.5091 32.4922L35.0291 21.1938C35.5786 20.7061 34.9092 20.4683 34.1797 20.9107L18.7283 30.6588L12.0541 28.5757C10.6128 28.1343 10.6025 27.1439 12.3777 26.4319L38.3855 16.4034C39.5733 15.8641 40.7198 16.6887 40.2663 18.5067L35.8372 39.3784C35.5279 40.8616 34.6318 41.2163 33.3901 40.5312L26.6432 35.5465L23.4001 38.6999C23.3899 38.7099 23.3797 38.7198 23.3696 38.7296C23.0069 39.0828 22.7068 39.3749 22.0501 39.3749Z" fill="white"></path> </svg> 