<?xml version="1.0" encoding="UTF-8"?> <svg xmlns="http://www.w3.org/2000/svg" width="560" height="448" viewBox="0 0 560 448" fill="none"> <rect width="560" height="448" rx="16" fill="#F8F8F8"></rect> <path d="M47.2305 277.867C49.4414 277.867 51.0547 278.32 52.0703 279.227C53.0859 280.133 53.5938 281.402 53.5938 283.035C53.5938 283.777 53.4766 284.484 53.2422 285.156C53.0156 285.82 52.6406 286.41 52.1172 286.926C51.5938 287.434 50.9023 287.836 50.043 288.133C49.1914 288.43 48.1406 288.578 46.8906 288.578H45.0625V295H42.25V277.867H47.2305ZM47.043 280.199H45.0625V286.234H46.5977C47.4805 286.234 48.2305 286.133 48.8477 285.93C49.4648 285.719 49.9336 285.387 50.2539 284.934C50.5742 284.48 50.7344 283.883 50.7344 283.141C50.7344 282.148 50.4336 281.41 49.832 280.926C49.2383 280.441 48.3086 280.199 47.043 280.199ZM68.2188 288.484C68.2188 289.562 68.0781 290.52 67.7969 291.355C67.5156 292.191 67.1055 292.898 66.5664 293.477C66.0273 294.047 65.3789 294.484 64.6211 294.789C63.8633 295.086 63.0078 295.234 62.0547 295.234C61.1641 295.234 60.3477 295.086 59.6055 294.789C58.8633 294.484 58.2188 294.047 57.6719 293.477C57.1328 292.898 56.7148 292.191 56.418 291.355C56.1211 290.52 55.9727 289.562 55.9727 288.484C55.9727 287.055 56.2188 285.844 56.7109 284.852C57.2109 283.852 57.9219 283.09 58.8438 282.566C59.7656 282.043 60.8633 281.781 62.1367 281.781C63.332 281.781 64.3867 282.043 65.3008 282.566C66.2148 283.09 66.9297 283.852 67.4453 284.852C67.9609 285.852 68.2188 287.062 68.2188 288.484ZM58.8086 288.484C58.8086 289.43 58.9219 290.238 59.1484 290.91C59.3828 291.582 59.7422 292.098 60.2266 292.457C60.7109 292.809 61.3359 292.984 62.1016 292.984C62.8672 292.984 63.4922 292.809 63.9766 292.457C64.4609 292.098 64.8164 291.582 65.043 290.91C65.2695 290.238 65.3828 289.43 65.3828 288.484C65.3828 287.539 65.2695 286.738 65.043 286.082C64.8164 285.418 64.4609 284.914 63.9766 284.57C63.4922 284.219 62.8633 284.043 62.0898 284.043C60.9492 284.043 60.1172 284.426 59.5938 285.191C59.0703 285.957 58.8086 287.055 58.8086 288.484ZM76.4688 281.781C78.1094 281.781 79.3477 282.145 80.1836 282.871C81.0273 283.598 81.4492 284.73 81.4492 286.27V295H79.4922L78.9648 293.16H78.8711C78.5039 293.629 78.125 294.016 77.7344 294.32C77.3438 294.625 76.8906 294.852 76.375 295C75.8672 295.156 75.2461 295.234 74.5117 295.234C73.7383 295.234 73.0469 295.094 72.4375 294.812C71.8281 294.523 71.3477 294.086 70.9961 293.5C70.6445 292.914 70.4688 292.172 70.4688 291.273C70.4688 289.938 70.9648 288.934 71.957 288.262C72.957 287.59 74.4648 287.219 76.4805 287.148L78.7305 287.066V286.387C78.7305 285.488 78.5195 284.848 78.0977 284.465C77.6836 284.082 77.0977 283.891 76.3398 283.891C75.6914 283.891 75.0625 283.984 74.4531 284.172C73.8438 284.359 73.25 284.59 72.6719 284.863L71.7812 282.918C72.4141 282.582 73.1328 282.309 73.9375 282.098C74.75 281.887 75.5938 281.781 76.4688 281.781ZM78.7188 288.801L77.043 288.859C75.668 288.906 74.7031 289.141 74.1484 289.562C73.5938 289.984 73.3164 290.562 73.3164 291.297C73.3164 291.938 73.5078 292.406 73.8906 292.703C74.2734 292.992 74.7773 293.137 75.4023 293.137C76.3555 293.137 77.1445 292.867 77.7695 292.328C78.4023 291.781 78.7188 290.98 78.7188 289.926V288.801ZM95.8984 282.027V292.867H97.7734V299.57H95.2305V295H86.2773V299.57H83.7344V292.867H84.7891C85.4453 291.914 85.9922 290.852 86.4297 289.68C86.875 288.508 87.2188 287.273 87.4609 285.977C87.7109 284.672 87.8672 283.355 87.9297 282.027H95.8984ZM93.168 284.137H90.2969C90.2031 285.191 90.043 286.242 89.8164 287.289C89.5898 288.328 89.2969 289.324 88.9375 290.277C88.5859 291.223 88.1641 292.086 87.6719 292.867H93.168V284.137ZM115.223 282.027V295H112.668V287.594C112.668 287.109 112.68 286.625 112.703 286.141C112.727 285.656 112.758 285.195 112.797 284.758H112.727L108.777 295H106.609L102.695 284.746H102.613C102.652 285.191 102.68 285.652 102.695 286.129C102.719 286.605 102.73 287.121 102.73 287.676V295H100.176V282.027H104.02L107.723 291.719L111.484 282.027H115.223ZM121.68 295.234C120.906 295.234 120.223 295.172 119.629 295.047C119.035 294.93 118.484 294.742 117.977 294.484V292.246C118.508 292.473 119.07 292.668 119.664 292.832C120.266 292.988 120.91 293.066 121.598 293.066C122.309 293.066 122.922 292.938 123.438 292.68C123.953 292.414 124.359 292.008 124.656 291.461C124.953 290.914 125.129 290.219 125.184 289.375H119.453V287.383H125.172C125.094 286.227 124.785 285.367 124.246 284.805C123.707 284.234 122.922 283.949 121.891 283.949C121.375 283.949 120.852 284.02 120.32 284.16C119.789 284.293 119.305 284.449 118.867 284.629L118.094 282.613C118.57 282.395 119.148 282.203 119.828 282.039C120.508 281.867 121.215 281.781 121.949 281.781C123.129 281.781 124.176 281.996 125.09 282.426C126.004 282.848 126.723 283.543 127.246 284.512C127.77 285.48 128.031 286.785 128.031 288.426C128.031 289.957 127.773 291.227 127.258 292.234C126.742 293.242 126.008 293.996 125.055 294.496C124.109 294.988 122.984 295.234 121.68 295.234ZM142.527 282.027V295H139.75V284.207H133.961V295H131.195V282.027H142.527ZM164.043 282.027V295H161.266V284.207H155.477V295H152.711V282.027H164.043ZM174.648 281.781C176.188 281.781 177.422 282.344 178.352 283.469C179.289 284.594 179.758 286.266 179.758 288.484C179.758 289.953 179.539 291.191 179.102 292.199C178.672 293.199 178.066 293.957 177.285 294.473C176.512 294.98 175.609 295.234 174.578 295.234C173.922 295.234 173.352 295.148 172.867 294.977C172.383 294.805 171.969 294.582 171.625 294.309C171.281 294.027 170.992 293.723 170.758 293.395H170.594C170.633 293.707 170.668 294.055 170.699 294.438C170.738 294.812 170.758 295.156 170.758 295.469V300.754H167.992V282.027H170.242L170.629 283.82H170.758C171 283.453 171.293 283.113 171.637 282.801C171.988 282.488 172.41 282.242 172.902 282.062C173.402 281.875 173.984 281.781 174.648 281.781ZM173.91 284.031C173.152 284.031 172.543 284.184 172.082 284.488C171.629 284.785 171.297 285.234 171.086 285.836C170.883 286.438 170.773 287.191 170.758 288.098V288.484C170.758 289.445 170.855 290.262 171.051 290.934C171.254 291.598 171.586 292.105 172.047 292.457C172.516 292.801 173.148 292.973 173.945 292.973C174.617 292.973 175.172 292.789 175.609 292.422C176.055 292.055 176.387 291.531 176.605 290.852C176.824 290.172 176.934 289.371 176.934 288.449C176.934 287.051 176.684 285.965 176.184 285.191C175.691 284.418 174.934 284.031 173.91 284.031ZM194.43 288.484C194.43 289.562 194.289 290.52 194.008 291.355C193.727 292.191 193.316 292.898 192.777 293.477C192.238 294.047 191.59 294.484 190.832 294.789C190.074 295.086 189.219 295.234 188.266 295.234C187.375 295.234 186.559 295.086 185.816 294.789C185.074 294.484 184.43 294.047 183.883 293.477C183.344 292.898 182.926 292.191 182.629 291.355C182.332 290.52 182.184 289.562 182.184 288.484C182.184 287.055 182.43 285.844 182.922 284.852C183.422 283.852 184.133 283.09 185.055 282.566C185.977 282.043 187.074 281.781 188.348 281.781C189.543 281.781 190.598 282.043 191.512 282.566C192.426 283.09 193.141 283.852 193.656 284.852C194.172 285.852 194.43 287.062 194.43 288.484ZM185.02 288.484C185.02 289.43 185.133 290.238 185.359 290.91C185.594 291.582 185.953 292.098 186.438 292.457C186.922 292.809 187.547 292.984 188.312 292.984C189.078 292.984 189.703 292.809 190.188 292.457C190.672 292.098 191.027 291.582 191.254 290.91C191.48 290.238 191.594 289.43 191.594 288.484C191.594 287.539 191.48 286.738 191.254 286.082C191.027 285.418 190.672 284.914 190.188 284.57C189.703 284.219 189.074 284.043 188.301 284.043C187.16 284.043 186.328 284.426 185.805 285.191C185.281 285.957 185.02 287.055 185.02 288.484ZM202.762 281.781C203.918 281.781 204.91 282.02 205.738 282.496C206.566 282.973 207.203 283.648 207.648 284.523C208.094 285.398 208.316 286.445 208.316 287.664V289.141H199.656C199.688 290.398 200.023 291.367 200.664 292.047C201.312 292.727 202.219 293.066 203.383 293.066C204.211 293.066 204.953 292.988 205.609 292.832C206.273 292.668 206.957 292.43 207.66 292.117V294.355C207.012 294.66 206.352 294.883 205.68 295.023C205.008 295.164 204.203 295.234 203.266 295.234C201.992 295.234 200.871 294.988 199.902 294.496C198.941 293.996 198.188 293.254 197.641 292.27C197.102 291.285 196.832 290.062 196.832 288.602C196.832 287.148 197.078 285.914 197.57 284.898C198.062 283.883 198.754 283.109 199.645 282.578C200.535 282.047 201.574 281.781 202.762 281.781ZM202.762 283.855C201.895 283.855 201.191 284.137 200.652 284.699C200.121 285.262 199.809 286.086 199.715 287.172H205.621C205.613 286.523 205.504 285.949 205.293 285.449C205.09 284.949 204.777 284.559 204.355 284.277C203.941 283.996 203.41 283.855 202.762 283.855ZM219.461 282.027H222.496L217.129 288.262L222.953 295H219.777L214.188 288.414V295H211.422V282.027H214.188V288.32L219.461 282.027ZM234.859 284.195H230.594V295H227.852V284.195H223.609V282.027H234.859V284.195ZM242.453 281.781C244.094 281.781 245.332 282.145 246.168 282.871C247.012 283.598 247.434 284.73 247.434 286.27V295H245.477L244.949 293.16H244.855C244.488 293.629 244.109 294.016 243.719 294.32C243.328 294.625 242.875 294.852 242.359 295C241.852 295.156 241.23 295.234 240.496 295.234C239.723 295.234 239.031 295.094 238.422 294.812C237.812 294.523 237.332 294.086 236.98 293.5C236.629 292.914 236.453 292.172 236.453 291.273C236.453 289.938 236.949 288.934 237.941 288.262C238.941 287.59 240.449 287.219 242.465 287.148L244.715 287.066V286.387C244.715 285.488 244.504 284.848 244.082 284.465C243.668 284.082 243.082 283.891 242.324 283.891C241.676 283.891 241.047 283.984 240.438 284.172C239.828 284.359 239.234 284.59 238.656 284.863L237.766 282.918C238.398 282.582 239.117 282.309 239.922 282.098C240.734 281.887 241.578 281.781 242.453 281.781ZM244.703 288.801L243.027 288.859C241.652 288.906 240.688 289.141 240.133 289.562C239.578 289.984 239.301 290.562 239.301 291.297C239.301 291.938 239.492 292.406 239.875 292.703C240.258 292.992 240.762 293.137 241.387 293.137C242.34 293.137 243.129 292.867 243.754 292.328C244.387 291.781 244.703 290.98 244.703 289.926V288.801Z" fill="#222222"></path> <path d="M51.4961 339H50.002V332.944H43.252V339H41.7578V326.15H43.252V331.626H50.002V326.15H51.4961V339ZM58.4131 329.209C59.5615 329.209 60.4141 329.467 60.9707 329.982C61.5273 330.498 61.8057 331.321 61.8057 332.452V339H60.7422L60.4609 337.576H60.3906C60.1211 337.928 59.8398 338.224 59.5469 338.464C59.2539 338.698 58.9141 338.877 58.5273 339C58.1465 339.117 57.6777 339.176 57.1211 339.176C56.5352 339.176 56.0137 339.073 55.5566 338.868C55.1055 338.663 54.748 338.353 54.4844 337.937C54.2266 337.521 54.0977 336.993 54.0977 336.354C54.0977 335.394 54.4785 334.655 55.2402 334.14C56.002 333.624 57.1621 333.343 58.7207 333.296L60.3818 333.226V332.637C60.3818 331.805 60.2031 331.222 59.8457 330.888C59.4883 330.554 58.9844 330.387 58.334 330.387C57.8301 330.387 57.3496 330.46 56.8926 330.606C56.4355 330.753 56.002 330.926 55.5918 331.125L55.1436 330.018C55.5771 329.795 56.0752 329.604 56.6377 329.446C57.2002 329.288 57.792 329.209 58.4131 329.209ZM60.3643 334.254L58.8965 334.315C57.6953 334.362 56.8486 334.559 56.3564 334.904C55.8643 335.25 55.6182 335.739 55.6182 336.372C55.6182 336.923 55.7852 337.33 56.1191 337.594C56.4531 337.857 56.8955 337.989 57.4463 337.989C58.3018 337.989 59.002 337.752 59.5469 337.277C60.0918 336.803 60.3643 336.091 60.3643 335.142V334.254ZM73.3457 339.176C72.4785 339.176 71.7139 338.997 71.0518 338.64C70.3896 338.282 69.874 337.737 69.5049 337.005C69.1357 336.272 68.9512 335.35 68.9512 334.236C68.9512 333.07 69.1445 332.118 69.5312 331.38C69.9238 330.636 70.4629 330.085 71.1484 329.728C71.834 329.37 72.6133 329.191 73.4863 329.191C73.9668 329.191 74.4297 329.241 74.875 329.341C75.3262 329.435 75.6953 329.555 75.9824 329.701L75.543 330.923C75.25 330.806 74.9102 330.7 74.5234 330.606C74.1426 330.513 73.7852 330.466 73.4512 330.466C72.7832 330.466 72.2266 330.609 71.7812 330.896C71.3418 331.184 71.0107 331.605 70.7881 332.162C70.5713 332.719 70.4629 333.404 70.4629 334.219C70.4629 334.998 70.5684 335.663 70.7793 336.214C70.9961 336.765 71.3154 337.187 71.7373 337.479C72.165 337.767 72.6982 337.91 73.3369 337.91C73.8467 337.91 74.3066 337.857 74.7168 337.752C75.127 337.641 75.499 337.512 75.833 337.365V338.666C75.5107 338.83 75.1504 338.956 74.752 339.044C74.3594 339.132 73.8906 339.176 73.3457 339.176ZM84.6836 330.606H81.5107V339H80.0693V330.606H76.9404V329.367H84.6836V330.606ZM90.1943 329.209C91.3428 329.209 92.1953 329.467 92.752 329.982C93.3086 330.498 93.5869 331.321 93.5869 332.452V339H92.5234L92.2422 337.576H92.1719C91.9023 337.928 91.6211 338.224 91.3281 338.464C91.0352 338.698 90.6953 338.877 90.3086 339C89.9277 339.117 89.459 339.176 88.9023 339.176C88.3164 339.176 87.7949 339.073 87.3379 338.868C86.8867 338.663 86.5293 338.353 86.2656 337.937C86.0078 337.521 85.8789 336.993 85.8789 336.354C85.8789 335.394 86.2598 334.655 87.0215 334.14C87.7832 333.624 88.9434 333.343 90.502 333.296L92.1631 333.226V332.637C92.1631 331.805 91.9844 331.222 91.627 330.888C91.2695 330.554 90.7656 330.387 90.1152 330.387C89.6113 330.387 89.1309 330.46 88.6738 330.606C88.2168 330.753 87.7832 330.926 87.373 331.125L86.9248 330.018C87.3584 329.795 87.8564 329.604 88.4189 329.446C88.9814 329.288 89.5732 329.209 90.1943 329.209ZM92.1455 334.254L90.6777 334.315C89.4766 334.362 88.6299 334.559 88.1377 334.904C87.6455 335.25 87.3994 335.739 87.3994 336.372C87.3994 336.923 87.5664 337.33 87.9004 337.594C88.2344 337.857 88.6768 337.989 89.2275 337.989C90.083 337.989 90.7832 337.752 91.3281 337.277C91.873 336.803 92.1455 336.091 92.1455 335.142V334.254ZM101.119 329.191C102.32 329.191 103.278 329.604 103.993 330.431C104.708 331.257 105.065 332.499 105.065 334.157C105.065 335.253 104.901 336.173 104.573 336.917C104.245 337.661 103.782 338.224 103.185 338.604C102.593 338.985 101.893 339.176 101.084 339.176C100.574 339.176 100.126 339.108 99.7393 338.974C99.3525 338.839 99.0215 338.657 98.7461 338.429C98.4707 338.2 98.2422 337.951 98.0605 337.682H97.9551C97.9727 337.91 97.9932 338.186 98.0166 338.508C98.0459 338.83 98.0605 339.111 98.0605 339.352V343.307H96.5928V329.367H97.7969L97.9902 330.791H98.0605C98.248 330.498 98.4766 330.231 98.7461 329.991C99.0156 329.745 99.3438 329.552 99.7305 329.411C100.123 329.265 100.586 329.191 101.119 329.191ZM100.864 330.422C100.196 330.422 99.6572 330.551 99.2471 330.809C98.8428 331.066 98.5469 331.453 98.3594 331.969C98.1719 332.479 98.0723 333.12 98.0605 333.894V334.175C98.0605 334.989 98.1484 335.678 98.3242 336.24C98.5059 336.803 98.8018 337.23 99.2119 337.523C99.6279 337.816 100.185 337.963 100.882 337.963C101.479 337.963 101.978 337.802 102.376 337.479C102.774 337.157 103.07 336.709 103.264 336.135C103.463 335.555 103.562 334.89 103.562 334.14C103.562 333.003 103.34 332.101 102.895 331.433C102.455 330.759 101.778 330.422 100.864 330.422ZM114.18 330.606H111.007V339H109.565V330.606H106.437V329.367H114.18V330.606ZM119.796 329.191C120.616 329.191 121.319 329.373 121.905 329.736C122.491 330.1 122.939 330.609 123.25 331.266C123.561 331.916 123.716 332.678 123.716 333.551V334.456H117.062C117.08 335.587 117.361 336.448 117.906 337.04C118.451 337.632 119.219 337.928 120.209 337.928C120.818 337.928 121.357 337.872 121.826 337.761C122.295 337.649 122.781 337.485 123.285 337.269V338.552C122.799 338.769 122.315 338.927 121.835 339.026C121.36 339.126 120.798 339.176 120.147 339.176C119.222 339.176 118.413 338.988 117.722 338.613C117.036 338.232 116.503 337.676 116.122 336.943C115.741 336.211 115.551 335.314 115.551 334.254C115.551 333.217 115.724 332.32 116.069 331.564C116.421 330.803 116.913 330.217 117.546 329.807C118.185 329.396 118.935 329.191 119.796 329.191ZM119.778 330.387C118.999 330.387 118.378 330.642 117.915 331.151C117.452 331.661 117.177 332.373 117.089 333.287H122.187C122.181 332.713 122.09 332.209 121.914 331.775C121.744 331.336 121.483 330.996 121.132 330.756C120.78 330.51 120.329 330.387 119.778 330.387ZM135.396 329.191C136.598 329.191 137.556 329.604 138.271 330.431C138.985 331.257 139.343 332.499 139.343 334.157C139.343 335.253 139.179 336.173 138.851 336.917C138.522 337.661 138.06 338.224 137.462 338.604C136.87 338.985 136.17 339.176 135.361 339.176C134.852 339.176 134.403 339.108 134.017 338.974C133.63 338.839 133.299 338.657 133.023 338.429C132.748 338.2 132.52 337.951 132.338 337.682H132.232C132.25 337.91 132.271 338.186 132.294 338.508C132.323 338.83 132.338 339.111 132.338 339.352V343.307H130.87V329.367H132.074L132.268 330.791H132.338C132.525 330.498 132.754 330.231 133.023 329.991C133.293 329.745 133.621 329.552 134.008 329.411C134.4 329.265 134.863 329.191 135.396 329.191ZM135.142 330.422C134.474 330.422 133.935 330.551 133.524 330.809C133.12 331.066 132.824 331.453 132.637 331.969C132.449 332.479 132.35 333.12 132.338 333.894V334.175C132.338 334.989 132.426 335.678 132.602 336.24C132.783 336.803 133.079 337.23 133.489 337.523C133.905 337.816 134.462 337.963 135.159 337.963C135.757 337.963 136.255 337.802 136.653 337.479C137.052 337.157 137.348 336.709 137.541 336.135C137.74 335.555 137.84 334.89 137.84 334.14C137.84 333.003 137.617 332.101 137.172 331.433C136.732 330.759 136.056 330.422 135.142 330.422ZM145.495 329.209C146.644 329.209 147.496 329.467 148.053 329.982C148.609 330.498 148.888 331.321 148.888 332.452V339H147.824L147.543 337.576H147.473C147.203 337.928 146.922 338.224 146.629 338.464C146.336 338.698 145.996 338.877 145.609 339C145.229 339.117 144.76 339.176 144.203 339.176C143.617 339.176 143.096 339.073 142.639 338.868C142.188 338.663 141.83 338.353 141.566 337.937C141.309 337.521 141.18 336.993 141.18 336.354C141.18 335.394 141.561 334.655 142.322 334.14C143.084 333.624 144.244 333.343 145.803 333.296L147.464 333.226V332.637C147.464 331.805 147.285 331.222 146.928 330.888C146.57 330.554 146.066 330.387 145.416 330.387C144.912 330.387 144.432 330.46 143.975 330.606C143.518 330.753 143.084 330.926 142.674 331.125L142.226 330.018C142.659 329.795 143.157 329.604 143.72 329.446C144.282 329.288 144.874 329.209 145.495 329.209ZM147.446 334.254L145.979 334.315C144.777 334.362 143.931 334.559 143.438 334.904C142.946 335.25 142.7 335.739 142.7 336.372C142.7 336.923 142.867 337.33 143.201 337.594C143.535 337.857 143.978 337.989 144.528 337.989C145.384 337.989 146.084 337.752 146.629 337.277C147.174 336.803 147.446 336.091 147.446 335.142V334.254ZM151.393 333.217C151.393 331.846 151.524 330.677 151.788 329.71C152.052 328.737 152.459 327.958 153.01 327.372C153.566 326.78 154.281 326.376 155.154 326.159C155.904 325.954 156.666 325.778 157.439 325.632C158.213 325.479 158.966 325.348 159.698 325.236L159.953 326.52C159.584 326.572 159.197 326.634 158.793 326.704C158.389 326.769 157.984 326.839 157.58 326.915C157.176 326.985 156.795 327.062 156.438 327.144C156.08 327.22 155.764 327.299 155.488 327.381C154.99 327.516 154.56 327.75 154.196 328.084C153.839 328.418 153.555 328.878 153.344 329.464C153.139 330.05 153.016 330.788 152.975 331.679H153.08C153.256 331.421 153.496 331.166 153.801 330.914C154.105 330.662 154.469 330.454 154.891 330.29C155.312 330.12 155.787 330.035 156.314 330.035C157.146 330.035 157.841 330.217 158.397 330.58C158.954 330.938 159.373 331.441 159.654 332.092C159.936 332.742 160.076 333.504 160.076 334.377C160.076 335.426 159.895 336.308 159.531 337.022C159.174 337.737 158.67 338.276 158.02 338.64C157.369 338.997 156.604 339.176 155.726 339.176C155.046 339.176 154.437 339.044 153.897 338.78C153.364 338.517 152.91 338.13 152.535 337.62C152.166 337.11 151.882 336.486 151.683 335.748C151.489 335.01 151.393 334.166 151.393 333.217ZM155.84 337.963C156.396 337.963 156.874 337.846 157.272 337.611C157.677 337.377 157.987 337.008 158.204 336.504C158.427 335.994 158.538 335.332 158.538 334.518C158.538 333.498 158.342 332.701 157.949 332.127C157.562 331.547 156.941 331.257 156.086 331.257C155.553 331.257 155.069 331.371 154.636 331.6C154.202 331.822 153.836 332.089 153.537 332.399C153.238 332.71 153.021 332.988 152.887 333.234C152.887 333.832 152.931 334.412 153.019 334.975C153.106 335.537 153.259 336.044 153.476 336.495C153.692 336.946 153.991 337.304 154.372 337.567C154.759 337.831 155.248 337.963 155.84 337.963ZM170.904 334.166C170.904 334.957 170.802 335.663 170.597 336.284C170.392 336.905 170.096 337.43 169.709 337.857C169.322 338.285 168.854 338.613 168.303 338.842C167.758 339.064 167.14 339.176 166.448 339.176C165.804 339.176 165.212 339.064 164.673 338.842C164.14 338.613 163.677 338.285 163.284 337.857C162.897 337.43 162.596 336.905 162.379 336.284C162.168 335.663 162.062 334.957 162.062 334.166C162.062 333.111 162.241 332.215 162.599 331.477C162.956 330.732 163.466 330.167 164.128 329.78C164.796 329.388 165.59 329.191 166.51 329.191C167.389 329.191 168.156 329.388 168.812 329.78C169.475 330.173 169.987 330.741 170.351 331.485C170.72 332.224 170.904 333.117 170.904 334.166ZM163.574 334.166C163.574 334.939 163.677 335.61 163.882 336.179C164.087 336.747 164.403 337.187 164.831 337.497C165.259 337.808 165.81 337.963 166.483 337.963C167.151 337.963 167.699 337.808 168.127 337.497C168.561 337.187 168.88 336.747 169.085 336.179C169.29 335.61 169.393 334.939 169.393 334.166C169.393 333.398 169.29 332.736 169.085 332.18C168.88 331.617 168.563 331.184 168.136 330.879C167.708 330.574 167.154 330.422 166.475 330.422C165.473 330.422 164.737 330.753 164.269 331.415C163.806 332.077 163.574 332.994 163.574 334.166ZM179.992 330.606H176.819V339H175.378V330.606H172.249V329.367H179.992V330.606ZM196.744 329.367V339H195.426V332.725C195.426 332.467 195.432 332.206 195.443 331.942C195.461 331.673 195.481 331.403 195.505 331.134H195.452L192.253 339H191.014L187.894 331.134H187.841C187.858 331.403 187.87 331.673 187.876 331.942C187.888 332.206 187.894 332.484 187.894 332.777V339H186.566V329.367H188.526L191.638 337.242L194.793 329.367H196.744ZM199.776 339V329.367H201.244V333.34H203.881C204.701 333.34 205.375 333.442 205.902 333.647C206.436 333.853 206.831 334.157 207.089 334.562C207.347 334.966 207.476 335.467 207.476 336.064C207.476 336.662 207.347 337.181 207.089 337.62C206.837 338.06 206.438 338.399 205.894 338.64C205.354 338.88 204.651 339 203.784 339H199.776ZM201.244 337.813H203.644C204.37 337.813 204.95 337.685 205.384 337.427C205.817 337.169 206.034 336.738 206.034 336.135C206.034 335.543 205.832 335.133 205.428 334.904C205.023 334.67 204.443 334.553 203.688 334.553H201.244V337.813ZM209.066 339V329.367H210.525V339H209.066ZM225.941 331.784C225.941 332.388 225.766 332.859 225.414 333.199C225.062 333.533 224.608 333.759 224.052 333.876V333.946C224.655 334.028 225.174 334.245 225.607 334.597C226.047 334.942 226.267 335.473 226.267 336.188C226.267 336.738 226.135 337.225 225.871 337.646C225.607 338.068 225.194 338.399 224.632 338.64C224.069 338.88 223.337 339 222.435 339H218.286V329.367H222.399C223.091 329.367 223.7 329.446 224.228 329.604C224.761 329.757 225.18 330.009 225.484 330.36C225.789 330.712 225.941 331.187 225.941 331.784ZM224.746 336.188C224.746 335.619 224.529 335.209 224.096 334.957C223.668 334.705 223.044 334.579 222.224 334.579H219.754V337.813H222.259C223.067 337.813 223.683 337.69 224.104 337.444C224.532 337.192 224.746 336.773 224.746 336.188ZM224.456 331.951C224.456 331.494 224.289 331.154 223.955 330.932C223.621 330.703 223.073 330.589 222.312 330.589H219.754V333.357H222.057C222.848 333.357 223.445 333.243 223.85 333.015C224.254 332.786 224.456 332.432 224.456 331.951ZM232.48 339.176C231.613 339.176 230.849 338.997 230.187 338.64C229.524 338.282 229.009 337.737 228.64 337.005C228.271 336.272 228.086 335.35 228.086 334.236C228.086 333.07 228.279 332.118 228.666 331.38C229.059 330.636 229.598 330.085 230.283 329.728C230.969 329.37 231.748 329.191 232.621 329.191C233.102 329.191 233.564 329.241 234.01 329.341C234.461 329.435 234.83 329.555 235.117 329.701L234.678 330.923C234.385 330.806 234.045 330.7 233.658 330.606C233.277 330.513 232.92 330.466 232.586 330.466C231.918 330.466 231.361 330.609 230.916 330.896C230.477 331.184 230.146 331.605 229.923 332.162C229.706 332.719 229.598 333.404 229.598 334.219C229.598 334.998 229.703 335.663 229.914 336.214C230.131 336.765 230.45 337.187 230.872 337.479C231.3 337.767 231.833 337.91 232.472 337.91C232.981 337.91 233.441 337.857 233.852 337.752C234.262 337.641 234.634 337.512 234.968 337.365V338.666C234.646 338.83 234.285 338.956 233.887 339.044C233.494 339.132 233.025 339.176 232.48 339.176ZM240.962 329.191C241.782 329.191 242.485 329.373 243.071 329.736C243.657 330.1 244.105 330.609 244.416 331.266C244.727 331.916 244.882 332.678 244.882 333.551V334.456H238.229C238.246 335.587 238.527 336.448 239.072 337.04C239.617 337.632 240.385 337.928 241.375 337.928C241.984 337.928 242.523 337.872 242.992 337.761C243.461 337.649 243.947 337.485 244.451 337.269V338.552C243.965 338.769 243.481 338.927 243.001 339.026C242.526 339.126 241.964 339.176 241.313 339.176C240.388 339.176 239.579 338.988 238.888 338.613C238.202 338.232 237.669 337.676 237.288 336.943C236.907 336.211 236.717 335.314 236.717 334.254C236.717 333.217 236.89 332.32 237.235 331.564C237.587 330.803 238.079 330.217 238.712 329.807C239.351 329.396 240.101 329.191 240.962 329.191ZM240.944 330.387C240.165 330.387 239.544 330.642 239.081 331.151C238.618 331.661 238.343 332.373 238.255 333.287H243.353C243.347 332.713 243.256 332.209 243.08 331.775C242.91 331.336 242.649 330.996 242.298 330.756C241.946 330.51 241.495 330.387 240.944 330.387ZM253.205 329.367V330.606H248.828V339H247.36V329.367H253.205ZM262.188 329.367V337.761H263.567V342.331H262.152V339H255.332V342.331H253.935V337.761H254.69C255.241 336.999 255.698 336.164 256.062 335.256C256.425 334.348 256.7 333.396 256.888 332.399C257.075 331.397 257.175 330.387 257.187 329.367H262.188ZM260.772 330.527H258.487C258.435 331.383 258.309 332.253 258.109 333.138C257.916 334.022 257.658 334.866 257.336 335.669C257.014 336.466 256.639 337.163 256.211 337.761H260.772V330.527ZM269.087 329.209C270.235 329.209 271.088 329.467 271.645 329.982C272.201 330.498 272.479 331.321 272.479 332.452V339H271.416L271.135 337.576H271.064C270.795 337.928 270.514 338.224 270.221 338.464C269.928 338.698 269.588 338.877 269.201 339C268.82 339.117 268.352 339.176 267.795 339.176C267.209 339.176 266.688 339.073 266.23 338.868C265.779 338.663 265.422 338.353 265.158 337.937C264.9 337.521 264.771 336.993 264.771 336.354C264.771 335.394 265.152 334.655 265.914 334.14C266.676 333.624 267.836 333.343 269.395 333.296L271.056 333.226V332.637C271.056 331.805 270.877 331.222 270.52 330.888C270.162 330.554 269.658 330.387 269.008 330.387C268.504 330.387 268.023 330.46 267.566 330.606C267.109 330.753 266.676 330.926 266.266 331.125L265.817 330.018C266.251 329.795 266.749 329.604 267.312 329.446C267.874 329.288 268.466 329.209 269.087 329.209ZM271.038 334.254L269.57 334.315C268.369 334.362 267.522 334.559 267.03 334.904C266.538 335.25 266.292 335.739 266.292 336.372C266.292 336.923 266.459 337.33 266.793 337.594C267.127 337.857 267.569 337.989 268.12 337.989C268.976 337.989 269.676 337.752 270.221 337.277C270.766 336.803 271.038 336.091 271.038 335.142V334.254ZM286.006 329.367V330.606H281.629V339H280.161V329.367H286.006ZM296.236 334.166C296.236 334.957 296.134 335.663 295.929 336.284C295.724 336.905 295.428 337.43 295.041 337.857C294.654 338.285 294.186 338.613 293.635 338.842C293.09 339.064 292.472 339.176 291.78 339.176C291.136 339.176 290.544 339.064 290.005 338.842C289.472 338.613 289.009 338.285 288.616 337.857C288.229 337.43 287.928 336.905 287.711 336.284C287.5 335.663 287.395 334.957 287.395 334.166C287.395 333.111 287.573 332.215 287.931 331.477C288.288 330.732 288.798 330.167 289.46 329.78C290.128 329.388 290.922 329.191 291.842 329.191C292.721 329.191 293.488 329.388 294.145 329.78C294.807 330.173 295.319 330.741 295.683 331.485C296.052 332.224 296.236 333.117 296.236 334.166ZM288.906 334.166C288.906 334.939 289.009 335.61 289.214 336.179C289.419 336.747 289.735 337.187 290.163 337.497C290.591 337.808 291.142 337.963 291.815 337.963C292.483 337.963 293.031 337.808 293.459 337.497C293.893 337.187 294.212 336.747 294.417 336.179C294.622 335.61 294.725 334.939 294.725 334.166C294.725 333.398 294.622 332.736 294.417 332.18C294.212 331.617 293.896 331.184 293.468 330.879C293.04 330.574 292.486 330.422 291.807 330.422C290.805 330.422 290.069 330.753 289.601 331.415C289.138 332.077 288.906 332.994 288.906 334.166ZM305.324 330.606H302.151V339H300.71V330.606H297.581V329.367H305.324V330.606ZM315.537 334.166C315.537 334.957 315.435 335.663 315.229 336.284C315.024 336.905 314.729 337.43 314.342 337.857C313.955 338.285 313.486 338.613 312.936 338.842C312.391 339.064 311.772 339.176 311.081 339.176C310.437 339.176 309.845 339.064 309.306 338.842C308.772 338.613 308.31 338.285 307.917 337.857C307.53 337.43 307.229 336.905 307.012 336.284C306.801 335.663 306.695 334.957 306.695 334.166C306.695 333.111 306.874 332.215 307.231 331.477C307.589 330.732 308.099 330.167 308.761 329.78C309.429 329.388 310.223 329.191 311.143 329.191C312.021 329.191 312.789 329.388 313.445 329.78C314.107 330.173 314.62 330.741 314.983 331.485C315.353 332.224 315.537 333.117 315.537 334.166ZM308.207 334.166C308.207 334.939 308.31 335.61 308.515 336.179C308.72 336.747 309.036 337.187 309.464 337.497C309.892 337.808 310.442 337.963 311.116 337.963C311.784 337.963 312.332 337.808 312.76 337.497C313.193 337.187 313.513 336.747 313.718 336.179C313.923 335.61 314.025 334.939 314.025 334.166C314.025 333.398 313.923 332.736 313.718 332.18C313.513 331.617 313.196 331.184 312.769 330.879C312.341 330.574 311.787 330.422 311.107 330.422C310.105 330.422 309.37 330.753 308.901 331.415C308.438 332.077 308.207 332.994 308.207 334.166ZM325.715 331.784C325.715 332.388 325.539 332.859 325.188 333.199C324.836 333.533 324.382 333.759 323.825 333.876V333.946C324.429 334.028 324.947 334.245 325.381 334.597C325.82 334.942 326.04 335.473 326.04 336.188C326.04 336.738 325.908 337.225 325.645 337.646C325.381 338.068 324.968 338.399 324.405 338.64C323.843 338.88 323.11 339 322.208 339H318.06V329.367H322.173C322.864 329.367 323.474 329.446 324.001 329.604C324.534 329.757 324.953 330.009 325.258 330.36C325.562 330.712 325.715 331.187 325.715 331.784ZM324.52 336.188C324.52 335.619 324.303 335.209 323.869 334.957C323.441 334.705 322.817 334.579 321.997 334.579H319.527V337.813H322.032C322.841 337.813 323.456 337.69 323.878 337.444C324.306 337.192 324.52 336.773 324.52 336.188ZM324.229 331.951C324.229 331.494 324.062 331.154 323.729 330.932C323.395 330.703 322.847 330.589 322.085 330.589H319.527V333.357H321.83C322.621 333.357 323.219 333.243 323.623 333.015C324.027 332.786 324.229 332.432 324.229 331.951ZM329.784 329.367V335.423C329.784 335.54 329.781 335.692 329.775 335.88C329.77 336.062 329.761 336.258 329.749 336.469C329.737 336.674 329.726 336.873 329.714 337.066C329.708 337.254 329.699 337.409 329.688 337.532L334.943 329.367H336.736V339H335.374V333.094C335.374 332.906 335.377 332.666 335.383 332.373C335.389 332.08 335.397 331.793 335.409 331.512C335.421 331.225 335.43 331.002 335.436 330.844L330.197 339H328.396V329.367H329.784ZM350.008 329.367V339H348.689V332.725C348.689 332.467 348.695 332.206 348.707 331.942C348.725 331.673 348.745 331.403 348.769 331.134H348.716L345.517 339H344.277L341.157 331.134H341.104C341.122 331.403 341.134 331.673 341.14 331.942C341.151 332.206 341.157 332.484 341.157 332.777V339H339.83V329.367H341.79L344.901 337.242L348.057 329.367H350.008ZM364.773 329.367V337.761H366.153V342.331H364.738V339H357.918V342.331H356.521V337.761H357.276C357.827 336.999 358.284 336.164 358.647 335.256C359.011 334.348 359.286 333.396 359.474 332.399C359.661 331.397 359.761 330.387 359.772 329.367H364.773ZM363.358 330.527H361.073C361.021 331.383 360.895 332.253 360.695 333.138C360.502 334.022 360.244 334.866 359.922 335.669C359.6 336.466 359.225 337.163 358.797 337.761H363.358V330.527ZM376.375 334.166C376.375 334.957 376.272 335.663 376.067 336.284C375.862 336.905 375.566 337.43 375.18 337.857C374.793 338.285 374.324 338.613 373.773 338.842C373.229 339.064 372.61 339.176 371.919 339.176C371.274 339.176 370.683 339.064 370.144 338.842C369.61 338.613 369.147 338.285 368.755 337.857C368.368 337.43 368.066 336.905 367.85 336.284C367.639 335.663 367.533 334.957 367.533 334.166C367.533 333.111 367.712 332.215 368.069 331.477C368.427 330.732 368.937 330.167 369.599 329.78C370.267 329.388 371.061 329.191 371.98 329.191C372.859 329.191 373.627 329.388 374.283 329.78C374.945 330.173 375.458 330.741 375.821 331.485C376.19 332.224 376.375 333.117 376.375 334.166ZM369.045 334.166C369.045 334.939 369.147 335.61 369.353 336.179C369.558 336.747 369.874 337.187 370.302 337.497C370.729 337.808 371.28 337.963 371.954 337.963C372.622 337.963 373.17 337.808 373.598 337.497C374.031 337.187 374.351 336.747 374.556 336.179C374.761 335.61 374.863 334.939 374.863 334.166C374.863 333.398 374.761 332.736 374.556 332.18C374.351 331.617 374.034 331.184 373.606 330.879C373.179 330.574 372.625 330.422 371.945 330.422C370.943 330.422 370.208 330.753 369.739 331.415C369.276 332.077 369.045 332.994 369.045 334.166ZM383.424 329.191C384.625 329.191 385.583 329.604 386.298 330.431C387.013 331.257 387.37 332.499 387.37 334.157C387.37 335.253 387.206 336.173 386.878 336.917C386.55 337.661 386.087 338.224 385.489 338.604C384.897 338.985 384.197 339.176 383.389 339.176C382.879 339.176 382.431 339.108 382.044 338.974C381.657 338.839 381.326 338.657 381.051 338.429C380.775 338.2 380.547 337.951 380.365 337.682H380.26C380.277 337.91 380.298 338.186 380.321 338.508C380.351 338.83 380.365 339.111 380.365 339.352V343.307H378.897V329.367H380.102L380.295 330.791H380.365C380.553 330.498 380.781 330.231 381.051 329.991C381.32 329.745 381.648 329.552 382.035 329.411C382.428 329.265 382.891 329.191 383.424 329.191ZM383.169 330.422C382.501 330.422 381.962 330.551 381.552 330.809C381.147 331.066 380.852 331.453 380.664 331.969C380.477 332.479 380.377 333.12 380.365 333.894V334.175C380.365 334.989 380.453 335.678 380.629 336.24C380.811 336.803 381.106 337.23 381.517 337.523C381.933 337.816 382.489 337.963 383.187 337.963C383.784 337.963 384.282 337.802 384.681 337.479C385.079 337.157 385.375 336.709 385.568 336.135C385.768 335.555 385.867 334.89 385.867 334.14C385.867 333.003 385.645 332.101 385.199 331.433C384.76 330.759 384.083 330.422 383.169 330.422ZM398.225 334.166C398.225 334.957 398.122 335.663 397.917 336.284C397.712 336.905 397.416 337.43 397.029 337.857C396.643 338.285 396.174 338.613 395.623 338.842C395.078 339.064 394.46 339.176 393.769 339.176C393.124 339.176 392.532 339.064 391.993 338.842C391.46 338.613 390.997 338.285 390.604 337.857C390.218 337.43 389.916 336.905 389.699 336.284C389.488 335.663 389.383 334.957 389.383 334.166C389.383 333.111 389.562 332.215 389.919 331.477C390.276 330.732 390.786 330.167 391.448 329.78C392.116 329.388 392.91 329.191 393.83 329.191C394.709 329.191 395.477 329.388 396.133 329.78C396.795 330.173 397.308 330.741 397.671 331.485C398.04 332.224 398.225 333.117 398.225 334.166ZM390.895 334.166C390.895 334.939 390.997 335.61 391.202 336.179C391.407 336.747 391.724 337.187 392.151 337.497C392.579 337.808 393.13 337.963 393.804 337.963C394.472 337.963 395.02 337.808 395.447 337.497C395.881 337.187 396.2 336.747 396.405 336.179C396.61 335.61 396.713 334.939 396.713 334.166C396.713 333.398 396.61 332.736 396.405 332.18C396.2 331.617 395.884 331.184 395.456 330.879C395.028 330.574 394.475 330.422 393.795 330.422C392.793 330.422 392.058 330.753 391.589 331.415C391.126 332.077 390.895 332.994 390.895 334.166ZM412.032 329.367L408.024 334.052L412.375 339H410.705L406.486 334.113V339H405.124V334.113L400.914 339H399.244L403.595 334.052L399.578 329.367H401.187L405.124 334.043V329.367H406.486V334.043L410.441 329.367H412.032ZM415.451 329.367V333.41H420.821V329.367H422.28V339H420.821V334.649H415.451V339H413.983V329.367H415.451ZM423.854 329.367H425.418L427.545 334.957C427.668 335.285 427.782 335.602 427.888 335.906C427.993 336.205 428.087 336.492 428.169 336.768C428.251 337.043 428.315 337.31 428.362 337.567H428.424C428.506 337.274 428.623 336.891 428.775 336.416C428.928 335.936 429.092 335.446 429.268 334.948L431.28 329.367H432.854L428.661 340.415C428.438 341.007 428.178 341.522 427.879 341.962C427.586 342.401 427.229 342.738 426.807 342.973C426.385 343.213 425.875 343.333 425.277 343.333C425.002 343.333 424.759 343.315 424.548 343.28C424.337 343.251 424.155 343.216 424.003 343.175V342.006C424.132 342.035 424.287 342.062 424.469 342.085C424.656 342.108 424.85 342.12 425.049 342.12C425.412 342.12 425.726 342.05 425.989 341.909C426.259 341.774 426.49 341.575 426.684 341.312C426.877 341.048 427.044 340.734 427.185 340.371L427.712 339.018L423.854 329.367ZM446.775 334.166C446.775 335.215 446.605 336.114 446.266 336.864C445.932 337.614 445.451 338.188 444.824 338.587C444.197 338.979 443.447 339.176 442.574 339.176C441.76 339.176 441.048 339 440.438 338.648C439.835 338.297 439.357 337.784 439.006 337.11C438.66 336.437 438.461 335.616 438.408 334.649H435.851V339H434.392V329.367H435.851V333.41H438.426C438.508 332.52 438.725 331.761 439.076 331.134C439.428 330.507 439.902 330.026 440.5 329.692C441.098 329.358 441.801 329.191 442.609 329.191C443.453 329.191 444.186 329.391 444.807 329.789C445.434 330.182 445.917 330.75 446.257 331.494C446.603 332.232 446.775 333.123 446.775 334.166ZM439.902 334.166C439.902 334.975 439.993 335.663 440.175 336.231C440.362 336.794 440.652 337.225 441.045 337.523C441.443 337.816 441.959 337.963 442.592 337.963C443.219 337.963 443.729 337.816 444.121 337.523C444.52 337.23 444.81 336.803 444.991 336.24C445.179 335.672 445.272 334.98 445.272 334.166C445.272 333.363 445.179 332.684 444.991 332.127C444.804 331.57 444.514 331.148 444.121 330.861C443.729 330.568 443.219 330.422 442.592 330.422C441.965 330.422 441.452 330.568 441.054 330.861C440.661 331.148 440.371 331.57 440.184 332.127C439.996 332.684 439.902 333.363 439.902 334.166ZM459.607 329.367H461.216L457.059 334.017L461.55 339H459.836L455.459 334.113V339H453.991V329.367H455.459V334.043L459.607 329.367ZM466.894 329.209C468.042 329.209 468.895 329.467 469.451 329.982C470.008 330.498 470.286 331.321 470.286 332.452V339H469.223L468.941 337.576H468.871C468.602 337.928 468.32 338.224 468.027 338.464C467.734 338.698 467.395 338.877 467.008 339C466.627 339.117 466.158 339.176 465.602 339.176C465.016 339.176 464.494 339.073 464.037 338.868C463.586 338.663 463.229 338.353 462.965 337.937C462.707 337.521 462.578 336.993 462.578 336.354C462.578 335.394 462.959 334.655 463.721 334.14C464.482 333.624 465.643 333.343 467.201 333.296L468.862 333.226V332.637C468.862 331.805 468.684 331.222 468.326 330.888C467.969 330.554 467.465 330.387 466.814 330.387C466.311 330.387 465.83 330.46 465.373 330.606C464.916 330.753 464.482 330.926 464.072 331.125L463.624 330.018C464.058 329.795 464.556 329.604 465.118 329.446C465.681 329.288 466.272 329.209 466.894 329.209ZM468.845 334.254L467.377 334.315C466.176 334.362 465.329 334.559 464.837 334.904C464.345 335.25 464.099 335.739 464.099 336.372C464.099 336.923 464.266 337.33 464.6 337.594C464.934 337.857 465.376 337.989 465.927 337.989C466.782 337.989 467.482 337.752 468.027 337.277C468.572 336.803 468.845 336.091 468.845 335.142V334.254ZM477.818 329.191C479.02 329.191 479.978 329.604 480.692 330.431C481.407 331.257 481.765 332.499 481.765 334.157C481.765 335.253 481.601 336.173 481.272 336.917C480.944 337.661 480.481 338.224 479.884 338.604C479.292 338.985 478.592 339.176 477.783 339.176C477.273 339.176 476.825 339.108 476.438 338.974C476.052 338.839 475.721 338.657 475.445 338.429C475.17 338.2 474.941 337.951 474.76 337.682H474.654C474.672 337.91 474.692 338.186 474.716 338.508C474.745 338.83 474.76 339.111 474.76 339.352V343.307H473.292V329.367H474.496L474.689 330.791H474.76C474.947 330.498 475.176 330.231 475.445 329.991C475.715 329.745 476.043 329.552 476.43 329.411C476.822 329.265 477.285 329.191 477.818 329.191ZM477.563 330.422C476.896 330.422 476.356 330.551 475.946 330.809C475.542 331.066 475.246 331.453 475.059 331.969C474.871 332.479 474.771 333.12 474.76 333.894V334.175C474.76 334.989 474.848 335.678 475.023 336.24C475.205 336.803 475.501 337.23 475.911 337.523C476.327 337.816 476.884 337.963 477.581 337.963C478.179 337.963 478.677 337.802 479.075 337.479C479.474 337.157 479.77 336.709 479.963 336.135C480.162 335.555 480.262 334.89 480.262 334.14C480.262 333.003 480.039 332.101 479.594 331.433C479.154 330.759 478.478 330.422 477.563 330.422ZM490.879 330.606H487.706V339H486.265V330.606H483.136V329.367H490.879V330.606ZM491.266 329.367H492.83L494.957 334.957C495.08 335.285 495.194 335.602 495.3 335.906C495.405 336.205 495.499 336.492 495.581 336.768C495.663 337.043 495.728 337.31 495.774 337.567H495.836C495.918 337.274 496.035 336.891 496.188 336.416C496.34 335.936 496.504 335.446 496.68 334.948L498.692 329.367H500.266L496.073 340.415C495.851 341.007 495.59 341.522 495.291 341.962C494.998 342.401 494.641 342.738 494.219 342.973C493.797 343.213 493.287 343.333 492.689 343.333C492.414 343.333 492.171 343.315 491.96 343.28C491.749 343.251 491.567 343.216 491.415 343.175V342.006C491.544 342.035 491.699 342.062 491.881 342.085C492.068 342.108 492.262 342.12 492.461 342.12C492.824 342.12 493.138 342.05 493.401 341.909C493.671 341.774 493.902 341.575 494.096 341.312C494.289 341.048 494.456 340.734 494.597 340.371L495.124 339.018L491.266 329.367ZM46.0645 356.191C47.2656 356.191 48.2236 356.604 48.9385 357.431C49.6533 358.257 50.0107 359.499 50.0107 361.157C50.0107 362.253 49.8467 363.173 49.5186 363.917C49.1904 364.661 48.7275 365.224 48.1299 365.604C47.5381 365.985 46.8379 366.176 46.0293 366.176C45.5195 366.176 45.0713 366.108 44.6846 365.974C44.2979 365.839 43.9668 365.657 43.6914 365.429C43.416 365.2 43.1875 364.951 43.0059 364.682H42.9004C42.918 364.91 42.9385 365.186 42.9619 365.508C42.9912 365.83 43.0059 366.111 43.0059 366.352V370.307H41.5381V356.367H42.7422L42.9355 357.791H43.0059C43.1934 357.498 43.4219 357.231 43.6914 356.991C43.9609 356.745 44.2891 356.552 44.6758 356.411C45.0684 356.265 45.5312 356.191 46.0645 356.191ZM45.8096 357.422C45.1416 357.422 44.6025 357.551 44.1924 357.809C43.7881 358.066 43.4922 358.453 43.3047 358.969C43.1172 359.479 43.0176 360.12 43.0059 360.894V361.175C43.0059 361.989 43.0938 362.678 43.2695 363.24C43.4512 363.803 43.7471 364.23 44.1572 364.523C44.5732 364.816 45.1299 364.963 45.8271 364.963C46.4248 364.963 46.9229 364.802 47.3213 364.479C47.7197 364.157 48.0156 363.709 48.209 363.135C48.4082 362.555 48.5078 361.89 48.5078 361.14C48.5078 360.003 48.2852 359.101 47.8398 358.433C47.4004 357.759 46.7236 357.422 45.8096 357.422ZM56.1631 356.209C57.3115 356.209 58.1641 356.467 58.7207 356.982C59.2773 357.498 59.5557 358.321 59.5557 359.452V366H58.4922L58.2109 364.576H58.1406C57.8711 364.928 57.5898 365.224 57.2969 365.464C57.0039 365.698 56.6641 365.877 56.2773 366C55.8965 366.117 55.4277 366.176 54.8711 366.176C54.2852 366.176 53.7637 366.073 53.3066 365.868C52.8555 365.663 52.498 365.353 52.2344 364.937C51.9766 364.521 51.8477 363.993 51.8477 363.354C51.8477 362.394 52.2285 361.655 52.9902 361.14C53.752 360.624 54.9121 360.343 56.4707 360.296L58.1318 360.226V359.637C58.1318 358.805 57.9531 358.222 57.5957 357.888C57.2383 357.554 56.7344 357.387 56.084 357.387C55.5801 357.387 55.0996 357.46 54.6426 357.606C54.1855 357.753 53.752 357.926 53.3418 358.125L52.8936 357.018C53.3271 356.795 53.8252 356.604 54.3877 356.446C54.9502 356.288 55.542 356.209 56.1631 356.209ZM58.1143 361.254L56.6465 361.315C55.4453 361.362 54.5986 361.559 54.1064 361.904C53.6143 362.25 53.3682 362.739 53.3682 363.372C53.3682 363.923 53.5352 364.33 53.8691 364.594C54.2031 364.857 54.6455 364.989 55.1963 364.989C56.0518 364.989 56.752 364.752 57.2969 364.277C57.8418 363.803 58.1143 363.091 58.1143 362.142V361.254ZM62.0605 360.217C62.0605 358.846 62.1924 357.677 62.4561 356.71C62.7197 355.737 63.127 354.958 63.6777 354.372C64.2344 353.78 64.9492 353.376 65.8223 353.159C66.5723 352.954 67.334 352.778 68.1074 352.632C68.8809 352.479 69.6338 352.348 70.3662 352.236L70.6211 353.52C70.252 353.572 69.8652 353.634 69.4609 353.704C69.0566 353.769 68.6523 353.839 68.248 353.915C67.8438 353.985 67.4629 354.062 67.1055 354.144C66.748 354.22 66.4316 354.299 66.1562 354.381C65.6582 354.516 65.2275 354.75 64.8643 355.084C64.5068 355.418 64.2227 355.878 64.0117 356.464C63.8066 357.05 63.6836 357.788 63.6426 358.679H63.748C63.9238 358.421 64.1641 358.166 64.4688 357.914C64.7734 357.662 65.1367 357.454 65.5586 357.29C65.9805 357.12 66.4551 357.035 66.9824 357.035C67.8145 357.035 68.5088 357.217 69.0654 357.58C69.6221 357.938 70.041 358.441 70.3223 359.092C70.6035 359.742 70.7441 360.504 70.7441 361.377C70.7441 362.426 70.5625 363.308 70.1992 364.022C69.8418 364.737 69.3379 365.276 68.6875 365.64C68.0371 365.997 67.2725 366.176 66.3936 366.176C65.7139 366.176 65.1045 366.044 64.5654 365.78C64.0322 365.517 63.5781 365.13 63.2031 364.62C62.834 364.11 62.5498 363.486 62.3506 362.748C62.1572 362.01 62.0605 361.166 62.0605 360.217ZM66.5078 364.963C67.0645 364.963 67.542 364.846 67.9404 364.611C68.3447 364.377 68.6553 364.008 68.8721 363.504C69.0947 362.994 69.2061 362.332 69.2061 361.518C69.2061 360.498 69.0098 359.701 68.6172 359.127C68.2305 358.547 67.6094 358.257 66.7539 358.257C66.2207 358.257 65.7373 358.371 65.3037 358.6C64.8701 358.822 64.5039 359.089 64.2051 359.399C63.9062 359.71 63.6895 359.988 63.5547 360.234C63.5547 360.832 63.5986 361.412 63.6865 361.975C63.7744 362.537 63.9268 363.044 64.1436 363.495C64.3604 363.946 64.6592 364.304 65.04 364.567C65.4268 364.831 65.916 364.963 66.5078 364.963ZM81.5723 361.166C81.5723 361.957 81.4697 362.663 81.2646 363.284C81.0596 363.905 80.7637 364.43 80.377 364.857C79.9902 365.285 79.5215 365.613 78.9707 365.842C78.4258 366.064 77.8076 366.176 77.1162 366.176C76.4717 366.176 75.8799 366.064 75.3408 365.842C74.8076 365.613 74.3447 365.285 73.9521 364.857C73.5654 364.43 73.2637 363.905 73.0469 363.284C72.8359 362.663 72.7305 361.957 72.7305 361.166C72.7305 360.111 72.9092 359.215 73.2666 358.477C73.624 357.732 74.1338 357.167 74.7959 356.78C75.4639 356.388 76.2578 356.191 77.1777 356.191C78.0566 356.191 78.8242 356.388 79.4805 356.78C80.1426 357.173 80.6553 357.741 81.0186 358.485C81.3877 359.224 81.5723 360.117 81.5723 361.166ZM74.2422 361.166C74.2422 361.939 74.3447 362.61 74.5498 363.179C74.7549 363.747 75.0713 364.187 75.499 364.497C75.9268 364.808 76.4775 364.963 77.1514 364.963C77.8193 364.963 78.3672 364.808 78.7949 364.497C79.2285 364.187 79.5479 363.747 79.7529 363.179C79.958 362.61 80.0605 361.939 80.0605 361.166C80.0605 360.398 79.958 359.736 79.7529 359.18C79.5479 358.617 79.2314 358.184 78.8037 357.879C78.376 357.574 77.8223 357.422 77.1426 357.422C76.1406 357.422 75.4053 357.753 74.9365 358.415C74.4736 359.077 74.2422 359.994 74.2422 361.166ZM90.6602 357.606H87.4873V366H86.0459V357.606H82.917V356.367H90.6602V357.606ZM96.4258 361.816V360.516H112.984V361.816H96.4258ZM127.574 358.784C127.574 359.388 127.398 359.859 127.047 360.199C126.695 360.533 126.241 360.759 125.685 360.876V360.946C126.288 361.028 126.807 361.245 127.24 361.597C127.68 361.942 127.899 362.473 127.899 363.188C127.899 363.738 127.768 364.225 127.504 364.646C127.24 365.068 126.827 365.399 126.265 365.64C125.702 365.88 124.97 366 124.067 366H119.919V356.367H124.032C124.724 356.367 125.333 356.446 125.86 356.604C126.394 356.757 126.812 357.009 127.117 357.36C127.422 357.712 127.574 358.187 127.574 358.784ZM126.379 363.188C126.379 362.619 126.162 362.209 125.729 361.957C125.301 361.705 124.677 361.579 123.856 361.579H121.387V364.813H123.892C124.7 364.813 125.315 364.69 125.737 364.444C126.165 364.192 126.379 363.773 126.379 363.188ZM126.089 358.951C126.089 358.494 125.922 358.154 125.588 357.932C125.254 357.703 124.706 357.589 123.944 357.589H121.387V360.357H123.689C124.48 360.357 125.078 360.243 125.482 360.015C125.887 359.786 126.089 359.432 126.089 358.951ZM130.255 366V356.367H131.723V360.34H134.359C135.18 360.34 135.854 360.442 136.381 360.647C136.914 360.853 137.31 361.157 137.567 361.562C137.825 361.966 137.954 362.467 137.954 363.064C137.954 363.662 137.825 364.181 137.567 364.62C137.315 365.06 136.917 365.399 136.372 365.64C135.833 365.88 135.13 366 134.263 366H130.255ZM131.723 364.813H134.122C134.849 364.813 135.429 364.685 135.862 364.427C136.296 364.169 136.513 363.738 136.513 363.135C136.513 362.543 136.311 362.133 135.906 361.904C135.502 361.67 134.922 361.553 134.166 361.553H131.723V364.813ZM139.545 366V356.367H141.004V366H139.545ZM156.42 358.784C156.42 359.388 156.244 359.859 155.893 360.199C155.541 360.533 155.087 360.759 154.53 360.876V360.946C155.134 361.028 155.652 361.245 156.086 361.597C156.525 361.942 156.745 362.473 156.745 363.188C156.745 363.738 156.613 364.225 156.35 364.646C156.086 365.068 155.673 365.399 155.11 365.64C154.548 365.88 153.815 366 152.913 366H148.765V356.367H152.878C153.569 356.367 154.179 356.446 154.706 356.604C155.239 356.757 155.658 357.009 155.963 357.36C156.268 357.712 156.42 358.187 156.42 358.784ZM155.225 363.188C155.225 362.619 155.008 362.209 154.574 361.957C154.146 361.705 153.522 361.579 152.702 361.579H150.232V364.813H152.737C153.546 364.813 154.161 364.69 154.583 364.444C155.011 364.192 155.225 363.773 155.225 363.188ZM154.935 358.951C154.935 358.494 154.768 358.154 154.434 357.932C154.1 357.703 153.552 357.589 152.79 357.589H150.232V360.357H152.535C153.326 360.357 153.924 360.243 154.328 360.015C154.732 359.786 154.935 359.432 154.935 358.951ZM162.959 366.176C162.092 366.176 161.327 365.997 160.665 365.64C160.003 365.282 159.487 364.737 159.118 364.005C158.749 363.272 158.564 362.35 158.564 361.236C158.564 360.07 158.758 359.118 159.145 358.38C159.537 357.636 160.076 357.085 160.762 356.728C161.447 356.37 162.227 356.191 163.1 356.191C163.58 356.191 164.043 356.241 164.488 356.341C164.939 356.435 165.309 356.555 165.596 356.701L165.156 357.923C164.863 357.806 164.523 357.7 164.137 357.606C163.756 357.513 163.398 357.466 163.064 357.466C162.396 357.466 161.84 357.609 161.395 357.896C160.955 358.184 160.624 358.605 160.401 359.162C160.185 359.719 160.076 360.404 160.076 361.219C160.076 361.998 160.182 362.663 160.393 363.214C160.609 363.765 160.929 364.187 161.351 364.479C161.778 364.767 162.312 364.91 162.95 364.91C163.46 364.91 163.92 364.857 164.33 364.752C164.74 364.641 165.112 364.512 165.446 364.365V365.666C165.124 365.83 164.764 365.956 164.365 366.044C163.973 366.132 163.504 366.176 162.959 366.176ZM171.44 356.191C172.261 356.191 172.964 356.373 173.55 356.736C174.136 357.1 174.584 357.609 174.895 358.266C175.205 358.916 175.36 359.678 175.36 360.551V361.456H168.707C168.725 362.587 169.006 363.448 169.551 364.04C170.096 364.632 170.863 364.928 171.854 364.928C172.463 364.928 173.002 364.872 173.471 364.761C173.939 364.649 174.426 364.485 174.93 364.269V365.552C174.443 365.769 173.96 365.927 173.479 366.026C173.005 366.126 172.442 366.176 171.792 366.176C170.866 366.176 170.058 365.988 169.366 365.613C168.681 365.232 168.147 364.676 167.767 363.943C167.386 363.211 167.195 362.314 167.195 361.254C167.195 360.217 167.368 359.32 167.714 358.564C168.065 357.803 168.558 357.217 169.19 356.807C169.829 356.396 170.579 356.191 171.44 356.191ZM171.423 357.387C170.644 357.387 170.022 357.642 169.56 358.151C169.097 358.661 168.821 359.373 168.733 360.287H173.831C173.825 359.713 173.734 359.209 173.559 358.775C173.389 358.336 173.128 357.996 172.776 357.756C172.425 357.51 171.974 357.387 171.423 357.387ZM183.684 356.367V357.606H179.307V366H177.839V356.367H183.684ZM192.666 356.367V364.761H194.046V369.331H192.631V366H185.811V369.331H184.413V364.761H185.169C185.72 363.999 186.177 363.164 186.54 362.256C186.903 361.348 187.179 360.396 187.366 359.399C187.554 358.397 187.653 357.387 187.665 356.367H192.666ZM191.251 357.527H188.966C188.913 358.383 188.787 359.253 188.588 360.138C188.395 361.022 188.137 361.866 187.814 362.669C187.492 363.466 187.117 364.163 186.689 364.761H191.251V357.527ZM199.565 356.209C200.714 356.209 201.566 356.467 202.123 356.982C202.68 357.498 202.958 358.321 202.958 359.452V366H201.895L201.613 364.576H201.543C201.273 364.928 200.992 365.224 200.699 365.464C200.406 365.698 200.066 365.877 199.68 366C199.299 366.117 198.83 366.176 198.273 366.176C197.688 366.176 197.166 366.073 196.709 365.868C196.258 365.663 195.9 365.353 195.637 364.937C195.379 364.521 195.25 363.993 195.25 363.354C195.25 362.394 195.631 361.655 196.393 361.14C197.154 360.624 198.314 360.343 199.873 360.296L201.534 360.226V359.637C201.534 358.805 201.355 358.222 200.998 357.888C200.641 357.554 200.137 357.387 199.486 357.387C198.982 357.387 198.502 357.46 198.045 357.606C197.588 357.753 197.154 357.926 196.744 358.125L196.296 357.018C196.729 356.795 197.228 356.604 197.79 356.446C198.353 356.288 198.944 356.209 199.565 356.209ZM201.517 361.254L200.049 361.315C198.848 361.362 198.001 361.559 197.509 361.904C197.017 362.25 196.771 362.739 196.771 363.372C196.771 363.923 196.938 364.33 197.271 364.594C197.605 364.857 198.048 364.989 198.599 364.989C199.454 364.989 200.154 364.752 200.699 364.277C201.244 363.803 201.517 363.091 201.517 362.142V361.254ZM210.139 360.217C210.139 358.846 210.271 357.677 210.534 356.71C210.798 355.737 211.205 354.958 211.756 354.372C212.312 353.78 213.027 353.376 213.9 353.159C214.65 352.954 215.412 352.778 216.186 352.632C216.959 352.479 217.712 352.348 218.444 352.236L218.699 353.52C218.33 353.572 217.943 353.634 217.539 353.704C217.135 353.769 216.73 353.839 216.326 353.915C215.922 353.985 215.541 354.062 215.184 354.144C214.826 354.22 214.51 354.299 214.234 354.381C213.736 354.516 213.306 354.75 212.942 355.084C212.585 355.418 212.301 355.878 212.09 356.464C211.885 357.05 211.762 357.788 211.721 358.679H211.826C212.002 358.421 212.242 358.166 212.547 357.914C212.852 357.662 213.215 357.454 213.637 357.29C214.059 357.12 214.533 357.035 215.061 357.035C215.893 357.035 216.587 357.217 217.144 357.58C217.7 357.938 218.119 358.441 218.4 359.092C218.682 359.742 218.822 360.504 218.822 361.377C218.822 362.426 218.641 363.308 218.277 364.022C217.92 364.737 217.416 365.276 216.766 365.64C216.115 365.997 215.351 366.176 214.472 366.176C213.792 366.176 213.183 366.044 212.644 365.78C212.11 365.517 211.656 365.13 211.281 364.62C210.912 364.11 210.628 363.486 210.429 362.748C210.235 362.01 210.139 361.166 210.139 360.217ZM214.586 364.963C215.143 364.963 215.62 364.846 216.019 364.611C216.423 364.377 216.733 364.008 216.95 363.504C217.173 362.994 217.284 362.332 217.284 361.518C217.284 360.498 217.088 359.701 216.695 359.127C216.309 358.547 215.688 358.257 214.832 358.257C214.299 358.257 213.815 358.371 213.382 358.6C212.948 358.822 212.582 359.089 212.283 359.399C211.984 359.71 211.768 359.988 211.633 360.234C211.633 360.832 211.677 361.412 211.765 361.975C211.853 362.537 212.005 363.044 212.222 363.495C212.438 363.946 212.737 364.304 213.118 364.567C213.505 364.831 213.994 364.963 214.586 364.963ZM219.824 356.367H221.389L223.516 361.957C223.639 362.285 223.753 362.602 223.858 362.906C223.964 363.205 224.058 363.492 224.14 363.768C224.222 364.043 224.286 364.31 224.333 364.567H224.395C224.477 364.274 224.594 363.891 224.746 363.416C224.898 362.936 225.062 362.446 225.238 361.948L227.251 356.367H228.824L224.632 367.415C224.409 368.007 224.148 368.522 223.85 368.962C223.557 369.401 223.199 369.738 222.777 369.973C222.355 370.213 221.846 370.333 221.248 370.333C220.973 370.333 220.729 370.315 220.519 370.28C220.308 370.251 220.126 370.216 219.974 370.175V369.006C220.103 369.035 220.258 369.062 220.439 369.085C220.627 369.108 220.82 369.12 221.02 369.12C221.383 369.12 221.696 369.05 221.96 368.909C222.229 368.774 222.461 368.575 222.654 368.312C222.848 368.048 223.015 367.734 223.155 367.371L223.683 366.018L219.824 356.367ZM237.42 356.367V364.761H238.8V369.331H237.385V366H230.564V369.331H229.167V364.761H229.923C230.474 363.999 230.931 363.164 231.294 362.256C231.657 361.348 231.933 360.396 232.12 359.399C232.308 358.397 232.407 357.387 232.419 356.367H237.42ZM236.005 357.527H233.72C233.667 358.383 233.541 359.253 233.342 360.138C233.148 361.022 232.891 361.866 232.568 362.669C232.246 363.466 231.871 364.163 231.443 364.761H236.005V357.527ZM244.425 356.191C245.245 356.191 245.948 356.373 246.534 356.736C247.12 357.1 247.568 357.609 247.879 358.266C248.189 358.916 248.345 359.678 248.345 360.551V361.456H241.691C241.709 362.587 241.99 363.448 242.535 364.04C243.08 364.632 243.848 364.928 244.838 364.928C245.447 364.928 245.986 364.872 246.455 364.761C246.924 364.649 247.41 364.485 247.914 364.269V365.552C247.428 365.769 246.944 365.927 246.464 366.026C245.989 366.126 245.427 366.176 244.776 366.176C243.851 366.176 243.042 365.988 242.351 365.613C241.665 365.232 241.132 364.676 240.751 363.943C240.37 363.211 240.18 362.314 240.18 361.254C240.18 360.217 240.353 359.32 240.698 358.564C241.05 357.803 241.542 357.217 242.175 356.807C242.813 356.396 243.563 356.191 244.425 356.191ZM244.407 357.387C243.628 357.387 243.007 357.642 242.544 358.151C242.081 358.661 241.806 359.373 241.718 360.287H246.815C246.81 359.713 246.719 359.209 246.543 358.775C246.373 358.336 246.112 357.996 245.761 357.756C245.409 357.51 244.958 357.387 244.407 357.387ZM257.389 357.606H254.216V366H252.774V357.606H249.646V356.367H257.389V357.606ZM263.005 356.191C263.825 356.191 264.528 356.373 265.114 356.736C265.7 357.1 266.148 357.609 266.459 358.266C266.77 358.916 266.925 359.678 266.925 360.551V361.456H260.271C260.289 362.587 260.57 363.448 261.115 364.04C261.66 364.632 262.428 364.928 263.418 364.928C264.027 364.928 264.566 364.872 265.035 364.761C265.504 364.649 265.99 364.485 266.494 364.269V365.552C266.008 365.769 265.524 365.927 265.044 366.026C264.569 366.126 264.007 366.176 263.356 366.176C262.431 366.176 261.622 365.988 260.931 365.613C260.245 365.232 259.712 364.676 259.331 363.943C258.95 363.211 258.76 362.314 258.76 361.254C258.76 360.217 258.933 359.32 259.278 358.564C259.63 357.803 260.122 357.217 260.755 356.807C261.394 356.396 262.144 356.191 263.005 356.191ZM262.987 357.387C262.208 357.387 261.587 357.642 261.124 358.151C260.661 358.661 260.386 359.373 260.298 360.287H265.396C265.39 359.713 265.299 359.209 265.123 358.775C264.953 358.336 264.692 357.996 264.341 357.756C263.989 357.51 263.538 357.387 262.987 357.387ZM281.734 358.784C281.734 359.388 281.559 359.859 281.207 360.199C280.855 360.533 280.401 360.759 279.845 360.876V360.946C280.448 361.028 280.967 361.245 281.4 361.597C281.84 361.942 282.06 362.473 282.06 363.188C282.06 363.738 281.928 364.225 281.664 364.646C281.4 365.068 280.987 365.399 280.425 365.64C279.862 365.88 279.13 366 278.228 366H274.079V356.367H278.192C278.884 356.367 279.493 356.446 280.021 356.604C280.554 356.757 280.973 357.009 281.277 357.36C281.582 357.712 281.734 358.187 281.734 358.784ZM280.539 363.188C280.539 362.619 280.322 362.209 279.889 361.957C279.461 361.705 278.837 361.579 278.017 361.579H275.547V364.813H278.052C278.86 364.813 279.476 364.69 279.897 364.444C280.325 364.192 280.539 363.773 280.539 363.188ZM280.249 358.951C280.249 358.494 280.082 358.154 279.748 357.932C279.414 357.703 278.866 357.589 278.104 357.589H275.547V360.357H277.85C278.641 360.357 279.238 360.243 279.643 360.015C280.047 359.786 280.249 359.432 280.249 358.951ZM294.707 356.367H296.315L292.158 361.017L296.649 366H294.936L290.559 361.113V366H289.091V356.367H290.559V361.043L294.707 356.367ZM296.869 356.367H298.434L300.561 361.957C300.684 362.285 300.798 362.602 300.903 362.906C301.009 363.205 301.103 363.492 301.185 363.768C301.267 364.043 301.331 364.31 301.378 364.567H301.439C301.521 364.274 301.639 363.891 301.791 363.416C301.943 362.936 302.107 362.446 302.283 361.948L304.296 356.367H305.869L301.677 367.415C301.454 368.007 301.193 368.522 300.895 368.962C300.602 369.401 300.244 369.738 299.822 369.973C299.4 370.213 298.891 370.333 298.293 370.333C298.018 370.333 297.774 370.315 297.563 370.28C297.353 370.251 297.171 370.216 297.019 370.175V369.006C297.147 369.035 297.303 369.062 297.484 369.085C297.672 369.108 297.865 369.12 298.064 369.12C298.428 369.12 298.741 369.05 299.005 368.909C299.274 368.774 299.506 368.575 299.699 368.312C299.893 368.048 300.06 367.734 300.2 367.371L300.728 366.018L296.869 356.367ZM311.934 356.191C313.135 356.191 314.093 356.604 314.808 357.431C315.522 358.257 315.88 359.499 315.88 361.157C315.88 362.253 315.716 363.173 315.388 363.917C315.06 364.661 314.597 365.224 313.999 365.604C313.407 365.985 312.707 366.176 311.898 366.176C311.389 366.176 310.94 366.108 310.554 365.974C310.167 365.839 309.836 365.657 309.561 365.429C309.285 365.2 309.057 364.951 308.875 364.682H308.77C308.787 364.91 308.808 365.186 308.831 365.508C308.86 365.83 308.875 366.111 308.875 366.352V370.307H307.407V356.367H308.611L308.805 357.791H308.875C309.062 357.498 309.291 357.231 309.561 356.991C309.83 356.745 310.158 356.552 310.545 356.411C310.938 356.265 311.4 356.191 311.934 356.191ZM311.679 357.422C311.011 357.422 310.472 357.551 310.062 357.809C309.657 358.066 309.361 358.453 309.174 358.969C308.986 359.479 308.887 360.12 308.875 360.894V361.175C308.875 361.989 308.963 362.678 309.139 363.24C309.32 363.803 309.616 364.23 310.026 364.523C310.442 364.816 310.999 364.963 311.696 364.963C312.294 364.963 312.792 364.802 313.19 364.479C313.589 364.157 313.885 363.709 314.078 363.135C314.277 362.555 314.377 361.89 314.377 361.14C314.377 360.003 314.154 359.101 313.709 358.433C313.27 357.759 312.593 357.422 311.679 357.422ZM322.287 366.176C321.42 366.176 320.655 365.997 319.993 365.64C319.331 365.282 318.815 364.737 318.446 364.005C318.077 363.272 317.893 362.35 317.893 361.236C317.893 360.07 318.086 359.118 318.473 358.38C318.865 357.636 319.404 357.085 320.09 356.728C320.775 356.37 321.555 356.191 322.428 356.191C322.908 356.191 323.371 356.241 323.816 356.341C324.268 356.435 324.637 356.555 324.924 356.701L324.484 357.923C324.191 357.806 323.852 357.7 323.465 357.606C323.084 357.513 322.727 357.466 322.393 357.466C321.725 357.466 321.168 357.609 320.723 357.896C320.283 358.184 319.952 358.605 319.729 359.162C319.513 359.719 319.404 360.404 319.404 361.219C319.404 361.998 319.51 362.663 319.721 363.214C319.938 363.765 320.257 364.187 320.679 364.479C321.106 364.767 321.64 364.91 322.278 364.91C322.788 364.91 323.248 364.857 323.658 364.752C324.068 364.641 324.44 364.512 324.774 364.365V365.666C324.452 365.83 324.092 365.956 323.693 366.044C323.301 366.132 322.832 366.176 322.287 366.176ZM330.769 356.191C331.589 356.191 332.292 356.373 332.878 356.736C333.464 357.1 333.912 357.609 334.223 358.266C334.533 358.916 334.688 359.678 334.688 360.551V361.456H328.035C328.053 362.587 328.334 363.448 328.879 364.04C329.424 364.632 330.191 364.928 331.182 364.928C331.791 364.928 332.33 364.872 332.799 364.761C333.268 364.649 333.754 364.485 334.258 364.269V365.552C333.771 365.769 333.288 365.927 332.808 366.026C332.333 366.126 331.771 366.176 331.12 366.176C330.194 366.176 329.386 365.988 328.694 365.613C328.009 365.232 327.476 364.676 327.095 363.943C326.714 363.211 326.523 362.314 326.523 361.254C326.523 360.217 326.696 359.32 327.042 358.564C327.394 357.803 327.886 357.217 328.519 356.807C329.157 356.396 329.907 356.191 330.769 356.191ZM330.751 357.387C329.972 357.387 329.351 357.642 328.888 358.151C328.425 358.661 328.149 359.373 328.062 360.287H333.159C333.153 359.713 333.062 359.209 332.887 358.775C332.717 358.336 332.456 357.996 332.104 357.756C331.753 357.51 331.302 357.387 330.751 357.387ZM338.837 363.908L338.951 364.11C338.846 364.538 338.711 364.995 338.547 365.481C338.389 365.968 338.213 366.454 338.02 366.94C337.832 367.433 337.642 367.893 337.448 368.32H336.358C336.481 367.852 336.602 367.356 336.719 366.835C336.836 366.319 336.941 365.81 337.035 365.306C337.135 364.796 337.214 364.33 337.272 363.908H338.837ZM347.775 356.367V359.83C347.775 360.434 347.939 360.879 348.268 361.166C348.602 361.453 349.085 361.597 349.718 361.597C350.327 361.597 350.881 361.503 351.379 361.315C351.877 361.128 352.381 360.873 352.891 360.551V356.367H354.35V366H352.891V361.685C352.352 362.03 351.821 362.303 351.3 362.502C350.778 362.701 350.154 362.801 349.428 362.801C348.438 362.801 347.67 362.543 347.125 362.027C346.586 361.512 346.316 360.814 346.316 359.936V356.367H347.775ZM364 357.606H360.827V366H359.386V357.606H356.257V356.367H364V357.606ZM374.213 361.166C374.213 361.957 374.11 362.663 373.905 363.284C373.7 363.905 373.404 364.43 373.018 364.857C372.631 365.285 372.162 365.613 371.611 365.842C371.066 366.064 370.448 366.176 369.757 366.176C369.112 366.176 368.521 366.064 367.981 365.842C367.448 365.613 366.985 365.285 366.593 364.857C366.206 364.43 365.904 363.905 365.688 363.284C365.477 362.663 365.371 361.957 365.371 361.166C365.371 360.111 365.55 359.215 365.907 358.477C366.265 357.732 366.774 357.167 367.437 356.78C368.104 356.388 368.898 356.191 369.818 356.191C370.697 356.191 371.465 356.388 372.121 356.78C372.783 357.173 373.296 357.741 373.659 358.485C374.028 359.224 374.213 360.117 374.213 361.166ZM366.883 361.166C366.883 361.939 366.985 362.61 367.19 363.179C367.396 363.747 367.712 364.187 368.14 364.497C368.567 364.808 369.118 364.963 369.792 364.963C370.46 364.963 371.008 364.808 371.436 364.497C371.869 364.187 372.188 363.747 372.394 363.179C372.599 362.61 372.701 361.939 372.701 361.166C372.701 360.398 372.599 359.736 372.394 359.18C372.188 358.617 371.872 358.184 371.444 357.879C371.017 357.574 370.463 357.422 369.783 357.422C368.781 357.422 368.046 357.753 367.577 358.415C367.114 359.077 366.883 359.994 366.883 361.166ZM385.27 366.176C384.402 366.176 383.638 365.997 382.976 365.64C382.313 365.282 381.798 364.737 381.429 364.005C381.06 363.272 380.875 362.35 380.875 361.236C380.875 360.07 381.068 359.118 381.455 358.38C381.848 357.636 382.387 357.085 383.072 356.728C383.758 356.37 384.537 356.191 385.41 356.191C385.891 356.191 386.354 356.241 386.799 356.341C387.25 356.435 387.619 356.555 387.906 356.701L387.467 357.923C387.174 357.806 386.834 357.7 386.447 357.606C386.066 357.513 385.709 357.466 385.375 357.466C384.707 357.466 384.15 357.609 383.705 357.896C383.266 358.184 382.935 358.605 382.712 359.162C382.495 359.719 382.387 360.404 382.387 361.219C382.387 361.998 382.492 362.663 382.703 363.214C382.92 363.765 383.239 364.187 383.661 364.479C384.089 364.767 384.622 364.91 385.261 364.91C385.771 364.91 386.23 364.857 386.641 364.752C387.051 364.641 387.423 364.512 387.757 364.365V365.666C387.435 365.83 387.074 365.956 386.676 366.044C386.283 366.132 385.814 366.176 385.27 366.176ZM393.751 356.191C394.571 356.191 395.274 356.373 395.86 356.736C396.446 357.1 396.895 357.609 397.205 358.266C397.516 358.916 397.671 359.678 397.671 360.551V361.456H391.018C391.035 362.587 391.316 363.448 391.861 364.04C392.406 364.632 393.174 364.928 394.164 364.928C394.773 364.928 395.312 364.872 395.781 364.761C396.25 364.649 396.736 364.485 397.24 364.269V365.552C396.754 365.769 396.271 365.927 395.79 366.026C395.315 366.126 394.753 366.176 394.103 366.176C393.177 366.176 392.368 365.988 391.677 365.613C390.991 365.232 390.458 364.676 390.077 363.943C389.696 363.211 389.506 362.314 389.506 361.254C389.506 360.217 389.679 359.32 390.024 358.564C390.376 357.803 390.868 357.217 391.501 356.807C392.14 356.396 392.89 356.191 393.751 356.191ZM393.733 357.387C392.954 357.387 392.333 357.642 391.87 358.151C391.407 358.661 391.132 359.373 391.044 360.287H396.142C396.136 359.713 396.045 359.209 395.869 358.775C395.699 358.336 395.438 357.996 395.087 357.756C394.735 357.51 394.284 357.387 393.733 357.387ZM401.538 356.367V362.423C401.538 362.54 401.535 362.692 401.529 362.88C401.523 363.062 401.515 363.258 401.503 363.469C401.491 363.674 401.479 363.873 401.468 364.066C401.462 364.254 401.453 364.409 401.441 364.532L406.697 356.367H408.49V366H407.128V360.094C407.128 359.906 407.131 359.666 407.137 359.373C407.143 359.08 407.151 358.793 407.163 358.512C407.175 358.225 407.184 358.002 407.189 357.844L401.951 366H400.149V356.367H401.538ZM407.77 352.403C407.717 352.995 407.567 353.49 407.321 353.889C407.081 354.287 406.727 354.589 406.258 354.794C405.789 354.993 405.188 355.093 404.456 355.093C403.7 355.093 403.091 354.996 402.628 354.803C402.171 354.604 401.831 354.305 401.608 353.906C401.392 353.508 401.263 353.007 401.222 352.403H402.593C402.657 353.048 402.83 353.487 403.111 353.722C403.393 353.956 403.85 354.073 404.482 354.073C405.045 354.073 405.487 353.95 405.81 353.704C406.132 353.458 406.325 353.024 406.39 352.403H407.77ZM412.867 356.367V359.83C412.867 360.434 413.031 360.879 413.359 361.166C413.693 361.453 414.177 361.597 414.81 361.597C415.419 361.597 415.973 361.503 416.471 361.315C416.969 361.128 417.473 360.873 417.982 360.551V356.367H419.441V366H417.982V361.685C417.443 362.03 416.913 362.303 416.392 362.502C415.87 362.701 415.246 362.801 414.52 362.801C413.529 362.801 412.762 362.543 412.217 362.027C411.678 361.512 411.408 360.814 411.408 359.936V356.367H412.867ZM426.13 356.209C427.278 356.209 428.131 356.467 428.688 356.982C429.244 357.498 429.522 358.321 429.522 359.452V366H428.459L428.178 364.576H428.107C427.838 364.928 427.557 365.224 427.264 365.464C426.971 365.698 426.631 365.877 426.244 366C425.863 366.117 425.395 366.176 424.838 366.176C424.252 366.176 423.73 366.073 423.273 365.868C422.822 365.663 422.465 365.353 422.201 364.937C421.943 364.521 421.814 363.993 421.814 363.354C421.814 362.394 422.195 361.655 422.957 361.14C423.719 360.624 424.879 360.343 426.438 360.296L428.099 360.226V359.637C428.099 358.805 427.92 358.222 427.562 357.888C427.205 357.554 426.701 357.387 426.051 357.387C425.547 357.387 425.066 357.46 424.609 357.606C424.152 357.753 423.719 357.926 423.309 358.125L422.86 357.018C423.294 356.795 423.792 356.604 424.354 356.446C424.917 356.288 425.509 356.209 426.13 356.209ZM428.081 361.254L426.613 361.315C425.412 361.362 424.565 361.559 424.073 361.904C423.581 362.25 423.335 362.739 423.335 363.372C423.335 363.923 423.502 364.33 423.836 364.594C424.17 364.857 424.612 364.989 425.163 364.989C426.019 364.989 426.719 364.752 427.264 364.277C427.809 363.803 428.081 363.091 428.081 362.142V361.254ZM436.387 366.176C435.52 366.176 434.755 365.997 434.093 365.64C433.431 365.282 432.915 364.737 432.546 364.005C432.177 363.272 431.992 362.35 431.992 361.236C431.992 360.07 432.186 359.118 432.572 358.38C432.965 357.636 433.504 357.085 434.189 356.728C434.875 356.37 435.654 356.191 436.527 356.191C437.008 356.191 437.471 356.241 437.916 356.341C438.367 356.435 438.736 356.555 439.023 356.701L438.584 357.923C438.291 357.806 437.951 357.7 437.564 357.606C437.184 357.513 436.826 357.466 436.492 357.466C435.824 357.466 435.268 357.609 434.822 357.896C434.383 358.184 434.052 358.605 433.829 359.162C433.612 359.719 433.504 360.404 433.504 361.219C433.504 361.998 433.609 362.663 433.82 363.214C434.037 363.765 434.356 364.187 434.778 364.479C435.206 364.767 435.739 364.91 436.378 364.91C436.888 364.91 437.348 364.857 437.758 364.752C438.168 364.641 438.54 364.512 438.874 364.365V365.666C438.552 365.83 438.191 365.956 437.793 366.044C437.4 366.132 436.932 366.176 436.387 366.176ZM49.1934 385.784C49.1934 386.388 49.0176 386.859 48.666 387.199C48.3145 387.533 47.8604 387.759 47.3037 387.876V387.946C47.9072 388.028 48.4258 388.245 48.8594 388.597C49.2988 388.942 49.5186 389.473 49.5186 390.188C49.5186 390.738 49.3867 391.225 49.123 391.646C48.8594 392.068 48.4463 392.399 47.8838 392.64C47.3213 392.88 46.5889 393 45.6865 393H41.5381V383.367H45.6514C46.3428 383.367 46.9521 383.446 47.4795 383.604C48.0127 383.757 48.4316 384.009 48.7363 384.36C49.041 384.712 49.1934 385.187 49.1934 385.784ZM47.998 390.188C47.998 389.619 47.7812 389.209 47.3477 388.957C46.9199 388.705 46.2959 388.579 45.4756 388.579H43.0059V391.813H45.5107C46.3193 391.813 46.9346 391.69 47.3564 391.444C47.7842 391.192 47.998 390.773 47.998 390.188ZM47.708 385.951C47.708 385.494 47.541 385.154 47.207 384.932C46.873 384.703 46.3252 384.589 45.5635 384.589H43.0059V387.357H45.3086C46.0996 387.357 46.6973 387.243 47.1016 387.015C47.5059 386.786 47.708 386.432 47.708 385.951ZM61.0762 383.191C62.2773 383.191 63.2354 383.604 63.9502 384.431C64.665 385.257 65.0225 386.499 65.0225 388.157C65.0225 389.253 64.8584 390.173 64.5303 390.917C64.2021 391.661 63.7393 392.224 63.1416 392.604C62.5498 392.985 61.8496 393.176 61.041 393.176C60.5312 393.176 60.083 393.108 59.6963 392.974C59.3096 392.839 58.9785 392.657 58.7031 392.429C58.4277 392.2 58.1992 391.951 58.0176 391.682H57.9121C57.9297 391.91 57.9502 392.186 57.9736 392.508C58.0029 392.83 58.0176 393.111 58.0176 393.352V397.307H56.5498V383.367H57.7539L57.9473 384.791H58.0176C58.2051 384.498 58.4336 384.231 58.7031 383.991C58.9727 383.745 59.3008 383.552 59.6875 383.411C60.0801 383.265 60.543 383.191 61.0762 383.191ZM60.8213 384.422C60.1533 384.422 59.6143 384.551 59.2041 384.809C58.7998 385.066 58.5039 385.453 58.3164 385.969C58.1289 386.479 58.0293 387.12 58.0176 387.894V388.175C58.0176 388.989 58.1055 389.678 58.2812 390.24C58.4629 390.803 58.7588 391.23 59.1689 391.523C59.585 391.816 60.1416 391.963 60.8389 391.963C61.4365 391.963 61.9346 391.802 62.333 391.479C62.7314 391.157 63.0273 390.709 63.2207 390.135C63.4199 389.555 63.5195 388.89 63.5195 388.14C63.5195 387.003 63.2969 386.101 62.8516 385.433C62.4121 384.759 61.7354 384.422 60.8213 384.422ZM71.1748 383.209C72.3232 383.209 73.1758 383.467 73.7324 383.982C74.2891 384.498 74.5674 385.321 74.5674 386.452V393H73.5039L73.2227 391.576H73.1523C72.8828 391.928 72.6016 392.224 72.3086 392.464C72.0156 392.698 71.6758 392.877 71.2891 393C70.9082 393.117 70.4395 393.176 69.8828 393.176C69.2969 393.176 68.7754 393.073 68.3184 392.868C67.8672 392.663 67.5098 392.353 67.2461 391.937C66.9883 391.521 66.8594 390.993 66.8594 390.354C66.8594 389.394 67.2402 388.655 68.002 388.14C68.7637 387.624 69.9238 387.343 71.4824 387.296L73.1436 387.226V386.637C73.1436 385.805 72.9648 385.222 72.6074 384.888C72.25 384.554 71.7461 384.387 71.0957 384.387C70.5918 384.387 70.1113 384.46 69.6543 384.606C69.1973 384.753 68.7637 384.926 68.3535 385.125L67.9053 384.018C68.3389 383.795 68.8369 383.604 69.3994 383.446C69.9619 383.288 70.5537 383.209 71.1748 383.209ZM73.126 388.254L71.6582 388.315C70.457 388.362 69.6104 388.559 69.1182 388.904C68.626 389.25 68.3799 389.739 68.3799 390.372C68.3799 390.923 68.5469 391.33 68.8809 391.594C69.2148 391.857 69.6572 391.989 70.208 391.989C71.0635 391.989 71.7637 391.752 72.3086 391.277C72.8535 390.803 73.126 390.091 73.126 389.142V388.254ZM77.0723 387.217C77.0723 385.846 77.2041 384.677 77.4678 383.71C77.7314 382.737 78.1387 381.958 78.6895 381.372C79.2461 380.78 79.9609 380.376 80.834 380.159C81.584 379.954 82.3457 379.778 83.1191 379.632C83.8926 379.479 84.6455 379.348 85.3779 379.236L85.6328 380.52C85.2637 380.572 84.877 380.634 84.4727 380.704C84.0684 380.769 83.6641 380.839 83.2598 380.915C82.8555 380.985 82.4746 381.062 82.1172 381.144C81.7598 381.22 81.4434 381.299 81.168 381.381C80.6699 381.516 80.2393 381.75 79.876 382.084C79.5186 382.418 79.2344 382.878 79.0234 383.464C78.8184 384.05 78.6953 384.788 78.6543 385.679H78.7598C78.9355 385.421 79.1758 385.166 79.4805 384.914C79.7852 384.662 80.1484 384.454 80.5703 384.29C80.9922 384.12 81.4668 384.035 81.9941 384.035C82.8262 384.035 83.5205 384.217 84.0771 384.58C84.6338 384.938 85.0527 385.441 85.334 386.092C85.6152 386.742 85.7559 387.504 85.7559 388.377C85.7559 389.426 85.5742 390.308 85.2109 391.022C84.8535 391.737 84.3496 392.276 83.6992 392.64C83.0488 392.997 82.2842 393.176 81.4053 393.176C80.7256 393.176 80.1162 393.044 79.5771 392.78C79.0439 392.517 78.5898 392.13 78.2148 391.62C77.8457 391.11 77.5615 390.486 77.3623 389.748C77.1689 389.01 77.0723 388.166 77.0723 387.217ZM81.5195 391.963C82.0762 391.963 82.5537 391.846 82.9521 391.611C83.3564 391.377 83.667 391.008 83.8838 390.504C84.1064 389.994 84.2178 389.332 84.2178 388.518C84.2178 387.498 84.0215 386.701 83.6289 386.127C83.2422 385.547 82.6211 385.257 81.7656 385.257C81.2324 385.257 80.749 385.371 80.3154 385.6C79.8818 385.822 79.5156 386.089 79.2168 386.399C78.918 386.71 78.7012 386.988 78.5664 387.234C78.5664 387.832 78.6104 388.412 78.6982 388.975C78.7861 389.537 78.9385 390.044 79.1553 390.495C79.3721 390.946 79.6709 391.304 80.0518 391.567C80.4385 391.831 80.9277 391.963 81.5195 391.963ZM96.584 388.166C96.584 388.957 96.4814 389.663 96.2764 390.284C96.0713 390.905 95.7754 391.43 95.3887 391.857C95.002 392.285 94.5332 392.613 93.9824 392.842C93.4375 393.064 92.8193 393.176 92.1279 393.176C91.4834 393.176 90.8916 393.064 90.3525 392.842C89.8193 392.613 89.3564 392.285 88.9639 391.857C88.5771 391.43 88.2754 390.905 88.0586 390.284C87.8477 389.663 87.7422 388.957 87.7422 388.166C87.7422 387.111 87.9209 386.215 88.2783 385.477C88.6357 384.732 89.1455 384.167 89.8076 383.78C90.4756 383.388 91.2695 383.191 92.1895 383.191C93.0684 383.191 93.8359 383.388 94.4922 383.78C95.1543 384.173 95.667 384.741 96.0303 385.485C96.3994 386.224 96.584 387.117 96.584 388.166ZM89.2539 388.166C89.2539 388.939 89.3564 389.61 89.5615 390.179C89.7666 390.747 90.083 391.187 90.5107 391.497C90.9385 391.808 91.4893 391.963 92.1631 391.963C92.8311 391.963 93.3789 391.808 93.8066 391.497C94.2402 391.187 94.5596 390.747 94.7646 390.179C94.9697 389.61 95.0723 388.939 95.0723 388.166C95.0723 387.398 94.9697 386.736 94.7646 386.18C94.5596 385.617 94.2432 385.184 93.8154 384.879C93.3877 384.574 92.834 384.422 92.1543 384.422C91.1523 384.422 90.417 384.753 89.9482 385.415C89.4854 386.077 89.2539 386.994 89.2539 388.166ZM105.672 384.606H102.499V393H101.058V384.606H97.9287V383.367H105.672V384.606ZM111.288 383.191C112.108 383.191 112.812 383.373 113.397 383.736C113.983 384.1 114.432 384.609 114.742 385.266C115.053 385.916 115.208 386.678 115.208 387.551V388.456H108.555C108.572 389.587 108.854 390.448 109.398 391.04C109.943 391.632 110.711 391.928 111.701 391.928C112.311 391.928 112.85 391.872 113.318 391.761C113.787 391.649 114.273 391.485 114.777 391.269V392.552C114.291 392.769 113.808 392.927 113.327 393.026C112.853 393.126 112.29 393.176 111.64 393.176C110.714 393.176 109.905 392.988 109.214 392.613C108.528 392.232 107.995 391.676 107.614 390.943C107.233 390.211 107.043 389.314 107.043 388.254C107.043 387.217 107.216 386.32 107.562 385.564C107.913 384.803 108.405 384.217 109.038 383.807C109.677 383.396 110.427 383.191 111.288 383.191ZM111.271 384.387C110.491 384.387 109.87 384.642 109.407 385.151C108.944 385.661 108.669 386.373 108.581 387.287H113.679C113.673 386.713 113.582 386.209 113.406 385.775C113.236 385.336 112.976 384.996 112.624 384.756C112.272 384.51 111.821 384.387 111.271 384.387ZM123.751 383.367V389.423C123.751 389.54 123.748 389.692 123.742 389.88C123.736 390.062 123.728 390.258 123.716 390.469C123.704 390.674 123.692 390.873 123.681 391.066C123.675 391.254 123.666 391.409 123.654 391.532L128.91 383.367H130.703V393H129.341V387.094C129.341 386.906 129.344 386.666 129.35 386.373C129.355 386.08 129.364 385.793 129.376 385.512C129.388 385.225 129.396 385.002 129.402 384.844L124.164 393H122.362V383.367H123.751ZM144.098 383.367H145.706L141.549 388.017L146.04 393H144.326L139.949 388.113V393H138.481V383.367H139.949V388.043L144.098 383.367ZM156.086 388.166C156.086 388.957 155.983 389.663 155.778 390.284C155.573 390.905 155.277 391.43 154.891 391.857C154.504 392.285 154.035 392.613 153.484 392.842C152.939 393.064 152.321 393.176 151.63 393.176C150.985 393.176 150.394 393.064 149.854 392.842C149.321 392.613 148.858 392.285 148.466 391.857C148.079 391.43 147.777 390.905 147.561 390.284C147.35 389.663 147.244 388.957 147.244 388.166C147.244 387.111 147.423 386.215 147.78 385.477C148.138 384.732 148.647 384.167 149.31 383.78C149.978 383.388 150.771 383.191 151.691 383.191C152.57 383.191 153.338 383.388 153.994 383.78C154.656 384.173 155.169 384.741 155.532 385.485C155.901 386.224 156.086 387.117 156.086 388.166ZM148.756 388.166C148.756 388.939 148.858 389.61 149.063 390.179C149.269 390.747 149.585 391.187 150.013 391.497C150.44 391.808 150.991 391.963 151.665 391.963C152.333 391.963 152.881 391.808 153.309 391.497C153.742 391.187 154.062 390.747 154.267 390.179C154.472 389.61 154.574 388.939 154.574 388.166C154.574 387.398 154.472 386.736 154.267 386.18C154.062 385.617 153.745 385.184 153.317 384.879C152.89 384.574 152.336 384.422 151.656 384.422C150.654 384.422 149.919 384.753 149.45 385.415C148.987 386.077 148.756 386.994 148.756 388.166ZM164.453 383.367V384.606H160.076V393H158.608V383.367H164.453ZM173.436 383.367V391.761H174.815V396.331H173.4V393H166.58V396.331H165.183V391.761H165.938C166.489 390.999 166.946 390.164 167.31 389.256C167.673 388.348 167.948 387.396 168.136 386.399C168.323 385.397 168.423 384.387 168.435 383.367H173.436ZM172.021 384.527H169.735C169.683 385.383 169.557 386.253 169.357 387.138C169.164 388.022 168.906 388.866 168.584 389.669C168.262 390.466 167.887 391.163 167.459 391.761H172.021V384.527ZM180.335 383.209C181.483 383.209 182.336 383.467 182.893 383.982C183.449 384.498 183.728 385.321 183.728 386.452V393H182.664L182.383 391.576H182.312C182.043 391.928 181.762 392.224 181.469 392.464C181.176 392.698 180.836 392.877 180.449 393C180.068 393.117 179.6 393.176 179.043 393.176C178.457 393.176 177.936 393.073 177.479 392.868C177.027 392.663 176.67 392.353 176.406 391.937C176.148 391.521 176.02 390.993 176.02 390.354C176.02 389.394 176.4 388.655 177.162 388.14C177.924 387.624 179.084 387.343 180.643 387.296L182.304 387.226V386.637C182.304 385.805 182.125 385.222 181.768 384.888C181.41 384.554 180.906 384.387 180.256 384.387C179.752 384.387 179.271 384.46 178.814 384.606C178.357 384.753 177.924 384.926 177.514 385.125L177.065 384.018C177.499 383.795 177.997 383.604 178.56 383.446C179.122 383.288 179.714 383.209 180.335 383.209ZM182.286 388.254L180.818 388.315C179.617 388.362 178.771 388.559 178.278 388.904C177.786 389.25 177.54 389.739 177.54 390.372C177.54 390.923 177.707 391.33 178.041 391.594C178.375 391.857 178.817 391.989 179.368 391.989C180.224 391.989 180.924 391.752 181.469 391.277C182.014 390.803 182.286 390.091 182.286 389.142V388.254ZM190.908 387.217C190.908 385.846 191.04 384.677 191.304 383.71C191.567 382.737 191.975 381.958 192.525 381.372C193.082 380.78 193.797 380.376 194.67 380.159C195.42 379.954 196.182 379.778 196.955 379.632C197.729 379.479 198.481 379.348 199.214 379.236L199.469 380.52C199.1 380.572 198.713 380.634 198.309 380.704C197.904 380.769 197.5 380.839 197.096 380.915C196.691 380.985 196.311 381.062 195.953 381.144C195.596 381.22 195.279 381.299 195.004 381.381C194.506 381.516 194.075 381.75 193.712 382.084C193.354 382.418 193.07 382.878 192.859 383.464C192.654 384.05 192.531 384.788 192.49 385.679H192.596C192.771 385.421 193.012 385.166 193.316 384.914C193.621 384.662 193.984 384.454 194.406 384.29C194.828 384.12 195.303 384.035 195.83 384.035C196.662 384.035 197.356 384.217 197.913 384.58C198.47 384.938 198.889 385.441 199.17 386.092C199.451 386.742 199.592 387.504 199.592 388.377C199.592 389.426 199.41 390.308 199.047 391.022C198.689 391.737 198.186 392.276 197.535 392.64C196.885 392.997 196.12 393.176 195.241 393.176C194.562 393.176 193.952 393.044 193.413 392.78C192.88 392.517 192.426 392.13 192.051 391.62C191.682 391.11 191.397 390.486 191.198 389.748C191.005 389.01 190.908 388.166 190.908 387.217ZM195.355 391.963C195.912 391.963 196.39 391.846 196.788 391.611C197.192 391.377 197.503 391.008 197.72 390.504C197.942 389.994 198.054 389.332 198.054 388.518C198.054 387.498 197.857 386.701 197.465 386.127C197.078 385.547 196.457 385.257 195.602 385.257C195.068 385.257 194.585 385.371 194.151 385.6C193.718 385.822 193.352 386.089 193.053 386.399C192.754 386.71 192.537 386.988 192.402 387.234C192.402 387.832 192.446 388.412 192.534 388.975C192.622 389.537 192.774 390.044 192.991 390.495C193.208 390.946 193.507 391.304 193.888 391.567C194.274 391.831 194.764 391.963 195.355 391.963ZM200.594 383.367H202.158L204.285 388.957C204.408 389.285 204.522 389.602 204.628 389.906C204.733 390.205 204.827 390.492 204.909 390.768C204.991 391.043 205.056 391.31 205.103 391.567H205.164C205.246 391.274 205.363 390.891 205.516 390.416C205.668 389.936 205.832 389.446 206.008 388.948L208.021 383.367H209.594L205.401 394.415C205.179 395.007 204.918 395.522 204.619 395.962C204.326 396.401 203.969 396.738 203.547 396.973C203.125 397.213 202.615 397.333 202.018 397.333C201.742 397.333 201.499 397.315 201.288 397.28C201.077 397.251 200.896 397.216 200.743 397.175V396.006C200.872 396.035 201.027 396.062 201.209 396.085C201.396 396.108 201.59 396.12 201.789 396.12C202.152 396.12 202.466 396.05 202.729 395.909C202.999 395.774 203.23 395.575 203.424 395.312C203.617 395.048 203.784 394.734 203.925 394.371L204.452 393.018L200.594 383.367ZM218.189 383.367V391.761H219.569V396.331H218.154V393H211.334V396.331H209.937V391.761H210.692C211.243 390.999 211.7 390.164 212.063 389.256C212.427 388.348 212.702 387.396 212.89 386.399C213.077 385.397 213.177 384.387 213.188 383.367H218.189ZM216.774 384.527H214.489C214.437 385.383 214.311 386.253 214.111 387.138C213.918 388.022 213.66 388.866 213.338 389.669C213.016 390.466 212.641 391.163 212.213 391.761H216.774V384.527ZM225.194 383.191C226.015 383.191 226.718 383.373 227.304 383.736C227.89 384.1 228.338 384.609 228.648 385.266C228.959 385.916 229.114 386.678 229.114 387.551V388.456H222.461C222.479 389.587 222.76 390.448 223.305 391.04C223.85 391.632 224.617 391.928 225.607 391.928C226.217 391.928 226.756 391.872 227.225 391.761C227.693 391.649 228.18 391.485 228.684 391.269V392.552C228.197 392.769 227.714 392.927 227.233 393.026C226.759 393.126 226.196 393.176 225.546 393.176C224.62 393.176 223.812 392.988 223.12 392.613C222.435 392.232 221.901 391.676 221.521 390.943C221.14 390.211 220.949 389.314 220.949 388.254C220.949 387.217 221.122 386.32 221.468 385.564C221.819 384.803 222.312 384.217 222.944 383.807C223.583 383.396 224.333 383.191 225.194 383.191ZM225.177 384.387C224.397 384.387 223.776 384.642 223.313 385.151C222.851 385.661 222.575 386.373 222.487 387.287H227.585C227.579 386.713 227.488 386.209 227.312 385.775C227.143 385.336 226.882 384.996 226.53 384.756C226.179 384.51 225.728 384.387 225.177 384.387ZM238.158 384.606H234.985V393H233.544V384.606H230.415V383.367H238.158V384.606ZM250.586 383.367V384.606H246.209V393H244.741V383.367H250.586ZM260.816 388.166C260.816 388.957 260.714 389.663 260.509 390.284C260.304 390.905 260.008 391.43 259.621 391.857C259.234 392.285 258.766 392.613 258.215 392.842C257.67 393.064 257.052 393.176 256.36 393.176C255.716 393.176 255.124 393.064 254.585 392.842C254.052 392.613 253.589 392.285 253.196 391.857C252.81 391.43 252.508 390.905 252.291 390.284C252.08 389.663 251.975 388.957 251.975 388.166C251.975 387.111 252.153 386.215 252.511 385.477C252.868 384.732 253.378 384.167 254.04 383.78C254.708 383.388 255.502 383.191 256.422 383.191C257.301 383.191 258.068 383.388 258.725 383.78C259.387 384.173 259.899 384.741 260.263 385.485C260.632 386.224 260.816 387.117 260.816 388.166ZM253.486 388.166C253.486 388.939 253.589 389.61 253.794 390.179C253.999 390.747 254.315 391.187 254.743 391.497C255.171 391.808 255.722 391.963 256.396 391.963C257.063 391.963 257.611 391.808 258.039 391.497C258.473 391.187 258.792 390.747 258.997 390.179C259.202 389.61 259.305 388.939 259.305 388.166C259.305 387.398 259.202 386.736 258.997 386.18C258.792 385.617 258.476 385.184 258.048 384.879C257.62 384.574 257.066 384.422 256.387 384.422C255.385 384.422 254.649 384.753 254.181 385.415C253.718 386.077 253.486 386.994 253.486 388.166ZM269.904 384.606H266.731V393H265.29V384.606H262.161V383.367H269.904V384.606ZM280.117 388.166C280.117 388.957 280.015 389.663 279.81 390.284C279.604 390.905 279.309 391.43 278.922 391.857C278.535 392.285 278.066 392.613 277.516 392.842C276.971 393.064 276.353 393.176 275.661 393.176C275.017 393.176 274.425 393.064 273.886 392.842C273.353 392.613 272.89 392.285 272.497 391.857C272.11 391.43 271.809 390.905 271.592 390.284C271.381 389.663 271.275 388.957 271.275 388.166C271.275 387.111 271.454 386.215 271.812 385.477C272.169 384.732 272.679 384.167 273.341 383.78C274.009 383.388 274.803 383.191 275.723 383.191C276.602 383.191 277.369 383.388 278.025 383.78C278.688 384.173 279.2 384.741 279.563 385.485C279.933 386.224 280.117 387.117 280.117 388.166ZM272.787 388.166C272.787 388.939 272.89 389.61 273.095 390.179C273.3 390.747 273.616 391.187 274.044 391.497C274.472 391.808 275.022 391.963 275.696 391.963C276.364 391.963 276.912 391.808 277.34 391.497C277.773 391.187 278.093 390.747 278.298 390.179C278.503 389.61 278.605 388.939 278.605 388.166C278.605 387.398 278.503 386.736 278.298 386.18C278.093 385.617 277.776 385.184 277.349 384.879C276.921 384.574 276.367 384.422 275.688 384.422C274.686 384.422 273.95 384.753 273.481 385.415C273.019 386.077 272.787 386.994 272.787 388.166ZM290.295 385.784C290.295 386.388 290.119 386.859 289.768 387.199C289.416 387.533 288.962 387.759 288.405 387.876V387.946C289.009 388.028 289.527 388.245 289.961 388.597C290.4 388.942 290.62 389.473 290.62 390.188C290.62 390.738 290.488 391.225 290.225 391.646C289.961 392.068 289.548 392.399 288.985 392.64C288.423 392.88 287.69 393 286.788 393H282.64V383.367H286.753C287.444 383.367 288.054 383.446 288.581 383.604C289.114 383.757 289.533 384.009 289.838 384.36C290.143 384.712 290.295 385.187 290.295 385.784ZM289.1 390.188C289.1 389.619 288.883 389.209 288.449 388.957C288.021 388.705 287.397 388.579 286.577 388.579H284.107V391.813H286.612C287.421 391.813 288.036 391.69 288.458 391.444C288.886 391.192 289.1 390.773 289.1 390.188ZM288.81 385.951C288.81 385.494 288.643 385.154 288.309 384.932C287.975 384.703 287.427 384.589 286.665 384.589H284.107V387.357H286.41C287.201 387.357 287.799 387.243 288.203 387.015C288.607 386.786 288.81 386.432 288.81 385.951ZM301.281 388.166C301.281 388.957 301.179 389.663 300.974 390.284C300.769 390.905 300.473 391.43 300.086 391.857C299.699 392.285 299.23 392.613 298.68 392.842C298.135 393.064 297.517 393.176 296.825 393.176C296.181 393.176 295.589 393.064 295.05 392.842C294.517 392.613 294.054 392.285 293.661 391.857C293.274 391.43 292.973 390.905 292.756 390.284C292.545 389.663 292.439 388.957 292.439 388.166C292.439 387.111 292.618 386.215 292.976 385.477C293.333 384.732 293.843 384.167 294.505 383.78C295.173 383.388 295.967 383.191 296.887 383.191C297.766 383.191 298.533 383.388 299.189 383.78C299.852 384.173 300.364 384.741 300.728 385.485C301.097 386.224 301.281 387.117 301.281 388.166ZM293.951 388.166C293.951 388.939 294.054 389.61 294.259 390.179C294.464 390.747 294.78 391.187 295.208 391.497C295.636 391.808 296.187 391.963 296.86 391.963C297.528 391.963 298.076 391.808 298.504 391.497C298.938 391.187 299.257 390.747 299.462 390.179C299.667 389.61 299.77 388.939 299.77 388.166C299.77 387.398 299.667 386.736 299.462 386.18C299.257 385.617 298.94 385.184 298.513 384.879C298.085 384.574 297.531 384.422 296.852 384.422C295.85 384.422 295.114 384.753 294.646 385.415C294.183 386.077 293.951 386.994 293.951 388.166ZM303.584 392.086C303.584 391.676 303.684 391.386 303.883 391.216C304.082 391.04 304.325 390.952 304.612 390.952C304.911 390.952 305.163 391.04 305.368 391.216C305.573 391.386 305.676 391.676 305.676 392.086C305.676 392.49 305.573 392.786 305.368 392.974C305.163 393.155 304.911 393.246 304.612 393.246C304.325 393.246 304.082 393.155 303.883 392.974C303.684 392.786 303.584 392.49 303.584 392.086Z" fill="#555555"></path> <circle cx="90" cy="98" r="50" fill="#D3413F"></circle> <g clip-path="url(#clip0_3323_18)"> <path d="M104.375 126C103.822 126 103.375 125.553 103.375 125V106.862C103.375 106.161 104.079 105.676 104.733 105.928C104.789 105.95 104.845 105.972 104.901 105.993C108.542 107.408 112.187 108.816 115.819 110.251C116.189 110.394 116.508 110.644 116.734 110.969C117.101 111.554 116.785 112.247 116.076 112.531C114.389 113.207 112.686 113.863 110.988 114.525C109.617 115.059 108.242 115.582 106.879 116.137C106.713 116.204 106.503 116.432 106.501 116.588C106.481 119.682 106.488 122.763 106.493 125.851V125.851C106.503 125.924 106.452 126.001 106.378 126.001L104.375 126Z" fill="white"></path> <path d="M71.0524 90.2967V87.7078C71.0524 87.4143 71.2903 87.1763 71.5839 87.1763V87.1763C82.1664 87.1763 92.7489 87.1763 103.331 87.1763C107.448 87.1763 110.748 90.1027 111.347 94.2314C111.901 98.0213 109.433 101.866 105.681 102.95C104.839 103.182 103.968 103.296 103.094 103.289C94.6872 103.314 86.2806 103.318 77.8741 103.299C76.2456 103.299 74.8211 103.752 73.7439 105.013C72.4445 106.536 72.1408 108.283 72.8917 110.125C73.6427 111.967 75.0602 112.961 77.0275 113.178C77.3079 113.205 77.5896 113.217 77.8713 113.213H96.8556L95.2597 111.503C94.884 111.1 94.9045 110.469 95.3056 110.092L96.4476 109.018C96.6456 108.831 96.9672 108.886 97.1341 109.101V109.101C98.4728 110.539 99.8149 111.975 101.16 113.408C102.024 114.327 102.031 115.038 101.174 115.972C99.9406 117.308 98.712 118.644 97.4568 120.006C97.0817 120.413 96.4474 120.438 96.0418 120.061L95.2892 119.363C94.8878 118.99 94.8608 118.364 95.2286 117.958L96.8149 116.208H96.1483C89.9524 116.208 83.7574 116.208 77.5633 116.208C73.6258 116.208 70.4153 113.55 69.6377 109.682C68.6758 104.892 72.4164 100.235 77.3228 100.215C85.9572 100.18 94.5916 100.205 103.227 100.201C105.434 100.201 107.234 99.0422 108.017 97.1381C108.331 96.3858 108.454 95.5673 108.374 94.7559C108.294 93.9445 108.015 93.1655 107.56 92.4887C107.105 91.812 106.49 91.2585 105.769 90.8779C105.048 90.4973 104.244 90.3015 103.428 90.308C96.6531 90.2855 89.8792 90.301 83.1053 90.301H71.0524V90.2967Z" fill="white"></path> <path d="M65.0688 73.568C65.0688 72.8644 65.7761 72.3809 66.4317 72.6361L69.3087 73.7564C72.0509 74.8214 74.7954 75.8845 77.5423 76.9458C78.0049 77.1244 78.3987 77.3592 78.514 77.8852C78.6462 78.4912 78.3438 78.9891 77.6562 79.2591C75.4999 80.1028 73.3437 80.9442 71.1874 81.7833C70.3226 82.1208 69.4648 82.4864 68.5887 82.7873C68.2315 82.9125 68.1162 83.0869 68.1176 83.4638C68.1331 86.3241 68.126 89.1844 68.126 92.0419V92.0419C68.126 92.3984 67.837 92.6873 67.4806 92.6873H66.0688C65.5166 92.6873 65.0688 92.2396 65.0688 91.6873V73.568Z" fill="white"></path> </g> <defs> <clipPath id="clip0_3323_18"> <rect width="54" height="54" fill="white" transform="translate(64 72)"></rect> </clipPath> </defs> </svg> 