<?xml version="1.0" encoding="UTF-8"?> <svg xmlns="http://www.w3.org/2000/svg" width="560" height="231" viewBox="0 0 560 231" fill="none"> <path fill-rule="evenodd" clip-rule="evenodd" d="M16 0C7.16344 0 0 7.16344 0 16V91V215C0 223.837 7.16344 231 16 231H544C552.837 231 560 223.837 560 215V107C560 98.1634 552.837 91 544 91H202C193.163 91 186 83.8366 186 75V16C186 7.16344 178.837 0 170 0H16Z" fill="#D3413F"></path> <path d="M49.6504 62H46.3691V44.8008H40.6816C40.5632 45.7396 40.4355 46.7422 40.2988 47.8086C40.1621 48.8659 40.0208 49.9277 39.875 50.9941C39.7292 52.0605 39.5788 53.0723 39.4238 54.0293C39.278 54.9863 39.1276 55.8294 38.9727 56.5586C38.7357 57.7799 38.4258 58.819 38.043 59.6758C37.6693 60.5234 37.1634 61.1706 36.5254 61.6172C35.8874 62.0638 35.0534 62.2871 34.0234 62.2871C33.6771 62.2871 33.3398 62.2552 33.0117 62.1914C32.6836 62.1367 32.3874 62.0638 32.123 61.9727V59.2656C32.3418 59.3477 32.5742 59.4206 32.8203 59.4844C33.0755 59.5391 33.3444 59.5664 33.627 59.5664C34.1009 59.5664 34.4792 59.3932 34.7617 59.0469C35.0534 58.6914 35.2949 58.1901 35.4863 57.543C35.6777 56.8867 35.86 56.112 36.0332 55.2188C36.1335 54.681 36.2565 53.9701 36.4023 53.0859C36.5482 52.1927 36.7077 51.1628 36.8809 49.9961C37.054 48.8294 37.2318 47.5716 37.4141 46.2227C37.6055 44.8646 37.7878 43.4609 37.9609 42.0117H49.6504V62ZM52.3027 46.8652H55.8027L58.9062 55.5059C59.043 55.8978 59.166 56.2852 59.2754 56.668C59.3939 57.0417 59.4941 57.4108 59.5762 57.7754C59.6673 58.14 59.7402 58.5046 59.7949 58.8691H59.877C59.9681 58.3952 60.0957 57.8665 60.2598 57.2832C60.4329 56.6908 60.6243 56.0983 60.834 55.5059L63.8145 46.8652H67.2734L60.7793 64.0781C60.4056 65.0625 59.9453 65.901 59.3984 66.5938C58.8607 67.2956 58.2227 67.8242 57.4844 68.1797C56.7461 68.5443 55.903 68.7266 54.9551 68.7266C54.4993 68.7266 54.1029 68.6992 53.7656 68.6445C53.4284 68.599 53.1413 68.5488 52.9043 68.4941V65.9238C53.0957 65.9694 53.3372 66.0104 53.6289 66.0469C53.9206 66.0833 54.2214 66.1016 54.5312 66.1016C55.1055 66.1016 55.6022 65.9876 56.0215 65.7598C56.4408 65.5319 56.7962 65.2083 57.0879 64.7891C57.3796 64.3789 57.6211 63.9095 57.8125 63.3809L58.3457 61.959L52.3027 46.8652ZM72.3867 46.8652V52.3477C72.3867 53.1497 72.5964 53.7467 73.0156 54.1387C73.4349 54.5306 74.0365 54.7266 74.8203 54.7266C75.6953 54.7266 76.4974 54.6081 77.2266 54.3711C77.9648 54.1341 78.7077 53.8151 79.4551 53.4141V46.8652H82.668V62H79.4551V55.6016C78.6986 56.0482 77.9102 56.4219 77.0898 56.7227C76.2695 57.0234 75.3079 57.1738 74.2051 57.1738C72.6374 57.1738 71.4069 56.7682 70.5137 55.957C69.6204 55.1458 69.1738 53.9883 69.1738 52.4844V46.8652H72.3867ZM108.686 46.8652V62H87.2617V46.8652H90.4746V59.4707H96.3535V46.8652H99.5801V59.4707H105.473V46.8652H108.686ZM116.383 46.8652V54.5898C116.383 54.8359 116.374 55.1504 116.355 55.5332C116.346 55.9069 116.328 56.2988 116.301 56.709C116.273 57.11 116.246 57.4792 116.219 57.8164C116.191 58.1536 116.169 58.4043 116.15 58.5684L123.766 46.8652H127.676V62H124.6V54.3574C124.6 53.9564 124.609 53.4915 124.627 52.9629C124.654 52.4342 124.682 51.9238 124.709 51.4316C124.745 50.9395 124.768 50.5658 124.777 50.3105L117.189 62H113.293V46.8652H116.383ZM138.326 46.5781C139.675 46.5781 140.833 46.8561 141.799 47.4121C142.765 47.9681 143.508 48.7565 144.027 49.7773C144.547 50.7982 144.807 52.0195 144.807 53.4414V55.1641H134.703C134.74 56.6315 135.132 57.7617 135.879 58.5547C136.635 59.3477 137.693 59.7441 139.051 59.7441C140.017 59.7441 140.883 59.653 141.648 59.4707C142.423 59.2793 143.221 59.0013 144.041 58.6367V61.248C143.285 61.6035 142.514 61.8633 141.73 62.0273C140.947 62.1914 140.008 62.2734 138.914 62.2734C137.428 62.2734 136.12 61.9863 134.99 61.4121C133.869 60.8288 132.99 59.9629 132.352 58.8145C131.723 57.666 131.408 56.2396 131.408 54.5352C131.408 52.8398 131.695 51.3997 132.27 50.2148C132.844 49.0299 133.65 48.1276 134.689 47.5078C135.729 46.888 136.941 46.5781 138.326 46.5781ZM138.326 48.998C137.314 48.998 136.494 49.3262 135.865 49.9824C135.245 50.6387 134.881 51.6003 134.771 52.8672H141.662C141.653 52.1107 141.525 51.4408 141.279 50.8574C141.042 50.2741 140.678 49.8184 140.186 49.4902C139.702 49.1621 139.083 48.998 138.326 48.998ZM147.965 60.3047C147.965 59.5573 148.156 59.0332 148.539 58.7324C148.931 58.4225 149.405 58.2676 149.961 58.2676C150.517 58.2676 150.991 58.4225 151.383 58.7324C151.784 59.0332 151.984 59.5573 151.984 60.3047C151.984 61.0339 151.784 61.5625 151.383 61.8906C150.991 62.2096 150.517 62.3691 149.961 62.3691C149.405 62.3691 148.931 62.2096 148.539 61.8906C148.156 61.5625 147.965 61.0339 147.965 60.3047Z" fill="white"></path> <path d="M33.9531 138V123.723H44.5879V138H42.9473V125.188H35.6133V138H33.9531ZM53.3086 127.102C54.6432 127.102 55.7077 127.561 56.502 128.479C57.2962 129.396 57.6934 130.777 57.6934 132.619C57.6934 133.837 57.5111 134.859 57.1465 135.686C56.7819 136.512 56.2676 137.137 55.6035 137.561C54.946 137.984 54.168 138.195 53.2695 138.195C52.7031 138.195 52.2051 138.12 51.7754 137.971C51.3457 137.821 50.9779 137.619 50.6719 137.365C50.3659 137.111 50.112 136.835 49.9102 136.535H49.793C49.8125 136.789 49.8353 137.095 49.8613 137.453C49.8939 137.811 49.9102 138.124 49.9102 138.391V142.785H48.2793V127.297H49.6172L49.832 128.879H49.9102C50.1185 128.553 50.3724 128.257 50.6719 127.99C50.9714 127.717 51.3359 127.502 51.7656 127.346C52.2018 127.183 52.7161 127.102 53.3086 127.102ZM53.0254 128.469C52.2832 128.469 51.6842 128.612 51.2285 128.898C50.7793 129.185 50.4505 129.615 50.2422 130.188C50.0339 130.754 49.9232 131.467 49.9102 132.326V132.639C49.9102 133.544 50.0078 134.309 50.2031 134.934C50.4049 135.559 50.7337 136.034 51.1895 136.359C51.6517 136.685 52.2702 136.848 53.0449 136.848C53.709 136.848 54.2624 136.669 54.7051 136.311C55.1478 135.952 55.4766 135.454 55.6914 134.816C55.9128 134.172 56.0234 133.433 56.0234 132.6C56.0234 131.337 55.776 130.334 55.2812 129.592C54.793 128.843 54.041 128.469 53.0254 128.469ZM69.7539 132.629C69.7539 133.508 69.64 134.292 69.4121 134.982C69.1842 135.673 68.8555 136.255 68.4258 136.73C67.9961 137.206 67.4753 137.57 66.8633 137.824C66.2578 138.072 65.571 138.195 64.8027 138.195C64.0866 138.195 63.429 138.072 62.8301 137.824C62.2376 137.57 61.7233 137.206 61.2871 136.73C60.8574 136.255 60.5221 135.673 60.2812 134.982C60.0469 134.292 59.9297 133.508 59.9297 132.629C59.9297 131.457 60.1283 130.461 60.5254 129.641C60.9225 128.814 61.4889 128.186 62.2246 127.756C62.9668 127.32 63.849 127.102 64.8711 127.102C65.8477 127.102 66.7005 127.32 67.4297 127.756C68.1654 128.192 68.735 128.824 69.1387 129.65C69.5488 130.471 69.7539 131.464 69.7539 132.629ZM61.6094 132.629C61.6094 133.488 61.7233 134.234 61.9512 134.865C62.179 135.497 62.5306 135.985 63.0059 136.33C63.4811 136.675 64.0931 136.848 64.8418 136.848C65.584 136.848 66.1927 136.675 66.668 136.33C67.1497 135.985 67.5046 135.497 67.7324 134.865C67.9603 134.234 68.0742 133.488 68.0742 132.629C68.0742 131.776 67.9603 131.04 67.7324 130.422C67.5046 129.797 67.153 129.315 66.6777 128.977C66.2025 128.638 65.5872 128.469 64.832 128.469C63.7188 128.469 62.9017 128.837 62.3809 129.572C61.8665 130.308 61.6094 131.327 61.6094 132.629ZM76.6777 127.102C77.5892 127.102 78.3704 127.303 79.0215 127.707C79.6725 128.111 80.1706 128.677 80.5156 129.406C80.8607 130.129 81.0332 130.975 81.0332 131.945V132.951H73.6406C73.6602 134.208 73.9727 135.165 74.5781 135.822C75.1836 136.48 76.0365 136.809 77.1367 136.809C77.8138 136.809 78.4128 136.747 78.9336 136.623C79.4544 136.499 79.9948 136.317 80.5547 136.076V137.502C80.0143 137.743 79.4772 137.919 78.9434 138.029C78.416 138.14 77.791 138.195 77.0684 138.195C76.0397 138.195 75.1413 137.987 74.373 137.57C73.6113 137.147 73.0189 136.529 72.5957 135.715C72.1725 134.901 71.9609 133.905 71.9609 132.727C71.9609 131.574 72.153 130.578 72.5371 129.738C72.9277 128.892 73.4746 128.241 74.1777 127.785C74.8874 127.329 75.7207 127.102 76.6777 127.102ZM76.6582 128.43C75.7923 128.43 75.1022 128.713 74.5879 129.279C74.0736 129.846 73.7676 130.637 73.6699 131.652H79.334C79.3275 131.014 79.2266 130.454 79.0312 129.973C78.8424 129.484 78.5527 129.107 78.1621 128.84C77.7715 128.566 77.2702 128.43 76.6582 128.43ZM90.0273 127.297H91.8145L87.1953 132.463L92.1855 138H90.2812L85.418 132.57V138H83.7871V127.297H85.418V132.492L90.0273 127.297ZM101.414 128.674H97.8887V138H96.2871V128.674H92.8105V127.297H101.414V128.674ZM103.533 138V127.297H105.164V131.711H108.094C109.005 131.711 109.754 131.825 110.34 132.053C110.932 132.281 111.372 132.619 111.658 133.068C111.945 133.518 112.088 134.074 112.088 134.738C112.088 135.402 111.945 135.979 111.658 136.467C111.378 136.955 110.936 137.333 110.33 137.6C109.731 137.867 108.95 138 107.986 138H103.533ZM105.164 136.682H107.83C108.637 136.682 109.282 136.538 109.764 136.252C110.245 135.965 110.486 135.487 110.486 134.816C110.486 134.159 110.262 133.703 109.812 133.449C109.363 133.189 108.719 133.059 107.879 133.059H105.164V136.682ZM113.855 138V127.297H115.477V138H113.855Z" fill="white"></path> <path d="M209.629 124.982C208.971 124.982 208.363 125.057 207.803 125.207C207.249 125.357 206.748 125.536 206.299 125.744L205.615 124.348C206.169 124.081 206.794 123.876 207.49 123.732C208.187 123.589 208.906 123.518 209.648 123.518C210.788 123.518 211.777 123.693 212.617 124.045C213.464 124.39 214.163 124.882 214.717 125.52C215.27 126.158 215.684 126.91 215.957 127.775C216.23 128.641 216.367 129.592 216.367 130.627C216.367 132.17 216.113 133.508 215.605 134.641C215.098 135.773 214.333 136.649 213.311 137.268C212.295 137.886 211.022 138.195 209.492 138.195C208.665 138.195 207.962 138.146 207.383 138.049C206.81 137.958 206.25 137.814 205.703 137.619V136.174C206.257 136.324 206.82 136.457 207.393 136.574C207.972 136.685 208.587 136.74 209.238 136.74C210.111 136.74 210.876 136.62 211.533 136.379C212.197 136.138 212.754 135.783 213.203 135.314C213.652 134.846 213.994 134.273 214.229 133.596C214.469 132.919 214.6 132.144 214.619 131.271H207.559V129.807H214.6C214.541 129.051 214.385 128.378 214.131 127.785C213.877 127.186 213.535 126.678 213.105 126.262C212.676 125.845 212.168 125.529 211.582 125.314C211.003 125.093 210.352 124.982 209.629 124.982ZM225.566 127.297H227.354L222.734 132.463L227.725 138H225.82L220.957 132.57V138H219.326V127.297H220.957V132.492L225.566 127.297ZM233.945 138.195C232.982 138.195 232.132 137.997 231.396 137.6C230.661 137.202 230.088 136.597 229.678 135.783C229.268 134.969 229.062 133.944 229.062 132.707C229.062 131.411 229.277 130.354 229.707 129.533C230.143 128.706 230.742 128.094 231.504 127.697C232.266 127.3 233.132 127.102 234.102 127.102C234.635 127.102 235.15 127.157 235.645 127.268C236.146 127.372 236.556 127.505 236.875 127.668L236.387 129.025C236.061 128.895 235.684 128.778 235.254 128.674C234.831 128.57 234.434 128.518 234.062 128.518C233.32 128.518 232.702 128.677 232.207 128.996C231.719 129.315 231.351 129.784 231.104 130.402C230.863 131.021 230.742 131.783 230.742 132.688C230.742 133.553 230.859 134.292 231.094 134.904C231.335 135.516 231.689 135.985 232.158 136.311C232.633 136.63 233.226 136.789 233.936 136.789C234.502 136.789 235.013 136.73 235.469 136.613C235.924 136.49 236.338 136.346 236.709 136.184V137.629C236.351 137.811 235.951 137.951 235.508 138.049C235.072 138.146 234.551 138.195 233.945 138.195ZM248.213 127.297V138H246.582V128.693H240.879V138H239.248V127.297H248.213ZM255.771 127.102C256.683 127.102 257.464 127.303 258.115 127.707C258.766 128.111 259.264 128.677 259.609 129.406C259.954 130.129 260.127 130.975 260.127 131.945V132.951H252.734C252.754 134.208 253.066 135.165 253.672 135.822C254.277 136.48 255.13 136.809 256.23 136.809C256.908 136.809 257.507 136.747 258.027 136.623C258.548 136.499 259.089 136.317 259.648 136.076V137.502C259.108 137.743 258.571 137.919 258.037 138.029C257.51 138.14 256.885 138.195 256.162 138.195C255.133 138.195 254.235 137.987 253.467 137.57C252.705 137.147 252.113 136.529 251.689 135.715C251.266 134.901 251.055 133.905 251.055 132.727C251.055 131.574 251.247 130.578 251.631 129.738C252.021 128.892 252.568 128.241 253.271 127.785C253.981 127.329 254.814 127.102 255.771 127.102ZM255.752 128.43C254.886 128.43 254.196 128.713 253.682 129.279C253.167 129.846 252.861 130.637 252.764 131.652H258.428C258.421 131.014 258.32 130.454 258.125 129.973C257.936 129.484 257.646 129.107 257.256 128.84C256.865 128.566 256.364 128.43 255.752 128.43ZM267.91 127.102C269.245 127.102 270.309 127.561 271.104 128.479C271.898 129.396 272.295 130.777 272.295 132.619C272.295 133.837 272.113 134.859 271.748 135.686C271.383 136.512 270.869 137.137 270.205 137.561C269.548 137.984 268.77 138.195 267.871 138.195C267.305 138.195 266.807 138.12 266.377 137.971C265.947 137.821 265.579 137.619 265.273 137.365C264.967 137.111 264.714 136.835 264.512 136.535H264.395C264.414 136.789 264.437 137.095 264.463 137.453C264.495 137.811 264.512 138.124 264.512 138.391V142.785H262.881V127.297H264.219L264.434 128.879H264.512C264.72 128.553 264.974 128.257 265.273 127.99C265.573 127.717 265.938 127.502 266.367 127.346C266.803 127.183 267.318 127.102 267.91 127.102ZM267.627 128.469C266.885 128.469 266.286 128.612 265.83 128.898C265.381 129.185 265.052 129.615 264.844 130.188C264.635 130.754 264.525 131.467 264.512 132.326V132.639C264.512 133.544 264.609 134.309 264.805 134.934C265.007 135.559 265.335 136.034 265.791 136.359C266.253 136.685 266.872 136.848 267.646 136.848C268.311 136.848 268.864 136.669 269.307 136.311C269.749 135.952 270.078 135.454 270.293 134.816C270.514 134.172 270.625 133.433 270.625 132.6C270.625 131.337 270.378 130.334 269.883 129.592C269.395 128.843 268.643 128.469 267.627 128.469ZM282.422 128.674H278.896V138H277.295V128.674H273.818V127.297H282.422V128.674ZM284.541 138V127.297H286.172V131.711H289.102C290.013 131.711 290.762 131.825 291.348 132.053C291.94 132.281 292.38 132.619 292.666 133.068C292.952 133.518 293.096 134.074 293.096 134.738C293.096 135.402 292.952 135.979 292.666 136.467C292.386 136.955 291.943 137.333 291.338 137.6C290.739 137.867 289.958 138 288.994 138H284.541ZM286.172 136.682H288.838C289.645 136.682 290.29 136.538 290.771 136.252C291.253 135.965 291.494 135.487 291.494 134.816C291.494 134.159 291.27 133.703 290.82 133.449C290.371 133.189 289.727 133.059 288.887 133.059H286.172V136.682ZM294.863 138V127.297H296.484V138H294.863Z" fill="white"></path> <path d="M390.188 138H388.176L381.613 130.754V138H379.953V123.723H381.613V130.637L388.01 123.723H389.914L383.596 130.656L390.188 138ZM401.145 132.629C401.145 133.508 401.031 134.292 400.803 134.982C400.575 135.673 400.246 136.255 399.816 136.73C399.387 137.206 398.866 137.57 398.254 137.824C397.648 138.072 396.962 138.195 396.193 138.195C395.477 138.195 394.82 138.072 394.221 137.824C393.628 137.57 393.114 137.206 392.678 136.73C392.248 136.255 391.913 135.673 391.672 134.982C391.438 134.292 391.32 133.508 391.32 132.629C391.32 131.457 391.519 130.461 391.916 129.641C392.313 128.814 392.88 128.186 393.615 127.756C394.357 127.32 395.24 127.102 396.262 127.102C397.238 127.102 398.091 127.32 398.82 127.756C399.556 128.192 400.126 128.824 400.529 129.65C400.939 130.471 401.145 131.464 401.145 132.629ZM393 132.629C393 133.488 393.114 134.234 393.342 134.865C393.57 135.497 393.921 135.985 394.396 136.33C394.872 136.675 395.484 136.848 396.232 136.848C396.975 136.848 397.583 136.675 398.059 136.33C398.54 135.985 398.895 135.497 399.123 134.865C399.351 134.234 399.465 133.488 399.465 132.629C399.465 131.776 399.351 131.04 399.123 130.422C398.895 129.797 398.544 129.315 398.068 128.977C397.593 128.638 396.978 128.469 396.223 128.469C395.109 128.469 394.292 128.837 393.771 129.572C393.257 130.308 393 131.327 393 132.629ZM415.246 127.297V138H413.781V131.027C413.781 130.741 413.788 130.451 413.801 130.158C413.82 129.859 413.843 129.559 413.869 129.26H413.811L410.256 138H408.879L405.412 129.26H405.354C405.373 129.559 405.386 129.859 405.393 130.158C405.406 130.451 405.412 130.76 405.412 131.086V138H403.938V127.297H406.115L409.572 136.047L413.078 127.297H415.246ZM422.619 127.121C423.895 127.121 424.842 127.408 425.461 127.98C426.079 128.553 426.389 129.468 426.389 130.725V138H425.207L424.895 136.418H424.816C424.517 136.809 424.204 137.137 423.879 137.404C423.553 137.665 423.176 137.863 422.746 138C422.323 138.13 421.802 138.195 421.184 138.195C420.533 138.195 419.953 138.081 419.445 137.854C418.944 137.626 418.547 137.281 418.254 136.818C417.967 136.356 417.824 135.77 417.824 135.061C417.824 133.993 418.247 133.173 419.094 132.6C419.94 132.027 421.229 131.714 422.961 131.662L424.807 131.584V130.93C424.807 130.005 424.608 129.357 424.211 128.986C423.814 128.615 423.254 128.43 422.531 128.43C421.971 128.43 421.438 128.511 420.93 128.674C420.422 128.837 419.94 129.029 419.484 129.25L418.986 128.02C419.468 127.772 420.021 127.561 420.646 127.385C421.271 127.209 421.929 127.121 422.619 127.121ZM424.787 132.727L423.156 132.795C421.822 132.847 420.881 133.065 420.334 133.449C419.787 133.833 419.514 134.377 419.514 135.08C419.514 135.692 419.699 136.145 420.07 136.438C420.441 136.73 420.933 136.877 421.545 136.877C422.495 136.877 423.273 136.613 423.879 136.086C424.484 135.559 424.787 134.768 424.787 133.713V132.727ZM431.359 127.297V131.789H437.326V127.297H438.947V138H437.326V133.166H431.359V138H429.729V127.297H431.359ZM450.227 127.297V136.623H451.76V141.701H450.188V138H442.609V141.701H441.057V136.623H441.896C442.508 135.777 443.016 134.849 443.42 133.84C443.824 132.831 444.13 131.773 444.338 130.666C444.546 129.553 444.657 128.43 444.67 127.297H450.227ZM448.654 128.586H446.115C446.057 129.536 445.917 130.503 445.695 131.486C445.48 132.469 445.194 133.407 444.836 134.299C444.478 135.184 444.061 135.959 443.586 136.623H448.654V128.586ZM453.889 138V127.297H455.52V131.711H458.449C459.361 131.711 460.109 131.825 460.695 132.053C461.288 132.281 461.727 132.619 462.014 133.068C462.3 133.518 462.443 134.074 462.443 134.738C462.443 135.402 462.3 135.979 462.014 136.467C461.734 136.955 461.291 137.333 460.686 137.6C460.087 137.867 459.305 138 458.342 138H453.889ZM455.52 136.682H458.186C458.993 136.682 459.637 136.538 460.119 136.252C460.601 135.965 460.842 135.487 460.842 134.816C460.842 134.159 460.617 133.703 460.168 133.449C459.719 133.189 459.074 133.059 458.234 133.059H455.52V136.682ZM464.211 138V127.297H465.832V138H464.211Z" fill="white"></path> <path d="M33.9531 192V177.723H44.5879V192H42.9473V179.188H35.6133V192H33.9531ZM53.3086 181.102C54.6432 181.102 55.7077 181.561 56.502 182.479C57.2962 183.396 57.6934 184.777 57.6934 186.619C57.6934 187.837 57.5111 188.859 57.1465 189.686C56.7819 190.512 56.2676 191.137 55.6035 191.561C54.946 191.984 54.168 192.195 53.2695 192.195C52.7031 192.195 52.2051 192.12 51.7754 191.971C51.3457 191.821 50.9779 191.619 50.6719 191.365C50.3659 191.111 50.112 190.835 49.9102 190.535H49.793C49.8125 190.789 49.8353 191.095 49.8613 191.453C49.8939 191.811 49.9102 192.124 49.9102 192.391V196.785H48.2793V181.297H49.6172L49.832 182.879H49.9102C50.1185 182.553 50.3724 182.257 50.6719 181.99C50.9714 181.717 51.3359 181.502 51.7656 181.346C52.2018 181.183 52.7161 181.102 53.3086 181.102ZM53.0254 182.469C52.2832 182.469 51.6842 182.612 51.2285 182.898C50.7793 183.185 50.4505 183.615 50.2422 184.188C50.0339 184.754 49.9232 185.467 49.9102 186.326V186.639C49.9102 187.544 50.0078 188.309 50.2031 188.934C50.4049 189.559 50.7337 190.034 51.1895 190.359C51.6517 190.685 52.2702 190.848 53.0449 190.848C53.709 190.848 54.2624 190.669 54.7051 190.311C55.1478 189.952 55.4766 189.454 55.6914 188.816C55.9128 188.172 56.0234 187.433 56.0234 186.6C56.0234 185.337 55.776 184.334 55.2812 183.592C54.793 182.843 54.041 182.469 53.0254 182.469ZM69.7539 186.629C69.7539 187.508 69.64 188.292 69.4121 188.982C69.1842 189.673 68.8555 190.255 68.4258 190.73C67.9961 191.206 67.4753 191.57 66.8633 191.824C66.2578 192.072 65.571 192.195 64.8027 192.195C64.0866 192.195 63.429 192.072 62.8301 191.824C62.2376 191.57 61.7233 191.206 61.2871 190.73C60.8574 190.255 60.5221 189.673 60.2812 188.982C60.0469 188.292 59.9297 187.508 59.9297 186.629C59.9297 185.457 60.1283 184.461 60.5254 183.641C60.9225 182.814 61.4889 182.186 62.2246 181.756C62.9668 181.32 63.849 181.102 64.8711 181.102C65.8477 181.102 66.7005 181.32 67.4297 181.756C68.1654 182.192 68.735 182.824 69.1387 183.65C69.5488 184.471 69.7539 185.464 69.7539 186.629ZM61.6094 186.629C61.6094 187.488 61.7233 188.234 61.9512 188.865C62.179 189.497 62.5306 189.985 63.0059 190.33C63.4811 190.675 64.0931 190.848 64.8418 190.848C65.584 190.848 66.1927 190.675 66.668 190.33C67.1497 189.985 67.5046 189.497 67.7324 188.865C67.9603 188.234 68.0742 187.488 68.0742 186.629C68.0742 185.776 67.9603 185.04 67.7324 184.422C67.5046 183.797 67.153 183.315 66.6777 182.977C66.2025 182.638 65.5872 182.469 64.832 182.469C63.7188 182.469 62.9017 182.837 62.3809 183.572C61.8665 184.308 61.6094 185.327 61.6094 186.629ZM80.3984 181.297V190.623H81.9316V195.701H80.3594V192H72.7812V195.701H71.2285V190.623H72.0684C72.6803 189.777 73.1882 188.849 73.5918 187.84C73.9954 186.831 74.3014 185.773 74.5098 184.666C74.7181 183.553 74.8288 182.43 74.8418 181.297H80.3984ZM78.8262 182.586H76.2871C76.2285 183.536 76.0885 184.503 75.8672 185.486C75.6523 186.469 75.3659 187.407 75.0078 188.299C74.6497 189.184 74.2331 189.959 73.7578 190.623H78.8262V182.586ZM88.0645 181.121C89.3405 181.121 90.2878 181.408 90.9062 181.98C91.5247 182.553 91.834 183.468 91.834 184.725V192H90.6523L90.3398 190.418H90.2617C89.9622 190.809 89.6497 191.137 89.3242 191.404C88.9987 191.665 88.6211 191.863 88.1914 192C87.7682 192.13 87.2474 192.195 86.6289 192.195C85.9779 192.195 85.3984 192.081 84.8906 191.854C84.3893 191.626 83.9922 191.281 83.6992 190.818C83.4128 190.356 83.2695 189.77 83.2695 189.061C83.2695 187.993 83.6927 187.173 84.5391 186.6C85.3854 186.027 86.6745 185.714 88.4062 185.662L90.252 185.584V184.93C90.252 184.005 90.0534 183.357 89.6562 182.986C89.2591 182.615 88.6992 182.43 87.9766 182.43C87.4167 182.43 86.8828 182.511 86.375 182.674C85.8672 182.837 85.3854 183.029 84.9297 183.25L84.4316 182.02C84.9134 181.772 85.4668 181.561 86.0918 181.385C86.7168 181.209 87.3743 181.121 88.0645 181.121ZM90.2324 186.727L88.6016 186.795C87.2669 186.847 86.3262 187.065 85.7793 187.449C85.2324 187.833 84.959 188.377 84.959 189.08C84.959 189.692 85.1445 190.145 85.5156 190.438C85.8867 190.73 86.3783 190.877 86.9902 190.877C87.9408 190.877 88.7188 190.613 89.3242 190.086C89.9297 189.559 90.2324 188.768 90.2324 187.713V186.727ZM107.713 181.297L103.26 186.502L108.094 192H106.238L101.551 186.57V192H100.037V186.57L95.3594 192H93.5039L98.3379 186.502L93.875 181.297H95.6621L100.037 186.492V181.297H101.551V186.492L105.945 181.297H107.713ZM111.424 181.297V188.025C111.424 188.156 111.421 188.325 111.414 188.533C111.408 188.735 111.398 188.953 111.385 189.188C111.372 189.415 111.359 189.637 111.346 189.852C111.339 190.06 111.329 190.232 111.316 190.369L117.156 181.297H119.148V192H117.635V185.438C117.635 185.229 117.638 184.962 117.645 184.637C117.651 184.311 117.661 183.992 117.674 183.68C117.687 183.361 117.697 183.113 117.703 182.938L111.883 192H109.881V181.297H111.424Z" fill="white"></path> <path d="M215.908 192L214.15 187.469H208.428L206.68 192H205L210.586 177.664H212.08L217.627 192H215.908ZM213.652 185.994L211.982 181.492C211.943 181.375 211.878 181.183 211.787 180.916C211.702 180.649 211.615 180.372 211.523 180.086C211.432 179.799 211.357 179.568 211.299 179.393C211.234 179.66 211.162 179.926 211.084 180.193C211.012 180.454 210.941 180.698 210.869 180.926C210.798 181.147 210.736 181.336 210.684 181.492L208.984 185.994H213.652ZM225.859 181.297V182.674H220.996V192H219.365V181.297H225.859ZM232.119 181.102C233.031 181.102 233.812 181.303 234.463 181.707C235.114 182.111 235.612 182.677 235.957 183.406C236.302 184.129 236.475 184.975 236.475 185.945V186.951H229.082C229.102 188.208 229.414 189.165 230.02 189.822C230.625 190.48 231.478 190.809 232.578 190.809C233.255 190.809 233.854 190.747 234.375 190.623C234.896 190.499 235.436 190.317 235.996 190.076V191.502C235.456 191.743 234.919 191.919 234.385 192.029C233.857 192.14 233.232 192.195 232.51 192.195C231.481 192.195 230.583 191.987 229.814 191.57C229.053 191.147 228.46 190.529 228.037 189.715C227.614 188.901 227.402 187.905 227.402 186.727C227.402 185.574 227.594 184.578 227.979 183.738C228.369 182.892 228.916 182.241 229.619 181.785C230.329 181.329 231.162 181.102 232.119 181.102ZM232.1 182.43C231.234 182.43 230.544 182.713 230.029 183.279C229.515 183.846 229.209 184.637 229.111 185.652H234.775C234.769 185.014 234.668 184.454 234.473 183.973C234.284 183.484 233.994 183.107 233.604 182.84C233.213 182.566 232.712 182.43 232.1 182.43ZM240.859 181.297V185.789H246.826V181.297H248.447V192H246.826V187.166H240.859V192H239.229V181.297H240.859ZM259.18 182.674H255.654V192H254.053V182.674H250.576V181.297H259.18V182.674ZM265.586 192.195C264.622 192.195 263.773 191.997 263.037 191.6C262.301 191.202 261.729 190.597 261.318 189.783C260.908 188.969 260.703 187.944 260.703 186.707C260.703 185.411 260.918 184.354 261.348 183.533C261.784 182.706 262.383 182.094 263.145 181.697C263.906 181.3 264.772 181.102 265.742 181.102C266.276 181.102 266.79 181.157 267.285 181.268C267.786 181.372 268.197 181.505 268.516 181.668L268.027 183.025C267.702 182.895 267.324 182.778 266.895 182.674C266.471 182.57 266.074 182.518 265.703 182.518C264.961 182.518 264.342 182.677 263.848 182.996C263.359 183.315 262.992 183.784 262.744 184.402C262.503 185.021 262.383 185.783 262.383 186.688C262.383 187.553 262.5 188.292 262.734 188.904C262.975 189.516 263.33 189.985 263.799 190.311C264.274 190.63 264.867 190.789 265.576 190.789C266.143 190.789 266.654 190.73 267.109 190.613C267.565 190.49 267.979 190.346 268.35 190.184V191.629C267.992 191.811 267.591 191.951 267.148 192.049C266.712 192.146 266.191 192.195 265.586 192.195ZM278.184 182.674H274.658V192H273.057V182.674H269.58V181.297H278.184V182.674ZM288.809 183.982C288.809 184.653 288.613 185.177 288.223 185.555C287.832 185.926 287.327 186.176 286.709 186.307V186.385C287.38 186.476 287.956 186.717 288.438 187.107C288.926 187.492 289.17 188.081 289.17 188.875C289.17 189.487 289.023 190.027 288.73 190.496C288.438 190.965 287.979 191.333 287.354 191.6C286.729 191.867 285.915 192 284.912 192H280.303V181.297H284.873C285.641 181.297 286.318 181.385 286.904 181.561C287.497 181.73 287.962 182.01 288.301 182.4C288.639 182.791 288.809 183.318 288.809 183.982ZM287.48 188.875C287.48 188.243 287.24 187.788 286.758 187.508C286.283 187.228 285.589 187.088 284.678 187.088H281.934V190.682H284.717C285.615 190.682 286.299 190.545 286.768 190.271C287.243 189.992 287.48 189.526 287.48 188.875ZM287.158 184.168C287.158 183.66 286.973 183.283 286.602 183.035C286.23 182.781 285.622 182.654 284.775 182.654H281.934V185.73H284.492C285.371 185.73 286.035 185.604 286.484 185.35C286.934 185.096 287.158 184.702 287.158 184.168ZM301.016 186.629C301.016 187.508 300.902 188.292 300.674 188.982C300.446 189.673 300.117 190.255 299.688 190.73C299.258 191.206 298.737 191.57 298.125 191.824C297.52 192.072 296.833 192.195 296.064 192.195C295.348 192.195 294.691 192.072 294.092 191.824C293.499 191.57 292.985 191.206 292.549 190.73C292.119 190.255 291.784 189.673 291.543 188.982C291.309 188.292 291.191 187.508 291.191 186.629C291.191 185.457 291.39 184.461 291.787 183.641C292.184 182.814 292.751 182.186 293.486 181.756C294.229 181.32 295.111 181.102 296.133 181.102C297.109 181.102 297.962 181.32 298.691 181.756C299.427 182.192 299.997 182.824 300.4 183.65C300.811 184.471 301.016 185.464 301.016 186.629ZM292.871 186.629C292.871 187.488 292.985 188.234 293.213 188.865C293.441 189.497 293.792 189.985 294.268 190.33C294.743 190.675 295.355 190.848 296.104 190.848C296.846 190.848 297.454 190.675 297.93 190.33C298.411 189.985 298.766 189.497 298.994 188.865C299.222 188.234 299.336 187.488 299.336 186.629C299.336 185.776 299.222 185.04 298.994 184.422C298.766 183.797 298.415 183.315 297.939 182.977C297.464 182.638 296.849 182.469 296.094 182.469C294.98 182.469 294.163 182.837 293.643 183.572C293.128 184.308 292.871 185.327 292.871 186.629Z" fill="white"></path> <path d="M389.465 177.723V190.516H391.223V195.73H389.631V192H379.709V195.73H378.117V190.516H379.211C379.699 189.682 380.155 188.748 380.578 187.713C381.008 186.671 381.389 185.584 381.721 184.451C382.059 183.312 382.333 182.169 382.541 181.023C382.756 179.878 382.893 178.777 382.951 177.723H389.465ZM387.814 179.217H384.416C384.357 180.024 384.227 180.926 384.025 181.922C383.824 182.911 383.563 183.927 383.244 184.969C382.932 186.01 382.58 187.01 382.189 187.967C381.805 188.924 381.398 189.773 380.969 190.516H387.814V179.217ZM397.521 181.102C398.433 181.102 399.214 181.303 399.865 181.707C400.516 182.111 401.014 182.677 401.359 183.406C401.704 184.129 401.877 184.975 401.877 185.945V186.951H394.484C394.504 188.208 394.816 189.165 395.422 189.822C396.027 190.48 396.88 190.809 397.98 190.809C398.658 190.809 399.257 190.747 399.777 190.623C400.298 190.499 400.839 190.317 401.398 190.076V191.502C400.858 191.743 400.321 191.919 399.787 192.029C399.26 192.14 398.635 192.195 397.912 192.195C396.883 192.195 395.985 191.987 395.217 191.57C394.455 191.147 393.863 190.529 393.439 189.715C393.016 188.901 392.805 187.905 392.805 186.727C392.805 185.574 392.997 184.578 393.381 183.738C393.771 182.892 394.318 182.241 395.021 181.785C395.731 181.329 396.564 181.102 397.521 181.102ZM397.502 182.43C396.636 182.43 395.946 182.713 395.432 183.279C394.917 183.846 394.611 184.637 394.514 185.652H400.178C400.171 185.014 400.07 184.454 399.875 183.973C399.686 183.484 399.396 183.107 399.006 182.84C398.615 182.566 398.114 182.43 397.502 182.43ZM413.137 183.982C413.137 184.653 412.941 185.177 412.551 185.555C412.16 185.926 411.656 186.176 411.037 186.307V186.385C411.708 186.476 412.284 186.717 412.766 187.107C413.254 187.492 413.498 188.081 413.498 188.875C413.498 189.487 413.352 190.027 413.059 190.496C412.766 190.965 412.307 191.333 411.682 191.6C411.057 191.867 410.243 192 409.24 192H404.631V181.297H409.201C409.969 181.297 410.646 181.385 411.232 181.561C411.825 181.73 412.29 182.01 412.629 182.4C412.967 182.791 413.137 183.318 413.137 183.982ZM411.809 188.875C411.809 188.243 411.568 187.788 411.086 187.508C410.611 187.228 409.917 187.088 409.006 187.088H406.262V190.682H409.045C409.943 190.682 410.627 190.545 411.096 190.271C411.571 189.992 411.809 189.526 411.809 188.875ZM411.486 184.168C411.486 183.66 411.301 183.283 410.93 183.035C410.559 182.781 409.95 182.654 409.104 182.654H406.262V185.73H408.82C409.699 185.73 410.363 185.604 410.812 185.35C411.262 185.096 411.486 184.702 411.486 184.168ZM420.236 181.102C421.148 181.102 421.929 181.303 422.58 181.707C423.231 182.111 423.729 182.677 424.074 183.406C424.419 184.129 424.592 184.975 424.592 185.945V186.951H417.199C417.219 188.208 417.531 189.165 418.137 189.822C418.742 190.48 419.595 190.809 420.695 190.809C421.372 190.809 421.971 190.747 422.492 190.623C423.013 190.499 423.553 190.317 424.113 190.076V191.502C423.573 191.743 423.036 191.919 422.502 192.029C421.975 192.14 421.35 192.195 420.627 192.195C419.598 192.195 418.7 191.987 417.932 191.57C417.17 191.147 416.577 190.529 416.154 189.715C415.731 188.901 415.52 187.905 415.52 186.727C415.52 185.574 415.712 184.578 416.096 183.738C416.486 182.892 417.033 182.241 417.736 181.785C418.446 181.329 419.279 181.102 420.236 181.102ZM420.217 182.43C419.351 182.43 418.661 182.713 418.146 183.279C417.632 183.846 417.326 184.637 417.229 185.652H422.893C422.886 185.014 422.785 184.454 422.59 183.973C422.401 183.484 422.111 183.107 421.721 182.84C421.33 182.566 420.829 182.43 420.217 182.43ZM435.373 192H433.723V182.654H430.471C430.34 184.34 430.174 185.786 429.973 186.99C429.777 188.188 429.53 189.168 429.23 189.93C428.938 190.685 428.579 191.242 428.156 191.6C427.74 191.951 427.242 192.127 426.662 192.127C426.486 192.127 426.32 192.117 426.164 192.098C426.008 192.078 425.874 192.046 425.764 192V190.77C425.848 190.796 425.936 190.815 426.027 190.828C426.125 190.841 426.226 190.848 426.33 190.848C426.623 190.848 426.89 190.727 427.131 190.486C427.378 190.239 427.6 189.868 427.795 189.373C427.997 188.878 428.176 188.253 428.332 187.498C428.488 186.736 428.625 185.841 428.742 184.812C428.866 183.777 428.973 182.605 429.064 181.297H435.373V192ZM448.02 186.629C448.02 187.508 447.906 188.292 447.678 188.982C447.45 189.673 447.121 190.255 446.691 190.73C446.262 191.206 445.741 191.57 445.129 191.824C444.523 192.072 443.837 192.195 443.068 192.195C442.352 192.195 441.695 192.072 441.096 191.824C440.503 191.57 439.989 191.206 439.553 190.73C439.123 190.255 438.788 189.673 438.547 188.982C438.312 188.292 438.195 187.508 438.195 186.629C438.195 185.457 438.394 184.461 438.791 183.641C439.188 182.814 439.755 182.186 440.49 181.756C441.232 181.32 442.115 181.102 443.137 181.102C444.113 181.102 444.966 181.32 445.695 181.756C446.431 182.192 447.001 182.824 447.404 183.65C447.814 184.471 448.02 185.464 448.02 186.629ZM439.875 186.629C439.875 187.488 439.989 188.234 440.217 188.865C440.445 189.497 440.796 189.985 441.271 190.33C441.747 190.675 442.359 190.848 443.107 190.848C443.85 190.848 444.458 190.675 444.934 190.33C445.415 189.985 445.77 189.497 445.998 188.865C446.226 188.234 446.34 187.488 446.34 186.629C446.34 185.776 446.226 185.04 445.998 184.422C445.77 183.797 445.419 183.315 444.943 182.977C444.468 182.638 443.853 182.469 443.098 182.469C441.984 182.469 441.167 182.837 440.646 183.572C440.132 184.308 439.875 185.327 439.875 186.629ZM459.787 181.297V192H458.156V182.693H452.453V192H450.822V181.297H459.787ZM467.346 181.102C468.257 181.102 469.038 181.303 469.689 181.707C470.34 182.111 470.839 182.677 471.184 183.406C471.529 184.129 471.701 184.975 471.701 185.945V186.951H464.309C464.328 188.208 464.641 189.165 465.246 189.822C465.852 190.48 466.704 190.809 467.805 190.809C468.482 190.809 469.081 190.747 469.602 190.623C470.122 190.499 470.663 190.317 471.223 190.076V191.502C470.682 191.743 470.145 191.919 469.611 192.029C469.084 192.14 468.459 192.195 467.736 192.195C466.708 192.195 465.809 191.987 465.041 191.57C464.279 191.147 463.687 190.529 463.264 189.715C462.84 188.901 462.629 187.905 462.629 186.727C462.629 185.574 462.821 184.578 463.205 183.738C463.596 182.892 464.143 182.241 464.846 181.785C465.555 181.329 466.389 181.102 467.346 181.102ZM467.326 182.43C466.46 182.43 465.77 182.713 465.256 183.279C464.742 183.846 464.436 184.637 464.338 185.652H470.002C469.995 185.014 469.895 184.454 469.699 183.973C469.51 183.484 469.221 183.107 468.83 182.84C468.439 182.566 467.938 182.43 467.326 182.43ZM479.484 181.102C480.819 181.102 481.883 181.561 482.678 182.479C483.472 183.396 483.869 184.777 483.869 186.619C483.869 187.837 483.687 188.859 483.322 189.686C482.958 190.512 482.443 191.137 481.779 191.561C481.122 191.984 480.344 192.195 479.445 192.195C478.879 192.195 478.381 192.12 477.951 191.971C477.521 191.821 477.154 191.619 476.848 191.365C476.542 191.111 476.288 190.835 476.086 190.535H475.969C475.988 190.789 476.011 191.095 476.037 191.453C476.07 191.811 476.086 192.124 476.086 192.391V196.785H474.455V181.297H475.793L476.008 182.879H476.086C476.294 182.553 476.548 182.257 476.848 181.99C477.147 181.717 477.512 181.502 477.941 181.346C478.378 181.183 478.892 181.102 479.484 181.102ZM479.201 182.469C478.459 182.469 477.86 182.612 477.404 182.898C476.955 183.185 476.626 183.615 476.418 184.188C476.21 184.754 476.099 185.467 476.086 186.326V186.639C476.086 187.544 476.184 188.309 476.379 188.934C476.581 189.559 476.91 190.034 477.365 190.359C477.827 190.685 478.446 190.848 479.221 190.848C479.885 190.848 480.438 190.669 480.881 190.311C481.324 189.952 481.652 189.454 481.867 188.816C482.089 188.172 482.199 187.433 482.199 186.6C482.199 185.337 481.952 184.334 481.457 183.592C480.969 182.843 480.217 182.469 479.201 182.469Z" fill="white"></path> <line x1="175.5" y1="115" x2="175.5" y2="199" stroke="#F49695"></line> <line x1="528" y1="157.5" x2="32" y2="157.5" stroke="#F49695"></line> <line x1="348.5" y1="115" x2="348.5" y2="199" stroke="#F49695"></line> </svg> 