<?xml version="1.0" encoding="UTF-8"?> <svg xmlns="http://www.w3.org/2000/svg" width="1256" height="267" viewBox="0 0 1256 267" fill="none"> <g clip-path="url(#clip0_2212_98)"> <path d="M321 266.87C282.766 266.87 251.95 254.687 228.55 230.32C205.13 205.72 193.423 173.47 193.43 133.57C193.436 93.67 205.143 61.42 228.55 36.82C251.97 12.4534 282.786 0.27002 321 0.27002C359.213 0.27002 390.03 12.4534 413.45 36.82C436.623 60.9534 448.21 93.2034 448.21 133.57C448.21 173.937 436.623 206.187 413.45 230.32C390.036 254.693 359.22 266.877 321 266.87ZM244 133.57C244 161.523 251.05 183.62 265.15 199.86C279.25 216.1 297.866 224.223 321 224.23C344.413 224.23 363.166 216.107 377.26 199.86C391.113 183.86 398.04 161.763 398.04 133.57C398.04 105.377 391.116 83.28 377.27 67.28C363.17 51.0334 344.413 42.91 321 42.91C297.82 42.91 279.186 51.0334 265.1 67.28C251.013 83.5267 243.98 105.623 244 133.57Z" fill="#333130"></path> <path d="M684.28 261.14H629.1L566 165.46H520.52V261.14H472.15V6H585.74C613.694 6 635.73 13.1067 651.85 27.32C667.97 41.5333 676.02 60.5867 676 84.48C676 103.347 670.804 119.41 660.41 132.67C650.017 145.93 635.387 154.95 616.52 159.73L684.28 261.14ZM583.28 45.78H520.52V126.4H583.23C596.85 126.4 607.6 122.697 615.48 115.29C623.36 107.883 627.304 98.09 627.31 85.91C627.31 73.73 623.367 63.9933 615.48 56.7C607.594 49.4067 596.844 45.7667 583.23 45.78H583.28Z" fill="#333130"></path> <path d="M869.72 127.48L912.36 6H982.6V261.14H936.37V183.38C936.37 135.6 936.847 93.4333 937.8 56.88C932.553 74.8 926.103 94.39 918.45 115.65L866.85 261.14H827.08L775.08 115.65C766 89.13 759.667 69.7967 756.08 57.65C757.033 93.97 757.51 135.897 757.51 183.43V261.19H711V6H781.23L825.31 130C828.17 138.367 835.453 161.42 847.16 199.16C854.8 172.64 862.32 148.747 869.72 127.48Z" fill="#333130"></path> <path d="M1256 261.14H1204.76L1184.69 204.88H1072.89L1053.18 261.14H1003.37L1100.43 6H1157.05L1256 261.14ZM1097.21 136.08L1087.53 163.67H1170L1160 136.08C1151.63 114.82 1141.11 85.6733 1128.46 48.64C1118.37 78.2733 1107.96 107.42 1097.21 136.08Z" fill="#333130"></path> <path d="M180.24 6V49.36H48.38V121.65H168.38V165H48.38V261.15H0V6H180.24Z" fill="#333130"></path> </g> <defs> <clipPath id="clip0_2212_98"> <rect width="1256" height="267" fill="white"></rect> </clipPath> </defs> </svg> 