<?xml version="1.0" encoding="UTF-8"?> <svg xmlns="http://www.w3.org/2000/svg" width="354" height="40" viewBox="0 0 354 40" fill="none"> <rect width="354" height="40" rx="20" fill="#F8F8F8"></rect> <path d="M129.188 16.5078V19.2012C129.188 19.6706 129.315 20.0169 129.57 20.2402C129.83 20.4635 130.206 20.5752 130.698 20.5752C131.172 20.5752 131.603 20.5023 131.99 20.3564C132.378 20.2106 132.77 20.0124 133.166 19.7617V16.5078H134.301V24H133.166V20.6436C132.747 20.9124 132.334 21.1243 131.929 21.2793C131.523 21.4342 131.038 21.5117 130.473 21.5117C129.702 21.5117 129.105 21.3112 128.682 20.9102C128.262 20.5091 128.053 19.9668 128.053 19.2832V16.5078H129.188ZM142.319 24H141.164V17.458H138.888C138.797 18.6383 138.68 19.6501 138.539 20.4932C138.402 21.3317 138.229 22.0176 138.02 22.5508C137.814 23.0794 137.564 23.4691 137.268 23.7197C136.976 23.9658 136.627 24.0889 136.222 24.0889C136.099 24.0889 135.982 24.082 135.873 24.0684C135.764 24.0547 135.67 24.0319 135.593 24V23.1387C135.652 23.1569 135.714 23.1706 135.777 23.1797C135.846 23.1888 135.916 23.1934 135.989 23.1934C136.194 23.1934 136.381 23.109 136.55 22.9404C136.723 22.7673 136.878 22.5075 137.015 22.1611C137.156 21.8148 137.281 21.3773 137.391 20.8486C137.5 20.3154 137.596 19.6888 137.678 18.9688C137.764 18.2441 137.84 17.4238 137.903 16.5078H142.319V24ZM147.597 16.3711C148.235 16.3711 148.782 16.5124 149.237 16.7949C149.693 17.0775 150.042 17.474 150.283 17.9844C150.525 18.4902 150.646 19.0827 150.646 19.7617V20.4658H145.471C145.484 21.3454 145.703 22.0153 146.127 22.4756C146.551 22.9359 147.148 23.166 147.918 23.166C148.392 23.166 148.811 23.1227 149.176 23.0361C149.54 22.9495 149.919 22.8219 150.311 22.6533V23.6514C149.932 23.82 149.556 23.943 149.183 24.0205C148.813 24.098 148.376 24.1367 147.87 24.1367C147.15 24.1367 146.521 23.9909 145.983 23.6992C145.45 23.403 145.035 22.9701 144.739 22.4004C144.443 21.8307 144.295 21.1335 144.295 20.3086C144.295 19.502 144.429 18.8047 144.698 18.2168C144.972 17.6243 145.354 17.1686 145.847 16.8496C146.343 16.5306 146.927 16.3711 147.597 16.3711ZM147.583 17.3008C146.977 17.3008 146.494 17.499 146.134 17.8955C145.774 18.292 145.56 18.8457 145.491 19.5566H149.456C149.451 19.11 149.381 18.7181 149.244 18.3809C149.112 18.0391 148.909 17.7747 148.636 17.5879C148.362 17.3965 148.011 17.3008 147.583 17.3008ZM153.715 16.5078V19.6523H157.892V16.5078H159.026V24H157.892V20.6162H153.715V24H152.573V16.5078H153.715ZM166.211 16.5078V19.6523H170.388V16.5078H171.522V24H170.388V20.6162H166.211V24H165.069V16.5078H166.211ZM176.731 16.3848C177.625 16.3848 178.288 16.5853 178.721 16.9863C179.154 17.3874 179.37 18.0277 179.37 18.9072V24H178.543L178.324 22.8926H178.27C178.06 23.166 177.841 23.3962 177.613 23.583C177.385 23.7653 177.121 23.9043 176.82 24C176.524 24.0911 176.16 24.1367 175.727 24.1367C175.271 24.1367 174.865 24.057 174.51 23.8975C174.159 23.738 173.881 23.4964 173.676 23.1729C173.475 22.8493 173.375 22.4391 173.375 21.9424C173.375 21.195 173.671 20.6208 174.264 20.2197C174.856 19.8187 175.758 19.5999 176.971 19.5635L178.263 19.5088V19.0508C178.263 18.4036 178.124 17.9502 177.846 17.6904C177.568 17.4307 177.176 17.3008 176.67 17.3008C176.278 17.3008 175.904 17.3577 175.549 17.4717C175.193 17.5856 174.856 17.7201 174.537 17.875L174.188 17.0137C174.526 16.8405 174.913 16.6924 175.351 16.5693C175.788 16.4463 176.248 16.3848 176.731 16.3848ZM178.249 20.3086L177.107 20.3564C176.173 20.3929 175.515 20.5456 175.132 20.8145C174.749 21.0833 174.558 21.4639 174.558 21.9561C174.558 22.3844 174.688 22.7012 174.947 22.9062C175.207 23.1113 175.551 23.2139 175.979 23.2139C176.645 23.2139 177.189 23.0293 177.613 22.6602C178.037 22.291 178.249 21.7373 178.249 20.999V20.3086ZM181.318 19.502C181.318 18.4355 181.421 17.5264 181.626 16.7744C181.831 16.0179 182.148 15.4118 182.576 14.9561C183.009 14.4958 183.565 14.1813 184.244 14.0127C184.827 13.8532 185.42 13.7165 186.021 13.6025C186.623 13.484 187.209 13.3815 187.778 13.2949L187.977 14.293C187.689 14.334 187.389 14.3818 187.074 14.4365C186.76 14.4867 186.445 14.5413 186.131 14.6006C185.816 14.6553 185.52 14.7145 185.242 14.7783C184.964 14.8376 184.718 14.8991 184.504 14.9629C184.117 15.0677 183.782 15.25 183.499 15.5098C183.221 15.7695 183 16.1273 182.836 16.583C182.676 17.0387 182.581 17.613 182.549 18.3057H182.631C182.768 18.1051 182.954 17.9069 183.191 17.7109C183.428 17.515 183.711 17.3532 184.039 17.2256C184.367 17.0934 184.736 17.0273 185.146 17.0273C185.794 17.0273 186.334 17.1686 186.767 17.4512C187.2 17.7292 187.525 18.1211 187.744 18.627C187.963 19.1328 188.072 19.7253 188.072 20.4043C188.072 21.2201 187.931 21.9059 187.648 22.4619C187.37 23.0179 186.979 23.4372 186.473 23.7197C185.967 23.9977 185.372 24.1367 184.688 24.1367C184.16 24.1367 183.686 24.0342 183.267 23.8291C182.852 23.624 182.499 23.3232 182.207 22.9268C181.92 22.5303 181.699 22.0449 181.544 21.4707C181.394 20.8965 181.318 20.2402 181.318 19.502ZM184.777 23.1934C185.21 23.1934 185.582 23.1022 185.892 22.9199C186.206 22.7376 186.448 22.4505 186.616 22.0586C186.789 21.6621 186.876 21.1471 186.876 20.5137C186.876 19.7207 186.723 19.1009 186.418 18.6543C186.117 18.2031 185.634 17.9775 184.969 17.9775C184.554 17.9775 184.178 18.0664 183.841 18.2441C183.504 18.4173 183.219 18.6247 182.986 18.8662C182.754 19.1077 182.585 19.3242 182.48 19.5156C182.48 19.9805 182.515 20.4316 182.583 20.8691C182.651 21.3066 182.77 21.7008 182.938 22.0518C183.107 22.4027 183.34 22.6807 183.636 22.8857C183.937 23.0908 184.317 23.1934 184.777 23.1934ZM195.653 24H194.498V17.458H192.222C192.131 18.6383 192.014 19.6501 191.873 20.4932C191.736 21.3317 191.563 22.0176 191.354 22.5508C191.148 23.0794 190.898 23.4691 190.602 23.7197C190.31 23.9658 189.961 24.0889 189.556 24.0889C189.433 24.0889 189.316 24.082 189.207 24.0684C189.098 24.0547 189.004 24.0319 188.927 24V23.1387C188.986 23.1569 189.048 23.1706 189.111 23.1797C189.18 23.1888 189.25 23.1934 189.323 23.1934C189.528 23.1934 189.715 23.109 189.884 22.9404C190.057 22.7673 190.212 22.5075 190.349 22.1611C190.49 21.8148 190.615 21.3773 190.725 20.8486C190.834 20.3154 190.93 19.6888 191.012 18.9688C191.098 18.2441 191.174 17.4238 191.237 16.5078H195.653V24ZM207.678 20.2402C207.678 21.056 207.546 21.7555 207.281 22.3389C207.021 22.9222 206.648 23.3688 206.16 23.6787C205.673 23.984 205.089 24.1367 204.41 24.1367C203.777 24.1367 203.223 24 202.749 23.7266C202.28 23.4531 201.908 23.0544 201.635 22.5303C201.366 22.0062 201.211 21.3682 201.17 20.6162H199.181V24H198.046V16.5078H199.181V19.6523H201.184C201.247 18.9596 201.416 18.3695 201.689 17.8818C201.963 17.3942 202.332 17.0205 202.797 16.7607C203.262 16.501 203.809 16.3711 204.438 16.3711C205.094 16.3711 205.663 16.526 206.146 16.8359C206.634 17.1413 207.01 17.5833 207.274 18.1621C207.543 18.7363 207.678 19.429 207.678 20.2402ZM202.332 20.2402C202.332 20.8691 202.403 21.4046 202.544 21.8467C202.69 22.2842 202.915 22.6191 203.221 22.8516C203.531 23.0794 203.932 23.1934 204.424 23.1934C204.911 23.1934 205.308 23.0794 205.613 22.8516C205.923 22.6237 206.149 22.291 206.29 21.8535C206.436 21.4115 206.509 20.8737 206.509 20.2402C206.509 19.6159 206.436 19.0872 206.29 18.6543C206.144 18.2214 205.919 17.8932 205.613 17.6699C205.308 17.4421 204.911 17.3281 204.424 17.3281C203.936 17.3281 203.537 17.4421 203.228 17.6699C202.922 17.8932 202.697 18.2214 202.551 18.6543C202.405 19.0872 202.332 19.6159 202.332 20.2402ZM215.143 16.5078V23.0361H216.216V26.5908H215.115V24H209.811V26.5908H208.724V23.0361H209.312C209.74 22.4437 210.095 21.7943 210.378 21.0879C210.66 20.3815 210.875 19.641 211.021 18.8662C211.166 18.0869 211.244 17.3008 211.253 16.5078H215.143ZM214.042 17.4102H212.265C212.224 18.0755 212.126 18.7523 211.971 19.4404C211.82 20.1286 211.62 20.7848 211.369 21.4092C211.118 22.029 210.827 22.5713 210.494 23.0361H214.042V17.4102ZM220.509 16.3848C221.402 16.3848 222.065 16.5853 222.498 16.9863C222.931 17.3874 223.147 18.0277 223.147 18.9072V24H222.32L222.102 22.8926H222.047C221.837 23.166 221.618 23.3962 221.391 23.583C221.163 23.7653 220.898 23.9043 220.598 24C220.301 24.0911 219.937 24.1367 219.504 24.1367C219.048 24.1367 218.643 24.057 218.287 23.8975C217.936 23.738 217.658 23.4964 217.453 23.1729C217.253 22.8493 217.152 22.4391 217.152 21.9424C217.152 21.195 217.449 20.6208 218.041 20.2197C218.633 19.8187 219.536 19.5999 220.748 19.5635L222.04 19.5088V19.0508C222.04 18.4036 221.901 17.9502 221.623 17.6904C221.345 17.4307 220.953 17.3008 220.447 17.3008C220.055 17.3008 219.682 17.3577 219.326 17.4717C218.971 17.5856 218.633 17.7201 218.314 17.875L217.966 17.0137C218.303 16.8405 218.69 16.6924 219.128 16.5693C219.565 16.4463 220.026 16.3848 220.509 16.3848ZM222.026 20.3086L220.885 20.3564C219.951 20.3929 219.292 20.5456 218.909 20.8145C218.526 21.0833 218.335 21.4639 218.335 21.9561C218.335 22.3844 218.465 22.7012 218.725 22.9062C218.984 23.1113 219.328 23.2139 219.757 23.2139C220.422 23.2139 220.967 23.0293 221.391 22.6602C221.814 22.291 222.026 21.7373 222.026 20.999V20.3086ZM230.592 17.4717H228.124V24H227.003V17.4717H224.569V16.5078H230.592V17.4717ZM234.96 16.3711C235.598 16.3711 236.145 16.5124 236.601 16.7949C237.056 17.0775 237.405 17.474 237.646 17.9844C237.888 18.4902 238.009 19.0827 238.009 19.7617V20.4658H232.834C232.848 21.3454 233.066 22.0153 233.49 22.4756C233.914 22.9359 234.511 23.166 235.281 23.166C235.755 23.166 236.174 23.1227 236.539 23.0361C236.904 22.9495 237.282 22.8219 237.674 22.6533V23.6514C237.296 23.82 236.92 23.943 236.546 24.0205C236.177 24.098 235.739 24.1367 235.233 24.1367C234.513 24.1367 233.884 23.9909 233.347 23.6992C232.813 23.403 232.399 22.9701 232.103 22.4004C231.806 21.8307 231.658 21.1335 231.658 20.3086C231.658 19.502 231.793 18.8047 232.062 18.2168C232.335 17.6243 232.718 17.1686 233.21 16.8496C233.707 16.5306 234.29 16.3711 234.96 16.3711ZM234.946 17.3008C234.34 17.3008 233.857 17.499 233.497 17.8955C233.137 18.292 232.923 18.8457 232.854 19.5566H236.819C236.815 19.11 236.744 18.7181 236.607 18.3809C236.475 18.0391 236.272 17.7747 235.999 17.5879C235.726 17.3965 235.375 17.3008 234.946 17.3008ZM245.556 24H244.4V17.458H242.124C242.033 18.6383 241.917 19.6501 241.775 20.4932C241.639 21.3317 241.465 22.0176 241.256 22.5508C241.051 23.0794 240.8 23.4691 240.504 23.7197C240.212 23.9658 239.864 24.0889 239.458 24.0889C239.335 24.0889 239.219 24.082 239.109 24.0684C239 24.0547 238.907 24.0319 238.829 24V23.1387C238.888 23.1569 238.95 23.1706 239.014 23.1797C239.082 23.1888 239.153 23.1934 239.226 23.1934C239.431 23.1934 239.618 23.109 239.786 22.9404C239.959 22.7673 240.114 22.5075 240.251 22.1611C240.392 21.8148 240.518 21.3773 240.627 20.8486C240.736 20.3154 240.832 19.6888 240.914 18.9688C241.001 18.2441 241.076 17.4238 241.14 16.5078H245.556V24ZM249.09 19.5977H251.387C252.025 19.5977 252.556 19.6774 252.979 19.8369C253.403 19.9964 253.72 20.2334 253.93 20.5479C254.144 20.8623 254.251 21.252 254.251 21.7168C254.251 22.1816 254.146 22.585 253.937 22.9268C253.731 23.2686 253.412 23.5329 252.979 23.7197C252.551 23.9066 251.997 24 251.318 24H247.948V16.5078H249.09V19.5977ZM253.109 21.7715C253.109 21.3112 252.945 20.9922 252.617 20.8145C252.294 20.6322 251.84 20.541 251.257 20.541H249.09V23.0771H251.264C251.811 23.0771 252.255 22.9769 252.597 22.7764C252.938 22.5713 253.109 22.2363 253.109 21.7715ZM257.348 16.5078V19.6523H261.524V16.5078H262.659V24H261.524V20.6162H257.348V24H256.206V16.5078H257.348ZM271.525 20.2402C271.525 20.8555 271.446 21.4046 271.286 21.8877C271.127 22.3708 270.896 22.7786 270.596 23.1113C270.295 23.444 269.93 23.6992 269.502 23.877C269.078 24.0501 268.597 24.1367 268.06 24.1367C267.558 24.1367 267.098 24.0501 266.679 23.877C266.264 23.6992 265.904 23.444 265.599 23.1113C265.298 22.7786 265.063 22.3708 264.895 21.8877C264.73 21.4046 264.648 20.8555 264.648 20.2402C264.648 19.4199 264.787 18.7227 265.065 18.1484C265.343 17.5697 265.74 17.1299 266.255 16.8291C266.774 16.5238 267.392 16.3711 268.107 16.3711C268.791 16.3711 269.388 16.5238 269.898 16.8291C270.413 17.1344 270.812 17.5765 271.095 18.1553C271.382 18.7295 271.525 19.4245 271.525 20.2402ZM265.824 20.2402C265.824 20.8418 265.904 21.3636 266.063 21.8057C266.223 22.2477 266.469 22.5895 266.802 22.8311C267.134 23.0726 267.563 23.1934 268.087 23.1934C268.606 23.1934 269.033 23.0726 269.365 22.8311C269.702 22.5895 269.951 22.2477 270.11 21.8057C270.27 21.3636 270.35 20.8418 270.35 20.2402C270.35 19.6432 270.27 19.1283 270.11 18.6953C269.951 18.2578 269.705 17.9206 269.372 17.6836C269.039 17.4466 268.609 17.3281 268.08 17.3281C267.301 17.3281 266.729 17.5856 266.364 18.1006C266.004 18.6156 265.824 19.3288 265.824 20.2402ZM278.033 16.5078V17.4717H274.629V24H273.487V16.5078H278.033ZM285.99 20.2402C285.99 20.8555 285.91 21.4046 285.751 21.8877C285.591 22.3708 285.361 22.7786 285.061 23.1113C284.76 23.444 284.395 23.6992 283.967 23.877C283.543 24.0501 283.062 24.1367 282.524 24.1367C282.023 24.1367 281.563 24.0501 281.144 23.877C280.729 23.6992 280.369 23.444 280.063 23.1113C279.763 22.7786 279.528 22.3708 279.359 21.8877C279.195 21.4046 279.113 20.8555 279.113 20.2402C279.113 19.4199 279.252 18.7227 279.53 18.1484C279.808 17.5697 280.205 17.1299 280.72 16.8291C281.239 16.5238 281.857 16.3711 282.572 16.3711C283.256 16.3711 283.853 16.5238 284.363 16.8291C284.878 17.1344 285.277 17.5765 285.56 18.1553C285.847 18.7295 285.99 19.4245 285.99 20.2402ZM280.289 20.2402C280.289 20.8418 280.369 21.3636 280.528 21.8057C280.688 22.2477 280.934 22.5895 281.267 22.8311C281.599 23.0726 282.028 23.1934 282.552 23.1934C283.071 23.1934 283.497 23.0726 283.83 22.8311C284.167 22.5895 284.416 22.2477 284.575 21.8057C284.735 21.3636 284.814 20.8418 284.814 20.2402C284.814 19.6432 284.735 19.1283 284.575 18.6953C284.416 18.2578 284.17 17.9206 283.837 17.6836C283.504 17.4466 283.074 17.3281 282.545 17.3281C281.766 17.3281 281.194 17.5856 280.829 18.1006C280.469 18.6156 280.289 19.3288 280.289 20.2402ZM294.59 24.1367C293.915 24.1367 293.321 23.9977 292.806 23.7197C292.291 23.4417 291.89 23.0179 291.603 22.4482C291.315 21.8786 291.172 21.1608 291.172 20.2949C291.172 19.388 291.322 18.6475 291.623 18.0732C291.928 17.4945 292.348 17.0661 292.881 16.7881C293.414 16.5101 294.02 16.3711 294.699 16.3711C295.073 16.3711 295.433 16.4098 295.779 16.4873C296.13 16.5602 296.417 16.6536 296.641 16.7676L296.299 17.7178C296.071 17.6266 295.807 17.5446 295.506 17.4717C295.21 17.3988 294.932 17.3623 294.672 17.3623C294.152 17.3623 293.719 17.474 293.373 17.6973C293.031 17.9206 292.774 18.2487 292.601 18.6816C292.432 19.1146 292.348 19.6478 292.348 20.2812C292.348 20.8874 292.43 21.4046 292.594 21.833C292.762 22.2614 293.011 22.5895 293.339 22.8174C293.672 23.0407 294.086 23.1523 294.583 23.1523C294.979 23.1523 295.337 23.1113 295.656 23.0293C295.975 22.9427 296.265 22.8424 296.524 22.7285V23.7402C296.274 23.8678 295.993 23.9658 295.684 24.0342C295.378 24.1025 295.014 24.1367 294.59 24.1367ZM304.762 20.2402C304.762 20.8555 304.682 21.4046 304.522 21.8877C304.363 22.3708 304.133 22.7786 303.832 23.1113C303.531 23.444 303.167 23.6992 302.738 23.877C302.314 24.0501 301.834 24.1367 301.296 24.1367C300.795 24.1367 300.334 24.0501 299.915 23.877C299.5 23.6992 299.14 23.444 298.835 23.1113C298.534 22.7786 298.299 22.3708 298.131 21.8877C297.967 21.4046 297.885 20.8555 297.885 20.2402C297.885 19.4199 298.024 18.7227 298.302 18.1484C298.58 17.5697 298.976 17.1299 299.491 16.8291C300.011 16.5238 300.628 16.3711 301.344 16.3711C302.027 16.3711 302.624 16.5238 303.135 16.8291C303.65 17.1344 304.049 17.5765 304.331 18.1553C304.618 18.7295 304.762 19.4245 304.762 20.2402ZM299.061 20.2402C299.061 20.8418 299.14 21.3636 299.3 21.8057C299.459 22.2477 299.705 22.5895 300.038 22.8311C300.371 23.0726 300.799 23.1934 301.323 23.1934C301.843 23.1934 302.269 23.0726 302.602 22.8311C302.939 22.5895 303.187 22.2477 303.347 21.8057C303.506 21.3636 303.586 20.8418 303.586 20.2402C303.586 19.6432 303.506 19.1283 303.347 18.6953C303.187 18.2578 302.941 17.9206 302.608 17.6836C302.276 17.4466 301.845 17.3281 301.316 17.3281C300.537 17.3281 299.965 17.5856 299.601 18.1006C299.241 18.6156 299.061 19.3288 299.061 20.2402ZM312.678 18.3877C312.678 18.8571 312.541 19.224 312.268 19.4883C311.994 19.748 311.641 19.9235 311.208 20.0146V20.0693C311.677 20.1331 312.081 20.3018 312.418 20.5752C312.76 20.8441 312.931 21.2565 312.931 21.8125C312.931 22.2409 312.828 22.6191 312.623 22.9473C312.418 23.2754 312.097 23.5329 311.659 23.7197C311.222 23.9066 310.652 24 309.95 24H306.724V16.5078H309.923C310.461 16.5078 310.935 16.5693 311.345 16.6924C311.759 16.8109 312.085 17.0068 312.322 17.2803C312.559 17.5537 312.678 17.9229 312.678 18.3877ZM311.748 21.8125C311.748 21.3704 311.579 21.0514 311.242 20.8555C310.91 20.6595 310.424 20.5615 309.786 20.5615H307.865V23.0771H309.813C310.442 23.0771 310.921 22.9814 311.249 22.79C311.582 22.5941 311.748 22.2682 311.748 21.8125ZM311.522 18.5176C311.522 18.1621 311.393 17.8978 311.133 17.7246C310.873 17.5469 310.447 17.458 309.854 17.458H307.865V19.6113H309.656C310.271 19.6113 310.736 19.5225 311.051 19.3447C311.365 19.167 311.522 18.8913 311.522 18.5176ZM317.647 16.3711C318.285 16.3711 318.832 16.5124 319.288 16.7949C319.744 17.0775 320.092 17.474 320.334 17.9844C320.576 18.4902 320.696 19.0827 320.696 19.7617V20.4658H315.521C315.535 21.3454 315.754 22.0153 316.178 22.4756C316.602 22.9359 317.199 23.166 317.969 23.166C318.443 23.166 318.862 23.1227 319.227 23.0361C319.591 22.9495 319.969 22.8219 320.361 22.6533V23.6514C319.983 23.82 319.607 23.943 319.233 24.0205C318.864 24.098 318.427 24.1367 317.921 24.1367C317.201 24.1367 316.572 23.9909 316.034 23.6992C315.501 23.403 315.086 22.9701 314.79 22.4004C314.494 21.8307 314.346 21.1335 314.346 20.3086C314.346 19.502 314.48 18.8047 314.749 18.2168C315.022 17.6243 315.405 17.1686 315.897 16.8496C316.394 16.5306 316.978 16.3711 317.647 16.3711ZM317.634 17.3008C317.028 17.3008 316.545 17.499 316.185 17.8955C315.825 18.292 315.61 18.8457 315.542 19.5566H319.507C319.502 19.11 319.432 18.7181 319.295 18.3809C319.163 18.0391 318.96 17.7747 318.687 17.5879C318.413 17.3965 318.062 17.3008 317.634 17.3008ZM327.73 17.4717H325.263V24H324.142V17.4717H321.708V16.5078H327.73V17.4717ZM332.017 16.3848C332.91 16.3848 333.573 16.5853 334.006 16.9863C334.439 17.3874 334.655 18.0277 334.655 18.9072V24H333.828L333.609 22.8926H333.555C333.345 23.166 333.126 23.3962 332.898 23.583C332.671 23.7653 332.406 23.9043 332.105 24C331.809 24.0911 331.445 24.1367 331.012 24.1367C330.556 24.1367 330.15 24.057 329.795 23.8975C329.444 23.738 329.166 23.4964 328.961 23.1729C328.76 22.8493 328.66 22.4391 328.66 21.9424C328.66 21.195 328.956 20.6208 329.549 20.2197C330.141 19.8187 331.044 19.5999 332.256 19.5635L333.548 19.5088V19.0508C333.548 18.4036 333.409 17.9502 333.131 17.6904C332.853 17.4307 332.461 17.3008 331.955 17.3008C331.563 17.3008 331.189 17.3577 330.834 17.4717C330.479 17.5856 330.141 17.7201 329.822 17.875L329.474 17.0137C329.811 16.8405 330.198 16.6924 330.636 16.5693C331.073 16.4463 331.534 16.3848 332.017 16.3848ZM333.534 20.3086L332.393 20.3564C331.458 20.3929 330.8 20.5456 330.417 20.8145C330.034 21.0833 329.843 21.4639 329.843 21.9561C329.843 22.3844 329.973 22.7012 330.232 22.9062C330.492 23.1113 330.836 23.2139 331.265 23.2139C331.93 23.2139 332.475 23.0293 332.898 22.6602C333.322 22.291 333.534 21.7373 333.534 20.999V20.3086Z" fill="#555555"></path> <g clip-path="url(#clip0_3161_256)"> <mask id="mask0_3161_256" style="mask-type:luminance" maskUnits="userSpaceOnUse" x="18" y="13" width="101" height="12"> <path d="M118.647 13H18V25H118.647V13Z" fill="white"></path> </mask> <g mask="url(#mask0_3161_256)"> <path d="M18 20.5381C18 17.651 20.8541 16.0762 26.0445 16.0762C31.255 16.0762 34.0889 17.651 34.0889 20.5381C34.0889 23.4568 31.2957 25.0001 26.0445 25.0001C20.8541 25.0001 18 23.4253 18 20.5381ZM30.5745 20.5381C30.5745 19.1523 29.2135 18.5539 26.0343 18.5539C22.8551 18.5539 21.494 19.1523 21.494 20.5381C21.494 21.924 22.8551 22.5224 26.0343 22.5224C29.2236 22.5329 30.5745 21.9345 30.5745 20.5381Z" fill="#222222"></path> <path d="M34.8406 19.5197V19.3202C34.8406 15.4672 37.0955 13.5039 42.4077 13.399L46.826 13.3045C48.1058 13.273 48.9996 13.1785 49.8223 13L50.0763 15.3622C49.3145 15.5827 48.3191 15.7297 46.9682 15.7507L42.4483 15.8241C39.2691 15.8871 38.0604 16.5801 37.8573 18.7743C38.9745 17.6194 41.3818 16.9685 44.2156 16.9685C48.9184 16.9685 51.0818 18.1758 51.0818 20.8425C51.0818 23.4987 48.1566 25.0105 42.9663 25.0105C37.3799 25 34.8406 23.2887 34.8406 19.5197ZM47.5675 20.832C47.5675 19.7086 46.4502 19.1312 43.0272 19.1312C39.6551 19.1312 38.3448 19.6981 38.3448 20.832C38.3448 21.9239 39.6855 22.5328 43.0272 22.5328C46.4502 22.5328 47.5675 21.9344 47.5675 20.832Z" fill="#222222"></path> <path d="M52.494 24.7796V16.2966H56.1506L61.6252 21.609L67.0695 16.3071H70.7259V24.7901H67.2929V19.6667L63.0879 23.7822H60.1525L55.9271 19.6982V24.7901H52.494V24.7796Z" fill="#222222"></path> <path d="M72.1477 20.5381C72.1477 17.735 75.0728 16.0762 80.0602 16.0762C84.9966 16.0762 87.9421 17.714 87.9421 20.4541C87.9421 20.8531 87.9319 21.0421 87.8707 21.315H75.6822C76.1289 22.2599 77.5512 22.6694 80.2224 22.6694C82.8328 22.6694 84.072 22.4174 84.3668 21.8505L87.9523 22.5014C87.0986 24.3072 84.9966 24.9896 80.2224 24.9896C75.0422 25.0001 72.1477 23.3938 72.1477 20.5381ZM75.6924 19.5513H84.275C83.7977 18.5959 82.6197 18.2389 80.05 18.2389C77.4599 18.2389 76.1595 18.5959 75.6924 19.5513Z" fill="#222222"></path> <path d="M89.4347 16.2966H92.8677V18.8793H100.557V16.2966H103.99V24.7796H100.557V21.4935H92.8677V24.7796H89.4347V16.2966Z" fill="#222222"></path> <path d="M108.226 20.4857V16.2967C114.228 15.4988 113.507 19.9187 109.221 19.2678V20.4752H108.226V20.4857ZM110.694 17.1051H109.211V18.4699C112.186 18.8584 111.791 17.1891 110.694 17.1051Z" fill="#222222"></path> <path d="M115.234 20.4855V19.9081C112.075 20.139 111.994 16.2965 115.234 16.4645V15.9711H116.23V16.4645C119.399 16.2335 119.5 20.097 116.23 19.9081V20.4855H115.234ZM113.782 18.1863C113.792 18.9212 114.391 19.1836 115.255 19.1416V17.2309C114.655 17.2099 113.792 17.2939 113.782 18.1863ZM117.692 18.1863C117.692 17.4514 117.042 17.1889 116.209 17.2309V19.1416C116.819 19.1521 117.682 19.0892 117.692 18.1863Z" fill="#222222"></path> </g> </g> <defs> <clipPath id="clip0_3161_256"> <rect width="101" height="12" fill="white" transform="translate(18 13)"></rect> </clipPath> </defs> </svg> 