<?xml version="1.0" encoding="UTF-8"?> <svg xmlns="http://www.w3.org/2000/svg" width="167" height="260" viewBox="0 0 167 260" fill="none"> <rect width="167" height="260" rx="16" fill="white"></rect> <path d="M37.4297 99.5234H46.5V104.656H37.4297V113.68H32.2969V104.656H23.2266V99.5234H32.2969V90.3828H37.4297V99.5234ZM75.2812 111.898H71.1562V119H64.0781V111.898H49.4531V106.859L64.4766 84.7344H71.1562V106.273H75.2812V111.898ZM64.0781 106.273V100.461C64.0781 99.9141 64.0859 99.2656 64.1016 98.5156C64.1328 97.7656 64.1641 97.0156 64.1953 96.2656C64.2266 95.5156 64.2578 94.8516 64.2891 94.2734C64.3359 93.6797 64.3672 93.2656 64.3828 93.0312H64.1953C63.8984 93.6719 63.5859 94.2969 63.2578 94.9062C62.9297 95.5 62.5469 96.125 62.1094 96.7812L55.8281 106.273H64.0781ZM101.789 101.867C101.789 104.633 101.57 107.102 101.133 109.273C100.711 111.445 100.023 113.289 99.0703 114.805C98.1328 116.32 96.8984 117.477 95.3672 118.273C93.8359 119.07 91.9766 119.469 89.7891 119.469C87.0391 119.469 84.7812 118.773 83.0156 117.383C81.25 115.977 79.9453 113.961 79.1016 111.336C78.2578 108.695 77.8359 105.539 77.8359 101.867C77.8359 98.1641 78.2188 95 78.9844 92.375C79.7656 89.7344 81.0312 87.7109 82.7812 86.3047C84.5312 84.8984 86.8672 84.1953 89.7891 84.1953C92.5234 84.1953 94.7734 84.8984 96.5391 86.3047C98.3203 87.6953 99.6406 89.7109 100.5 92.3516C101.359 94.9766 101.789 98.1484 101.789 101.867ZM85.0312 101.867C85.0312 104.477 85.1719 106.656 85.4531 108.406C85.75 110.141 86.2422 111.445 86.9297 112.32C87.6172 113.195 88.5703 113.633 89.7891 113.633C90.9922 113.633 91.9375 113.203 92.625 112.344C93.3281 111.469 93.8281 110.164 94.125 108.43C94.4219 106.68 94.5703 104.492 94.5703 101.867C94.5703 99.2578 94.4219 97.0781 94.125 95.3281C93.8281 93.5781 93.3281 92.2656 92.625 91.3906C91.9375 90.5 90.9922 90.0547 89.7891 90.0547C88.5703 90.0547 87.6172 90.5 86.9297 91.3906C86.2422 92.2656 85.75 93.5781 85.4531 95.3281C85.1719 97.0781 85.0312 99.2578 85.0312 101.867ZM113.133 84.2422C115.82 84.2422 117.859 85.1797 119.25 87.0547C120.641 88.9297 121.336 91.5625 121.336 94.9531C121.336 98.3438 120.68 100.992 119.367 102.898C118.055 104.805 115.977 105.758 113.133 105.758C110.492 105.758 108.484 104.805 107.109 102.898C105.734 100.992 105.047 98.3438 105.047 94.9531C105.047 91.5625 105.688 88.9297 106.969 87.0547C108.266 85.1797 110.32 84.2422 113.133 84.2422ZM113.18 89.1406C112.414 89.1406 111.852 89.625 111.492 90.5938C111.133 91.5625 110.953 93.0312 110.953 95C110.953 96.9688 111.133 98.4453 111.492 99.4297C111.852 100.414 112.414 100.906 113.18 100.906C113.945 100.906 114.508 100.422 114.867 99.4531C115.242 98.4688 115.43 96.9844 115.43 95C115.43 93.0312 115.242 91.5625 114.867 90.5938C114.508 89.625 113.945 89.1406 113.18 89.1406ZM137.461 84.7344L118.453 119H112.828L131.836 84.7344H137.461ZM137.133 97.9297C139.82 97.9297 141.859 98.8672 143.25 100.742C144.641 102.617 145.336 105.25 145.336 108.641C145.336 112.016 144.68 114.656 143.367 116.562C142.055 118.469 139.977 119.422 137.133 119.422C134.492 119.422 132.484 118.469 131.109 116.562C129.734 114.656 129.047 112.016 129.047 108.641C129.047 105.25 129.688 102.617 130.969 100.742C132.266 98.8672 134.32 97.9297 137.133 97.9297ZM137.18 102.828C136.414 102.828 135.852 103.312 135.492 104.281C135.133 105.25 134.953 106.719 134.953 108.688C134.953 110.656 135.133 112.133 135.492 113.117C135.852 114.102 136.414 114.594 137.18 114.594C137.945 114.594 138.508 114.109 138.867 113.141C139.242 112.156 139.43 110.672 139.43 108.688C139.43 106.719 139.242 105.25 138.867 104.281C138.508 103.312 137.945 102.828 137.18 102.828Z" fill="#D3413F"></path> <path d="M35.8535 144.367H37.4619L33.3047 149.017L37.7959 154H36.082L31.7051 149.113V154H30.2373V144.367H31.7051V149.043L35.8535 144.367ZM48.0703 154.176C47.2031 154.176 46.4385 153.997 45.7764 153.64C45.1143 153.282 44.5986 152.737 44.2295 152.005C43.8604 151.272 43.6758 150.35 43.6758 149.236C43.6758 148.07 43.8691 147.118 44.2559 146.38C44.6484 145.636 45.1875 145.085 45.873 144.728C46.5586 144.37 47.3379 144.191 48.2109 144.191C48.6914 144.191 49.1543 144.241 49.5996 144.341C50.0508 144.435 50.4199 144.555 50.707 144.701L50.2676 145.923C49.9746 145.806 49.6348 145.7 49.248 145.606C48.8672 145.513 48.5098 145.466 48.1758 145.466C47.5078 145.466 46.9512 145.609 46.5059 145.896C46.0664 146.184 45.7354 146.605 45.5127 147.162C45.2959 147.719 45.1875 148.404 45.1875 149.219C45.1875 149.998 45.293 150.663 45.5039 151.214C45.7207 151.765 46.04 152.187 46.4619 152.479C46.8896 152.767 47.4229 152.91 48.0615 152.91C48.5713 152.91 49.0312 152.857 49.4414 152.752C49.8516 152.641 50.2236 152.512 50.5576 152.365V153.666C50.2354 153.83 49.875 153.956 49.4766 154.044C49.084 154.132 48.6152 154.176 48.0703 154.176ZM59.4082 145.606H56.2354V154H54.7939V145.606H51.665V144.367H59.4082V145.606ZM69.6211 149.166C69.6211 149.957 69.5186 150.663 69.3135 151.284C69.1084 151.905 68.8125 152.43 68.4258 152.857C68.0391 153.285 67.5703 153.613 67.0195 153.842C66.4746 154.064 65.8564 154.176 65.165 154.176C64.5205 154.176 63.9287 154.064 63.3896 153.842C62.8564 153.613 62.3936 153.285 62.001 152.857C61.6143 152.43 61.3125 151.905 61.0957 151.284C60.8848 150.663 60.7793 149.957 60.7793 149.166C60.7793 148.111 60.958 147.215 61.3154 146.477C61.6729 145.732 62.1826 145.167 62.8447 144.78C63.5127 144.388 64.3066 144.191 65.2266 144.191C66.1055 144.191 66.873 144.388 67.5293 144.78C68.1914 145.173 68.7041 145.741 69.0674 146.485C69.4365 147.224 69.6211 148.117 69.6211 149.166ZM62.291 149.166C62.291 149.939 62.3936 150.61 62.5986 151.179C62.8037 151.747 63.1201 152.187 63.5479 152.497C63.9756 152.808 64.5264 152.963 65.2002 152.963C65.8682 152.963 66.416 152.808 66.8438 152.497C67.2773 152.187 67.5967 151.747 67.8018 151.179C68.0068 150.61 68.1094 149.939 68.1094 149.166C68.1094 148.398 68.0068 147.736 67.8018 147.18C67.5967 146.617 67.2803 146.184 66.8525 145.879C66.4248 145.574 65.8711 145.422 65.1914 145.422C64.1895 145.422 63.4541 145.753 62.9854 146.415C62.5225 147.077 62.291 147.994 62.291 149.166ZM73.5322 144.367V150.423C73.5322 150.54 73.5293 150.692 73.5234 150.88C73.5176 151.062 73.5088 151.258 73.4971 151.469C73.4854 151.674 73.4736 151.873 73.4619 152.066C73.4561 152.254 73.4473 152.409 73.4355 152.532L78.6914 144.367H80.4844V154H79.1221V148.094C79.1221 147.906 79.125 147.666 79.1309 147.373C79.1367 147.08 79.1455 146.793 79.1572 146.512C79.1689 146.225 79.1777 146.002 79.1836 145.844L73.9453 154H72.1436V144.367H73.5322ZM93.7559 144.367V154H92.4375V147.725C92.4375 147.467 92.4434 147.206 92.4551 146.942C92.4727 146.673 92.4932 146.403 92.5166 146.134H92.4639L89.2646 154H88.0254L84.9053 146.134H84.8525C84.8701 146.403 84.8818 146.673 84.8877 146.942C84.8994 147.206 84.9053 147.484 84.9053 147.777V154H83.5781V144.367H85.5381L88.6494 152.242L91.8047 144.367H93.7559ZM105.094 149.166C105.094 149.957 104.991 150.663 104.786 151.284C104.581 151.905 104.285 152.43 103.898 152.857C103.512 153.285 103.043 153.613 102.492 153.842C101.947 154.064 101.329 154.176 100.638 154.176C99.9932 154.176 99.4014 154.064 98.8623 153.842C98.3291 153.613 97.8662 153.285 97.4736 152.857C97.0869 152.43 96.7852 151.905 96.5684 151.284C96.3574 150.663 96.252 149.957 96.252 149.166C96.252 148.111 96.4307 147.215 96.7881 146.477C97.1455 145.732 97.6553 145.167 98.3174 144.78C98.9854 144.388 99.7793 144.191 100.699 144.191C101.578 144.191 102.346 144.388 103.002 144.78C103.664 145.173 104.177 145.741 104.54 146.485C104.909 147.224 105.094 148.117 105.094 149.166ZM97.7637 149.166C97.7637 149.939 97.8662 150.61 98.0713 151.179C98.2764 151.747 98.5928 152.187 99.0205 152.497C99.4482 152.808 99.999 152.963 100.673 152.963C101.341 152.963 101.889 152.808 102.316 152.497C102.75 152.187 103.069 151.747 103.274 151.179C103.479 150.61 103.582 149.939 103.582 149.166C103.582 148.398 103.479 147.736 103.274 147.18C103.069 146.617 102.753 146.184 102.325 145.879C101.897 145.574 101.344 145.422 100.664 145.422C99.6621 145.422 98.9268 145.753 98.458 146.415C97.9951 147.077 97.7637 147.994 97.7637 149.166ZM111.475 154.176C110.607 154.176 109.843 153.997 109.181 153.64C108.519 153.282 108.003 152.737 107.634 152.005C107.265 151.272 107.08 150.35 107.08 149.236C107.08 148.07 107.273 147.118 107.66 146.38C108.053 145.636 108.592 145.085 109.277 144.728C109.963 144.37 110.742 144.191 111.615 144.191C112.096 144.191 112.559 144.241 113.004 144.341C113.455 144.435 113.824 144.555 114.111 144.701L113.672 145.923C113.379 145.806 113.039 145.7 112.652 145.606C112.271 145.513 111.914 145.466 111.58 145.466C110.912 145.466 110.355 145.609 109.91 145.896C109.471 146.184 109.14 146.605 108.917 147.162C108.7 147.719 108.592 148.404 108.592 149.219C108.592 149.998 108.697 150.663 108.908 151.214C109.125 151.765 109.444 152.187 109.866 152.479C110.294 152.767 110.827 152.91 111.466 152.91C111.976 152.91 112.436 152.857 112.846 152.752C113.256 152.641 113.628 152.512 113.962 152.365V153.666C113.64 153.83 113.279 153.956 112.881 154.044C112.488 154.132 112.02 154.176 111.475 154.176ZM122.812 145.606H119.64V154H118.198V145.606H115.069V144.367H122.812V145.606ZM126.108 144.367V150.423C126.108 150.54 126.105 150.692 126.1 150.88C126.094 151.062 126.085 151.258 126.073 151.469C126.062 151.674 126.05 151.873 126.038 152.066C126.032 152.254 126.023 152.409 126.012 152.532L131.268 144.367H133.061V154H131.698V148.094C131.698 147.906 131.701 147.666 131.707 147.373C131.713 147.08 131.722 146.793 131.733 146.512C131.745 146.225 131.754 146.002 131.76 145.844L126.521 154H124.72V144.367H126.108ZM45.2227 169.367V179H43.9043V172.725C43.9043 172.467 43.9102 172.206 43.9219 171.942C43.9395 171.673 43.96 171.403 43.9834 171.134H43.9307L40.7314 179H39.4922L36.3721 171.134H36.3193C36.3369 171.403 36.3486 171.673 36.3545 171.942C36.3662 172.206 36.3721 172.484 36.3721 172.777V179H35.0449V169.367H37.0049L40.1162 177.242L43.2715 169.367H45.2227ZM52.2275 171.512H47.1562V170.598L49.2393 168.559C49.7197 168.09 50.0889 167.706 50.3467 167.407C50.6045 167.108 50.7803 166.839 50.874 166.599C50.9736 166.358 51.0234 166.101 51.0234 165.825C51.0234 165.438 50.9092 165.143 50.6807 164.938C50.4521 164.727 50.1445 164.621 49.7578 164.621C49.4004 164.621 49.0693 164.691 48.7646 164.832C48.4658 164.967 48.1611 165.154 47.8506 165.395L47.2617 164.612C47.6133 164.319 47.9941 164.085 48.4043 163.909C48.8145 163.733 49.2715 163.646 49.7754 163.646C50.5371 163.646 51.1348 163.836 51.5684 164.217C52.002 164.592 52.2188 165.107 52.2188 165.764C52.2188 166.162 52.1367 166.528 51.9727 166.862C51.8145 167.196 51.5771 167.533 51.2607 167.873C50.9502 168.213 50.5693 168.597 50.1182 169.024L48.624 170.466H52.2275V171.512ZM67.4941 174.166C67.4941 174.957 67.3916 175.663 67.1865 176.284C66.9814 176.905 66.6855 177.43 66.2988 177.857C65.9121 178.285 65.4434 178.613 64.8926 178.842C64.3477 179.064 63.7295 179.176 63.0381 179.176C62.3936 179.176 61.8018 179.064 61.2627 178.842C60.7295 178.613 60.2666 178.285 59.874 177.857C59.4873 177.43 59.1855 176.905 58.9688 176.284C58.7578 175.663 58.6523 174.957 58.6523 174.166C58.6523 173.111 58.8311 172.215 59.1885 171.477C59.5459 170.732 60.0557 170.167 60.7178 169.78C61.3857 169.388 62.1797 169.191 63.0996 169.191C63.9785 169.191 64.7461 169.388 65.4023 169.78C66.0645 170.173 66.5771 170.741 66.9404 171.485C67.3096 172.224 67.4941 173.117 67.4941 174.166ZM60.1641 174.166C60.1641 174.939 60.2666 175.61 60.4717 176.179C60.6768 176.747 60.9932 177.187 61.4209 177.497C61.8486 177.808 62.3994 177.963 63.0732 177.963C63.7412 177.963 64.2891 177.808 64.7168 177.497C65.1504 177.187 65.4697 176.747 65.6748 176.179C65.8799 175.61 65.9824 174.939 65.9824 174.166C65.9824 173.398 65.8799 172.736 65.6748 172.18C65.4697 171.617 65.1533 171.184 64.7256 170.879C64.2979 170.574 63.7441 170.422 63.0645 170.422C62.0625 170.422 61.3271 170.753 60.8584 171.415C60.3955 172.077 60.1641 172.994 60.1641 174.166ZM76.582 170.606H73.4092V179H71.9678V170.606H68.8389V169.367H76.582V170.606ZM91.2334 169.367V179H89.7656V170.624H84.6328V179H83.165V169.367H91.2334ZM101.552 179H100.066V170.589H97.1396C97.0225 172.106 96.873 173.407 96.6914 174.491C96.5156 175.569 96.293 176.451 96.0234 177.137C95.7598 177.816 95.4375 178.317 95.0566 178.64C94.6816 178.956 94.2334 179.114 93.7119 179.114C93.5537 179.114 93.4043 179.105 93.2637 179.088C93.123 179.07 93.0029 179.041 92.9033 179V177.893C92.9795 177.916 93.0586 177.934 93.1406 177.945C93.2285 177.957 93.3193 177.963 93.4131 177.963C93.6768 177.963 93.917 177.854 94.1338 177.638C94.3564 177.415 94.5557 177.081 94.7314 176.636C94.9131 176.19 95.0742 175.628 95.2148 174.948C95.3555 174.263 95.4785 173.457 95.584 172.531C95.6953 171.6 95.792 170.545 95.874 169.367H101.552V179ZM108.231 169.209C109.38 169.209 110.232 169.467 110.789 169.982C111.346 170.498 111.624 171.321 111.624 172.452V179H110.561L110.279 177.576H110.209C109.939 177.928 109.658 178.224 109.365 178.464C109.072 178.698 108.732 178.877 108.346 179C107.965 179.117 107.496 179.176 106.939 179.176C106.354 179.176 105.832 179.073 105.375 178.868C104.924 178.663 104.566 178.353 104.303 177.937C104.045 177.521 103.916 176.993 103.916 176.354C103.916 175.394 104.297 174.655 105.059 174.14C105.82 173.624 106.98 173.343 108.539 173.296L110.2 173.226V172.637C110.2 171.805 110.021 171.222 109.664 170.888C109.307 170.554 108.803 170.387 108.152 170.387C107.648 170.387 107.168 170.46 106.711 170.606C106.254 170.753 105.82 170.926 105.41 171.125L104.962 170.018C105.396 169.795 105.894 169.604 106.456 169.446C107.019 169.288 107.61 169.209 108.231 169.209ZM110.183 174.254L108.715 174.315C107.514 174.362 106.667 174.559 106.175 174.904C105.683 175.25 105.437 175.739 105.437 176.372C105.437 176.923 105.604 177.33 105.938 177.594C106.271 177.857 106.714 177.989 107.265 177.989C108.12 177.989 108.82 177.752 109.365 177.277C109.91 176.803 110.183 176.091 110.183 175.142V174.254ZM116.098 169.367V173.41H121.468V169.367H122.927V179H121.468V174.649H116.098V179H114.63V169.367H116.098ZM129.624 169.209C130.772 169.209 131.625 169.467 132.182 169.982C132.738 170.498 133.017 171.321 133.017 172.452V179H131.953L131.672 177.576H131.602C131.332 177.928 131.051 178.224 130.758 178.464C130.465 178.698 130.125 178.877 129.738 179C129.357 179.117 128.889 179.176 128.332 179.176C127.746 179.176 127.225 179.073 126.768 178.868C126.316 178.663 125.959 178.353 125.695 177.937C125.438 177.521 125.309 176.993 125.309 176.354C125.309 175.394 125.689 174.655 126.451 174.14C127.213 173.624 128.373 173.343 129.932 173.296L131.593 173.226V172.637C131.593 171.805 131.414 171.222 131.057 170.888C130.699 170.554 130.195 170.387 129.545 170.387C129.041 170.387 128.561 170.46 128.104 170.606C127.646 170.753 127.213 170.926 126.803 171.125L126.354 170.018C126.788 169.795 127.286 169.604 127.849 169.446C128.411 169.288 129.003 169.209 129.624 169.209ZM131.575 174.254L130.107 174.315C128.906 174.362 128.06 174.559 127.567 174.904C127.075 175.25 126.829 175.739 126.829 176.372C126.829 176.923 126.996 177.33 127.33 177.594C127.664 177.857 128.106 177.989 128.657 177.989C129.513 177.989 130.213 177.752 130.758 177.277C131.303 176.803 131.575 176.091 131.575 175.142V174.254Z" fill="#555555"></path> </svg> 