<?xml version="1.0" encoding="UTF-8"?> <svg xmlns="http://www.w3.org/2000/svg" width="187" height="40" viewBox="0 0 187 40" fill="none"> <rect width="187" height="40" rx="20" fill="#F8F8F8"></rect> <g clip-path="url(#clip0_3161_344)"> <path d="M76.5507 18.2419V24.0905H74.9501V16.3357C75.002 16.3313 75.0554 16.324 75.108 16.324C75.7074 16.324 76.3062 16.3203 76.9049 16.3284C76.9448 16.3292 76.984 16.3384 77.02 16.3553C77.056 16.3723 77.088 16.3966 77.1138 16.4266C78.1093 18.0138 79.101 19.6054 80.089 21.2014C80.1986 21.3774 80.2927 21.5637 80.4054 21.7676V16.3401H82.0022V24.0912C81.9518 24.0949 81.8992 24.1029 81.8459 24.1029C81.296 24.1029 80.747 24.1029 80.1971 24.1029C80.1462 24.1087 80.0948 24.0988 80.0498 24.0745C80.0048 24.0502 79.9685 24.0128 79.9459 23.9672C78.83 22.0745 77.7118 20.1834 76.5914 18.294C76.579 18.2758 76.5654 18.2584 76.5507 18.2419Z" fill="#222222"></path> <path d="M69.5497 16.0783C71.8535 16.0849 73.7312 17.9405 73.726 20.2047C73.7302 20.7545 73.624 21.2997 73.4137 21.8087C73.2034 22.3176 72.8931 22.7801 72.5008 23.1695C72.1085 23.5588 71.642 23.8672 71.1284 24.0767C70.6148 24.2862 70.0642 24.3928 69.5087 24.3901C68.9532 24.3874 68.4037 24.2756 67.8922 24.0612C67.3807 23.8467 66.9172 23.5339 66.5288 23.1408C66.1403 22.7477 65.8346 22.2822 65.6293 21.7712C65.4239 21.2603 65.3231 20.7141 65.3327 20.1643C65.3431 17.9097 67.2393 16.0717 69.5497 16.0783ZM69.5312 22.7109C70.0295 22.7088 70.516 22.5606 70.9291 22.2849C71.3423 22.0092 71.6636 21.6184 71.8524 21.162C72.0412 20.7055 72.089 20.2039 71.9898 19.7206C71.8905 19.2372 71.6487 18.7939 71.2949 18.4466C70.9412 18.0993 70.4913 17.8636 70.0022 17.7694C69.513 17.6751 69.0067 17.7266 68.5471 17.9172C68.0876 18.1078 67.6954 18.429 67.4203 18.8402C67.1452 19.2515 66.9994 19.7342 67.0014 20.2274C67.0028 20.5549 67.0693 20.8789 67.1972 21.1809C67.3251 21.483 67.5118 21.7571 67.7467 21.9877C67.9816 22.2183 68.2601 22.4009 68.5663 22.525C68.8725 22.6491 69.2004 22.7122 69.5312 22.7109Z" fill="#222222"></path> <path d="M18 24.0853V16.3173H21.7947C22.3785 16.312 22.9562 16.4352 23.486 16.678C24.0158 16.9208 24.4845 17.2771 24.8582 17.7211C25.2319 18.1651 25.5013 18.6857 25.6468 19.2454C25.7923 19.805 25.8104 20.3897 25.6997 20.9571C25.3752 22.7027 23.7805 24.0545 21.9599 24.089C20.6706 24.1139 19.3797 24.0948 18.0904 24.0941C18.0674 24.0941 18.04 24.0897 18 24.0853ZM19.5642 22.545C20.429 22.545 21.2774 22.589 22.1185 22.534C23.2848 22.4607 24.211 21.461 24.2525 20.3271C24.2675 20.0087 24.217 19.6907 24.104 19.3923C23.9911 19.0938 23.8181 18.8212 23.5956 18.5909C23.373 18.3606 23.1056 18.1774 22.8094 18.0525C22.5132 17.9276 22.1944 17.8635 21.8725 17.8641C21.1567 17.8583 20.4408 17.8641 19.7236 17.8641C19.671 17.8641 19.6183 17.873 19.5635 17.8774L19.5642 22.545Z" fill="#222222"></path> <path d="M33.5743 24.0934H27.4448V16.3386H33.5387V17.8349H29.2283V19.3113H33.3172V20.8229H29.2261V22.5832H33.5743V24.0934Z" fill="#222222"></path> <path d="M53.6791 21.7771C54.2615 21.7771 54.8291 21.7771 55.396 21.7771C55.4178 21.7805 55.4386 21.789 55.4566 21.8017C55.4746 21.8144 55.4893 21.8311 55.4997 21.8504C55.7598 22.5619 56.343 22.8039 57.0328 22.8633C57.4567 22.9015 57.8842 22.8993 58.2977 22.7658C58.6312 22.6587 58.8542 22.4577 58.8905 22.0939C58.9231 21.7485 58.7838 21.4529 58.4244 21.3202C57.9442 21.1514 57.4533 21.0137 56.955 20.908C56.3111 20.7613 55.6761 20.6058 55.0751 20.3212C53.5301 19.5877 53.7132 17.482 54.9655 16.7317C55.6212 16.3378 56.3363 16.1911 57.0869 16.186C57.8205 16.1809 58.5415 16.2718 59.1995 16.6312C59.5124 16.7937 59.7838 17.0248 59.9928 17.3069C60.2019 17.5889 60.3431 17.9145 60.4059 18.2587C60.4124 18.2948 60.4164 18.3314 60.4177 18.368C60.4178 18.394 60.4164 18.42 60.4133 18.4458C60.3762 18.4514 60.3388 18.455 60.3014 18.4568C59.7945 18.4568 59.2884 18.4568 58.7823 18.4568C58.7275 18.4568 58.6378 18.4216 58.6245 18.3834C58.4504 17.8649 58.0428 17.6676 57.5412 17.6001C57.1505 17.5342 56.75 17.5545 56.3682 17.6595C56.1562 17.7248 55.9717 17.8341 55.8672 18.038C55.6924 18.3797 55.805 18.7714 56.1762 18.9086C56.6153 19.0669 57.065 19.1951 57.5219 19.2922C58.2318 19.455 58.9402 19.6112 59.5922 19.9523C60.3384 20.341 60.7208 20.9366 60.72 21.7822C60.72 22.6499 60.3725 23.3181 59.6145 23.7625C59.032 24.1036 58.3844 24.2232 57.7197 24.2635C56.8609 24.3163 56.0154 24.2591 55.2226 23.8872C54.3341 23.4589 53.8451 22.7475 53.6791 21.7771Z" fill="#222222"></path> <path d="M49.7717 16.324C49.6021 16.7589 49.4479 17.1564 49.2923 17.5532C48.4565 19.6798 47.6216 21.8068 46.7877 23.9343C46.7374 24.0634 46.6781 24.111 46.5373 24.1088C45.9386 24.1008 45.3398 24.1022 44.7411 24.1088C44.6906 24.1163 44.6392 24.1046 44.5971 24.076C44.555 24.0475 44.5254 24.0041 44.5144 23.9548C43.5595 21.4694 42.6011 18.9849 41.6393 16.5015C41.62 16.4523 41.6082 16.4003 41.5859 16.3269H41.8038C42.3343 16.3269 42.8656 16.3269 43.3962 16.3269C43.5007 16.3269 43.5614 16.3467 43.5985 16.4575C44.2832 18.4943 45.0805 20.4914 45.6444 22.57C45.6558 22.6035 45.6691 22.6364 45.6844 22.6683C45.8393 22.1901 45.9808 21.7258 46.1401 21.2667C46.6922 19.6744 47.2516 18.0843 47.8022 16.4919C47.8444 16.3694 47.8992 16.3232 48.0348 16.3254C48.601 16.3284 49.1678 16.324 49.7717 16.324Z" fill="#222222"></path> <path d="M37.5312 19.9824V8.24717C37.5312 8 37.5312 8 37.7832 8C37.9869 8 38.1907 8.00367 38.3945 8C38.5027 8 38.559 8.0308 38.5479 8.14669C38.5479 8.18923 38.5479 8.2325 38.5479 8.27504C38.5479 16.0922 38.5479 23.9088 38.5479 31.725C38.5479 32.0411 38.5642 31.9963 38.2678 31.9985C38.0759 31.9985 37.8847 31.9934 37.6935 31.9985C37.5757 32.0029 37.5194 31.9677 37.5305 31.8438C37.5379 31.7653 37.5305 31.6853 37.5305 31.6061L37.5312 19.9824Z" fill="#D3413F"></path> <path d="M50.6521 16.3335H52.4179V24.0941H50.6521V16.3335Z" fill="#222222"></path> <path d="M63.9515 24.0934H62.1813V16.3357H63.9515V24.0934Z" fill="#222222"></path> </g> <path d="M97.6562 20.7402C97.6562 21.3555 97.5765 21.9046 97.417 22.3877C97.2575 22.8708 97.0273 23.2786 96.7266 23.6113C96.4258 23.944 96.0612 24.1992 95.6328 24.377C95.209 24.5501 94.7282 24.6367 94.1904 24.6367C93.6891 24.6367 93.2288 24.5501 92.8096 24.377C92.3949 24.1992 92.0348 23.944 91.7295 23.6113C91.4287 23.2786 91.194 22.8708 91.0254 22.3877C90.8613 21.9046 90.7793 21.3555 90.7793 20.7402C90.7793 19.9199 90.9183 19.2227 91.1963 18.6484C91.4743 18.0697 91.8708 17.6299 92.3857 17.3291C92.9053 17.0238 93.5228 16.8711 94.2383 16.8711C94.9219 16.8711 95.5189 17.0238 96.0293 17.3291C96.5443 17.6344 96.943 18.0765 97.2256 18.6553C97.5127 19.2295 97.6562 19.9245 97.6562 20.7402ZM91.9551 20.7402C91.9551 21.3418 92.0348 21.8636 92.1943 22.3057C92.3538 22.7477 92.5999 23.0895 92.9326 23.3311C93.2653 23.5726 93.6937 23.6934 94.2178 23.6934C94.7373 23.6934 95.1634 23.5726 95.4961 23.3311C95.8333 23.0895 96.0817 22.7477 96.2412 22.3057C96.4007 21.8636 96.4805 21.3418 96.4805 20.7402C96.4805 20.1432 96.4007 19.6283 96.2412 19.1953C96.0817 18.7578 95.8356 18.4206 95.5029 18.1836C95.1702 17.9466 94.7396 17.8281 94.2109 17.8281C93.4316 17.8281 92.8597 18.0856 92.4951 18.6006C92.1351 19.1156 91.9551 19.8288 91.9551 20.7402ZM102.619 24.6367C101.945 24.6367 101.35 24.4977 100.835 24.2197C100.32 23.9417 99.9189 23.5179 99.6318 22.9482C99.3447 22.3786 99.2012 21.6608 99.2012 20.7949C99.2012 19.888 99.3516 19.1475 99.6523 18.5732C99.9577 17.9945 100.377 17.5661 100.91 17.2881C101.443 17.0101 102.049 16.8711 102.729 16.8711C103.102 16.8711 103.462 16.9098 103.809 16.9873C104.16 17.0602 104.447 17.1536 104.67 17.2676L104.328 18.2178C104.1 18.1266 103.836 18.0446 103.535 17.9717C103.239 17.8988 102.961 17.8623 102.701 17.8623C102.182 17.8623 101.749 17.974 101.402 18.1973C101.061 18.4206 100.803 18.7487 100.63 19.1816C100.461 19.6146 100.377 20.1478 100.377 20.7812C100.377 21.3874 100.459 21.9046 100.623 22.333C100.792 22.7614 101.04 23.0895 101.368 23.3174C101.701 23.5407 102.116 23.6523 102.612 23.6523C103.009 23.6523 103.367 23.6113 103.686 23.5293C104.005 23.4427 104.294 23.3424 104.554 23.2285V24.2402C104.303 24.3678 104.023 24.4658 103.713 24.5342C103.408 24.6025 103.043 24.6367 102.619 24.6367ZM107.473 17.0078V20.1523H111.649V17.0078H112.784V24.5H111.649V21.1162H107.473V24.5H106.331V17.0078H107.473ZM121.65 20.7402C121.65 21.3555 121.571 21.9046 121.411 22.3877C121.252 22.8708 121.021 23.2786 120.721 23.6113C120.42 23.944 120.055 24.1992 119.627 24.377C119.203 24.5501 118.722 24.6367 118.185 24.6367C117.683 24.6367 117.223 24.5501 116.804 24.377C116.389 24.1992 116.029 23.944 115.724 23.6113C115.423 23.2786 115.188 22.8708 115.02 22.3877C114.855 21.9046 114.773 21.3555 114.773 20.7402C114.773 19.9199 114.912 19.2227 115.19 18.6484C115.468 18.0697 115.865 17.6299 116.38 17.3291C116.899 17.0238 117.517 16.8711 118.232 16.8711C118.916 16.8711 119.513 17.0238 120.023 17.3291C120.538 17.6344 120.937 18.0765 121.22 18.6553C121.507 19.2295 121.65 19.9245 121.65 20.7402ZM115.949 20.7402C115.949 21.3418 116.029 21.8636 116.188 22.3057C116.348 22.7477 116.594 23.0895 116.927 23.3311C117.259 23.5726 117.688 23.6934 118.212 23.6934C118.731 23.6934 119.158 23.5726 119.49 23.3311C119.827 23.0895 120.076 22.7477 120.235 22.3057C120.395 21.8636 120.475 21.3418 120.475 20.7402C120.475 20.1432 120.395 19.6283 120.235 19.1953C120.076 18.7578 119.83 18.4206 119.497 18.1836C119.164 17.9466 118.734 17.8281 118.205 17.8281C117.426 17.8281 116.854 18.0856 116.489 18.6006C116.129 19.1156 115.949 19.8288 115.949 20.7402ZM129.566 18.8877C129.566 19.3571 129.43 19.724 129.156 19.9883C128.883 20.248 128.53 20.4235 128.097 20.5146V20.5693C128.566 20.6331 128.969 20.8018 129.307 21.0752C129.648 21.3441 129.819 21.7565 129.819 22.3125C129.819 22.7409 129.717 23.1191 129.512 23.4473C129.307 23.7754 128.985 24.0329 128.548 24.2197C128.11 24.4066 127.541 24.5 126.839 24.5H123.612V17.0078H126.812C127.349 17.0078 127.823 17.0693 128.233 17.1924C128.648 17.3109 128.974 17.5068 129.211 17.7803C129.448 18.0537 129.566 18.4229 129.566 18.8877ZM128.637 22.3125C128.637 21.8704 128.468 21.5514 128.131 21.3555C127.798 21.1595 127.313 21.0615 126.675 21.0615H124.754V23.5771H126.702C127.331 23.5771 127.81 23.4814 128.138 23.29C128.47 23.0941 128.637 22.7682 128.637 22.3125ZM128.411 19.0176C128.411 18.6621 128.281 18.3978 128.021 18.2246C127.762 18.0469 127.336 17.958 126.743 17.958H124.754V20.1113H126.545C127.16 20.1113 127.625 20.0225 127.939 19.8447C128.254 19.667 128.411 19.3913 128.411 19.0176ZM134.454 16.8848C135.347 16.8848 136.01 17.0853 136.443 17.4863C136.876 17.8874 137.093 18.5277 137.093 19.4072V24.5H136.266L136.047 23.3926H135.992C135.783 23.666 135.564 23.8962 135.336 24.083C135.108 24.2653 134.844 24.4043 134.543 24.5C134.247 24.5911 133.882 24.6367 133.449 24.6367C132.993 24.6367 132.588 24.557 132.232 24.3975C131.882 24.238 131.604 23.9964 131.398 23.6729C131.198 23.3493 131.098 22.9391 131.098 22.4424C131.098 21.695 131.394 21.1208 131.986 20.7197C132.579 20.3187 133.481 20.0999 134.693 20.0635L135.985 20.0088V19.5508C135.985 18.9036 135.846 18.4502 135.568 18.1904C135.29 17.9307 134.898 17.8008 134.393 17.8008C134.001 17.8008 133.627 17.8577 133.271 17.9717C132.916 18.0856 132.579 18.2201 132.26 18.375L131.911 17.5137C132.248 17.3405 132.636 17.1924 133.073 17.0693C133.511 16.9463 133.971 16.8848 134.454 16.8848ZM135.972 20.8086L134.83 20.8564C133.896 20.8929 133.237 21.0456 132.854 21.3145C132.472 21.5833 132.28 21.9639 132.28 22.4561C132.28 22.8844 132.41 23.2012 132.67 23.4062C132.93 23.6113 133.274 23.7139 133.702 23.7139C134.368 23.7139 134.912 23.5293 135.336 23.1602C135.76 22.791 135.972 22.2373 135.972 21.499V20.8086ZM144.537 17.9717H142.069V24.5H140.948V17.9717H138.515V17.0078H144.537V17.9717ZM148.905 16.8711C149.543 16.8711 150.09 17.0124 150.546 17.2949C151.002 17.5775 151.35 17.974 151.592 18.4844C151.833 18.9902 151.954 19.5827 151.954 20.2617V20.9658H146.779C146.793 21.8454 147.012 22.5153 147.436 22.9756C147.859 23.4359 148.456 23.666 149.227 23.666C149.701 23.666 150.12 23.6227 150.484 23.5361C150.849 23.4495 151.227 23.3219 151.619 23.1533V24.1514C151.241 24.32 150.865 24.443 150.491 24.5205C150.122 24.598 149.685 24.6367 149.179 24.6367C148.459 24.6367 147.83 24.4909 147.292 24.1992C146.759 23.903 146.344 23.4701 146.048 22.9004C145.752 22.3307 145.604 21.6335 145.604 20.8086C145.604 20.002 145.738 19.3047 146.007 18.7168C146.28 18.1243 146.663 17.6686 147.155 17.3496C147.652 17.0306 148.235 16.8711 148.905 16.8711ZM148.892 17.8008C148.285 17.8008 147.802 17.999 147.442 18.3955C147.082 18.792 146.868 19.3457 146.8 20.0566H150.765C150.76 19.61 150.689 19.2181 150.553 18.8809C150.421 18.5391 150.218 18.2747 149.944 18.0879C149.671 17.8965 149.32 17.8008 148.892 17.8008ZM159.501 24.5H158.346V17.958H156.069C155.978 19.1383 155.862 20.1501 155.721 20.9932C155.584 21.8317 155.411 22.5176 155.201 23.0508C154.996 23.5794 154.745 23.9691 154.449 24.2197C154.158 24.4658 153.809 24.5889 153.403 24.5889C153.28 24.5889 153.164 24.582 153.055 24.5684C152.945 24.5547 152.852 24.5319 152.774 24.5V23.6387C152.834 23.6569 152.895 23.6706 152.959 23.6797C153.027 23.6888 153.098 23.6934 153.171 23.6934C153.376 23.6934 153.563 23.609 153.731 23.4404C153.905 23.2673 154.06 23.0075 154.196 22.6611C154.338 22.3148 154.463 21.8773 154.572 21.3486C154.682 20.8154 154.777 20.1888 154.859 19.4688C154.946 18.7441 155.021 17.9238 155.085 17.0078H159.501V24.5ZM163.035 20.0977H165.332C165.97 20.0977 166.501 20.1774 166.925 20.3369C167.349 20.4964 167.665 20.7334 167.875 21.0479C168.089 21.3623 168.196 21.752 168.196 22.2168C168.196 22.6816 168.091 23.085 167.882 23.4268C167.677 23.7686 167.358 24.0329 166.925 24.2197C166.496 24.4066 165.943 24.5 165.264 24.5H161.894V17.0078H163.035V20.0977ZM167.055 22.2715C167.055 21.8112 166.891 21.4922 166.562 21.3145C166.239 21.1322 165.785 21.041 165.202 21.041H163.035V23.5771H165.209C165.756 23.5771 166.2 23.4769 166.542 23.2764C166.884 23.0713 167.055 22.7363 167.055 22.2715Z" fill="#555555"></path> <defs> <clipPath id="clip0_3161_344"> <rect width="64" height="24" fill="white" transform="translate(18 8)"></rect> </clipPath> </defs> </svg> 