<?xml version="1.0" encoding="UTF-8"?> <svg xmlns="http://www.w3.org/2000/svg" width="100" height="100" viewBox="0 0 100 100" fill="none"> <circle cx="50" cy="50" r="50" fill="#D3413F"></circle> <path d="M49.9047 65.9032C49.4203 65.2891 48.9672 64.7047 48.5094 64.1344C45.6078 60.5594 42.8938 56.8532 40.6375 52.8297C38.45 48.9235 36.6625 44.8516 35.8422 40.4125C35.2844 37.386 35.2172 34.3688 36.1156 31.386C37.4391 26.9672 40.2984 23.9672 44.6203 22.4266C48.8875 20.9063 53.1063 21.1454 57.1203 23.2594C61.5266 25.5782 63.7922 29.3891 64.3078 34.2672C64.8063 38.936 63.5906 43.3094 61.8078 47.5563C60.5578 50.525 58.9859 53.3157 57.2344 56.0219C55.0797 59.35 52.6828 62.4891 50.2031 65.5688C50.1203 65.6704 50.0281 65.7641 49.9047 65.9032ZM56.1297 34.425C56.1305 33.6044 55.969 32.7916 55.6543 32.0337C55.3396 31.2757 54.8781 30.5875 54.2962 30.0087C53.7144 29.4299 53.0238 28.972 52.2642 28.6613C51.5046 28.3506 50.691 28.1933 49.8703 28.1985C46.4906 28.2094 43.7437 31.011 43.7437 34.4344C43.7437 37.7641 46.5281 40.5641 49.8375 40.5657C53.3062 40.5672 56.1234 37.8157 56.1297 34.425Z" fill="white"></path> <path d="M73.2188 70.0437H61.4391C60.4734 70.0437 60.2609 70.3265 60.5016 71.2562L62.4328 78.5718H56.2047C56.0344 77.9578 55.8563 77.3218 55.6875 76.6968C55.1719 74.7593 54.6573 72.8213 54.1437 70.8828C53.95 70.15 53.8156 70.0453 53.05 70.0453H26.625C26.8469 68.014 27.0625 66.039 27.2875 63.9906H27.9469C33.9531 63.9906 39.9583 63.9869 45.9625 63.9797C46.1524 63.9697 46.3417 64.0094 46.5116 64.0949C46.6814 64.1804 46.8261 64.3087 46.9312 64.4672C47.6344 65.375 48.3641 66.2656 49.1047 67.1453C49.7578 67.9265 50.0766 67.9078 50.7094 67.1453C51.4906 66.1968 52.2625 65.2422 53.0531 64.3078C53.1993 64.1397 53.4036 64.0331 53.625 64.0093C59.8635 63.9968 66.1026 63.9968 72.3422 64.0093C72.4104 64.0201 72.4778 64.0358 72.5438 64.0562C72.7672 65.9968 72.9891 67.9859 73.2188 70.0437Z" fill="white"></path> <path d="M52.8297 71.4484L54.761 78.5999H54.1047C45.9578 78.5999 37.8115 78.5999 29.6656 78.5999C28.6891 78.5999 27.8172 78.3546 27.075 77.714C26.3735 77.1062 25.9813 76.3515 26.0656 75.3999C26.1781 74.1968 26.2985 72.9953 26.45 71.7968C26.4672 71.6656 26.6953 71.5437 26.8453 71.4515C26.9172 71.4078 27.036 71.4437 27.1344 71.4437H52.8297V71.4484Z" fill="white"></path> <path d="M45.389 62.5547H27.4203C27.6172 61.0343 27.7 59.5297 28.0312 58.0843C28.4281 56.35 29.7234 55.4656 31.4953 55.464C34.339 55.464 37.1828 55.4547 40.0265 55.4765C40.1608 55.4809 40.2928 55.5125 40.4145 55.5694C40.5362 55.6264 40.645 55.7075 40.7343 55.8078C42.2484 57.9531 43.7328 60.1218 45.2234 62.2843C45.275 62.3468 45.3125 62.4156 45.389 62.5547Z" fill="white"></path> <path d="M72.4375 62.5532H54.4984C54.5937 62.3969 54.664 62.2672 54.7453 62.1469C56.1734 60.0579 57.6109 57.9766 59.0203 55.8766C59.0991 55.7366 59.2166 55.6223 59.3588 55.5474C59.501 55.4726 59.6618 55.4404 59.8218 55.4547C62.6656 55.4688 65.5093 55.4547 68.3531 55.4641C70.1562 55.4641 71.4187 56.3391 71.8078 58.0813C72.1312 59.5329 72.2328 61.0329 72.4375 62.5532Z" fill="white"></path> <path d="M63.9141 78.5875C63.2703 76.1937 62.6406 73.8531 61.9922 71.4484H62.6266C66.0141 71.4484 69.4016 71.4609 72.7828 71.4359C73.2969 71.4359 73.4359 71.5843 73.4641 72.0828C73.5219 73.0328 73.6656 73.9781 73.7766 74.925C73.9906 76.8593 72.7391 78.4844 70.7953 78.5656C68.5234 78.6594 66.25 78.5875 63.9141 78.5875Z" fill="white"></path> </svg> 