<?xml version="1.0" encoding="UTF-8"?> <svg xmlns="http://www.w3.org/2000/svg" width="218" height="195" viewBox="0 0 218 195" fill="none"> <rect width="218" height="195" rx="16" fill="white"></rect> <path d="M62.4297 70.5234H71.5V75.6562H62.4297V84.6797H57.2969V75.6562H48.2266V70.5234H57.2969V61.3828H62.4297V70.5234ZM100.281 82.8984H96.1562V90H89.0781V82.8984H74.4531V77.8594L89.4766 55.7344H96.1562V77.2734H100.281V82.8984ZM89.0781 77.2734V71.4609C89.0781 70.9141 89.0859 70.2656 89.1016 69.5156C89.1328 68.7656 89.1641 68.0156 89.1953 67.2656C89.2266 66.5156 89.2578 65.8516 89.2891 65.2734C89.3359 64.6797 89.3672 64.2656 89.3828 64.0312H89.1953C88.8984 64.6719 88.5859 65.2969 88.2578 65.9062C87.9297 66.5 87.5469 67.125 87.1094 67.7812L80.8281 77.2734H89.0781ZM126.789 72.8672C126.789 75.6328 126.57 78.1016 126.133 80.2734C125.711 82.4453 125.023 84.2891 124.07 85.8047C123.133 87.3203 121.898 88.4766 120.367 89.2734C118.836 90.0703 116.977 90.4688 114.789 90.4688C112.039 90.4688 109.781 89.7734 108.016 88.3828C106.25 86.9766 104.945 84.9609 104.102 82.3359C103.258 79.6953 102.836 76.5391 102.836 72.8672C102.836 69.1641 103.219 66 103.984 63.375C104.766 60.7344 106.031 58.7109 107.781 57.3047C109.531 55.8984 111.867 55.1953 114.789 55.1953C117.523 55.1953 119.773 55.8984 121.539 57.3047C123.32 58.6953 124.641 60.7109 125.5 63.3516C126.359 65.9766 126.789 69.1484 126.789 72.8672ZM110.031 72.8672C110.031 75.4766 110.172 77.6562 110.453 79.4062C110.75 81.1406 111.242 82.4453 111.93 83.3203C112.617 84.1953 113.57 84.6328 114.789 84.6328C115.992 84.6328 116.938 84.2031 117.625 83.3438C118.328 82.4688 118.828 81.1641 119.125 79.4297C119.422 77.6797 119.57 75.4922 119.57 72.8672C119.57 70.2578 119.422 68.0781 119.125 66.3281C118.828 64.5781 118.328 63.2656 117.625 62.3906C116.938 61.5 115.992 61.0547 114.789 61.0547C113.57 61.0547 112.617 61.5 111.93 62.3906C111.242 63.2656 110.75 64.5781 110.453 66.3281C110.172 68.0781 110.031 70.2578 110.031 72.8672ZM138.133 55.2422C140.82 55.2422 142.859 56.1797 144.25 58.0547C145.641 59.9297 146.336 62.5625 146.336 65.9531C146.336 69.3438 145.68 71.9922 144.367 73.8984C143.055 75.8047 140.977 76.7578 138.133 76.7578C135.492 76.7578 133.484 75.8047 132.109 73.8984C130.734 71.9922 130.047 69.3438 130.047 65.9531C130.047 62.5625 130.688 59.9297 131.969 58.0547C133.266 56.1797 135.32 55.2422 138.133 55.2422ZM138.18 60.1406C137.414 60.1406 136.852 60.625 136.492 61.5938C136.133 62.5625 135.953 64.0312 135.953 66C135.953 67.9688 136.133 69.4453 136.492 70.4297C136.852 71.4141 137.414 71.9062 138.18 71.9062C138.945 71.9062 139.508 71.4219 139.867 70.4531C140.242 69.4688 140.43 67.9844 140.43 66C140.43 64.0312 140.242 62.5625 139.867 61.5938C139.508 60.625 138.945 60.1406 138.18 60.1406ZM162.461 55.7344L143.453 90H137.828L156.836 55.7344H162.461ZM162.133 68.9297C164.82 68.9297 166.859 69.8672 168.25 71.7422C169.641 73.6172 170.336 76.25 170.336 79.6406C170.336 83.0156 169.68 85.6562 168.367 87.5625C167.055 89.4688 164.977 90.4219 162.133 90.4219C159.492 90.4219 157.484 89.4688 156.109 87.5625C154.734 85.6562 154.047 83.0156 154.047 79.6406C154.047 76.25 154.688 73.6172 155.969 71.7422C157.266 69.8672 159.32 68.9297 162.133 68.9297ZM162.18 73.8281C161.414 73.8281 160.852 74.3125 160.492 75.2812C160.133 76.25 159.953 77.7188 159.953 79.6875C159.953 81.6562 160.133 83.1328 160.492 84.1172C160.852 85.1016 161.414 85.5938 162.18 85.5938C162.945 85.5938 163.508 85.1094 163.867 84.1406C164.242 83.1562 164.43 81.6719 164.43 79.6875C164.43 77.7188 164.242 76.25 163.867 75.2812C163.508 74.3125 162.945 73.8281 162.18 73.8281Z" fill="#D3413F"></path> <path d="M51.124 115.367H52.7324L48.5752 120.017L53.0664 125H51.3525L46.9756 120.113V125H45.5078V115.367H46.9756V120.043L51.124 115.367ZM63.3408 125.176C62.4736 125.176 61.709 124.997 61.0469 124.64C60.3848 124.282 59.8691 123.737 59.5 123.005C59.1309 122.272 58.9463 121.35 58.9463 120.236C58.9463 119.07 59.1396 118.118 59.5264 117.38C59.9189 116.636 60.458 116.085 61.1436 115.728C61.8291 115.37 62.6084 115.191 63.4814 115.191C63.9619 115.191 64.4248 115.241 64.8701 115.341C65.3213 115.435 65.6904 115.555 65.9775 115.701L65.5381 116.923C65.2451 116.806 64.9053 116.7 64.5186 116.606C64.1377 116.513 63.7803 116.466 63.4463 116.466C62.7783 116.466 62.2217 116.609 61.7764 116.896C61.3369 117.184 61.0059 117.605 60.7832 118.162C60.5664 118.719 60.458 119.404 60.458 120.219C60.458 120.998 60.5635 121.663 60.7744 122.214C60.9912 122.765 61.3105 123.187 61.7324 123.479C62.1602 123.767 62.6934 123.91 63.332 123.91C63.8418 123.91 64.3018 123.857 64.7119 123.752C65.1221 123.641 65.4941 123.512 65.8281 123.365V124.666C65.5059 124.83 65.1455 124.956 64.7471 125.044C64.3545 125.132 63.8857 125.176 63.3408 125.176ZM74.6787 116.606H71.5059V125H70.0645V116.606H66.9355V115.367H74.6787V116.606ZM84.8916 120.166C84.8916 120.957 84.7891 121.663 84.584 122.284C84.3789 122.905 84.083 123.43 83.6963 123.857C83.3096 124.285 82.8408 124.613 82.29 124.842C81.7451 125.064 81.127 125.176 80.4355 125.176C79.791 125.176 79.1992 125.064 78.6602 124.842C78.127 124.613 77.6641 124.285 77.2715 123.857C76.8848 123.43 76.583 122.905 76.3662 122.284C76.1553 121.663 76.0498 120.957 76.0498 120.166C76.0498 119.111 76.2285 118.215 76.5859 117.477C76.9434 116.732 77.4531 116.167 78.1152 115.78C78.7832 115.388 79.5771 115.191 80.4971 115.191C81.376 115.191 82.1436 115.388 82.7998 115.78C83.4619 116.173 83.9746 116.741 84.3379 117.485C84.707 118.224 84.8916 119.117 84.8916 120.166ZM77.5615 120.166C77.5615 120.939 77.6641 121.61 77.8691 122.179C78.0742 122.747 78.3906 123.187 78.8184 123.497C79.2461 123.808 79.7969 123.963 80.4707 123.963C81.1387 123.963 81.6865 123.808 82.1143 123.497C82.5479 123.187 82.8672 122.747 83.0723 122.179C83.2773 121.61 83.3799 120.939 83.3799 120.166C83.3799 119.398 83.2773 118.736 83.0723 118.18C82.8672 117.617 82.5508 117.184 82.123 116.879C81.6953 116.574 81.1416 116.422 80.4619 116.422C79.46 116.422 78.7246 116.753 78.2559 117.415C77.793 118.077 77.5615 118.994 77.5615 120.166ZM88.8027 115.367V121.423C88.8027 121.54 88.7998 121.692 88.7939 121.88C88.7881 122.062 88.7793 122.258 88.7676 122.469C88.7559 122.674 88.7441 122.873 88.7324 123.066C88.7266 123.254 88.7178 123.409 88.7061 123.532L93.9619 115.367H95.7549V125H94.3926V119.094C94.3926 118.906 94.3955 118.666 94.4014 118.373C94.4072 118.08 94.416 117.793 94.4277 117.512C94.4395 117.225 94.4482 117.002 94.4541 116.844L89.2158 125H87.4141V115.367H88.8027ZM109.026 115.367V125H107.708V118.725C107.708 118.467 107.714 118.206 107.726 117.942C107.743 117.673 107.764 117.403 107.787 117.134H107.734L104.535 125H103.296L100.176 117.134H100.123C100.141 117.403 100.152 117.673 100.158 117.942C100.17 118.206 100.176 118.484 100.176 118.777V125H98.8486V115.367H100.809L103.92 123.242L107.075 115.367H109.026ZM120.364 120.166C120.364 120.957 120.262 121.663 120.057 122.284C119.852 122.905 119.556 123.43 119.169 123.857C118.782 124.285 118.313 124.613 117.763 124.842C117.218 125.064 116.6 125.176 115.908 125.176C115.264 125.176 114.672 125.064 114.133 124.842C113.6 124.613 113.137 124.285 112.744 123.857C112.357 123.43 112.056 122.905 111.839 122.284C111.628 121.663 111.522 120.957 111.522 120.166C111.522 119.111 111.701 118.215 112.059 117.477C112.416 116.732 112.926 116.167 113.588 115.78C114.256 115.388 115.05 115.191 115.97 115.191C116.849 115.191 117.616 115.388 118.272 115.78C118.935 116.173 119.447 116.741 119.811 117.485C120.18 118.224 120.364 119.117 120.364 120.166ZM113.034 120.166C113.034 120.939 113.137 121.61 113.342 122.179C113.547 122.747 113.863 123.187 114.291 123.497C114.719 123.808 115.27 123.963 115.943 123.963C116.611 123.963 117.159 123.808 117.587 123.497C118.021 123.187 118.34 122.747 118.545 122.179C118.75 121.61 118.853 120.939 118.853 120.166C118.853 119.398 118.75 118.736 118.545 118.18C118.34 117.617 118.023 117.184 117.596 116.879C117.168 116.574 116.614 116.422 115.935 116.422C114.933 116.422 114.197 116.753 113.729 117.415C113.266 118.077 113.034 118.994 113.034 120.166ZM126.745 125.176C125.878 125.176 125.113 124.997 124.451 124.64C123.789 124.282 123.273 123.737 122.904 123.005C122.535 122.272 122.351 121.35 122.351 120.236C122.351 119.07 122.544 118.118 122.931 117.38C123.323 116.636 123.862 116.085 124.548 115.728C125.233 115.37 126.013 115.191 126.886 115.191C127.366 115.191 127.829 115.241 128.274 115.341C128.726 115.435 129.095 115.555 129.382 115.701L128.942 116.923C128.649 116.806 128.31 116.7 127.923 116.606C127.542 116.513 127.185 116.466 126.851 116.466C126.183 116.466 125.626 116.609 125.181 116.896C124.741 117.184 124.41 117.605 124.188 118.162C123.971 118.719 123.862 119.404 123.862 120.219C123.862 120.998 123.968 121.663 124.179 122.214C124.396 122.765 124.715 123.187 125.137 123.479C125.564 123.767 126.098 123.91 126.736 123.91C127.246 123.91 127.706 123.857 128.116 123.752C128.526 123.641 128.898 123.512 129.232 123.365V124.666C128.91 124.83 128.55 124.956 128.151 125.044C127.759 125.132 127.29 125.176 126.745 125.176ZM138.083 116.606H134.91V125H133.469V116.606H130.34V115.367H138.083V116.606ZM141.379 115.367V121.423C141.379 121.54 141.376 121.692 141.37 121.88C141.364 122.062 141.355 122.258 141.344 122.469C141.332 122.674 141.32 122.873 141.309 123.066C141.303 123.254 141.294 123.409 141.282 123.532L146.538 115.367H148.331V125H146.969V119.094C146.969 118.906 146.972 118.666 146.978 118.373C146.983 118.08 146.992 117.793 147.004 117.512C147.016 117.225 147.024 117.002 147.03 116.844L141.792 125H139.99V115.367H141.379ZM166.278 115.367V125H164.96V118.725C164.96 118.467 164.966 118.206 164.978 117.942C164.995 117.673 165.016 117.403 165.039 117.134H164.986L161.787 125H160.548L157.428 117.134H157.375C157.393 117.403 157.404 117.673 157.41 117.942C157.422 118.206 157.428 118.484 157.428 118.777V125H156.101V115.367H158.061L161.172 123.242L164.327 115.367H166.278ZM173.283 117.512H168.212V116.598L170.295 114.559C170.775 114.09 171.145 113.706 171.402 113.407C171.66 113.108 171.836 112.839 171.93 112.599C172.029 112.358 172.079 112.101 172.079 111.825C172.079 111.438 171.965 111.143 171.736 110.938C171.508 110.727 171.2 110.621 170.813 110.621C170.456 110.621 170.125 110.691 169.82 110.832C169.521 110.967 169.217 111.154 168.906 111.395L168.317 110.612C168.669 110.319 169.05 110.085 169.46 109.909C169.87 109.733 170.327 109.646 170.831 109.646C171.593 109.646 172.19 109.836 172.624 110.217C173.058 110.592 173.274 111.107 173.274 111.764C173.274 112.162 173.192 112.528 173.028 112.862C172.87 113.196 172.633 113.533 172.316 113.873C172.006 114.213 171.625 114.597 171.174 115.024L169.68 116.466H173.283V117.512ZM80.4268 145.166C80.4268 145.957 80.3242 146.663 80.1191 147.284C79.9141 147.905 79.6182 148.43 79.2314 148.857C78.8447 149.285 78.376 149.613 77.8252 149.842C77.2803 150.064 76.6621 150.176 75.9707 150.176C75.3262 150.176 74.7344 150.064 74.1953 149.842C73.6621 149.613 73.1992 149.285 72.8066 148.857C72.4199 148.43 72.1182 147.905 71.9014 147.284C71.6904 146.663 71.585 145.957 71.585 145.166C71.585 144.111 71.7637 143.215 72.1211 142.477C72.4785 141.732 72.9883 141.167 73.6504 140.78C74.3184 140.388 75.1123 140.191 76.0322 140.191C76.9111 140.191 77.6787 140.388 78.335 140.78C78.9971 141.173 79.5098 141.741 79.873 142.485C80.2422 143.224 80.4268 144.117 80.4268 145.166ZM73.0967 145.166C73.0967 145.939 73.1992 146.61 73.4043 147.179C73.6094 147.747 73.9258 148.187 74.3535 148.497C74.7812 148.808 75.332 148.963 76.0059 148.963C76.6738 148.963 77.2217 148.808 77.6494 148.497C78.083 148.187 78.4023 147.747 78.6074 147.179C78.8125 146.61 78.915 145.939 78.915 145.166C78.915 144.398 78.8125 143.736 78.6074 143.18C78.4023 142.617 78.0859 142.184 77.6582 141.879C77.2305 141.574 76.6768 141.422 75.9971 141.422C74.9951 141.422 74.2598 141.753 73.791 142.415C73.3281 143.077 73.0967 143.994 73.0967 145.166ZM89.5146 141.606H86.3418V150H84.9004V141.606H81.7715V140.367H89.5146V141.606ZM104.166 140.367V150H102.698V141.624H97.5654V150H96.0977V140.367H104.166ZM114.484 150H112.999V141.589H110.072C109.955 143.106 109.806 144.407 109.624 145.491C109.448 146.569 109.226 147.451 108.956 148.137C108.692 148.816 108.37 149.317 107.989 149.64C107.614 149.956 107.166 150.114 106.645 150.114C106.486 150.114 106.337 150.105 106.196 150.088C106.056 150.07 105.936 150.041 105.836 150V148.893C105.912 148.916 105.991 148.934 106.073 148.945C106.161 148.957 106.252 148.963 106.346 148.963C106.609 148.963 106.85 148.854 107.066 148.638C107.289 148.415 107.488 148.081 107.664 147.636C107.846 147.19 108.007 146.628 108.147 145.948C108.288 145.263 108.411 144.457 108.517 143.531C108.628 142.6 108.725 141.545 108.807 140.367H114.484V150ZM121.164 140.209C122.312 140.209 123.165 140.467 123.722 140.982C124.278 141.498 124.557 142.321 124.557 143.452V150H123.493L123.212 148.576H123.142C122.872 148.928 122.591 149.224 122.298 149.464C122.005 149.698 121.665 149.877 121.278 150C120.897 150.117 120.429 150.176 119.872 150.176C119.286 150.176 118.765 150.073 118.308 149.868C117.856 149.663 117.499 149.353 117.235 148.937C116.978 148.521 116.849 147.993 116.849 147.354C116.849 146.394 117.229 145.655 117.991 145.14C118.753 144.624 119.913 144.343 121.472 144.296L123.133 144.226V143.637C123.133 142.805 122.954 142.222 122.597 141.888C122.239 141.554 121.735 141.387 121.085 141.387C120.581 141.387 120.101 141.46 119.644 141.606C119.187 141.753 118.753 141.926 118.343 142.125L117.895 141.018C118.328 140.795 118.826 140.604 119.389 140.446C119.951 140.288 120.543 140.209 121.164 140.209ZM123.115 145.254L121.647 145.315C120.446 145.362 119.6 145.559 119.107 145.904C118.615 146.25 118.369 146.739 118.369 147.372C118.369 147.923 118.536 148.33 118.87 148.594C119.204 148.857 119.646 148.989 120.197 148.989C121.053 148.989 121.753 148.752 122.298 148.277C122.843 147.803 123.115 147.091 123.115 146.142V145.254ZM129.03 140.367V144.41H134.4V140.367H135.859V150H134.4V145.649H129.03V150H127.562V140.367H129.03ZM142.557 140.209C143.705 140.209 144.558 140.467 145.114 140.982C145.671 141.498 145.949 142.321 145.949 143.452V150H144.886L144.604 148.576H144.534C144.265 148.928 143.983 149.224 143.69 149.464C143.397 149.698 143.058 149.877 142.671 150C142.29 150.117 141.821 150.176 141.265 150.176C140.679 150.176 140.157 150.073 139.7 149.868C139.249 149.663 138.892 149.353 138.628 148.937C138.37 148.521 138.241 147.993 138.241 147.354C138.241 146.394 138.622 145.655 139.384 145.14C140.146 144.624 141.306 144.343 142.864 144.296L144.525 144.226V143.637C144.525 142.805 144.347 142.222 143.989 141.888C143.632 141.554 143.128 141.387 142.478 141.387C141.974 141.387 141.493 141.46 141.036 141.606C140.579 141.753 140.146 141.926 139.735 142.125L139.287 141.018C139.721 140.795 140.219 140.604 140.781 140.446C141.344 140.288 141.936 140.209 142.557 140.209ZM144.508 145.254L143.04 145.315C141.839 145.362 140.992 145.559 140.5 145.904C140.008 146.25 139.762 146.739 139.762 147.372C139.762 147.923 139.929 148.33 140.263 148.594C140.597 148.857 141.039 148.989 141.59 148.989C142.445 148.989 143.146 148.752 143.69 148.277C144.235 147.803 144.508 147.091 144.508 146.142V145.254Z" fill="#555555"></path> </svg> 