<?xml version="1.0" encoding="UTF-8"?> <svg xmlns="http://www.w3.org/2000/svg" width="260" height="195" viewBox="0 0 260 195" fill="none"> <rect width="260" height="195" rx="16" fill="white"></rect> <path d="M57.625 70.5234H66.6953V75.6562H57.625V84.6797H52.4922V75.6562H43.4219V70.5234H52.4922V61.3828H57.625V70.5234ZM88.6562 90H81.4141V70.1719C81.4141 69.625 81.4219 68.9531 81.4375 68.1562C81.4531 67.3438 81.4766 66.5156 81.5078 65.6719C81.5391 64.8125 81.5703 64.0391 81.6016 63.3516C81.4297 63.5547 81.0781 63.9062 80.5469 64.4062C80.0312 64.8906 79.5469 65.3281 79.0938 65.7188L75.1562 68.8828L71.6641 64.5234L82.7031 55.7344H88.6562V90ZM121.984 72.8672C121.984 75.6328 121.766 78.1016 121.328 80.2734C120.906 82.4453 120.219 84.2891 119.266 85.8047C118.328 87.3203 117.094 88.4766 115.562 89.2734C114.031 90.0703 112.172 90.4688 109.984 90.4688C107.234 90.4688 104.977 89.7734 103.211 88.3828C101.445 86.9766 100.141 84.9609 99.2969 82.3359C98.4531 79.6953 98.0312 76.5391 98.0312 72.8672C98.0312 69.1641 98.4141 66 99.1797 63.375C99.9609 60.7344 101.227 58.7109 102.977 57.3047C104.727 55.8984 107.062 55.1953 109.984 55.1953C112.719 55.1953 114.969 55.8984 116.734 57.3047C118.516 58.6953 119.836 60.7109 120.695 63.3516C121.555 65.9766 121.984 69.1484 121.984 72.8672ZM105.227 72.8672C105.227 75.4766 105.367 77.6562 105.648 79.4062C105.945 81.1406 106.438 82.4453 107.125 83.3203C107.812 84.1953 108.766 84.6328 109.984 84.6328C111.188 84.6328 112.133 84.2031 112.82 83.3438C113.523 82.4688 114.023 81.1641 114.32 79.4297C114.617 77.6797 114.766 75.4922 114.766 72.8672C114.766 70.2578 114.617 68.0781 114.32 66.3281C114.023 64.5781 113.523 63.2656 112.82 62.3906C112.133 61.5 111.188 61.0547 109.984 61.0547C108.766 61.0547 107.812 61.5 107.125 62.3906C106.438 63.2656 105.945 64.5781 105.648 66.3281C105.367 68.0781 105.227 70.2578 105.227 72.8672ZM161.922 72.8672C161.922 75.6328 161.703 78.1016 161.266 80.2734C160.844 82.4453 160.156 84.2891 159.203 85.8047C158.266 87.3203 157.031 88.4766 155.5 89.2734C153.969 90.0703 152.109 90.4688 149.922 90.4688C147.172 90.4688 144.914 89.7734 143.148 88.3828C141.383 86.9766 140.078 84.9609 139.234 82.3359C138.391 79.6953 137.969 76.5391 137.969 72.8672C137.969 69.1641 138.352 66 139.117 63.375C139.898 60.7344 141.164 58.7109 142.914 57.3047C144.664 55.8984 147 55.1953 149.922 55.1953C152.656 55.1953 154.906 55.8984 156.672 57.3047C158.453 58.6953 159.773 60.7109 160.633 63.3516C161.492 65.9766 161.922 69.1484 161.922 72.8672ZM145.164 72.8672C145.164 75.4766 145.305 77.6562 145.586 79.4062C145.883 81.1406 146.375 82.4453 147.062 83.3203C147.75 84.1953 148.703 84.6328 149.922 84.6328C151.125 84.6328 152.07 84.2031 152.758 83.3438C153.461 82.4688 153.961 81.1641 154.258 79.4297C154.555 77.6797 154.703 75.4922 154.703 72.8672C154.703 70.2578 154.555 68.0781 154.258 66.3281C153.961 64.5781 153.461 63.2656 152.758 62.3906C152.07 61.5 151.125 61.0547 149.922 61.0547C148.703 61.0547 147.75 61.5 147.062 62.3906C146.375 63.2656 145.883 64.5781 145.586 66.3281C145.305 68.0781 145.164 70.2578 145.164 72.8672ZM189.391 72.8672C189.391 75.6328 189.172 78.1016 188.734 80.2734C188.312 82.4453 187.625 84.2891 186.672 85.8047C185.734 87.3203 184.5 88.4766 182.969 89.2734C181.438 90.0703 179.578 90.4688 177.391 90.4688C174.641 90.4688 172.383 89.7734 170.617 88.3828C168.852 86.9766 167.547 84.9609 166.703 82.3359C165.859 79.6953 165.438 76.5391 165.438 72.8672C165.438 69.1641 165.82 66 166.586 63.375C167.367 60.7344 168.633 58.7109 170.383 57.3047C172.133 55.8984 174.469 55.1953 177.391 55.1953C180.125 55.1953 182.375 55.8984 184.141 57.3047C185.922 58.6953 187.242 60.7109 188.102 63.3516C188.961 65.9766 189.391 69.1484 189.391 72.8672ZM172.633 72.8672C172.633 75.4766 172.773 77.6562 173.055 79.4062C173.352 81.1406 173.844 82.4453 174.531 83.3203C175.219 84.1953 176.172 84.6328 177.391 84.6328C178.594 84.6328 179.539 84.2031 180.227 83.3438C180.93 82.4688 181.43 81.1641 181.727 79.4297C182.023 77.6797 182.172 75.4922 182.172 72.8672C182.172 70.2578 182.023 68.0781 181.727 66.3281C181.43 64.5781 180.93 63.2656 180.227 62.3906C179.539 61.5 178.594 61.0547 177.391 61.0547C176.172 61.0547 175.219 61.5 174.531 62.3906C173.844 63.2656 173.352 64.5781 173.055 66.3281C172.773 68.0781 172.633 70.2578 172.633 72.8672ZM216.859 72.8672C216.859 75.6328 216.641 78.1016 216.203 80.2734C215.781 82.4453 215.094 84.2891 214.141 85.8047C213.203 87.3203 211.969 88.4766 210.438 89.2734C208.906 90.0703 207.047 90.4688 204.859 90.4688C202.109 90.4688 199.852 89.7734 198.086 88.3828C196.32 86.9766 195.016 84.9609 194.172 82.3359C193.328 79.6953 192.906 76.5391 192.906 72.8672C192.906 69.1641 193.289 66 194.055 63.375C194.836 60.7344 196.102 58.7109 197.852 57.3047C199.602 55.8984 201.938 55.1953 204.859 55.1953C207.594 55.1953 209.844 55.8984 211.609 57.3047C213.391 58.6953 214.711 60.7109 215.57 63.3516C216.43 65.9766 216.859 69.1484 216.859 72.8672ZM200.102 72.8672C200.102 75.4766 200.242 77.6562 200.523 79.4062C200.82 81.1406 201.312 82.4453 202 83.3203C202.688 84.1953 203.641 84.6328 204.859 84.6328C206.062 84.6328 207.008 84.2031 207.695 83.3438C208.398 82.4688 208.898 81.1641 209.195 79.4297C209.492 77.6797 209.641 75.4922 209.641 72.8672C209.641 70.2578 209.492 68.0781 209.195 66.3281C208.898 64.5781 208.398 63.2656 207.695 62.3906C207.008 61.5 206.062 61.0547 204.859 61.0547C203.641 61.0547 202.688 61.5 202 62.3906C201.312 63.2656 200.82 64.5781 200.523 66.3281C200.242 68.0781 200.102 70.2578 200.102 72.8672Z" fill="#D3413F"></path> <path d="M79.4453 115.191C80.166 115.191 80.79 115.291 81.3174 115.49C81.8447 115.684 82.252 115.968 82.5391 116.343C82.8262 116.718 82.9697 117.175 82.9697 117.714C82.9697 118.294 82.8115 118.757 82.4951 119.103C82.1787 119.448 81.7422 119.697 81.1855 119.85V119.92C81.5781 120.025 81.9326 120.178 82.249 120.377C82.5713 120.57 82.8262 120.828 83.0137 121.15C83.207 121.467 83.3037 121.862 83.3037 122.337C83.3037 122.876 83.1572 123.362 82.8643 123.796C82.5713 124.224 82.126 124.561 81.5283 124.807C80.9307 125.053 80.1748 125.176 79.2607 125.176C78.8096 125.176 78.3818 125.149 77.9775 125.097C77.5732 125.05 77.207 124.979 76.8789 124.886C76.5508 124.792 76.2637 124.681 76.0176 124.552V123.225C76.4277 123.424 76.9082 123.6 77.459 123.752C78.0098 123.904 78.6045 123.98 79.2432 123.98C79.7354 123.98 80.1777 123.925 80.5703 123.813C80.9629 123.696 81.2734 123.512 81.502 123.26C81.7363 123.002 81.8535 122.665 81.8535 122.249C81.8535 121.868 81.751 121.555 81.5459 121.309C81.3408 121.057 81.0332 120.872 80.623 120.755C80.2188 120.632 79.7061 120.57 79.085 120.57H77.793V119.375H78.8564C79.6826 119.375 80.3418 119.258 80.834 119.023C81.3262 118.789 81.5723 118.394 81.5723 117.837C81.5723 117.356 81.3818 116.999 81.001 116.765C80.6201 116.524 80.0752 116.404 79.3662 116.404C78.8389 116.404 78.373 116.46 77.9688 116.571C77.5645 116.677 77.1279 116.829 76.6592 117.028L76.1406 115.859C76.6445 115.637 77.1719 115.47 77.7227 115.358C78.2734 115.247 78.8477 115.191 79.4453 115.191ZM89.2715 115.209C90.4199 115.209 91.2725 115.467 91.8291 115.982C92.3857 116.498 92.6641 117.321 92.6641 118.452V125H91.6006L91.3193 123.576H91.249C90.9795 123.928 90.6982 124.224 90.4053 124.464C90.1123 124.698 89.7725 124.877 89.3857 125C89.0049 125.117 88.5361 125.176 87.9795 125.176C87.3936 125.176 86.8721 125.073 86.415 124.868C85.9639 124.663 85.6064 124.353 85.3428 123.937C85.085 123.521 84.9561 122.993 84.9561 122.354C84.9561 121.394 85.3369 120.655 86.0986 120.14C86.8604 119.624 88.0205 119.343 89.5791 119.296L91.2402 119.226V118.637C91.2402 117.805 91.0615 117.222 90.7041 116.888C90.3467 116.554 89.8428 116.387 89.1924 116.387C88.6885 116.387 88.208 116.46 87.751 116.606C87.2939 116.753 86.8604 116.926 86.4502 117.125L86.002 116.018C86.4355 115.795 86.9336 115.604 87.4961 115.446C88.0586 115.288 88.6504 115.209 89.2715 115.209ZM91.2227 120.254L89.7549 120.315C88.5537 120.362 87.707 120.559 87.2148 120.904C86.7227 121.25 86.4766 121.739 86.4766 122.372C86.4766 122.923 86.6436 123.33 86.9775 123.594C87.3115 123.857 87.7539 123.989 88.3047 123.989C89.1602 123.989 89.8604 123.752 90.4053 123.277C90.9502 122.803 91.2227 122.091 91.2227 121.142V120.254ZM110.515 115.367V125H109.196V118.725C109.196 118.467 109.202 118.206 109.214 117.942C109.231 117.673 109.252 117.403 109.275 117.134H109.223L106.023 125H104.784L101.664 117.134H101.611C101.629 117.403 101.641 117.673 101.646 117.942C101.658 118.206 101.664 118.484 101.664 118.777V125H100.337V115.367H102.297L105.408 123.242L108.563 115.367H110.515ZM117.52 117.512H112.448V116.598L114.531 114.559C115.012 114.09 115.381 113.706 115.639 113.407C115.896 113.108 116.072 112.839 116.166 112.599C116.266 112.358 116.315 112.101 116.315 111.825C116.315 111.438 116.201 111.143 115.973 110.938C115.744 110.727 115.437 110.621 115.05 110.621C114.692 110.621 114.361 110.691 114.057 110.832C113.758 110.967 113.453 111.154 113.143 111.395L112.554 110.612C112.905 110.319 113.286 110.085 113.696 109.909C114.106 109.733 114.563 109.646 115.067 109.646C115.829 109.646 116.427 109.836 116.86 110.217C117.294 110.592 117.511 111.107 117.511 111.764C117.511 112.162 117.429 112.528 117.265 112.862C117.106 113.196 116.869 113.533 116.553 113.873C116.242 114.213 115.861 114.597 115.41 115.024L113.916 116.466H117.52V117.512ZM123.663 120.816V119.516H140.222V120.816H123.663ZM151.683 115.191C152.884 115.191 153.842 115.604 154.557 116.431C155.271 117.257 155.629 118.499 155.629 120.157C155.629 121.253 155.465 122.173 155.137 122.917C154.809 123.661 154.346 124.224 153.748 124.604C153.156 124.985 152.456 125.176 151.647 125.176C151.138 125.176 150.689 125.108 150.303 124.974C149.916 124.839 149.585 124.657 149.31 124.429C149.034 124.2 148.806 123.951 148.624 123.682H148.519C148.536 123.91 148.557 124.186 148.58 124.508C148.609 124.83 148.624 125.111 148.624 125.352V129.307H147.156V115.367H148.36L148.554 116.791H148.624C148.812 116.498 149.04 116.231 149.31 115.991C149.579 115.745 149.907 115.552 150.294 115.411C150.687 115.265 151.149 115.191 151.683 115.191ZM151.428 116.422C150.76 116.422 150.221 116.551 149.811 116.809C149.406 117.066 149.11 117.453 148.923 117.969C148.735 118.479 148.636 119.12 148.624 119.894V120.175C148.624 120.989 148.712 121.678 148.888 122.24C149.069 122.803 149.365 123.23 149.775 123.523C150.191 123.816 150.748 123.963 151.445 123.963C152.043 123.963 152.541 123.802 152.939 123.479C153.338 123.157 153.634 122.709 153.827 122.135C154.026 121.555 154.126 120.89 154.126 120.14C154.126 119.003 153.903 118.101 153.458 117.433C153.019 116.759 152.342 116.422 151.428 116.422ZM166.483 120.166C166.483 120.957 166.381 121.663 166.176 122.284C165.971 122.905 165.675 123.43 165.288 123.857C164.901 124.285 164.433 124.613 163.882 124.842C163.337 125.064 162.719 125.176 162.027 125.176C161.383 125.176 160.791 125.064 160.252 124.842C159.719 124.613 159.256 124.285 158.863 123.857C158.477 123.43 158.175 122.905 157.958 122.284C157.747 121.663 157.642 120.957 157.642 120.166C157.642 119.111 157.82 118.215 158.178 117.477C158.535 116.732 159.045 116.167 159.707 115.78C160.375 115.388 161.169 115.191 162.089 115.191C162.968 115.191 163.735 115.388 164.392 115.78C165.054 116.173 165.566 116.741 165.93 117.485C166.299 118.224 166.483 119.117 166.483 120.166ZM159.153 120.166C159.153 120.939 159.256 121.61 159.461 122.179C159.666 122.747 159.982 123.187 160.41 123.497C160.838 123.808 161.389 123.963 162.062 123.963C162.73 123.963 163.278 123.808 163.706 123.497C164.14 123.187 164.459 122.747 164.664 122.179C164.869 121.61 164.972 120.939 164.972 120.166C164.972 119.398 164.869 118.736 164.664 118.18C164.459 117.617 164.143 117.184 163.715 116.879C163.287 116.574 162.733 116.422 162.054 116.422C161.052 116.422 160.316 116.753 159.848 117.415C159.385 118.077 159.153 118.994 159.153 120.166ZM172.864 125.176C171.997 125.176 171.232 124.997 170.57 124.64C169.908 124.282 169.393 123.737 169.023 123.005C168.654 122.272 168.47 121.35 168.47 120.236C168.47 119.07 168.663 118.118 169.05 117.38C169.442 116.636 169.981 116.085 170.667 115.728C171.353 115.37 172.132 115.191 173.005 115.191C173.485 115.191 173.948 115.241 174.394 115.341C174.845 115.435 175.214 115.555 175.501 115.701L175.062 116.923C174.769 116.806 174.429 116.7 174.042 116.606C173.661 116.513 173.304 116.466 172.97 116.466C172.302 116.466 171.745 116.609 171.3 116.896C170.86 117.184 170.529 117.605 170.307 118.162C170.09 118.719 169.981 119.404 169.981 120.219C169.981 120.998 170.087 121.663 170.298 122.214C170.515 122.765 170.834 123.187 171.256 123.479C171.684 123.767 172.217 123.91 172.855 123.91C173.365 123.91 173.825 123.857 174.235 123.752C174.646 123.641 175.018 123.512 175.352 123.365V124.666C175.029 124.83 174.669 124.956 174.271 125.044C173.878 125.132 173.409 125.176 172.864 125.176ZM184.202 116.606H181.029V125H179.588V116.606H176.459V115.367H184.202V116.606ZM99.6514 140.367V150H98.1836V141.624H93.0508V150H91.583V140.367H99.6514ZM107.271 140.191C108.473 140.191 109.431 140.604 110.146 141.431C110.86 142.257 111.218 143.499 111.218 145.157C111.218 146.253 111.054 147.173 110.726 147.917C110.397 148.661 109.935 149.224 109.337 149.604C108.745 149.985 108.045 150.176 107.236 150.176C106.727 150.176 106.278 150.108 105.892 149.974C105.505 149.839 105.174 149.657 104.898 149.429C104.623 149.2 104.395 148.951 104.213 148.682H104.107C104.125 148.91 104.146 149.186 104.169 149.508C104.198 149.83 104.213 150.111 104.213 150.352V154.307H102.745V140.367H103.949L104.143 141.791H104.213C104.4 141.498 104.629 141.231 104.898 140.991C105.168 140.745 105.496 140.552 105.883 140.411C106.275 140.265 106.738 140.191 107.271 140.191ZM107.017 141.422C106.349 141.422 105.81 141.551 105.399 141.809C104.995 142.066 104.699 142.453 104.512 142.969C104.324 143.479 104.225 144.12 104.213 144.894V145.175C104.213 145.989 104.301 146.678 104.477 147.24C104.658 147.803 104.954 148.23 105.364 148.523C105.78 148.816 106.337 148.963 107.034 148.963C107.632 148.963 108.13 148.802 108.528 148.479C108.927 148.157 109.223 147.709 109.416 147.135C109.615 146.555 109.715 145.89 109.715 145.14C109.715 144.003 109.492 143.101 109.047 142.433C108.607 141.759 107.931 141.422 107.017 141.422ZM115.155 140.367V146.423C115.155 146.54 115.152 146.692 115.146 146.88C115.141 147.062 115.132 147.258 115.12 147.469C115.108 147.674 115.097 147.873 115.085 148.066C115.079 148.254 115.07 148.409 115.059 148.532L120.314 140.367H122.107V150H120.745V144.094C120.745 143.906 120.748 143.666 120.754 143.373C120.76 143.08 120.769 142.793 120.78 142.512C120.792 142.225 120.801 142.002 120.807 141.844L115.568 150H113.767V140.367H115.155ZM124.709 144.217C124.709 142.846 124.841 141.677 125.104 140.71C125.368 139.737 125.775 138.958 126.326 138.372C126.883 137.78 127.598 137.376 128.471 137.159C129.221 136.954 129.982 136.778 130.756 136.632C131.529 136.479 132.282 136.348 133.015 136.236L133.27 137.52C132.9 137.572 132.514 137.634 132.109 137.704C131.705 137.769 131.301 137.839 130.896 137.915C130.492 137.985 130.111 138.062 129.754 138.144C129.396 138.22 129.08 138.299 128.805 138.381C128.307 138.516 127.876 138.75 127.513 139.084C127.155 139.418 126.871 139.878 126.66 140.464C126.455 141.05 126.332 141.788 126.291 142.679H126.396C126.572 142.421 126.812 142.166 127.117 141.914C127.422 141.662 127.785 141.454 128.207 141.29C128.629 141.12 129.104 141.035 129.631 141.035C130.463 141.035 131.157 141.217 131.714 141.58C132.271 141.938 132.689 142.441 132.971 143.092C133.252 143.742 133.393 144.504 133.393 145.377C133.393 146.426 133.211 147.308 132.848 148.022C132.49 148.737 131.986 149.276 131.336 149.64C130.686 149.997 129.921 150.176 129.042 150.176C128.362 150.176 127.753 150.044 127.214 149.78C126.681 149.517 126.227 149.13 125.852 148.62C125.482 148.11 125.198 147.486 124.999 146.748C124.806 146.01 124.709 145.166 124.709 144.217ZM129.156 148.963C129.713 148.963 130.19 148.846 130.589 148.611C130.993 148.377 131.304 148.008 131.521 147.504C131.743 146.994 131.854 146.332 131.854 145.518C131.854 144.498 131.658 143.701 131.266 143.127C130.879 142.547 130.258 142.257 129.402 142.257C128.869 142.257 128.386 142.371 127.952 142.6C127.519 142.822 127.152 143.089 126.854 143.399C126.555 143.71 126.338 143.988 126.203 144.234C126.203 144.832 126.247 145.412 126.335 145.975C126.423 146.537 126.575 147.044 126.792 147.495C127.009 147.946 127.308 148.304 127.688 148.567C128.075 148.831 128.564 148.963 129.156 148.963ZM135.915 150V140.367H137.383V144.34H140.02C140.84 144.34 141.514 144.442 142.041 144.647C142.574 144.853 142.97 145.157 143.228 145.562C143.485 145.966 143.614 146.467 143.614 147.064C143.614 147.662 143.485 148.181 143.228 148.62C142.976 149.06 142.577 149.399 142.032 149.64C141.493 149.88 140.79 150 139.923 150H135.915ZM137.383 148.813H139.782C140.509 148.813 141.089 148.685 141.522 148.427C141.956 148.169 142.173 147.738 142.173 147.135C142.173 146.543 141.971 146.133 141.566 145.904C141.162 145.67 140.582 145.553 139.826 145.553H137.383V148.813ZM145.205 150V140.367H146.664V150H145.205ZM156.974 150H155.488V141.589H152.562C152.444 143.106 152.295 144.407 152.113 145.491C151.938 146.569 151.715 147.451 151.445 148.137C151.182 148.816 150.859 149.317 150.479 149.64C150.104 149.956 149.655 150.114 149.134 150.114C148.976 150.114 148.826 150.105 148.686 150.088C148.545 150.07 148.425 150.041 148.325 150V148.893C148.401 148.916 148.48 148.934 148.562 148.945C148.65 148.957 148.741 148.963 148.835 148.963C149.099 148.963 149.339 148.854 149.556 148.638C149.778 148.415 149.978 148.081 150.153 147.636C150.335 147.19 150.496 146.628 150.637 145.948C150.777 145.263 150.9 144.457 151.006 143.531C151.117 142.6 151.214 141.545 151.296 140.367H156.974V150ZM161.438 140.367V146.423C161.438 146.54 161.436 146.692 161.43 146.88C161.424 147.062 161.415 147.258 161.403 147.469C161.392 147.674 161.38 147.873 161.368 148.066C161.362 148.254 161.354 148.409 161.342 148.532L166.598 140.367H168.391V150H167.028V144.094C167.028 143.906 167.031 143.666 167.037 143.373C167.043 143.08 167.052 142.793 167.063 142.512C167.075 142.225 167.084 142.002 167.09 141.844L161.852 150H160.05V140.367H161.438Z" fill="#555555"></path> </svg> 