<?xml version="1.0" encoding="UTF-8"?> <svg xmlns="http://www.w3.org/2000/svg" width="256" height="40" viewBox="0 0 256 40" fill="none"> <rect width="256" height="40" rx="20" fill="#F8F8F8"></rect> <path d="M96.6562 20.2402C96.6562 20.8555 96.5765 21.4046 96.417 21.8877C96.2575 22.3708 96.0273 22.7786 95.7266 23.1113C95.4258 23.444 95.0612 23.6992 94.6328 23.877C94.209 24.0501 93.7282 24.1367 93.1904 24.1367C92.6891 24.1367 92.2288 24.0501 91.8096 23.877C91.3949 23.6992 91.0348 23.444 90.7295 23.1113C90.4287 22.7786 90.194 22.3708 90.0254 21.8877C89.8613 21.4046 89.7793 20.8555 89.7793 20.2402C89.7793 19.4199 89.9183 18.7227 90.1963 18.1484C90.4743 17.5697 90.8708 17.1299 91.3857 16.8291C91.9053 16.5238 92.5228 16.3711 93.2383 16.3711C93.9219 16.3711 94.5189 16.5238 95.0293 16.8291C95.5443 17.1344 95.943 17.5765 96.2256 18.1553C96.5127 18.7295 96.6562 19.4245 96.6562 20.2402ZM90.9551 20.2402C90.9551 20.8418 91.0348 21.3636 91.1943 21.8057C91.3538 22.2477 91.5999 22.5895 91.9326 22.8311C92.2653 23.0726 92.6937 23.1934 93.2178 23.1934C93.7373 23.1934 94.1634 23.0726 94.4961 22.8311C94.8333 22.5895 95.0817 22.2477 95.2412 21.8057C95.4007 21.3636 95.4805 20.8418 95.4805 20.2402C95.4805 19.6432 95.4007 19.1283 95.2412 18.6953C95.0817 18.2578 94.8356 17.9206 94.5029 17.6836C94.1702 17.4466 93.7396 17.3281 93.2109 17.3281C92.4316 17.3281 91.8597 17.5856 91.4951 18.1006C91.1351 18.6156 90.9551 19.3288 90.9551 20.2402ZM101.619 24.1367C100.945 24.1367 100.35 23.9977 99.835 23.7197C99.32 23.4417 98.9189 23.0179 98.6318 22.4482C98.3447 21.8786 98.2012 21.1608 98.2012 20.2949C98.2012 19.388 98.3516 18.6475 98.6523 18.0732C98.9577 17.4945 99.377 17.0661 99.9102 16.7881C100.443 16.5101 101.049 16.3711 101.729 16.3711C102.102 16.3711 102.462 16.4098 102.809 16.4873C103.16 16.5602 103.447 16.6536 103.67 16.7676L103.328 17.7178C103.1 17.6266 102.836 17.5446 102.535 17.4717C102.239 17.3988 101.961 17.3623 101.701 17.3623C101.182 17.3623 100.749 17.474 100.402 17.6973C100.061 17.9206 99.8031 18.2487 99.6299 18.6816C99.4613 19.1146 99.377 19.6478 99.377 20.2812C99.377 20.8874 99.459 21.4046 99.623 21.833C99.7917 22.2614 100.04 22.5895 100.368 22.8174C100.701 23.0407 101.116 23.1523 101.612 23.1523C102.009 23.1523 102.367 23.1113 102.686 23.0293C103.005 22.9427 103.294 22.8424 103.554 22.7285V23.7402C103.303 23.8678 103.023 23.9658 102.713 24.0342C102.408 24.1025 102.043 24.1367 101.619 24.1367ZM106.473 16.5078V19.6523H110.649V16.5078H111.784V24H110.649V20.6162H106.473V24H105.331V16.5078H106.473ZM120.65 20.2402C120.65 20.8555 120.571 21.4046 120.411 21.8877C120.252 22.3708 120.021 22.7786 119.721 23.1113C119.42 23.444 119.055 23.6992 118.627 23.877C118.203 24.0501 117.722 24.1367 117.185 24.1367C116.683 24.1367 116.223 24.0501 115.804 23.877C115.389 23.6992 115.029 23.444 114.724 23.1113C114.423 22.7786 114.188 22.3708 114.02 21.8877C113.855 21.4046 113.773 20.8555 113.773 20.2402C113.773 19.4199 113.912 18.7227 114.19 18.1484C114.468 17.5697 114.865 17.1299 115.38 16.8291C115.899 16.5238 116.517 16.3711 117.232 16.3711C117.916 16.3711 118.513 16.5238 119.023 16.8291C119.538 17.1344 119.937 17.5765 120.22 18.1553C120.507 18.7295 120.65 19.4245 120.65 20.2402ZM114.949 20.2402C114.949 20.8418 115.029 21.3636 115.188 21.8057C115.348 22.2477 115.594 22.5895 115.927 22.8311C116.259 23.0726 116.688 23.1934 117.212 23.1934C117.731 23.1934 118.158 23.0726 118.49 22.8311C118.827 22.5895 119.076 22.2477 119.235 21.8057C119.395 21.3636 119.475 20.8418 119.475 20.2402C119.475 19.6432 119.395 19.1283 119.235 18.6953C119.076 18.2578 118.83 17.9206 118.497 17.6836C118.164 17.4466 117.734 17.3281 117.205 17.3281C116.426 17.3281 115.854 17.5856 115.489 18.1006C115.129 18.6156 114.949 19.3288 114.949 20.2402ZM128.566 18.3877C128.566 18.8571 128.43 19.224 128.156 19.4883C127.883 19.748 127.53 19.9235 127.097 20.0146V20.0693C127.566 20.1331 127.969 20.3018 128.307 20.5752C128.648 20.8441 128.819 21.2565 128.819 21.8125C128.819 22.2409 128.717 22.6191 128.512 22.9473C128.307 23.2754 127.985 23.5329 127.548 23.7197C127.11 23.9066 126.541 24 125.839 24H122.612V16.5078H125.812C126.349 16.5078 126.823 16.5693 127.233 16.6924C127.648 16.8109 127.974 17.0068 128.211 17.2803C128.448 17.5537 128.566 17.9229 128.566 18.3877ZM127.637 21.8125C127.637 21.3704 127.468 21.0514 127.131 20.8555C126.798 20.6595 126.313 20.5615 125.675 20.5615H123.754V23.0771H125.702C126.331 23.0771 126.81 22.9814 127.138 22.79C127.47 22.5941 127.637 22.2682 127.637 21.8125ZM127.411 18.5176C127.411 18.1621 127.281 17.8978 127.021 17.7246C126.762 17.5469 126.336 17.458 125.743 17.458H123.754V19.6113H125.545C126.16 19.6113 126.625 19.5225 126.939 19.3447C127.254 19.167 127.411 18.8913 127.411 18.5176ZM133.454 16.3848C134.347 16.3848 135.01 16.5853 135.443 16.9863C135.876 17.3874 136.093 18.0277 136.093 18.9072V24H135.266L135.047 22.8926H134.992C134.783 23.166 134.564 23.3962 134.336 23.583C134.108 23.7653 133.844 23.9043 133.543 24C133.247 24.0911 132.882 24.1367 132.449 24.1367C131.993 24.1367 131.588 24.057 131.232 23.8975C130.882 23.738 130.604 23.4964 130.398 23.1729C130.198 22.8493 130.098 22.4391 130.098 21.9424C130.098 21.195 130.394 20.6208 130.986 20.2197C131.579 19.8187 132.481 19.5999 133.693 19.5635L134.985 19.5088V19.0508C134.985 18.4036 134.846 17.9502 134.568 17.6904C134.29 17.4307 133.898 17.3008 133.393 17.3008C133.001 17.3008 132.627 17.3577 132.271 17.4717C131.916 17.5856 131.579 17.7201 131.26 17.875L130.911 17.0137C131.248 16.8405 131.636 16.6924 132.073 16.5693C132.511 16.4463 132.971 16.3848 133.454 16.3848ZM134.972 20.3086L133.83 20.3564C132.896 20.3929 132.237 20.5456 131.854 20.8145C131.472 21.0833 131.28 21.4639 131.28 21.9561C131.28 22.3844 131.41 22.7012 131.67 22.9062C131.93 23.1113 132.274 23.2139 132.702 23.2139C133.368 23.2139 133.912 23.0293 134.336 22.6602C134.76 22.291 134.972 21.7373 134.972 20.999V20.3086ZM143.537 17.4717H141.069V24H139.948V17.4717H137.515V16.5078H143.537V17.4717ZM147.905 16.3711C148.543 16.3711 149.09 16.5124 149.546 16.7949C150.002 17.0775 150.35 17.474 150.592 17.9844C150.833 18.4902 150.954 19.0827 150.954 19.7617V20.4658H145.779C145.793 21.3454 146.012 22.0153 146.436 22.4756C146.859 22.9359 147.456 23.166 148.227 23.166C148.701 23.166 149.12 23.1227 149.484 23.0361C149.849 22.9495 150.227 22.8219 150.619 22.6533V23.6514C150.241 23.82 149.865 23.943 149.491 24.0205C149.122 24.098 148.685 24.1367 148.179 24.1367C147.459 24.1367 146.83 23.9909 146.292 23.6992C145.759 23.403 145.344 22.9701 145.048 22.4004C144.752 21.8307 144.604 21.1335 144.604 20.3086C144.604 19.502 144.738 18.8047 145.007 18.2168C145.28 17.6243 145.663 17.1686 146.155 16.8496C146.652 16.5306 147.235 16.3711 147.905 16.3711ZM147.892 17.3008C147.285 17.3008 146.802 17.499 146.442 17.8955C146.082 18.292 145.868 18.8457 145.8 19.5566H149.765C149.76 19.11 149.689 18.7181 149.553 18.3809C149.421 18.0391 149.218 17.7747 148.944 17.5879C148.671 17.3965 148.32 17.3008 147.892 17.3008ZM158.501 24H157.346V17.458H155.069C154.978 18.6383 154.862 19.6501 154.721 20.4932C154.584 21.3317 154.411 22.0176 154.201 22.5508C153.996 23.0794 153.745 23.4691 153.449 23.7197C153.158 23.9658 152.809 24.0889 152.403 24.0889C152.28 24.0889 152.164 24.082 152.055 24.0684C151.945 24.0547 151.852 24.0319 151.774 24V23.1387C151.834 23.1569 151.895 23.1706 151.959 23.1797C152.027 23.1888 152.098 23.1934 152.171 23.1934C152.376 23.1934 152.563 23.109 152.731 22.9404C152.905 22.7673 153.06 22.5075 153.196 22.1611C153.338 21.8148 153.463 21.3773 153.572 20.8486C153.682 20.3154 153.777 19.6888 153.859 18.9688C153.946 18.2441 154.021 17.4238 154.085 16.5078H158.501V24ZM162.035 19.5977H164.332C164.97 19.5977 165.501 19.6774 165.925 19.8369C166.349 19.9964 166.665 20.2334 166.875 20.5479C167.089 20.8623 167.196 21.252 167.196 21.7168C167.196 22.1816 167.091 22.585 166.882 22.9268C166.677 23.2686 166.358 23.5329 165.925 23.7197C165.496 23.9066 164.943 24 164.264 24H160.894V16.5078H162.035V19.5977ZM166.055 21.7715C166.055 21.3112 165.891 20.9922 165.562 20.8145C165.239 20.6322 164.785 20.541 164.202 20.541H162.035V23.0771H164.209C164.756 23.0771 165.2 22.9769 165.542 22.7764C165.884 22.5713 166.055 22.2363 166.055 21.7715ZM175.591 16.3848C176.484 16.3848 177.147 16.5853 177.58 16.9863C178.013 17.3874 178.229 18.0277 178.229 18.9072V24H177.402L177.184 22.8926H177.129C176.919 23.166 176.701 23.3962 176.473 23.583C176.245 23.7653 175.98 23.9043 175.68 24C175.383 24.0911 175.019 24.1367 174.586 24.1367C174.13 24.1367 173.725 24.057 173.369 23.8975C173.018 23.738 172.74 23.4964 172.535 23.1729C172.335 22.8493 172.234 22.4391 172.234 21.9424C172.234 21.195 172.531 20.6208 173.123 20.2197C173.715 19.8187 174.618 19.5999 175.83 19.5635L177.122 19.5088V19.0508C177.122 18.4036 176.983 17.9502 176.705 17.6904C176.427 17.4307 176.035 17.3008 175.529 17.3008C175.137 17.3008 174.764 17.3577 174.408 17.4717C174.053 17.5856 173.715 17.7201 173.396 17.875L173.048 17.0137C173.385 16.8405 173.772 16.6924 174.21 16.5693C174.647 16.4463 175.108 16.3848 175.591 16.3848ZM177.108 20.3086L175.967 20.3564C175.033 20.3929 174.374 20.5456 173.991 20.8145C173.608 21.0833 173.417 21.4639 173.417 21.9561C173.417 22.3844 173.547 22.7012 173.807 22.9062C174.066 23.1113 174.41 23.2139 174.839 23.2139C175.504 23.2139 176.049 23.0293 176.473 22.6602C176.896 22.291 177.108 21.7373 177.108 20.999V20.3086ZM185.113 16.5078V17.4717H181.709V24H180.567V16.5078H185.113ZM189.495 16.3711C190.133 16.3711 190.68 16.5124 191.136 16.7949C191.591 17.0775 191.94 17.474 192.182 17.9844C192.423 18.4902 192.544 19.0827 192.544 19.7617V20.4658H187.369C187.383 21.3454 187.602 22.0153 188.025 22.4756C188.449 22.9359 189.046 23.166 189.816 23.166C190.29 23.166 190.71 23.1227 191.074 23.0361C191.439 22.9495 191.817 22.8219 192.209 22.6533V23.6514C191.831 23.82 191.455 23.943 191.081 24.0205C190.712 24.098 190.274 24.1367 189.769 24.1367C189.049 24.1367 188.42 23.9909 187.882 23.6992C187.349 23.403 186.934 22.9701 186.638 22.4004C186.341 21.8307 186.193 21.1335 186.193 20.3086C186.193 19.502 186.328 18.8047 186.597 18.2168C186.87 17.6243 187.253 17.1686 187.745 16.8496C188.242 16.5306 188.825 16.3711 189.495 16.3711ZM189.481 17.3008C188.875 17.3008 188.392 17.499 188.032 17.8955C187.672 18.292 187.458 18.8457 187.39 19.5566H191.354C191.35 19.11 191.279 18.7181 191.143 18.3809C191.01 18.0391 190.808 17.7747 190.534 17.5879C190.261 17.3965 189.91 17.3008 189.481 17.3008ZM195.613 16.5078V19.6523H199.79V16.5078H200.925V24H199.79V20.6162H195.613V24H194.472V16.5078H195.613ZM208.438 17.4717H205.97V24H204.849V17.4717H202.415V16.5078H208.438V17.4717ZM212.922 24.1367C212.247 24.1367 211.653 23.9977 211.138 23.7197C210.623 23.4417 210.222 23.0179 209.935 22.4482C209.647 21.8786 209.504 21.1608 209.504 20.2949C209.504 19.388 209.654 18.6475 209.955 18.0732C210.26 17.4945 210.68 17.0661 211.213 16.7881C211.746 16.5101 212.352 16.3711 213.031 16.3711C213.405 16.3711 213.765 16.4098 214.111 16.4873C214.462 16.5602 214.749 16.6536 214.973 16.7676L214.631 17.7178C214.403 17.6266 214.139 17.5446 213.838 17.4717C213.542 17.3988 213.264 17.3623 213.004 17.3623C212.484 17.3623 212.051 17.474 211.705 17.6973C211.363 17.9206 211.106 18.2487 210.933 18.6816C210.764 19.1146 210.68 19.6478 210.68 20.2812C210.68 20.8874 210.762 21.4046 210.926 21.833C211.094 22.2614 211.343 22.5895 211.671 22.8174C212.004 23.0407 212.418 23.1523 212.915 23.1523C213.312 23.1523 213.669 23.1113 213.988 23.0293C214.307 22.9427 214.597 22.8424 214.856 22.7285V23.7402C214.606 23.8678 214.326 23.9658 214.016 24.0342C213.71 24.1025 213.346 24.1367 212.922 24.1367ZM221.74 17.4717H219.272V24H218.151V17.4717H215.718V16.5078H221.74V17.4717ZM229.178 18.3877C229.178 18.8571 229.041 19.224 228.768 19.4883C228.494 19.748 228.141 19.9235 227.708 20.0146V20.0693C228.177 20.1331 228.581 20.3018 228.918 20.5752C229.26 20.8441 229.431 21.2565 229.431 21.8125C229.431 22.2409 229.328 22.6191 229.123 22.9473C228.918 23.2754 228.597 23.5329 228.159 23.7197C227.722 23.9066 227.152 24 226.45 24H223.224V16.5078H226.423C226.961 16.5078 227.435 16.5693 227.845 16.6924C228.259 16.8109 228.585 17.0068 228.822 17.2803C229.059 17.5537 229.178 17.9229 229.178 18.3877ZM228.248 21.8125C228.248 21.3704 228.079 21.0514 227.742 20.8555C227.41 20.6595 226.924 20.5615 226.286 20.5615H224.365V23.0771H226.313C226.942 23.0771 227.421 22.9814 227.749 22.79C228.082 22.5941 228.248 22.2682 228.248 21.8125ZM228.022 18.5176C228.022 18.1621 227.893 17.8978 227.633 17.7246C227.373 17.5469 226.947 17.458 226.354 17.458H224.365V19.6113H226.156C226.771 19.6113 227.236 19.5225 227.551 19.3447C227.865 19.167 228.022 18.8913 228.022 18.5176ZM234.065 16.3848C234.959 16.3848 235.622 16.5853 236.055 16.9863C236.488 17.3874 236.704 18.0277 236.704 18.9072V24H235.877L235.658 22.8926H235.604C235.394 23.166 235.175 23.3962 234.947 23.583C234.719 23.7653 234.455 23.9043 234.154 24C233.858 24.0911 233.493 24.1367 233.061 24.1367C232.605 24.1367 232.199 24.057 231.844 23.8975C231.493 23.738 231.215 23.4964 231.01 23.1729C230.809 22.8493 230.709 22.4391 230.709 21.9424C230.709 21.195 231.005 20.6208 231.598 20.2197C232.19 19.8187 233.092 19.5999 234.305 19.5635L235.597 19.5088V19.0508C235.597 18.4036 235.458 17.9502 235.18 17.6904C234.902 17.4307 234.51 17.3008 234.004 17.3008C233.612 17.3008 233.238 17.3577 232.883 17.4717C232.527 17.5856 232.19 17.7201 231.871 17.875L231.522 17.0137C231.86 16.8405 232.247 16.6924 232.685 16.5693C233.122 16.4463 233.582 16.3848 234.065 16.3848ZM235.583 20.3086L234.441 20.3564C233.507 20.3929 232.849 20.5456 232.466 20.8145C232.083 21.0833 231.892 21.4639 231.892 21.9561C231.892 22.3844 232.021 22.7012 232.281 22.9062C232.541 23.1113 232.885 23.2139 233.313 23.2139C233.979 23.2139 234.523 23.0293 234.947 22.6602C235.371 22.291 235.583 21.7373 235.583 20.999V20.3086Z" fill="#555555"></path> <path d="M24.3342 24H18L18.7875 18.7927L24.1288 16L28.7853 20.7127L28.8196 20.9164L24.1288 16.4945V17.0182L28.8196 21.12L28.8538 21.3236L24.163 17.5127V18.0945L28.888 21.5273L28.9223 21.7309L24.1973 18.5891V19.1127L28.9908 21.9345L29.025 22.1382L24.2315 19.6364V20.1309L29.0592 22.3418L29.0935 22.5455L24.2658 20.6545V21.1782L29.162 22.7782L29.1962 22.9818L24.3 21.7018V22.2836L29.2304 23.2145L29.2647 23.4182L24.3 22.7782V23.3018L29.2989 23.5927L29.3332 23.8836L24.3342 24ZM53.9511 20.3345V21.5273C53.2663 21.8182 52.8554 22.1091 52.3761 22.1091C51.8625 22.1091 51.3832 21.9345 51.3832 21.4691C51.3832 20.7127 52.2391 20.3055 53.9511 20.3345ZM50.1848 18.4436C50.8696 18.0364 51.931 17.7164 52.6842 17.7164C53.7457 17.7164 53.9853 18.0073 53.9853 18.8509C51.0065 18.9091 48.8495 19.5782 48.8495 21.6436C48.8495 22.7491 49.637 23.7964 51.794 23.7964C52.9924 23.7964 53.8484 23.5055 54.6701 22.9527C55.2179 23.7382 55.937 23.7964 56.3821 23.7964C56.7245 23.7964 57.0669 23.7382 57.0669 23.6509V22.0218C56.3821 22.08 56.3821 21.5855 56.3821 20.8873V18.6473C56.3821 17.8036 56.2451 16 52.9239 16C52.3418 16 50.8011 16.0582 49.1576 17.0473L50.1848 18.4436ZM31.6272 22.4C32.7228 23.36 33.7158 23.7964 35.2223 23.7964C37.4136 23.7964 39.913 22.8073 39.913 19.7818C39.913 16.64 37.1054 16 35.2908 16C34.5375 16 33.1679 16.2327 31.9011 17.1345L33.2364 18.3855C33.7842 17.8618 34.469 17.6291 35.2223 17.6291C36.7973 17.6291 36.9342 18.7055 36.9685 19.2291L34.0924 19.0836V20.7709L36.9685 20.6255C36.9342 21.0618 36.7288 22.1673 35.188 22.1673C34.1266 22.1673 33.4076 21.6727 32.9625 21.2073L31.6272 22.4ZM42.6522 17.8909V24H45.0489V17.8909H47.4457V16.1455H40.5978V17.8909H42.6522ZM63.675 24H65.9348V20.4218C66.962 20.3636 67.1674 20.7709 67.7495 21.8473C68.263 22.7782 68.7766 23.7964 70.2832 23.7964C70.5228 23.7964 70.7283 23.7673 71.0707 23.6509V22.0218C70.3859 21.9636 70.4543 21.7309 69.9408 21.0036C69.2217 19.9273 68.8109 19.6655 68.3315 19.6073C69.0848 19.4327 69.4272 19.0255 69.6668 18.7345C70.0435 18.2691 70.3174 17.8327 70.8995 17.8327C70.9679 17.8327 70.7283 17.8327 71.0707 17.8618V16.1455C70.7283 16.0291 70.6598 16 70.2489 16C68.9136 16 68.1603 16.7564 67.3728 17.8036C66.962 18.3564 66.5853 18.8218 65.9005 18.7636V16.1455H63.5038V18.7927C62.819 18.8509 62.5793 18.3564 62.1685 17.8327C61.381 16.7564 60.662 16.0291 59.3266 16.0291C58.9158 16.0291 58.7103 16.0873 58.3679 16.1745V17.8618C58.3679 17.8327 58.6076 17.8327 58.6761 17.8327C59.2582 17.8327 59.6348 18.2691 60.0114 18.7345C60.2511 19.0255 60.5592 19.4327 61.3125 19.6073C60.8332 19.6655 60.1826 19.9564 59.4636 21.0036C58.95 21.7309 59.0527 21.9927 58.0255 22.0218V23.6509C58.3679 23.7673 58.8473 23.7964 59.087 23.7964C60.5935 23.7964 61.244 22.7782 61.7918 21.8473C62.4082 20.7709 62.1342 20.3636 63.5038 20.4218V24H63.675ZM75.5217 20.0436V16.1455H73.125V24H75.5217V22.5745L78.6033 19.84V24H81V16.1455H78.6033V17.3382L75.5217 20.0436Z" fill="#D3413F"></path> </svg> 