<?xml version="1.0" encoding="UTF-8"?> <svg xmlns="http://www.w3.org/2000/svg" width="54" height="54" viewBox="0 0 54 54" fill="none"> <path fill-rule="evenodd" clip-rule="evenodd" d="M0 27C0 41.9117 12.0883 54 27 54C41.9117 54 54 41.9117 54 27C54 12.0883 41.9117 0 27 0C12.0883 0 0 12.0883 0 27ZM43.9454 25.9666C43.9418 34.8167 36.7424 42.0179 27.8904 42.0215H27.8838C25.1967 42.0206 22.5565 41.3464 20.2115 40.0673L11.7004 42.2999L13.9781 33.9804C12.5731 31.5455 11.8338 28.7836 11.835 25.9539C11.8386 17.1018 19.0409 9.8999 27.8902 9.8999C32.1852 9.90176 36.2162 11.5738 39.2474 14.6085C42.2786 17.6431 43.9471 21.6768 43.9454 25.9666Z" fill="white"></path> <path fill-rule="evenodd" clip-rule="evenodd" d="M15.5548 38.4856L20.6053 37.1607L21.0926 37.4499C23.1414 38.6657 25.49 39.309 27.8845 39.31H27.8899C35.2449 39.31 41.2311 33.3236 41.2341 25.9656C41.2355 22.3999 39.8488 19.0473 37.3293 16.5249C34.8099 14.0026 31.4594 12.6128 27.8952 12.6116C20.5345 12.6116 14.5482 18.5973 14.5453 25.9548C14.5443 28.4762 15.2498 30.9318 16.5855 33.0564L16.9028 33.5613L15.5548 38.4856ZM35.4291 29.4236C35.7089 29.5589 35.8978 29.6502 35.9785 29.7848C36.0787 29.9521 36.0787 30.7553 35.7446 31.6925C35.4102 32.6296 33.8076 33.4848 33.0367 33.5999C32.3456 33.7033 31.471 33.7464 30.5101 33.441C29.9274 33.2561 29.1802 33.0093 28.2231 32.5959C24.4623 30.972 21.9208 27.327 21.4404 26.6381C21.4068 26.5898 21.3832 26.5561 21.3701 26.5386L21.3669 26.5342C21.1546 26.251 19.7321 24.353 19.7321 22.3887C19.7321 20.5408 20.6398 19.5723 21.0576 19.1265C21.0862 19.0959 21.1125 19.0678 21.1361 19.0421C21.5038 18.6404 21.9384 18.54 22.2059 18.54C22.4733 18.54 22.741 18.5425 22.9747 18.5543C23.0036 18.5557 23.0336 18.5555 23.0646 18.5553C23.2984 18.554 23.5898 18.5523 23.8773 19.2429C23.9879 19.5087 24.1498 19.9027 24.3205 20.3182C24.6657 21.1586 25.0471 22.0872 25.1142 22.2215C25.2145 22.4224 25.2813 22.6565 25.1476 22.9244C25.1275 22.9646 25.109 23.0025 25.0912 23.0387C24.9908 23.2437 24.9169 23.3945 24.7465 23.5936C24.6794 23.6718 24.6102 23.7562 24.5409 23.8406C24.4029 24.0086 24.2649 24.1767 24.1447 24.2964C23.9439 24.4964 23.7348 24.7135 23.9688 25.1151C24.2028 25.5167 25.0079 26.8303 26.2005 27.8941C27.4825 29.0376 28.5967 29.5209 29.1614 29.7658C29.2717 29.8137 29.3611 29.8524 29.4266 29.8852C29.8276 30.0861 30.0616 30.0525 30.2957 29.7848C30.5297 29.5171 31.2985 28.6134 31.5659 28.2119C31.8333 27.8104 32.1008 27.8773 32.4684 28.0111C32.8362 28.1451 34.8085 29.1155 35.2097 29.3162C35.288 29.3554 35.3612 29.3908 35.4291 29.4236Z" fill="white"></path> </svg> 