<?xml version="1.0" encoding="UTF-8"?> <svg xmlns="http://www.w3.org/2000/svg" width="178" height="83" viewBox="0 0 178 83" fill="none"> <path d="M16.2656 17L18.3779 7.00586H23.4639L23.252 8.03125H19.3145L17.4141 17H16.2656ZM25.8291 17.1094C25.2549 17.1094 24.7604 16.9932 24.3457 16.7607C23.931 16.5238 23.612 16.1911 23.3887 15.7627C23.1699 15.3298 23.0605 14.8193 23.0605 14.2314C23.0605 13.7575 23.113 13.2904 23.2178 12.8301C23.3226 12.3652 23.4775 11.9277 23.6826 11.5176C23.8877 11.1029 24.1406 10.7383 24.4414 10.4238C24.7467 10.1048 25.0977 9.85645 25.4941 9.67871C25.8906 9.49642 26.3327 9.40527 26.8203 9.40527C27.4036 9.40527 27.9004 9.52376 28.3105 9.76074C28.7253 9.99316 29.042 10.3258 29.2607 10.7588C29.484 11.1917 29.5957 11.7044 29.5957 12.2969C29.5957 12.7617 29.5433 13.2243 29.4385 13.6846C29.3382 14.1449 29.1855 14.5824 28.9805 14.9971C28.7799 15.4072 28.527 15.7718 28.2217 16.0908C27.9209 16.4053 27.57 16.6536 27.1689 16.8359C26.7725 17.0182 26.3258 17.1094 25.8291 17.1094ZM25.8975 16.166C26.18 16.166 26.4489 16.1068 26.7041 15.9883C26.9593 15.8698 27.1917 15.6989 27.4014 15.4756C27.611 15.2477 27.791 14.972 27.9414 14.6484C28.0964 14.3203 28.2148 13.9489 28.2969 13.5342C28.3835 13.1195 28.4268 12.6637 28.4268 12.167C28.4268 11.8708 28.3743 11.5837 28.2695 11.3057C28.1647 11.0277 27.9961 10.7998 27.7637 10.6221C27.5312 10.4398 27.2214 10.3486 26.834 10.3486C26.515 10.3486 26.2188 10.4147 25.9453 10.5469C25.6764 10.679 25.4349 10.8659 25.2207 11.1074C25.0065 11.349 24.8242 11.6338 24.6738 11.9619C24.528 12.29 24.4141 12.6501 24.332 13.042C24.2546 13.4339 24.2158 13.8464 24.2158 14.2793C24.2158 14.8763 24.3617 15.3411 24.6533 15.6738C24.945 16.002 25.3597 16.166 25.8975 16.166ZM30.6621 17L32.2549 9.50781H33.1846L33.0068 10.957H33.0752C33.2393 10.7201 33.4375 10.4808 33.6699 10.2393C33.9023 9.99316 34.1712 9.78809 34.4766 9.62402C34.7865 9.4554 35.1374 9.37109 35.5293 9.37109C36.0579 9.37109 36.459 9.52376 36.7324 9.8291C37.0059 10.1344 37.1654 10.5514 37.2109 11.0801H37.2588C37.4411 10.8021 37.6598 10.5332 37.915 10.2734C38.1702 10.0091 38.4596 9.79264 38.7832 9.62402C39.1113 9.4554 39.4714 9.37109 39.8633 9.37109C40.4421 9.37109 40.8887 9.52832 41.2031 9.84277C41.5176 10.1572 41.6748 10.613 41.6748 11.21C41.6748 11.4242 41.6611 11.627 41.6338 11.8184C41.611 12.0098 41.5745 12.2057 41.5244 12.4062L40.5537 17H39.4053L40.417 12.2832C40.458 12.0781 40.4876 11.9004 40.5059 11.75C40.5286 11.5996 40.54 11.4561 40.54 11.3193C40.54 11.014 40.458 10.7725 40.2939 10.5947C40.1299 10.417 39.877 10.3281 39.5352 10.3281C39.2936 10.3281 39.043 10.3942 38.7832 10.5264C38.5234 10.6585 38.2705 10.859 38.0244 11.1279C37.7829 11.3923 37.5641 11.7272 37.3682 12.1328C37.1722 12.5384 37.015 13.0146 36.8965 13.5615L36.165 17H35.0303L36.0283 12.3037C36.0693 12.0941 36.099 11.9141 36.1172 11.7637C36.14 11.6087 36.1514 11.4766 36.1514 11.3672C36.1514 11.0436 36.0762 10.7907 35.9258 10.6084C35.7754 10.4215 35.5293 10.3281 35.1875 10.3281C34.946 10.3281 34.693 10.3919 34.4287 10.5195C34.1689 10.6471 33.916 10.8477 33.6699 11.1211C33.4238 11.3945 33.1982 11.7432 32.9932 12.167C32.7881 12.5908 32.624 13.1012 32.501 13.6982L31.8037 17H30.6621ZM45.9268 17.1094C45.3525 17.1094 44.8581 16.9932 44.4434 16.7607C44.0286 16.5238 43.7096 16.1911 43.4863 15.7627C43.2676 15.3298 43.1582 14.8193 43.1582 14.2314C43.1582 13.7575 43.2106 13.2904 43.3154 12.8301C43.4202 12.3652 43.5752 11.9277 43.7803 11.5176C43.9854 11.1029 44.2383 10.7383 44.5391 10.4238C44.8444 10.1048 45.1953 9.85645 45.5918 9.67871C45.9883 9.49642 46.4303 9.40527 46.918 9.40527C47.5013 9.40527 47.998 9.52376 48.4082 9.76074C48.8229 9.99316 49.1396 10.3258 49.3584 10.7588C49.5817 11.1917 49.6934 11.7044 49.6934 12.2969C49.6934 12.7617 49.641 13.2243 49.5361 13.6846C49.4359 14.1449 49.2832 14.5824 49.0781 14.9971C48.8776 15.4072 48.6247 15.7718 48.3193 16.0908C48.0186 16.4053 47.6676 16.6536 47.2666 16.8359C46.8701 17.0182 46.4235 17.1094 45.9268 17.1094ZM45.9951 16.166C46.2777 16.166 46.5465 16.1068 46.8018 15.9883C47.057 15.8698 47.2894 15.6989 47.499 15.4756C47.7087 15.2477 47.8887 14.972 48.0391 14.6484C48.194 14.3203 48.3125 13.9489 48.3945 13.5342C48.4811 13.1195 48.5244 12.6637 48.5244 12.167C48.5244 11.8708 48.472 11.5837 48.3672 11.3057C48.2624 11.0277 48.0938 10.7998 47.8613 10.6221C47.6289 10.4398 47.319 10.3486 46.9316 10.3486C46.6126 10.3486 46.3164 10.4147 46.043 10.5469C45.7741 10.679 45.5326 10.8659 45.3184 11.1074C45.1042 11.349 44.9219 11.6338 44.7715 11.9619C44.6257 12.29 44.5117 12.6501 44.4297 13.042C44.3522 13.4339 44.3135 13.8464 44.3135 14.2793C44.3135 14.8763 44.4593 15.3411 44.751 15.6738C45.0426 16.002 45.4574 16.166 45.9951 16.166ZM53.9658 17.1367C53.2913 17.1367 52.7399 17.0114 52.3115 16.7607C51.8831 16.5055 51.5664 16.1478 51.3613 15.6875C51.1562 15.2272 51.0537 14.6872 51.0537 14.0674C51.0537 13.5387 51.1107 13.0397 51.2246 12.5703C51.3385 12.1009 51.5049 11.6725 51.7236 11.2852C51.9469 10.8932 52.2181 10.556 52.5371 10.2734C52.8607 9.99089 53.2275 9.77214 53.6377 9.61719C54.0524 9.46224 54.5081 9.38477 55.0049 9.38477C55.529 9.38477 55.9733 9.45768 56.3379 9.60352C56.7025 9.74479 56.9782 9.95443 57.165 10.2324C57.3564 10.5059 57.4521 10.8454 57.4521 11.251C57.4521 11.6156 57.3701 11.93 57.2061 12.1943C57.042 12.4541 56.8141 12.6683 56.5225 12.8369C56.2354 13.001 55.9027 13.1217 55.5244 13.1992V13.2266C55.9528 13.3268 56.2992 13.4977 56.5635 13.7393C56.8324 13.9762 56.9668 14.3385 56.9668 14.8262C56.9668 15.1725 56.8711 15.5257 56.6797 15.8857C56.4883 16.2412 56.1738 16.5397 55.7363 16.7812C55.2988 17.0182 54.7087 17.1367 53.9658 17.1367ZM54.0479 16.207C54.4671 16.207 54.8112 16.1432 55.0801 16.0156C55.349 15.8835 55.5472 15.7103 55.6748 15.4961C55.8024 15.2819 55.8662 15.054 55.8662 14.8125C55.8662 14.571 55.8024 14.3704 55.6748 14.2109C55.5472 14.0469 55.349 13.9238 55.0801 13.8418C54.8112 13.7598 54.4603 13.7188 54.0273 13.7188H52.2158C52.2158 13.7643 52.2135 13.8213 52.209 13.8896C52.209 13.958 52.209 14.0286 52.209 14.1016C52.209 14.8307 52.373 15.3639 52.7012 15.7012C53.0293 16.0384 53.4782 16.207 54.0479 16.207ZM52.3457 12.7891H53.8291C54.2666 12.7891 54.6722 12.7458 55.0459 12.6592C55.4242 12.5726 55.7295 12.4268 55.9619 12.2217C56.1943 12.012 56.3105 11.7272 56.3105 11.3672C56.3105 11.0801 56.2103 10.8363 56.0098 10.6357C55.8138 10.4307 55.4811 10.3281 55.0117 10.3281C54.5605 10.3281 54.1549 10.4261 53.7949 10.6221C53.4349 10.818 53.1318 11.1006 52.8857 11.4697C52.6396 11.8343 52.4596 12.2741 52.3457 12.7891ZM60.5898 17.1367C60.1842 17.1367 59.8288 17.0387 59.5234 16.8428C59.2181 16.6468 58.9811 16.3574 58.8125 15.9746C58.6439 15.5918 58.5596 15.1247 58.5596 14.5732C58.5596 14.0218 58.6165 13.4909 58.7305 12.9805C58.849 12.4701 59.0153 11.9961 59.2295 11.5586C59.4437 11.1211 59.7012 10.7383 60.002 10.4102C60.3073 10.082 60.6491 9.82682 61.0273 9.64453C61.4056 9.46224 61.8135 9.37109 62.251 9.37109C62.5882 9.37109 62.8799 9.4349 63.126 9.5625C63.3766 9.6901 63.584 9.85872 63.748 10.0684C63.9167 10.2734 64.0488 10.4922 64.1445 10.7246H64.2129L64.6504 9.50781H65.5186L63.9326 17H63.0234L63.2285 15.5508H63.1738C62.9688 15.8242 62.734 16.0817 62.4697 16.3232C62.2054 16.5648 61.916 16.7607 61.6016 16.9111C61.2871 17.0615 60.9499 17.1367 60.5898 17.1367ZM60.959 16.1934C61.3099 16.1934 61.6562 16.0658 61.998 15.8105C62.3444 15.5508 62.6543 15.2021 62.9277 14.7646C63.2057 14.3226 63.4176 13.8258 63.5635 13.2744C63.6364 13.0055 63.6842 12.7594 63.707 12.5361C63.7344 12.3083 63.748 12.0964 63.748 11.9004C63.748 11.431 63.6227 11.0527 63.3721 10.7656C63.126 10.474 62.7887 10.3281 62.3604 10.3281C62.055 10.3281 61.7679 10.4056 61.499 10.5605C61.2301 10.7109 60.9863 10.9229 60.7676 11.1963C60.5534 11.4652 60.3688 11.7796 60.2139 12.1396C60.0589 12.4951 59.9382 12.8825 59.8516 13.3018C59.7695 13.721 59.7285 14.1517 59.7285 14.5938C59.7285 15.1178 59.8356 15.5166 60.0498 15.79C60.264 16.0589 60.5671 16.1934 60.959 16.1934ZM66.0312 17.0752C65.9173 17.0752 65.8148 17.0661 65.7236 17.0479C65.6279 17.0342 65.5505 17.0182 65.4912 17V16.0908C65.5413 16.1045 65.596 16.1159 65.6553 16.125C65.7145 16.1296 65.7738 16.1318 65.833 16.1318C65.9971 16.1318 66.1383 16.0977 66.2568 16.0293C66.3799 15.9564 66.4984 15.8356 66.6123 15.667C66.7262 15.4984 66.8538 15.266 66.9951 14.9697C67.0954 14.7555 67.2048 14.5596 67.3232 14.3818C67.4417 14.1995 67.5807 14.04 67.7402 13.9033C67.9043 13.7666 68.098 13.6595 68.3213 13.582C68.0068 13.4954 67.7516 13.3678 67.5557 13.1992C67.3597 13.026 67.2139 12.8255 67.1182 12.5977C67.027 12.3652 66.9814 12.1191 66.9814 11.8594C66.9814 11.5085 67.0452 11.1895 67.1729 10.9023C67.305 10.6152 67.4941 10.3669 67.7402 10.1572C67.9909 9.94759 68.2985 9.78809 68.6631 9.67871C69.0277 9.56478 69.4424 9.50781 69.9072 9.50781H72.7236L71.1445 17H70.0166L70.666 13.999H69.7363C69.4173 13.999 69.1598 14.0492 68.9639 14.1494C68.7679 14.2451 68.5993 14.3932 68.458 14.5938C68.3213 14.7897 68.1777 15.0404 68.0273 15.3457C67.8542 15.7057 67.6833 16.0156 67.5146 16.2754C67.346 16.5352 67.1478 16.7334 66.9199 16.8701C66.6921 17.0068 66.3958 17.0752 66.0312 17.0752ZM69.6133 13.0215H70.8643L71.4043 10.4854H69.7363C69.4036 10.4854 69.1143 10.5378 68.8682 10.6426C68.6266 10.7474 68.4398 10.9023 68.3076 11.1074C68.1755 11.3125 68.1094 11.5632 68.1094 11.8594C68.1094 12.2923 68.2529 12.5954 68.54 12.7686C68.8271 12.9372 69.1849 13.0215 69.6133 13.0215ZM80.2773 17.1367C79.7214 17.1367 79.2337 17.0319 78.8145 16.8223C78.3997 16.6081 78.0762 16.2936 77.8438 15.8789C77.6159 15.4642 77.502 14.9492 77.502 14.334C77.502 13.8008 77.5589 13.2881 77.6729 12.7959C77.7913 12.3037 77.9622 11.8503 78.1855 11.4355C78.4089 11.0208 78.68 10.6585 78.999 10.3486C79.318 10.0387 79.6803 9.79948 80.0859 9.63086C80.4961 9.45768 80.9427 9.37109 81.4258 9.37109C81.7493 9.37109 82.0706 9.40299 82.3896 9.4668C82.7132 9.52604 83.0049 9.61263 83.2646 9.72656L82.9434 10.6836C82.752 10.5924 82.5264 10.5104 82.2666 10.4375C82.0068 10.3646 81.7288 10.3281 81.4326 10.3281C81.0179 10.3281 80.6396 10.4329 80.2979 10.6426C79.9606 10.8522 79.6689 11.1439 79.4229 11.5176C79.1813 11.8867 78.9945 12.3105 78.8623 12.7891C78.7301 13.2676 78.6641 13.778 78.6641 14.3203C78.6641 14.7077 78.7324 15.0426 78.8691 15.3252C79.0059 15.6032 79.2018 15.8174 79.457 15.9678C79.7168 16.1182 80.0267 16.1934 80.3867 16.1934C80.7194 16.1934 81.0316 16.1478 81.3232 16.0566C81.6195 15.9655 81.9089 15.8561 82.1914 15.7285V16.6992C81.9408 16.8268 81.6536 16.9316 81.3301 17.0137C81.0111 17.0957 80.6602 17.1367 80.2773 17.1367ZM86.6143 17.1094C86.04 17.1094 85.5456 16.9932 85.1309 16.7607C84.7161 16.5238 84.3971 16.1911 84.1738 15.7627C83.9551 15.3298 83.8457 14.8193 83.8457 14.2314C83.8457 13.7575 83.8981 13.2904 84.0029 12.8301C84.1077 12.3652 84.2627 11.9277 84.4678 11.5176C84.6729 11.1029 84.9258 10.7383 85.2266 10.4238C85.5319 10.1048 85.8828 9.85645 86.2793 9.67871C86.6758 9.49642 87.1178 9.40527 87.6055 9.40527C88.1888 9.40527 88.6855 9.52376 89.0957 9.76074C89.5104 9.99316 89.8271 10.3258 90.0459 10.7588C90.2692 11.1917 90.3809 11.7044 90.3809 12.2969C90.3809 12.7617 90.3285 13.2243 90.2236 13.6846C90.1234 14.1449 89.9707 14.5824 89.7656 14.9971C89.5651 15.4072 89.3122 15.7718 89.0068 16.0908C88.7061 16.4053 88.3551 16.6536 87.9541 16.8359C87.5576 17.0182 87.111 17.1094 86.6143 17.1094ZM86.6826 16.166C86.9652 16.166 87.234 16.1068 87.4893 15.9883C87.7445 15.8698 87.9769 15.6989 88.1865 15.4756C88.3962 15.2477 88.5762 14.972 88.7266 14.6484C88.8815 14.3203 89 13.9489 89.082 13.5342C89.1686 13.1195 89.2119 12.6637 89.2119 12.167C89.2119 11.8708 89.1595 11.5837 89.0547 11.3057C88.9499 11.0277 88.7812 10.7998 88.5488 10.6221C88.3164 10.4398 88.0065 10.3486 87.6191 10.3486C87.3001 10.3486 87.0039 10.4147 86.7305 10.5469C86.4616 10.679 86.2201 10.8659 86.0059 11.1074C85.7917 11.349 85.6094 11.6338 85.459 11.9619C85.3132 12.29 85.1992 12.6501 85.1172 13.042C85.0397 13.4339 85.001 13.8464 85.001 14.2793C85.001 14.8763 85.1468 15.3411 85.4385 15.6738C85.7301 16.002 86.1449 16.166 86.6826 16.166ZM94.6533 17.1367C93.9788 17.1367 93.4274 17.0114 92.999 16.7607C92.5706 16.5055 92.2539 16.1478 92.0488 15.6875C91.8438 15.2272 91.7412 14.6872 91.7412 14.0674C91.7412 13.5387 91.7982 13.0397 91.9121 12.5703C92.026 12.1009 92.1924 11.6725 92.4111 11.2852C92.6344 10.8932 92.9056 10.556 93.2246 10.2734C93.5482 9.99089 93.915 9.77214 94.3252 9.61719C94.7399 9.46224 95.1956 9.38477 95.6924 9.38477C96.2165 9.38477 96.6608 9.45768 97.0254 9.60352C97.39 9.74479 97.6657 9.95443 97.8525 10.2324C98.0439 10.5059 98.1396 10.8454 98.1396 11.251C98.1396 11.6156 98.0576 11.93 97.8936 12.1943C97.7295 12.4541 97.5016 12.6683 97.21 12.8369C96.9229 13.001 96.5902 13.1217 96.2119 13.1992V13.2266C96.6403 13.3268 96.9867 13.4977 97.251 13.7393C97.5199 13.9762 97.6543 14.3385 97.6543 14.8262C97.6543 15.1725 97.5586 15.5257 97.3672 15.8857C97.1758 16.2412 96.8613 16.5397 96.4238 16.7812C95.9863 17.0182 95.3962 17.1367 94.6533 17.1367ZM94.7354 16.207C95.1546 16.207 95.4987 16.1432 95.7676 16.0156C96.0365 15.8835 96.2347 15.7103 96.3623 15.4961C96.4899 15.2819 96.5537 15.054 96.5537 14.8125C96.5537 14.571 96.4899 14.3704 96.3623 14.2109C96.2347 14.0469 96.0365 13.9238 95.7676 13.8418C95.4987 13.7598 95.1478 13.7188 94.7148 13.7188H92.9033C92.9033 13.7643 92.901 13.8213 92.8965 13.8896C92.8965 13.958 92.8965 14.0286 92.8965 14.1016C92.8965 14.8307 93.0605 15.3639 93.3887 15.7012C93.7168 16.0384 94.1657 16.207 94.7354 16.207ZM93.0332 12.7891H94.5166C94.9541 12.7891 95.3597 12.7458 95.7334 12.6592C96.1117 12.5726 96.417 12.4268 96.6494 12.2217C96.8818 12.012 96.998 11.7272 96.998 11.3672C96.998 11.0801 96.8978 10.8363 96.6973 10.6357C96.5013 10.4307 96.1686 10.3281 95.6992 10.3281C95.248 10.3281 94.8424 10.4261 94.4824 10.6221C94.1224 10.818 93.8193 11.1006 93.5732 11.4697C93.3271 11.8343 93.1471 12.2741 93.0332 12.7891ZM98.2695 20.3496L100.56 9.50781H101.489L101.305 10.9639H101.353C101.567 10.6813 101.801 10.4215 102.057 10.1846C102.316 9.94303 102.599 9.74935 102.904 9.60352C103.214 9.45768 103.551 9.38477 103.916 9.38477C104.326 9.38477 104.684 9.48275 104.989 9.67871C105.295 9.87012 105.532 10.1572 105.7 10.54C105.873 10.9183 105.96 11.39 105.96 11.9551C105.96 12.4928 105.905 13.0169 105.796 13.5273C105.691 14.0332 105.536 14.5049 105.331 14.9424C105.126 15.3753 104.873 15.7581 104.572 16.0908C104.276 16.4189 103.937 16.6764 103.554 16.8633C103.171 17.0456 102.749 17.1367 102.289 17.1367C101.938 17.1367 101.635 17.0752 101.38 16.9521C101.129 16.8245 100.917 16.6582 100.744 16.4531C100.576 16.248 100.441 16.027 100.341 15.79H100.279C100.261 15.9587 100.231 16.1797 100.19 16.4531C100.154 16.722 100.115 16.9476 100.074 17.1299L99.3906 20.3496H98.2695ZM102.207 16.1934C102.526 16.1934 102.818 16.1136 103.082 15.9541C103.351 15.7946 103.59 15.5781 103.8 15.3047C104.014 15.0267 104.194 14.7054 104.34 14.3408C104.49 13.9762 104.604 13.5889 104.682 13.1787C104.759 12.7686 104.798 12.3516 104.798 11.9277C104.798 11.3991 104.691 11.0003 104.477 10.7314C104.267 10.4626 103.952 10.3281 103.533 10.3281C103.314 10.3281 103.093 10.3828 102.87 10.4922C102.647 10.597 102.43 10.7474 102.221 10.9434C102.011 11.1348 101.815 11.3626 101.633 11.627C101.451 11.8913 101.291 12.1829 101.154 12.502C101.022 12.821 100.917 13.1582 100.84 13.5137C100.762 13.8691 100.724 14.2337 100.724 14.6074C100.724 15.0859 100.844 15.471 101.086 15.7627C101.332 16.0498 101.706 16.1934 102.207 16.1934ZM110.062 17.1367C109.501 17.1367 109.018 17.0251 108.612 16.8018C108.207 16.5739 107.895 16.2503 107.676 15.8311C107.462 15.4072 107.354 14.9014 107.354 14.3135C107.354 13.7074 107.441 13.1126 107.614 12.5293C107.792 11.9414 108.045 11.4105 108.373 10.9365C108.701 10.458 109.095 10.0775 109.556 9.79492C110.021 9.51237 110.54 9.37109 111.114 9.37109C111.802 9.37109 112.324 9.52604 112.68 9.83594C113.035 10.1413 113.213 10.5628 113.213 11.1006C113.213 11.4788 113.124 11.8275 112.946 12.1465C112.773 12.4655 112.504 12.7435 112.14 12.9805C111.78 13.2129 111.322 13.3952 110.766 13.5273C110.214 13.6549 109.56 13.7188 108.804 13.7188H108.544C108.535 13.8008 108.526 13.8919 108.517 13.9922C108.512 14.0924 108.51 14.1859 108.51 14.2725C108.51 14.874 108.656 15.3457 108.947 15.6875C109.239 16.0247 109.676 16.1934 110.26 16.1934C110.62 16.1934 110.959 16.1432 111.278 16.043C111.602 15.9382 111.939 15.8014 112.29 15.6328V16.6104C111.953 16.7653 111.613 16.8929 111.271 16.9932C110.93 17.0889 110.526 17.1367 110.062 17.1367ZM108.708 12.7891H108.872C109.455 12.7891 109.991 12.7389 110.479 12.6387C110.966 12.5339 111.358 12.3652 111.654 12.1328C111.951 11.8958 112.099 11.5814 112.099 11.1895C112.099 10.9342 112.012 10.7246 111.839 10.5605C111.666 10.3965 111.401 10.3145 111.046 10.3145C110.731 10.3145 110.422 10.4124 110.116 10.6084C109.811 10.7998 109.533 11.0801 109.282 11.4492C109.036 11.8184 108.845 12.265 108.708 12.7891ZM114.047 17L115.626 9.52148H117.103L117.937 15.5713H117.964L121.348 9.52148H122.94L121.375 17H120.336L121.279 12.5498C121.361 12.2171 121.443 11.8844 121.525 11.5518C121.607 11.2145 121.685 10.9001 121.758 10.6084H121.73L118.135 17H117.232L116.337 10.6152H116.296C116.264 10.8704 116.216 11.1781 116.152 11.5381C116.089 11.8936 116.02 12.2399 115.947 12.5771L115.045 17H114.047ZM126.741 17.1367C126.181 17.1367 125.698 17.0251 125.292 16.8018C124.886 16.5739 124.574 16.2503 124.355 15.8311C124.141 15.4072 124.034 14.9014 124.034 14.3135C124.034 13.7074 124.121 13.1126 124.294 12.5293C124.472 11.9414 124.725 11.4105 125.053 10.9365C125.381 10.458 125.775 10.0775 126.235 9.79492C126.7 9.51237 127.22 9.37109 127.794 9.37109C128.482 9.37109 129.004 9.52604 129.359 9.83594C129.715 10.1413 129.893 10.5628 129.893 11.1006C129.893 11.4788 129.804 11.8275 129.626 12.1465C129.453 12.4655 129.184 12.7435 128.819 12.9805C128.459 13.2129 128.001 13.3952 127.445 13.5273C126.894 13.6549 126.24 13.7188 125.483 13.7188H125.224C125.215 13.8008 125.205 13.8919 125.196 13.9922C125.192 14.0924 125.189 14.1859 125.189 14.2725C125.189 14.874 125.335 15.3457 125.627 15.6875C125.919 16.0247 126.356 16.1934 126.939 16.1934C127.299 16.1934 127.639 16.1432 127.958 16.043C128.282 15.9382 128.619 15.8014 128.97 15.6328V16.6104C128.632 16.7653 128.293 16.8929 127.951 16.9932C127.609 17.0889 127.206 17.1367 126.741 17.1367ZM125.388 12.7891H125.552C126.135 12.7891 126.671 12.7389 127.158 12.6387C127.646 12.5339 128.038 12.3652 128.334 12.1328C128.63 11.8958 128.778 11.5814 128.778 11.1895C128.778 10.9342 128.692 10.7246 128.519 10.5605C128.345 10.3965 128.081 10.3145 127.726 10.3145C127.411 10.3145 127.101 10.4124 126.796 10.6084C126.491 10.7998 126.213 11.0801 125.962 11.4492C125.716 11.8184 125.524 12.265 125.388 12.7891ZM130.713 17L132.306 9.50781H133.434L132.784 12.6523H136.435L137.104 9.50781H138.239L136.667 17H135.519L136.223 13.6025H132.572L131.854 17H130.713ZM139.066 17L140.659 9.50781H141.787L141.138 12.6523H144.788L145.458 9.50781H146.593L145.021 17H143.872L144.576 13.6025H140.926L140.208 17H139.066ZM149.73 17.1367C149.325 17.1367 148.969 17.0387 148.664 16.8428C148.359 16.6468 148.122 16.3574 147.953 15.9746C147.785 15.5918 147.7 15.1247 147.7 14.5732C147.7 14.0218 147.757 13.4909 147.871 12.9805C147.99 12.4701 148.156 11.9961 148.37 11.5586C148.584 11.1211 148.842 10.7383 149.143 10.4102C149.448 10.082 149.79 9.82682 150.168 9.64453C150.546 9.46224 150.954 9.37109 151.392 9.37109C151.729 9.37109 152.021 9.4349 152.267 9.5625C152.517 9.6901 152.725 9.85872 152.889 10.0684C153.057 10.2734 153.189 10.4922 153.285 10.7246H153.354L153.791 9.50781H154.659L153.073 17H152.164L152.369 15.5508H152.314C152.109 15.8242 151.875 16.0817 151.61 16.3232C151.346 16.5648 151.057 16.7607 150.742 16.9111C150.428 17.0615 150.09 17.1367 149.73 17.1367ZM150.1 16.1934C150.451 16.1934 150.797 16.0658 151.139 15.8105C151.485 15.5508 151.795 15.2021 152.068 14.7646C152.346 14.3226 152.558 13.8258 152.704 13.2744C152.777 13.0055 152.825 12.7594 152.848 12.5361C152.875 12.3083 152.889 12.0964 152.889 11.9004C152.889 11.431 152.763 11.0527 152.513 10.7656C152.267 10.474 151.929 10.3281 151.501 10.3281C151.196 10.3281 150.909 10.4056 150.64 10.5605C150.371 10.7109 150.127 10.9229 149.908 11.1963C149.694 11.4652 149.509 11.7796 149.354 12.1396C149.2 12.4951 149.079 12.8825 148.992 13.3018C148.91 13.721 148.869 14.1517 148.869 14.5938C148.869 15.1178 148.976 15.5166 149.19 15.79C149.405 16.0589 149.708 16.1934 150.1 16.1934ZM155.172 17.0752C155.058 17.0752 154.955 17.0661 154.864 17.0479C154.769 17.0342 154.691 17.0182 154.632 17V16.0908C154.682 16.1045 154.737 16.1159 154.796 16.125C154.855 16.1296 154.914 16.1318 154.974 16.1318C155.138 16.1318 155.279 16.0977 155.397 16.0293C155.521 15.9564 155.639 15.8356 155.753 15.667C155.867 15.4984 155.994 15.266 156.136 14.9697C156.236 14.7555 156.345 14.5596 156.464 14.3818C156.582 14.1995 156.721 14.04 156.881 13.9033C157.045 13.7666 157.239 13.6595 157.462 13.582C157.147 13.4954 156.892 13.3678 156.696 13.1992C156.5 13.026 156.354 12.8255 156.259 12.5977C156.168 12.3652 156.122 12.1191 156.122 11.8594C156.122 11.5085 156.186 11.1895 156.313 10.9023C156.446 10.6152 156.635 10.3669 156.881 10.1572C157.132 9.94759 157.439 9.78809 157.804 9.67871C158.168 9.56478 158.583 9.50781 159.048 9.50781H161.864L160.285 17H159.157L159.807 13.999H158.877C158.558 13.999 158.3 14.0492 158.104 14.1494C157.909 14.2451 157.74 14.3932 157.599 14.5938C157.462 14.7897 157.318 15.0404 157.168 15.3457C156.995 15.7057 156.824 16.0156 156.655 16.2754C156.487 16.5352 156.288 16.7334 156.061 16.8701C155.833 17.0068 155.536 17.0752 155.172 17.0752ZM158.754 13.0215H160.005L160.545 10.4854H158.877C158.544 10.4854 158.255 10.5378 158.009 10.6426C157.767 10.7474 157.58 10.9023 157.448 11.1074C157.316 11.3125 157.25 11.5632 157.25 11.8594C157.25 12.2923 157.394 12.5954 157.681 12.7686C157.968 12.9372 158.326 13.0215 158.754 13.0215ZM36.124 37.1367C35.568 37.1367 35.0804 37.0319 34.6611 36.8223C34.2464 36.6081 33.9229 36.2936 33.6904 35.8789C33.4626 35.4642 33.3486 34.9492 33.3486 34.334C33.3486 33.8008 33.4056 33.2881 33.5195 32.7959C33.638 32.3037 33.8089 31.8503 34.0322 31.4355C34.2555 31.0208 34.5267 30.6585 34.8457 30.3486C35.1647 30.0387 35.527 29.7995 35.9326 29.6309C36.3428 29.4577 36.7894 29.3711 37.2725 29.3711C37.596 29.3711 37.9173 29.403 38.2363 29.4668C38.5599 29.526 38.8516 29.6126 39.1113 29.7266L38.79 30.6836C38.5986 30.5924 38.373 30.5104 38.1133 30.4375C37.8535 30.3646 37.5755 30.3281 37.2793 30.3281C36.8646 30.3281 36.4863 30.4329 36.1445 30.6426C35.8073 30.8522 35.5156 31.1439 35.2695 31.5176C35.028 31.8867 34.8411 32.3105 34.709 32.7891C34.5768 33.2676 34.5107 33.778 34.5107 34.3203C34.5107 34.7077 34.5791 35.0426 34.7158 35.3252C34.8525 35.6032 35.0485 35.8174 35.3037 35.9678C35.5635 36.1182 35.8734 36.1934 36.2334 36.1934C36.5661 36.1934 36.8783 36.1478 37.1699 36.0566C37.4661 35.9655 37.7555 35.8561 38.0381 35.7285V36.6992C37.7874 36.8268 37.5003 36.9316 37.1768 37.0137C36.8577 37.0957 36.5068 37.1367 36.124 37.1367ZM41.6543 37.1367C41.276 37.1367 40.9456 37.0661 40.6631 36.9248C40.3805 36.7835 40.1618 36.5762 40.0068 36.3027C39.8564 36.0247 39.7812 35.6852 39.7812 35.2842C39.7812 35.0837 39.7949 34.89 39.8223 34.7031C39.8542 34.5117 39.8883 34.3135 39.9248 34.1084L40.916 29.5078H42.0645L41.0459 34.2383C41.0094 34.4342 40.9798 34.6097 40.957 34.7646C40.9388 34.915 40.9297 35.0495 40.9297 35.168C40.9297 35.4915 41.0117 35.7445 41.1758 35.9268C41.3444 36.1045 41.611 36.1934 41.9756 36.1934C42.3174 36.1934 42.6751 36.0771 43.0488 35.8447C43.4271 35.6123 43.7757 35.2477 44.0947 34.751C44.4183 34.2497 44.6644 33.6003 44.833 32.8027L45.5303 29.5078H46.6514L45.0654 37H44.1289L44.3135 35.5508H44.252C44.0788 35.7878 43.8691 36.0293 43.623 36.2754C43.377 36.5169 43.0921 36.722 42.7686 36.8906C42.445 37.0547 42.0736 37.1367 41.6543 37.1367ZM50.5342 37.1367C49.9782 37.1367 49.4906 37.0319 49.0713 36.8223C48.6566 36.6081 48.333 36.2936 48.1006 35.8789C47.8727 35.4642 47.7588 34.9492 47.7588 34.334C47.7588 33.8008 47.8158 33.2881 47.9297 32.7959C48.0482 32.3037 48.2191 31.8503 48.4424 31.4355C48.6657 31.0208 48.9368 30.6585 49.2559 30.3486C49.5749 30.0387 49.9372 29.7995 50.3428 29.6309C50.7529 29.4577 51.1995 29.3711 51.6826 29.3711C52.0062 29.3711 52.3275 29.403 52.6465 29.4668C52.9701 29.526 53.2617 29.6126 53.5215 29.7266L53.2002 30.6836C53.0088 30.5924 52.7832 30.5104 52.5234 30.4375C52.2637 30.3646 51.9857 30.3281 51.6895 30.3281C51.2747 30.3281 50.8965 30.4329 50.5547 30.6426C50.2174 30.8522 49.9258 31.1439 49.6797 31.5176C49.4382 31.8867 49.2513 32.3105 49.1191 32.7891C48.987 33.2676 48.9209 33.778 48.9209 34.3203C48.9209 34.7077 48.9893 35.0426 49.126 35.3252C49.2627 35.6032 49.4587 35.8174 49.7139 35.9678C49.9736 36.1182 50.2835 36.1934 50.6436 36.1934C50.9762 36.1934 51.2884 36.1478 51.5801 36.0566C51.8763 35.9655 52.1657 35.8561 52.4482 35.7285V36.6992C52.1976 36.8268 51.9105 36.9316 51.5869 37.0137C51.2679 37.0957 50.917 37.1367 50.5342 37.1367ZM53.8154 37L55.4082 29.5078H56.3379L56.1602 30.957H56.2285C56.3926 30.7201 56.5908 30.4808 56.8232 30.2393C57.0557 29.9932 57.3245 29.7881 57.6299 29.624C57.9398 29.4554 58.2907 29.3711 58.6826 29.3711C59.2113 29.3711 59.6123 29.5238 59.8857 29.8291C60.1592 30.1344 60.3187 30.5514 60.3643 31.0801H60.4121C60.5944 30.8021 60.8132 30.5332 61.0684 30.2734C61.3236 30.0091 61.613 29.7926 61.9365 29.624C62.2646 29.4554 62.6247 29.3711 63.0166 29.3711C63.5954 29.3711 64.042 29.5283 64.3564 29.8428C64.6709 30.1572 64.8281 30.613 64.8281 31.21C64.8281 31.4242 64.8145 31.627 64.7871 31.8184C64.7643 32.0098 64.7279 32.2057 64.6777 32.4062L63.707 37H62.5586L63.5703 32.2832C63.6113 32.0781 63.641 31.9004 63.6592 31.75C63.682 31.5996 63.6934 31.4561 63.6934 31.3193C63.6934 31.014 63.6113 30.7725 63.4473 30.5947C63.2832 30.417 63.0303 30.3281 62.6885 30.3281C62.4469 30.3281 62.1963 30.3942 61.9365 30.5264C61.6768 30.6585 61.4238 30.859 61.1777 31.1279C60.9362 31.3923 60.7174 31.7272 60.5215 32.1328C60.3255 32.5384 60.1683 33.0146 60.0498 33.5615L59.3184 37H58.1836L59.1816 32.3037C59.2227 32.0941 59.2523 31.9141 59.2705 31.7637C59.2933 31.6087 59.3047 31.4766 59.3047 31.3672C59.3047 31.0436 59.2295 30.7907 59.0791 30.6084C58.9287 30.4215 58.6826 30.3281 58.3408 30.3281C58.0993 30.3281 57.8464 30.3919 57.582 30.5195C57.3223 30.6471 57.0693 30.8477 56.8232 31.1211C56.5771 31.3945 56.3516 31.7432 56.1465 32.167C55.9414 32.5908 55.7773 33.1012 55.6543 33.6982L54.957 37H53.8154ZM69.0254 37.1367C68.4648 37.1367 67.9818 37.0251 67.5762 36.8018C67.1706 36.5739 66.8584 36.2503 66.6396 35.8311C66.4255 35.4072 66.3184 34.9014 66.3184 34.3135C66.3184 33.7074 66.4049 33.1126 66.5781 32.5293C66.7559 31.9414 67.0088 31.4105 67.3369 30.9365C67.665 30.458 68.0592 30.0775 68.5195 29.7949C68.9844 29.5124 69.5039 29.3711 70.0781 29.3711C70.7663 29.3711 71.2881 29.526 71.6436 29.8359C71.999 30.1413 72.1768 30.5628 72.1768 31.1006C72.1768 31.4788 72.0879 31.8275 71.9102 32.1465C71.737 32.4655 71.4681 32.7435 71.1035 32.9805C70.7435 33.2129 70.2855 33.3952 69.7295 33.5273C69.1781 33.6549 68.5241 33.7188 67.7676 33.7188H67.5078C67.4987 33.8008 67.4896 33.8919 67.4805 33.9922C67.4759 34.0924 67.4736 34.1859 67.4736 34.2725C67.4736 34.874 67.6195 35.3457 67.9111 35.6875C68.2028 36.0247 68.6403 36.1934 69.2236 36.1934C69.5837 36.1934 69.9232 36.1432 70.2422 36.043C70.5658 35.9382 70.903 35.8014 71.2539 35.6328V36.6104C70.9167 36.7653 70.5771 36.8929 70.2354 36.9932C69.8936 37.0889 69.4902 37.1367 69.0254 37.1367ZM67.6719 32.7891H67.8359C68.4193 32.7891 68.9548 32.7389 69.4424 32.6387C69.93 32.5339 70.3219 32.3652 70.6182 32.1328C70.9144 31.8958 71.0625 31.5814 71.0625 31.1895C71.0625 30.9342 70.9759 30.7246 70.8027 30.5605C70.6296 30.3965 70.3652 30.3145 70.0098 30.3145C69.6953 30.3145 69.3854 30.4124 69.0801 30.6084C68.7747 30.7998 68.4967 31.0801 68.2461 31.4492C68 31.8184 67.8086 32.265 67.6719 32.7891ZM73.0107 37L74.5898 29.5215H76.0664L76.9004 35.5713H76.9277L80.3115 29.5215H81.9043L80.3389 37H79.2998L80.2432 32.5498C80.3252 32.2171 80.4072 31.8844 80.4893 31.5518C80.5713 31.2145 80.6488 30.9001 80.7217 30.6084H80.6943L77.0986 37H76.1963L75.3008 30.6152H75.2598C75.2279 30.8704 75.18 31.1781 75.1162 31.5381C75.0524 31.8936 74.984 32.2399 74.9111 32.5771L74.0088 37H73.0107ZM85.0146 37.1367C84.609 37.1367 84.2536 37.0387 83.9482 36.8428C83.6429 36.6468 83.4059 36.3574 83.2373 35.9746C83.0687 35.5918 82.9844 35.1247 82.9844 34.5732C82.9844 34.0218 83.0413 33.4909 83.1553 32.9805C83.2738 32.4701 83.4401 31.9961 83.6543 31.5586C83.8685 31.1211 84.126 30.7383 84.4268 30.4102C84.7321 30.082 85.0739 29.8268 85.4521 29.6445C85.8304 29.4622 86.2383 29.3711 86.6758 29.3711C87.013 29.3711 87.3047 29.4349 87.5508 29.5625C87.8014 29.6901 88.0088 29.8587 88.1729 30.0684C88.3415 30.2734 88.4736 30.4922 88.5693 30.7246H88.6377L89.0752 29.5078H89.9434L88.3574 37H87.4482L87.6533 35.5508H87.5986C87.3936 35.8242 87.1589 36.0817 86.8945 36.3232C86.6302 36.5648 86.3408 36.7607 86.0264 36.9111C85.7119 37.0615 85.3747 37.1367 85.0146 37.1367ZM85.3838 36.1934C85.7347 36.1934 86.0811 36.0658 86.4229 35.8105C86.7692 35.5508 87.0791 35.2021 87.3525 34.7646C87.6305 34.3226 87.8424 33.8258 87.9883 33.2744C88.0612 33.0055 88.109 32.7594 88.1318 32.5361C88.1592 32.3083 88.1729 32.0964 88.1729 31.9004C88.1729 31.431 88.0475 31.0527 87.7969 30.7656C87.5508 30.474 87.2135 30.3281 86.7852 30.3281C86.4798 30.3281 86.1927 30.4056 85.9238 30.5605C85.6549 30.7109 85.4111 30.9229 85.1924 31.1963C84.9782 31.4652 84.7936 31.7796 84.6387 32.1396C84.4837 32.4951 84.363 32.8825 84.2764 33.3018C84.1943 33.721 84.1533 34.1517 84.1533 34.5938C84.1533 35.1178 84.2604 35.5166 84.4746 35.79C84.6888 36.0589 84.9919 36.1934 85.3838 36.1934ZM94.209 37L95.8154 29.4736H96.8203L96.6426 30.916H96.6562C96.8294 30.679 97.0368 30.4398 97.2783 30.1982C97.5244 29.9521 97.8092 29.7471 98.1328 29.583C98.4609 29.4144 98.8324 29.3301 99.2471 29.3301C99.6481 29.3301 99.9922 29.4053 100.279 29.5557C100.566 29.7015 100.787 29.9157 100.942 30.1982C101.097 30.4762 101.175 30.8135 101.175 31.21C101.175 31.4196 101.159 31.6315 101.127 31.8457C101.095 32.0599 101.061 32.2513 101.024 32.4199L100.026 37H98.8164L99.8281 32.2695C99.8691 32.0645 99.901 31.889 99.9238 31.7432C99.9512 31.5973 99.9648 31.4606 99.9648 31.333C99.9648 31.014 99.8783 30.7725 99.7051 30.6084C99.5319 30.4443 99.2767 30.3623 98.9395 30.3623C98.6068 30.3623 98.2559 30.4762 97.8867 30.7041C97.5176 30.932 97.1758 31.292 96.8613 31.7842C96.5469 32.2718 96.3031 32.9098 96.1299 33.6982L95.4258 37H94.209ZM101.626 40.3496L103.916 29.5078H104.846L104.661 30.9639H104.709C104.923 30.6813 105.158 30.4215 105.413 30.1846C105.673 29.943 105.955 29.7493 106.261 29.6035C106.571 29.4577 106.908 29.3848 107.272 29.3848C107.683 29.3848 108.04 29.4827 108.346 29.6787C108.651 29.8701 108.888 30.1572 109.057 30.54C109.23 30.9183 109.316 31.39 109.316 31.9551C109.316 32.4928 109.262 33.0169 109.152 33.5273C109.048 34.0332 108.893 34.5049 108.688 34.9424C108.482 35.3753 108.229 35.7581 107.929 36.0908C107.632 36.4189 107.293 36.6764 106.91 36.8633C106.527 37.0456 106.106 37.1367 105.646 37.1367C105.295 37.1367 104.992 37.0752 104.736 36.9521C104.486 36.8245 104.274 36.6582 104.101 36.4531C103.932 36.248 103.798 36.027 103.697 35.79H103.636C103.618 35.9587 103.588 36.1797 103.547 36.4531C103.51 36.722 103.472 36.9476 103.431 37.1299L102.747 40.3496H101.626ZM105.563 36.1934C105.882 36.1934 106.174 36.1136 106.438 35.9541C106.707 35.7946 106.947 35.5781 107.156 35.3047C107.37 35.0267 107.55 34.7054 107.696 34.3408C107.847 33.9762 107.961 33.5889 108.038 33.1787C108.116 32.7686 108.154 32.3516 108.154 31.9277C108.154 31.3991 108.047 31.0003 107.833 30.7314C107.623 30.4626 107.309 30.3281 106.89 30.3281C106.671 30.3281 106.45 30.3828 106.227 30.4922C106.003 30.597 105.787 30.7474 105.577 30.9434C105.368 31.1348 105.172 31.3626 104.989 31.627C104.807 31.8913 104.647 32.1829 104.511 32.502C104.379 32.821 104.274 33.1582 104.196 33.5137C104.119 33.8691 104.08 34.2337 104.08 34.6074C104.08 35.0859 104.201 35.471 104.442 35.7627C104.688 36.0498 105.062 36.1934 105.563 36.1934ZM113.473 37.1094C112.898 37.1094 112.404 36.9932 111.989 36.7607C111.575 36.5238 111.256 36.1911 111.032 35.7627C110.813 35.3298 110.704 34.8193 110.704 34.2314C110.704 33.7575 110.757 33.2904 110.861 32.8301C110.966 32.3652 111.121 31.9277 111.326 31.5176C111.531 31.1029 111.784 30.7383 112.085 30.4238C112.39 30.1048 112.741 29.8564 113.138 29.6787C113.534 29.4964 113.976 29.4053 114.464 29.4053C115.047 29.4053 115.544 29.5238 115.954 29.7607C116.369 29.9932 116.686 30.3258 116.904 30.7588C117.128 31.1917 117.239 31.7044 117.239 32.2969C117.239 32.7617 117.187 33.2243 117.082 33.6846C116.982 34.1449 116.829 34.5824 116.624 34.9971C116.424 35.4072 116.171 35.7718 115.865 36.0908C115.564 36.4053 115.214 36.6536 114.812 36.8359C114.416 37.0182 113.969 37.1094 113.473 37.1094ZM113.541 36.166C113.824 36.166 114.092 36.1068 114.348 35.9883C114.603 35.8698 114.835 35.6989 115.045 35.4756C115.255 35.2477 115.435 34.972 115.585 34.6484C115.74 34.3203 115.858 33.9489 115.94 33.5342C116.027 33.1195 116.07 32.6637 116.07 32.167C116.07 31.8708 116.018 31.5837 115.913 31.3057C115.808 31.0277 115.64 30.7998 115.407 30.6221C115.175 30.4398 114.865 30.3486 114.478 30.3486C114.159 30.3486 113.862 30.4147 113.589 30.5469C113.32 30.679 113.078 30.8659 112.864 31.1074C112.65 31.349 112.468 31.6338 112.317 31.9619C112.172 32.29 112.058 32.6501 111.976 33.042C111.898 33.4339 111.859 33.8464 111.859 34.2793C111.859 34.8763 112.005 35.3411 112.297 35.6738C112.589 36.002 113.003 36.166 113.541 36.166ZM121.047 37.1367C120.509 37.1367 120.058 37.0228 119.693 36.7949C119.329 36.5671 119.053 36.248 118.866 35.8379C118.684 35.4277 118.593 34.9515 118.593 34.4092C118.593 33.9717 118.641 33.5342 118.736 33.0967C118.832 32.6546 118.976 32.2376 119.167 31.8457C119.358 31.4538 119.593 31.1051 119.871 30.7998C120.154 30.4945 120.477 30.2552 120.842 30.082C121.211 29.9043 121.623 29.8154 122.079 29.8154C122.457 29.8154 122.774 29.8747 123.029 29.9932C123.285 30.1071 123.496 30.2598 123.665 30.4512C123.834 30.6426 123.968 30.8477 124.068 31.0664H124.109C124.118 30.9889 124.123 30.9092 124.123 30.8271C124.123 30.7406 124.123 30.6631 124.123 30.5947C124.123 29.4372 123.968 28.5781 123.658 28.0176C123.348 27.4525 122.87 27.1699 122.223 27.1699C121.981 27.1699 121.728 27.1995 121.464 27.2588C121.2 27.3135 120.963 27.3887 120.753 27.4844L120.466 26.6299C120.694 26.5205 120.983 26.4248 121.334 26.3428C121.685 26.2607 122.027 26.2197 122.359 26.2197C123.034 26.2197 123.585 26.3838 124.014 26.7119C124.442 27.04 124.759 27.5254 124.964 28.168C125.169 28.806 125.271 29.5898 125.271 30.5195C125.271 30.9889 125.235 31.4766 125.162 31.9824C125.094 32.4883 124.987 32.9896 124.841 33.4863C124.695 33.9785 124.508 34.4456 124.28 34.8877C124.052 35.3252 123.781 35.7126 123.467 36.0498C123.157 36.387 122.799 36.6536 122.394 36.8496C121.993 37.041 121.544 37.1367 121.047 37.1367ZM121.163 36.1797C121.45 36.1797 121.717 36.1136 121.963 35.9814C122.209 35.8447 122.435 35.6556 122.64 35.4141C122.845 35.1725 123.029 34.8923 123.193 34.5732C123.357 34.2497 123.499 33.8988 123.617 33.5205C123.736 33.1423 123.831 32.7503 123.904 32.3447C123.818 32.0394 123.695 31.7637 123.535 31.5176C123.38 31.2715 123.191 31.0755 122.968 30.9297C122.744 30.7793 122.482 30.7041 122.182 30.7041C121.917 30.7041 121.664 30.7656 121.423 30.8887C121.181 31.0117 120.958 31.1849 120.753 31.4082C120.552 31.6315 120.377 31.8958 120.227 32.2012C120.076 32.5065 119.958 32.8438 119.871 33.2129C119.789 33.582 119.748 33.974 119.748 34.3887C119.748 34.8991 119.86 35.3252 120.083 35.667C120.306 36.0088 120.666 36.1797 121.163 36.1797ZM128.505 37.1367C128.099 37.1367 127.744 37.0387 127.438 36.8428C127.133 36.6468 126.896 36.3574 126.728 35.9746C126.559 35.5918 126.475 35.1247 126.475 34.5732C126.475 34.0218 126.532 33.4909 126.646 32.9805C126.764 32.4701 126.93 31.9961 127.145 31.5586C127.359 31.1211 127.616 30.7383 127.917 30.4102C128.222 30.082 128.564 29.8268 128.942 29.6445C129.321 29.4622 129.729 29.3711 130.166 29.3711C130.503 29.3711 130.795 29.4349 131.041 29.5625C131.292 29.6901 131.499 29.8587 131.663 30.0684C131.832 30.2734 131.964 30.4922 132.06 30.7246H132.128L132.565 29.5078H133.434L131.848 37H130.938L131.144 35.5508H131.089C130.884 35.8242 130.649 36.0817 130.385 36.3232C130.12 36.5648 129.831 36.7607 129.517 36.9111C129.202 37.0615 128.865 37.1367 128.505 37.1367ZM128.874 36.1934C129.225 36.1934 129.571 36.0658 129.913 35.8105C130.259 35.5508 130.569 35.2021 130.843 34.7646C131.121 34.3226 131.333 33.8258 131.479 33.2744C131.551 33.0055 131.599 32.7594 131.622 32.5361C131.649 32.3083 131.663 32.0964 131.663 31.9004C131.663 31.431 131.538 31.0527 131.287 30.7656C131.041 30.474 130.704 30.3281 130.275 30.3281C129.97 30.3281 129.683 30.4056 129.414 30.5605C129.145 30.7109 128.901 30.9229 128.683 31.1963C128.468 31.4652 128.284 31.7796 128.129 32.1396C127.974 32.4951 127.853 32.8825 127.767 33.3018C127.685 33.721 127.644 34.1517 127.644 34.5938C127.644 35.1178 127.751 35.5166 127.965 35.79C128.179 36.0589 128.482 36.1934 128.874 36.1934ZM134.302 37.1367C134.174 37.1367 134.037 37.1276 133.892 37.1094C133.746 37.0911 133.614 37.0661 133.495 37.0342L133.666 36.1045C133.753 36.1273 133.855 36.1478 133.974 36.166C134.092 36.1842 134.206 36.1934 134.315 36.1934C134.653 36.1934 134.956 36.1159 135.225 35.9609C135.498 35.8014 135.737 35.5872 135.942 35.3184C136.147 35.0495 136.318 34.7464 136.455 34.4092C136.596 34.0674 136.701 33.7119 136.77 33.3428C136.838 32.9736 136.872 32.6113 136.872 32.2559C136.872 31.6862 136.763 31.2236 136.544 30.8682C136.325 30.5081 135.972 30.3281 135.484 30.3281C135.348 30.3281 135.218 30.3372 135.095 30.3555C134.972 30.3691 134.846 30.3919 134.719 30.4238V29.4805C134.851 29.4577 134.997 29.4349 135.156 29.4121C135.32 29.3848 135.484 29.3711 135.648 29.3711C136.437 29.3711 137.029 29.6217 137.426 30.123C137.822 30.6243 138.021 31.3262 138.021 32.2285C138.021 32.3151 138.018 32.4062 138.014 32.502C138.009 32.5931 138.002 32.6797 137.993 32.7617H139.142L139.832 29.5078H140.878L140.181 32.7617H141.281C141.363 32.3789 141.491 31.9893 141.664 31.5928C141.842 31.1963 142.072 30.8317 142.354 30.499C142.637 30.1618 142.979 29.8906 143.38 29.6855C143.781 29.4759 144.248 29.3711 144.781 29.3711C144.936 29.3711 145.089 29.3802 145.239 29.3984C145.39 29.4121 145.542 29.4395 145.697 29.4805L145.485 30.4102C145.385 30.3828 145.271 30.3623 145.144 30.3486C145.021 30.335 144.902 30.3281 144.788 30.3281C144.451 30.3281 144.148 30.4079 143.879 30.5674C143.61 30.7223 143.375 30.9342 143.175 31.2031C142.974 31.472 142.808 31.7773 142.676 32.1191C142.544 32.4564 142.443 32.8096 142.375 33.1787C142.311 33.5433 142.279 33.901 142.279 34.252C142.279 34.8216 142.382 35.2887 142.587 35.6533C142.797 36.0133 143.15 36.1934 143.646 36.1934C143.801 36.1934 143.934 36.1842 144.043 36.166C144.157 36.1478 144.275 36.1227 144.398 36.0908V37.0342C144.289 37.0524 144.152 37.0729 143.988 37.0957C143.824 37.123 143.658 37.1367 143.489 37.1367C142.97 37.1367 142.532 37.0251 142.177 36.8018C141.826 36.5785 141.562 36.2549 141.384 35.8311C141.206 35.4027 141.117 34.8854 141.117 34.2793C141.117 34.1745 141.119 34.0697 141.124 33.9648C141.129 33.8555 141.138 33.7484 141.151 33.6436H139.996L139.292 37H138.253L138.971 33.6436H137.863C137.772 34.0719 137.631 34.4935 137.439 34.9082C137.253 35.3184 137.013 35.6921 136.722 36.0293C136.435 36.3665 136.088 36.6354 135.683 36.8359C135.282 37.0365 134.821 37.1367 134.302 37.1367Z" fill="#D3413F"></path> <path d="M62.4941 49.0767C62.5364 48.8038 62.3495 48.5483 62.0767 48.5059C61.8038 48.4636 61.5483 48.6505 61.5059 48.9233L62.4941 49.0767ZM8.64282 78.1501C8.44958 78.3474 8.45285 78.6639 8.65011 78.8572L11.8647 82.0062C12.062 82.1994 12.3786 82.1962 12.5718 81.9989C12.765 81.8016 12.7618 81.4851 12.5645 81.2918L9.70707 78.4927L12.5062 75.6353C12.6994 75.438 12.6962 75.1214 12.4989 74.9282C12.3016 74.735 11.9851 74.7382 11.7918 74.9355L8.64282 78.1501ZM61.5059 48.9233C60.0528 58.2877 47.6172 77.6019 8.99485 78L9.00515 79C47.9828 78.5981 60.9472 59.0456 62.4941 49.0767L61.5059 48.9233Z" fill="#D3413F"></path> </svg> 