<?xml version="1.0" encoding="UTF-8"?> <svg xmlns="http://www.w3.org/2000/svg" width="206" height="103" viewBox="0 0 206 103" fill="none"> <path d="M16.2041 17.1367C15.7393 17.1367 15.3177 17.0911 14.9395 17C14.5658 16.9134 14.1966 16.779 13.832 16.5967V15.4756C14.0827 15.5941 14.3311 15.7035 14.5771 15.8037C14.8232 15.8994 15.083 15.9769 15.3564 16.0361C15.6344 16.0908 15.9398 16.1182 16.2725 16.1182C17.0107 16.1182 17.6419 15.9609 18.166 15.6465C18.6947 15.332 19.1208 14.8877 19.4443 14.3135C19.7725 13.7393 20.0026 13.0648 20.1348 12.29H15.8145L16.0264 11.2646H20.2578C20.2624 11.1735 20.2669 11.0801 20.2715 10.9844C20.276 10.8841 20.2783 10.7679 20.2783 10.6357C20.2783 10.098 20.1895 9.62402 20.0117 9.21387C19.834 8.79915 19.5651 8.47559 19.2051 8.24316C18.8451 8.00618 18.3939 7.8877 17.8516 7.8877C17.4049 7.8877 17.0039 7.93327 16.6484 8.02441C16.293 8.111 15.9535 8.21126 15.6299 8.3252L15.3359 7.36816C15.6732 7.24056 16.0651 7.12435 16.5117 7.01953C16.9629 6.91471 17.4482 6.8623 17.9678 6.8623C18.6969 6.8623 19.3236 7.00814 19.8477 7.2998C20.3763 7.59147 20.7819 8.01758 21.0645 8.57812C21.3516 9.13867 21.4951 9.82227 21.4951 10.6289C21.4951 11.3034 21.4336 11.9596 21.3105 12.5977C21.1875 13.2311 20.9938 13.8236 20.7295 14.375C20.4697 14.9219 20.1325 15.4027 19.7178 15.8174C19.3031 16.2321 18.804 16.5557 18.2207 16.7881C17.6419 17.0205 16.9697 17.1367 16.2041 17.1367ZM24.5439 20.3633L25.2275 17.123C24.6761 17.0501 24.2044 16.8815 23.8125 16.6172C23.4206 16.3483 23.1198 15.9906 22.9102 15.5439C22.7051 15.0928 22.6025 14.5573 22.6025 13.9375C22.6025 13.4772 22.6595 13.0283 22.7734 12.5908C22.8874 12.1533 23.0583 11.7454 23.2861 11.3672C23.514 10.9889 23.7988 10.6562 24.1406 10.3691C24.4824 10.0775 24.8789 9.84733 25.3301 9.67871C25.7858 9.51009 26.2962 9.41667 26.8613 9.39844L27.5039 6.36328H28.5566L27.9141 9.39844C28.7298 9.50781 29.3747 9.82227 29.8486 10.3418C30.3226 10.8613 30.5596 11.5905 30.5596 12.5293C30.5596 13.0124 30.498 13.4795 30.375 13.9307C30.252 14.3773 30.0697 14.792 29.8281 15.1748C29.5911 15.5576 29.2995 15.8949 28.9531 16.1865C28.6068 16.4736 28.208 16.6992 27.7568 16.8633C27.3102 17.0228 26.8158 17.1048 26.2734 17.1094L25.5898 20.3633H24.5439ZM25.4326 16.166L26.6699 10.3418C26.1595 10.3646 25.722 10.4831 25.3574 10.6973C24.9928 10.9115 24.6921 11.1895 24.4551 11.5312C24.2227 11.8685 24.0495 12.2445 23.9355 12.6592C23.8262 13.0693 23.7715 13.4863 23.7715 13.9102C23.7715 14.3796 23.8421 14.7783 23.9834 15.1064C24.1292 15.43 24.3275 15.6807 24.5781 15.8584C24.8288 16.0316 25.1136 16.1341 25.4326 16.166ZM26.4854 16.166C26.9046 16.1478 27.2738 16.0658 27.5928 15.9199C27.9163 15.7695 28.1921 15.5736 28.4199 15.332C28.6478 15.0905 28.8346 14.8193 28.9805 14.5186C29.1263 14.2132 29.2334 13.8942 29.3018 13.5615C29.3701 13.2288 29.4043 12.9007 29.4043 12.5771C29.4043 12.1032 29.3314 11.709 29.1855 11.3945C29.0443 11.0801 28.8483 10.8385 28.5977 10.6699C28.347 10.4967 28.0576 10.3965 27.7295 10.3691L26.4854 16.166ZM33.8408 20.3633L34.5244 17.123C33.973 17.0501 33.5013 16.8815 33.1094 16.6172C32.7174 16.3483 32.4167 15.9906 32.207 15.5439C32.002 15.0928 31.8994 14.5573 31.8994 13.9375C31.8994 13.4772 31.9564 13.0283 32.0703 12.5908C32.1842 12.1533 32.3551 11.7454 32.583 11.3672C32.8109 10.9889 33.0957 10.6562 33.4375 10.3691C33.7793 10.0775 34.1758 9.84733 34.627 9.67871C35.0827 9.51009 35.5931 9.41667 36.1582 9.39844L36.8008 6.36328H37.8535L37.2109 9.39844C38.0267 9.50781 38.6715 9.82227 39.1455 10.3418C39.6195 10.8613 39.8564 11.5905 39.8564 12.5293C39.8564 13.0124 39.7949 13.4795 39.6719 13.9307C39.5488 14.3773 39.3665 14.792 39.125 15.1748C38.888 15.5576 38.5964 15.8949 38.25 16.1865C37.9036 16.4736 37.5049 16.6992 37.0537 16.8633C36.6071 17.0228 36.1126 17.1048 35.5703 17.1094L34.8867 20.3633H33.8408ZM34.7295 16.166L35.9668 10.3418C35.4564 10.3646 35.0189 10.4831 34.6543 10.6973C34.2897 10.9115 33.9889 11.1895 33.752 11.5312C33.5195 11.8685 33.3464 12.2445 33.2324 12.6592C33.123 13.0693 33.0684 13.4863 33.0684 13.9102C33.0684 14.3796 33.139 14.7783 33.2803 15.1064C33.4261 15.43 33.6243 15.6807 33.875 15.8584C34.1257 16.0316 34.4105 16.1341 34.7295 16.166ZM35.7822 16.166C36.2015 16.1478 36.5706 16.0658 36.8896 15.9199C37.2132 15.7695 37.4889 15.5736 37.7168 15.332C37.9447 15.0905 38.1315 14.8193 38.2773 14.5186C38.4232 14.2132 38.5303 13.8942 38.5986 13.5615C38.667 13.2288 38.7012 12.9007 38.7012 12.5771C38.7012 12.1032 38.6283 11.709 38.4824 11.3945C38.3411 11.0801 38.1452 10.8385 37.8945 10.6699C37.6439 10.4967 37.3545 10.3965 37.0264 10.3691L35.7822 16.166ZM43.917 17.1367C43.3564 17.1367 42.8734 17.0251 42.4678 16.8018C42.0622 16.5739 41.75 16.2503 41.5312 15.8311C41.3171 15.4072 41.21 14.9014 41.21 14.3135C41.21 13.7074 41.2965 13.1126 41.4697 12.5293C41.6475 11.9414 41.9004 11.4105 42.2285 10.9365C42.5566 10.458 42.9508 10.0775 43.4111 9.79492C43.876 9.51237 44.3955 9.37109 44.9697 9.37109C45.6579 9.37109 46.1797 9.52604 46.5352 9.83594C46.8906 10.1413 47.0684 10.5628 47.0684 11.1006C47.0684 11.4788 46.9795 11.8275 46.8018 12.1465C46.6286 12.4655 46.3597 12.7435 45.9951 12.9805C45.6351 13.2129 45.1771 13.3952 44.6211 13.5273C44.0697 13.6549 43.4157 13.7188 42.6592 13.7188H42.3994C42.3903 13.8008 42.3812 13.8919 42.3721 13.9922C42.3675 14.0924 42.3652 14.1859 42.3652 14.2725C42.3652 14.874 42.5111 15.3457 42.8027 15.6875C43.0944 16.0247 43.5319 16.1934 44.1152 16.1934C44.4753 16.1934 44.8148 16.1432 45.1338 16.043C45.4574 15.9382 45.7946 15.8014 46.1455 15.6328V16.6104C45.8083 16.7653 45.4688 16.8929 45.127 16.9932C44.7852 17.0889 44.3818 17.1367 43.917 17.1367ZM42.5635 12.7891H42.7275C43.3109 12.7891 43.8464 12.7389 44.334 12.6387C44.8216 12.5339 45.2135 12.3652 45.5098 12.1328C45.806 11.8958 45.9541 11.5814 45.9541 11.1895C45.9541 10.9342 45.8675 10.7246 45.6943 10.5605C45.5212 10.3965 45.2568 10.3145 44.9014 10.3145C44.5869 10.3145 44.277 10.4124 43.9717 10.6084C43.6663 10.7998 43.3883 11.0801 43.1377 11.4492C42.8916 11.8184 42.7002 12.265 42.5635 12.7891ZM47.8887 17L49.4746 9.50781H50.5957L49.8232 13.1172L53.4121 9.50781H54.8477L51.0605 13.2061L53.6172 17H52.2568L49.8096 13.2607L49.0303 17H47.8887ZM54.6016 17L56.1943 9.50781H57.124L56.9463 10.957H57.0146C57.1787 10.7201 57.377 10.4808 57.6094 10.2393C57.8418 9.99316 58.1107 9.78809 58.416 9.62402C58.7259 9.4554 59.0768 9.37109 59.4688 9.37109C59.9974 9.37109 60.3984 9.52376 60.6719 9.8291C60.9453 10.1344 61.1048 10.5514 61.1504 11.0801H61.1982C61.3805 10.8021 61.5993 10.5332 61.8545 10.2734C62.1097 10.0091 62.3991 9.79264 62.7227 9.62402C63.0508 9.4554 63.4108 9.37109 63.8027 9.37109C64.3815 9.37109 64.8281 9.52832 65.1426 9.84277C65.457 10.1572 65.6143 10.613 65.6143 11.21C65.6143 11.4242 65.6006 11.627 65.5732 11.8184C65.5505 12.0098 65.514 12.2057 65.4639 12.4062L64.4932 17H63.3447L64.3564 12.2832C64.3975 12.0781 64.4271 11.9004 64.4453 11.75C64.4681 11.5996 64.4795 11.4561 64.4795 11.3193C64.4795 11.014 64.3975 10.7725 64.2334 10.5947C64.0693 10.417 63.8164 10.3281 63.4746 10.3281C63.2331 10.3281 62.9824 10.3942 62.7227 10.5264C62.4629 10.6585 62.21 10.859 61.9639 11.1279C61.7223 11.3923 61.5036 11.7272 61.3076 12.1328C61.1117 12.5384 60.9544 13.0146 60.8359 13.5615L60.1045 17H58.9697L59.9678 12.3037C60.0088 12.0941 60.0384 11.9141 60.0566 11.7637C60.0794 11.6087 60.0908 11.4766 60.0908 11.3672C60.0908 11.0436 60.0156 10.7907 59.8652 10.6084C59.7148 10.4215 59.4688 10.3281 59.127 10.3281C58.8854 10.3281 58.6325 10.3919 58.3682 10.5195C58.1084 10.6471 57.8555 10.8477 57.6094 11.1211C57.3633 11.3945 57.1377 11.7432 56.9326 12.167C56.7275 12.5908 56.5635 13.1012 56.4404 13.6982L55.7432 17H54.6016ZM69.0596 17.1367C68.6813 17.1367 68.3509 17.0661 68.0684 16.9248C67.7858 16.7835 67.5671 16.5762 67.4121 16.3027C67.2617 16.0247 67.1865 15.6852 67.1865 15.2842C67.1865 15.0837 67.2002 14.89 67.2275 14.7031C67.2594 14.5117 67.2936 14.3135 67.3301 14.1084L68.3213 9.50781H69.4697L68.4512 14.2383C68.4147 14.4342 68.3851 14.6097 68.3623 14.7646C68.3441 14.915 68.335 15.0495 68.335 15.168C68.335 15.4915 68.417 15.7445 68.5811 15.9268C68.7497 16.1045 69.0163 16.1934 69.3809 16.1934C69.7227 16.1934 70.0804 16.0771 70.4541 15.8447C70.8324 15.6123 71.181 15.2477 71.5 14.751C71.8236 14.2497 72.0697 13.6003 72.2383 12.8027L72.9355 9.50781H74.0566L72.4707 17H71.5342L71.7188 15.5508H71.6572C71.484 15.7878 71.2744 16.0293 71.0283 16.2754C70.7822 16.5169 70.4974 16.722 70.1738 16.8906C69.8503 17.0547 69.4788 17.1367 69.0596 17.1367ZM78.083 17.1367C77.4085 17.1367 76.8571 17.0114 76.4287 16.7607C76.0003 16.5055 75.6836 16.1478 75.4785 15.6875C75.2734 15.2272 75.1709 14.6872 75.1709 14.0674C75.1709 13.5387 75.2279 13.0397 75.3418 12.5703C75.4557 12.1009 75.6221 11.6725 75.8408 11.2852C76.0641 10.8932 76.3353 10.556 76.6543 10.2734C76.9779 9.99089 77.3447 9.77214 77.7549 9.61719C78.1696 9.46224 78.6253 9.38477 79.1221 9.38477C79.6462 9.38477 80.0905 9.45768 80.4551 9.60352C80.8197 9.74479 81.0954 9.95443 81.2822 10.2324C81.4736 10.5059 81.5693 10.8454 81.5693 11.251C81.5693 11.6156 81.4873 11.93 81.3232 12.1943C81.1592 12.4541 80.9313 12.6683 80.6396 12.8369C80.3525 13.001 80.0199 13.1217 79.6416 13.1992V13.2266C80.07 13.3268 80.4163 13.4977 80.6807 13.7393C80.9495 13.9762 81.084 14.3385 81.084 14.8262C81.084 15.1725 80.9883 15.5257 80.7969 15.8857C80.6055 16.2412 80.291 16.5397 79.8535 16.7812C79.416 17.0182 78.8258 17.1367 78.083 17.1367ZM78.165 16.207C78.5843 16.207 78.9284 16.1432 79.1973 16.0156C79.4661 15.8835 79.6644 15.7103 79.792 15.4961C79.9196 15.2819 79.9834 15.054 79.9834 14.8125C79.9834 14.571 79.9196 14.3704 79.792 14.2109C79.6644 14.0469 79.4661 13.9238 79.1973 13.8418C78.9284 13.7598 78.5775 13.7188 78.1445 13.7188H76.333C76.333 13.7643 76.3307 13.8213 76.3262 13.8896C76.3262 13.958 76.3262 14.0286 76.3262 14.1016C76.3262 14.8307 76.4902 15.3639 76.8184 15.7012C77.1465 16.0384 77.5954 16.207 78.165 16.207ZM76.4629 12.7891H77.9463C78.3838 12.7891 78.7894 12.7458 79.1631 12.6592C79.5413 12.5726 79.8467 12.4268 80.0791 12.2217C80.3115 12.012 80.4277 11.7272 80.4277 11.3672C80.4277 11.0801 80.3275 10.8363 80.127 10.6357C79.931 10.4307 79.5983 10.3281 79.1289 10.3281C78.6777 10.3281 78.2721 10.4261 77.9121 10.6221C77.5521 10.818 77.249 11.1006 77.0029 11.4697C76.7568 11.8343 76.5768 12.2741 76.4629 12.7891ZM82.3965 17L83.9893 9.50781H85.1172L84.4678 12.6523H88.1182L88.7881 9.50781H89.9229L88.3506 17H87.2021L87.9062 13.6025H84.2559L83.5381 17H82.3965ZM93.8057 17.1094C93.2314 17.1094 92.737 16.9932 92.3223 16.7607C91.9076 16.5238 91.5885 16.1911 91.3652 15.7627C91.1465 15.3298 91.0371 14.8193 91.0371 14.2314C91.0371 13.7575 91.0895 13.2904 91.1943 12.8301C91.2992 12.3652 91.4541 11.9277 91.6592 11.5176C91.8643 11.1029 92.1172 10.7383 92.418 10.4238C92.7233 10.1048 93.0742 9.85645 93.4707 9.67871C93.8672 9.49642 94.3092 9.40527 94.7969 9.40527C95.3802 9.40527 95.877 9.52376 96.2871 9.76074C96.7018 9.99316 97.0186 10.3258 97.2373 10.7588C97.4606 11.1917 97.5723 11.7044 97.5723 12.2969C97.5723 12.7617 97.5199 13.2243 97.415 13.6846C97.3148 14.1449 97.1621 14.5824 96.957 14.9971C96.7565 15.4072 96.5036 15.7718 96.1982 16.0908C95.8975 16.4053 95.5465 16.6536 95.1455 16.8359C94.749 17.0182 94.3024 17.1094 93.8057 17.1094ZM93.874 16.166C94.1566 16.166 94.4255 16.1068 94.6807 15.9883C94.9359 15.8698 95.1683 15.6989 95.3779 15.4756C95.5876 15.2477 95.7676 14.972 95.918 14.6484C96.0729 14.3203 96.1914 13.9489 96.2734 13.5342C96.36 13.1195 96.4033 12.6637 96.4033 12.167C96.4033 11.8708 96.3509 11.5837 96.2461 11.3057C96.1413 11.0277 95.9727 10.7998 95.7402 10.6221C95.5078 10.4398 95.1979 10.3486 94.8105 10.3486C94.4915 10.3486 94.1953 10.4147 93.9219 10.5469C93.653 10.679 93.4115 10.8659 93.1973 11.1074C92.9831 11.349 92.8008 11.6338 92.6504 11.9619C92.5046 12.29 92.3906 12.6501 92.3086 13.042C92.2311 13.4339 92.1924 13.8464 92.1924 14.2793C92.1924 14.8763 92.3382 15.3411 92.6299 15.6738C92.9215 16.002 93.3363 16.166 93.874 16.166ZM101.578 20.3496L103.868 9.50781H104.798L104.613 10.9639H104.661C104.875 10.6813 105.11 10.4215 105.365 10.1846C105.625 9.94303 105.908 9.74935 106.213 9.60352C106.523 9.45768 106.86 9.38477 107.225 9.38477C107.635 9.38477 107.993 9.48275 108.298 9.67871C108.603 9.87012 108.84 10.1572 109.009 10.54C109.182 10.9183 109.269 11.39 109.269 11.9551C109.269 12.4928 109.214 13.0169 109.104 13.5273C109 14.0332 108.845 14.5049 108.64 14.9424C108.435 15.3753 108.182 15.7581 107.881 16.0908C107.585 16.4189 107.245 16.6764 106.862 16.8633C106.479 17.0456 106.058 17.1367 105.598 17.1367C105.247 17.1367 104.944 17.0752 104.688 16.9521C104.438 16.8245 104.226 16.6582 104.053 16.4531C103.884 16.248 103.75 16.027 103.649 15.79H103.588C103.57 15.9587 103.54 16.1797 103.499 16.4531C103.463 16.722 103.424 16.9476 103.383 17.1299L102.699 20.3496H101.578ZM105.516 16.1934C105.835 16.1934 106.126 16.1136 106.391 15.9541C106.66 15.7946 106.899 15.5781 107.108 15.3047C107.323 15.0267 107.503 14.7054 107.648 14.3408C107.799 13.9762 107.913 13.5889 107.99 13.1787C108.068 12.7686 108.106 12.3516 108.106 11.9277C108.106 11.3991 107.999 11.0003 107.785 10.7314C107.576 10.4626 107.261 10.3281 106.842 10.3281C106.623 10.3281 106.402 10.3828 106.179 10.4922C105.955 10.597 105.739 10.7474 105.529 10.9434C105.32 11.1348 105.124 11.3626 104.941 11.627C104.759 11.8913 104.6 12.1829 104.463 12.502C104.331 12.821 104.226 13.1582 104.148 13.5137C104.071 13.8691 104.032 14.2337 104.032 14.6074C104.032 15.0859 104.153 15.471 104.395 15.7627C104.641 16.0498 105.014 16.1934 105.516 16.1934ZM112.68 17.1367C112.274 17.1367 111.919 17.0387 111.613 16.8428C111.308 16.6468 111.071 16.3574 110.902 15.9746C110.734 15.5918 110.649 15.1247 110.649 14.5732C110.649 14.0218 110.706 13.4909 110.82 12.9805C110.939 12.4701 111.105 11.9961 111.319 11.5586C111.534 11.1211 111.791 10.7383 112.092 10.4102C112.397 10.082 112.739 9.82682 113.117 9.64453C113.495 9.46224 113.903 9.37109 114.341 9.37109C114.678 9.37109 114.97 9.4349 115.216 9.5625C115.466 9.6901 115.674 9.85872 115.838 10.0684C116.007 10.2734 116.139 10.4922 116.234 10.7246H116.303L116.74 9.50781H117.608L116.022 17H115.113L115.318 15.5508H115.264C115.059 15.8242 114.824 16.0817 114.56 16.3232C114.295 16.5648 114.006 16.7607 113.691 16.9111C113.377 17.0615 113.04 17.1367 112.68 17.1367ZM113.049 16.1934C113.4 16.1934 113.746 16.0658 114.088 15.8105C114.434 15.5508 114.744 15.2021 115.018 14.7646C115.296 14.3226 115.507 13.8258 115.653 13.2744C115.726 13.0055 115.774 12.7594 115.797 12.5361C115.824 12.3083 115.838 12.0964 115.838 11.9004C115.838 11.431 115.713 11.0527 115.462 10.7656C115.216 10.474 114.879 10.3281 114.45 10.3281C114.145 10.3281 113.858 10.4056 113.589 10.5605C113.32 10.7109 113.076 10.9229 112.857 11.1963C112.643 11.4652 112.459 11.7796 112.304 12.1396C112.149 12.4951 112.028 12.8825 111.941 13.3018C111.859 13.721 111.818 14.1517 111.818 14.5938C111.818 15.1178 111.925 15.5166 112.14 15.79C112.354 16.0589 112.657 16.1934 113.049 16.1934ZM121.238 17.1367C120.669 17.1367 120.186 17.016 119.789 16.7744C119.393 16.5329 119.092 16.1774 118.887 15.708C118.682 15.2386 118.579 14.6667 118.579 13.9922C118.579 13.5729 118.618 13.0967 118.695 12.5635C118.773 12.0303 118.896 11.4811 119.064 10.916C119.233 10.3509 119.452 9.81087 119.721 9.2959C119.994 8.78092 120.32 8.32975 120.698 7.94238C121.081 7.55501 121.525 7.27702 122.031 7.1084C122.204 7.04004 122.451 6.96484 122.77 6.88281C123.093 6.80078 123.444 6.72103 123.822 6.64355C124.205 6.56152 124.574 6.49089 124.93 6.43164C125.29 6.36784 125.593 6.32227 125.839 6.29492L125.976 7.23145C125.657 7.27702 125.283 7.33854 124.854 7.41602C124.426 7.49349 124.002 7.58236 123.583 7.68262C123.168 7.77832 122.82 7.87858 122.537 7.9834C122.154 8.12012 121.806 8.34115 121.491 8.64648C121.181 8.94727 120.908 9.32324 120.671 9.77441C120.434 10.2256 120.236 10.7497 120.076 11.3467L120.117 11.3535C120.386 11.0254 120.739 10.7246 121.177 10.4512C121.614 10.1777 122.113 10.041 122.674 10.041C123.143 10.041 123.535 10.1413 123.85 10.3418C124.164 10.5378 124.401 10.8249 124.561 11.2031C124.72 11.5768 124.8 12.0303 124.8 12.5635C124.8 13.124 124.731 13.6755 124.595 14.2178C124.463 14.7601 124.255 15.2523 123.973 15.6943C123.69 16.1318 123.323 16.4827 122.872 16.7471C122.421 17.0068 121.876 17.1367 121.238 17.1367ZM121.341 16.1934C121.678 16.1934 121.974 16.1182 122.229 15.9678C122.485 15.8128 122.701 15.61 122.879 15.3594C123.057 15.1042 123.2 14.8216 123.31 14.5117C123.424 14.2018 123.506 13.8874 123.556 13.5684C123.606 13.2493 123.631 12.9508 123.631 12.6729C123.631 12.0986 123.526 11.6748 123.316 11.4014C123.107 11.1279 122.795 10.9912 122.38 10.9912C122.029 10.9912 121.694 11.0732 121.375 11.2373C121.061 11.3968 120.776 11.5973 120.521 11.8389C120.27 12.0758 120.06 12.3105 119.892 12.543C119.846 12.7936 119.807 13.0465 119.775 13.3018C119.748 13.557 119.734 13.7985 119.734 14.0264C119.734 14.4548 119.787 14.833 119.892 15.1611C119.996 15.4847 120.167 15.7376 120.404 15.9199C120.641 16.1022 120.953 16.1934 121.341 16.1934ZM128.97 17.1094C128.396 17.1094 127.901 16.9932 127.486 16.7607C127.072 16.5238 126.753 16.1911 126.529 15.7627C126.311 15.3298 126.201 14.8193 126.201 14.2314C126.201 13.7575 126.254 13.2904 126.358 12.8301C126.463 12.3652 126.618 11.9277 126.823 11.5176C127.028 11.1029 127.281 10.7383 127.582 10.4238C127.887 10.1048 128.238 9.85645 128.635 9.67871C129.031 9.49642 129.473 9.40527 129.961 9.40527C130.544 9.40527 131.041 9.52376 131.451 9.76074C131.866 9.99316 132.183 10.3258 132.401 10.7588C132.625 11.1917 132.736 11.7044 132.736 12.2969C132.736 12.7617 132.684 13.2243 132.579 13.6846C132.479 14.1449 132.326 14.5824 132.121 14.9971C131.921 15.4072 131.668 15.7718 131.362 16.0908C131.062 16.4053 130.711 16.6536 130.31 16.8359C129.913 17.0182 129.466 17.1094 128.97 17.1094ZM129.038 16.166C129.321 16.166 129.59 16.1068 129.845 15.9883C130.1 15.8698 130.332 15.6989 130.542 15.4756C130.752 15.2477 130.932 14.972 131.082 14.6484C131.237 14.3203 131.355 13.9489 131.438 13.5342C131.524 13.1195 131.567 12.6637 131.567 12.167C131.567 11.8708 131.515 11.5837 131.41 11.3057C131.305 11.0277 131.137 10.7998 130.904 10.6221C130.672 10.4398 130.362 10.3486 129.975 10.3486C129.656 10.3486 129.359 10.4147 129.086 10.5469C128.817 10.679 128.576 10.8659 128.361 11.1074C128.147 11.349 127.965 11.6338 127.814 11.9619C127.669 12.29 127.555 12.6501 127.473 13.042C127.395 13.4339 127.356 13.8464 127.356 14.2793C127.356 14.8763 127.502 15.3411 127.794 15.6738C128.086 16.002 128.5 16.166 129.038 16.166ZM133.803 17L135.396 9.50781H136.325L136.147 10.957H136.216C136.38 10.7201 136.578 10.4808 136.811 10.2393C137.043 9.99316 137.312 9.78809 137.617 9.62402C137.927 9.4554 138.278 9.37109 138.67 9.37109C139.199 9.37109 139.6 9.52376 139.873 9.8291C140.146 10.1344 140.306 10.5514 140.352 11.0801H140.399C140.582 10.8021 140.8 10.5332 141.056 10.2734C141.311 10.0091 141.6 9.79264 141.924 9.62402C142.252 9.4554 142.612 9.37109 143.004 9.37109C143.583 9.37109 144.029 9.52832 144.344 9.84277C144.658 10.1572 144.815 10.613 144.815 11.21C144.815 11.4242 144.802 11.627 144.774 11.8184C144.752 12.0098 144.715 12.2057 144.665 12.4062L143.694 17H142.546L143.558 12.2832C143.599 12.0781 143.628 11.9004 143.646 11.75C143.669 11.5996 143.681 11.4561 143.681 11.3193C143.681 11.014 143.599 10.7725 143.435 10.5947C143.271 10.417 143.018 10.3281 142.676 10.3281C142.434 10.3281 142.184 10.3942 141.924 10.5264C141.664 10.6585 141.411 10.859 141.165 11.1279C140.924 11.3923 140.705 11.7272 140.509 12.1328C140.313 12.5384 140.156 13.0146 140.037 13.5615L139.306 17H138.171L139.169 12.3037C139.21 12.0941 139.24 11.9141 139.258 11.7637C139.281 11.6087 139.292 11.4766 139.292 11.3672C139.292 11.0436 139.217 10.7907 139.066 10.6084C138.916 10.4215 138.67 10.3281 138.328 10.3281C138.087 10.3281 137.834 10.3919 137.569 10.5195C137.31 10.6471 137.057 10.8477 136.811 11.1211C136.564 11.3945 136.339 11.7432 136.134 12.167C135.929 12.5908 135.765 13.1012 135.642 13.6982L134.944 17H133.803ZM148.322 17.1367C147.917 17.1367 147.561 17.0387 147.256 16.8428C146.951 16.6468 146.714 16.3574 146.545 15.9746C146.376 15.5918 146.292 15.1247 146.292 14.5732C146.292 14.0218 146.349 13.4909 146.463 12.9805C146.581 12.4701 146.748 11.9961 146.962 11.5586C147.176 11.1211 147.434 10.7383 147.734 10.4102C148.04 10.082 148.382 9.82682 148.76 9.64453C149.138 9.46224 149.546 9.37109 149.983 9.37109C150.321 9.37109 150.612 9.4349 150.858 9.5625C151.109 9.6901 151.316 9.85872 151.48 10.0684C151.649 10.2734 151.781 10.4922 151.877 10.7246H151.945L152.383 9.50781H153.251L151.665 17H150.756L150.961 15.5508H150.906C150.701 15.8242 150.466 16.0817 150.202 16.3232C149.938 16.5648 149.648 16.7607 149.334 16.9111C149.02 17.0615 148.682 17.1367 148.322 17.1367ZM148.691 16.1934C149.042 16.1934 149.389 16.0658 149.73 15.8105C150.077 15.5508 150.387 15.2021 150.66 14.7646C150.938 14.3226 151.15 13.8258 151.296 13.2744C151.369 13.0055 151.417 12.7594 151.439 12.5361C151.467 12.3083 151.48 12.0964 151.48 11.9004C151.48 11.431 151.355 11.0527 151.104 10.7656C150.858 10.474 150.521 10.3281 150.093 10.3281C149.787 10.3281 149.5 10.4056 149.231 10.5605C148.963 10.7109 148.719 10.9229 148.5 11.1963C148.286 11.4652 148.101 11.7796 147.946 12.1396C147.791 12.4951 147.671 12.8825 147.584 13.3018C147.502 13.721 147.461 14.1517 147.461 14.5938C147.461 15.1178 147.568 15.5166 147.782 15.79C147.996 16.0589 148.299 16.1934 148.691 16.1934ZM160.217 17.1094C159.342 17.1094 158.681 16.8405 158.234 16.3027C157.792 15.7604 157.571 15.07 157.571 14.2314C157.571 14.113 157.574 13.9945 157.578 13.876C157.583 13.7575 157.587 13.6663 157.592 13.6025H155.787L155.069 17H153.928L155.521 9.50781H156.648L155.999 12.6523H157.742C157.888 12.1191 158.073 11.6497 158.296 11.2441C158.524 10.8385 158.786 10.499 159.082 10.2256C159.378 9.95215 159.702 9.74707 160.053 9.61035C160.408 9.47363 160.782 9.40527 161.174 9.40527C161.762 9.40527 162.252 9.5306 162.644 9.78125C163.035 10.0273 163.329 10.3669 163.525 10.7998C163.721 11.2327 163.819 11.7318 163.819 12.2969C163.819 12.7845 163.769 13.263 163.669 13.7324C163.569 14.1973 163.421 14.6348 163.225 15.0449C163.029 15.4505 162.785 15.8083 162.493 16.1182C162.206 16.4281 161.871 16.6719 161.488 16.8496C161.11 17.0228 160.686 17.1094 160.217 17.1094ZM160.292 16.166C160.561 16.166 160.814 16.1045 161.051 15.9814C161.292 15.8584 161.511 15.6807 161.707 15.4482C161.903 15.2158 162.072 14.9355 162.213 14.6074C162.354 14.2793 162.464 13.9102 162.541 13.5C162.618 13.0898 162.657 12.6455 162.657 12.167C162.657 11.6292 162.527 11.1917 162.268 10.8545C162.008 10.5173 161.639 10.3486 161.16 10.3486C160.841 10.3486 160.552 10.4238 160.292 10.5742C160.032 10.7201 159.804 10.9229 159.608 11.1826C159.412 11.4378 159.248 11.7318 159.116 12.0645C158.984 12.3971 158.884 12.7526 158.815 13.1309C158.752 13.5091 158.72 13.8919 158.72 14.2793C158.72 14.8398 158.847 15.2956 159.103 15.6465C159.358 15.9928 159.754 16.166 160.292 16.166ZM174.237 19.584L174.777 17.0957C174.572 17.0501 174.408 16.9658 174.285 16.8428C174.162 16.7197 174.073 16.5534 174.019 16.3438C173.968 16.1341 173.946 15.8789 173.95 15.5781H173.909C173.75 15.8197 173.554 16.0612 173.321 16.3027C173.089 16.5443 172.818 16.7448 172.508 16.9043C172.202 17.0592 171.854 17.1367 171.462 17.1367C170.938 17.1367 170.535 16.984 170.252 16.6787C169.974 16.3734 169.814 15.9587 169.773 15.4346H169.719C169.536 15.7126 169.318 15.9814 169.062 16.2412C168.812 16.501 168.525 16.7152 168.201 16.8838C167.878 17.0524 167.518 17.1367 167.121 17.1367C166.542 17.1367 166.096 16.9772 165.781 16.6582C165.467 16.3392 165.31 15.8835 165.31 15.291C165.31 15.0768 165.323 14.8763 165.351 14.6895C165.382 14.5026 165.417 14.3044 165.453 14.0947L166.424 9.50781H167.579L166.574 14.2383C166.538 14.4342 166.506 14.6074 166.479 14.7578C166.456 14.9082 166.444 15.0518 166.444 15.1885C166.444 15.4938 166.526 15.7354 166.69 15.9131C166.854 16.0908 167.107 16.1797 167.449 16.1797C167.768 16.1797 168.101 16.0635 168.447 15.8311C168.798 15.5986 169.119 15.2432 169.411 14.7646C169.707 14.2861 169.933 13.68 170.088 12.9463L170.826 9.50781H171.961L170.949 14.2383C170.908 14.4342 170.879 14.6074 170.86 14.7578C170.842 14.9082 170.833 15.0358 170.833 15.1406C170.833 15.4779 170.908 15.7354 171.059 15.9131C171.209 16.0908 171.455 16.1797 171.797 16.1797C172.038 16.1797 172.289 16.1159 172.549 15.9883C172.813 15.8561 173.068 15.6556 173.314 15.3867C173.565 15.1133 173.791 14.7646 173.991 14.3408C174.196 13.9124 174.36 13.3997 174.483 12.8027L175.181 9.50781H176.322L175.201 14.792C175.169 14.9606 175.142 15.1224 175.119 15.2773C175.101 15.4323 175.092 15.5622 175.092 15.667C175.092 15.8447 175.137 15.9814 175.229 16.0771C175.32 16.1683 175.45 16.2139 175.618 16.2139C175.732 16.2139 175.835 16.2025 175.926 16.1797C176.017 16.1569 176.092 16.1387 176.151 16.125L175.372 19.584H174.237ZM179.699 17.1367C179.294 17.1367 178.938 17.0387 178.633 16.8428C178.327 16.6468 178.09 16.3574 177.922 15.9746C177.753 15.5918 177.669 15.1247 177.669 14.5732C177.669 14.0218 177.726 13.4909 177.84 12.9805C177.958 12.4701 178.125 11.9961 178.339 11.5586C178.553 11.1211 178.811 10.7383 179.111 10.4102C179.417 10.082 179.758 9.82682 180.137 9.64453C180.515 9.46224 180.923 9.37109 181.36 9.37109C181.698 9.37109 181.989 9.4349 182.235 9.5625C182.486 9.6901 182.693 9.85872 182.857 10.0684C183.026 10.2734 183.158 10.4922 183.254 10.7246H183.322L183.76 9.50781H184.628L183.042 17H182.133L182.338 15.5508H182.283C182.078 15.8242 181.843 16.0817 181.579 16.3232C181.315 16.5648 181.025 16.7607 180.711 16.9111C180.396 17.0615 180.059 17.1367 179.699 17.1367ZM180.068 16.1934C180.419 16.1934 180.766 16.0658 181.107 15.8105C181.454 15.5508 181.764 15.2021 182.037 14.7646C182.315 14.3226 182.527 13.8258 182.673 13.2744C182.746 13.0055 182.794 12.7594 182.816 12.5361C182.844 12.3083 182.857 12.0964 182.857 11.9004C182.857 11.431 182.732 11.0527 182.481 10.7656C182.235 10.474 181.898 10.3281 181.47 10.3281C181.164 10.3281 180.877 10.4056 180.608 10.5605C180.34 10.7109 180.096 10.9229 179.877 11.1963C179.663 11.4652 179.478 11.7796 179.323 12.1396C179.168 12.4951 179.048 12.8825 178.961 13.3018C178.879 13.721 178.838 14.1517 178.838 14.5938C178.838 15.1178 178.945 15.5166 179.159 15.79C179.373 16.0589 179.676 16.1934 180.068 16.1934ZM185.141 17.0752C185.027 17.0752 184.924 17.0661 184.833 17.0479C184.737 17.0342 184.66 17.0182 184.601 17V16.0908C184.651 16.1045 184.705 16.1159 184.765 16.125C184.824 16.1296 184.883 16.1318 184.942 16.1318C185.106 16.1318 185.248 16.0977 185.366 16.0293C185.489 15.9564 185.608 15.8356 185.722 15.667C185.836 15.4984 185.963 15.266 186.104 14.9697C186.205 14.7555 186.314 14.5596 186.433 14.3818C186.551 14.1995 186.69 14.04 186.85 13.9033C187.014 13.7666 187.207 13.6595 187.431 13.582C187.116 13.4954 186.861 13.3678 186.665 13.1992C186.469 13.026 186.323 12.8255 186.228 12.5977C186.136 12.3652 186.091 12.1191 186.091 11.8594C186.091 11.5085 186.155 11.1895 186.282 10.9023C186.414 10.6152 186.604 10.3669 186.85 10.1572C187.1 9.94759 187.408 9.78809 187.772 9.67871C188.137 9.56478 188.552 9.50781 189.017 9.50781H191.833L190.254 17H189.126L189.775 13.999H188.846C188.527 13.999 188.269 14.0492 188.073 14.1494C187.877 14.2451 187.709 14.3932 187.567 14.5938C187.431 14.7897 187.287 15.0404 187.137 15.3457C186.964 15.7057 186.793 16.0156 186.624 16.2754C186.455 16.5352 186.257 16.7334 186.029 16.8701C185.801 17.0068 185.505 17.0752 185.141 17.0752ZM188.723 13.0215H189.974L190.514 10.4854H188.846C188.513 10.4854 188.224 10.5378 187.978 10.6426C187.736 10.7474 187.549 10.9023 187.417 11.1074C187.285 11.3125 187.219 11.5632 187.219 11.8594C187.219 12.2923 187.362 12.5954 187.649 12.7686C187.937 12.9372 188.294 13.0215 188.723 13.0215ZM50.124 37.1367C49.568 37.1367 49.0804 37.0319 48.6611 36.8223C48.2464 36.6081 47.9229 36.2936 47.6904 35.8789C47.4626 35.4642 47.3486 34.9492 47.3486 34.334C47.3486 33.8008 47.4056 33.2881 47.5195 32.7959C47.638 32.3037 47.8089 31.8503 48.0322 31.4355C48.2555 31.0208 48.5267 30.6585 48.8457 30.3486C49.1647 30.0387 49.527 29.7995 49.9326 29.6309C50.3428 29.4577 50.7894 29.3711 51.2725 29.3711C51.596 29.3711 51.9173 29.403 52.2363 29.4668C52.5599 29.526 52.8516 29.6126 53.1113 29.7266L52.79 30.6836C52.5986 30.5924 52.373 30.5104 52.1133 30.4375C51.8535 30.3646 51.5755 30.3281 51.2793 30.3281C50.8646 30.3281 50.4863 30.4329 50.1445 30.6426C49.8073 30.8522 49.5156 31.1439 49.2695 31.5176C49.028 31.8867 48.8411 32.3105 48.709 32.7891C48.5768 33.2676 48.5107 33.778 48.5107 34.3203C48.5107 34.7077 48.5791 35.0426 48.7158 35.3252C48.8525 35.6032 49.0485 35.8174 49.3037 35.9678C49.5635 36.1182 49.8734 36.1934 50.2334 36.1934C50.5661 36.1934 50.8783 36.1478 51.1699 36.0566C51.4661 35.9655 51.7555 35.8561 52.0381 35.7285V36.6992C51.7874 36.8268 51.5003 36.9316 51.1768 37.0137C50.8577 37.0957 50.5068 37.1367 50.124 37.1367ZM55.6543 37.1367C55.276 37.1367 54.9456 37.0661 54.6631 36.9248C54.3805 36.7835 54.1618 36.5762 54.0068 36.3027C53.8564 36.0247 53.7812 35.6852 53.7812 35.2842C53.7812 35.0837 53.7949 34.89 53.8223 34.7031C53.8542 34.5117 53.8883 34.3135 53.9248 34.1084L54.916 29.5078H56.0645L55.0459 34.2383C55.0094 34.4342 54.9798 34.6097 54.957 34.7646C54.9388 34.915 54.9297 35.0495 54.9297 35.168C54.9297 35.4915 55.0117 35.7445 55.1758 35.9268C55.3444 36.1045 55.611 36.1934 55.9756 36.1934C56.3174 36.1934 56.6751 36.0771 57.0488 35.8447C57.4271 35.6123 57.7757 35.2477 58.0947 34.751C58.4183 34.2497 58.6644 33.6003 58.833 32.8027L59.5303 29.5078H60.6514L59.0654 37H58.1289L58.3135 35.5508H58.252C58.0788 35.7878 57.8691 36.0293 57.623 36.2754C57.377 36.5169 57.0921 36.722 56.7686 36.8906C56.445 37.0547 56.0736 37.1367 55.6543 37.1367ZM64.5342 37.1367C63.9782 37.1367 63.4906 37.0319 63.0713 36.8223C62.6566 36.6081 62.333 36.2936 62.1006 35.8789C61.8727 35.4642 61.7588 34.9492 61.7588 34.334C61.7588 33.8008 61.8158 33.2881 61.9297 32.7959C62.0482 32.3037 62.2191 31.8503 62.4424 31.4355C62.6657 31.0208 62.9368 30.6585 63.2559 30.3486C63.5749 30.0387 63.9372 29.7995 64.3428 29.6309C64.7529 29.4577 65.1995 29.3711 65.6826 29.3711C66.0062 29.3711 66.3275 29.403 66.6465 29.4668C66.9701 29.526 67.2617 29.6126 67.5215 29.7266L67.2002 30.6836C67.0088 30.5924 66.7832 30.5104 66.5234 30.4375C66.2637 30.3646 65.9857 30.3281 65.6895 30.3281C65.2747 30.3281 64.8965 30.4329 64.5547 30.6426C64.2174 30.8522 63.9258 31.1439 63.6797 31.5176C63.4382 31.8867 63.2513 32.3105 63.1191 32.7891C62.987 33.2676 62.9209 33.778 62.9209 34.3203C62.9209 34.7077 62.9893 35.0426 63.126 35.3252C63.2627 35.6032 63.4587 35.8174 63.7139 35.9678C63.9736 36.1182 64.2835 36.1934 64.6436 36.1934C64.9762 36.1934 65.2884 36.1478 65.5801 36.0566C65.8763 35.9655 66.1657 35.8561 66.4482 35.7285V36.6992C66.1976 36.8268 65.9105 36.9316 65.5869 37.0137C65.2679 37.0957 64.917 37.1367 64.5342 37.1367ZM67.8154 37L69.4082 29.5078H70.3379L70.1602 30.957H70.2285C70.3926 30.7201 70.5908 30.4808 70.8232 30.2393C71.0557 29.9932 71.3245 29.7881 71.6299 29.624C71.9398 29.4554 72.2907 29.3711 72.6826 29.3711C73.2113 29.3711 73.6123 29.5238 73.8857 29.8291C74.1592 30.1344 74.3187 30.5514 74.3643 31.0801H74.4121C74.5944 30.8021 74.8132 30.5332 75.0684 30.2734C75.3236 30.0091 75.613 29.7926 75.9365 29.624C76.2646 29.4554 76.6247 29.3711 77.0166 29.3711C77.5954 29.3711 78.042 29.5283 78.3564 29.8428C78.6709 30.1572 78.8281 30.613 78.8281 31.21C78.8281 31.4242 78.8145 31.627 78.7871 31.8184C78.7643 32.0098 78.7279 32.2057 78.6777 32.4062L77.707 37H76.5586L77.5703 32.2832C77.6113 32.0781 77.641 31.9004 77.6592 31.75C77.682 31.5996 77.6934 31.4561 77.6934 31.3193C77.6934 31.014 77.6113 30.7725 77.4473 30.5947C77.2832 30.417 77.0303 30.3281 76.6885 30.3281C76.4469 30.3281 76.1963 30.3942 75.9365 30.5264C75.6768 30.6585 75.4238 30.859 75.1777 31.1279C74.9362 31.3923 74.7174 31.7272 74.5215 32.1328C74.3255 32.5384 74.1683 33.0146 74.0498 33.5615L73.3184 37H72.1836L73.1816 32.3037C73.2227 32.0941 73.2523 31.9141 73.2705 31.7637C73.2933 31.6087 73.3047 31.4766 73.3047 31.3672C73.3047 31.0436 73.2295 30.7907 73.0791 30.6084C72.9287 30.4215 72.6826 30.3281 72.3408 30.3281C72.0993 30.3281 71.8464 30.3919 71.582 30.5195C71.3223 30.6471 71.0693 30.8477 70.8232 31.1211C70.5771 31.3945 70.3516 31.7432 70.1465 32.167C69.9414 32.5908 69.7773 33.1012 69.6543 33.6982L68.957 37H67.8154ZM83.0254 37.1367C82.4648 37.1367 81.9818 37.0251 81.5762 36.8018C81.1706 36.5739 80.8584 36.2503 80.6396 35.8311C80.4255 35.4072 80.3184 34.9014 80.3184 34.3135C80.3184 33.7074 80.4049 33.1126 80.5781 32.5293C80.7559 31.9414 81.0088 31.4105 81.3369 30.9365C81.665 30.458 82.0592 30.0775 82.5195 29.7949C82.9844 29.5124 83.5039 29.3711 84.0781 29.3711C84.7663 29.3711 85.2881 29.526 85.6436 29.8359C85.999 30.1413 86.1768 30.5628 86.1768 31.1006C86.1768 31.4788 86.0879 31.8275 85.9102 32.1465C85.737 32.4655 85.4681 32.7435 85.1035 32.9805C84.7435 33.2129 84.2855 33.3952 83.7295 33.5273C83.1781 33.6549 82.5241 33.7188 81.7676 33.7188H81.5078C81.4987 33.8008 81.4896 33.8919 81.4805 33.9922C81.4759 34.0924 81.4736 34.1859 81.4736 34.2725C81.4736 34.874 81.6195 35.3457 81.9111 35.6875C82.2028 36.0247 82.6403 36.1934 83.2236 36.1934C83.5837 36.1934 83.9232 36.1432 84.2422 36.043C84.5658 35.9382 84.903 35.8014 85.2539 35.6328V36.6104C84.9167 36.7653 84.5771 36.8929 84.2354 36.9932C83.8936 37.0889 83.4902 37.1367 83.0254 37.1367ZM81.6719 32.7891H81.8359C82.4193 32.7891 82.9548 32.7389 83.4424 32.6387C83.93 32.5339 84.3219 32.3652 84.6182 32.1328C84.9144 31.8958 85.0625 31.5814 85.0625 31.1895C85.0625 30.9342 84.9759 30.7246 84.8027 30.5605C84.6296 30.3965 84.3652 30.3145 84.0098 30.3145C83.6953 30.3145 83.3854 30.4124 83.0801 30.6084C82.7747 30.7998 82.4967 31.0801 82.2461 31.4492C82 31.8184 81.8086 32.265 81.6719 32.7891ZM87.0107 37L88.5898 29.5215H90.0664L90.9004 35.5713H90.9277L94.3115 29.5215H95.9043L94.3389 37H93.2998L94.2432 32.5498C94.3252 32.2171 94.4072 31.8844 94.4893 31.5518C94.5713 31.2145 94.6488 30.9001 94.7217 30.6084H94.6943L91.0986 37H90.1963L89.3008 30.6152H89.2598C89.2279 30.8704 89.18 31.1781 89.1162 31.5381C89.0524 31.8936 88.984 32.2399 88.9111 32.5771L88.0088 37H87.0107ZM99.0146 37.1367C98.609 37.1367 98.2536 37.0387 97.9482 36.8428C97.6429 36.6468 97.4059 36.3574 97.2373 35.9746C97.0687 35.5918 96.9844 35.1247 96.9844 34.5732C96.9844 34.0218 97.0413 33.4909 97.1553 32.9805C97.2738 32.4701 97.4401 31.9961 97.6543 31.5586C97.8685 31.1211 98.126 30.7383 98.4268 30.4102C98.7321 30.082 99.0739 29.8268 99.4521 29.6445C99.8304 29.4622 100.238 29.3711 100.676 29.3711C101.013 29.3711 101.305 29.4349 101.551 29.5625C101.801 29.6901 102.009 29.8587 102.173 30.0684C102.341 30.2734 102.474 30.4922 102.569 30.7246H102.638L103.075 29.5078H103.943L102.357 37H101.448L101.653 35.5508H101.599C101.394 35.8242 101.159 36.0817 100.895 36.3232C100.63 36.5648 100.341 36.7607 100.026 36.9111C99.7119 37.0615 99.3747 37.1367 99.0146 37.1367ZM99.3838 36.1934C99.7347 36.1934 100.081 36.0658 100.423 35.8105C100.769 35.5508 101.079 35.2021 101.353 34.7646C101.631 34.3226 101.842 33.8258 101.988 33.2744C102.061 33.0055 102.109 32.7594 102.132 32.5361C102.159 32.3083 102.173 32.0964 102.173 31.9004C102.173 31.431 102.048 31.0527 101.797 30.7656C101.551 30.474 101.214 30.3281 100.785 30.3281C100.48 30.3281 100.193 30.4056 99.9238 30.5605C99.6549 30.7109 99.4111 30.9229 99.1924 31.1963C98.9782 31.4652 98.7936 31.7796 98.6387 32.1396C98.4837 32.4951 98.363 32.8825 98.2764 33.3018C98.1943 33.721 98.1533 34.1517 98.1533 34.5938C98.1533 35.1178 98.2604 35.5166 98.4746 35.79C98.6888 36.0589 98.9919 36.1934 99.3838 36.1934ZM108.209 37L109.815 29.4736H110.82L110.643 30.916H110.656C110.829 30.679 111.037 30.4398 111.278 30.1982C111.524 29.9521 111.809 29.7471 112.133 29.583C112.461 29.4144 112.832 29.3301 113.247 29.3301C113.648 29.3301 113.992 29.4053 114.279 29.5557C114.566 29.7015 114.787 29.9157 114.942 30.1982C115.097 30.4762 115.175 30.8135 115.175 31.21C115.175 31.4196 115.159 31.6315 115.127 31.8457C115.095 32.0599 115.061 32.2513 115.024 32.4199L114.026 37H112.816L113.828 32.2695C113.869 32.0645 113.901 31.889 113.924 31.7432C113.951 31.5973 113.965 31.4606 113.965 31.333C113.965 31.014 113.878 30.7725 113.705 30.6084C113.532 30.4443 113.277 30.3623 112.939 30.3623C112.607 30.3623 112.256 30.4762 111.887 30.7041C111.518 30.932 111.176 31.292 110.861 31.7842C110.547 32.2718 110.303 32.9098 110.13 33.6982L109.426 37H108.209ZM115.626 40.3496L117.916 29.5078H118.846L118.661 30.9639H118.709C118.923 30.6813 119.158 30.4215 119.413 30.1846C119.673 29.943 119.955 29.7493 120.261 29.6035C120.571 29.4577 120.908 29.3848 121.272 29.3848C121.683 29.3848 122.04 29.4827 122.346 29.6787C122.651 29.8701 122.888 30.1572 123.057 30.54C123.23 30.9183 123.316 31.39 123.316 31.9551C123.316 32.4928 123.262 33.0169 123.152 33.5273C123.048 34.0332 122.893 34.5049 122.688 34.9424C122.482 35.3753 122.229 35.7581 121.929 36.0908C121.632 36.4189 121.293 36.6764 120.91 36.8633C120.527 37.0456 120.106 37.1367 119.646 37.1367C119.295 37.1367 118.992 37.0752 118.736 36.9521C118.486 36.8245 118.274 36.6582 118.101 36.4531C117.932 36.248 117.798 36.027 117.697 35.79H117.636C117.618 35.9587 117.588 36.1797 117.547 36.4531C117.51 36.722 117.472 36.9476 117.431 37.1299L116.747 40.3496H115.626ZM119.563 36.1934C119.882 36.1934 120.174 36.1136 120.438 35.9541C120.707 35.7946 120.947 35.5781 121.156 35.3047C121.37 35.0267 121.55 34.7054 121.696 34.3408C121.847 33.9762 121.961 33.5889 122.038 33.1787C122.116 32.7686 122.154 32.3516 122.154 31.9277C122.154 31.3991 122.047 31.0003 121.833 30.7314C121.623 30.4626 121.309 30.3281 120.89 30.3281C120.671 30.3281 120.45 30.3828 120.227 30.4922C120.003 30.597 119.787 30.7474 119.577 30.9434C119.368 31.1348 119.172 31.3626 118.989 31.627C118.807 31.8913 118.647 32.1829 118.511 32.502C118.379 32.821 118.274 33.1582 118.196 33.5137C118.119 33.8691 118.08 34.2337 118.08 34.6074C118.08 35.0859 118.201 35.471 118.442 35.7627C118.688 36.0498 119.062 36.1934 119.563 36.1934ZM127.473 37.1094C126.898 37.1094 126.404 36.9932 125.989 36.7607C125.575 36.5238 125.256 36.1911 125.032 35.7627C124.813 35.3298 124.704 34.8193 124.704 34.2314C124.704 33.7575 124.757 33.2904 124.861 32.8301C124.966 32.3652 125.121 31.9277 125.326 31.5176C125.531 31.1029 125.784 30.7383 126.085 30.4238C126.39 30.1048 126.741 29.8564 127.138 29.6787C127.534 29.4964 127.976 29.4053 128.464 29.4053C129.047 29.4053 129.544 29.5238 129.954 29.7607C130.369 29.9932 130.686 30.3258 130.904 30.7588C131.128 31.1917 131.239 31.7044 131.239 32.2969C131.239 32.7617 131.187 33.2243 131.082 33.6846C130.982 34.1449 130.829 34.5824 130.624 34.9971C130.424 35.4072 130.171 35.7718 129.865 36.0908C129.564 36.4053 129.214 36.6536 128.812 36.8359C128.416 37.0182 127.969 37.1094 127.473 37.1094ZM127.541 36.166C127.824 36.166 128.092 36.1068 128.348 35.9883C128.603 35.8698 128.835 35.6989 129.045 35.4756C129.255 35.2477 129.435 34.972 129.585 34.6484C129.74 34.3203 129.858 33.9489 129.94 33.5342C130.027 33.1195 130.07 32.6637 130.07 32.167C130.07 31.8708 130.018 31.5837 129.913 31.3057C129.808 31.0277 129.64 30.7998 129.407 30.6221C129.175 30.4398 128.865 30.3486 128.478 30.3486C128.159 30.3486 127.862 30.4147 127.589 30.5469C127.32 30.679 127.078 30.8659 126.864 31.1074C126.65 31.349 126.468 31.6338 126.317 31.9619C126.172 32.29 126.058 32.6501 125.976 33.042C125.898 33.4339 125.859 33.8464 125.859 34.2793C125.859 34.8763 126.005 35.3411 126.297 35.6738C126.589 36.002 127.003 36.166 127.541 36.166ZM135.047 37.1367C134.509 37.1367 134.058 37.0228 133.693 36.7949C133.329 36.5671 133.053 36.248 132.866 35.8379C132.684 35.4277 132.593 34.9515 132.593 34.4092C132.593 33.9717 132.641 33.5342 132.736 33.0967C132.832 32.6546 132.976 32.2376 133.167 31.8457C133.358 31.4538 133.593 31.1051 133.871 30.7998C134.154 30.4945 134.477 30.2552 134.842 30.082C135.211 29.9043 135.623 29.8154 136.079 29.8154C136.457 29.8154 136.774 29.8747 137.029 29.9932C137.285 30.1071 137.496 30.2598 137.665 30.4512C137.834 30.6426 137.968 30.8477 138.068 31.0664H138.109C138.118 30.9889 138.123 30.9092 138.123 30.8271C138.123 30.7406 138.123 30.6631 138.123 30.5947C138.123 29.4372 137.968 28.5781 137.658 28.0176C137.348 27.4525 136.87 27.1699 136.223 27.1699C135.981 27.1699 135.728 27.1995 135.464 27.2588C135.2 27.3135 134.963 27.3887 134.753 27.4844L134.466 26.6299C134.694 26.5205 134.983 26.4248 135.334 26.3428C135.685 26.2607 136.027 26.2197 136.359 26.2197C137.034 26.2197 137.585 26.3838 138.014 26.7119C138.442 27.04 138.759 27.5254 138.964 28.168C139.169 28.806 139.271 29.5898 139.271 30.5195C139.271 30.9889 139.235 31.4766 139.162 31.9824C139.094 32.4883 138.987 32.9896 138.841 33.4863C138.695 33.9785 138.508 34.4456 138.28 34.8877C138.052 35.3252 137.781 35.7126 137.467 36.0498C137.157 36.387 136.799 36.6536 136.394 36.8496C135.993 37.041 135.544 37.1367 135.047 37.1367ZM135.163 36.1797C135.45 36.1797 135.717 36.1136 135.963 35.9814C136.209 35.8447 136.435 35.6556 136.64 35.4141C136.845 35.1725 137.029 34.8923 137.193 34.5732C137.357 34.2497 137.499 33.8988 137.617 33.5205C137.736 33.1423 137.831 32.7503 137.904 32.3447C137.818 32.0394 137.695 31.7637 137.535 31.5176C137.38 31.2715 137.191 31.0755 136.968 30.9297C136.744 30.7793 136.482 30.7041 136.182 30.7041C135.917 30.7041 135.664 30.7656 135.423 30.8887C135.181 31.0117 134.958 31.1849 134.753 31.4082C134.552 31.6315 134.377 31.8958 134.227 32.2012C134.076 32.5065 133.958 32.8438 133.871 33.2129C133.789 33.582 133.748 33.974 133.748 34.3887C133.748 34.8991 133.86 35.3252 134.083 35.667C134.306 36.0088 134.666 36.1797 135.163 36.1797ZM142.505 37.1367C142.099 37.1367 141.744 37.0387 141.438 36.8428C141.133 36.6468 140.896 36.3574 140.728 35.9746C140.559 35.5918 140.475 35.1247 140.475 34.5732C140.475 34.0218 140.532 33.4909 140.646 32.9805C140.764 32.4701 140.93 31.9961 141.145 31.5586C141.359 31.1211 141.616 30.7383 141.917 30.4102C142.222 30.082 142.564 29.8268 142.942 29.6445C143.321 29.4622 143.729 29.3711 144.166 29.3711C144.503 29.3711 144.795 29.4349 145.041 29.5625C145.292 29.6901 145.499 29.8587 145.663 30.0684C145.832 30.2734 145.964 30.4922 146.06 30.7246H146.128L146.565 29.5078H147.434L145.848 37H144.938L145.144 35.5508H145.089C144.884 35.8242 144.649 36.0817 144.385 36.3232C144.12 36.5648 143.831 36.7607 143.517 36.9111C143.202 37.0615 142.865 37.1367 142.505 37.1367ZM142.874 36.1934C143.225 36.1934 143.571 36.0658 143.913 35.8105C144.259 35.5508 144.569 35.2021 144.843 34.7646C145.121 34.3226 145.333 33.8258 145.479 33.2744C145.551 33.0055 145.599 32.7594 145.622 32.5361C145.649 32.3083 145.663 32.0964 145.663 31.9004C145.663 31.431 145.538 31.0527 145.287 30.7656C145.041 30.474 144.704 30.3281 144.275 30.3281C143.97 30.3281 143.683 30.4056 143.414 30.5605C143.145 30.7109 142.901 30.9229 142.683 31.1963C142.468 31.4652 142.284 31.7796 142.129 32.1396C141.974 32.4951 141.853 32.8825 141.767 33.3018C141.685 33.721 141.644 34.1517 141.644 34.5938C141.644 35.1178 141.751 35.5166 141.965 35.79C142.179 36.0589 142.482 36.1934 142.874 36.1934ZM148.302 37.1367C148.174 37.1367 148.037 37.1276 147.892 37.1094C147.746 37.0911 147.614 37.0661 147.495 37.0342L147.666 36.1045C147.753 36.1273 147.855 36.1478 147.974 36.166C148.092 36.1842 148.206 36.1934 148.315 36.1934C148.653 36.1934 148.956 36.1159 149.225 35.9609C149.498 35.8014 149.737 35.5872 149.942 35.3184C150.147 35.0495 150.318 34.7464 150.455 34.4092C150.596 34.0674 150.701 33.7119 150.77 33.3428C150.838 32.9736 150.872 32.6113 150.872 32.2559C150.872 31.6862 150.763 31.2236 150.544 30.8682C150.325 30.5081 149.972 30.3281 149.484 30.3281C149.348 30.3281 149.218 30.3372 149.095 30.3555C148.972 30.3691 148.846 30.3919 148.719 30.4238V29.4805C148.851 29.4577 148.997 29.4349 149.156 29.4121C149.32 29.3848 149.484 29.3711 149.648 29.3711C150.437 29.3711 151.029 29.6217 151.426 30.123C151.822 30.6243 152.021 31.3262 152.021 32.2285C152.021 32.3151 152.018 32.4062 152.014 32.502C152.009 32.5931 152.002 32.6797 151.993 32.7617H153.142L153.832 29.5078H154.878L154.181 32.7617H155.281C155.363 32.3789 155.491 31.9893 155.664 31.5928C155.842 31.1963 156.072 30.8317 156.354 30.499C156.637 30.1618 156.979 29.8906 157.38 29.6855C157.781 29.4759 158.248 29.3711 158.781 29.3711C158.936 29.3711 159.089 29.3802 159.239 29.3984C159.39 29.4121 159.542 29.4395 159.697 29.4805L159.485 30.4102C159.385 30.3828 159.271 30.3623 159.144 30.3486C159.021 30.335 158.902 30.3281 158.788 30.3281C158.451 30.3281 158.148 30.4079 157.879 30.5674C157.61 30.7223 157.375 30.9342 157.175 31.2031C156.974 31.472 156.808 31.7773 156.676 32.1191C156.544 32.4564 156.443 32.8096 156.375 33.1787C156.311 33.5433 156.279 33.901 156.279 34.252C156.279 34.8216 156.382 35.2887 156.587 35.6533C156.797 36.0133 157.15 36.1934 157.646 36.1934C157.801 36.1934 157.934 36.1842 158.043 36.166C158.157 36.1478 158.275 36.1227 158.398 36.0908V37.0342C158.289 37.0524 158.152 37.0729 157.988 37.0957C157.824 37.123 157.658 37.1367 157.489 37.1367C156.97 37.1367 156.532 37.0251 156.177 36.8018C155.826 36.5785 155.562 36.2549 155.384 35.8311C155.206 35.4027 155.117 34.8854 155.117 34.2793C155.117 34.1745 155.119 34.0697 155.124 33.9648C155.129 33.8555 155.138 33.7484 155.151 33.6436H153.996L153.292 37H152.253L152.971 33.6436H151.863C151.772 34.0719 151.631 34.4935 151.439 34.9082C151.253 35.3184 151.013 35.6921 150.722 36.0293C150.435 36.3665 150.088 36.6354 149.683 36.8359C149.282 37.0365 148.821 37.1367 148.302 37.1367Z" fill="#D3413F"></path> <path d="M27.4897 49.0944C27.5419 48.8232 27.3643 48.5611 27.0931 48.509C26.822 48.4569 26.5599 48.6344 26.5077 48.9056L27.4897 49.0944ZM96.1399 102.354C96.3352 102.549 96.6517 102.549 96.847 102.353L100.028 99.1709C100.224 98.9756 100.224 98.659 100.028 98.4638C99.8329 98.2686 99.5163 98.2686 99.3211 98.4639L96.4932 101.293L93.6643 98.465C93.469 98.2698 93.1524 98.2698 92.9571 98.4651C92.7619 98.6604 92.762 98.977 92.9573 99.1722L96.1399 102.354ZM26.5077 48.9056C25.5565 53.8529 25.9352 57.7992 27.3761 60.9788C28.8176 64.1597 31.2967 66.517 34.4428 68.3316C40.7001 71.9406 49.7242 73.4672 58.8453 75.0551C68.0221 76.6526 77.323 78.3143 84.3379 82.1344C87.8338 84.0382 90.7403 86.4678 92.7753 89.6751C94.8086 92.8798 95.9924 96.8933 95.9933 102L96.9933 102C96.9924 96.7317 95.7687 92.5264 93.6196 89.1394C91.4722 85.7548 88.4215 83.2196 84.8161 81.2562C77.6284 77.342 68.1501 75.6599 59.0168 74.0699C49.828 72.4703 41.0112 70.9657 34.9425 67.4653C31.9255 65.7252 29.6203 63.5083 28.287 60.5661C26.953 57.6226 26.5663 53.8971 27.4897 49.0944L26.5077 48.9056Z" fill="#D3413F"></path> </svg> 