<?xml version="1.0" encoding="UTF-8"?> <svg xmlns="http://www.w3.org/2000/svg" width="60" height="60" viewBox="0 0 60 60" fill="none"> <circle cx="30" cy="30" r="30" fill="#D3413F"></circle> <g clip-path="url(#clip0_3161_110)"> <path d="M14 44.8147C14.2484 44.2732 14.6781 44.1193 15.257 44.1201C25.0893 44.1311 34.9216 44.1344 44.7539 44.1303C44.9296 44.124 45.1053 44.1409 45.2766 44.1803C45.6672 44.2865 45.8883 44.5709 45.9367 44.9615C45.9852 45.3522 45.8164 45.6475 45.4945 45.8607C45.4164 45.91 45.3383 45.9537 45.2602 45.9998H14.6867L14 45.3139V44.8147Z" fill="white"></path> <path d="M14 45.314L14.6867 45.9999H14V45.314Z" fill="white"></path> <path d="M42.2031 23.4154V42.2318H34.7227V23.4154H32.6086C32.4211 23.4154 32.2336 23.4154 32.0469 23.4154C31.6164 23.424 31.2656 23.2795 31.0719 22.8764C30.8688 22.4568 31.0016 22.0951 31.293 21.7631C32.1649 20.7735 33.0347 19.78 33.9024 18.7826C35.1555 17.3509 36.4089 15.9186 37.6625 14.4858C38.1664 13.91 38.7516 13.9068 39.2516 14.4779C41.361 16.8878 43.4703 19.2972 45.5797 21.7061C45.8063 21.9647 45.9899 22.2365 45.936 22.5998C45.8633 23.0881 45.4828 23.4045 44.9453 23.41C44.1446 23.4178 43.3438 23.41 42.543 23.41L42.2031 23.4154Z" fill="white"></path> <path d="M32.8445 42.2443H25.3563V30.3115C25.3563 29.4943 25.6945 29.1553 26.5078 29.1553H31.7149C32.4922 29.1553 32.8438 29.5021 32.8438 30.2717C32.8438 34.1587 32.8438 38.0451 32.8438 41.9311L32.8445 42.2443Z" fill="white"></path> <path d="M23.4844 42.2436H15.8867C15.8813 42.1319 15.8727 42.0311 15.8727 41.9311C15.8727 39.9155 15.8727 37.8999 15.8727 35.8843C15.8727 35.1296 16.2258 34.7718 16.9727 34.771C18.7805 34.771 20.5886 34.771 22.3969 34.771C23.125 34.771 23.4836 35.1335 23.4844 35.8647C23.4844 37.8908 23.4844 39.9166 23.4844 41.9421V42.2436Z" fill="white"></path> </g> <defs> <clipPath id="clip0_3161_110"> <rect width="32" height="32" fill="white" transform="translate(14 14)"></rect> </clipPath> </defs> </svg> 