<?xml version="1.0" encoding="UTF-8"?> <svg xmlns="http://www.w3.org/2000/svg" width="60" height="60" viewBox="0 0 60 60" fill="none"> <circle cx="30" cy="30" r="30" fill="#D3413F"></circle> <path d="M16.0068 31.5125C16.0068 27.4947 16.0136 23.4778 16 19.46C16 18.867 16.2034 18.4511 16.6814 18.1008C19.6989 15.8913 23.0085 15.4686 26.4981 16.6262C28.4391 17.271 30.3158 18.1145 32.2208 18.869C33.5426 19.3925 34.8791 19.8602 36.309 20.0158C38.3532 20.2389 40.1734 19.6528 41.8243 18.4746C42.3013 18.1341 42.7714 17.8493 43.3613 18.1585C43.9512 18.4678 43.9989 19.0118 43.9979 19.6029C43.9901 25.2444 43.9901 30.8873 43.9979 36.5314C44.0118 36.7981 43.9562 37.0638 43.8367 37.3023C43.7172 37.5409 43.5379 37.744 43.3166 37.8916C40.372 40.0541 37.1413 40.5189 33.712 39.4279C31.9258 38.8593 30.1951 38.1059 28.4556 37.4062C27.0345 36.8367 25.6191 36.2662 24.0948 36.0275C22.0808 35.7134 20.2382 36.1596 18.5464 37.2731C18.4872 37.3244 18.4392 37.3875 18.4057 37.4584C18.3722 37.5294 18.3538 37.6066 18.3517 37.6851C18.3401 39.7126 18.3517 41.7392 18.341 43.7667C18.341 44.7198 17.4105 45.2951 16.6152 44.8431C16.1966 44.6062 16.0097 44.2295 16.0107 43.75C16.0107 42.4192 16.0107 41.0884 16.0107 39.7567L16.0068 31.5125ZM25.917 26.1571C25.8703 26.1453 25.8197 26.1345 25.7759 26.1208C23.3073 25.4359 20.9089 25.522 18.6184 26.7794C18.4082 26.8939 18.3323 27.0133 18.3332 27.255C18.343 29.621 18.3391 31.9881 18.3391 34.3542C18.3391 34.4452 18.3478 34.5352 18.3547 34.6712C20.8028 33.4256 23.319 33.3326 25.9082 34.0127V26.1482C26.3803 26.3058 26.8612 26.4418 27.3216 26.6267C29.0426 27.3215 30.7538 28.0397 32.4748 28.7345C32.9858 28.941 33.5164 29.0985 34.08 29.2923C34.08 26.8635 34.08 24.5082 34.0712 22.149C34.0583 22.0969 34.0335 22.0487 33.9986 22.0081C33.9638 21.9674 33.92 21.9356 33.8707 21.9151C33.5066 21.782 33.1231 21.6998 32.7639 21.556C31.1539 20.9121 29.5517 20.2487 27.9407 19.6038C27.2915 19.3435 26.6295 19.1146 25.917 18.8465V26.1571ZM34.0936 37.1166C36.6449 37.9699 39.0823 37.8387 41.3882 36.3631C41.4773 36.3171 41.5507 36.2456 41.5992 36.1577C41.6477 36.0697 41.6692 35.9692 41.6608 35.869C41.6511 33.5381 41.655 31.2072 41.654 28.8764C41.654 28.7785 41.6433 28.6709 41.6335 28.5163C39.2195 29.9244 36.7081 30.0516 34.0936 29.2854V37.1166Z" fill="white"></path> </svg> 