<?xml version="1.0" encoding="UTF-8"?> <svg xmlns="http://www.w3.org/2000/svg" width="100" height="100" viewBox="0 0 100 100" fill="none"> <circle cx="50" cy="50" r="50" fill="#D3413F"></circle> <path d="M20 63.7422C20.1891 63.2968 20.3875 62.8547 20.5672 62.4047C20.8797 61.6062 21.4859 61.2281 22.3266 61.2C22.5016 61.2 22.6781 61.2 22.8531 61.2C40.9156 61.2 58.9781 61.2219 77.0406 61.1703C79.0328 61.1703 79.6172 62.475 79.8531 64.2453C79.9578 65.0515 79.3562 65.6172 78.5719 65.8547C75.7266 66.7172 72.9063 67.6875 70.0219 68.3906C62.5969 70.1984 55.0375 70.7531 47.4109 70.5672C41.3562 70.4109 35.3641 69.7718 29.4859 68.2968C26.85 67.6343 24.2703 66.7437 21.6594 65.9797C20.8781 65.7515 20.2984 65.3375 20.0063 64.5625L20 63.7422Z" fill="white"></path> <path d="M40.6812 34.9609V35.6766C40.6812 39.1844 40.6734 42.6922 40.6812 46.2C40.6812 47.6063 41.9703 48.4562 43.1687 47.8734C43.9234 47.5063 44.1891 46.8562 44.1875 46.05C44.1875 43.1677 44.1875 40.2839 44.1875 37.3984C44.1875 35.4297 44.1875 33.4609 44.1875 31.4938C44.1875 30.1984 44.875 29.5094 46.1734 29.5047C48.688 29.4984 51.2021 29.4984 53.7156 29.5047C55.0047 29.5047 55.6875 30.2062 55.6891 31.5047C55.6891 36.2589 55.6891 41.0141 55.6891 45.7703C55.6891 45.9453 55.6891 46.1219 55.6891 46.2969C55.75 47.3203 56.5469 48.0937 57.5031 48.0578C58.4594 48.0219 59.1859 47.2766 59.1891 46.2469C59.2 42.7203 59.1891 39.1922 59.1891 35.6656V35.025C68.1906 38.15 75.5 47.3609 76.0047 57.6422H23.8172C24.1169 52.9145 25.7205 48.3624 28.45 44.4906C31.5359 40.0969 35.5922 36.9438 40.6812 34.9609Z" fill="white"></path> </svg> 