<?xml version="1.0" encoding="UTF-8"?> <svg xmlns="http://www.w3.org/2000/svg" width="126" height="36" viewBox="0 0 126 36" fill="none"> <g clip-path="url(#clip0_3444_9)"> <path d="M48.9827 6.44254C50.5443 5.36035 52.388 4.78535 54.2733 4.79255C58.9011 4.79255 59.1826 7.67544 59.1826 9.00371V12.5772C59.1826 13.6607 59.4069 14.4501 60.5038 14.3754V16.963C60.1237 17.1151 59.7185 17.1904 59.3105 17.1847C58.6734 17.1847 57.4284 17.1124 56.6657 15.853C55.5217 16.7182 54.3518 17.1847 52.6717 17.1847C49.6703 17.1847 48.5509 15.5106 48.5509 13.7618C48.5509 10.4837 51.5501 9.42311 55.7224 9.32659C55.746 7.94776 55.3927 7.50079 53.9155 7.50079C52.8478 7.50079 51.3717 7.99372 50.406 8.65901L48.9827 6.44254ZM55.7224 11.666C53.6374 11.6407 52.1098 12.306 52.1098 13.4654C52.1098 14.1789 52.7457 14.4742 53.4837 14.4742C54.169 14.4742 55.0876 13.9813 55.7269 13.5389L55.7224 11.666Z" fill="white"></path> <path d="M26.6527 13.0712C27.0322 13.5455 27.5093 13.9282 28.0498 14.192C28.5903 14.4558 29.181 14.5941 29.7797 14.5971C31.9422 14.5971 32.2988 12.8241 32.3493 12.1336L28.5134 12.3553V9.69651L32.3538 9.91827C32.328 9.10361 31.9197 7.37893 29.7337 7.37893C28.6918 7.37893 27.7754 7.77189 26.9869 8.5877L25.1049 6.61368C26.8613 5.16017 28.7927 4.79248 29.8347 4.79248C32.3538 4.79248 36.2435 5.8266 36.2435 10.8271C36.2435 15.6094 32.7845 17.1847 29.7102 17.1847C27.5982 17.1847 26.2253 16.47 24.6966 14.9671L26.6527 13.0712Z" fill="white"></path> <path d="M37.5648 7.77221V5.06396H47.1276V7.77221H44.0757V16.9138H40.6189V7.77221H37.5648Z" fill="white"></path> <path d="M69.8165 11.813C68.2653 11.7395 68.2653 12.3795 67.4264 14.0812C66.6884 15.5588 65.7978 17.1835 63.6881 17.1835C63.2552 17.1843 62.8255 17.1093 62.4173 16.9618V14.3753C63.586 14.3018 63.5389 13.9077 64.2466 12.7495C65.2393 11.0501 65.9761 10.6065 66.639 10.5077C65.5712 10.2136 65.163 9.59539 64.8332 9.12889C64.324 8.38547 63.8664 7.69606 63.0589 7.69606C62.9558 7.6924 62.8527 7.70088 62.7515 7.72134V5.03837C63.0589 4.86602 63.4391 4.79248 63.9988 4.79248C65.8797 4.79248 66.7949 5.97483 67.8907 7.67538C68.4515 8.53599 68.8564 9.30239 69.8221 9.22771V5.06365H73.28V9.22771C74.2469 9.30239 74.6506 8.53829 75.2137 7.67653C76.3084 5.97597 77.2225 4.79248 79.1045 4.79248C79.6653 4.79248 80.0467 4.86717 80.3473 5.03952V7.72364C80.2484 7.70317 80.1475 7.69468 80.0467 7.69836C79.2335 7.69836 78.7725 8.38777 78.2633 9.12659C77.9269 9.59539 77.5276 10.2136 76.4587 10.5054C77.1182 10.6042 77.8584 11.0478 78.8499 12.7472C79.561 13.9054 79.5117 14.2995 80.6804 14.373V16.9606C80.2714 17.1081 79.8409 17.1831 79.4074 17.1824C77.2988 17.1824 76.4082 15.5565 75.6713 14.08C74.8312 12.3783 74.8312 11.7383 73.2789 11.8119V16.9124H69.8165V11.813Z" fill="white"></path> <path d="M90.4283 6.88631V5.06396H93.8839V16.9138H90.4283V10.878L86.3333 15.2144V16.9138H82.8743V5.06396H86.3333V11.2469L90.4283 6.88631Z" fill="white"></path> <path d="M27.2303 36.0001H25.5479L25.3572 32.7093V31.4052H25.8216C26.2512 31.1685 26.5843 30.6169 26.8905 28.0305L27.3055 24.4398H33.0357V31.4052H34.3088V32.7093L34.1215 36.0001H32.4301V33.0023H27.2303V36.0001ZM31.0763 31.404V26.0369H28.8578L28.592 28.4625C28.4417 29.8218 28.1646 30.7675 27.7934 31.4052L31.0763 31.404ZM35.2812 28.7233C35.2812 25.9416 37.1666 24.2261 39.1328 24.2261C41.3928 24.2261 42.584 25.9002 42.584 28.2913C42.5854 28.6185 42.5569 28.9451 42.4987 29.2668H37.1935C37.3573 30.787 38.3095 31.6511 39.6611 31.6511C40.3755 31.6511 40.9879 31.4212 41.6003 31.0306L42.2733 32.2796C41.4282 32.8714 40.4312 33.194 39.4076 33.2068C37.0915 33.2114 35.2812 31.5511 35.2812 28.7233ZM40.8892 27.9006C40.8892 26.5827 40.3172 25.7807 39.1743 25.7807C38.2007 25.7807 37.3438 26.5276 37.1733 27.9006H40.8892ZM44.4582 24.4352H47.8477C49.695 24.4352 51.0734 25.0178 51.0734 26.6528C51.0734 27.4893 50.6035 28.1764 49.6781 28.451V28.5142C50.6651 28.7578 51.4065 29.3507 51.4065 30.5434C51.4065 32.2669 49.9339 32.9977 48.0182 32.9977H44.4582V24.4352ZM47.6469 27.9006C48.7494 27.9006 49.1813 27.5031 49.1813 26.855C49.1813 26.207 48.7528 25.8025 47.7041 25.8025H46.3772V27.9006H47.6469ZM47.8712 31.6304C48.9928 31.6304 49.4976 31.1639 49.4976 30.4101C49.4976 29.7276 48.9536 29.2611 47.8151 29.2611H46.3772V31.6246L47.8712 31.6304ZM52.7199 28.7233C52.7199 25.9416 54.6053 24.2261 56.5715 24.2261C58.8315 24.2261 60.0227 25.9002 60.0227 28.2913C60.0241 28.6185 59.9956 28.9451 59.9374 29.2668H54.6323C54.796 30.787 55.7539 31.6511 57.0998 31.6511C57.8142 31.6511 58.4266 31.4212 59.039 31.0306L59.712 32.2796C58.8669 32.8714 57.8699 33.194 56.8463 33.2068C54.5347 33.2114 52.7199 31.5511 52.7199 28.7233ZM58.3279 27.9006C58.3279 26.5827 57.7559 25.7807 56.613 25.7807C55.6395 25.7807 54.7826 26.5276 54.6121 27.9006H58.3279ZM60.7876 33.0391L61.1241 31.219C61.2539 31.2624 61.3892 31.286 61.5256 31.2891C62.0438 31.2891 62.4005 30.8433 62.5295 29.7517C62.7538 27.9845 62.9377 26.2139 63.1385 24.4352H68.8015V32.9977H66.8443V26.0369H64.6942C64.5304 27.4456 64.3678 28.8888 64.1838 30.2964C63.9281 32.2072 63.0948 33.2114 61.6692 33.2114C61.3673 33.2173 61.0673 33.1602 60.7876 33.0437V33.0391ZM70.7374 28.7233C70.7374 25.8715 72.6295 24.2261 74.7112 24.2261C76.7929 24.2261 78.6862 25.8715 78.6862 28.7233C78.6862 31.5752 76.7941 33.2045 74.7112 33.2045C72.6284 33.2045 70.7374 31.566 70.7374 28.7233ZM76.6718 28.7233C76.6718 27.0079 75.936 25.8646 74.7112 25.8646C73.4864 25.8646 72.7518 27.0079 72.7518 28.7233C72.7518 30.4388 73.4898 31.5729 74.7112 31.5729C75.9327 31.5729 76.6718 30.4469 76.6718 28.7233ZM80.6288 24.4352H87.7263V32.9977H85.7669V26.0369H82.5883V33.0023H80.6288V24.4352ZM90.2242 24.4352H92.4674L93.8077 27.8938C94.0399 28.5981 94.2642 29.2462 94.4806 29.8942H94.5491C94.7734 29.2462 95.0145 28.5981 95.2299 27.8938L96.5051 24.4352H98.7405V32.9977H96.9852V29.9988C96.9852 29.1588 97.1209 27.5939 97.196 26.6666H97.1276C96.8898 27.3847 96.5668 28.2005 96.3313 28.8842L95.0628 32.2279H93.912L92.6132 28.8888C92.3743 28.2051 92.0524 27.3687 91.8168 26.6712H91.7484C91.8236 27.5985 91.9593 29.1634 91.9593 30.0034V33.0023H90.2242V24.4352ZM100.68 28.7233C100.68 25.9416 102.565 24.2261 104.532 24.2261C106.791 24.2261 107.983 25.9002 107.983 28.2913C107.985 28.6185 107.956 28.9452 107.897 29.2668H102.592C102.756 30.787 103.714 31.6511 105.06 31.6511C105.774 31.6511 106.386 31.4212 106.999 31.0306L107.672 32.2796C106.827 32.8714 105.83 33.194 104.806 33.2068C102.49 33.2114 100.68 31.5511 100.68 28.7233ZM106.288 27.9006C106.288 26.5827 105.717 25.7807 104.573 25.7807C103.599 25.7807 102.742 26.5276 102.572 27.9006H106.288ZM109.857 24.4352H111.817V27.7122H115.145V24.4398H117.106V33.0023H115.145V29.4806H111.817V33.0023H109.857V24.4352ZM121.409 26.0323H118.782V24.4352H125.997V26.0323H123.37V32.9977H121.409V26.0323Z" fill="white"></path> <path d="M0 16.9136L0.09085 5.38202L16.602 0V16.9136H0Z" fill="white"></path> </g> <defs> <clipPath id="clip0_3444_9"> <rect width="126" height="36" fill="white"></rect> </clipPath> </defs> </svg> 