<?xml version="1.0" encoding="UTF-8"?> <svg xmlns="http://www.w3.org/2000/svg" width="100" height="100" viewBox="0 0 100 100" fill="none"> <circle cx="50" cy="50" r="50" fill="#D3413F"></circle> <g clip-path="url(#clip0_3161_1209)"> <path d="M53.8016 80C52.6859 79.7453 51.5172 79.6266 50.4656 79.2188C47.2125 77.9297 43.9922 76.5625 40.7781 75.1563C38.175 74.0266 35.6031 72.8234 32.9766 71.6328C34.65 66.0625 36.2797 60.5062 37.2453 54.7031C38.1094 54.7609 38.9641 54.8344 39.8062 54.8734C42.6717 54.99 45.4985 55.577 48.1734 56.6109C50.3734 57.4719 52.6719 57.6156 54.9844 57.7937C57.2969 57.9719 59.6313 58.3813 61.7922 59.3234C62.633 59.6778 63.4075 60.1724 64.0828 60.7859C65.4562 62.0828 65.1094 63.9422 63.4172 64.775C62.0906 65.425 60.6406 65.6203 59.1984 65.5766C56.0078 65.4797 52.8203 65.2531 49.6313 65.0891C49.1359 65.0625 48.6375 65.0891 48.1422 65.0891L48.0781 65.2828C48.2697 65.4503 48.4794 65.596 48.7031 65.7172C51.1703 66.7375 53.6422 67.7016 56.3984 67.625C58.6563 67.5625 60.9187 67.6344 63.1781 67.625C63.5062 67.6183 63.8298 67.5483 64.1313 67.4188C66.8031 66.2922 69.4437 65.1016 72.1391 64.025C74.325 63.1422 76.4953 63.1422 78.4375 64.6766C78.8706 65.038 79.2266 65.4827 79.4844 65.9844C80.1609 67.2578 80.0781 68.2891 79.0391 69.2922C78.0058 70.3213 76.8684 71.2403 75.6453 72.0344C70.9281 74.9828 65.9969 77.5125 60.6453 79.0969C59.3641 79.475 58.0203 79.6359 56.7047 79.9C56.5945 79.9272 56.486 79.9606 56.3797 80H53.8016Z" fill="white"></path> <path d="M20 48.5375C20.3672 47.8156 20.9609 47.6281 21.7406 47.6875C25.1984 47.9516 28.6531 48.2453 31.9953 49.25C32.7155 49.4843 33.4139 49.7807 34.0828 50.1359C34.8063 50.5031 35.0375 51.1125 34.9328 51.9391C34.2688 57.125 33.0047 62.1844 31.7609 67.2516C31.2219 69.4391 30.6281 71.6188 30.0422 73.8C29.7531 74.8938 29.4484 75.1078 28.3078 75.1078C26.1063 75.1078 23.9031 75.0797 21.7031 75.1234C20.9438 75.1375 20.3875 74.9219 19.9953 74.2797L20 48.5375Z" fill="white"></path> <path d="M38.1436 52.2547C38.3171 51.9031 38.4296 51.6219 38.5842 51.3656C41.378 46.7563 44.6436 42.4891 47.9749 38.2641C48.3967 37.7297 48.8233 37.5531 49.4874 37.5578C54.0671 37.5875 58.6467 37.5672 63.2264 37.5875C63.5195 37.5901 63.7999 37.7074 64.0077 37.9141C67.503 42.3328 70.8342 46.8672 73.6764 51.7406C75.0999 54.1813 76.4374 56.6688 77.1139 59.4453C77.2577 60.036 77.3296 60.6438 77.4639 61.4047C73.6639 60.1094 70.6171 62 67.4186 63.3094C67.3842 62.7281 67.4014 62.2047 67.3155 61.6985C67.2045 61.0519 66.9645 60.4343 66.6099 59.8824C66.2553 59.3305 65.7933 58.8556 65.2514 58.486C64.4702 57.9235 63.5764 57.5094 62.7421 57.0141C62.5764 56.9172 61.6031 56.8016 61.5625 56.6406C58.5156 56.1719 59.5312 56.7188 57.5 56.3281C56.8297 56.025 58.1889 53.0313 57.4561 52.7563V47.7906C58.7483 47.9781 59.6436 48.7719 59.9358 49.9781C60.1186 50.7391 60.6858 51.1578 61.3671 51.0344C62.0905 50.9031 62.5014 50.3063 62.3764 49.5188C62.0421 47.4156 60.6577 46.2375 58.7827 45.5141C58.3514 45.3485 57.8921 45.2547 57.4171 45.1188C57.4171 44.6781 57.4327 44.25 57.4171 43.8235C57.4171 43.6574 57.384 43.4931 57.3199 43.34C57.2557 43.1869 57.1616 43.0481 57.0432 42.9317C56.9248 42.8154 56.7844 42.7238 56.6303 42.6623C56.4761 42.6007 56.3112 42.5705 56.1452 42.5735C55.4749 42.5922 54.9796 43.1078 54.9436 43.8235C54.9217 44.25 55.0608 44.7906 54.8514 45.0735C54.6421 45.3563 54.0796 45.3516 53.6796 45.4922C52.4296 45.9328 51.3811 46.6406 50.6483 47.761C49.3874 49.6875 49.7889 52.1031 51.6967 53.386C52.553 53.9594 53.5874 54.2641 54.5358 54.7031C54.7185 54.7899 57.4139 56.1452 57.5 56.3281C56.05 56.3578 52.0874 55.2266 50.7139 54.7891C49.0452 54.2578 47.378 53.7219 45.7014 53.2266C43.403 52.5422 41.0139 52.5344 38.6483 52.2969C38.5374 52.2813 38.4217 52.275 38.1436 52.2547Z" fill="white"></path> <path d="M56.0938 56.1719C59.375 56.6406 62.7604 57.3177 63.9062 57.6562L61.25 54.9219L63.4375 49.375L61.0156 43.125L56.0938 40.9375L51.4844 44.6094L46.875 49.6875C48.5677 51.7188 52.8 55.7013 56.0938 56.1719Z" fill="white"></path> <path d="M50.8391 24.5703C51.425 23.8531 51.9578 23.1062 52.5891 22.4515C53.2201 21.7899 53.9076 21.1845 54.6437 20.6421C55.6703 19.8937 56.7484 19.9765 57.8 20.6718C59.1078 21.5343 60.0781 22.7265 61.0203 23.9531C61.1766 24.1531 61.3172 24.3593 61.4891 24.589C62.3422 24.0781 63.1594 23.5593 64.0047 23.0874C65.6031 22.1937 67.2234 21.3468 69.05 21.0015C71.6812 20.5031 73.3984 22.3703 72.6812 24.9624C72.2366 26.4846 71.4438 27.8824 70.3656 29.0453C68.5734 31.0437 66.6687 32.9406 64.7969 34.8656C64.6405 35.0019 64.4403 35.0774 64.2328 35.0781C58.8755 35.0895 53.5182 35.0895 48.1609 35.0781C47.9719 35.0866 47.7854 35.0316 47.6312 34.9218C45.1625 32.6796 42.7391 30.3906 40.9328 27.5499C40.3757 26.7074 39.9505 25.7848 39.6719 24.814C39.0031 22.2906 40.7297 20.5203 43.2859 20.9968C45.0937 21.3343 46.7047 22.1578 48.2859 23.0437C49.1453 23.5281 49.9812 24.0562 50.8391 24.5703Z" fill="white"></path> <path d="M54.9078 52.1468C53.4109 51.8828 52.4 50.9968 52.4328 50.0187C52.4688 48.9984 53.6109 47.9656 54.9078 47.8093V52.1468Z" fill="white"></path> </g> <defs> <clipPath id="clip0_3161_1209"> <rect width="60" height="60" fill="white" transform="translate(20 20)"></rect> </clipPath> </defs> </svg> 