<?xml version="1.0" encoding="UTF-8"?> <svg xmlns="http://www.w3.org/2000/svg" width="100" height="100" viewBox="0 0 100 100" fill="none"> <circle cx="50" cy="50" r="50" fill="#D3413F"></circle> <g clip-path="url(#clip0_3382_398)"> <path d="M64.3746 78.0005C63.8224 78.0002 63.375 77.5526 63.375 77.0005V58.8625C63.375 58.1612 64.0789 57.6756 64.733 57.9283C64.789 57.95 64.8449 57.9716 64.9008 57.9933C68.5416 59.408 72.1866 60.8157 75.8189 62.2515C76.1888 62.3938 76.5076 62.6436 76.7344 62.9686C77.1014 63.5536 76.785 64.2469 76.0763 64.531C74.3888 65.2074 72.6858 65.8627 70.9884 66.525C69.6173 67.0594 68.242 67.5825 66.8794 68.1366C66.7134 68.2041 66.5025 68.4319 66.5011 68.588C66.4814 71.6818 66.4884 74.7629 66.4927 77.851V77.851C66.5033 77.9245 66.4524 78.0014 66.3781 78.0014L64.3746 78.0005Z" fill="white"></path> <path d="M31.0521 42.2967V39.7078C31.0521 39.4143 31.2901 39.1763 31.5837 39.1763V39.1763C42.1662 39.1763 52.7487 39.1763 63.3312 39.1763C67.4473 39.1763 70.7477 42.1027 71.3468 46.2314C71.9009 50.0213 69.4329 53.866 65.681 54.9502C64.8383 55.1822 63.9675 55.2963 63.0935 55.2891C54.687 55.3144 46.2804 55.3177 37.8738 55.2989C36.2454 55.2989 34.8209 55.7517 33.7437 57.0131C32.4443 58.5361 32.1405 60.2827 32.8915 62.1249C33.6424 63.9671 35.0599 64.9613 37.0273 65.1778C37.3076 65.2051 37.5893 65.2169 37.871 65.213H56.8554L55.2595 63.5027C54.8838 63.1 54.9043 62.4695 55.3053 62.0921L56.4474 61.0176C56.6453 60.8313 56.967 60.8865 57.1338 61.1011V61.1011C58.4726 62.5392 59.8146 63.975 61.1599 65.4085C62.0234 66.3267 62.0304 67.0383 61.174 67.9721C59.9404 69.3082 58.7118 70.6443 57.4566 72.0061C57.0815 72.4131 56.4472 72.4377 56.0415 72.0612L55.289 71.3627C54.8876 70.9901 54.8605 70.3639 55.2284 69.9581L56.8146 68.2083H56.148C49.9521 68.2083 43.7571 68.2083 37.563 68.2083C33.6255 68.2083 30.4151 65.5505 29.6374 61.6819C28.6755 56.8922 32.4162 52.2347 37.3226 52.215C45.957 52.1799 54.5913 52.2052 63.2271 52.201C65.4335 52.201 67.2335 51.0422 68.0168 49.1381C68.331 48.3858 68.4537 47.5673 68.374 46.7559C68.2942 45.9445 68.0145 45.1655 67.5598 44.4887C67.1051 43.812 66.4897 43.2585 65.7687 42.8779C65.0477 42.4973 64.2435 42.3015 63.4282 42.308C56.6529 42.2855 49.879 42.301 43.1051 42.301H31.0521V42.2967Z" fill="white"></path> <path d="M25.0688 25.568C25.0688 24.8644 25.7761 24.3809 26.4317 24.6361L29.3087 25.7564C32.0509 26.8214 34.7954 27.8845 37.5423 28.9458C38.0049 29.1244 38.3987 29.3592 38.514 29.8852C38.6462 30.4912 38.3438 30.9891 37.6562 31.2591C35.4999 32.1028 33.3437 32.9442 31.1874 33.7833C30.3226 34.1208 29.4648 34.4864 28.5887 34.7873C28.2315 34.9125 28.1162 35.0869 28.1176 35.4638C28.1331 38.3241 28.126 41.1844 28.126 44.0419V44.0419C28.126 44.3984 27.837 44.6873 27.4806 44.6873H26.0688C25.5166 44.6873 25.0688 44.2396 25.0688 43.6873V25.568Z" fill="white"></path> </g> <defs> <clipPath id="clip0_3382_398"> <rect width="54" height="54" fill="white" transform="translate(24 24)"></rect> </clipPath> </defs> </svg> 