<?xml version="1.0" encoding="UTF-8"?> <svg xmlns="http://www.w3.org/2000/svg" width="72" height="72" viewBox="0 0 72 72" fill="none"> <path d="M71.5 36C71.5 55.6061 55.6061 71.5 36 71.5C16.3939 71.5 0.5 55.6061 0.5 36C0.5 16.3939 16.3939 0.5 36 0.5C55.6061 0.5 71.5 16.3939 71.5 36Z" stroke="#D3413F"></path> <g clip-path="url(#clip0_3161_598)"> <path d="M45.3697 35.1729H26.5865C26.1288 35.1729 25.7578 35.5435 25.7578 36.0001C25.7578 36.4568 26.1288 36.8274 26.5865 36.8274H45.3697C45.8274 36.8274 46.1984 36.4571 46.1984 36.0001C46.1984 35.5432 45.8275 35.1729 45.3697 35.1729Z" fill="#D3413F"></path> <path d="M46.1212 35.415L38.0005 27.3076C37.6767 26.9847 37.1525 26.9847 36.8287 27.3076C36.505 27.6308 36.505 28.1548 36.8287 28.4777L44.3636 36.0001L36.8287 43.5226C36.505 43.8455 36.505 44.3695 36.8287 44.6924C36.9906 44.854 37.2025 44.9348 37.4146 44.9348C37.6268 44.9348 37.8386 44.854 38.0005 44.6924L46.1212 36.5851C46.4449 36.2619 46.4449 35.7379 46.1212 35.415Z" fill="#D3413F"></path> </g> <defs> <clipPath id="clip0_3161_598"> <rect width="20.6061" height="20.5714" fill="white" transform="translate(25.7578 25.7148)"></rect> </clipPath> </defs> </svg> 