<?xml version="1.0" encoding="UTF-8"?> <svg xmlns="http://www.w3.org/2000/svg" width="178" height="83" viewBox="0 0 178 83" fill="none"> <path d="M28.1738 17L30.2861 7.00586H37.1289L35.0166 17H33.8545L35.748 8.03125H31.2227L29.3223 17H28.1738ZM36.7871 20.3496L39.0771 9.50781H40.0068L39.8223 10.9639H39.8701C40.0843 10.6813 40.319 10.4215 40.5742 10.1846C40.834 9.94303 41.1165 9.74935 41.4219 9.60352C41.7318 9.45768 42.069 9.38477 42.4336 9.38477C42.8438 9.38477 43.2015 9.48275 43.5068 9.67871C43.8122 9.87012 44.0492 10.1572 44.2178 10.54C44.391 10.9183 44.4775 11.39 44.4775 11.9551C44.4775 12.4928 44.4229 13.0169 44.3135 13.5273C44.2087 14.0332 44.0537 14.5049 43.8486 14.9424C43.6436 15.3753 43.3906 15.7581 43.0898 16.0908C42.7936 16.4189 42.4541 16.6764 42.0713 16.8633C41.6885 17.0456 41.2669 17.1367 40.8066 17.1367C40.4557 17.1367 40.1527 17.0752 39.8975 16.9521C39.6468 16.8245 39.4349 16.6582 39.2617 16.4531C39.0931 16.248 38.9587 16.027 38.8584 15.79H38.7969C38.7786 15.9587 38.749 16.1797 38.708 16.4531C38.6715 16.722 38.6328 16.9476 38.5918 17.1299L37.9082 20.3496H36.7871ZM40.7246 16.1934C41.0436 16.1934 41.3353 16.1136 41.5996 15.9541C41.8685 15.7946 42.1077 15.5781 42.3174 15.3047C42.5316 15.0267 42.7116 14.7054 42.8574 14.3408C43.0078 13.9762 43.1217 13.5889 43.1992 13.1787C43.2767 12.7686 43.3154 12.3516 43.3154 11.9277C43.3154 11.3991 43.2083 11.0003 42.9941 10.7314C42.7845 10.4626 42.4701 10.3281 42.0508 10.3281C41.832 10.3281 41.611 10.3828 41.3877 10.4922C41.1644 10.597 40.9479 10.7474 40.7383 10.9434C40.5286 11.1348 40.3327 11.3626 40.1504 11.627C39.9681 11.8913 39.8086 12.1829 39.6719 12.502C39.5397 12.821 39.4349 13.1582 39.3574 13.5137C39.2799 13.8691 39.2412 14.2337 39.2412 14.6074C39.2412 15.0859 39.362 15.471 39.6035 15.7627C39.8496 16.0498 40.2233 16.1934 40.7246 16.1934ZM47.8271 17.1367C47.4489 17.1367 47.1185 17.0661 46.8359 16.9248C46.5534 16.7835 46.3346 16.5762 46.1797 16.3027C46.0293 16.0247 45.9541 15.6852 45.9541 15.2842C45.9541 15.0837 45.9678 14.89 45.9951 14.7031C46.027 14.5117 46.0612 14.3135 46.0977 14.1084L47.0889 9.50781H48.2373L47.2188 14.2383C47.1823 14.4342 47.1527 14.6097 47.1299 14.7646C47.1117 14.915 47.1025 15.0495 47.1025 15.168C47.1025 15.4915 47.1846 15.7445 47.3486 15.9268C47.5173 16.1045 47.7839 16.1934 48.1484 16.1934C48.4902 16.1934 48.848 16.0771 49.2217 15.8447C49.5999 15.6123 49.9486 15.2477 50.2676 14.751C50.5911 14.2497 50.8372 13.6003 51.0059 12.8027L51.7031 9.50781H52.8242L51.2383 17H50.3018L50.4863 15.5508H50.4248C50.2516 15.7878 50.042 16.0293 49.7959 16.2754C49.5498 16.5169 49.265 16.722 48.9414 16.8906C48.6178 17.0547 48.2464 17.1367 47.8271 17.1367ZM56.8506 17.1367C56.1761 17.1367 55.6247 17.0114 55.1963 16.7607C54.7679 16.5055 54.4512 16.1478 54.2461 15.6875C54.041 15.2272 53.9385 14.6872 53.9385 14.0674C53.9385 13.5387 53.9954 13.0397 54.1094 12.5703C54.2233 12.1009 54.3896 11.6725 54.6084 11.2852C54.8317 10.8932 55.1029 10.556 55.4219 10.2734C55.7454 9.99089 56.1123 9.77214 56.5225 9.61719C56.9372 9.46224 57.3929 9.38477 57.8896 9.38477C58.4137 9.38477 58.8581 9.45768 59.2227 9.60352C59.5872 9.74479 59.863 9.95443 60.0498 10.2324C60.2412 10.5059 60.3369 10.8454 60.3369 11.251C60.3369 11.6156 60.2549 11.93 60.0908 12.1943C59.9268 12.4541 59.6989 12.6683 59.4072 12.8369C59.1201 13.001 58.7874 13.1217 58.4092 13.1992V13.2266C58.8376 13.3268 59.1839 13.4977 59.4482 13.7393C59.7171 13.9762 59.8516 14.3385 59.8516 14.8262C59.8516 15.1725 59.7559 15.5257 59.5645 15.8857C59.373 16.2412 59.0586 16.5397 58.6211 16.7812C58.1836 17.0182 57.5934 17.1367 56.8506 17.1367ZM56.9326 16.207C57.3519 16.207 57.696 16.1432 57.9648 16.0156C58.2337 15.8835 58.432 15.7103 58.5596 15.4961C58.6872 15.2819 58.751 15.054 58.751 14.8125C58.751 14.571 58.6872 14.3704 58.5596 14.2109C58.432 14.0469 58.2337 13.9238 57.9648 13.8418C57.696 13.7598 57.3451 13.7188 56.9121 13.7188H55.1006C55.1006 13.7643 55.0983 13.8213 55.0938 13.8896C55.0938 13.958 55.0938 14.0286 55.0938 14.1016C55.0938 14.8307 55.2578 15.3639 55.5859 15.7012C55.9141 16.0384 56.363 16.207 56.9326 16.207ZM55.2305 12.7891H56.7139C57.1514 12.7891 57.557 12.7458 57.9307 12.6592C58.3089 12.5726 58.6143 12.4268 58.8467 12.2217C59.0791 12.012 59.1953 11.7272 59.1953 11.3672C59.1953 11.0801 59.0951 10.8363 58.8945 10.6357C58.6986 10.4307 58.3659 10.3281 57.8965 10.3281C57.4453 10.3281 57.0397 10.4261 56.6797 10.6221C56.3197 10.818 56.0166 11.1006 55.7705 11.4697C55.5244 11.8343 55.3444 12.2741 55.2305 12.7891ZM60.7061 17.0889C60.5921 17.0889 60.485 17.0775 60.3848 17.0547C60.2845 17.0365 60.207 17.0182 60.1523 17V16.0156C60.2161 16.043 60.2868 16.0635 60.3643 16.0771C60.4372 16.0908 60.5169 16.0977 60.6035 16.0977C60.8314 16.0977 61.0342 16.043 61.2119 15.9336C61.3896 15.8242 61.5537 15.651 61.7041 15.4141C61.859 15.1771 62.0117 14.8672 62.1621 14.4844C62.3171 14.1016 62.4857 13.6367 62.668 13.0898C62.8822 12.4655 63.0872 11.9232 63.2832 11.4629C63.4837 11.0026 63.707 10.6243 63.9531 10.3281C64.2038 10.0273 64.5068 9.80404 64.8623 9.6582C65.2223 9.51237 65.6689 9.43945 66.2021 9.43945C66.5075 9.43945 66.8014 9.45996 67.084 9.50098C67.3665 9.54199 67.6263 9.5944 67.8633 9.6582L66.291 17H65.1426L66.5645 10.458C66.5007 10.4443 66.4209 10.4329 66.3252 10.4238C66.234 10.4102 66.1338 10.4033 66.0244 10.4033C65.6279 10.4033 65.3044 10.4945 65.0537 10.6768C64.8076 10.8545 64.582 11.1667 64.377 11.6133C64.1764 12.0553 63.9395 12.6751 63.666 13.4727C63.4609 14.0697 63.2627 14.5938 63.0713 15.0449C62.8844 15.4961 62.6839 15.8743 62.4697 16.1797C62.2601 16.4805 62.0117 16.7083 61.7246 16.8633C61.4421 17.0137 61.1025 17.0889 60.7061 17.0889ZM71.7119 17.1367C71.1514 17.1367 70.6683 17.0251 70.2627 16.8018C69.8571 16.5739 69.5449 16.2503 69.3262 15.8311C69.112 15.4072 69.0049 14.9014 69.0049 14.3135C69.0049 13.7074 69.0915 13.1126 69.2646 12.5293C69.4424 11.9414 69.6953 11.4105 70.0234 10.9365C70.3516 10.458 70.7458 10.0775 71.2061 9.79492C71.6709 9.51237 72.1904 9.37109 72.7646 9.37109C73.4528 9.37109 73.9746 9.52604 74.3301 9.83594C74.6855 10.1413 74.8633 10.5628 74.8633 11.1006C74.8633 11.4788 74.7744 11.8275 74.5967 12.1465C74.4235 12.4655 74.1546 12.7435 73.79 12.9805C73.43 13.2129 72.972 13.3952 72.416 13.5273C71.8646 13.6549 71.2106 13.7188 70.4541 13.7188H70.1943C70.1852 13.8008 70.1761 13.8919 70.167 13.9922C70.1624 14.0924 70.1602 14.1859 70.1602 14.2725C70.1602 14.874 70.306 15.3457 70.5977 15.6875C70.8893 16.0247 71.3268 16.1934 71.9102 16.1934C72.2702 16.1934 72.6097 16.1432 72.9287 16.043C73.2523 15.9382 73.5895 15.8014 73.9404 15.6328V16.6104C73.6032 16.7653 73.2637 16.8929 72.9219 16.9932C72.5801 17.0889 72.1768 17.1367 71.7119 17.1367ZM70.3584 12.7891H70.5225C71.1058 12.7891 71.6413 12.7389 72.1289 12.6387C72.6165 12.5339 73.0085 12.3652 73.3047 12.1328C73.6009 11.8958 73.749 11.5814 73.749 11.1895C73.749 10.9342 73.6624 10.7246 73.4893 10.5605C73.3161 10.3965 73.0518 10.3145 72.6963 10.3145C72.3818 10.3145 72.0719 10.4124 71.7666 10.6084C71.4613 10.7998 71.1833 11.0801 70.9326 11.4492C70.6865 11.8184 70.4951 12.265 70.3584 12.7891ZM75.6836 17L77.2695 9.50781H78.3906L77.6182 13.1172L81.207 9.50781H82.6426L78.8555 13.2061L81.4121 17H80.0518L77.6045 13.2607L76.8252 17H75.6836ZM84.707 17.1367C84.3014 17.1367 83.946 17.0387 83.6406 16.8428C83.3353 16.6468 83.0983 16.3574 82.9297 15.9746C82.7611 15.5918 82.6768 15.1247 82.6768 14.5732C82.6768 14.0218 82.7337 13.4909 82.8477 12.9805C82.9661 12.4701 83.1325 11.9961 83.3467 11.5586C83.5609 11.1211 83.8184 10.7383 84.1191 10.4102C84.4245 10.082 84.7663 9.82682 85.1445 9.64453C85.5228 9.46224 85.9307 9.37109 86.3682 9.37109C86.7054 9.37109 86.9971 9.4349 87.2432 9.5625C87.4938 9.6901 87.7012 9.85872 87.8652 10.0684C88.0339 10.2734 88.166 10.4922 88.2617 10.7246H88.3301L88.7676 9.50781H89.6357L88.0498 17H87.1406L87.3457 15.5508H87.291C87.0859 15.8242 86.8512 16.0817 86.5869 16.3232C86.3226 16.5648 86.0332 16.7607 85.7188 16.9111C85.4043 17.0615 85.0671 17.1367 84.707 17.1367ZM85.0762 16.1934C85.4271 16.1934 85.7734 16.0658 86.1152 15.8105C86.4616 15.5508 86.7715 15.2021 87.0449 14.7646C87.3229 14.3226 87.5348 13.8258 87.6807 13.2744C87.7536 13.0055 87.8014 12.7594 87.8242 12.5361C87.8516 12.3083 87.8652 12.0964 87.8652 11.9004C87.8652 11.431 87.7399 11.0527 87.4893 10.7656C87.2432 10.474 86.9059 10.3281 86.4775 10.3281C86.1722 10.3281 85.8851 10.4056 85.6162 10.5605C85.3473 10.7109 85.1035 10.9229 84.8848 11.1963C84.6706 11.4652 84.486 11.7796 84.3311 12.1396C84.1761 12.4951 84.0553 12.8825 83.9688 13.3018C83.8867 13.721 83.8457 14.1517 83.8457 14.5938C83.8457 15.1178 83.9528 15.5166 84.167 15.79C84.3812 16.0589 84.6842 16.1934 85.0762 16.1934ZM90.3125 17L91.9053 9.50781H92.835L92.6572 10.957H92.7256C92.8896 10.7201 93.0879 10.4808 93.3203 10.2393C93.5527 9.99316 93.8216 9.78809 94.127 9.62402C94.4368 9.4554 94.7878 9.37109 95.1797 9.37109C95.7083 9.37109 96.1094 9.52376 96.3828 9.8291C96.6562 10.1344 96.8158 10.5514 96.8613 11.0801H96.9092C97.0915 10.8021 97.3102 10.5332 97.5654 10.2734C97.8206 10.0091 98.11 9.79264 98.4336 9.62402C98.7617 9.4554 99.1217 9.37109 99.5137 9.37109C100.092 9.37109 100.539 9.52832 100.854 9.84277C101.168 10.1572 101.325 10.613 101.325 11.21C101.325 11.4242 101.312 11.627 101.284 11.8184C101.261 12.0098 101.225 12.2057 101.175 12.4062L100.204 17H99.0557L100.067 12.2832C100.108 12.0781 100.138 11.9004 100.156 11.75C100.179 11.5996 100.19 11.4561 100.19 11.3193C100.19 11.014 100.108 10.7725 99.9443 10.5947C99.7803 10.417 99.5273 10.3281 99.1855 10.3281C98.944 10.3281 98.6934 10.3942 98.4336 10.5264C98.1738 10.6585 97.9209 10.859 97.6748 11.1279C97.4333 11.3923 97.2145 11.7272 97.0186 12.1328C96.8226 12.5384 96.6654 13.0146 96.5469 13.5615L95.8154 17H94.6807L95.6787 12.3037C95.7197 12.0941 95.7493 11.9141 95.7676 11.7637C95.7904 11.6087 95.8018 11.4766 95.8018 11.3672C95.8018 11.0436 95.7266 10.7907 95.5762 10.6084C95.4258 10.4215 95.1797 10.3281 94.8379 10.3281C94.5964 10.3281 94.3434 10.3919 94.0791 10.5195C93.8193 10.6471 93.5664 10.8477 93.3203 11.1211C93.0742 11.3945 92.8486 11.7432 92.6436 12.167C92.4385 12.5908 92.2744 13.1012 92.1514 13.6982L91.4541 17H90.3125ZM105.522 17.1367C104.962 17.1367 104.479 17.0251 104.073 16.8018C103.668 16.5739 103.355 16.2503 103.137 15.8311C102.923 15.4072 102.815 14.9014 102.815 14.3135C102.815 13.7074 102.902 13.1126 103.075 12.5293C103.253 11.9414 103.506 11.4105 103.834 10.9365C104.162 10.458 104.556 10.0775 105.017 9.79492C105.481 9.51237 106.001 9.37109 106.575 9.37109C107.263 9.37109 107.785 9.52604 108.141 9.83594C108.496 10.1413 108.674 10.5628 108.674 11.1006C108.674 11.4788 108.585 11.8275 108.407 12.1465C108.234 12.4655 107.965 12.7435 107.601 12.9805C107.241 13.2129 106.783 13.3952 106.227 13.5273C105.675 13.6549 105.021 13.7188 104.265 13.7188H104.005C103.996 13.8008 103.987 13.8919 103.978 13.9922C103.973 14.0924 103.971 14.1859 103.971 14.2725C103.971 14.874 104.117 15.3457 104.408 15.6875C104.7 16.0247 105.137 16.1934 105.721 16.1934C106.081 16.1934 106.42 16.1432 106.739 16.043C107.063 15.9382 107.4 15.8014 107.751 15.6328V16.6104C107.414 16.7653 107.074 16.8929 106.732 16.9932C106.391 17.0889 105.987 17.1367 105.522 17.1367ZM104.169 12.7891H104.333C104.916 12.7891 105.452 12.7389 105.939 12.6387C106.427 12.5339 106.819 12.3652 107.115 12.1328C107.411 11.8958 107.56 11.5814 107.56 11.1895C107.56 10.9342 107.473 10.7246 107.3 10.5605C107.127 10.3965 106.862 10.3145 106.507 10.3145C106.192 10.3145 105.882 10.4124 105.577 10.6084C105.272 10.7998 104.994 11.0801 104.743 11.4492C104.497 11.8184 104.306 12.265 104.169 12.7891ZM109.036 17.0889C108.922 17.0889 108.815 17.0775 108.715 17.0547C108.615 17.0365 108.537 17.0182 108.482 17V16.0156C108.546 16.043 108.617 16.0635 108.694 16.0771C108.767 16.0908 108.847 16.0977 108.934 16.0977C109.161 16.0977 109.364 16.043 109.542 15.9336C109.72 15.8242 109.884 15.651 110.034 15.4141C110.189 15.1771 110.342 14.8672 110.492 14.4844C110.647 14.1016 110.816 13.6367 110.998 13.0898C111.212 12.4655 111.417 11.9232 111.613 11.4629C111.814 11.0026 112.037 10.6243 112.283 10.3281C112.534 10.0273 112.837 9.80404 113.192 9.6582C113.552 9.51237 113.999 9.43945 114.532 9.43945C114.838 9.43945 115.132 9.45996 115.414 9.50098C115.697 9.54199 115.956 9.5944 116.193 9.6582L114.621 17H113.473L114.895 10.458C114.831 10.4443 114.751 10.4329 114.655 10.4238C114.564 10.4102 114.464 10.4033 114.354 10.4033C113.958 10.4033 113.634 10.4945 113.384 10.6768C113.138 10.8545 112.912 11.1667 112.707 11.6133C112.507 12.0553 112.27 12.6751 111.996 13.4727C111.791 14.0697 111.593 14.5938 111.401 15.0449C111.215 15.4961 111.014 15.8743 110.8 16.1797C110.59 16.4805 110.342 16.7083 110.055 16.8633C109.772 17.0137 109.433 17.0889 109.036 17.0889ZM119.994 17.1367C119.465 17.1367 119.014 17.057 118.641 16.8975C118.271 16.7334 117.991 16.4919 117.8 16.1729C117.608 15.8493 117.513 15.4482 117.513 14.9697C117.513 14.7646 117.529 14.5413 117.561 14.2998C117.597 14.0537 117.638 13.8236 117.684 13.6094L118.552 9.50781H119.7L118.976 12.7959C119.222 12.7503 119.488 12.7093 119.775 12.6729C120.062 12.6364 120.359 12.6182 120.664 12.6182C121.229 12.6182 121.685 12.7025 122.031 12.8711C122.378 13.0397 122.631 13.2721 122.79 13.5684C122.954 13.8646 123.036 14.2087 123.036 14.6006C123.036 15.0518 122.924 15.471 122.701 15.8584C122.478 16.2412 122.141 16.5511 121.689 16.7881C121.238 17.0205 120.673 17.1367 119.994 17.1367ZM120.097 16.207C120.411 16.207 120.682 16.1683 120.91 16.0908C121.138 16.0088 121.325 15.8971 121.471 15.7559C121.621 15.6146 121.73 15.4528 121.799 15.2705C121.872 15.0837 121.908 14.8877 121.908 14.6826C121.908 14.4548 121.86 14.2565 121.765 14.0879C121.669 13.9193 121.509 13.7894 121.286 13.6982C121.067 13.6025 120.771 13.5547 120.397 13.5547C120.101 13.5547 119.816 13.5706 119.543 13.6025C119.274 13.6299 119.026 13.6663 118.798 13.7119C118.739 13.9762 118.698 14.2018 118.675 14.3887C118.652 14.571 118.641 14.735 118.641 14.8809C118.641 15.2682 118.745 15.5872 118.955 15.8379C119.165 16.084 119.545 16.207 120.097 16.207ZM124.314 17L125.907 9.50781H127.035L126.386 12.6523H130.036L130.706 9.50781H131.841L130.269 17H129.12L129.824 13.6025H126.174L125.456 17H124.314ZM135.546 17.1367C135.04 17.1367 134.607 17.057 134.247 16.8975C133.892 16.7334 133.618 16.4919 133.427 16.1729C133.235 15.8538 133.14 15.4551 133.14 14.9766C133.14 14.776 133.156 14.5527 133.188 14.3066C133.224 14.056 133.265 13.8236 133.311 13.6094L134.172 9.50781H135.32L134.616 12.7959C134.844 12.7503 135.088 12.7093 135.348 12.6729C135.612 12.6364 135.883 12.6182 136.161 12.6182C136.672 12.6182 137.095 12.6956 137.433 12.8506C137.77 13.001 138.023 13.2243 138.191 13.5205C138.365 13.8122 138.451 14.1676 138.451 14.5869C138.451 15.0472 138.346 15.471 138.137 15.8584C137.927 16.2458 137.608 16.5557 137.18 16.7881C136.751 17.0205 136.207 17.1367 135.546 17.1367ZM135.614 16.207C135.91 16.207 136.166 16.166 136.38 16.084C136.599 16.002 136.776 15.8903 136.913 15.749C137.054 15.6077 137.157 15.446 137.221 15.2637C137.289 15.0814 137.323 14.8877 137.323 14.6826C137.323 14.4092 137.269 14.1904 137.159 14.0264C137.05 13.8623 136.886 13.7438 136.667 13.6709C136.448 13.5934 136.173 13.5547 135.84 13.5547C135.594 13.5547 135.35 13.5706 135.108 13.6025C134.871 13.6299 134.644 13.6663 134.425 13.7119C134.366 13.9854 134.322 14.2109 134.295 14.3887C134.272 14.5664 134.261 14.7305 134.261 14.8809C134.261 15.3047 134.366 15.6328 134.575 15.8652C134.789 16.0931 135.136 16.207 135.614 16.207ZM139.203 17L140.782 9.50781H141.924L140.331 17H139.203ZM144.993 17.1367C144.615 17.1367 144.285 17.0661 144.002 16.9248C143.719 16.7835 143.501 16.5762 143.346 16.3027C143.195 16.0247 143.12 15.6852 143.12 15.2842C143.12 15.0837 143.134 14.89 143.161 14.7031C143.193 14.5117 143.227 14.3135 143.264 14.1084L144.255 9.50781H145.403L144.385 14.2383C144.348 14.4342 144.319 14.6097 144.296 14.7646C144.278 14.915 144.269 15.0495 144.269 15.168C144.269 15.4915 144.351 15.7445 144.515 15.9268C144.683 16.1045 144.95 16.1934 145.314 16.1934C145.656 16.1934 146.014 16.0771 146.388 15.8447C146.766 15.6123 147.115 15.2477 147.434 14.751C147.757 14.2497 148.003 13.6003 148.172 12.8027L148.869 9.50781H149.99L148.404 17H147.468L147.652 15.5508H147.591C147.418 15.7878 147.208 16.0293 146.962 16.2754C146.716 16.5169 146.431 16.722 146.107 16.8906C145.784 17.0547 145.412 17.1367 144.993 17.1367ZM147.345 8.5166C146.839 8.5166 146.426 8.44824 146.107 8.31152C145.793 8.1748 145.561 7.98112 145.41 7.73047C145.264 7.47982 145.191 7.18815 145.191 6.85547C145.191 6.77799 145.196 6.69596 145.205 6.60938C145.219 6.51823 145.232 6.44987 145.246 6.4043H146.244C146.23 6.47721 146.219 6.54557 146.21 6.60938C146.205 6.66862 146.203 6.73014 146.203 6.79395C146.203 7.07194 146.294 7.29297 146.477 7.45703C146.663 7.61654 146.973 7.69629 147.406 7.69629C147.853 7.69629 148.22 7.60514 148.507 7.42285C148.794 7.24056 148.985 6.90104 149.081 6.4043H150.168C150.081 6.83724 149.926 7.21322 149.703 7.53223C149.48 7.84668 149.174 8.09049 148.787 8.26367C148.404 8.43229 147.924 8.5166 147.345 8.5166ZM12.5127 37.1367C11.9749 37.1367 11.5238 37.0228 11.1592 36.7949C10.7946 36.5671 10.5189 36.248 10.332 35.8379C10.1497 35.4277 10.0586 34.9515 10.0586 34.4092C10.0586 33.9717 10.1064 33.5342 10.2021 33.0967C10.2979 32.6546 10.4414 32.2376 10.6328 31.8457C10.8242 31.4538 11.0589 31.1051 11.3369 30.7998C11.6195 30.4945 11.943 30.2552 12.3076 30.082C12.6768 29.9043 13.0892 29.8154 13.5449 29.8154C13.9232 29.8154 14.2399 29.8747 14.4951 29.9932C14.7503 30.1071 14.9622 30.2598 15.1309 30.4512C15.2995 30.6426 15.4339 30.8477 15.5342 31.0664H15.5752C15.5843 30.9889 15.5889 30.9092 15.5889 30.8271C15.5889 30.7406 15.5889 30.6631 15.5889 30.5947C15.5889 29.4372 15.4339 28.5781 15.124 28.0176C14.8141 27.4525 14.3356 27.1699 13.6885 27.1699C13.4469 27.1699 13.194 27.1995 12.9297 27.2588C12.6654 27.3135 12.4284 27.3887 12.2188 27.4844L11.9316 26.6299C12.1595 26.5205 12.4489 26.4248 12.7998 26.3428C13.1507 26.2607 13.4925 26.2197 13.8252 26.2197C14.4997 26.2197 15.0511 26.3838 15.4795 26.7119C15.9079 27.04 16.2246 27.5254 16.4297 28.168C16.6348 28.806 16.7373 29.5898 16.7373 30.5195C16.7373 30.9889 16.7008 31.4766 16.6279 31.9824C16.5596 32.4883 16.4525 32.9896 16.3066 33.4863C16.1608 33.9785 15.974 34.4456 15.7461 34.8877C15.5182 35.3252 15.2471 35.7126 14.9326 36.0498C14.6227 36.387 14.265 36.6536 13.8594 36.8496C13.4583 37.041 13.0094 37.1367 12.5127 37.1367ZM12.6289 36.1797C12.916 36.1797 13.1826 36.1136 13.4287 35.9814C13.6748 35.8447 13.9004 35.6556 14.1055 35.4141C14.3105 35.1725 14.4951 34.8923 14.6592 34.5732C14.8232 34.2497 14.9645 33.8988 15.083 33.5205C15.2015 33.1423 15.2972 32.7503 15.3701 32.3447C15.2835 32.0394 15.1605 31.7637 15.001 31.5176C14.846 31.2715 14.6569 31.0755 14.4336 30.9297C14.2103 30.7793 13.9482 30.7041 13.6475 30.7041C13.3831 30.7041 13.1302 30.7656 12.8887 30.8887C12.6471 31.0117 12.4238 31.1849 12.2188 31.4082C12.0182 31.6315 11.8428 31.8958 11.6924 32.2012C11.542 32.5065 11.4235 32.8438 11.3369 33.2129C11.2549 33.582 11.2139 33.974 11.2139 34.3887C11.2139 34.8991 11.3255 35.3252 11.5488 35.667C11.7721 36.0088 12.1322 36.1797 12.6289 36.1797ZM17.2021 37.0889C17.0882 37.0889 16.9811 37.0775 16.8809 37.0547C16.7806 37.0365 16.7031 37.0182 16.6484 37V36.0156C16.7122 36.043 16.7829 36.0635 16.8604 36.0771C16.9333 36.0908 17.013 36.0977 17.0996 36.0977C17.3275 36.0977 17.5303 36.043 17.708 35.9336C17.8857 35.8242 18.0498 35.651 18.2002 35.4141C18.3551 35.1771 18.5078 34.8672 18.6582 34.4844C18.8132 34.1016 18.9818 33.6367 19.1641 33.0898C19.3783 32.4655 19.5833 31.9232 19.7793 31.4629C19.9798 31.0026 20.2031 30.6243 20.4492 30.3281C20.6999 30.0273 21.0029 29.804 21.3584 29.6582C21.7184 29.5124 22.165 29.4395 22.6982 29.4395C23.0036 29.4395 23.2975 29.46 23.5801 29.501C23.8626 29.542 24.1224 29.5944 24.3594 29.6582L22.7871 37H21.6387L23.0605 30.458C22.9967 30.4443 22.917 30.4329 22.8213 30.4238C22.7301 30.4102 22.6299 30.4033 22.5205 30.4033C22.124 30.4033 21.8005 30.4945 21.5498 30.6768C21.3037 30.8545 21.0781 31.1667 20.873 31.6133C20.6725 32.0553 20.4355 32.6751 20.1621 33.4727C19.957 34.0697 19.7588 34.5938 19.5674 35.0449C19.3805 35.4961 19.18 35.8743 18.9658 36.1797C18.7562 36.4805 18.5078 36.7083 18.2207 36.8633C17.9382 37.0137 17.5986 37.0889 17.2021 37.0889ZM25.043 37.0752C24.929 37.0752 24.8265 37.0661 24.7354 37.0479C24.6396 37.0342 24.5622 37.0182 24.5029 37V36.0908C24.5531 36.1045 24.6077 36.1159 24.667 36.125C24.7262 36.1296 24.7855 36.1318 24.8447 36.1318C25.0088 36.1318 25.1501 36.0977 25.2686 36.0293C25.3916 35.9564 25.5101 35.8356 25.624 35.667C25.738 35.4984 25.8656 35.266 26.0068 34.9697C26.1071 34.7555 26.2165 34.5596 26.335 34.3818C26.4535 34.1995 26.5924 34.04 26.752 33.9033C26.916 33.7666 27.1097 33.6595 27.333 33.582C27.0186 33.4954 26.7633 33.3678 26.5674 33.1992C26.3714 33.026 26.2256 32.8255 26.1299 32.5977C26.0387 32.3652 25.9932 32.1191 25.9932 31.8594C25.9932 31.5085 26.057 31.1895 26.1846 30.9023C26.3167 30.6152 26.5059 30.3669 26.752 30.1572C27.0026 29.9476 27.3102 29.7881 27.6748 29.6787C28.0394 29.5648 28.4541 29.5078 28.9189 29.5078H31.7354L30.1562 37H29.0283L29.6777 33.999H28.748C28.429 33.999 28.1715 34.0492 27.9756 34.1494C27.7796 34.2451 27.611 34.3932 27.4697 34.5938C27.333 34.7897 27.1895 35.0404 27.0391 35.3457C26.8659 35.7057 26.695 36.0156 26.5264 36.2754C26.3577 36.5352 26.1595 36.7334 25.9316 36.8701C25.7038 37.0068 25.4076 37.0752 25.043 37.0752ZM28.625 33.0215H29.876L30.416 30.4854H28.748C28.4154 30.4854 28.126 30.5378 27.8799 30.6426C27.6383 30.7474 27.4515 30.9023 27.3193 31.1074C27.1872 31.3125 27.1211 31.5632 27.1211 31.8594C27.1211 32.2923 27.2646 32.5954 27.5518 32.7686C27.8389 32.9372 28.1966 33.0215 28.625 33.0215ZM36.1787 37L37.7852 29.4736H38.79L38.6123 30.916H38.626C38.7992 30.679 39.0065 30.4398 39.248 30.1982C39.4941 29.9521 39.779 29.7471 40.1025 29.583C40.4307 29.4144 40.8021 29.3301 41.2168 29.3301C41.6178 29.3301 41.9619 29.4053 42.249 29.5557C42.5361 29.7015 42.7572 29.9157 42.9121 30.1982C43.0671 30.4762 43.1445 30.8135 43.1445 31.21C43.1445 31.4196 43.1286 31.6315 43.0967 31.8457C43.0648 32.0599 43.0306 32.2513 42.9941 32.4199L41.9961 37H40.7861L41.7979 32.2695C41.8389 32.0645 41.8708 31.889 41.8936 31.7432C41.9209 31.5973 41.9346 31.4606 41.9346 31.333C41.9346 31.014 41.848 30.7725 41.6748 30.6084C41.5016 30.4443 41.2464 30.3623 40.9092 30.3623C40.5765 30.3623 40.2256 30.4762 39.8564 30.7041C39.4873 30.932 39.1455 31.292 38.8311 31.7842C38.5166 32.2718 38.2728 32.9098 38.0996 33.6982L37.3955 37H36.1787ZM47.3486 37.1094C46.7744 37.1094 46.2799 36.9932 45.8652 36.7607C45.4505 36.5238 45.1315 36.1911 44.9082 35.7627C44.6895 35.3298 44.5801 34.8193 44.5801 34.2314C44.5801 33.7575 44.6325 33.2904 44.7373 32.8301C44.8421 32.3652 44.9971 31.9277 45.2021 31.5176C45.4072 31.1029 45.6602 30.7383 45.9609 30.4238C46.2663 30.1048 46.6172 29.8564 47.0137 29.6787C47.4102 29.4964 47.8522 29.4053 48.3398 29.4053C48.9232 29.4053 49.4199 29.5238 49.8301 29.7607C50.2448 29.9932 50.5615 30.3258 50.7803 30.7588C51.0036 31.1917 51.1152 31.7044 51.1152 32.2969C51.1152 32.7617 51.0628 33.2243 50.958 33.6846C50.8577 34.1449 50.7051 34.5824 50.5 34.9971C50.2995 35.4072 50.0465 35.7718 49.7412 36.0908C49.4404 36.4053 49.0895 36.6536 48.6885 36.8359C48.292 37.0182 47.8454 37.1094 47.3486 37.1094ZM47.417 36.166C47.6995 36.166 47.9684 36.1068 48.2236 35.9883C48.4788 35.8698 48.7113 35.6989 48.9209 35.4756C49.1305 35.2477 49.3105 34.972 49.4609 34.6484C49.6159 34.3203 49.7344 33.9489 49.8164 33.5342C49.903 33.1195 49.9463 32.6637 49.9463 32.167C49.9463 31.8708 49.8939 31.5837 49.7891 31.3057C49.6842 31.0277 49.5156 30.7998 49.2832 30.6221C49.0508 30.4398 48.7409 30.3486 48.3535 30.3486C48.0345 30.3486 47.7383 30.4147 47.4648 30.5469C47.196 30.679 46.9544 30.8659 46.7402 31.1074C46.526 31.349 46.3438 31.6338 46.1934 31.9619C46.0475 32.29 45.9336 32.6501 45.8516 33.042C45.7741 33.4339 45.7354 33.8464 45.7354 34.2793C45.7354 34.8763 45.8812 35.3411 46.1729 35.6738C46.4645 36.002 46.8792 36.166 47.417 36.166ZM52.1816 37L53.7676 29.5078H54.8887L54.1162 33.1172L57.7051 29.5078H59.1406L55.3535 33.2061L57.9102 37H56.5498L54.1025 33.2607L53.3232 37H52.1816ZM58.1016 40.3701C57.8783 40.3701 57.6982 40.3564 57.5615 40.3291C57.4202 40.3018 57.2835 40.2676 57.1514 40.2266V39.3037C57.2744 39.3356 57.4111 39.363 57.5615 39.3857C57.7119 39.4131 57.8714 39.4268 58.04 39.4268C58.4137 39.4268 58.735 39.3083 59.0039 39.0713C59.2728 38.8343 59.5348 38.4857 59.79 38.0254L60.3164 37.0889L59.168 29.5078H60.3164L60.8359 33.3564C60.8815 33.6572 60.918 33.9808 60.9453 34.3271C60.9727 34.6689 60.9932 34.9948 61.0068 35.3047C61.0205 35.61 61.0273 35.8584 61.0273 36.0498H61.0684C61.1322 35.8994 61.2279 35.6829 61.3555 35.4004C61.4831 35.1133 61.6198 34.8148 61.7656 34.5049C61.9115 34.195 62.0413 33.9352 62.1553 33.7256L64.4043 29.5078H65.6211L60.8223 38.2988C60.5762 38.7546 60.3232 39.1351 60.0635 39.4404C59.8083 39.7503 59.5234 39.9827 59.209 40.1377C58.8945 40.2926 58.5254 40.3701 58.1016 40.3701ZM65.2998 37L66.9062 29.4736H67.9111L67.7334 30.916H67.7471C67.9202 30.679 68.1276 30.4398 68.3691 30.1982C68.6152 29.9521 68.9001 29.7471 69.2236 29.583C69.5518 29.4144 69.9232 29.3301 70.3379 29.3301C70.7389 29.3301 71.083 29.4053 71.3701 29.5557C71.6572 29.7015 71.8783 29.9157 72.0332 30.1982C72.1882 30.4762 72.2656 30.8135 72.2656 31.21C72.2656 31.4196 72.2497 31.6315 72.2178 31.8457C72.1859 32.0599 72.1517 32.2513 72.1152 32.4199L71.1172 37H69.9072L70.9189 32.2695C70.96 32.0645 70.9919 31.889 71.0146 31.7432C71.042 31.5973 71.0557 31.4606 71.0557 31.333C71.0557 31.014 70.9691 30.7725 70.7959 30.6084C70.6227 30.4443 70.3675 30.3623 70.0303 30.3623C69.6976 30.3623 69.3467 30.4762 68.9775 30.7041C68.6084 30.932 68.2666 31.292 67.9521 31.7842C67.6377 32.2718 67.3939 32.9098 67.2207 33.6982L66.5166 37H65.2998ZM75.7246 37.1367C75.319 37.1367 74.9635 37.0387 74.6582 36.8428C74.3529 36.6468 74.1159 36.3574 73.9473 35.9746C73.7786 35.5918 73.6943 35.1247 73.6943 34.5732C73.6943 34.0218 73.7513 33.4909 73.8652 32.9805C73.9837 32.4701 74.1501 31.9961 74.3643 31.5586C74.5785 31.1211 74.8359 30.7383 75.1367 30.4102C75.4421 30.082 75.7839 29.8268 76.1621 29.6445C76.5404 29.4622 76.9482 29.3711 77.3857 29.3711C77.723 29.3711 78.0146 29.4349 78.2607 29.5625C78.5114 29.6901 78.7188 29.8587 78.8828 30.0684C79.0514 30.2734 79.1836 30.4922 79.2793 30.7246H79.3477L79.7852 29.5078H80.6533L79.0674 37H78.1582L78.3633 35.5508H78.3086C78.1035 35.8242 77.8688 36.0817 77.6045 36.3232C77.3402 36.5648 77.0508 36.7607 76.7363 36.9111C76.4219 37.0615 76.0846 37.1367 75.7246 37.1367ZM76.0938 36.1934C76.4447 36.1934 76.791 36.0658 77.1328 35.8105C77.4792 35.5508 77.7891 35.2021 78.0625 34.7646C78.3405 34.3226 78.5524 33.8258 78.6982 33.2744C78.7712 33.0055 78.819 32.7594 78.8418 32.5361C78.8691 32.3083 78.8828 32.0964 78.8828 31.9004C78.8828 31.431 78.7575 31.0527 78.5068 30.7656C78.2607 30.474 77.9235 30.3281 77.4951 30.3281C77.1898 30.3281 76.9027 30.4056 76.6338 30.5605C76.3649 30.7109 76.1211 30.9229 75.9023 31.1963C75.6882 31.4652 75.5036 31.7796 75.3486 32.1396C75.1937 32.4951 75.0729 32.8825 74.9863 33.3018C74.9043 33.721 74.8633 34.1517 74.8633 34.5938C74.8633 35.1178 74.9704 35.5166 75.1846 35.79C75.3988 36.0589 75.7018 36.1934 76.0938 36.1934ZM81.3301 37L82.9229 29.5078H83.8525L83.6748 30.957H83.7432C83.9072 30.7201 84.1055 30.4808 84.3379 30.2393C84.5703 29.9932 84.8392 29.7881 85.1445 29.624C85.4544 29.4554 85.8053 29.3711 86.1973 29.3711C86.7259 29.3711 87.127 29.5238 87.4004 29.8291C87.6738 30.1344 87.8333 30.5514 87.8789 31.0801H87.9268C88.109 30.8021 88.3278 30.5332 88.583 30.2734C88.8382 30.0091 89.1276 29.7926 89.4512 29.624C89.7793 29.4554 90.1393 29.3711 90.5312 29.3711C91.11 29.3711 91.5566 29.5283 91.8711 29.8428C92.1855 30.1572 92.3428 30.613 92.3428 31.21C92.3428 31.4242 92.3291 31.627 92.3018 31.8184C92.279 32.0098 92.2425 32.2057 92.1924 32.4062L91.2217 37H90.0732L91.085 32.2832C91.126 32.0781 91.1556 31.9004 91.1738 31.75C91.1966 31.5996 91.208 31.4561 91.208 31.3193C91.208 31.014 91.126 30.7725 90.9619 30.5947C90.7979 30.417 90.5449 30.3281 90.2031 30.3281C89.9616 30.3281 89.7109 30.3942 89.4512 30.5264C89.1914 30.6585 88.9385 30.859 88.6924 31.1279C88.4508 31.3923 88.2321 31.7272 88.0361 32.1328C87.8402 32.5384 87.6829 33.0146 87.5645 33.5615L86.833 37H85.6982L86.6963 32.3037C86.7373 32.0941 86.7669 31.9141 86.7852 31.7637C86.8079 31.6087 86.8193 31.4766 86.8193 31.3672C86.8193 31.0436 86.7441 30.7907 86.5938 30.6084C86.4434 30.4215 86.1973 30.3281 85.8555 30.3281C85.6139 30.3281 85.361 30.3919 85.0967 30.5195C84.8369 30.6471 84.584 30.8477 84.3379 31.1211C84.0918 31.3945 83.8662 31.7432 83.6611 32.167C83.4561 32.5908 83.292 33.1012 83.1689 33.6982L82.4717 37H81.3301ZM96.54 37.1367C95.9795 37.1367 95.4964 37.0251 95.0908 36.8018C94.6852 36.5739 94.373 36.2503 94.1543 35.8311C93.9401 35.4072 93.833 34.9014 93.833 34.3135C93.833 33.7074 93.9196 33.1126 94.0928 32.5293C94.2705 31.9414 94.5234 31.4105 94.8516 30.9365C95.1797 30.458 95.5739 30.0775 96.0342 29.7949C96.499 29.5124 97.0186 29.3711 97.5928 29.3711C98.2809 29.3711 98.8027 29.526 99.1582 29.8359C99.5137 30.1413 99.6914 30.5628 99.6914 31.1006C99.6914 31.4788 99.6025 31.8275 99.4248 32.1465C99.2516 32.4655 98.9827 32.7435 98.6182 32.9805C98.2581 33.2129 97.8001 33.3952 97.2441 33.5273C96.6927 33.6549 96.0387 33.7188 95.2822 33.7188H95.0225C95.0133 33.8008 95.0042 33.8919 94.9951 33.9922C94.9906 34.0924 94.9883 34.1859 94.9883 34.2725C94.9883 34.874 95.1341 35.3457 95.4258 35.6875C95.7174 36.0247 96.1549 36.1934 96.7383 36.1934C97.0983 36.1934 97.4378 36.1432 97.7568 36.043C98.0804 35.9382 98.4176 35.8014 98.7686 35.6328V36.6104C98.4313 36.7653 98.0918 36.8929 97.75 36.9932C97.4082 37.0889 97.0049 37.1367 96.54 37.1367ZM95.1865 32.7891H95.3506C95.9339 32.7891 96.4694 32.7389 96.957 32.6387C97.4447 32.5339 97.8366 32.3652 98.1328 32.1328C98.429 31.8958 98.5771 31.5814 98.5771 31.1895C98.5771 30.9342 98.4906 30.7246 98.3174 30.5605C98.1442 30.3965 97.8799 30.3145 97.5244 30.3145C97.21 30.3145 96.9001 30.4124 96.5947 30.6084C96.2894 30.7998 96.0114 31.0801 95.7607 31.4492C95.5146 31.8184 95.3232 32.265 95.1865 32.7891ZM100.054 37.0889C99.9398 37.0889 99.8327 37.0775 99.7324 37.0547C99.6322 37.0365 99.5547 37.0182 99.5 37V36.0156C99.5638 36.043 99.6344 36.0635 99.7119 36.0771C99.7848 36.0908 99.8646 36.0977 99.9512 36.0977C100.179 36.0977 100.382 36.043 100.56 35.9336C100.737 35.8242 100.901 35.651 101.052 35.4141C101.207 35.1771 101.359 34.8672 101.51 34.4844C101.665 34.1016 101.833 33.6367 102.016 33.0898C102.23 32.4655 102.435 31.9232 102.631 31.4629C102.831 31.0026 103.055 30.6243 103.301 30.3281C103.551 30.0273 103.854 29.804 104.21 29.6582C104.57 29.5124 105.017 29.4395 105.55 29.4395C105.855 29.4395 106.149 29.46 106.432 29.501C106.714 29.542 106.974 29.5944 107.211 29.6582L105.639 37H104.49L105.912 30.458C105.848 30.4443 105.769 30.4329 105.673 30.4238C105.582 30.4102 105.481 30.4033 105.372 30.4033C104.976 30.4033 104.652 30.4945 104.401 30.6768C104.155 30.8545 103.93 31.1667 103.725 31.6133C103.524 32.0553 103.287 32.6751 103.014 33.4727C102.809 34.0697 102.61 34.5938 102.419 35.0449C102.232 35.4961 102.032 35.8743 101.817 36.1797C101.608 36.4805 101.359 36.7083 101.072 36.8633C100.79 37.0137 100.45 37.0889 100.054 37.0889ZM107.895 37.0752C107.781 37.0752 107.678 37.0661 107.587 37.0479C107.491 37.0342 107.414 37.0182 107.354 37V36.0908C107.405 36.1045 107.459 36.1159 107.519 36.125C107.578 36.1296 107.637 36.1318 107.696 36.1318C107.86 36.1318 108.002 36.0977 108.12 36.0293C108.243 35.9564 108.362 35.8356 108.476 35.667C108.59 35.4984 108.717 35.266 108.858 34.9697C108.959 34.7555 109.068 34.5596 109.187 34.3818C109.305 34.1995 109.444 34.04 109.604 33.9033C109.768 33.7666 109.961 33.6595 110.185 33.582C109.87 33.4954 109.615 33.3678 109.419 33.1992C109.223 33.026 109.077 32.8255 108.981 32.5977C108.89 32.3652 108.845 32.1191 108.845 31.8594C108.845 31.5085 108.909 31.1895 109.036 30.9023C109.168 30.6152 109.357 30.3669 109.604 30.1572C109.854 29.9476 110.162 29.7881 110.526 29.6787C110.891 29.5648 111.306 29.5078 111.771 29.5078H114.587L113.008 37H111.88L112.529 33.999H111.6C111.281 33.999 111.023 34.0492 110.827 34.1494C110.631 34.2451 110.463 34.3932 110.321 34.5938C110.185 34.7897 110.041 35.0404 109.891 35.3457C109.717 35.7057 109.547 36.0156 109.378 36.2754C109.209 36.5352 109.011 36.7334 108.783 36.8701C108.555 37.0068 108.259 37.0752 107.895 37.0752ZM111.477 33.0215H112.728L113.268 30.4854H111.6C111.267 30.4854 110.978 30.5378 110.731 30.6426C110.49 30.7474 110.303 30.9023 110.171 31.1074C110.039 31.3125 109.973 31.5632 109.973 31.8594C109.973 32.2923 110.116 32.5954 110.403 32.7686C110.69 32.9372 111.048 33.0215 111.477 33.0215ZM119.03 37L120.637 29.4736H121.642L121.464 30.916H121.478C121.651 30.679 121.858 30.4398 122.1 30.1982C122.346 29.9521 122.631 29.7471 122.954 29.583C123.282 29.4144 123.654 29.3301 124.068 29.3301C124.469 29.3301 124.813 29.4053 125.101 29.5557C125.388 29.7015 125.609 29.9157 125.764 30.1982C125.919 30.4762 125.996 30.8135 125.996 31.21C125.996 31.4196 125.98 31.6315 125.948 31.8457C125.916 32.0599 125.882 32.2513 125.846 32.4199L124.848 37H123.638L124.649 32.2695C124.69 32.0645 124.722 31.889 124.745 31.7432C124.772 31.5973 124.786 31.4606 124.786 31.333C124.786 31.014 124.7 30.7725 124.526 30.6084C124.353 30.4443 124.098 30.3623 123.761 30.3623C123.428 30.3623 123.077 30.4762 122.708 30.7041C122.339 30.932 121.997 31.292 121.683 31.7842C121.368 32.2718 121.124 32.9098 120.951 33.6982L120.247 37H119.03ZM126.447 40.3496L128.737 29.5078H129.667L129.482 30.9639H129.53C129.744 30.6813 129.979 30.4215 130.234 30.1846C130.494 29.943 130.777 29.7493 131.082 29.6035C131.392 29.4577 131.729 29.3848 132.094 29.3848C132.504 29.3848 132.862 29.4827 133.167 29.6787C133.472 29.8701 133.709 30.1572 133.878 30.54C134.051 30.9183 134.138 31.39 134.138 31.9551C134.138 32.4928 134.083 33.0169 133.974 33.5273C133.869 34.0332 133.714 34.5049 133.509 34.9424C133.304 35.3753 133.051 35.7581 132.75 36.0908C132.454 36.4189 132.114 36.6764 131.731 36.8633C131.349 37.0456 130.927 37.1367 130.467 37.1367C130.116 37.1367 129.813 37.0752 129.558 36.9521C129.307 36.8245 129.095 36.6582 128.922 36.4531C128.753 36.248 128.619 36.027 128.519 35.79H128.457C128.439 35.9587 128.409 36.1797 128.368 36.4531C128.332 36.722 128.293 36.9476 128.252 37.1299L127.568 40.3496H126.447ZM130.385 36.1934C130.704 36.1934 130.995 36.1136 131.26 35.9541C131.529 35.7946 131.768 35.5781 131.978 35.3047C132.192 35.0267 132.372 34.7054 132.518 34.3408C132.668 33.9762 132.782 33.5889 132.859 33.1787C132.937 32.7686 132.976 32.3516 132.976 31.9277C132.976 31.3991 132.868 31.0003 132.654 30.7314C132.445 30.4626 132.13 30.3281 131.711 30.3281C131.492 30.3281 131.271 30.3828 131.048 30.4922C130.825 30.597 130.608 30.7474 130.398 30.9434C130.189 31.1348 129.993 31.3626 129.811 31.627C129.628 31.8913 129.469 32.1829 129.332 32.502C129.2 32.821 129.095 33.1582 129.018 33.5137C128.94 33.8691 128.901 34.2337 128.901 34.6074C128.901 35.0859 129.022 35.471 129.264 35.7627C129.51 36.0498 129.883 36.1934 130.385 36.1934ZM138.294 37.1094C137.72 37.1094 137.225 36.9932 136.811 36.7607C136.396 36.5238 136.077 36.1911 135.854 35.7627C135.635 35.3298 135.525 34.8193 135.525 34.2314C135.525 33.7575 135.578 33.2904 135.683 32.8301C135.787 32.3652 135.942 31.9277 136.147 31.5176C136.353 31.1029 136.605 30.7383 136.906 30.4238C137.212 30.1048 137.562 29.8564 137.959 29.6787C138.355 29.4964 138.798 29.4053 139.285 29.4053C139.868 29.4053 140.365 29.5238 140.775 29.7607C141.19 29.9932 141.507 30.3258 141.726 30.7588C141.949 31.1917 142.061 31.7044 142.061 32.2969C142.061 32.7617 142.008 33.2243 141.903 33.6846C141.803 34.1449 141.65 34.5824 141.445 34.9971C141.245 35.4072 140.992 35.7718 140.687 36.0908C140.386 36.4053 140.035 36.6536 139.634 36.8359C139.237 37.0182 138.791 37.1094 138.294 37.1094ZM138.362 36.166C138.645 36.166 138.914 36.1068 139.169 35.9883C139.424 35.8698 139.657 35.6989 139.866 35.4756C140.076 35.2477 140.256 34.972 140.406 34.6484C140.561 34.3203 140.68 33.9489 140.762 33.5342C140.848 33.1195 140.892 32.6637 140.892 32.167C140.892 31.8708 140.839 31.5837 140.734 31.3057C140.63 31.0277 140.461 30.7998 140.229 30.6221C139.996 30.4398 139.686 30.3486 139.299 30.3486C138.98 30.3486 138.684 30.4147 138.41 30.5469C138.141 30.679 137.9 30.8659 137.686 31.1074C137.471 31.349 137.289 31.6338 137.139 31.9619C136.993 32.29 136.879 32.6501 136.797 33.042C136.719 33.4339 136.681 33.8464 136.681 34.2793C136.681 34.8763 136.826 35.3411 137.118 35.6738C137.41 36.002 137.825 36.166 138.362 36.166ZM146.128 37.1367C145.567 37.1367 145.084 37.0251 144.679 36.8018C144.273 36.5739 143.961 36.2503 143.742 35.8311C143.528 35.4072 143.421 34.9014 143.421 34.3135C143.421 33.7074 143.507 33.1126 143.681 32.5293C143.858 31.9414 144.111 31.4105 144.439 30.9365C144.768 30.458 145.162 30.0775 145.622 29.7949C146.087 29.5124 146.606 29.3711 147.181 29.3711C147.869 29.3711 148.391 29.526 148.746 29.8359C149.102 30.1413 149.279 30.5628 149.279 31.1006C149.279 31.4788 149.19 31.8275 149.013 32.1465C148.84 32.4655 148.571 32.7435 148.206 32.9805C147.846 33.2129 147.388 33.3952 146.832 33.5273C146.281 33.6549 145.627 33.7188 144.87 33.7188H144.61C144.601 33.8008 144.592 33.8919 144.583 33.9922C144.578 34.0924 144.576 34.1859 144.576 34.2725C144.576 34.874 144.722 35.3457 145.014 35.6875C145.305 36.0247 145.743 36.1934 146.326 36.1934C146.686 36.1934 147.026 36.1432 147.345 36.043C147.668 35.9382 148.006 35.8014 148.356 35.6328V36.6104C148.019 36.7653 147.68 36.8929 147.338 36.9932C146.996 37.0889 146.593 37.1367 146.128 37.1367ZM144.774 32.7891H144.938C145.522 32.7891 146.057 32.7389 146.545 32.6387C147.033 32.5339 147.424 32.3652 147.721 32.1328C148.017 31.8958 148.165 31.5814 148.165 31.1895C148.165 30.9342 148.078 30.7246 147.905 30.5605C147.732 30.3965 147.468 30.3145 147.112 30.3145C146.798 30.3145 146.488 30.4124 146.183 30.6084C145.877 30.7998 145.599 31.0801 145.349 31.4492C145.103 31.8184 144.911 32.265 144.774 32.7891ZM150.1 37L151.686 29.5078H152.807L152.034 33.1172L155.623 29.5078H157.059L153.271 33.2061L155.828 37H154.468L152.021 33.2607L151.241 37H150.1ZM156.812 37L158.405 29.5078H159.335L159.157 30.957H159.226C159.39 30.7201 159.588 30.4808 159.82 30.2393C160.053 29.9932 160.322 29.7881 160.627 29.624C160.937 29.4554 161.288 29.3711 161.68 29.3711C162.208 29.3711 162.609 29.5238 162.883 29.8291C163.156 30.1344 163.316 30.5514 163.361 31.0801H163.409C163.591 30.8021 163.81 30.5332 164.065 30.2734C164.321 30.0091 164.61 29.7926 164.934 29.624C165.262 29.4554 165.622 29.3711 166.014 29.3711C166.592 29.3711 167.039 29.5283 167.354 29.8428C167.668 30.1572 167.825 30.613 167.825 31.21C167.825 31.4242 167.812 31.627 167.784 31.8184C167.761 32.0098 167.725 32.2057 167.675 32.4062L166.704 37H165.556L166.567 32.2832C166.608 32.0781 166.638 31.9004 166.656 31.75C166.679 31.5996 166.69 31.4561 166.69 31.3193C166.69 31.014 166.608 30.7725 166.444 30.5947C166.28 30.417 166.027 30.3281 165.686 30.3281C165.444 30.3281 165.193 30.3942 164.934 30.5264C164.674 30.6585 164.421 30.859 164.175 31.1279C163.933 31.3923 163.715 31.7272 163.519 32.1328C163.323 32.5384 163.165 33.0146 163.047 33.5615L162.315 37H161.181L162.179 32.3037C162.22 32.0941 162.249 31.9141 162.268 31.7637C162.29 31.6087 162.302 31.4766 162.302 31.3672C162.302 31.0436 162.227 30.7907 162.076 30.6084C161.926 30.4215 161.68 30.3281 161.338 30.3281C161.096 30.3281 160.843 30.3919 160.579 30.5195C160.319 30.6471 160.066 30.8477 159.82 31.1211C159.574 31.3945 159.349 31.7432 159.144 32.167C158.938 32.5908 158.774 33.1012 158.651 33.6982L157.954 37H156.812Z" fill="#D3413F"></path> <path d="M60.9941 49.5767C61.0364 49.3038 60.8495 49.0483 60.5767 49.0059C60.3038 48.9636 60.0483 49.1505 60.0059 49.4233L60.9941 49.5767ZM7.14282 78.6501C6.94958 78.8474 6.95285 79.1639 7.15011 79.3572L10.3647 82.5062C10.562 82.6994 10.8786 82.6962 11.0718 82.4989C11.265 82.3016 11.2618 81.9851 11.0645 81.7918L8.20707 78.9927L11.0062 76.1353C11.1994 75.938 11.1962 75.6214 10.9989 75.4282C10.8016 75.235 10.4851 75.2382 10.2918 75.4355L7.14282 78.6501ZM60.0059 49.4233C58.5528 58.7877 46.1172 78.1019 7.49485 78.5L7.50515 79.5C46.4828 79.0981 59.4472 59.5456 60.9941 49.5767L60.0059 49.4233Z" fill="#D3413F"></path> </svg> 