<?xml version="1.0" encoding="UTF-8"?> <svg xmlns="http://www.w3.org/2000/svg" width="60" height="60" viewBox="0 0 60 60" fill="none"> <circle cx="30" cy="30" r="30" fill="#D3413F"></circle> <g clip-path="url(#clip0_3161_1028)"> <path d="M29.0328 46.0002C28.4383 45.9221 27.8383 45.8643 27.2485 45.7533C22.45 44.851 18.7797 42.2924 16.275 38.1174C14.35 34.908 13.6242 31.3916 14.2828 27.7158C15.4602 21.1486 19.311 16.7986 25.6891 14.8401C29.2977 13.7322 32.8992 14.051 36.3805 15.5432C36.4586 15.5752 36.5281 15.6119 36.6336 15.6619L34.1563 18.1377C33.5891 17.9932 32.9531 17.8104 32.307 17.669C30.1641 17.2065 28.0539 17.3565 25.9789 18.0526C23.7339 18.7919 21.7431 20.1496 20.2352 21.9697C18.6477 23.8705 17.6735 26.0549 17.361 28.5236C17.0117 31.1299 17.5044 33.7796 18.7672 36.0861C19.9949 38.3999 21.9137 40.2731 24.2563 41.4447C26.1681 42.4313 28.3045 42.9015 30.4539 42.8088C32.9695 42.708 35.2539 41.9111 37.3055 40.4541C39.2036 39.1173 40.6955 37.2821 41.6164 35.151C42.3888 33.4182 42.7459 31.529 42.6594 29.6338C42.6047 28.433 42.3938 27.2619 42.1125 26.101C42.0649 25.9049 42.086 25.7799 42.2399 25.6393C42.9695 24.9744 43.686 24.2963 44.4274 23.608C44.8837 24.4795 45.2208 25.4084 45.4297 26.3697C46.6016 31.8627 45.3735 36.7432 41.586 40.9096C39.1422 43.5869 36.0774 45.1807 32.5063 45.7947C31.9766 45.8854 31.4391 45.933 30.9047 46.0002H29.0328Z" fill="white"></path> <path d="M34 21.4305C33.8977 21.5524 33.8266 21.6493 33.743 21.7329C33.0985 22.3813 32.4399 23.0172 31.8102 23.6797C31.6094 23.8907 31.4149 23.9321 31.15 23.8829C30.208 23.7056 29.2384 23.7392 28.311 23.9813C25.2336 24.7696 23.1492 27.9962 23.7078 31.1297C24.2977 34.4415 27.1524 36.6766 30.4914 36.4462C33.7532 36.2188 36.3508 33.3704 36.3242 30.0344C36.3242 29.5907 36.2461 29.1477 36.218 28.7063C36.2107 28.5887 36.2463 28.4724 36.318 28.379C36.961 27.6712 37.618 26.9766 38.2672 26.2751C38.4407 26.0876 38.5375 26.1188 38.6469 26.3469C40.2555 29.6977 39.5133 33.7688 37.0649 36.4469C34.9039 38.8087 32.2063 39.9102 29.0219 39.5774C25.6008 39.2196 23.0492 37.4454 21.486 34.3868C20.0016 31.4782 20.0492 28.4985 21.5899 25.6305C23.0992 22.818 25.5032 21.1688 28.6703 20.6844C30.4485 20.4133 32.1641 20.7172 33.8336 21.3422C33.8672 21.3524 33.9008 21.3766 34 21.4305Z" fill="white"></path> <path d="M40.1375 14.0869V15.0479C40.1375 16.0635 40.1313 17.0846 40.1446 18.1033C40.152 18.2516 40.2093 18.3931 40.3071 18.5049C40.6602 18.8861 41.0266 19.2557 41.4094 19.6064C41.5297 19.7106 41.6817 19.7709 41.8407 19.7775C43.036 19.7908 44.2313 19.7846 45.4266 19.7846H45.8211C45.7243 19.8963 45.6711 19.9658 45.6094 20.0275C44.2211 21.4174 42.8352 22.8096 41.4375 24.1893C41.3041 24.3106 41.1356 24.3867 40.9563 24.4064C39.9125 24.5111 38.8657 24.5861 37.8211 24.6885C37.6707 24.7107 37.5311 24.7802 37.4227 24.8869C36.0055 26.2932 34.5985 27.7057 33.1829 29.1127C33.0508 29.2447 33.0266 29.3471 33.0719 29.5424C33.2821 30.4369 33.0657 31.2658 32.5149 31.9783C31.3125 33.5338 29.3524 33.7228 27.8532 32.458C26.4547 31.2783 26.4516 28.9674 27.8352 27.7705C28.5032 27.1916 29.2704 26.8869 30.1477 26.9385C30.6055 26.9658 30.9125 26.8088 31.2266 26.4869C32.5243 25.1549 33.8532 23.8525 35.1586 22.5244C35.2863 22.3833 35.3666 22.2057 35.3883 22.0166C35.4938 20.983 35.5688 19.9471 35.668 18.9127C35.6819 18.7712 35.7393 18.6375 35.8321 18.5299C37.2112 17.0887 38.5959 15.6523 39.986 14.2205C40.0157 14.1932 40.0485 14.165 40.1375 14.0869Z" fill="white"></path> </g> <defs> <clipPath id="clip0_3161_1028"> <rect width="32" height="32" fill="white" transform="translate(14 14)"></rect> </clipPath> </defs> </svg> 