<?xml version="1.0" encoding="UTF-8"?> <svg xmlns="http://www.w3.org/2000/svg" width="100" height="100" viewBox="0 0 100 100" fill="none"> <circle cx="50" cy="50" r="50" fill="#D3413F"></circle> <g clip-path="url(#clip0_3161_1186)"> <path d="M62.6522 74.1406H64.3794V33.7551C64.3794 33.479 64.6033 33.2551 64.8794 33.2551H64.9256C69.2 33.2551 73.4744 33.2607 77.7488 33.2456C78.1501 33.2456 78.2499 33.3472 78.2499 33.7505C78.2377 47.0223 78.2346 60.2938 78.2404 73.565V74.1557H79.4446C79.7207 74.1557 79.9446 74.3796 79.9446 74.6557V75.4817C79.9446 75.7578 79.7207 75.9817 79.4446 75.9817H20.5625C20.2864 75.9817 20.0625 75.7578 20.0625 75.4817V74.6716C20.0625 74.3954 20.2864 74.1716 20.5625 74.1716H21.7541V33.7805C21.7541 33.5044 21.9779 33.2805 22.2541 33.2805H35.1063C35.3825 33.2805 35.6063 33.5044 35.6063 33.7805V74.1374H37.3026V24.5325C37.3026 24.2563 37.5265 24.0325 37.8026 24.0325H62.1522C62.4284 24.0325 62.6522 24.2563 62.6522 24.5325V74.1406ZM52.3322 74.1406C52.6083 74.1406 52.8322 73.9168 52.8322 73.6406V67.9719C52.8322 67.6958 52.6083 67.4719 52.3322 67.4719H47.6749C47.3988 67.4719 47.1749 67.6958 47.1749 67.9719V73.6406C47.1749 73.9168 47.3988 74.1406 47.6749 74.1406H52.3322ZM43.5607 28.1256C43.5607 27.8495 43.3368 27.6256 43.0607 27.6256H40.1678C39.8917 27.6256 39.6678 27.8495 39.6678 28.1256V30.6188C39.6678 30.8949 39.8917 31.1188 40.1678 31.1188H43.0607C43.3368 31.1188 43.5607 30.8949 43.5607 30.6188V28.1256ZM56.9528 27.6137C56.6766 27.6137 56.4528 27.8376 56.4528 28.1137V30.6172C56.4528 30.8933 56.6766 31.1172 56.9528 31.1172H59.8314C60.1075 31.1172 60.3314 30.8933 60.3314 30.6172V28.1137C60.3314 27.8376 60.1075 27.6137 59.8314 27.6137H56.9528ZM39.6551 39.038C39.6551 39.3141 39.879 39.538 40.1551 39.538H43.0504C43.3265 39.538 43.5504 39.3141 43.5504 39.038V36.5369C43.5504 36.2608 43.3265 36.0369 43.0504 36.0369H40.1551C39.879 36.0369 39.6551 36.2608 39.6551 36.5369V39.038ZM48.0459 39.033C48.0457 39.3092 48.2696 39.5332 48.5459 39.5332H51.4346C51.7107 39.5332 51.9346 39.3094 51.9346 39.0332V36.5401C51.9346 36.264 51.7107 36.0401 51.4346 36.0401H48.547C48.2709 36.0401 48.0471 36.2638 48.047 36.5399L48.0459 39.033ZM59.833 39.5483C60.1091 39.5483 60.333 39.3245 60.333 39.0483V36.5377C60.333 36.2616 60.1091 36.0377 59.833 36.0377H56.9488C56.6727 36.0377 56.4488 36.2616 56.4488 36.5377V39.0483C56.4488 39.3245 56.6727 39.5483 56.9488 39.5483H59.833ZM48.048 30.6235C48.048 30.8997 48.2719 31.1235 48.548 31.1235H51.4425C51.7186 31.1235 51.9425 30.8997 51.9425 30.6235V28.1209C51.9425 27.8447 51.7186 27.6209 51.4425 27.6209H48.548C48.2719 27.6209 48.048 27.8447 48.048 28.1209V30.6235ZM43.0488 47.9668C43.325 47.9668 43.5488 47.7429 43.5488 47.4668V44.9562C43.5488 44.68 43.325 44.4562 43.0488 44.4562H40.1654C39.8893 44.4562 39.6654 44.68 39.6654 44.9562V47.4668C39.6654 47.7429 39.8893 47.9668 40.1654 47.9668H43.0488ZM51.9464 44.9522C51.9464 44.6761 51.7226 44.4522 51.4464 44.4522H48.5528C48.2766 44.4522 48.0528 44.6761 48.0528 44.9522V47.4453C48.0528 47.7215 48.2766 47.9453 48.5528 47.9453H51.4464C51.7226 47.9453 51.9464 47.7215 51.9464 47.4453V44.9522ZM56.9512 44.4458C56.675 44.4458 56.4512 44.6697 56.4512 44.9458V47.4517C56.4512 47.7278 56.675 47.9517 56.9512 47.9517H59.8298C60.106 47.9517 60.3298 47.7278 60.3298 47.4517V44.9458C60.3298 44.6697 60.106 44.4458 59.8298 44.4458H56.9512ZM56.4433 64.2806C56.4433 64.5568 56.6671 64.7806 56.9433 64.7806H59.8409C60.117 64.7806 60.3409 64.5568 60.3409 64.2806V61.8018C60.3409 61.5256 60.117 61.3018 59.8409 61.3018H56.9433C56.6671 61.3018 56.4433 61.5256 56.4433 61.8018V64.2806ZM51.9583 61.8034C51.9583 61.5272 51.7344 61.3034 51.4583 61.3034H48.552C48.2758 61.3034 48.052 61.5272 48.052 61.8034V64.279C48.052 64.5552 48.2758 64.779 48.552 64.779H51.4583C51.7344 64.779 51.9583 64.5552 51.9583 64.279V61.8034ZM43.053 64.796C43.3294 64.7963 43.5536 64.5723 43.5536 64.296V61.7899C43.5536 61.5137 43.3297 61.2899 43.0536 61.2899H40.1615C39.8853 61.2899 39.6615 61.5137 39.6615 61.7899V64.293C39.6615 64.569 39.885 64.7928 40.161 64.793L43.053 64.796ZM59.8456 56.3836C60.1218 56.3836 60.3456 56.1598 60.3456 55.8836V53.3802C60.3456 53.104 60.1218 52.8802 59.8456 52.8802H56.9528C56.6766 52.8802 56.4528 53.104 56.4528 53.3802V55.8836C56.4528 56.1598 56.6766 56.3836 56.9528 56.3836H59.8456ZM43.565 53.3862C43.5648 53.1102 43.341 52.8865 43.065 52.8865H40.1599C39.8837 52.8865 39.6599 53.1104 39.6599 53.3865V55.8638C39.6599 56.1399 39.8837 56.3638 40.1599 56.3638H43.0667C43.3429 56.3638 43.5669 56.1397 43.5667 55.8634L43.565 53.3862ZM51.4488 56.3796C51.7249 56.3796 51.9488 56.1558 51.9488 55.8796V53.3786C51.9488 53.1024 51.7249 52.8786 51.4488 52.8786H48.5607C48.2845 52.8786 48.0607 53.1024 48.0607 53.3786V55.8796C48.0607 56.1558 48.2845 56.3796 48.5607 56.3796H51.4488ZM74.7223 63.4602C74.7221 63.7365 74.946 63.9605 75.2223 63.9605H76.2451C76.5213 63.9605 76.7451 63.7367 76.7451 63.4605V61.1437C76.7451 60.8675 76.5213 60.6437 76.2451 60.6437H75.2239C74.9479 60.6437 74.7241 60.8673 74.7239 61.1433L74.7223 63.4602ZM70.79 60.6341C70.5135 60.6337 70.2892 60.8577 70.2892 61.1341V63.4605C70.2892 63.7367 70.513 63.9605 70.7892 63.9605H71.7997C72.0759 63.9605 72.2997 63.7367 72.2997 63.4605V61.1357C72.2997 60.8599 72.0764 60.6362 71.8005 60.6357L70.79 60.6341ZM66.3567 60.6335C66.0804 60.6334 65.8565 60.8573 65.8565 61.1335V63.4574C65.8565 63.7335 66.0803 63.9574 66.3565 63.9574H67.3702C67.6463 63.9574 67.8702 63.7335 67.8702 63.4574V61.1339C67.8702 60.8579 67.6464 60.634 67.3704 60.6339L66.3567 60.6335ZM32.1108 63.4653C32.1108 63.7414 32.3347 63.9653 32.6108 63.9653H33.6261C33.9023 63.9653 34.1261 63.7414 34.1261 63.4653V61.1405C34.1261 60.8643 33.9023 60.6405 33.6261 60.6405H32.6108C32.3347 60.6405 32.1108 60.8643 32.1108 61.1405V63.4653ZM29.1981 63.9693C29.4743 63.9693 29.6981 63.7454 29.6981 63.4693V61.1349C29.6981 60.8588 29.4743 60.6349 29.1981 60.6349H28.1923C27.9162 60.6349 27.6923 60.8588 27.6923 61.1349V63.4693C27.6923 63.7454 27.9162 63.9693 28.1923 63.9693H29.1981ZM25.2852 61.1476C25.2852 60.8715 25.0614 60.6476 24.7852 60.6476H23.758C23.4819 60.6476 23.258 60.8715 23.258 61.1476V63.4589C23.258 63.7351 23.4819 63.9589 23.758 63.9589H24.7852C25.0614 63.9589 25.2852 63.7351 25.2852 63.4589V61.1476ZM23.2517 47.493C23.2517 47.7691 23.4756 47.993 23.7517 47.993H24.7757C25.0519 47.993 25.2757 47.7691 25.2757 47.493V45.1761C25.2757 44.8999 25.0519 44.6761 24.7757 44.6761H23.7517C23.4756 44.6761 23.2517 44.8999 23.2517 45.1761V47.493ZM29.2037 48.0001C29.4798 48.0001 29.7037 47.7762 29.7037 47.5001V45.1785C29.7037 44.9023 29.4798 44.6785 29.2037 44.6785H28.1852C27.9091 44.6785 27.6852 44.9023 27.6852 45.1785V47.5001C27.6852 47.7762 27.9091 48.0001 28.1852 48.0001H29.2037ZM33.6404 47.9938C33.9165 47.9938 34.1404 47.7699 34.1404 47.4938V45.1745C34.1404 44.8983 33.9165 44.6745 33.6404 44.6745H32.6108C32.3347 44.6745 32.1108 44.8983 32.1108 45.1745V47.4938C32.1108 47.7699 32.3347 47.9938 32.6108 47.9938H33.6404ZM66.3596 44.6594C66.0835 44.6594 65.8596 44.8833 65.8596 45.1594V47.4938C65.8596 47.7699 66.0835 47.9938 66.3596 47.9938H67.3733C67.6495 47.9938 67.8733 47.7699 67.8733 47.4938V45.1594C67.8733 44.8833 67.6495 44.6594 67.3733 44.6594H66.3596ZM71.8179 47.9945C72.0938 47.9941 72.3171 47.7704 72.3171 47.4945V45.1761C72.3171 44.8999 72.0933 44.6761 71.8171 44.6761H70.79C70.5138 44.6761 70.29 44.8999 70.29 45.1761V47.4961C70.29 47.7726 70.5143 47.9966 70.7908 47.9961L71.8179 47.9945ZM76.2342 47.994C76.5103 47.9938 76.734 47.77 76.734 47.494V45.1753C76.734 44.8991 76.5102 44.6753 76.234 44.6753H75.2219C74.9458 44.6753 74.7219 44.8991 74.7219 45.1753V47.4944C74.7219 47.7706 74.9459 47.9945 75.2221 47.9944L76.2342 47.994ZM75.2306 52.6587C74.9545 52.6587 74.7306 52.8825 74.7306 53.1587V55.4692C74.7306 55.7453 74.9545 55.9692 75.2306 55.9692H76.242C76.5181 55.9692 76.742 55.7453 76.742 55.4692V53.1587C76.742 52.8825 76.5181 52.6587 76.242 52.6587H75.2306ZM71.8132 55.9835C72.0896 55.9839 72.314 55.76 72.314 55.4835V53.1682C72.314 52.8921 72.0901 52.6682 71.814 52.6682H70.7947C70.5186 52.6682 70.2947 52.8921 70.2947 53.1682V55.4819C70.2947 55.7577 70.5181 55.9815 70.7939 55.9819L71.8132 55.9835ZM66.3604 52.6634C66.0843 52.6634 65.8604 52.8873 65.8604 53.1634V55.4764C65.8604 55.7525 66.0843 55.9764 66.3604 55.9764H67.3892C67.6653 55.9764 67.8892 55.7525 67.8892 55.4764V53.1634C67.8892 52.8873 67.6653 52.6634 67.3892 52.6634H66.3604ZM32.6187 52.6626C32.3429 52.6631 32.1195 52.8868 32.1195 53.1626V55.4724C32.1195 55.7485 32.3434 55.9724 32.6195 55.9724H33.6332C33.9094 55.9724 34.1332 55.7485 34.1332 55.4724V53.161C34.1332 52.8846 33.9089 52.6606 33.6325 52.661L32.6187 52.6626ZM29.1981 55.9811C29.4743 55.9811 29.6981 55.7573 29.6981 55.4811V53.1626C29.6981 52.8865 29.4743 52.6626 29.1981 52.6626H28.1916C27.9154 52.6626 27.6916 52.8865 27.6916 53.1626V55.4811C27.6916 55.7573 27.9154 55.9811 28.1916 55.9811H29.1981ZM25.2773 53.1682C25.2773 52.8921 25.0534 52.6682 24.7773 52.6682H23.7628C23.4867 52.6682 23.2628 52.8921 23.2628 53.1682V55.4787C23.2628 55.7549 23.4867 55.9787 23.7628 55.9787H24.7773C25.0534 55.9787 25.2773 55.7549 25.2773 55.4787V53.1682ZM74.7227 39.5127C74.7227 39.7889 74.9465 40.0127 75.2227 40.0127H76.2364C76.5126 40.0127 76.7364 39.7889 76.7364 39.5127V37.2006C76.7364 36.9245 76.5126 36.7006 76.2364 36.7006H75.2227C74.9465 36.7006 74.7227 36.9245 74.7227 37.2006V39.5127ZM70.79 36.6967C70.5138 36.6967 70.29 36.9205 70.29 37.1967V39.5104C70.29 39.7865 70.5138 40.0104 70.79 40.0104H71.814C72.0901 40.0104 72.314 39.7865 72.314 39.5104V37.1967C72.314 36.9205 72.0901 36.6967 71.814 36.6967H70.79ZM65.8521 39.5076C65.8519 39.7839 66.0758 40.008 66.3521 40.008H67.3813C67.6574 40.008 67.8813 39.7841 67.8813 39.508V37.2062C67.8813 36.93 67.6574 36.7062 67.3813 36.7062H66.3537C66.0777 36.7062 65.8539 36.9298 65.8537 37.2058L65.8521 39.5076ZM33.6356 40.0159C33.9118 40.0159 34.1356 39.7921 34.1356 39.5159V37.203C34.1356 36.9269 33.9118 36.703 33.6356 36.703H32.6108C32.3347 36.703 32.1108 36.9269 32.1108 37.203V39.5159C32.1108 39.7921 32.3347 40.0159 32.6108 40.0159H33.6356ZM28.19 36.6974C27.9138 36.6974 27.69 36.9213 27.69 37.1974V39.5008C27.69 39.777 27.9138 40.0008 28.19 40.0008H29.1974C29.4735 40.0008 29.6974 39.777 29.6974 39.5008V37.1974C29.6974 36.9213 29.4735 36.6974 29.1974 36.6974H28.19ZM25.2836 69.1366C25.2836 68.8604 25.0598 68.6366 24.7836 68.6366H23.7565C23.4803 68.6366 23.2565 68.8604 23.2565 69.1366V71.4336C23.2565 71.7097 23.4803 71.9336 23.7565 71.9336H24.7836C25.0598 71.9336 25.2836 71.7097 25.2836 71.4336V69.1366ZM27.6733 71.4328C27.6733 71.7089 27.8972 71.9328 28.1733 71.9328H29.2021C29.4782 71.9328 29.7021 71.7089 29.7021 71.4328V69.1374C29.7021 68.8612 29.4782 68.6374 29.2021 68.6374H28.1733C27.8972 68.6374 27.6733 68.8612 27.6733 69.1374V71.4328ZM34.1435 69.1421C34.1435 68.866 33.9197 68.6421 33.6435 68.6421H32.6235C32.3473 68.6421 32.1235 68.866 32.1235 69.1421V71.428C32.1235 71.7042 32.3473 71.928 32.6235 71.928H33.6435C33.9197 71.928 34.1435 71.7042 34.1435 71.428V69.1421ZM67.3797 71.9479C67.6558 71.9479 67.8797 71.724 67.8797 71.4479V69.1381C67.8797 68.862 67.6558 68.6381 67.3797 68.6381H66.3652C66.089 68.6381 65.8652 68.862 65.8652 69.1381V71.4479C65.8652 71.724 66.089 71.9479 66.3652 71.9479H67.3797ZM70.7963 68.6254C70.5202 68.6254 70.2963 68.8493 70.2963 69.1254V71.4368C70.2963 71.7129 70.5202 71.9368 70.7963 71.9368H71.8124C72.0885 71.9368 72.3124 71.7129 72.3124 71.4368V69.1254C72.3124 68.8493 72.0885 68.6254 71.8124 68.6254H70.7963ZM74.7195 71.4392C74.7195 71.7153 74.9434 71.9392 75.2195 71.9392H76.2467C76.5228 71.9392 76.7467 71.7153 76.7467 71.4392V69.1342C76.7467 68.858 76.5228 68.6342 76.2467 68.6342H75.2195C74.9434 68.6342 74.7195 68.858 74.7195 69.1342V71.4392ZM24.772 40.0201C25.0477 40.0195 25.271 39.7958 25.271 39.5201V37.2109C25.271 36.9348 25.0471 36.7109 24.771 36.7109H23.7565C23.4803 36.7109 23.2565 36.9348 23.2565 37.2109V39.5221C23.2565 39.7986 23.4809 40.0226 23.7574 40.0221L24.772 40.0201Z" fill="white"></path> </g> <defs> <clipPath id="clip0_3161_1186"> <rect x="20" y="24" width="60" height="52" rx="0.5" fill="white"></rect> </clipPath> </defs> </svg> 