<?xml version="1.0" encoding="UTF-8"?> <svg xmlns="http://www.w3.org/2000/svg" width="178" height="109" viewBox="0 0 178 109" fill="none"> <path d="M1.03516 17L3.14746 7.00586H9.99023L7.87793 17H6.71582L8.60938 8.03125H4.08398L2.18359 17H1.03516ZM9.64844 20.3496L11.9385 9.50781H12.8682L12.6836 10.9639H12.7314C12.9456 10.6813 13.1803 10.4215 13.4355 10.1846C13.6953 9.94303 13.9779 9.74935 14.2832 9.60352C14.5931 9.45768 14.9303 9.38477 15.2949 9.38477C15.7051 9.38477 16.0628 9.48275 16.3682 9.67871C16.6735 9.87012 16.9105 10.1572 17.0791 10.54C17.2523 10.9183 17.3389 11.39 17.3389 11.9551C17.3389 12.4928 17.2842 13.0169 17.1748 13.5273C17.07 14.0332 16.915 14.5049 16.71 14.9424C16.5049 15.3753 16.252 15.7581 15.9512 16.0908C15.6549 16.4189 15.3154 16.6764 14.9326 16.8633C14.5498 17.0456 14.1283 17.1367 13.668 17.1367C13.3171 17.1367 13.014 17.0752 12.7588 16.9521C12.5081 16.8245 12.2962 16.6582 12.123 16.4531C11.9544 16.248 11.82 16.027 11.7197 15.79H11.6582C11.64 15.9587 11.6104 16.1797 11.5693 16.4531C11.5329 16.722 11.4941 16.9476 11.4531 17.1299L10.7695 20.3496H9.64844ZM13.5859 16.1934C13.9049 16.1934 14.1966 16.1136 14.4609 15.9541C14.7298 15.7946 14.9691 15.5781 15.1787 15.3047C15.3929 15.0267 15.5729 14.7054 15.7188 14.3408C15.8691 13.9762 15.9831 13.5889 16.0605 13.1787C16.138 12.7686 16.1768 12.3516 16.1768 11.9277C16.1768 11.3991 16.0697 11.0003 15.8555 10.7314C15.6458 10.4626 15.3314 10.3281 14.9121 10.3281C14.6934 10.3281 14.4723 10.3828 14.249 10.4922C14.0257 10.597 13.8092 10.7474 13.5996 10.9434C13.39 11.1348 13.194 11.3626 13.0117 11.627C12.8294 11.8913 12.6699 12.1829 12.5332 12.502C12.401 12.821 12.2962 13.1582 12.2188 13.5137C12.1413 13.8691 12.1025 14.2337 12.1025 14.6074C12.1025 15.0859 12.2233 15.471 12.4648 15.7627C12.7109 16.0498 13.0846 16.1934 13.5859 16.1934ZM21.4951 17.1094C20.9209 17.1094 20.4264 16.9932 20.0117 16.7607C19.597 16.5238 19.278 16.1911 19.0547 15.7627C18.8359 15.3298 18.7266 14.8193 18.7266 14.2314C18.7266 13.7575 18.779 13.2904 18.8838 12.8301C18.9886 12.3652 19.1436 11.9277 19.3486 11.5176C19.5537 11.1029 19.8066 10.7383 20.1074 10.4238C20.4128 10.1048 20.7637 9.85645 21.1602 9.67871C21.5566 9.49642 21.9987 9.40527 22.4863 9.40527C23.0697 9.40527 23.5664 9.52376 23.9766 9.76074C24.3913 9.99316 24.708 10.3258 24.9268 10.7588C25.1501 11.1917 25.2617 11.7044 25.2617 12.2969C25.2617 12.7617 25.2093 13.2243 25.1045 13.6846C25.0042 14.1449 24.8516 14.5824 24.6465 14.9971C24.446 15.4072 24.193 15.7718 23.8877 16.0908C23.5869 16.4053 23.236 16.6536 22.835 16.8359C22.4385 17.0182 21.9919 17.1094 21.4951 17.1094ZM21.5635 16.166C21.846 16.166 22.1149 16.1068 22.3701 15.9883C22.6253 15.8698 22.8577 15.6989 23.0674 15.4756C23.277 15.2477 23.457 14.972 23.6074 14.6484C23.7624 14.3203 23.8809 13.9489 23.9629 13.5342C24.0495 13.1195 24.0928 12.6637 24.0928 12.167C24.0928 11.8708 24.0404 11.5837 23.9355 11.3057C23.8307 11.0277 23.6621 10.7998 23.4297 10.6221C23.1973 10.4398 22.8874 10.3486 22.5 10.3486C22.181 10.3486 21.8848 10.4147 21.6113 10.5469C21.3424 10.679 21.1009 10.8659 20.8867 11.1074C20.6725 11.349 20.4902 11.6338 20.3398 11.9619C20.194 12.29 20.0801 12.6501 19.998 13.042C19.9206 13.4339 19.8818 13.8464 19.8818 14.2793C19.8818 14.8763 20.0277 15.3411 20.3193 15.6738C20.611 16.002 21.0257 16.166 21.5635 16.166ZM29.3291 17.1367C28.7686 17.1367 28.2855 17.0251 27.8799 16.8018C27.4743 16.5739 27.1621 16.2503 26.9434 15.8311C26.7292 15.4072 26.6221 14.9014 26.6221 14.3135C26.6221 13.7074 26.7087 13.1126 26.8818 12.5293C27.0596 11.9414 27.3125 11.4105 27.6406 10.9365C27.9688 10.458 28.363 10.0775 28.8232 9.79492C29.2881 9.51237 29.8076 9.37109 30.3818 9.37109C31.07 9.37109 31.5918 9.52604 31.9473 9.83594C32.3027 10.1413 32.4805 10.5628 32.4805 11.1006C32.4805 11.4788 32.3916 11.8275 32.2139 12.1465C32.0407 12.4655 31.7718 12.7435 31.4072 12.9805C31.0472 13.2129 30.5892 13.3952 30.0332 13.5273C29.4818 13.6549 28.8278 13.7188 28.0713 13.7188H27.8115C27.8024 13.8008 27.7933 13.8919 27.7842 13.9922C27.7796 14.0924 27.7773 14.1859 27.7773 14.2725C27.7773 14.874 27.9232 15.3457 28.2148 15.6875C28.5065 16.0247 28.944 16.1934 29.5273 16.1934C29.8874 16.1934 30.2269 16.1432 30.5459 16.043C30.8695 15.9382 31.2067 15.8014 31.5576 15.6328V16.6104C31.2204 16.7653 30.8809 16.8929 30.5391 16.9932C30.1973 17.0889 29.7939 17.1367 29.3291 17.1367ZM27.9756 12.7891H28.1396C28.723 12.7891 29.2585 12.7389 29.7461 12.6387C30.2337 12.5339 30.6257 12.3652 30.9219 12.1328C31.2181 11.8958 31.3662 11.5814 31.3662 11.1895C31.3662 10.9342 31.2796 10.7246 31.1064 10.5605C30.9333 10.3965 30.6689 10.3145 30.3135 10.3145C29.999 10.3145 29.6891 10.4124 29.3838 10.6084C29.0785 10.7998 28.8005 11.0801 28.5498 11.4492C28.3037 11.8184 28.1123 12.265 27.9756 12.7891ZM33.3008 17L34.8867 9.50781H36.0078L35.2354 13.1172L38.8242 9.50781H40.2598L36.4727 13.2061L39.0293 17H37.6689L35.2217 13.2607L34.4424 17H33.3008ZM40.0137 17L41.6064 9.50781H42.5361L42.3584 10.957H42.4268C42.5908 10.7201 42.7891 10.4808 43.0215 10.2393C43.2539 9.99316 43.5228 9.78809 43.8281 9.62402C44.138 9.4554 44.4889 9.37109 44.8809 9.37109C45.4095 9.37109 45.8105 9.52376 46.084 9.8291C46.3574 10.1344 46.5169 10.5514 46.5625 11.0801H46.6104C46.7926 10.8021 47.0114 10.5332 47.2666 10.2734C47.5218 10.0091 47.8112 9.79264 48.1348 9.62402C48.4629 9.4554 48.8229 9.37109 49.2148 9.37109C49.7936 9.37109 50.2402 9.52832 50.5547 9.84277C50.8691 10.1572 51.0264 10.613 51.0264 11.21C51.0264 11.4242 51.0127 11.627 50.9854 11.8184C50.9626 12.0098 50.9261 12.2057 50.876 12.4062L49.9053 17H48.7568L49.7686 12.2832C49.8096 12.0781 49.8392 11.9004 49.8574 11.75C49.8802 11.5996 49.8916 11.4561 49.8916 11.3193C49.8916 11.014 49.8096 10.7725 49.6455 10.5947C49.4814 10.417 49.2285 10.3281 48.8867 10.3281C48.6452 10.3281 48.3945 10.3942 48.1348 10.5264C47.875 10.6585 47.6221 10.859 47.376 11.1279C47.1344 11.3923 46.9157 11.7272 46.7197 12.1328C46.5238 12.5384 46.3665 13.0146 46.248 13.5615L45.5166 17H44.3818L45.3799 12.3037C45.4209 12.0941 45.4505 11.9141 45.4688 11.7637C45.4915 11.6087 45.5029 11.4766 45.5029 11.3672C45.5029 11.0436 45.4277 10.7907 45.2773 10.6084C45.127 10.4215 44.8809 10.3281 44.5391 10.3281C44.2975 10.3281 44.0446 10.3919 43.7803 10.5195C43.5205 10.6471 43.2676 10.8477 43.0215 11.1211C42.7754 11.3945 42.5498 11.7432 42.3447 12.167C42.1396 12.5908 41.9756 13.1012 41.8525 13.6982L41.1553 17H40.0137ZM55.8115 17L57.418 9.47363H58.4229L58.2451 10.916H58.2588C58.432 10.679 58.6393 10.4398 58.8809 10.1982C59.127 9.95215 59.4118 9.74707 59.7354 9.58301C60.0635 9.41439 60.4349 9.33008 60.8496 9.33008C61.2507 9.33008 61.5947 9.40527 61.8818 9.55566C62.1689 9.7015 62.39 9.91569 62.5449 10.1982C62.6999 10.4762 62.7773 10.8135 62.7773 11.21C62.7773 11.4196 62.7614 11.6315 62.7295 11.8457C62.6976 12.0599 62.6634 12.2513 62.627 12.4199L61.6289 17H60.4189L61.4307 12.2695C61.4717 12.0645 61.5036 11.889 61.5264 11.7432C61.5537 11.5973 61.5674 11.4606 61.5674 11.333C61.5674 11.014 61.4808 10.7725 61.3076 10.6084C61.1344 10.4443 60.8792 10.3623 60.542 10.3623C60.2093 10.3623 59.8584 10.4762 59.4893 10.7041C59.1201 10.932 58.7783 11.292 58.4639 11.7842C58.1494 12.2718 57.9056 12.9098 57.7324 13.6982L57.0283 17H55.8115ZM66.9814 17.1094C66.4072 17.1094 65.9128 16.9932 65.498 16.7607C65.0833 16.5238 64.7643 16.1911 64.541 15.7627C64.3223 15.3298 64.2129 14.8193 64.2129 14.2314C64.2129 13.7575 64.2653 13.2904 64.3701 12.8301C64.4749 12.3652 64.6299 11.9277 64.835 11.5176C65.04 11.1029 65.293 10.7383 65.5938 10.4238C65.8991 10.1048 66.25 9.85645 66.6465 9.67871C67.043 9.49642 67.485 9.40527 67.9727 9.40527C68.556 9.40527 69.0527 9.52376 69.4629 9.76074C69.8776 9.99316 70.1943 10.3258 70.4131 10.7588C70.6364 11.1917 70.748 11.7044 70.748 12.2969C70.748 12.7617 70.6956 13.2243 70.5908 13.6846C70.4906 14.1449 70.3379 14.5824 70.1328 14.9971C69.9323 15.4072 69.6794 15.7718 69.374 16.0908C69.0732 16.4053 68.7223 16.6536 68.3213 16.8359C67.9248 17.0182 67.4782 17.1094 66.9814 17.1094ZM67.0498 16.166C67.3324 16.166 67.6012 16.1068 67.8564 15.9883C68.1117 15.8698 68.3441 15.6989 68.5537 15.4756C68.7633 15.2477 68.9434 14.972 69.0938 14.6484C69.2487 14.3203 69.3672 13.9489 69.4492 13.5342C69.5358 13.1195 69.5791 12.6637 69.5791 12.167C69.5791 11.8708 69.5267 11.5837 69.4219 11.3057C69.3171 11.0277 69.1484 10.7998 68.916 10.6221C68.6836 10.4398 68.3737 10.3486 67.9863 10.3486C67.6673 10.3486 67.3711 10.4147 67.0977 10.5469C66.8288 10.679 66.5872 10.8659 66.373 11.1074C66.1589 11.349 65.9766 11.6338 65.8262 11.9619C65.6803 12.29 65.5664 12.6501 65.4844 13.042C65.4069 13.4339 65.3682 13.8464 65.3682 14.2793C65.3682 14.8763 65.514 15.3411 65.8057 15.6738C66.0973 16.002 66.512 16.166 67.0498 16.166ZM71.3564 17.0889C71.2425 17.0889 71.1354 17.0775 71.0352 17.0547C70.9349 17.0365 70.8574 17.0182 70.8027 17V16.0156C70.8665 16.043 70.9372 16.0635 71.0146 16.0771C71.0876 16.0908 71.1673 16.0977 71.2539 16.0977C71.4818 16.0977 71.6846 16.043 71.8623 15.9336C72.04 15.8242 72.2041 15.651 72.3545 15.4141C72.5094 15.1771 72.6621 14.8672 72.8125 14.4844C72.9674 14.1016 73.1361 13.6367 73.3184 13.0898C73.5326 12.4655 73.7376 11.9232 73.9336 11.4629C74.1341 11.0026 74.3574 10.6243 74.6035 10.3281C74.8542 10.0273 75.1572 9.80404 75.5127 9.6582C75.8727 9.51237 76.3193 9.43945 76.8525 9.43945C77.1579 9.43945 77.4518 9.45996 77.7344 9.50098C78.0169 9.54199 78.2767 9.5944 78.5137 9.6582L76.9414 17H75.793L77.2148 10.458C77.151 10.4443 77.0713 10.4329 76.9756 10.4238C76.8844 10.4102 76.7842 10.4033 76.6748 10.4033C76.2783 10.4033 75.9548 10.4945 75.7041 10.6768C75.458 10.8545 75.2324 11.1667 75.0273 11.6133C74.8268 12.0553 74.5898 12.6751 74.3164 13.4727C74.1113 14.0697 73.9131 14.5938 73.7217 15.0449C73.5348 15.4961 73.3343 15.8743 73.1201 16.1797C72.9105 16.4805 72.6621 16.7083 72.375 16.8633C72.0924 17.0137 71.7529 17.0889 71.3564 17.0889ZM79.3613 17L80.9541 9.50781H82.082L81.4326 12.6523H85.083L85.7529 9.50781H86.8877L85.3154 17H84.167L84.8711 13.6025H81.2207L80.5029 17H79.3613ZM90.7705 17.1094C90.1963 17.1094 89.7018 16.9932 89.2871 16.7607C88.8724 16.5238 88.5534 16.1911 88.3301 15.7627C88.1113 15.3298 88.002 14.8193 88.002 14.2314C88.002 13.7575 88.0544 13.2904 88.1592 12.8301C88.264 12.3652 88.4189 11.9277 88.624 11.5176C88.8291 11.1029 89.082 10.7383 89.3828 10.4238C89.6882 10.1048 90.0391 9.85645 90.4355 9.67871C90.832 9.49642 91.2741 9.40527 91.7617 9.40527C92.3451 9.40527 92.8418 9.52376 93.252 9.76074C93.6667 9.99316 93.9834 10.3258 94.2021 10.7588C94.4255 11.1917 94.5371 11.7044 94.5371 12.2969C94.5371 12.7617 94.4847 13.2243 94.3799 13.6846C94.2796 14.1449 94.127 14.5824 93.9219 14.9971C93.7214 15.4072 93.4684 15.7718 93.1631 16.0908C92.8623 16.4053 92.5114 16.6536 92.1104 16.8359C91.7139 17.0182 91.2673 17.1094 90.7705 17.1094ZM90.8389 16.166C91.1214 16.166 91.3903 16.1068 91.6455 15.9883C91.9007 15.8698 92.1331 15.6989 92.3428 15.4756C92.5524 15.2477 92.7324 14.972 92.8828 14.6484C93.0378 14.3203 93.1562 13.9489 93.2383 13.5342C93.3249 13.1195 93.3682 12.6637 93.3682 12.167C93.3682 11.8708 93.3158 11.5837 93.2109 11.3057C93.1061 11.0277 92.9375 10.7998 92.7051 10.6221C92.4727 10.4398 92.1628 10.3486 91.7754 10.3486C91.4564 10.3486 91.1602 10.4147 90.8867 10.5469C90.6178 10.679 90.3763 10.8659 90.1621 11.1074C89.9479 11.349 89.7656 11.6338 89.6152 11.9619C89.4694 12.29 89.3555 12.6501 89.2734 13.042C89.196 13.4339 89.1572 13.8464 89.1572 14.2793C89.1572 14.8763 89.3031 15.3411 89.5947 15.6738C89.8864 16.002 90.3011 16.166 90.8389 16.166ZM98.666 17.1367C98.11 17.1367 97.6224 17.0319 97.2031 16.8223C96.7884 16.6081 96.4648 16.2936 96.2324 15.8789C96.0046 15.4642 95.8906 14.9492 95.8906 14.334C95.8906 13.8008 95.9476 13.2881 96.0615 12.7959C96.18 12.3037 96.3509 11.8503 96.5742 11.4355C96.7975 11.0208 97.0687 10.6585 97.3877 10.3486C97.7067 10.0387 98.069 9.79948 98.4746 9.63086C98.8848 9.45768 99.3314 9.37109 99.8145 9.37109C100.138 9.37109 100.459 9.40299 100.778 9.4668C101.102 9.52604 101.394 9.61263 101.653 9.72656L101.332 10.6836C101.141 10.5924 100.915 10.5104 100.655 10.4375C100.396 10.3646 100.118 10.3281 99.8213 10.3281C99.4066 10.3281 99.0283 10.4329 98.6865 10.6426C98.3493 10.8522 98.0576 11.1439 97.8115 11.5176C97.57 11.8867 97.3831 12.3105 97.251 12.7891C97.1188 13.2676 97.0527 13.778 97.0527 14.3203C97.0527 14.7077 97.1211 15.0426 97.2578 15.3252C97.3945 15.6032 97.5905 15.8174 97.8457 15.9678C98.1055 16.1182 98.4154 16.1934 98.7754 16.1934C99.1081 16.1934 99.4202 16.1478 99.7119 16.0566C100.008 15.9655 100.298 15.8561 100.58 15.7285V16.6992C100.329 16.8268 100.042 16.9316 99.7188 17.0137C99.3997 17.0957 99.0488 17.1367 98.666 17.1367ZM101.947 17L103.54 9.50781H104.47L104.292 10.957H104.36C104.524 10.7201 104.723 10.4808 104.955 10.2393C105.188 9.99316 105.456 9.78809 105.762 9.62402C106.072 9.4554 106.423 9.37109 106.814 9.37109C107.343 9.37109 107.744 9.52376 108.018 9.8291C108.291 10.1344 108.451 10.5514 108.496 11.0801H108.544C108.726 10.8021 108.945 10.5332 109.2 10.2734C109.455 10.0091 109.745 9.79264 110.068 9.62402C110.396 9.4554 110.757 9.37109 111.148 9.37109C111.727 9.37109 112.174 9.52832 112.488 9.84277C112.803 10.1572 112.96 10.613 112.96 11.21C112.96 11.4242 112.946 11.627 112.919 11.8184C112.896 12.0098 112.86 12.2057 112.81 12.4062L111.839 17H110.69L111.702 12.2832C111.743 12.0781 111.773 11.9004 111.791 11.75C111.814 11.5996 111.825 11.4561 111.825 11.3193C111.825 11.014 111.743 10.7725 111.579 10.5947C111.415 10.417 111.162 10.3281 110.82 10.3281C110.579 10.3281 110.328 10.3942 110.068 10.5264C109.809 10.6585 109.556 10.859 109.31 11.1279C109.068 11.3923 108.849 11.7272 108.653 12.1328C108.457 12.5384 108.3 13.0146 108.182 13.5615L107.45 17H106.315L107.313 12.3037C107.354 12.0941 107.384 11.9141 107.402 11.7637C107.425 11.6087 107.437 11.4766 107.437 11.3672C107.437 11.0436 107.361 10.7907 107.211 10.6084C107.061 10.4215 106.814 10.3281 106.473 10.3281C106.231 10.3281 105.978 10.3919 105.714 10.5195C105.454 10.6471 105.201 10.8477 104.955 11.1211C104.709 11.3945 104.483 11.7432 104.278 12.167C104.073 12.5908 103.909 13.1012 103.786 13.6982L103.089 17H101.947ZM117.109 17.1367C116.581 17.1367 116.13 17.057 115.756 16.8975C115.387 16.7334 115.106 16.4919 114.915 16.1729C114.724 15.8493 114.628 15.4482 114.628 14.9697C114.628 14.7646 114.644 14.5413 114.676 14.2998C114.712 14.0537 114.753 13.8236 114.799 13.6094L115.667 9.50781H116.815L116.091 12.7959C116.337 12.7503 116.604 12.7093 116.891 12.6729C117.178 12.6364 117.474 12.6182 117.779 12.6182C118.344 12.6182 118.8 12.7025 119.146 12.8711C119.493 13.0397 119.746 13.2721 119.905 13.5684C120.069 13.8646 120.151 14.2087 120.151 14.6006C120.151 15.0518 120.04 15.471 119.816 15.8584C119.593 16.2412 119.256 16.5511 118.805 16.7881C118.354 17.0205 117.788 17.1367 117.109 17.1367ZM117.212 16.207C117.526 16.207 117.798 16.1683 118.025 16.0908C118.253 16.0088 118.44 15.8971 118.586 15.7559C118.736 15.6146 118.846 15.4528 118.914 15.2705C118.987 15.0837 119.023 14.8877 119.023 14.6826C119.023 14.4548 118.976 14.2565 118.88 14.0879C118.784 13.9193 118.625 13.7894 118.401 13.6982C118.183 13.6025 117.886 13.5547 117.513 13.5547C117.216 13.5547 116.932 13.5706 116.658 13.6025C116.389 13.6299 116.141 13.6663 115.913 13.7119C115.854 13.9762 115.813 14.2018 115.79 14.3887C115.767 14.571 115.756 14.735 115.756 14.8809C115.756 15.2682 115.861 15.5872 116.07 15.8379C116.28 16.084 116.66 16.207 117.212 16.207ZM127.719 17.1094C126.844 17.1094 126.183 16.8405 125.736 16.3027C125.294 15.7604 125.073 15.07 125.073 14.2314C125.073 14.113 125.076 13.9945 125.08 13.876C125.085 13.7575 125.089 13.6663 125.094 13.6025H123.289L122.571 17H121.43L123.022 9.50781H124.15L123.501 12.6523H125.244C125.39 12.1191 125.575 11.6497 125.798 11.2441C126.026 10.8385 126.288 10.499 126.584 10.2256C126.88 9.95215 127.204 9.74707 127.555 9.61035C127.91 9.47363 128.284 9.40527 128.676 9.40527C129.264 9.40527 129.754 9.5306 130.146 9.78125C130.537 10.0273 130.831 10.3669 131.027 10.7998C131.223 11.2327 131.321 11.7318 131.321 12.2969C131.321 12.7845 131.271 13.263 131.171 13.7324C131.071 14.1973 130.923 14.6348 130.727 15.0449C130.531 15.4505 130.287 15.8083 129.995 16.1182C129.708 16.4281 129.373 16.6719 128.99 16.8496C128.612 17.0228 128.188 17.1094 127.719 17.1094ZM127.794 16.166C128.063 16.166 128.316 16.1045 128.553 15.9814C128.794 15.8584 129.013 15.6807 129.209 15.4482C129.405 15.2158 129.574 14.9355 129.715 14.6074C129.856 14.2793 129.965 13.9102 130.043 13.5C130.12 13.0898 130.159 12.6455 130.159 12.167C130.159 11.6292 130.029 11.1917 129.77 10.8545C129.51 10.5173 129.141 10.3486 128.662 10.3486C128.343 10.3486 128.054 10.4238 127.794 10.5742C127.534 10.7201 127.306 10.9229 127.11 11.1826C126.914 11.4378 126.75 11.7318 126.618 12.0645C126.486 12.3971 126.386 12.7526 126.317 13.1309C126.254 13.5091 126.222 13.8919 126.222 14.2793C126.222 14.8398 126.349 15.2956 126.604 15.6465C126.86 15.9928 127.256 16.166 127.794 16.166ZM138.383 17.1367C137.95 17.1367 137.553 17.0729 137.193 16.9453C136.838 16.8177 136.553 16.6172 136.339 16.3438C136.125 16.0658 136.018 15.708 136.018 15.2705C136.018 14.9105 136.088 14.5983 136.229 14.334C136.371 14.0697 136.56 13.8418 136.797 13.6504C137.038 13.4544 137.31 13.2858 137.61 13.1445C137.911 12.9987 138.219 12.8688 138.533 12.7549C138.925 12.6045 139.267 12.4564 139.559 12.3105C139.85 12.1647 140.076 12.0029 140.235 11.8252C140.395 11.6429 140.475 11.4219 140.475 11.1621C140.475 10.916 140.397 10.7155 140.242 10.5605C140.087 10.4056 139.812 10.3281 139.415 10.3281C139.046 10.3281 138.684 10.3805 138.328 10.4854C137.977 10.5856 137.656 10.7018 137.364 10.834L137.05 9.9248C137.364 9.80632 137.727 9.68783 138.137 9.56934C138.551 9.44629 139.016 9.38477 139.531 9.38477C139.946 9.38477 140.311 9.44401 140.625 9.5625C140.939 9.68099 141.186 9.86556 141.363 10.1162C141.541 10.3669 141.63 10.6927 141.63 11.0938C141.63 11.4128 141.566 11.693 141.438 11.9346C141.311 12.1761 141.135 12.3903 140.912 12.5771C140.693 12.7594 140.443 12.9212 140.16 13.0625C139.882 13.1992 139.588 13.3245 139.278 13.4385C138.836 13.6071 138.458 13.7666 138.144 13.917C137.829 14.0628 137.588 14.2337 137.419 14.4297C137.25 14.6257 137.166 14.8763 137.166 15.1816C137.166 15.4915 137.278 15.7376 137.501 15.9199C137.729 16.1022 138.077 16.1934 138.547 16.1934C138.807 16.1934 139.057 16.1683 139.299 16.1182C139.545 16.0635 139.784 15.9928 140.017 15.9062C140.254 15.8151 140.481 15.7171 140.7 15.6123V16.6172C140.381 16.763 140.035 16.8861 139.661 16.9863C139.287 17.0866 138.861 17.1367 138.383 17.1367ZM145.499 17.1094C144.925 17.1094 144.43 16.9932 144.016 16.7607C143.601 16.5238 143.282 16.1911 143.059 15.7627C142.84 15.3298 142.73 14.8193 142.73 14.2314C142.73 13.7575 142.783 13.2904 142.888 12.8301C142.993 12.3652 143.147 11.9277 143.353 11.5176C143.558 11.1029 143.811 10.7383 144.111 10.4238C144.417 10.1048 144.768 9.85645 145.164 9.67871C145.561 9.49642 146.003 9.40527 146.49 9.40527C147.074 9.40527 147.57 9.52376 147.98 9.76074C148.395 9.99316 148.712 10.3258 148.931 10.7588C149.154 11.1917 149.266 11.7044 149.266 12.2969C149.266 12.7617 149.213 13.2243 149.108 13.6846C149.008 14.1449 148.855 14.5824 148.65 14.9971C148.45 15.4072 148.197 15.7718 147.892 16.0908C147.591 16.4053 147.24 16.6536 146.839 16.8359C146.442 17.0182 145.996 17.1094 145.499 17.1094ZM145.567 16.166C145.85 16.166 146.119 16.1068 146.374 15.9883C146.629 15.8698 146.862 15.6989 147.071 15.4756C147.281 15.2477 147.461 14.972 147.611 14.6484C147.766 14.3203 147.885 13.9489 147.967 13.5342C148.053 13.1195 148.097 12.6637 148.097 12.167C148.097 11.8708 148.044 11.5837 147.939 11.3057C147.835 11.0277 147.666 10.7998 147.434 10.6221C147.201 10.4398 146.891 10.3486 146.504 10.3486C146.185 10.3486 145.889 10.4147 145.615 10.5469C145.346 10.679 145.105 10.8659 144.891 11.1074C144.676 11.349 144.494 11.6338 144.344 11.9619C144.198 12.29 144.084 12.6501 144.002 13.042C143.924 13.4339 143.886 13.8464 143.886 14.2793C143.886 14.8763 144.032 15.3411 144.323 15.6738C144.615 16.002 145.03 16.166 145.567 16.166ZM150.332 17L151.925 9.50781H152.854L152.677 10.957H152.745C152.909 10.7201 153.107 10.4808 153.34 10.2393C153.572 9.99316 153.841 9.78809 154.146 9.62402C154.456 9.4554 154.807 9.37109 155.199 9.37109C155.728 9.37109 156.129 9.52376 156.402 9.8291C156.676 10.1344 156.835 10.5514 156.881 11.0801H156.929C157.111 10.8021 157.33 10.5332 157.585 10.2734C157.84 10.0091 158.13 9.79264 158.453 9.62402C158.781 9.4554 159.141 9.37109 159.533 9.37109C160.112 9.37109 160.559 9.52832 160.873 9.84277C161.188 10.1572 161.345 10.613 161.345 11.21C161.345 11.4242 161.331 11.627 161.304 11.8184C161.281 12.0098 161.244 12.2057 161.194 12.4062L160.224 17H159.075L160.087 12.2832C160.128 12.0781 160.158 11.9004 160.176 11.75C160.199 11.5996 160.21 11.4561 160.21 11.3193C160.21 11.014 160.128 10.7725 159.964 10.5947C159.8 10.417 159.547 10.3281 159.205 10.3281C158.964 10.3281 158.713 10.3942 158.453 10.5264C158.193 10.6585 157.94 10.859 157.694 11.1279C157.453 11.3923 157.234 11.7272 157.038 12.1328C156.842 12.5384 156.685 13.0146 156.566 13.5615L155.835 17H154.7L155.698 12.3037C155.739 12.0941 155.769 11.9141 155.787 11.7637C155.81 11.6087 155.821 11.4766 155.821 11.3672C155.821 11.0436 155.746 10.7907 155.596 10.6084C155.445 10.4215 155.199 10.3281 154.857 10.3281C154.616 10.3281 154.363 10.3919 154.099 10.5195C153.839 10.6471 153.586 10.8477 153.34 11.1211C153.094 11.3945 152.868 11.7432 152.663 12.167C152.458 12.5908 152.294 13.1012 152.171 13.6982L151.474 17H150.332ZM165.597 17.1094C165.022 17.1094 164.528 16.9932 164.113 16.7607C163.699 16.5238 163.38 16.1911 163.156 15.7627C162.938 15.3298 162.828 14.8193 162.828 14.2314C162.828 13.7575 162.881 13.2904 162.985 12.8301C163.09 12.3652 163.245 11.9277 163.45 11.5176C163.655 11.1029 163.908 10.7383 164.209 10.4238C164.514 10.1048 164.865 9.85645 165.262 9.67871C165.658 9.49642 166.1 9.40527 166.588 9.40527C167.171 9.40527 167.668 9.52376 168.078 9.76074C168.493 9.99316 168.81 10.3258 169.028 10.7588C169.252 11.1917 169.363 11.7044 169.363 12.2969C169.363 12.7617 169.311 13.2243 169.206 13.6846C169.106 14.1449 168.953 14.5824 168.748 14.9971C168.548 15.4072 168.295 15.7718 167.989 16.0908C167.688 16.4053 167.338 16.6536 166.937 16.8359C166.54 17.0182 166.093 17.1094 165.597 17.1094ZM165.665 16.166C165.948 16.166 166.216 16.1068 166.472 15.9883C166.727 15.8698 166.959 15.6989 167.169 15.4756C167.379 15.2477 167.559 14.972 167.709 14.6484C167.864 14.3203 167.982 13.9489 168.064 13.5342C168.151 13.1195 168.194 12.6637 168.194 12.167C168.194 11.8708 168.142 11.5837 168.037 11.3057C167.932 11.0277 167.764 10.7998 167.531 10.6221C167.299 10.4398 166.989 10.3486 166.602 10.3486C166.283 10.3486 165.986 10.4147 165.713 10.5469C165.444 10.679 165.202 10.8659 164.988 11.1074C164.774 11.349 164.592 11.6338 164.441 11.9619C164.296 12.29 164.182 12.6501 164.1 13.042C164.022 13.4339 163.983 13.8464 163.983 14.2793C163.983 14.8763 164.129 15.3411 164.421 15.6738C164.713 16.002 165.127 16.166 165.665 16.166ZM173.636 17.1367C172.961 17.1367 172.41 17.0114 171.981 16.7607C171.553 16.5055 171.236 16.1478 171.031 15.6875C170.826 15.2272 170.724 14.6872 170.724 14.0674C170.724 13.5387 170.781 13.0397 170.895 12.5703C171.008 12.1009 171.175 11.6725 171.394 11.2852C171.617 10.8932 171.888 10.556 172.207 10.2734C172.531 9.99089 172.897 9.77214 173.308 9.61719C173.722 9.46224 174.178 9.38477 174.675 9.38477C175.199 9.38477 175.643 9.45768 176.008 9.60352C176.372 9.74479 176.648 9.95443 176.835 10.2324C177.026 10.5059 177.122 10.8454 177.122 11.251C177.122 11.6156 177.04 11.93 176.876 12.1943C176.712 12.4541 176.484 12.6683 176.192 12.8369C175.905 13.001 175.573 13.1217 175.194 13.1992V13.2266C175.623 13.3268 175.969 13.4977 176.233 13.7393C176.502 13.9762 176.637 14.3385 176.637 14.8262C176.637 15.1725 176.541 15.5257 176.35 15.8857C176.158 16.2412 175.844 16.5397 175.406 16.7812C174.969 17.0182 174.379 17.1367 173.636 17.1367ZM173.718 16.207C174.137 16.207 174.481 16.1432 174.75 16.0156C175.019 15.8835 175.217 15.7103 175.345 15.4961C175.472 15.2819 175.536 15.054 175.536 14.8125C175.536 14.571 175.472 14.3704 175.345 14.2109C175.217 14.0469 175.019 13.9238 174.75 13.8418C174.481 13.7598 174.13 13.7188 173.697 13.7188H171.886C171.886 13.7643 171.883 13.8213 171.879 13.8896C171.879 13.958 171.879 14.0286 171.879 14.1016C171.879 14.8307 172.043 15.3639 172.371 15.7012C172.699 16.0384 173.148 16.207 173.718 16.207ZM172.016 12.7891H173.499C173.937 12.7891 174.342 12.7458 174.716 12.6592C175.094 12.5726 175.399 12.4268 175.632 12.2217C175.864 12.012 175.98 11.7272 175.98 11.3672C175.98 11.0801 175.88 10.8363 175.68 10.6357C175.484 10.4307 175.151 10.3281 174.682 10.3281C174.23 10.3281 173.825 10.4261 173.465 10.6221C173.105 10.818 172.802 11.1006 172.556 11.4697C172.31 11.8343 172.13 12.2741 172.016 12.7891ZM30.0537 37L31.6396 29.5078H32.7607L31.9883 33.1172L35.5771 29.5078H37.0127L33.2256 33.2061L35.7822 37H34.4219L31.9746 33.2607L31.1953 37H30.0537ZM43.4658 37.1367C42.9098 37.1367 42.4222 37.0319 42.0029 36.8223C41.5882 36.6081 41.2646 36.2936 41.0322 35.8789C40.8044 35.4642 40.6904 34.9492 40.6904 34.334C40.6904 33.8008 40.7474 33.2881 40.8613 32.7959C40.9798 32.3037 41.1507 31.8503 41.374 31.4355C41.5973 31.0208 41.8685 30.6585 42.1875 30.3486C42.5065 30.0387 42.8688 29.7995 43.2744 29.6309C43.6846 29.4577 44.1312 29.3711 44.6143 29.3711C44.9378 29.3711 45.2591 29.403 45.5781 29.4668C45.9017 29.526 46.1934 29.6126 46.4531 29.7266L46.1318 30.6836C45.9404 30.5924 45.7148 30.5104 45.4551 30.4375C45.1953 30.3646 44.9173 30.3281 44.6211 30.3281C44.2064 30.3281 43.8281 30.4329 43.4863 30.6426C43.1491 30.8522 42.8574 31.1439 42.6113 31.5176C42.3698 31.8867 42.1829 32.3105 42.0508 32.7891C41.9186 33.2676 41.8525 33.778 41.8525 34.3203C41.8525 34.7077 41.9209 35.0426 42.0576 35.3252C42.1943 35.6032 42.3903 35.8174 42.6455 35.9678C42.9053 36.1182 43.2152 36.1934 43.5752 36.1934C43.9079 36.1934 44.2201 36.1478 44.5117 36.0566C44.8079 35.9655 45.0973 35.8561 45.3799 35.7285V36.6992C45.1292 36.8268 44.8421 36.9316 44.5186 37.0137C44.1995 37.0957 43.8486 37.1367 43.4658 37.1367ZM46.7471 37L48.3398 29.5078H49.2695L49.0918 30.957H49.1602C49.3242 30.7201 49.5225 30.4808 49.7549 30.2393C49.9873 29.9932 50.2562 29.7881 50.5615 29.624C50.8714 29.4554 51.2223 29.3711 51.6143 29.3711C52.1429 29.3711 52.5439 29.5238 52.8174 29.8291C53.0908 30.1344 53.2503 30.5514 53.2959 31.0801H53.3438C53.526 30.8021 53.7448 30.5332 54 30.2734C54.2552 30.0091 54.5446 29.7926 54.8682 29.624C55.1963 29.4554 55.5563 29.3711 55.9482 29.3711C56.527 29.3711 56.9736 29.5283 57.2881 29.8428C57.6025 30.1572 57.7598 30.613 57.7598 31.21C57.7598 31.4242 57.7461 31.627 57.7188 31.8184C57.696 32.0098 57.6595 32.2057 57.6094 32.4062L56.6387 37H55.4902L56.502 32.2832C56.543 32.0781 56.5726 31.9004 56.5908 31.75C56.6136 31.5996 56.625 31.4561 56.625 31.3193C56.625 31.014 56.543 30.7725 56.3789 30.5947C56.2148 30.417 55.9619 30.3281 55.6201 30.3281C55.3786 30.3281 55.1279 30.3942 54.8682 30.5264C54.6084 30.6585 54.3555 30.859 54.1094 31.1279C53.8678 31.3923 53.6491 31.7272 53.4531 32.1328C53.2572 32.5384 53.0999 33.0146 52.9814 33.5615L52.25 37H51.1152L52.1133 32.3037C52.1543 32.0941 52.1839 31.9141 52.2021 31.7637C52.2249 31.6087 52.2363 31.4766 52.2363 31.3672C52.2363 31.0436 52.1611 30.7907 52.0107 30.6084C51.8604 30.4215 51.6143 30.3281 51.2725 30.3281C51.0309 30.3281 50.778 30.3919 50.5137 30.5195C50.2539 30.6471 50.001 30.8477 49.7549 31.1211C49.5088 31.3945 49.2832 31.7432 49.0781 32.167C48.873 32.5908 48.709 33.1012 48.5859 33.6982L47.8887 37H46.7471ZM61.2666 37.1367C60.861 37.1367 60.5055 37.0387 60.2002 36.8428C59.8949 36.6468 59.6579 36.3574 59.4893 35.9746C59.3206 35.5918 59.2363 35.1247 59.2363 34.5732C59.2363 34.0218 59.2933 33.4909 59.4072 32.9805C59.5257 32.4701 59.6921 31.9961 59.9062 31.5586C60.1204 31.1211 60.3779 30.7383 60.6787 30.4102C60.984 30.082 61.3258 29.8268 61.7041 29.6445C62.0824 29.4622 62.4902 29.3711 62.9277 29.3711C63.265 29.3711 63.5566 29.4349 63.8027 29.5625C64.0534 29.6901 64.2607 29.8587 64.4248 30.0684C64.5934 30.2734 64.7256 30.4922 64.8213 30.7246H64.8896L65.3271 29.5078H66.1953L64.6094 37H63.7002L63.9053 35.5508H63.8506C63.6455 35.8242 63.4108 36.0817 63.1465 36.3232C62.8822 36.5648 62.5928 36.7607 62.2783 36.9111C61.9639 37.0615 61.6266 37.1367 61.2666 37.1367ZM61.6357 36.1934C61.9867 36.1934 62.333 36.0658 62.6748 35.8105C63.0212 35.5508 63.3311 35.2021 63.6045 34.7646C63.8825 34.3226 64.0944 33.8258 64.2402 33.2744C64.3132 33.0055 64.361 32.7594 64.3838 32.5361C64.4111 32.3083 64.4248 32.0964 64.4248 31.9004C64.4248 31.431 64.2995 31.0527 64.0488 30.7656C63.8027 30.474 63.4655 30.3281 63.0371 30.3281C62.7318 30.3281 62.4447 30.4056 62.1758 30.5605C61.9069 30.7109 61.6631 30.9229 61.4443 31.1963C61.2301 31.4652 61.0456 31.7796 60.8906 32.1396C60.7357 32.4951 60.6149 32.8825 60.5283 33.3018C60.4463 33.721 60.4053 34.1517 60.4053 34.5938C60.4053 35.1178 60.5124 35.5166 60.7266 35.79C60.9408 36.0589 61.2438 36.1934 61.6357 36.1934ZM66.1748 40.3496L68.4648 29.5078H69.3945L69.21 30.9639H69.2578C69.472 30.6813 69.7067 30.4215 69.9619 30.1846C70.2217 29.943 70.5042 29.7493 70.8096 29.6035C71.1195 29.4577 71.4567 29.3848 71.8213 29.3848C72.2314 29.3848 72.5892 29.4827 72.8945 29.6787C73.1999 29.8701 73.4368 30.1572 73.6055 30.54C73.7786 30.9183 73.8652 31.39 73.8652 31.9551C73.8652 32.4928 73.8105 33.0169 73.7012 33.5273C73.5964 34.0332 73.4414 34.5049 73.2363 34.9424C73.0312 35.3753 72.7783 35.7581 72.4775 36.0908C72.1813 36.4189 71.8418 36.6764 71.459 36.8633C71.0762 37.0456 70.6546 37.1367 70.1943 37.1367C69.8434 37.1367 69.5404 37.0752 69.2852 36.9521C69.0345 36.8245 68.8226 36.6582 68.6494 36.4531C68.4808 36.248 68.3464 36.027 68.2461 35.79H68.1846C68.1663 35.9587 68.1367 36.1797 68.0957 36.4531C68.0592 36.722 68.0205 36.9476 67.9795 37.1299L67.2959 40.3496H66.1748ZM70.1123 36.1934C70.4313 36.1934 70.723 36.1136 70.9873 35.9541C71.2562 35.7946 71.4954 35.5781 71.7051 35.3047C71.9193 35.0267 72.0993 34.7054 72.2451 34.3408C72.3955 33.9762 72.5094 33.5889 72.5869 33.1787C72.6644 32.7686 72.7031 32.3516 72.7031 31.9277C72.7031 31.3991 72.596 31.0003 72.3818 30.7314C72.1722 30.4626 71.8577 30.3281 71.4385 30.3281C71.2197 30.3281 70.9987 30.3828 70.7754 30.4922C70.5521 30.597 70.3356 30.7474 70.126 30.9434C69.9163 31.1348 69.7204 31.3626 69.5381 31.627C69.3558 31.8913 69.1963 32.1829 69.0596 32.502C68.9274 32.821 68.8226 33.1582 68.7451 33.5137C68.6676 33.8691 68.6289 34.2337 68.6289 34.6074C68.6289 35.0859 68.7497 35.471 68.9912 35.7627C69.2373 36.0498 69.611 36.1934 70.1123 36.1934ZM74.9658 37L76.5586 29.5078H77.4883L77.3105 30.957H77.3789C77.543 30.7201 77.7412 30.4808 77.9736 30.2393C78.2061 29.9932 78.4749 29.7881 78.7803 29.624C79.0902 29.4554 79.4411 29.3711 79.833 29.3711C80.3617 29.3711 80.7627 29.5238 81.0361 29.8291C81.3096 30.1344 81.4691 30.5514 81.5146 31.0801H81.5625C81.7448 30.8021 81.9635 30.5332 82.2188 30.2734C82.474 30.0091 82.7633 29.7926 83.0869 29.624C83.415 29.4554 83.7751 29.3711 84.167 29.3711C84.7458 29.3711 85.1924 29.5283 85.5068 29.8428C85.8213 30.1572 85.9785 30.613 85.9785 31.21C85.9785 31.4242 85.9648 31.627 85.9375 31.8184C85.9147 32.0098 85.8783 32.2057 85.8281 32.4062L84.8574 37H83.709L84.7207 32.2832C84.7617 32.0781 84.7913 31.9004 84.8096 31.75C84.8324 31.5996 84.8438 31.4561 84.8438 31.3193C84.8438 31.014 84.7617 30.7725 84.5977 30.5947C84.4336 30.417 84.1807 30.3281 83.8389 30.3281C83.5973 30.3281 83.3467 30.3942 83.0869 30.5264C82.8271 30.6585 82.5742 30.859 82.3281 31.1279C82.0866 31.3923 81.8678 31.7272 81.6719 32.1328C81.4759 32.5384 81.3187 33.0146 81.2002 33.5615L80.4688 37H79.334L80.332 32.3037C80.373 32.0941 80.4027 31.9141 80.4209 31.7637C80.4437 31.6087 80.4551 31.4766 80.4551 31.3672C80.4551 31.0436 80.3799 30.7907 80.2295 30.6084C80.0791 30.4215 79.833 30.3281 79.4912 30.3281C79.2497 30.3281 78.9967 30.3919 78.7324 30.5195C78.4727 30.6471 78.2197 30.8477 77.9736 31.1211C77.7275 31.3945 77.502 31.7432 77.2969 32.167C77.0918 32.5908 76.9277 33.1012 76.8047 33.6982L76.1074 37H74.9658ZM86.3818 40.3701C86.1585 40.3701 85.9785 40.3564 85.8418 40.3291C85.7005 40.3018 85.5638 40.2676 85.4316 40.2266V39.3037C85.5547 39.3356 85.6914 39.363 85.8418 39.3857C85.9922 39.4131 86.1517 39.4268 86.3203 39.4268C86.694 39.4268 87.0153 39.3083 87.2842 39.0713C87.5531 38.8343 87.8151 38.4857 88.0703 38.0254L88.5967 37.0889L87.4482 29.5078H88.5967L89.1162 33.3564C89.1618 33.6572 89.1982 33.9808 89.2256 34.3271C89.2529 34.6689 89.2734 34.9948 89.2871 35.3047C89.3008 35.61 89.3076 35.8584 89.3076 36.0498H89.3486C89.4124 35.8994 89.5081 35.6829 89.6357 35.4004C89.7633 35.1133 89.9001 34.8148 90.0459 34.5049C90.1917 34.195 90.3216 33.9352 90.4355 33.7256L92.6846 29.5078H93.9014L89.1025 38.2988C88.8564 38.7546 88.6035 39.1351 88.3438 39.4404C88.0885 39.7503 87.8037 39.9827 87.4893 40.1377C87.1748 40.2926 86.8057 40.3701 86.3818 40.3701ZM97.2168 37L98.8232 29.4736H99.8281L99.6504 30.916H99.6641C99.8372 30.679 100.045 30.4398 100.286 30.1982C100.532 29.9521 100.817 29.7471 101.141 29.583C101.469 29.4144 101.84 29.3301 102.255 29.3301C102.656 29.3301 103 29.4053 103.287 29.5557C103.574 29.7015 103.795 29.9157 103.95 30.1982C104.105 30.4762 104.183 30.8135 104.183 31.21C104.183 31.4196 104.167 31.6315 104.135 31.8457C104.103 32.0599 104.069 32.2513 104.032 32.4199L103.034 37H101.824L102.836 32.2695C102.877 32.0645 102.909 31.889 102.932 31.7432C102.959 31.5973 102.973 31.4606 102.973 31.333C102.973 31.014 102.886 30.7725 102.713 30.6084C102.54 30.4443 102.285 30.3623 101.947 30.3623C101.615 30.3623 101.264 30.4762 100.895 30.7041C100.525 30.932 100.184 31.292 99.8691 31.7842C99.5547 32.2718 99.3109 32.9098 99.1377 33.6982L98.4336 37H97.2168ZM104.634 40.3496L106.924 29.5078H107.854L107.669 30.9639H107.717C107.931 30.6813 108.166 30.4215 108.421 30.1846C108.681 29.943 108.963 29.7493 109.269 29.6035C109.578 29.4577 109.916 29.3848 110.28 29.3848C110.69 29.3848 111.048 29.4827 111.354 29.6787C111.659 29.8701 111.896 30.1572 112.064 30.54C112.238 30.9183 112.324 31.39 112.324 31.9551C112.324 32.4928 112.27 33.0169 112.16 33.5273C112.055 34.0332 111.9 34.5049 111.695 34.9424C111.49 35.3753 111.237 35.7581 110.937 36.0908C110.64 36.4189 110.301 36.6764 109.918 36.8633C109.535 37.0456 109.114 37.1367 108.653 37.1367C108.302 37.1367 107.999 37.0752 107.744 36.9521C107.493 36.8245 107.282 36.6582 107.108 36.4531C106.94 36.248 106.805 36.027 106.705 35.79H106.644C106.625 35.9587 106.596 36.1797 106.555 36.4531C106.518 36.722 106.479 36.9476 106.438 37.1299L105.755 40.3496H104.634ZM108.571 36.1934C108.89 36.1934 109.182 36.1136 109.446 35.9541C109.715 35.7946 109.954 35.5781 110.164 35.3047C110.378 35.0267 110.558 34.7054 110.704 34.3408C110.854 33.9762 110.968 33.5889 111.046 33.1787C111.123 32.7686 111.162 32.3516 111.162 31.9277C111.162 31.3991 111.055 31.0003 110.841 30.7314C110.631 30.4626 110.317 30.3281 109.897 30.3281C109.679 30.3281 109.458 30.3828 109.234 30.4922C109.011 30.597 108.795 30.7474 108.585 30.9434C108.375 31.1348 108.179 31.3626 107.997 31.627C107.815 31.8913 107.655 32.1829 107.519 32.502C107.386 32.821 107.282 33.1582 107.204 33.5137C107.127 33.8691 107.088 34.2337 107.088 34.6074C107.088 35.0859 107.209 35.471 107.45 35.7627C107.696 36.0498 108.07 36.1934 108.571 36.1934ZM116.48 37.1094C115.906 37.1094 115.412 36.9932 114.997 36.7607C114.582 36.5238 114.263 36.1911 114.04 35.7627C113.821 35.3298 113.712 34.8193 113.712 34.2314C113.712 33.7575 113.764 33.2904 113.869 32.8301C113.974 32.3652 114.129 31.9277 114.334 31.5176C114.539 31.1029 114.792 30.7383 115.093 30.4238C115.398 30.1048 115.749 29.8564 116.146 29.6787C116.542 29.4964 116.984 29.4053 117.472 29.4053C118.055 29.4053 118.552 29.5238 118.962 29.7607C119.377 29.9932 119.693 30.3258 119.912 30.7588C120.135 31.1917 120.247 31.7044 120.247 32.2969C120.247 32.7617 120.195 33.2243 120.09 33.6846C119.99 34.1449 119.837 34.5824 119.632 34.9971C119.431 35.4072 119.178 35.7718 118.873 36.0908C118.572 36.4053 118.221 36.6536 117.82 36.8359C117.424 37.0182 116.977 37.1094 116.48 37.1094ZM116.549 36.166C116.831 36.166 117.1 36.1068 117.355 35.9883C117.611 35.8698 117.843 35.6989 118.053 35.4756C118.262 35.2477 118.442 34.972 118.593 34.6484C118.748 34.3203 118.866 33.9489 118.948 33.5342C119.035 33.1195 119.078 32.6637 119.078 32.167C119.078 31.8708 119.026 31.5837 118.921 31.3057C118.816 31.0277 118.647 30.7998 118.415 30.6221C118.183 30.4398 117.873 30.3486 117.485 30.3486C117.166 30.3486 116.87 30.4147 116.597 30.5469C116.328 30.679 116.086 30.8659 115.872 31.1074C115.658 31.349 115.476 31.6338 115.325 31.9619C115.179 32.29 115.065 32.6501 114.983 33.042C114.906 33.4339 114.867 33.8464 114.867 34.2793C114.867 34.8763 115.013 35.3411 115.305 35.6738C115.596 36.002 116.011 36.166 116.549 36.166ZM124.055 37.1367C123.517 37.1367 123.066 37.0228 122.701 36.7949C122.337 36.5671 122.061 36.248 121.874 35.8379C121.692 35.4277 121.601 34.9515 121.601 34.4092C121.601 33.9717 121.648 33.5342 121.744 33.0967C121.84 32.6546 121.983 32.2376 122.175 31.8457C122.366 31.4538 122.601 31.1051 122.879 30.7998C123.161 30.4945 123.485 30.2552 123.85 30.082C124.219 29.9043 124.631 29.8154 125.087 29.8154C125.465 29.8154 125.782 29.8747 126.037 29.9932C126.292 30.1071 126.504 30.2598 126.673 30.4512C126.841 30.6426 126.976 30.8477 127.076 31.0664H127.117C127.126 30.9889 127.131 30.9092 127.131 30.8271C127.131 30.7406 127.131 30.6631 127.131 30.5947C127.131 29.4372 126.976 28.5781 126.666 28.0176C126.356 27.4525 125.878 27.1699 125.23 27.1699C124.989 27.1699 124.736 27.1995 124.472 27.2588C124.207 27.3135 123.97 27.3887 123.761 27.4844L123.474 26.6299C123.701 26.5205 123.991 26.4248 124.342 26.3428C124.693 26.2607 125.035 26.2197 125.367 26.2197C126.042 26.2197 126.593 26.3838 127.021 26.7119C127.45 27.04 127.767 27.5254 127.972 28.168C128.177 28.806 128.279 29.5898 128.279 30.5195C128.279 30.9889 128.243 31.4766 128.17 31.9824C128.102 32.4883 127.994 32.9896 127.849 33.4863C127.703 33.9785 127.516 34.4456 127.288 34.8877C127.06 35.3252 126.789 35.7126 126.475 36.0498C126.165 36.387 125.807 36.6536 125.401 36.8496C125 37.041 124.551 37.1367 124.055 37.1367ZM124.171 36.1797C124.458 36.1797 124.725 36.1136 124.971 35.9814C125.217 35.8447 125.442 35.6556 125.647 35.4141C125.853 35.1725 126.037 34.8923 126.201 34.5732C126.365 34.2497 126.507 33.8988 126.625 33.5205C126.743 33.1423 126.839 32.7503 126.912 32.3447C126.826 32.0394 126.702 31.7637 126.543 31.5176C126.388 31.2715 126.199 31.0755 125.976 30.9297C125.752 30.7793 125.49 30.7041 125.189 30.7041C124.925 30.7041 124.672 30.7656 124.431 30.8887C124.189 31.0117 123.966 31.1849 123.761 31.4082C123.56 31.6315 123.385 31.8958 123.234 32.2012C123.084 32.5065 122.965 32.8438 122.879 33.2129C122.797 33.582 122.756 33.974 122.756 34.3887C122.756 34.8991 122.868 35.3252 123.091 35.667C123.314 36.0088 123.674 36.1797 124.171 36.1797ZM131.513 37.1367C131.107 37.1367 130.752 37.0387 130.446 36.8428C130.141 36.6468 129.904 36.3574 129.735 35.9746C129.567 35.5918 129.482 35.1247 129.482 34.5732C129.482 34.0218 129.539 33.4909 129.653 32.9805C129.772 32.4701 129.938 31.9961 130.152 31.5586C130.367 31.1211 130.624 30.7383 130.925 30.4102C131.23 30.082 131.572 29.8268 131.95 29.6445C132.328 29.4622 132.736 29.3711 133.174 29.3711C133.511 29.3711 133.803 29.4349 134.049 29.5625C134.299 29.6901 134.507 29.8587 134.671 30.0684C134.84 30.2734 134.972 30.4922 135.067 30.7246H135.136L135.573 29.5078H136.441L134.855 37H133.946L134.151 35.5508H134.097C133.892 35.8242 133.657 36.0817 133.393 36.3232C133.128 36.5648 132.839 36.7607 132.524 36.9111C132.21 37.0615 131.873 37.1367 131.513 37.1367ZM131.882 36.1934C132.233 36.1934 132.579 36.0658 132.921 35.8105C133.267 35.5508 133.577 35.2021 133.851 34.7646C134.129 34.3226 134.34 33.8258 134.486 33.2744C134.559 33.0055 134.607 32.7594 134.63 32.5361C134.657 32.3083 134.671 32.0964 134.671 31.9004C134.671 31.431 134.546 31.0527 134.295 30.7656C134.049 30.474 133.712 30.3281 133.283 30.3281C132.978 30.3281 132.691 30.4056 132.422 30.5605C132.153 30.7109 131.909 30.9229 131.69 31.1963C131.476 31.4652 131.292 31.7796 131.137 32.1396C130.982 32.4951 130.861 32.8825 130.774 33.3018C130.692 33.721 130.651 34.1517 130.651 34.5938C130.651 35.1178 130.758 35.5166 130.973 35.79C131.187 36.0589 131.49 36.1934 131.882 36.1934ZM137.31 37.1367C137.182 37.1367 137.045 37.1276 136.899 37.1094C136.754 37.0911 136.621 37.0661 136.503 37.0342L136.674 36.1045C136.76 36.1273 136.863 36.1478 136.981 36.166C137.1 36.1842 137.214 36.1934 137.323 36.1934C137.66 36.1934 137.964 36.1159 138.232 35.9609C138.506 35.8014 138.745 35.5872 138.95 35.3184C139.155 35.0495 139.326 34.7464 139.463 34.4092C139.604 34.0674 139.709 33.7119 139.777 33.3428C139.846 32.9736 139.88 32.6113 139.88 32.2559C139.88 31.6862 139.771 31.2236 139.552 30.8682C139.333 30.5081 138.98 30.3281 138.492 30.3281C138.355 30.3281 138.226 30.3372 138.103 30.3555C137.979 30.3691 137.854 30.3919 137.727 30.4238V29.4805C137.859 29.4577 138.005 29.4349 138.164 29.4121C138.328 29.3848 138.492 29.3711 138.656 29.3711C139.445 29.3711 140.037 29.6217 140.434 30.123C140.83 30.6243 141.028 31.3262 141.028 32.2285C141.028 32.3151 141.026 32.4062 141.021 32.502C141.017 32.5931 141.01 32.6797 141.001 32.7617H142.149L142.84 29.5078H143.886L143.188 32.7617H144.289C144.371 32.3789 144.499 31.9893 144.672 31.5928C144.85 31.1963 145.08 30.8317 145.362 30.499C145.645 30.1618 145.987 29.8906 146.388 29.6855C146.789 29.4759 147.256 29.3711 147.789 29.3711C147.944 29.3711 148.097 29.3802 148.247 29.3984C148.397 29.4121 148.55 29.4395 148.705 29.4805L148.493 30.4102C148.393 30.3828 148.279 30.3623 148.151 30.3486C148.028 30.335 147.91 30.3281 147.796 30.3281C147.459 30.3281 147.156 30.4079 146.887 30.5674C146.618 30.7223 146.383 30.9342 146.183 31.2031C145.982 31.472 145.816 31.7773 145.684 32.1191C145.551 32.4564 145.451 32.8096 145.383 33.1787C145.319 33.5433 145.287 33.901 145.287 34.252C145.287 34.8216 145.39 35.2887 145.595 35.6533C145.804 36.0133 146.158 36.1934 146.654 36.1934C146.809 36.1934 146.941 36.1842 147.051 36.166C147.165 36.1478 147.283 36.1227 147.406 36.0908V37.0342C147.297 37.0524 147.16 37.0729 146.996 37.0957C146.832 37.123 146.666 37.1367 146.497 37.1367C145.978 37.1367 145.54 37.0251 145.185 36.8018C144.834 36.5785 144.569 36.2549 144.392 35.8311C144.214 35.4027 144.125 34.8854 144.125 34.2793C144.125 34.1745 144.127 34.0697 144.132 33.9648C144.136 33.8555 144.146 33.7484 144.159 33.6436H143.004L142.3 37H141.261L141.979 33.6436H140.871C140.78 34.0719 140.639 34.4935 140.447 34.9082C140.26 35.3184 140.021 35.6921 139.729 36.0293C139.442 36.3665 139.096 36.6354 138.69 36.8359C138.289 37.0365 137.829 37.1367 137.31 37.1367Z" fill="#D3413F"></path> <path d="M80.4894 64.1023C80.5459 63.832 80.3726 63.5671 80.1023 63.5106C79.832 63.4541 79.5671 63.6274 79.5106 63.8977L80.4894 64.1023ZM9.64282 104.65C9.44958 104.847 9.45285 105.164 9.65011 105.357L12.8647 108.506C13.062 108.699 13.3786 108.696 13.5718 108.499C13.765 108.302 13.7618 107.985 13.5645 107.792L10.7071 104.993L13.5062 102.135C13.6994 101.938 13.6962 101.621 13.4989 101.428C13.3016 101.235 12.9851 101.238 12.7918 101.435L9.64282 104.65ZM79.5106 63.8977C76.0368 80.5222 68.3186 90.5334 56.6976 96.4672C45.0333 102.423 29.3849 104.3 9.99485 104.5L10.0052 105.5C29.4151 105.3 45.2667 103.427 57.1524 97.3578C69.0815 91.2666 76.9632 80.9778 80.4894 64.1023L79.5106 63.8977Z" fill="#D3413F"></path> </svg> 