<?xml version="1.0" encoding="UTF-8"?> <svg xmlns="http://www.w3.org/2000/svg" width="146" height="40" viewBox="0 0 146 40" fill="none"> <g clip-path="url(#clip0_3420_17)"> <path d="M56.7578 7.1586C58.5673 5.95616 60.7036 5.31728 62.8882 5.32527C68.2505 5.32527 68.5767 8.52849 68.5767 10.0043V13.9749C68.5767 15.1788 68.8366 16.0559 70.1077 15.9729V18.848C69.6672 19.0169 69.1977 19.1006 68.7249 19.0944C67.9867 19.0944 66.5441 19.0139 65.6603 17.6147C64.3347 18.576 62.9792 19.0944 61.0323 19.0944C57.5545 19.0944 56.2574 17.2342 56.2574 15.2911C56.2574 11.6487 59.7327 10.4703 64.5673 10.3631C64.5946 8.83106 64.1852 8.33443 62.4736 8.33443C61.2364 8.33443 59.526 8.88213 58.407 9.62134L56.7578 7.1586ZM64.5673 12.9624C62.1513 12.9343 60.3812 13.6735 60.3812 14.9617C60.3812 15.7546 61.1181 16.0827 61.9733 16.0827C62.7673 16.0827 63.8317 15.535 64.5725 15.0434L64.5673 12.9624Z" fill="#222222"></path> <path d="M30.8833 14.5238C31.3231 15.0508 31.8758 15.476 32.5022 15.7691C33.1285 16.0622 33.8129 16.2159 34.5067 16.2192C37.0124 16.2192 37.4256 14.2493 37.4841 13.482L33.0394 13.7284V10.7741L37.4893 11.0205C37.4594 10.1153 36.9864 8.19903 34.4534 8.19903C33.246 8.19903 32.1842 8.63565 31.2706 9.5421L29.0898 7.34875C31.125 5.73374 33.363 5.3252 34.5703 5.3252C37.4893 5.3252 41.9965 6.47422 41.9965 12.0304C41.9965 17.344 37.9884 19.0943 34.4261 19.0943C31.9789 19.0943 30.3881 18.3002 28.6167 16.6303L30.8833 14.5238Z" fill="#222222"></path> <path d="M43.5275 8.63563V5.62646H54.6082V8.63563H51.0719V18.793H47.0664V8.63563H43.5275Z" fill="#222222"></path> <path d="M80.8985 13.1258C79.1011 13.0441 79.1011 13.7552 78.129 15.646C77.2738 17.2878 76.2419 19.093 73.7973 19.093C73.2958 19.0939 72.7978 19.0105 72.3248 18.8466V15.9728C73.6791 15.8911 73.6245 15.4532 74.4445 14.1663C75.5947 12.2781 76.4486 11.7853 77.2167 11.6755C75.9794 11.3486 75.5063 10.6618 75.1242 10.1434C74.5342 9.31741 74.004 8.55139 73.0682 8.55139C72.9488 8.54733 72.8293 8.55675 72.7121 8.57948V5.59841C73.0682 5.4069 73.5088 5.3252 74.1573 5.3252C76.3368 5.3252 77.3973 6.63891 78.6671 8.52841C79.3169 9.48466 79.786 10.3362 80.905 10.2532V5.62649H84.9118V10.2532C86.0321 10.3362 86.5 9.48721 87.1524 8.52969C88.4208 6.64019 89.48 5.3252 91.6608 5.3252C92.3107 5.3252 92.7525 5.40818 93.1008 5.59969V8.58203C92.9863 8.55929 92.8694 8.54986 92.7525 8.55395C91.8103 8.55395 91.2761 9.31996 90.6861 10.1409C90.2962 10.6618 89.8335 11.3486 88.595 11.6729C89.3592 11.7827 90.2169 12.2755 91.3658 14.1637C92.1898 15.4506 92.1326 15.8885 93.4868 15.9702V18.8454C93.013 19.0093 92.5141 19.0926 92.0117 19.0918C89.5684 19.0918 88.5365 17.2852 87.6826 15.6447C86.7092 13.7539 86.7092 13.0428 84.9105 13.1245V18.7917H80.8985V13.1258Z" fill="#222222"></path> <path d="M104.782 7.6513V5.62646H108.786V18.793H104.782V12.0865L100.037 16.9048V18.793H96.0289V5.62646H100.037V12.4963L104.782 7.6513Z" fill="#222222"></path> <path d="M31.5526 40.0002H29.6031L29.3822 36.3438V34.8947H29.9203C30.418 34.6317 30.804 34.0189 31.1588 31.1451L31.6397 27.1554H38.2795V34.8947H39.7546V36.3438L39.5376 40.0002H37.5777V36.6693H31.5526V40.0002ZM36.0091 34.8935V28.93H33.4384L33.1304 31.6251C32.9562 33.1355 32.6352 34.1862 32.205 34.8947L36.0091 34.8935ZM40.8814 31.9149C40.8814 28.8241 43.0661 26.918 45.3444 26.918C47.9631 26.918 49.3433 28.7781 49.3433 31.4349C49.345 31.7984 49.3119 32.1613 49.2446 32.5188H43.0973C43.287 34.2079 44.3904 35.1679 45.9565 35.1679C46.7844 35.1679 47.494 34.9126 48.2036 34.4785L48.9833 35.8663C48.0041 36.5239 46.8488 36.8823 45.6628 36.8966C42.979 36.9017 40.8814 35.0569 40.8814 31.9149ZM47.3796 31.0008C47.3796 29.5365 46.7168 28.6453 45.3924 28.6453C44.2644 28.6453 43.2714 29.4752 43.0739 31.0008H47.3796ZM51.515 27.1503H55.4425C57.583 27.1503 59.1803 27.7976 59.1803 29.6143C59.1803 30.5438 58.6358 31.3072 57.5635 31.6124V31.6826C58.7072 31.9532 59.5663 32.612 59.5663 33.9372C59.5663 35.8523 57.8599 36.6642 55.6401 36.6642H51.515V27.1503ZM55.2099 31.0008C56.4875 31.0008 56.9878 30.5591 56.9878 29.839C56.9878 29.119 56.4913 28.6696 55.2762 28.6696H53.7387V31.0008H55.2099ZM55.4698 35.145C56.7695 35.145 57.3543 34.6266 57.3543 33.7891C57.3543 33.0308 56.724 32.5124 55.4049 32.5124H53.7387V35.1386L55.4698 35.145ZM61.0882 31.9149C61.0882 28.8241 63.2729 26.918 65.5511 26.918C68.1699 26.918 69.5501 28.7781 69.5501 31.4349C69.5518 31.7984 69.5187 32.1613 69.4513 32.5188H63.304C63.4938 34.2079 64.6037 35.1679 66.1633 35.1679C66.9911 35.1679 67.7007 34.9126 68.4103 34.4785L69.1901 35.8663C68.2109 36.5239 67.0556 36.8823 65.8695 36.8966C63.191 36.9017 61.0882 35.0569 61.0882 31.9149ZM67.5864 31.0008C67.5864 29.5365 66.9235 28.6453 65.5992 28.6453C64.4711 28.6453 63.4782 29.4752 63.2807 31.0008H67.5864ZM70.4365 36.7102L70.8264 34.6879C70.9767 34.7361 71.1335 34.7623 71.2916 34.7658C71.8921 34.7658 72.3053 34.2704 72.4548 33.0576C72.7147 31.094 72.9279 29.1266 73.1605 27.1503H79.7224V36.6642H77.4545V28.93H74.9631C74.7734 30.4953 74.5849 32.0988 74.3718 33.6627C74.0754 35.7859 73.1098 36.9017 71.458 36.9017C71.1081 36.9082 70.7606 36.8448 70.4365 36.7153V36.7102ZM81.9655 31.9149C81.9655 28.7462 84.158 26.918 86.5702 26.918C88.9823 26.918 91.1761 28.7462 91.1761 31.9149C91.1761 35.0837 88.9836 36.894 86.5702 36.894C84.1567 36.894 81.9655 35.0735 81.9655 31.9149ZM88.8419 31.9149C88.8419 30.0088 87.9894 28.7385 86.5702 28.7385C85.151 28.7385 84.2997 30.0088 84.2997 31.9149C84.2997 33.821 85.1549 35.0811 86.5702 35.0811C87.9855 35.0811 88.8419 33.83 88.8419 31.9149ZM93.4271 27.1503H101.651V36.6642H99.3807V28.93H95.6975V36.6693H93.4271V27.1503ZM104.545 27.1503H107.145L108.698 30.9932C108.967 31.7758 109.227 32.4958 109.478 33.2159H109.557C109.817 32.4958 110.096 31.7758 110.346 30.9932L111.823 27.1503H114.414V36.6642H112.38V33.3321C112.38 32.3988 112.537 30.66 112.624 29.6297H112.545C112.269 30.4276 111.895 31.334 111.622 32.0937L110.152 35.8088H108.819L107.314 32.0988C107.037 31.3392 106.664 30.4097 106.391 29.6348H106.312C106.399 30.6651 106.556 32.4039 106.556 33.3372V36.6693H104.545V27.1503ZM116.661 31.9149C116.661 28.8241 118.845 26.918 121.125 26.918C123.742 26.918 125.123 28.7781 125.123 31.4349C125.125 31.7985 125.092 32.1614 125.024 32.5188H118.877C119.066 34.2079 120.176 35.1679 121.736 35.1679C122.564 35.1679 123.273 34.9126 123.983 34.4785L124.763 35.8663C123.783 36.5239 122.628 36.8823 121.442 36.8966C118.758 36.9017 116.661 35.0569 116.661 31.9149ZM123.159 31.0008C123.159 29.5365 122.497 28.6453 121.172 28.6453C120.044 28.6453 119.051 29.4752 118.853 31.0008H123.159ZM127.294 27.1503H129.566V30.7915H133.422V27.1554H135.694V36.6693H133.422V32.7563H129.566V36.6693H127.294V27.1503ZM140.681 28.9249H137.637V27.1503H145.996V28.9249H142.952V36.6642H140.681V28.9249Z" fill="#222222"></path> <path d="M0 18.7929L0.105271 5.98002L19.2372 0V18.7929H0Z" fill="#D3413F"></path> </g> <defs> <clipPath id="clip0_3420_17"> <rect width="146" height="40" fill="white"></rect> </clipPath> </defs> </svg> 