<?xml version="1.0" encoding="UTF-8"?> <svg xmlns="http://www.w3.org/2000/svg" width="310" height="40" viewBox="0 0 310 40" fill="none"> <rect width="310" height="40" rx="20" fill="#F8F8F8"></rect> <g clip-path="url(#clip0_3161_232)"> <path d="M51.8215 12.295C52.8997 11.5735 54.1727 11.1902 55.4745 11.195C58.6699 11.195 58.8642 13.1169 58.8642 14.0024V16.3847C58.8642 17.1071 59.0191 17.6333 59.7765 17.5836V19.3086C59.5141 19.41 59.2343 19.4602 58.9525 19.4565C58.5127 19.4565 57.653 19.4082 57.1264 18.5686C56.3365 19.1455 55.5287 19.4565 54.3686 19.4565C52.2962 19.4565 51.5233 18.3404 51.5233 17.1745C51.5233 14.9891 53.5942 14.282 56.4751 14.2177C56.4914 13.2985 56.2474 13.0005 55.2275 13.0005C54.4902 13.0005 53.471 13.3291 52.8042 13.7726L51.8215 12.295ZM56.4751 15.7773C55.0354 15.7604 53.9806 16.204 53.9806 16.9769C53.9806 17.4526 54.4197 17.6494 54.9293 17.6494C55.4025 17.6494 56.0368 17.3208 56.4782 17.0259L56.4751 15.7773Z" fill="#222222"></path> <path d="M36.4031 16.7142C36.6652 17.0304 36.9946 17.2856 37.3678 17.4614C37.741 17.6373 38.1489 17.7295 38.5623 17.7315C40.0554 17.7315 40.3017 16.5495 40.3365 16.0891L37.6879 16.237V14.4644L40.3396 14.6123C40.3218 14.0692 40.0399 12.9194 38.5305 12.9194C37.8111 12.9194 37.1783 13.1813 36.6339 13.7252L35.3344 12.4092C36.5472 11.4402 37.8808 11.1951 38.6002 11.1951C40.3396 11.1951 43.0254 11.8845 43.0254 15.2182C43.0254 18.4063 40.637 19.4565 38.5142 19.4565C37.056 19.4565 36.1081 18.9801 35.0525 17.9781L36.4031 16.7142Z" fill="#222222"></path> <path d="M43.9376 13.1814V11.3759H50.5405V13.1814H48.4333V19.2758H46.0464V13.1814H43.9376Z" fill="#222222"></path> <path d="M66.2066 15.8754C65.1356 15.8264 65.1356 16.2531 64.5563 17.3875C64.0467 18.3726 63.4318 19.4558 61.9751 19.4558C61.6762 19.4563 61.3795 19.4063 61.0977 19.3079V17.5836C61.9046 17.5346 61.8721 17.2719 62.3608 16.4997C63.0462 15.3668 63.555 15.0711 64.0127 15.0052C63.2754 14.8091 62.9935 14.397 62.7658 14.086C62.4142 13.5904 62.0982 13.1308 61.5406 13.1308C61.4695 13.1283 61.3983 13.134 61.3284 13.1476V11.359C61.5406 11.2441 61.8032 11.1951 62.1896 11.1951C63.4884 11.1951 64.1203 11.9833 64.8769 13.117C65.2642 13.6907 65.5437 14.2017 66.2105 14.1519V11.3758H68.5981V14.1519C69.2657 14.2017 69.5445 13.6923 69.9333 13.1178C70.6891 11.9841 71.3203 11.1951 72.6198 11.1951C73.007 11.1951 73.2703 11.2449 73.4779 11.3598V13.1492C73.4096 13.1355 73.3399 13.1299 73.2703 13.1323C72.7089 13.1323 72.3906 13.5919 72.039 14.0845C71.8066 14.397 71.5309 14.8091 70.7929 15.0037C71.2483 15.0696 71.7594 15.3653 72.444 16.4982C72.935 17.2703 72.9009 17.5331 73.7079 17.5821V19.3072C73.4255 19.4055 73.1283 19.4555 72.8289 19.455C71.3729 19.455 70.758 18.3711 70.2492 17.3868C69.6692 16.2523 69.6692 15.8256 68.5973 15.8747V19.275H66.2066V15.8754Z" fill="#222222"></path> <path d="M80.4386 12.5908V11.3759H82.8247V19.2758H80.4386V15.2519L77.6112 18.1428V19.2758H75.2228V11.3759H77.6112V15.4978L80.4386 12.5908Z" fill="#222222"></path> <path d="M36.8019 32H35.6402L35.5085 29.8061V28.9367H35.8292C36.1258 28.7789 36.3558 28.4112 36.5672 26.6869L36.8538 24.2931H40.8104V28.9367H41.6894V29.8061L41.56 32H40.3922V30.0015H36.8019V32ZM39.4574 28.9359V25.3579H37.9256L37.742 26.9749C37.6383 27.8811 37.447 28.5116 37.1906 28.9367L39.4574 28.9359ZM42.3608 27.1488C42.3608 25.2943 43.6626 24.1506 45.0202 24.1506C46.5807 24.1506 47.4032 25.2667 47.4032 26.8608C47.4042 27.0789 47.3845 27.2967 47.3443 27.5111H43.6812C43.7943 28.5246 44.4518 29.1006 45.385 29.1006C45.8783 29.1006 46.3012 28.9474 46.724 28.687L47.1887 29.5196C46.6052 29.9142 45.9167 30.1292 45.21 30.1378C43.6108 30.1409 42.3608 29.034 42.3608 27.1488ZM46.233 26.6004C46.233 25.7217 45.838 25.1871 45.0489 25.1871C44.3767 25.1871 43.785 25.685 43.6673 26.6004H46.233ZM48.6973 24.29H51.0376C52.3132 24.29 53.2649 24.6784 53.2649 25.7685C53.2649 26.3261 52.9405 26.7842 52.3015 26.9673V27.0094C52.983 27.1718 53.495 27.5671 53.495 28.3622C53.495 29.5112 52.4781 29.9984 51.1554 29.9984H48.6973V24.29ZM50.899 26.6004C51.6603 26.6004 51.9585 26.3353 51.9585 25.9033C51.9585 25.4712 51.6626 25.2016 50.9385 25.2016H50.0224V26.6004H50.899ZM51.0539 29.0868C51.8284 29.0868 52.1769 28.7758 52.1769 28.2733C52.1769 27.8183 51.8013 27.5073 51.0152 27.5073H50.0224V29.083L51.0539 29.0868ZM54.4018 27.1488C54.4018 25.2943 55.7037 24.1506 57.0613 24.1506C58.6218 24.1506 59.4442 25.2667 59.4442 26.8608C59.4452 27.0789 59.4255 27.2967 59.3854 27.5111H55.7222C55.8353 28.5246 56.4967 29.1006 57.426 29.1006C57.9193 29.1006 58.3422 28.9474 58.765 28.687L59.2297 29.5196C58.6462 29.9142 57.9578 30.1292 57.251 30.1378C55.6549 30.1409 54.4018 29.034 54.4018 27.1488ZM58.274 26.6004C58.274 25.7217 57.8791 25.1871 57.0899 25.1871C56.4177 25.1871 55.826 25.685 55.7083 26.6004H58.274ZM59.9724 30.026L60.2047 28.8126C60.2943 28.8415 60.3877 28.8572 60.482 28.8593C60.8398 28.8593 61.086 28.5621 61.1751 27.8344C61.33 26.6563 61.457 25.4758 61.5956 24.29H65.5058V29.9984H64.1544V25.3579H62.6698C62.5567 26.297 62.4444 27.2591 62.3174 28.1975C62.1408 29.4714 61.5654 30.1409 60.5811 30.1409C60.3726 30.1448 60.1655 30.1067 59.9724 30.029V30.026ZM66.8425 27.1488C66.8425 25.2476 68.1489 24.1506 69.5863 24.1506C71.0237 24.1506 72.3309 25.2476 72.3309 27.1488C72.3309 29.0501 71.0244 30.1363 69.5863 30.1363C68.1482 30.1363 66.8425 29.0439 66.8425 27.1488ZM70.94 27.1488C70.94 26.0052 70.432 25.243 69.5863 25.243C68.7406 25.243 68.2333 26.0052 68.2333 27.1488C68.2333 28.2925 68.7429 29.0485 69.5863 29.0485C70.4297 29.0485 70.94 28.2978 70.94 27.1488ZM73.6723 24.29H78.5729V29.9984H77.22V25.3579H75.0252V30.0015H73.6723V24.29ZM80.2976 24.29H81.8465L82.7719 26.5958C82.9323 27.0653 83.0871 27.4974 83.2366 27.9294H83.2838C83.4387 27.4974 83.6052 27.0653 83.7539 26.5958L84.6345 24.29H86.1779V29.9984H84.9659V27.9991C84.9659 27.4391 85.0596 26.3958 85.1115 25.7777H85.0643C84.9001 26.2564 84.6771 26.8003 84.5144 27.2561L83.6385 29.4852H82.844L81.9472 27.2591C81.7822 26.8033 81.5599 26.2457 81.3973 25.7807H81.3501C81.402 26.3989 81.4957 27.4422 81.4957 28.0022V30.0015H80.2976V24.29ZM87.5169 27.1488C87.5169 25.2943 88.8188 24.1506 90.1772 24.1506C91.7369 24.1506 92.5593 25.2667 92.5593 26.8608C92.5607 27.0789 92.541 27.2967 92.5005 27.5111H88.8374C88.9504 28.5246 89.6118 29.1006 90.5411 29.1006C91.0345 29.1006 91.4573 28.9474 91.8801 28.687L92.3448 29.5196C91.7613 29.9142 91.0729 30.1292 90.3661 30.1378C88.7669 30.1409 87.5169 29.034 87.5169 27.1488ZM91.3892 26.6004C91.3892 25.7217 90.995 25.1871 90.205 25.1871C89.5328 25.1871 88.9411 25.685 88.8234 26.6004H91.3892ZM93.8534 24.29H95.2071V26.4747H97.5049V24.2931H98.8586V30.0015H97.5049V27.6536H95.2071V30.0015H93.8534V24.29ZM101.83 25.3548H100.016V24.29H104.998V25.3548H103.184V29.9984H101.83V25.3548Z" fill="#222222"></path> <path d="M18 19.2757L18.0627 11.588L29.4633 8V19.2757H18Z" fill="#D3413F"></path> </g> <path d="M123.322 17.0078V23.5361H124.396V27.0908H123.295V24.5H117.99V27.0908H116.903V23.5361H117.491C117.92 22.9437 118.275 22.2943 118.558 21.5879C118.84 20.8815 119.054 20.141 119.2 19.3662C119.346 18.5869 119.424 17.8008 119.433 17.0078H123.322ZM122.222 17.9102H120.444C120.403 18.5755 120.305 19.2523 120.15 19.9404C120 20.6286 119.799 21.2848 119.549 21.9092C119.298 22.529 119.007 23.0713 118.674 23.5361H122.222V17.9102ZM126.966 17.0078V21.7178C126.966 21.8089 126.964 21.9274 126.959 22.0732C126.954 22.2145 126.948 22.3672 126.938 22.5312C126.929 22.6908 126.92 22.8457 126.911 22.9961C126.907 23.1419 126.9 23.2627 126.891 23.3584L130.979 17.0078H132.373V24.5H131.313V19.9062C131.313 19.7604 131.316 19.5736 131.32 19.3457C131.325 19.1178 131.332 18.8945 131.341 18.6758C131.35 18.4525 131.357 18.2793 131.361 18.1562L127.287 24.5H125.886V17.0078H126.966ZM138.307 16.8711C139.241 16.8711 139.986 17.1924 140.542 17.835C141.098 18.4775 141.376 19.4437 141.376 20.7334C141.376 21.5856 141.248 22.3011 140.993 22.8799C140.738 23.4587 140.378 23.8962 139.913 24.1924C139.453 24.4886 138.908 24.6367 138.279 24.6367C137.883 24.6367 137.534 24.5843 137.233 24.4795C136.933 24.3747 136.675 24.2334 136.461 24.0557C136.247 23.8779 136.069 23.6842 135.928 23.4746H135.846C135.859 23.6523 135.875 23.8665 135.894 24.1172C135.916 24.3678 135.928 24.5866 135.928 24.7734V27.8496H134.786V17.0078H135.723L135.873 18.1152H135.928C136.074 17.8874 136.251 17.68 136.461 17.4932C136.671 17.3018 136.926 17.1514 137.227 17.042C137.532 16.9281 137.892 16.8711 138.307 16.8711ZM138.108 17.8281C137.589 17.8281 137.17 17.9284 136.851 18.1289C136.536 18.3294 136.306 18.6302 136.16 19.0312C136.014 19.4277 135.937 19.9268 135.928 20.5283V20.7471C135.928 21.3805 135.996 21.916 136.133 22.3535C136.274 22.791 136.504 23.1237 136.823 23.3516C137.147 23.5794 137.58 23.6934 138.122 23.6934C138.587 23.6934 138.974 23.568 139.284 23.3174C139.594 23.0667 139.824 22.7181 139.975 22.2715C140.13 21.8203 140.207 21.3031 140.207 20.7197C140.207 19.8356 140.034 19.1338 139.688 18.6143C139.346 18.0902 138.819 17.8281 138.108 17.8281ZM146.243 16.8711C146.881 16.8711 147.428 17.0124 147.884 17.2949C148.34 17.5775 148.688 17.974 148.93 18.4844C149.171 18.9902 149.292 19.5827 149.292 20.2617V20.9658H144.117C144.131 21.8454 144.35 22.5153 144.773 22.9756C145.197 23.4359 145.794 23.666 146.564 23.666C147.038 23.666 147.458 23.6227 147.822 23.5361C148.187 23.4495 148.565 23.3219 148.957 23.1533V24.1514C148.579 24.32 148.203 24.443 147.829 24.5205C147.46 24.598 147.022 24.6367 146.517 24.6367C145.797 24.6367 145.168 24.4909 144.63 24.1992C144.097 23.903 143.682 23.4701 143.386 22.9004C143.09 22.3307 142.941 21.6335 142.941 20.8086C142.941 20.002 143.076 19.3047 143.345 18.7168C143.618 18.1243 144.001 17.6686 144.493 17.3496C144.99 17.0306 145.573 16.8711 146.243 16.8711ZM146.229 17.8008C145.623 17.8008 145.14 17.999 144.78 18.3955C144.42 18.792 144.206 19.3457 144.138 20.0566H148.103C148.098 19.61 148.027 19.2181 147.891 18.8809C147.758 18.5391 147.556 18.2747 147.282 18.0879C147.009 17.8965 146.658 17.8008 146.229 17.8008ZM155.588 17.0078H156.839L153.605 20.624L157.099 24.5H155.766L152.361 20.6992V24.5H151.22V17.0078H152.361V20.6445L155.588 17.0078ZM163.559 17.9717H161.091V24.5H159.97V17.9717H157.536V17.0078H163.559V17.9717ZM171.502 20.7402C171.502 21.3555 171.422 21.9046 171.263 22.3877C171.103 22.8708 170.873 23.2786 170.572 23.6113C170.271 23.944 169.907 24.1992 169.479 24.377C169.055 24.5501 168.574 24.6367 168.036 24.6367C167.535 24.6367 167.075 24.5501 166.655 24.377C166.241 24.1992 165.881 23.944 165.575 23.6113C165.274 23.2786 165.04 22.8708 164.871 22.3877C164.707 21.9046 164.625 21.3555 164.625 20.7402C164.625 19.9199 164.764 19.2227 165.042 18.6484C165.32 18.0697 165.716 17.6299 166.231 17.3291C166.751 17.0238 167.368 16.8711 168.084 16.8711C168.768 16.8711 169.365 17.0238 169.875 17.3291C170.39 17.6344 170.789 18.0765 171.071 18.6553C171.358 19.2295 171.502 19.9245 171.502 20.7402ZM165.801 20.7402C165.801 21.3418 165.881 21.8636 166.04 22.3057C166.2 22.7477 166.446 23.0895 166.778 23.3311C167.111 23.5726 167.539 23.6934 168.063 23.6934C168.583 23.6934 169.009 23.5726 169.342 23.3311C169.679 23.0895 169.927 22.7477 170.087 22.3057C170.246 21.8636 170.326 21.3418 170.326 20.7402C170.326 20.1432 170.246 19.6283 170.087 19.1953C169.927 18.7578 169.681 18.4206 169.349 18.1836C169.016 17.9466 168.585 17.8281 168.057 17.8281C167.277 17.8281 166.705 18.0856 166.341 18.6006C165.981 19.1156 165.801 19.8288 165.801 20.7402ZM176.984 16.8711C177.919 16.8711 178.664 17.1924 179.22 17.835C179.776 18.4775 180.054 19.4437 180.054 20.7334C180.054 21.5856 179.926 22.3011 179.671 22.8799C179.416 23.4587 179.056 23.8962 178.591 24.1924C178.131 24.4886 177.586 24.6367 176.957 24.6367C176.561 24.6367 176.212 24.5843 175.911 24.4795C175.61 24.3747 175.353 24.2334 175.139 24.0557C174.924 23.8779 174.747 23.6842 174.605 23.4746H174.523C174.537 23.6523 174.553 23.8665 174.571 24.1172C174.594 24.3678 174.605 24.5866 174.605 24.7734V27.8496H173.464V17.0078H174.4L174.551 18.1152H174.605C174.751 17.8874 174.929 17.68 175.139 17.4932C175.348 17.3018 175.604 17.1514 175.904 17.042C176.21 16.9281 176.57 16.8711 176.984 16.8711ZM176.786 17.8281C176.267 17.8281 175.847 17.9284 175.528 18.1289C175.214 18.3294 174.984 18.6302 174.838 19.0312C174.692 19.4277 174.615 19.9268 174.605 20.5283V20.7471C174.605 21.3805 174.674 21.916 174.811 22.3535C174.952 22.791 175.182 23.1237 175.501 23.3516C175.825 23.5794 176.257 23.6934 176.8 23.6934C177.265 23.6934 177.652 23.568 177.962 23.3174C178.272 23.0667 178.502 22.7181 178.652 22.2715C178.807 21.8203 178.885 21.3031 178.885 20.7197C178.885 19.8356 178.712 19.1338 178.365 18.6143C178.023 18.0902 177.497 17.8281 176.786 17.8281ZM186.753 17.0078V21.7178C186.753 21.8089 186.751 21.9274 186.746 22.0732C186.742 22.2145 186.735 22.3672 186.726 22.5312C186.716 22.6908 186.707 22.8457 186.698 22.9961C186.694 23.1419 186.687 23.2627 186.678 23.3584L190.766 17.0078H192.16V24.5H191.101V19.9062C191.101 19.7604 191.103 19.5736 191.107 19.3457C191.112 19.1178 191.119 18.8945 191.128 18.6758C191.137 18.4525 191.144 18.2793 191.148 18.1562L187.074 24.5H185.673V17.0078H186.753ZM201.211 24.6367C200.536 24.6367 199.942 24.4977 199.427 24.2197C198.912 23.9417 198.511 23.5179 198.224 22.9482C197.937 22.3786 197.793 21.6608 197.793 20.7949C197.793 19.888 197.943 19.1475 198.244 18.5732C198.549 17.9945 198.969 17.5661 199.502 17.2881C200.035 17.0101 200.641 16.8711 201.32 16.8711C201.694 16.8711 202.054 16.9098 202.4 16.9873C202.751 17.0602 203.038 17.1536 203.262 17.2676L202.92 18.2178C202.692 18.1266 202.428 18.0446 202.127 17.9717C201.831 17.8988 201.553 17.8623 201.293 17.8623C200.773 17.8623 200.34 17.974 199.994 18.1973C199.652 18.4206 199.395 18.7487 199.222 19.1816C199.053 19.6146 198.969 20.1478 198.969 20.7812C198.969 21.3874 199.051 21.9046 199.215 22.333C199.383 22.7614 199.632 23.0895 199.96 23.3174C200.293 23.5407 200.707 23.6523 201.204 23.6523C201.601 23.6523 201.958 23.6113 202.277 23.5293C202.596 23.4427 202.886 23.3424 203.146 23.2285V24.2402C202.895 24.3678 202.615 24.4658 202.305 24.5342C201.999 24.6025 201.635 24.6367 201.211 24.6367ZM211.383 20.7402C211.383 21.3555 211.303 21.9046 211.144 22.3877C210.984 22.8708 210.754 23.2786 210.453 23.6113C210.152 23.944 209.788 24.1992 209.359 24.377C208.936 24.5501 208.455 24.6367 207.917 24.6367C207.416 24.6367 206.955 24.5501 206.536 24.377C206.121 24.1992 205.761 23.944 205.456 23.6113C205.155 23.2786 204.921 22.8708 204.752 22.3877C204.588 21.9046 204.506 21.3555 204.506 20.7402C204.506 19.9199 204.645 19.2227 204.923 18.6484C205.201 18.0697 205.597 17.6299 206.112 17.3291C206.632 17.0238 207.249 16.8711 207.965 16.8711C208.648 16.8711 209.245 17.0238 209.756 17.3291C210.271 17.6344 210.67 18.0765 210.952 18.6553C211.239 19.2295 211.383 19.9245 211.383 20.7402ZM205.682 20.7402C205.682 21.3418 205.761 21.8636 205.921 22.3057C206.08 22.7477 206.326 23.0895 206.659 23.3311C206.992 23.5726 207.42 23.6934 207.944 23.6934C208.464 23.6934 208.89 23.5726 209.223 23.3311C209.56 23.0895 209.808 22.7477 209.968 22.3057C210.127 21.8636 210.207 21.3418 210.207 20.7402C210.207 20.1432 210.127 19.6283 209.968 19.1953C209.808 18.7578 209.562 18.4206 209.229 18.1836C208.897 17.9466 208.466 17.8281 207.938 17.8281C207.158 17.8281 206.586 18.0856 206.222 18.6006C205.862 19.1156 205.682 19.8288 205.682 20.7402ZM212.162 17.0078H213.379L215.033 21.3555C215.129 21.6107 215.218 21.8568 215.3 22.0938C215.382 22.3262 215.455 22.5495 215.519 22.7637C215.582 22.9779 215.632 23.1852 215.669 23.3857H215.717C215.781 23.1579 215.872 22.8594 215.99 22.4902C216.109 22.1165 216.236 21.736 216.373 21.3486L217.938 17.0078H219.162L215.901 25.6006C215.728 26.0609 215.525 26.4619 215.293 26.8037C215.065 27.1455 214.787 27.4076 214.459 27.5898C214.131 27.7767 213.734 27.8701 213.27 27.8701C213.055 27.8701 212.866 27.8564 212.702 27.8291C212.538 27.8063 212.397 27.779 212.278 27.7471V26.8379C212.379 26.8607 212.499 26.8812 212.641 26.8994C212.786 26.9176 212.937 26.9268 213.092 26.9268C213.374 26.9268 213.618 26.8721 213.823 26.7627C214.033 26.6579 214.213 26.5029 214.363 26.2979C214.514 26.0928 214.644 25.849 214.753 25.5664L215.163 24.5137L212.162 17.0078ZM221.35 17.0078V19.7012C221.35 20.1706 221.477 20.5169 221.732 20.7402C221.992 20.9635 222.368 21.0752 222.86 21.0752C223.334 21.0752 223.765 21.0023 224.152 20.8564C224.54 20.7106 224.932 20.5124 225.328 20.2617V17.0078H226.463V24.5H225.328V21.1436C224.909 21.4124 224.496 21.6243 224.091 21.7793C223.685 21.9342 223.2 22.0117 222.635 22.0117C221.865 22.0117 221.268 21.8112 220.844 21.4102C220.424 21.0091 220.215 20.4668 220.215 19.7832V17.0078H221.35ZM232.383 16.8711C233.317 16.8711 234.062 17.1924 234.618 17.835C235.174 18.4775 235.452 19.4437 235.452 20.7334C235.452 21.5856 235.325 22.3011 235.069 22.8799C234.814 23.4587 234.454 23.8962 233.989 24.1924C233.529 24.4886 232.984 24.6367 232.355 24.6367C231.959 24.6367 231.61 24.5843 231.31 24.4795C231.009 24.3747 230.751 24.2334 230.537 24.0557C230.323 23.8779 230.145 23.6842 230.004 23.4746H229.922C229.936 23.6523 229.951 23.8665 229.97 24.1172C229.993 24.3678 230.004 24.5866 230.004 24.7734V27.8496H228.862V17.0078H229.799L229.949 18.1152H230.004C230.15 17.8874 230.327 17.68 230.537 17.4932C230.747 17.3018 231.002 17.1514 231.303 17.042C231.608 16.9281 231.968 16.8711 232.383 16.8711ZM232.185 17.8281C231.665 17.8281 231.246 17.9284 230.927 18.1289C230.612 18.3294 230.382 18.6302 230.236 19.0312C230.09 19.4277 230.013 19.9268 230.004 20.5283V20.7471C230.004 21.3805 230.072 21.916 230.209 22.3535C230.35 22.791 230.58 23.1237 230.899 23.3516C231.223 23.5794 231.656 23.6934 232.198 23.6934C232.663 23.6934 233.05 23.568 233.36 23.3174C233.67 23.0667 233.9 22.7181 234.051 22.2715C234.206 21.8203 234.283 21.3031 234.283 20.7197C234.283 19.8356 234.11 19.1338 233.764 18.6143C233.422 18.0902 232.896 17.8281 232.185 17.8281ZM240.319 16.8711C240.957 16.8711 241.504 17.0124 241.96 17.2949C242.416 17.5775 242.764 17.974 243.006 18.4844C243.247 18.9902 243.368 19.5827 243.368 20.2617V20.9658H238.193C238.207 21.8454 238.426 22.5153 238.85 22.9756C239.273 23.4359 239.87 23.666 240.641 23.666C241.115 23.666 241.534 23.6227 241.898 23.5361C242.263 23.4495 242.641 23.3219 243.033 23.1533V24.1514C242.655 24.32 242.279 24.443 241.905 24.5205C241.536 24.598 241.099 24.6367 240.593 24.6367C239.873 24.6367 239.244 24.4909 238.706 24.1992C238.173 23.903 237.758 23.4701 237.462 22.9004C237.166 22.3307 237.018 21.6335 237.018 20.8086C237.018 20.002 237.152 19.3047 237.421 18.7168C237.694 18.1243 238.077 17.6686 238.569 17.3496C239.066 17.0306 239.649 16.8711 240.319 16.8711ZM240.306 17.8008C239.7 17.8008 239.216 17.999 238.856 18.3955C238.496 18.792 238.282 19.3457 238.214 20.0566H242.179C242.174 19.61 242.104 19.2181 241.967 18.8809C241.835 18.5391 241.632 18.2747 241.358 18.0879C241.085 17.8965 240.734 17.8008 240.306 17.8008ZM250.785 17.0078V23.5361H251.858V27.0908H250.758V24.5H245.453V27.0908H244.366V23.5361H244.954C245.382 22.9437 245.738 22.2943 246.021 21.5879C246.303 20.8815 246.517 20.141 246.663 19.3662C246.809 18.5869 246.886 17.8008 246.896 17.0078H250.785ZM249.685 17.9102H247.907C247.866 18.5755 247.768 19.2523 247.613 19.9404C247.463 20.6286 247.262 21.2848 247.012 21.9092C246.761 22.529 246.469 23.0713 246.137 23.5361H249.685V17.9102ZM254.429 17.0078V21.7178C254.429 21.8089 254.426 21.9274 254.422 22.0732C254.417 22.2145 254.41 22.3672 254.401 22.5312C254.392 22.6908 254.383 22.8457 254.374 22.9961C254.369 23.1419 254.363 23.2627 254.354 23.3584L258.441 17.0078H259.836V24.5H258.776V19.9062C258.776 19.7604 258.779 19.5736 258.783 19.3457C258.788 19.1178 258.795 18.8945 258.804 18.6758C258.813 18.4525 258.82 18.2793 258.824 18.1562L254.75 24.5H253.349V17.0078H254.429ZM267.355 17.9717H264.888V24.5H263.767V17.9717H261.333V17.0078H267.355V17.9717ZM271.724 16.8711C272.362 16.8711 272.909 17.0124 273.364 17.2949C273.82 17.5775 274.169 17.974 274.41 18.4844C274.652 18.9902 274.772 19.5827 274.772 20.2617V20.9658H269.598C269.611 21.8454 269.83 22.5153 270.254 22.9756C270.678 23.4359 271.275 23.666 272.045 23.666C272.519 23.666 272.938 23.6227 273.303 23.5361C273.667 23.4495 274.046 23.3219 274.438 23.1533V24.1514C274.059 24.32 273.683 24.443 273.31 24.5205C272.94 24.598 272.503 24.6367 271.997 24.6367C271.277 24.6367 270.648 24.4909 270.11 24.1992C269.577 23.903 269.162 23.4701 268.866 22.9004C268.57 22.3307 268.422 21.6335 268.422 20.8086C268.422 20.002 268.556 19.3047 268.825 18.7168C269.099 18.1243 269.481 17.6686 269.974 17.3496C270.47 17.0306 271.054 16.8711 271.724 16.8711ZM271.71 17.8008C271.104 17.8008 270.621 17.999 270.261 18.3955C269.901 18.792 269.687 19.3457 269.618 20.0566H273.583C273.578 19.61 273.508 19.2181 273.371 18.8809C273.239 18.5391 273.036 18.2747 272.763 18.0879C272.489 17.8965 272.138 17.8008 271.71 17.8008ZM282.319 24.5H281.164V17.958H278.888C278.797 19.1383 278.68 20.1501 278.539 20.9932C278.402 21.8317 278.229 22.5176 278.02 23.0508C277.814 23.5794 277.564 23.9691 277.268 24.2197C276.976 24.4658 276.627 24.5889 276.222 24.5889C276.099 24.5889 275.982 24.582 275.873 24.5684C275.764 24.5547 275.67 24.5319 275.593 24.5V23.6387C275.652 23.6569 275.714 23.6706 275.777 23.6797C275.846 23.6888 275.916 23.6934 275.989 23.6934C276.194 23.6934 276.381 23.609 276.55 23.4404C276.723 23.2673 276.878 23.0075 277.015 22.6611C277.156 22.3148 277.281 21.8773 277.391 21.3486C277.5 20.8154 277.596 20.1888 277.678 19.4688C277.764 18.7441 277.84 17.9238 277.903 17.0078H282.319V24.5ZM285.854 20.0977H288.15C288.788 20.0977 289.319 20.1774 289.743 20.3369C290.167 20.4964 290.484 20.7334 290.693 21.0479C290.908 21.3623 291.015 21.752 291.015 22.2168C291.015 22.6816 290.91 23.085 290.7 23.4268C290.495 23.7686 290.176 24.0329 289.743 24.2197C289.315 24.4066 288.761 24.5 288.082 24.5H284.712V17.0078H285.854V20.0977ZM289.873 22.2715C289.873 21.8112 289.709 21.4922 289.381 21.3145C289.057 21.1322 288.604 21.041 288.021 21.041H285.854V23.5771H288.027C288.574 23.5771 289.019 23.4769 289.36 23.2764C289.702 23.0713 289.873 22.7363 289.873 22.2715Z" fill="#555555"></path> <defs> <clipPath id="clip0_3161_232"> <rect width="87" height="24" fill="white" transform="translate(18 8)"></rect> </clipPath> </defs> </svg> 