<?xml version="1.0" encoding="UTF-8"?> <svg xmlns="http://www.w3.org/2000/svg" width="44" height="44" viewBox="0 0 44 44" fill="none"> <circle cx="22" cy="22" r="22" fill="#D3413F"></circle> <path d="M33 17.5714C32.9725 18.6358 32.9911 19.7043 32.9078 20.7653C32.6773 23.7195 31.632 26.3799 29.8366 28.7437C28.1163 31.0079 25.9197 32.6626 23.2773 33.7352C22.4453 34.0727 21.6058 34.098 20.7717 33.7509C16.019 31.7733 12.9338 28.3233 11.5163 23.4011C11.1433 22.0907 10.9946 20.7483 11.0001 19.3819C11.0057 17.941 11.0001 16.4994 11.0001 15.0586C11.0057 13.3663 12.0124 12.1208 13.6791 11.7478C16.1798 11.1882 18.6825 10.639 21.1833 10.0787C21.8645 9.92638 22.5251 10.0166 23.194 10.1675C25.5681 10.7032 27.9477 11.2142 30.3204 11.7539C31.9781 12.1311 32.9635 13.3786 32.9711 15.0627C32.9752 15.8982 32.9711 16.7338 32.9711 17.5693L33 17.5714ZM21.153 22.4002C21.089 22.3415 21.0381 22.2964 20.9899 22.2492C20.4628 21.7368 19.9453 21.2135 19.4072 20.7127C18.7878 20.1361 17.8189 20.3923 17.5905 21.1869C17.4632 21.6282 17.596 22.0067 17.9256 22.3251C18.7 23.0752 19.4718 23.8268 20.2412 24.5796C20.8605 25.1836 21.433 25.1856 22.0524 24.5796C23.5713 23.0985 25.0894 21.6168 26.6065 20.1347C26.784 19.9619 26.9506 19.7726 27.1412 19.6176C27.2565 19.5298 27.352 19.4191 27.4217 19.2925C27.4913 19.1659 27.5334 19.0262 27.5454 18.8824C27.5574 18.7387 27.539 18.594 27.4913 18.4578C27.4436 18.3215 27.3677 18.1967 27.2685 18.0913C26.8384 17.6131 26.1303 17.6001 25.6438 18.0681C24.2262 19.4345 22.8109 20.8009 21.398 22.1673C21.3181 22.2472 21.2369 22.3196 21.153 22.4002Z" fill="white"></path> </svg> 