<?xml version="1.0" encoding="UTF-8"?> <svg xmlns="http://www.w3.org/2000/svg" width="226" height="40" viewBox="0 0 226 40" fill="none"> <rect width="226" height="40" rx="20" fill="#F8F8F8"></rect> <g clip-path="url(#clip0_3161_965)"> <path d="M51.8214 12.2951C52.8997 11.5736 54.1727 11.1903 55.4745 11.1951C58.6698 11.1951 58.8642 13.117 58.8642 14.0026V16.3849C58.8642 17.1072 59.0191 17.6335 59.7765 17.5837V19.3087C59.514 19.4101 59.2342 19.4603 58.9525 19.4566C58.5126 19.4566 57.653 19.4083 57.1263 18.5688C56.3364 19.1456 55.5287 19.4566 54.3686 19.4566C52.2961 19.4566 51.5233 18.3405 51.5233 17.1746C51.5233 14.9892 53.5941 14.2822 56.475 14.2178C56.4913 13.2986 56.2473 13.0006 55.2274 13.0006C54.4901 13.0006 53.471 13.3292 52.8042 13.7728L51.8214 12.2951ZM56.475 15.7774C55.0353 15.7606 53.9806 16.2041 53.9806 16.977C53.9806 17.4527 54.4197 17.6495 54.9292 17.6495C55.4024 17.6495 56.0367 17.3209 56.4781 17.026L56.475 15.7774Z" fill="#222222"></path> <path d="M36.4031 16.7142C36.6651 17.0304 36.9945 17.2856 37.3677 17.4614C37.741 17.6373 38.1488 17.7295 38.5622 17.7315C40.0553 17.7315 40.3016 16.5495 40.3364 16.0891L37.6879 16.237V14.4644L40.3395 14.6123C40.3217 14.0692 40.0398 12.9194 38.5304 12.9194C37.811 12.9194 37.1783 13.1813 36.6338 13.7252L35.3343 12.4092C36.5471 11.4402 37.8807 11.1951 38.6001 11.1951C40.3395 11.1951 43.0253 11.8845 43.0253 15.2182C43.0253 18.4063 40.6369 19.4565 38.5142 19.4565C37.0559 19.4565 36.108 18.9801 35.0524 17.9781L36.4031 16.7142Z" fill="#222222"></path> <path d="M43.9376 13.1812V11.3757H50.5405V13.1812H48.4332V19.2756H46.0464V13.1812H43.9376Z" fill="#222222"></path> <path d="M66.2067 15.8754C65.1356 15.8264 65.1356 16.2531 64.5563 17.3875C64.0468 18.3726 63.4319 19.4558 61.9751 19.4558C61.6763 19.4563 61.3795 19.4063 61.0977 19.3079V17.5836C61.9047 17.5346 61.8721 17.2719 62.3608 16.4997C63.0462 15.3668 63.555 15.0711 64.0127 15.0052C63.2754 14.8091 62.9935 14.397 62.7658 14.086C62.4142 13.5904 62.0983 13.1308 61.5407 13.1308C61.4695 13.1283 61.3983 13.134 61.3285 13.1476V11.359C61.5407 11.2441 61.8032 11.1951 62.1896 11.1951C63.4884 11.1951 64.1203 11.9833 64.877 13.117C65.2642 13.6907 65.5438 14.2017 66.2105 14.1519V11.3758H68.5982V14.1519C69.2657 14.2017 69.5445 13.6923 69.9333 13.1178C70.6891 11.9841 71.3203 11.1951 72.6198 11.1951C73.007 11.1951 73.2704 11.2449 73.4779 11.3598V13.1492C73.4096 13.1355 73.34 13.1299 73.2704 13.1323C72.7089 13.1323 72.3906 13.5919 72.039 14.0845C71.8067 14.397 71.531 14.8091 70.7929 15.0037C71.2483 15.0696 71.7594 15.3653 72.444 16.4982C72.935 17.2703 72.9009 17.5331 73.7079 17.5821V19.3072C73.4255 19.4055 73.1283 19.4555 72.8289 19.455C71.373 19.455 70.7581 18.3711 70.2493 17.3868C69.6692 16.2523 69.6692 15.8256 68.5974 15.8747V19.275H66.2067V15.8754Z" fill="#222222"></path> <path d="M80.4386 12.5906V11.3757H82.8246V19.2756H80.4386V15.2518L77.6111 18.1427V19.2756H75.2227V11.3757H77.6111V15.4977L80.4386 12.5906Z" fill="#222222"></path> <path d="M36.8019 32H35.6402L35.5086 29.8061V28.9367H35.8292C36.1258 28.7789 36.3558 28.4112 36.5672 26.6869L36.8538 24.2931H40.8104V28.9367H41.6894V29.8061L41.5601 32H40.3922V30.0015H36.8019V32ZM39.4575 28.9359V25.3579H37.9256L37.7421 26.9749C37.6383 27.8811 37.447 28.5116 37.1907 28.9367L39.4575 28.9359ZM42.3608 27.1488C42.3608 25.2943 43.6627 24.1506 45.0203 24.1506C46.5808 24.1506 47.4032 25.2667 47.4032 26.8608C47.4042 27.0789 47.3845 27.2967 47.3444 27.5111H43.6813C43.7943 28.5246 44.4518 29.1006 45.385 29.1006C45.8784 29.1006 46.3012 28.9474 46.724 28.687L47.1887 29.5196C46.6052 29.9142 45.9168 30.1292 45.21 30.1378C43.6108 30.1409 42.3608 29.034 42.3608 27.1488ZM46.233 26.6004C46.233 25.7217 45.8381 25.1871 45.0489 25.1871C44.3767 25.1871 43.785 25.685 43.6673 26.6004H46.233ZM48.6973 24.29H51.0377C52.3132 24.29 53.265 24.6784 53.265 25.7685C53.265 26.3261 52.9405 26.7842 52.3016 26.9673V27.0094C52.9831 27.1718 53.495 27.5671 53.495 28.3622C53.495 29.5112 52.4781 29.9984 51.1554 29.9984H48.6973V24.29ZM50.8991 26.6004C51.6603 26.6004 51.9585 26.3353 51.9585 25.9033C51.9585 25.4712 51.6627 25.2016 50.9385 25.2016H50.0224V26.6004H50.8991ZM51.0539 29.0868C51.8284 29.0868 52.1769 28.7758 52.1769 28.2733C52.1769 27.8183 51.8013 27.5073 51.0152 27.5073H50.0224V29.083L51.0539 29.0868ZM54.4019 27.1488C54.4019 25.2943 55.7037 24.1506 57.0613 24.1506C58.6218 24.1506 59.4442 25.2667 59.4442 26.8608C59.4452 27.0789 59.4255 27.2967 59.3854 27.5111H55.7223C55.8353 28.5246 56.4967 29.1006 57.426 29.1006C57.9194 29.1006 58.3422 28.9474 58.7651 28.687L59.2297 29.5196C58.6462 29.9142 57.9578 30.1292 57.251 30.1378C55.6549 30.1409 54.4019 29.034 54.4019 27.1488ZM58.2741 26.6004C58.2741 25.7217 57.8791 25.1871 57.0899 25.1871C56.4177 25.1871 55.8261 25.685 55.7083 26.6004H58.2741ZM59.9724 30.026L60.2047 28.8126C60.2944 28.8415 60.3878 28.8572 60.482 28.8593C60.8398 28.8593 61.0861 28.5621 61.1751 27.8344C61.33 26.6563 61.457 25.4758 61.5956 24.29H65.5058V29.9984H64.1544V25.3579H62.6698C62.5567 26.297 62.4444 27.2591 62.3174 28.1975C62.1409 29.4714 61.5654 30.1409 60.5811 30.1409C60.3727 30.1448 60.1656 30.1067 59.9724 30.029V30.026ZM66.8425 27.1488C66.8425 25.2476 68.149 24.1506 69.5863 24.1506C71.0237 24.1506 72.331 25.2476 72.331 27.1488C72.331 29.0501 71.0245 30.1363 69.5863 30.1363C68.1482 30.1363 66.8425 29.0439 66.8425 27.1488ZM70.9401 27.1488C70.9401 26.0052 70.432 25.243 69.5863 25.243C68.7406 25.243 68.2334 26.0052 68.2334 27.1488C68.2334 28.2925 68.743 29.0485 69.5863 29.0485C70.4297 29.0485 70.9401 28.2978 70.9401 27.1488ZM73.6723 24.29H78.5729V29.9984H77.22V25.3579H75.0252V30.0015H73.6723V24.29ZM80.2976 24.29H81.8465L82.772 26.5958C82.9323 27.0653 83.0872 27.4974 83.2366 27.9294H83.2839C83.4388 27.4974 83.6053 27.0653 83.754 26.5958L84.6345 24.29H86.178V29.9984H84.966V27.9991C84.966 27.4391 85.0597 26.3958 85.1116 25.7777H85.0643C84.9001 26.2564 84.6771 26.8003 84.5145 27.2561L83.6386 29.4852H82.844L81.9472 27.2591C81.7822 26.8033 81.56 26.2457 81.3973 25.7807H81.3501C81.402 26.3989 81.4957 27.4422 81.4957 28.0022V30.0015H80.2976V24.29ZM87.517 27.1488C87.517 25.2943 88.8188 24.1506 90.1772 24.1506C91.7369 24.1506 92.5594 25.2667 92.5594 26.8608C92.5607 27.0789 92.541 27.2967 92.5005 27.5111H88.8374C88.9505 28.5246 89.6118 29.1006 90.5412 29.1006C91.0345 29.1006 91.4573 28.9474 91.8802 28.687L92.3448 29.5196C91.7613 29.9142 91.0729 30.1292 90.3661 30.1378C88.7669 30.1409 87.517 29.034 87.517 27.1488ZM91.3892 26.6004C91.3892 25.7217 90.995 25.1871 90.2051 25.1871C89.5328 25.1871 88.9412 25.685 88.8235 26.6004H91.3892ZM93.8535 24.29H95.2072V26.4747H97.505V24.2931H98.8587V30.0015H97.505V27.6536H95.2072V30.0015H93.8535V24.29ZM101.83 25.3548H100.016V24.29H104.998V25.3548H103.184V29.9984H101.83V25.3548Z" fill="#222222"></path> <path d="M18 19.2757L18.0627 11.588L29.4633 8V19.2757H18Z" fill="#D3413F"></path> </g> <path d="M117.197 24.6367C116.523 24.6367 115.928 24.4977 115.413 24.2197C114.898 23.9417 114.497 23.5179 114.21 22.9482C113.923 22.3786 113.779 21.6608 113.779 20.7949C113.779 19.888 113.93 19.1475 114.23 18.5732C114.536 17.9945 114.955 17.5661 115.488 17.2881C116.021 17.0101 116.628 16.8711 117.307 16.8711C117.68 16.8711 118.04 16.9098 118.387 16.9873C118.738 17.0602 119.025 17.1536 119.248 17.2676L118.906 18.2178C118.678 18.1266 118.414 18.0446 118.113 17.9717C117.817 17.8988 117.539 17.8623 117.279 17.8623C116.76 17.8623 116.327 17.974 115.98 18.1973C115.639 18.4206 115.381 18.7487 115.208 19.1816C115.039 19.6146 114.955 20.1478 114.955 20.7812C114.955 21.3874 115.037 21.9046 115.201 22.333C115.37 22.7614 115.618 23.0895 115.946 23.3174C116.279 23.5407 116.694 23.6523 117.19 23.6523C117.587 23.6523 117.945 23.6113 118.264 23.5293C118.583 23.4427 118.872 23.3424 119.132 23.2285V24.2402C118.881 24.3678 118.601 24.4658 118.291 24.5342C117.986 24.6025 117.621 24.6367 117.197 24.6367ZM127.369 20.7402C127.369 21.3555 127.289 21.9046 127.13 22.3877C126.97 22.8708 126.74 23.2786 126.439 23.6113C126.139 23.944 125.774 24.1992 125.346 24.377C124.922 24.5501 124.441 24.6367 123.903 24.6367C123.402 24.6367 122.942 24.5501 122.522 24.377C122.108 24.1992 121.748 23.944 121.442 23.6113C121.142 23.2786 120.907 22.8708 120.738 22.3877C120.574 21.9046 120.492 21.3555 120.492 20.7402C120.492 19.9199 120.631 19.2227 120.909 18.6484C121.187 18.0697 121.584 17.6299 122.099 17.3291C122.618 17.0238 123.236 16.8711 123.951 16.8711C124.635 16.8711 125.232 17.0238 125.742 17.3291C126.257 17.6344 126.656 18.0765 126.938 18.6553C127.226 19.2295 127.369 19.9245 127.369 20.7402ZM121.668 20.7402C121.668 21.3418 121.748 21.8636 121.907 22.3057C122.067 22.7477 122.313 23.0895 122.646 23.3311C122.978 23.5726 123.407 23.6934 123.931 23.6934C124.45 23.6934 124.876 23.5726 125.209 23.3311C125.546 23.0895 125.795 22.7477 125.954 22.3057C126.114 21.8636 126.193 21.3418 126.193 20.7402C126.193 20.1432 126.114 19.6283 125.954 19.1953C125.795 18.7578 125.549 18.4206 125.216 18.1836C124.883 17.9466 124.452 17.8281 123.924 17.8281C123.145 17.8281 122.573 18.0856 122.208 18.6006C121.848 19.1156 121.668 19.8288 121.668 20.7402ZM128.148 17.0078H129.365L131.02 21.3555C131.115 21.6107 131.204 21.8568 131.286 22.0938C131.368 22.3262 131.441 22.5495 131.505 22.7637C131.569 22.9779 131.619 23.1852 131.655 23.3857H131.703C131.767 23.1579 131.858 22.8594 131.977 22.4902C132.095 22.1165 132.223 21.736 132.359 21.3486L133.925 17.0078H135.148L131.888 25.6006C131.715 26.0609 131.512 26.4619 131.279 26.8037C131.051 27.1455 130.773 27.4076 130.445 27.5898C130.117 27.7767 129.721 27.8701 129.256 27.8701C129.042 27.8701 128.853 27.8564 128.688 27.8291C128.524 27.8063 128.383 27.779 128.265 27.7471V26.8379C128.365 26.8607 128.486 26.8812 128.627 26.8994C128.773 26.9176 128.923 26.9268 129.078 26.9268C129.361 26.9268 129.604 26.8721 129.81 26.7627C130.019 26.6579 130.199 26.5029 130.35 26.2979C130.5 26.0928 130.63 25.849 130.739 25.5664L131.149 24.5137L128.148 17.0078ZM137.336 17.0078V19.7012C137.336 20.1706 137.464 20.5169 137.719 20.7402C137.979 20.9635 138.354 21.0752 138.847 21.0752C139.321 21.0752 139.751 21.0023 140.139 20.8564C140.526 20.7106 140.918 20.5124 141.314 20.2617V17.0078H142.449V24.5H141.314V21.1436C140.895 21.4124 140.483 21.6243 140.077 21.7793C139.672 21.9342 139.186 22.0117 138.621 22.0117C137.851 22.0117 137.254 21.8112 136.83 21.4102C136.411 21.0091 136.201 20.4668 136.201 19.7832V17.0078H137.336ZM148.369 16.8711C149.303 16.8711 150.049 17.1924 150.604 17.835C151.16 18.4775 151.438 19.4437 151.438 20.7334C151.438 21.5856 151.311 22.3011 151.056 22.8799C150.8 23.4587 150.44 23.8962 149.976 24.1924C149.515 24.4886 148.971 24.6367 148.342 24.6367C147.945 24.6367 147.597 24.5843 147.296 24.4795C146.995 24.3747 146.738 24.2334 146.523 24.0557C146.309 23.8779 146.132 23.6842 145.99 23.4746H145.908C145.922 23.6523 145.938 23.8665 145.956 24.1172C145.979 24.3678 145.99 24.5866 145.99 24.7734V27.8496H144.849V17.0078H145.785L145.936 18.1152H145.99C146.136 17.8874 146.314 17.68 146.523 17.4932C146.733 17.3018 146.988 17.1514 147.289 17.042C147.594 16.9281 147.954 16.8711 148.369 16.8711ZM148.171 17.8281C147.651 17.8281 147.232 17.9284 146.913 18.1289C146.599 18.3294 146.368 18.6302 146.223 19.0312C146.077 19.4277 145.999 19.9268 145.99 20.5283V20.7471C145.99 21.3805 146.059 21.916 146.195 22.3535C146.337 22.791 146.567 23.1237 146.886 23.3516C147.209 23.5794 147.642 23.6934 148.185 23.6934C148.649 23.6934 149.037 23.568 149.347 23.3174C149.657 23.0667 149.887 22.7181 150.037 22.2715C150.192 21.8203 150.27 21.3031 150.27 20.7197C150.27 19.8356 150.096 19.1338 149.75 18.6143C149.408 18.0902 148.882 17.8281 148.171 17.8281ZM156.306 16.8711C156.944 16.8711 157.491 17.0124 157.946 17.2949C158.402 17.5775 158.751 17.974 158.992 18.4844C159.234 18.9902 159.354 19.5827 159.354 20.2617V20.9658H154.18C154.193 21.8454 154.412 22.5153 154.836 22.9756C155.26 23.4359 155.857 23.666 156.627 23.666C157.101 23.666 157.52 23.6227 157.885 23.5361C158.249 23.4495 158.628 23.3219 159.02 23.1533V24.1514C158.641 24.32 158.265 24.443 157.892 24.5205C157.522 24.598 157.085 24.6367 156.579 24.6367C155.859 24.6367 155.23 24.4909 154.692 24.1992C154.159 23.903 153.744 23.4701 153.448 22.9004C153.152 22.3307 153.004 21.6335 153.004 20.8086C153.004 20.002 153.138 19.3047 153.407 18.7168C153.681 18.1243 154.063 17.6686 154.556 17.3496C155.052 17.0306 155.636 16.8711 156.306 16.8711ZM156.292 17.8008C155.686 17.8008 155.203 17.999 154.843 18.3955C154.483 18.792 154.269 19.3457 154.2 20.0566H158.165C158.16 19.61 158.09 19.2181 157.953 18.8809C157.821 18.5391 157.618 18.2747 157.345 18.0879C157.071 17.8965 156.72 17.8008 156.292 17.8008ZM166.771 17.0078V23.5361H167.845V27.0908H166.744V24.5H161.439V27.0908H160.353V23.5361H160.94C161.369 22.9437 161.724 22.2943 162.007 21.5879C162.289 20.8815 162.504 20.141 162.649 19.3662C162.795 18.5869 162.873 17.8008 162.882 17.0078H166.771ZM165.671 17.9102H163.894C163.853 18.5755 163.755 19.2523 163.6 19.9404C163.449 20.6286 163.249 21.2848 162.998 21.9092C162.747 22.529 162.456 23.0713 162.123 23.5361H165.671V17.9102ZM170.415 17.0078V21.7178C170.415 21.8089 170.413 21.9274 170.408 22.0732C170.404 22.2145 170.397 22.3672 170.388 22.5312C170.379 22.6908 170.369 22.8457 170.36 22.9961C170.356 23.1419 170.349 23.2627 170.34 23.3584L174.428 17.0078H175.822V24.5H174.763V19.9062C174.763 19.7604 174.765 19.5736 174.77 19.3457C174.774 19.1178 174.781 18.8945 174.79 18.6758C174.799 18.4525 174.806 18.2793 174.811 18.1562L170.736 24.5H169.335V17.0078H170.415ZM183.342 17.9717H180.874V24.5H179.753V17.9717H177.319V17.0078H183.342V17.9717ZM187.71 16.8711C188.348 16.8711 188.895 17.0124 189.351 17.2949C189.806 17.5775 190.155 17.974 190.396 18.4844C190.638 18.9902 190.759 19.5827 190.759 20.2617V20.9658H185.584C185.598 21.8454 185.816 22.5153 186.24 22.9756C186.664 23.4359 187.261 23.666 188.031 23.666C188.505 23.666 188.924 23.6227 189.289 23.5361C189.654 23.4495 190.032 23.3219 190.424 23.1533V24.1514C190.046 24.32 189.67 24.443 189.296 24.5205C188.927 24.598 188.489 24.6367 187.983 24.6367C187.263 24.6367 186.634 24.4909 186.097 24.1992C185.563 23.903 185.149 23.4701 184.853 22.9004C184.556 22.3307 184.408 21.6335 184.408 20.8086C184.408 20.002 184.543 19.3047 184.812 18.7168C185.085 18.1243 185.468 17.6686 185.96 17.3496C186.457 17.0306 187.04 16.8711 187.71 16.8711ZM187.696 17.8008C187.09 17.8008 186.607 17.999 186.247 18.3955C185.887 18.792 185.673 19.3457 185.604 20.0566H189.569C189.565 19.61 189.494 19.2181 189.357 18.8809C189.225 18.5391 189.022 18.2747 188.749 18.0879C188.476 17.8965 188.125 17.8008 187.696 17.8008ZM198.306 24.5H197.15V17.958H194.874C194.783 19.1383 194.667 20.1501 194.525 20.9932C194.389 21.8317 194.215 22.5176 194.006 23.0508C193.801 23.5794 193.55 23.9691 193.254 24.2197C192.962 24.4658 192.614 24.5889 192.208 24.5889C192.085 24.5889 191.969 24.582 191.859 24.5684C191.75 24.5547 191.657 24.5319 191.579 24.5V23.6387C191.638 23.6569 191.7 23.6706 191.764 23.6797C191.832 23.6888 191.903 23.6934 191.976 23.6934C192.181 23.6934 192.368 23.609 192.536 23.4404C192.709 23.2673 192.864 23.0075 193.001 22.6611C193.142 22.3148 193.268 21.8773 193.377 21.3486C193.486 20.8154 193.582 20.1888 193.664 19.4688C193.751 18.7441 193.826 17.9238 193.89 17.0078H198.306V24.5ZM201.84 20.0977H204.137C204.775 20.0977 205.306 20.1774 205.729 20.3369C206.153 20.4964 206.47 20.7334 206.68 21.0479C206.894 21.3623 207.001 21.752 207.001 22.2168C207.001 22.6816 206.896 23.085 206.687 23.4268C206.481 23.7686 206.162 24.0329 205.729 24.2197C205.301 24.4066 204.747 24.5 204.068 24.5H200.698V17.0078H201.84V20.0977ZM205.859 22.2715C205.859 21.8112 205.695 21.4922 205.367 21.3145C205.044 21.1322 204.59 21.041 204.007 21.041H201.84V23.5771H204.014C204.561 23.5771 205.005 23.4769 205.347 23.2764C205.688 23.0713 205.859 22.7363 205.859 22.2715Z" fill="#555555"></path> <defs> <clipPath id="clip0_3161_965"> <rect width="87" height="24" fill="white" transform="translate(18 8)"></rect> </clipPath> </defs> </svg> 