<?xml version="1.0" encoding="UTF-8"?> <svg xmlns="http://www.w3.org/2000/svg" width="137" height="52" viewBox="0 0 137 52" fill="none"> <g clip-path="url(#clip0_3161_126)"> <path d="M125.335 22.1906V34.8625H121.909V18.0604C122.02 18.0509 122.134 18.035 122.247 18.035C123.53 18.035 124.812 18.0271 126.093 18.0445C126.179 18.0464 126.263 18.0663 126.34 18.103C126.417 18.1397 126.485 18.1924 126.541 18.2575C128.671 21.6964 130.794 25.1448 132.909 28.6028C133.144 28.9842 133.345 29.3879 133.587 29.8296V18.07H137.005V34.864C136.897 34.872 136.784 34.8895 136.67 34.8895C135.493 34.8895 134.318 34.8895 133.141 34.8895C133.032 34.9021 132.922 34.8806 132.825 34.8279C132.729 34.7753 132.651 34.6941 132.603 34.5955C130.214 30.4944 127.821 26.3971 125.422 22.3034C125.396 22.264 125.367 22.2263 125.335 22.1906Z" fill="#222222"></path> <path d="M110.349 17.503C115.28 17.5173 119.3 21.5378 119.289 26.4435C119.297 27.6349 119.07 28.8161 118.62 29.9188C118.17 31.0215 117.506 32.0237 116.666 32.8673C115.826 33.7108 114.827 34.379 113.728 34.8329C112.629 35.2869 111.45 35.5177 110.261 35.5119C109.072 35.5061 107.896 35.2639 106.801 34.7992C105.706 34.3346 104.714 33.6568 103.882 32.8051C103.05 31.9534 102.396 30.9448 101.956 29.8378C101.517 28.7307 101.301 27.5473 101.322 26.3561C101.344 21.4711 105.403 17.4887 110.349 17.503ZM110.309 31.8736C111.376 31.8692 112.417 31.548 113.301 30.9507C114.186 30.3533 114.874 29.5066 115.278 28.5176C115.682 27.5287 115.784 26.4419 115.572 25.3946C115.359 24.3474 114.842 23.3868 114.085 22.6343C113.327 21.8818 112.364 21.3712 111.317 21.167C110.27 20.9628 109.186 21.0743 108.202 21.4873C107.219 21.9003 106.379 22.5963 105.79 23.4873C105.201 24.3782 104.889 25.4241 104.894 26.4928C104.897 27.2023 105.039 27.9043 105.313 28.5587C105.586 29.2132 105.986 29.8072 106.489 30.3068C106.992 30.8065 107.588 31.202 108.244 31.4708C108.899 31.7397 109.601 31.8765 110.309 31.8736Z" fill="#222222"></path> <path d="M0 34.8515V18.0209H8.12292C9.37266 18.0095 10.6093 18.2764 11.7435 18.8024C12.8776 19.3284 13.8809 20.1003 14.6809 21.0623C15.4808 22.0244 16.0574 23.1524 16.3689 24.365C16.6804 25.5776 16.7191 26.8444 16.4822 28.0738C15.7874 31.856 12.3739 34.7847 8.47665 34.8594C5.71666 34.9135 2.9535 34.8722 0.193516 34.8706C0.144344 34.8706 0.0856547 34.861 0 34.8515ZM3.34847 31.5143C5.19956 31.5143 7.01576 31.6096 8.81609 31.4905C11.3128 31.3315 13.2955 29.1655 13.3843 26.7087C13.4163 26.019 13.3082 25.3299 13.0665 24.6833C12.8247 24.0367 12.4544 23.446 11.9781 22.947C11.5017 22.448 10.9291 22.0512 10.295 21.7805C9.66099 21.5098 8.97868 21.371 8.28948 21.3724C6.75721 21.3597 5.22494 21.3724 3.6895 21.3724C3.57688 21.3724 3.46426 21.3914 3.34688 21.401L3.34847 31.5143Z" fill="#222222"></path> <path d="M33.3387 34.8689H20.2177V18.0669H33.2626V21.3087H24.0356V24.5077H32.7883V27.7829H24.0309V31.5969H33.3387V34.8689Z" fill="#222222"></path> <path d="M76.3755 29.8503C77.6222 29.8503 78.8373 29.8503 80.0507 29.8503C80.0975 29.8578 80.1419 29.8761 80.1804 29.9036C80.2189 29.9312 80.2506 29.9674 80.2728 30.0092C80.8295 31.5507 82.0779 32.0751 83.5546 32.2039C84.4619 32.2865 85.3772 32.2817 86.2623 31.9925C86.9761 31.7605 87.4535 31.3251 87.5312 30.5368C87.601 29.7884 87.3028 29.1479 86.5335 28.8603C85.5055 28.4946 84.4548 28.1963 83.3881 27.9672C82.0097 27.6494 80.6503 27.3125 79.3639 26.6959C76.0567 25.1067 76.4485 20.5443 79.1291 18.9186C80.5329 18.0652 82.0636 17.7474 83.6704 17.7363C85.2408 17.7252 86.7841 17.9222 88.1927 18.7009C88.8625 19.0531 89.4434 19.5538 89.8909 20.1649C90.3384 20.776 90.6408 21.4813 90.775 22.2272C90.789 22.3054 90.7975 22.3846 90.8004 22.464C90.8007 22.5203 90.7975 22.5765 90.7909 22.6324C90.7115 22.6446 90.6315 22.6525 90.5513 22.6563C89.4664 22.6563 88.383 22.6563 87.2996 22.6563C87.1823 22.6563 86.9903 22.58 86.9618 22.4974C86.589 21.3738 85.7166 20.9464 84.6428 20.8001C83.8065 20.6574 82.9491 20.7013 82.1318 20.9289C81.6782 21.0703 81.2832 21.3071 81.0595 21.7489C80.6852 22.4894 80.9263 23.338 81.721 23.6352C82.6609 23.9783 83.6234 24.256 84.6015 24.4663C86.1211 24.8191 87.6375 25.1576 89.0334 25.8965C90.6307 26.7388 91.4491 28.0292 91.4475 29.8615C91.4475 31.7414 90.7036 33.1891 89.0809 34.1521C87.8342 34.8911 86.4479 35.1501 85.025 35.2375C83.1866 35.352 81.3768 35.228 79.6795 34.4223C77.7777 33.4942 76.7308 31.9528 76.3755 29.8503Z" fill="#222222"></path> <path d="M68.0115 18.0352C67.6483 18.9775 67.3183 19.8388 66.9852 20.6986C65.196 25.306 63.4089 29.9145 61.6239 34.5241C61.516 34.8038 61.3891 34.9071 61.0877 34.9023C59.8061 34.8849 58.5245 34.888 57.2428 34.9023C57.1348 34.9186 57.0246 34.8932 56.9345 34.8313C56.8444 34.7694 56.7811 34.6755 56.7574 34.5686C54.7133 29.1835 52.6619 23.8006 50.603 18.4197C50.5617 18.3133 50.5364 18.2004 50.4888 18.0415H50.9551C52.0908 18.0415 53.2281 18.0415 54.3639 18.0415C54.5875 18.0415 54.7176 18.0844 54.7969 18.3244C56.2625 22.7374 57.9693 27.0647 59.1764 31.5683C59.2008 31.6409 59.2294 31.712 59.262 31.7813C59.5936 30.7451 59.8965 29.7392 60.2375 28.7444C61.4193 25.2944 62.6168 21.8491 63.7954 18.3991C63.8858 18.1337 64.0032 18.0336 64.2935 18.0383C65.5053 18.0447 66.7188 18.0352 68.0115 18.0352Z" fill="#222222"></path> <path d="M41.809 25.9619V0.535544C41.809 1.66708e-06 41.809 0 42.3483 0C42.7845 0 43.2207 0.00794573 43.6569 0C43.8885 0 44.009 0.0667441 43.9852 0.317829C43.9852 0.409999 43.9852 0.503759 43.9852 0.595929C43.9852 17.533 43.9852 34.4691 43.9852 51.4041C43.9852 52.089 44.0201 51.9921 43.3857 51.9968C42.9748 51.9968 42.5656 51.9857 42.1564 51.9968C41.9041 52.0064 41.7836 51.9301 41.8074 51.6615C41.8233 51.4915 41.8074 51.3183 41.8074 51.1466L41.809 25.9619Z" fill="#D3413F"></path> <path d="M69.8959 18.0557H73.6758V34.8704H69.8959V18.0557Z" fill="#222222"></path> <path d="M98.365 34.8689H94.5756V18.0605H98.365V34.8689Z" fill="#222222"></path> </g> <defs> <clipPath id="clip0_3161_126"> <rect width="137" height="52" fill="white"></rect> </clipPath> </defs> </svg> 