<?xml version="1.0" encoding="UTF-8"?> <svg xmlns="http://www.w3.org/2000/svg" width="60" height="60" viewBox="0 0 60 60" fill="none"> <circle cx="30" cy="30" r="30" fill="#D3413F"></circle> <path d="M15 40.8241V19.8657C15.0517 19.6882 15.105 19.5116 15.155 19.3332C15.655 17.5441 17.2008 16.3907 19.1267 16.3891C25.2378 16.3846 31.3489 16.3846 37.46 16.3891C37.5217 16.3891 37.5842 16.3891 37.6467 16.3891C39.1658 16.4549 40.2483 17.5557 40.2758 19.0766C40.2858 19.6791 40.2758 20.2824 40.2758 20.8849C40.2758 21.1516 40.2758 21.4182 40.2758 21.7182C40.6992 21.7182 41.0817 21.7182 41.4633 21.7182C43.1592 21.7257 44.2625 22.8324 44.2683 24.5349C44.2683 25.2624 44.2683 25.9899 44.2683 26.7182C44.2683 26.8174 44.2575 26.9166 44.25 27.0357C43.1758 27.0357 42.1275 27.0274 41.0833 27.0399C40.6888 27.0364 40.2947 27.0682 39.9058 27.1349C36.6808 27.7607 34.6492 30.5516 35.0217 33.8274C35.3158 36.4166 37.5567 38.6991 40.1467 38.9374C41.3833 39.0516 42.6375 38.9924 43.8833 39.0116C44.005 39.0116 44.1258 39.0116 44.25 39.0116C44.25 40.0541 44.25 41.0599 44.2458 42.0657C44.2344 42.2006 44.2035 42.3331 44.1542 42.4591C43.7908 43.6257 42.7867 44.3274 41.4733 44.3282C34.0111 44.3282 26.5486 44.3282 19.0858 44.3282C19.0025 44.3282 18.9192 44.3282 18.8358 44.3232C17.5975 44.2691 16.6075 43.7324 15.8358 42.7741C15.3717 42.2057 15.1475 41.5316 15 40.8241ZM37.6133 19.0541H19.1617C19.0683 19.0541 18.9742 19.0541 18.8808 19.0582C18.5558 19.085 18.2521 19.2309 18.028 19.4679C17.8039 19.7049 17.6752 20.0164 17.6667 20.3424C17.6458 21.1699 18.2408 21.7232 19.1608 21.7232H37.2733C37.3833 21.7232 37.4925 21.7132 37.6133 21.7066V19.0541Z" fill="white"></path> <path d="M46.9375 33.0341C46.9375 33.9899 46.9375 34.9466 46.9375 35.9024C46.9375 36.6241 46.54 37.0183 45.815 37.0191C44.1942 37.0191 42.5725 37.0258 40.9509 37.0191C38.8817 37.0091 37.2009 35.4791 36.9717 33.4108C36.755 31.4591 38.1017 29.5958 40.07 29.1416C40.3638 29.0754 40.6639 29.0418 40.965 29.0416C42.5867 29.0316 44.2075 29.0358 45.8292 29.0374C46.53 29.0374 46.935 29.4391 46.9367 30.1358C46.94 31.1008 46.9375 32.0674 46.9375 33.0341ZM42.2709 33.0341C42.2725 32.7725 42.1965 32.5162 42.0526 32.2977C41.9086 32.0792 41.7031 31.9083 41.462 31.8066C41.221 31.7049 40.9551 31.6769 40.6982 31.7262C40.4412 31.7755 40.2046 31.8999 40.0183 32.0836C39.832 32.2674 39.7044 32.5022 39.6515 32.7585C39.5986 33.0147 39.6229 33.2809 39.7213 33.5234C39.8197 33.7658 39.9877 33.9737 40.2042 34.1207C40.4207 34.2676 40.6759 34.3471 40.9375 34.3491C41.1121 34.3528 41.2856 34.3215 41.4479 34.257C41.6102 34.1925 41.7579 34.0962 41.8823 33.9737C42.0067 33.8512 42.1054 33.705 42.1724 33.5438C42.2394 33.3826 42.2735 33.2095 42.2725 33.0349L42.2709 33.0341Z" fill="white"></path> </svg> 